<svg width="286" height="84" viewBox="0 0 286 84" fill="none" xmlns="http://www.w3.org/2000/svg">
<rect x="0.5" y="0.5" width="285" height="83" fill="white" stroke="black"/>
<path d="M14.04 32.392H20.064C21.744 32.392 22.984 32.744 23.784 33.448C24.6 34.136 25.008 35.216 25.008 36.688C25.008 37.664 24.832 38.448 24.48 39.04C24.128 39.616 23.592 40.08 22.872 40.432C23.768 40.752 24.432 41.232 24.864 41.872C25.296 42.512 25.512 43.376 25.512 44.464C25.512 46.032 25.072 47.184 24.192 47.92C23.328 48.64 22.056 49 20.376 49H14.04V32.392ZM20.16 39.76C21.168 39.76 21.912 39.52 22.392 39.04C22.872 38.544 23.112 37.808 23.112 36.832C23.112 35.84 22.864 35.128 22.368 34.696C21.872 34.248 21.08 34.024 19.992 34.024H15.888V39.76H20.16ZM20.304 47.368C21.392 47.368 22.216 47.136 22.776 46.672C23.352 46.208 23.64 45.456 23.64 44.416C23.64 43.296 23.328 42.512 22.704 42.064C22.08 41.6 21.24 41.368 20.184 41.368H15.888V47.368H20.304ZM28.5171 37H30.2931V49H28.5171V37ZM28.5171 32.2H30.2931V34.288H28.5171V32.2ZM33.8876 31.768H35.6876V49H33.8876V31.768ZM39.4423 31.768H41.2423V49H39.4423V31.768ZM44.853 37H46.629V37.864C47.253 37.496 47.853 37.224 48.429 37.048C49.021 36.856 49.645 36.76 50.301 36.76C51.789 36.76 52.869 37.256 53.541 38.248C54.229 39.224 54.573 40.784 54.573 42.928C54.573 44.448 54.397 45.672 54.045 46.6C53.693 47.512 53.133 48.184 52.365 48.616C51.597 49.032 50.565 49.24 49.269 49.24C48.373 49.24 47.501 49.152 46.653 48.976V54.328H44.853V37ZM49.293 47.68C50.541 47.68 51.429 47.312 51.957 46.576C52.485 45.84 52.749 44.648 52.749 43C52.749 41.368 52.517 40.192 52.053 39.472C51.605 38.736 50.917 38.368 49.989 38.368C49.525 38.368 49.021 38.448 48.477 38.608C47.949 38.752 47.493 38.912 47.109 39.088L46.653 39.328V47.416C47.837 47.592 48.717 47.68 49.293 47.68ZM60.1253 49.24C59.0213 49.24 58.1813 48.928 57.6053 48.304C57.0293 47.68 56.7413 46.784 56.7413 45.616C56.7413 44.464 57.0293 43.608 57.6053 43.048C58.1973 42.488 59.1333 42.144 60.4133 42.016L64.1813 41.656V40.624C64.1813 39.104 63.5253 38.344 62.2133 38.344C60.9173 38.344 59.3413 38.448 57.4853 38.656L57.4133 37.288C59.1253 36.936 60.6853 36.76 62.0933 36.76C63.4533 36.76 64.4373 37.072 65.0453 37.696C65.6693 38.304 65.9813 39.28 65.9813 40.624V46.768C66.0293 47.36 66.4933 47.712 67.3733 47.824L67.3013 49.24C66.0373 49.24 65.0853 48.92 64.4453 48.28C63.0213 48.92 61.5813 49.24 60.1253 49.24ZM60.4133 47.728C61.4853 47.728 62.5573 47.544 63.6293 47.176L64.1813 46.984V43.024L60.6293 43.36C59.9093 43.424 59.3893 43.632 59.0693 43.984C58.7493 44.336 58.5893 44.848 58.5893 45.52C58.5893 46.992 59.1973 47.728 60.4133 47.728ZM73.4715 49H71.6955L68.2875 37H70.0875L73.0875 47.44H73.8795L76.9035 37H78.7035L73.7115 54.328H71.9115L73.4715 49Z" fill="black"/>
<path d="M264 18.1667H204V66.8333H264V18.1667ZM258 60.75H210V42.5H258V60.75ZM258 30.3333H210V24.25H258V30.3333Z" fill="black"/>
</svg>
