<svg width="508" height="122" viewBox="0 0 508 122" fill="none" xmlns="http://www.w3.org/2000/svg">
<rect x="0.5" y="0.5" width="507" height="121" fill="white" stroke="black"/>
<path d="M180.375 18.0759C182.103 18.0784 184.358 18.3376 187.141 18.8535L187.04 22.4534C184.417 21.9377 182.193 21.6785 180.369 21.6759C178.513 21.6732 177.169 22.0393 176.336 22.7741C175.535 23.509 175.133 24.6284 175.131 26.1324L175.129 27.3804C175.128 28.1804 175.223 28.8205 175.415 29.3008C175.638 29.7491 176.021 30.1497 176.565 30.5025C177.108 30.8232 177.924 31.1604 179.011 31.514L183.473 33.0083C185.616 33.7474 187.119 34.7255 187.981 35.9428C188.875 37.16 189.321 38.9367 189.318 41.2727L189.316 42.1847C189.312 45.0327 188.477 47.1595 186.811 48.5651C185.177 49.9708 182.488 50.6709 178.744 50.6656C176.92 50.663 174.585 50.3397 171.737 49.6956L171.839 45.9997C174.494 46.6435 176.765 46.9668 178.653 46.9695C181.053 46.9729 182.75 46.6233 183.743 45.9207C184.736 45.1861 185.234 44.0509 185.236 42.5149L185.238 40.9309C185.24 39.8109 184.985 38.9625 184.474 38.3858C183.994 37.7771 183.131 37.2638 181.884 36.8461L176.942 35.207C174.735 34.4679 173.201 33.5217 172.338 32.3684C171.476 31.1832 171.046 29.4066 171.05 27.0386L171.051 26.5106C171.055 23.7266 171.794 21.6316 173.268 20.2257C174.774 18.7879 177.143 18.0713 180.375 18.0759ZM202.056 26.1228C204.744 26.1267 206.791 26.8656 208.197 28.3396C209.603 29.8136 210.304 31.9426 210.3 34.7266L210.293 39.6706L197.957 39.653L197.953 42.485C197.95 44.117 198.333 45.3015 199.1 46.0386C199.899 46.7438 201.146 47.0976 202.842 47.1C204.506 47.1024 206.587 46.8493 209.083 46.3409L209.174 49.893C206.197 50.4328 204.069 50.7017 202.789 50.6999C199.621 50.6954 197.334 50.0041 195.928 48.6261C194.554 47.2482 193.869 45.1192 193.873 42.2392L193.884 34.7032C193.888 31.9192 194.563 29.7922 195.909 28.3221C197.287 26.852 199.336 26.119 202.056 26.1228ZM202.051 29.5308C200.803 29.5291 199.811 29.9276 199.074 30.7266C198.336 31.4935 197.967 32.613 197.965 34.085L197.961 36.389L206.217 36.4008L206.221 34.2408C206.223 32.7048 205.84 31.5363 205.074 30.7352C204.339 29.9341 203.331 29.5327 202.051 29.5308ZM238.357 26.1747C240.405 26.1776 241.972 26.8838 243.058 28.2934C244.144 29.6709 244.685 31.6397 244.681 34.1997L244.659 50.1837L240.579 50.1779L240.601 34.7699C240.605 31.5699 239.583 29.9684 237.535 29.9655C236.639 29.9642 235.711 30.3149 234.75 31.0175C233.821 31.7202 233.004 32.679 232.298 33.894L232.275 50.166L228.195 50.1602L228.217 34.7522C228.221 31.5522 227.199 29.9507 225.151 29.9478C224.255 29.9465 223.327 30.2972 222.366 30.9998C221.437 31.7025 220.62 32.6613 219.914 33.8763L219.891 50.1483L215.811 50.1425L215.844 26.7185L219.684 26.724L219.679 30.228C220.513 28.9172 221.474 27.9106 222.563 27.2081C223.652 26.5057 224.789 26.1553 225.973 26.157C227.445 26.1591 228.676 26.5448 229.667 27.3143C230.658 28.0517 231.377 29.1407 231.823 30.5813C232.689 29.1426 233.682 28.056 234.803 27.3216C235.924 26.5552 237.109 26.1729 238.357 26.1747ZM255.502 26.7751L255.469 50.1991L251.389 50.1933L251.422 26.7693L255.502 26.7751ZM253.452 17.3162C254.316 17.3174 254.971 17.5104 255.419 17.895C255.898 18.2797 256.137 18.824 256.136 19.528L256.134 20.92C256.133 21.624 255.893 22.1677 255.412 22.551C254.964 22.9024 254.307 23.0774 253.443 23.0762C252.611 23.075 251.956 22.8981 251.476 22.5454C251.029 22.1607 250.805 21.6164 250.807 20.9124L250.808 19.5204C250.809 18.8164 251.034 18.2727 251.483 17.8894C251.963 17.5061 252.62 17.315 253.452 17.3162ZM270.412 26.2204C271.852 26.2225 273.484 26.4328 275.307 26.8514L275.206 30.4513C273.351 30.0326 271.751 29.8223 270.407 29.8204C268.903 29.8183 267.75 30.2326 266.949 31.0635C266.18 31.8944 265.794 33.0778 265.792 34.6138L265.781 42.3418C265.779 43.9418 266.177 45.1584 266.976 45.9915C267.807 46.7927 268.942 47.1943 270.382 47.1964C271.278 47.1977 272.062 47.1508 272.734 47.0557C273.407 46.9607 274.223 46.8019 275.183 46.5792L275.274 50.1794C273.321 50.5926 271.673 50.7982 270.329 50.7963C264.569 50.7881 261.693 47.872 261.702 42.048L261.712 34.944C261.72 29.12 264.62 26.2121 270.412 26.2204ZM288.875 26.2468C291.723 26.2508 293.834 27.0218 295.208 28.5598C296.614 30.0658 297.315 32.2108 297.311 34.9948L297.301 42.0988C297.297 44.8828 296.59 47.0418 295.179 48.5758C293.801 50.0778 291.688 50.8268 288.84 50.8227C285.992 50.8187 283.865 50.0636 282.459 48.5576C281.086 47.0197 280.401 44.8587 280.405 42.0747L280.415 34.9707C280.419 32.1867 281.11 30.0437 282.488 28.5416C283.898 27.0077 286.027 26.2427 288.875 26.2468ZM288.87 29.6548C287.494 29.6528 286.422 30.0833 285.653 30.9462C284.883 31.8091 284.498 33.0405 284.495 34.6405L284.484 42.4165C284.482 44.0165 284.864 45.2491 285.631 46.1142C286.398 46.9792 287.469 47.4128 288.845 47.4147C290.221 47.4167 291.294 46.9862 292.063 46.1233C292.832 45.2604 293.218 44.029 293.22 42.429L293.231 34.605C293.234 33.005 292.851 31.7884 292.085 30.9553C291.318 30.0903 290.246 29.6567 288.87 29.6548ZM313.772 26.2823C315.82 26.2852 317.387 26.9915 318.473 28.401C319.591 29.7786 320.148 31.7474 320.144 34.3074L320.122 50.2914L316.042 50.2856L316.064 34.8776C316.068 31.6776 315.03 30.0761 312.95 30.0731C312.022 30.0718 311.078 30.4225 310.117 31.1251C309.156 31.8277 308.323 32.7865 307.617 34.0015L307.594 50.2735L303.514 50.2677L303.547 26.8437L307.387 26.8492L307.382 30.3532C308.248 29.0424 309.209 28.0358 310.266 27.3333C311.355 26.6308 312.524 26.2805 313.772 26.2823ZM342.985 50.324L339.097 50.3185L339.103 46.5265C337.179 49.4357 334.985 50.8886 332.521 50.8851C330.537 50.8822 329.018 50.2081 327.963 48.8626C326.909 47.4851 326.384 45.4843 326.388 42.8603L326.4 34.3163C326.404 31.7883 326.983 29.8212 328.137 28.4148C329.323 27.0085 331.004 26.3069 333.18 26.31C334.108 26.3113 335.083 26.5527 336.107 27.0342C337.13 27.4836 338.073 28.045 338.936 28.7182L338.952 17.5342L343.032 17.54L342.985 50.324ZM334.086 29.9593C332.934 29.9576 332.038 30.3724 331.397 31.2035C330.788 32.0026 330.482 33.2342 330.479 34.8982L330.469 42.3381C330.464 45.6021 331.47 47.2356 333.486 47.2385C334.446 47.2398 335.39 46.8732 336.319 46.1385C337.28 45.3719 338.146 44.3011 338.916 42.9262L338.931 32.3662C338.26 31.6613 337.461 31.0841 336.533 30.6348C335.638 30.1855 334.822 29.9603 334.086 29.9593ZM366.005 50.3569L362.165 50.3514L362.17 46.9914C361.304 48.2702 360.343 49.2448 359.286 49.9153C358.229 50.5858 357.109 50.9202 355.925 50.9185C353.973 50.9157 352.438 50.2415 351.32 48.8959C350.234 47.5184 349.692 45.5176 349.696 42.8936L349.719 26.9096L353.799 26.9154L353.777 42.1794C353.775 43.8754 354.029 45.1238 354.54 45.9245C355.083 46.7253 355.818 47.1263 356.746 47.1277C357.61 47.1289 358.507 46.7942 359.436 46.1235C360.397 45.4209 361.23 44.4621 361.936 43.2471L361.959 26.9271L366.039 26.9329L366.005 50.3569ZM380.99 26.3782C382.43 26.3803 384.062 26.5906 385.885 27.0092L385.784 30.6091C383.929 30.1904 382.329 29.9802 380.985 29.9782C379.481 29.9761 378.328 30.3904 377.527 31.2213C376.758 32.0522 376.372 33.2357 376.37 34.7716L376.359 42.4996C376.357 44.0996 376.755 45.3162 377.554 46.1494C378.385 46.9505 379.52 47.3522 380.96 47.3542C381.856 47.3555 382.64 47.3086 383.312 47.2136C383.985 47.1185 384.801 46.9597 385.761 46.7371L385.852 50.3372C383.899 50.7504 382.251 50.9561 380.907 50.9541C375.147 50.9459 372.271 48.0298 372.28 42.2058L372.29 35.1018C372.298 29.2778 375.198 26.37 380.99 26.3782ZM396.753 26.9767L402.993 26.9856L402.988 30.3456L396.748 30.3367L396.729 44.0647C396.727 45.2807 396.966 46.1611 397.445 46.7057C397.956 47.2185 398.74 47.4756 399.796 47.4771C401.14 47.479 402.452 47.3209 403.733 47.0027L403.824 50.4109C402.415 50.7928 401.135 50.983 399.983 50.9814C397.423 50.9777 395.552 50.415 394.369 49.2934C393.219 48.1397 392.646 46.2829 392.649 43.7229L392.668 30.3309L389.308 30.3261L389.313 26.9661L392.673 26.9709L393.45 20.732L396.762 20.7367L396.753 26.9767ZM416.141 26.4284C418.989 26.4325 421.1 27.2035 422.474 28.7414C423.879 30.2475 424.58 32.3925 424.576 35.1765L424.566 42.2804C424.562 45.0644 423.855 47.2234 422.445 48.7574C421.067 50.2595 418.954 51.0084 416.106 51.0044C413.258 51.0003 411.131 50.2453 409.725 48.7393C408.351 47.2013 407.666 45.0403 407.67 42.2563L407.68 35.1523C407.684 32.3683 408.375 30.2253 409.754 28.7233C411.164 27.1893 413.293 26.4243 416.141 26.4284ZM416.136 29.8364C414.76 29.8344 413.687 30.2649 412.918 31.1278C412.149 31.9907 411.763 33.2222 411.761 34.8222L411.75 42.5982C411.747 44.1982 412.13 45.4307 412.896 46.2958C413.663 47.1609 414.735 47.5944 416.111 47.5964C417.487 47.5983 418.559 47.1679 419.328 46.305C420.098 45.4421 420.483 44.2106 420.486 42.6106L420.497 34.7866C420.499 33.1866 420.117 31.9701 419.35 31.137C418.583 30.2719 417.512 29.8384 416.136 29.8364ZM441.037 26.4639C441.485 26.4646 441.837 26.4971 442.093 26.5614L442.087 31.1694C441.607 31.0728 440.983 31.0239 440.215 31.0228C437.975 31.0196 436.197 32.137 434.882 34.3752L434.859 50.4551L430.779 50.4493L430.813 27.0253L434.653 27.0308L434.648 30.5348C435.513 29.2241 436.475 28.2174 437.532 27.5149C438.621 26.8125 439.789 26.4622 441.037 26.4639ZM220.148 69.1327C221.396 69.1345 222.74 69.2644 224.18 69.5225C225.651 69.7486 226.515 69.8778 226.771 69.9102L226.67 73.51C223.855 72.994 221.679 72.7349 220.143 72.7327C217.967 72.7296 216.398 73.1754 215.437 74.07C214.476 74.9646 213.994 76.4519 213.991 78.5319L213.971 92.2599C213.968 94.3399 214.43 95.8286 215.357 96.7259C216.316 97.5913 217.899 98.0255 220.107 98.0287C221.643 98.0309 223.819 97.778 226.636 97.27L226.727 100.966C226.471 100.998 225.606 101.125 224.134 101.346C222.694 101.6 221.35 101.726 220.102 101.725C216.422 101.719 213.799 100.932 212.233 99.3614C210.667 97.7912 209.887 95.3421 209.891 92.0141L209.91 78.8141C209.915 75.4861 210.703 73.0392 212.273 71.4735C213.843 69.9077 216.468 69.1275 220.148 69.1327ZM240.24 77.1774C243.088 77.1815 245.199 77.9525 246.573 79.4904C247.979 80.9964 248.68 83.1414 248.676 85.9254L248.665 93.0294C248.661 95.8134 247.954 97.9724 246.544 99.5064C245.166 101.008 243.053 101.757 240.205 101.753C237.357 101.749 235.23 100.994 233.824 99.4883C232.45 97.9503 231.765 95.7893 231.769 93.0053L231.78 85.9013C231.784 83.1173 232.475 80.9743 233.853 79.4723C235.263 77.9383 237.392 77.1733 240.24 77.1774ZM240.235 80.5854C238.859 80.5834 237.787 81.0139 237.017 81.8768C236.248 82.7397 235.862 83.9712 235.86 85.5712L235.849 93.3471C235.847 94.9471 236.229 96.1797 236.996 97.0448C237.762 97.9099 238.834 98.3434 240.21 98.3454C241.586 98.3473 242.658 97.9169 243.428 97.054C244.197 96.1911 244.583 94.9596 244.585 93.3596L244.596 85.5356C244.598 83.9356 244.216 82.7191 243.449 81.886C242.683 81.0209 241.611 80.5874 240.235 80.5854ZM277.425 77.2305C279.473 77.2334 281.04 77.9396 282.126 79.3492C283.212 80.7267 283.753 82.6955 283.749 85.2555L283.726 101.239L279.646 101.234L279.668 85.8257C279.673 82.6257 278.651 81.0242 276.603 81.0213C275.707 81.02 274.779 81.3707 273.818 82.0733C272.889 82.776 272.071 83.7348 271.366 84.9498L271.342 101.222L267.262 101.216L267.284 85.808C267.289 82.608 266.267 81.0065 264.219 81.0036C263.323 81.0023 262.395 81.353 261.434 82.0556C260.505 82.7583 259.687 83.7172 258.982 84.9322L258.958 101.204L254.878 101.198L254.912 77.7743L258.752 77.7798L258.747 81.2838C259.581 79.973 260.542 78.9664 261.631 78.2639C262.72 77.5615 263.857 77.2111 265.041 77.2128C266.513 77.2149 267.744 77.6007 268.735 78.3701C269.726 79.1075 270.444 80.1965 270.89 81.6371C271.756 80.1984 272.75 79.1118 273.871 78.3774C274.992 77.611 276.177 77.2287 277.425 77.2305ZM300.667 77.2636C302.683 77.2665 304.25 77.9568 305.368 79.3344C306.486 80.712 307.043 82.6967 307.039 85.2887L307.027 93.8327C307.024 96.3287 306.365 98.2958 305.051 99.7339C303.769 101.14 302.024 101.842 299.816 101.838C298.984 101.837 298.088 101.66 297.128 101.307C296.201 100.985 295.337 100.6 294.538 100.151L294.524 110.135L290.444 110.129L290.49 77.8251L294.33 77.8306L294.325 81.2386C296.089 78.5851 298.203 77.2601 300.667 77.2636ZM299.846 80.9105C298.918 80.9091 297.973 81.2598 297.012 81.9624C296.083 82.6331 295.266 83.5599 294.56 84.7429L294.543 96.5029C295.215 97.0479 295.95 97.4809 296.749 97.8021C297.581 98.0913 298.333 98.2363 299.005 98.2373C301.629 98.241 302.943 96.5789 302.948 93.2509L302.958 85.8589C302.963 82.5629 301.926 80.9134 299.846 80.9105ZM320.283 77.2916C323.035 77.2956 325.034 77.9224 326.281 79.1722C327.559 80.39 328.196 82.3429 328.192 85.0309L328.169 101.303L324.281 101.297L324.286 97.5534C322.426 100.431 320.328 101.868 317.992 101.864C316.136 101.862 314.649 101.22 313.531 99.938C312.445 98.6565 311.903 96.9117 311.906 94.7037L311.908 93.3597C311.911 91.4397 312.569 89.8566 313.883 88.6105C315.197 87.3324 316.958 86.6949 319.166 86.6981C320.382 86.6998 322.03 86.9101 324.109 87.3291L324.113 84.6891C324.115 83.3131 323.796 82.3207 323.157 81.7117C322.55 81.1029 321.59 80.7975 320.278 80.7956C318.742 80.7934 316.582 81.0304 313.797 81.5064L313.802 78.0024C316.811 77.5267 318.971 77.2898 320.283 77.2916ZM320.169 89.8675C318.825 89.8656 317.801 90.2161 317.096 90.9191C316.391 91.6221 316.037 92.6136 316.036 93.8936L316.035 94.4216C316.033 95.6056 316.304 96.534 316.847 97.2068C317.39 97.8795 318.077 98.2165 318.909 98.2177C319.773 98.2189 320.654 97.8522 321.551 97.1175C322.48 96.3508 323.33 95.28 324.1 93.9051L324.105 90.2091C322.889 89.9834 321.577 89.8695 320.169 89.8675ZM344.918 77.3268C346.966 77.3297 348.533 78.036 349.619 79.4455C350.737 80.8231 351.294 82.7919 351.29 85.3519L351.268 101.336L347.188 101.33L347.21 85.9221C347.214 82.7221 346.176 81.1206 344.096 81.1176C343.168 81.1163 342.224 81.467 341.263 82.1696C340.302 82.8722 339.469 83.831 338.763 85.046L338.74 101.318L334.66 101.312L334.693 77.8882L338.533 77.8937L338.528 81.3977C339.394 80.0869 340.355 79.0803 341.412 78.3778C342.501 77.6754 343.67 77.325 344.918 77.3268ZM362.117 77.9273L362.083 101.351L358.003 101.346L358.037 77.9215L362.117 77.9273ZM360.066 68.4684C360.93 68.4696 361.586 68.6626 362.033 69.0472C362.513 69.4319 362.752 69.9762 362.751 70.6802L362.749 72.0722C362.748 72.7762 362.507 73.3199 362.027 73.7032C361.578 74.0546 360.922 74.2296 360.058 74.2284C359.226 74.2272 358.57 74.0503 358.091 73.6976C357.643 73.313 357.42 72.7686 357.421 72.0646L357.423 70.6726C357.424 69.9686 357.649 69.425 358.097 69.0416C358.578 68.6583 359.234 68.4672 360.066 68.4684ZM376.499 77.3719C379.187 77.3757 381.234 78.1146 382.64 79.5886C384.046 81.0627 384.746 83.1917 384.743 85.9757L384.735 90.9196L372.399 90.902L372.395 93.734C372.393 95.366 372.775 96.5506 373.542 97.2877C374.341 97.9928 375.589 98.3466 377.285 98.349C378.949 98.3514 381.029 98.0984 383.526 97.5899L383.617 101.142C380.64 101.682 378.512 101.951 377.232 101.949C374.064 101.944 371.777 101.253 370.371 99.8752C368.997 98.4972 368.312 96.3682 368.316 93.4882L368.327 85.9522C368.331 83.1682 369.006 81.0412 370.352 79.5711C371.73 78.1011 373.779 77.368 376.499 77.3719ZM376.494 80.7799C375.246 80.7781 374.253 81.1767 373.516 81.9756C372.779 82.7426 372.41 83.862 372.407 85.334L372.404 87.638L380.66 87.6498L380.663 85.4898C380.665 83.9538 380.283 82.7853 379.516 81.9842C378.781 81.1831 377.774 80.7817 376.494 80.7799ZM397.008 77.4011C398.352 77.4031 399.967 77.5974 401.855 77.9841L401.754 81.4399C400.09 81.0536 398.571 80.8594 397.195 80.8574C394.315 80.8533 392.873 81.7793 392.871 83.6353L392.87 84.0672C392.869 84.6432 393.013 85.1075 393.3 85.4599C393.62 85.8123 394.179 86.1811 394.978 86.5663L399.487 88.6847C402.206 89.9686 403.563 91.8425 403.559 94.3065L403.558 95.3625C403.523 97.5705 402.848 99.2335 401.535 100.352C400.253 101.438 398.22 101.979 395.436 101.975C393.996 101.973 391.933 101.634 389.246 100.958L389.443 97.3104C391.842 98.0178 393.81 98.3726 395.346 98.3748C396.914 98.377 398.002 98.1706 398.61 97.7555C399.219 97.3083 399.524 96.5888 399.526 95.5968L399.526 95.1168C399.527 94.3488 399.368 93.7405 399.049 93.2921C398.761 92.8437 398.266 92.459 397.562 92.138L392.909 90.0673C391.502 89.4253 390.463 88.6558 389.793 87.7589C389.154 86.8619 388.835 85.8215 388.837 84.6375L388.838 83.9655C388.905 81.7896 389.58 80.1585 390.861 79.0724C392.175 77.9543 394.224 77.3972 397.008 77.4011Z" fill="black"/>
<path d="M70.5 47.5H45.5V72.5H70.5V47.5ZM62.1667 64.1667H53.8333V55.8333H62.1667V64.1667ZM95.5 55.8333V47.5H87.1667V39.1667C87.1667 34.5833 83.4167 30.8333 78.8333 30.8333H70.5V22.5H62.1667V30.8333H53.8333V22.5H45.5V30.8333H37.1667C32.5833 30.8333 28.8333 34.5833 28.8333 39.1667V47.5H20.5V55.8333H28.8333V64.1667H20.5V72.5H28.8333V80.8333C28.8333 85.4167 32.5833 89.1667 37.1667 89.1667H45.5V97.5H53.8333V89.1667H62.1667V97.5H70.5V89.1667H78.8333C83.4167 89.1667 87.1667 85.4167 87.1667 80.8333V72.5H95.5V64.1667H87.1667V55.8333H95.5ZM78.8333 80.8333H37.1667V39.1667H78.8333V80.8333Z" fill="black"/>
</svg>
