<svg width="508" height="122" viewBox="0 0 508 122" fill="none" xmlns="http://www.w3.org/2000/svg">
<rect x="0.5" y="0.5" width="507" height="121" fill="white" stroke="black"/>
<path d="M60.7084 50.6667C57.2917 40.9583 48.0418 34 37.1667 34C23.3751 34 12.1667 45.2083 12.1667 59C12.1667 72.7917 23.3751 84 37.1667 84C48.0418 84 57.2917 77.0417 60.7084 67.3333H78.8334V84H95.5001V67.3333H103.833V50.6667H60.7084ZM37.1667 67.3333C32.5834 67.3333 28.8334 63.5833 28.8334 59C28.8334 54.4167 32.5834 50.6667 37.1667 50.6667C41.7501 50.6667 45.5001 54.4167 45.5001 59C45.5001 63.5833 41.7501 67.3333 37.1667 67.3333Z" fill="black"/>
<path d="M194.791 17.0965C196.039 17.0982 197.383 17.2282 198.823 17.4862C200.294 17.7123 201.158 17.8416 201.414 17.8739L201.313 21.4738C198.498 20.9578 196.322 20.6987 194.786 20.6965C192.61 20.6934 191.042 21.1391 190.08 22.0337C189.119 22.9284 188.637 24.4157 188.634 26.4957L188.614 40.2237C188.611 42.3037 189.073 43.7923 190 44.6897C190.959 45.555 192.542 45.9893 194.75 45.9924C196.286 45.9946 198.462 45.7417 201.279 45.2338L201.37 48.9299C201.114 48.9615 200.25 49.0883 198.777 49.3102C197.337 49.5641 195.993 49.6902 194.745 49.6884C191.065 49.6832 188.442 48.8954 186.876 47.3252C185.31 45.755 184.53 43.3058 184.535 39.9779L184.553 26.7779C184.558 23.4499 185.346 21.003 186.916 19.4372C188.486 17.8715 191.111 17.0912 194.791 17.0965ZM224.471 25.7308L213.673 58.0195L209.593 58.0136L212.678 49.138L211.142 49.1358L204.503 25.7023L208.967 25.7087L213.978 46.2119L220.247 25.7248L224.471 25.7308ZM232.125 28.8618C232.959 27.679 233.92 26.7683 235.009 26.1299C236.098 25.4914 237.234 25.1731 238.418 25.1747C240.402 25.1776 241.937 25.8838 243.023 27.2933C244.109 28.6709 244.65 30.6876 244.647 33.3436L244.636 40.9276C244.632 43.8396 243.94 46.0466 242.562 47.5487C241.184 49.0187 239.055 49.7517 236.175 49.7476C233.359 49.7435 231.296 49.0206 229.986 47.5787C228.676 46.1369 228.023 43.9439 228.028 40.9999L228.063 16.376L232.143 16.3818L232.125 28.8618ZM237.453 28.8214C236.525 28.82 235.58 29.1707 234.619 29.8733C233.658 30.576 232.825 31.5348 232.119 32.7498L232.107 41.4858C232.105 43.0538 232.455 44.2543 233.158 45.0873C233.893 45.9203 234.9 46.3377 236.18 46.3396C239.092 46.3437 240.55 44.6978 240.555 41.4018L240.566 33.9138C240.571 30.5218 239.533 28.8243 237.453 28.8214ZM258.564 25.2035C261.252 25.2073 263.299 25.9463 264.705 27.4203C266.111 28.8943 266.812 31.0233 266.808 33.8073L266.801 38.7513L254.465 38.7337L254.461 41.5657C254.458 43.1977 254.841 44.3822 255.607 45.1193C256.406 45.8244 257.654 46.1782 259.35 46.1806C261.014 46.183 263.094 45.93 265.591 45.4215L265.682 48.9737C262.705 49.5134 260.577 49.7824 259.297 49.7806C256.129 49.776 253.842 49.0848 252.436 47.7068C251.062 46.3288 250.377 44.1998 250.381 41.3198L250.392 33.7838C250.396 30.9998 251.071 28.8728 252.417 27.4027C253.795 25.9327 255.844 25.1996 258.564 25.2035ZM258.559 28.6115C257.311 28.6097 256.318 29.0083 255.581 29.8072C254.844 30.5742 254.475 31.6937 254.473 33.1657L254.469 35.4697L262.725 35.4814L262.728 33.3214C262.731 31.7855 262.348 30.6169 261.581 29.8158C260.846 29.0148 259.839 28.6133 258.559 28.6115ZM282.577 25.2378C283.025 25.2384 283.377 25.2709 283.632 25.3353L283.626 29.9433C283.146 29.8466 282.522 29.7977 281.754 29.7966C279.514 29.7934 277.737 30.9109 276.421 33.149L276.398 49.229L272.318 49.2232L272.352 25.7992L276.192 25.8047L276.187 29.3087C277.053 27.9979 278.014 26.9913 279.071 26.2888C280.16 25.5863 281.329 25.236 282.577 25.2378ZM295.291 25.2559C296.635 25.2578 298.251 25.4521 300.139 25.8388L300.038 29.2947C298.374 28.9083 296.854 28.7142 295.478 28.7122C292.598 28.7081 291.157 29.634 291.154 31.49L291.154 31.922C291.153 32.498 291.296 32.9622 291.584 33.3146C291.903 33.6671 292.463 34.0359 293.262 34.421L297.771 36.5395C300.489 37.8233 301.847 39.6973 301.843 42.1613L301.842 43.2173C301.807 45.4252 301.132 47.0883 299.819 48.2064C298.537 49.2926 296.504 49.8337 293.72 49.8297C292.28 49.8276 290.217 49.4887 287.53 48.8129L287.727 45.1651C290.126 45.8726 292.093 46.2274 293.629 46.2296C295.197 46.2318 296.286 46.0254 296.894 45.6102C297.503 45.1631 297.808 44.4435 297.809 43.4515L297.81 42.9715C297.811 42.2035 297.652 41.5953 297.333 41.1468C297.045 40.6984 296.55 40.3137 295.846 39.9927L291.193 37.9221C289.786 37.2801 288.747 36.5106 288.077 35.6136C287.438 34.7167 287.119 33.6763 287.121 32.4923L287.122 31.8203C287.189 29.6444 287.863 28.0133 289.145 26.9271C290.459 25.809 292.507 25.2519 295.291 25.2559ZM314.579 25.2834C317.267 25.2873 319.314 26.0262 320.72 27.5002C322.126 28.9742 322.827 31.1032 322.823 33.8872L322.816 38.8312L310.48 38.8136L310.476 41.6456C310.474 43.2776 310.856 44.4622 311.623 45.1992C312.422 45.9044 313.67 46.2582 315.366 46.2606C317.03 46.263 319.11 46.0099 321.607 45.5015L321.698 49.0536C318.721 49.5934 316.592 49.8623 315.312 49.8605C312.144 49.856 309.857 49.1647 308.451 47.7867C307.077 46.4088 306.392 44.2798 306.396 41.3998L306.407 33.8638C306.411 31.0798 307.086 28.9528 308.432 27.4827C309.81 26.0126 311.859 25.2796 314.579 25.2834ZM314.575 28.6914C313.327 28.6897 312.334 29.0882 311.597 29.8872C310.86 30.6541 310.49 31.7736 310.488 33.2456L310.485 35.5496L318.741 35.5614L318.744 33.4014C318.746 31.8654 318.364 30.6969 317.597 29.8958C316.862 29.0947 315.855 28.6933 314.575 28.6914ZM336.576 25.3148C338.016 25.3169 339.648 25.5272 341.471 25.9458L341.37 29.5457C339.515 29.127 337.915 28.9168 336.571 28.9148C335.067 28.9127 333.914 29.327 333.113 30.1579C332.344 30.9888 331.958 32.1723 331.956 33.7083L331.945 41.4363C331.943 43.0362 332.341 44.2528 333.14 45.086C333.971 45.8871 335.106 46.2888 336.546 46.2908C337.442 46.2921 338.226 46.2452 338.898 46.1502C339.571 46.0551 340.387 45.8963 341.347 45.6737L341.438 49.2738C339.485 49.687 337.837 49.8927 336.493 49.8908C330.733 49.8825 327.857 46.9664 327.866 41.1424L327.876 34.0384C327.884 28.2144 330.784 25.3066 336.576 25.3148ZM363.357 49.3531L359.517 49.3476L359.522 45.9876C358.656 47.2664 357.695 48.241 356.638 48.9115C355.581 49.582 354.46 49.9164 353.276 49.9147C351.324 49.9119 349.789 49.2377 348.671 47.8921C347.585 46.5146 347.044 44.5138 347.048 41.8898L347.07 25.9058L351.15 25.9116L351.129 41.1756C351.126 42.8716 351.38 44.12 351.891 44.9207C352.434 45.7215 353.17 46.1225 354.098 46.1239C354.962 46.1251 355.858 45.7904 356.787 45.1197C357.748 44.4171 358.581 43.4583 359.287 42.2433L359.31 25.9233L363.39 25.9291L363.357 49.3531ZM380.358 25.3773C380.806 25.378 381.158 25.4105 381.414 25.4748L381.407 30.0828C380.927 29.9861 380.303 29.9373 379.535 29.9362C377.295 29.933 375.518 31.0504 374.202 33.2886L374.18 49.3685L370.1 49.3627L370.133 25.9387L373.973 25.9442L373.968 29.4482C374.834 28.1375 375.795 27.1308 376.852 26.4283C377.941 25.7259 379.11 25.3756 380.358 25.3773ZM389.822 25.9668L389.789 49.3908L385.709 49.385L385.742 25.961L389.822 25.9668ZM387.772 16.5079C388.636 16.5091 389.292 16.7021 389.739 17.0867C390.218 17.4714 390.458 18.0157 390.457 18.7197L390.455 20.1117C390.454 20.8157 390.213 21.3594 389.732 21.7427C389.284 22.0941 388.628 22.2691 387.764 22.2679C386.932 22.2667 386.276 22.0898 385.796 21.7371C385.349 21.3525 385.126 20.8081 385.127 20.1041L385.129 18.7121C385.13 18.0081 385.354 17.4645 385.803 17.0811C386.284 16.6978 386.94 16.5067 387.772 16.5079ZM401.324 25.9833L407.564 25.9922L407.559 29.3522L401.319 29.3433L401.299 43.0712C401.297 44.2872 401.536 45.1676 402.015 45.7123C402.527 46.225 403.31 46.4821 404.366 46.4836C405.71 46.4855 407.023 46.3274 408.303 46.0092L408.394 49.4174C406.986 49.7994 405.705 49.9895 404.553 49.9879C401.993 49.9842 400.122 49.4216 398.94 48.2999C397.789 47.1462 397.216 45.2894 397.22 42.7294L397.239 29.3374L393.879 29.3326L393.884 25.9726L397.244 25.9774L398.02 19.7385L401.332 19.7433L401.324 25.9833ZM430.299 26.0246L419.501 58.3132L415.421 58.3074L418.506 49.4318L416.97 49.4296L410.331 25.9961L414.795 26.0025L419.806 46.5057L426.075 26.0186L430.299 26.0246ZM220.148 68.1327C221.396 68.1345 222.74 68.2644 224.18 68.5225C225.651 68.7486 226.515 68.8778 226.771 68.9102L226.67 72.51C223.855 71.994 221.679 71.7349 220.143 71.7327C217.967 71.7296 216.398 72.1754 215.437 73.07C214.476 73.9646 213.994 75.4519 213.991 77.5319L213.971 91.2599C213.968 93.3399 214.43 94.8286 215.357 95.7259C216.316 96.5913 217.899 97.0255 220.107 97.0287C221.643 97.0309 223.819 96.778 226.636 96.27L226.727 99.9661C226.471 99.9978 225.606 100.125 224.134 100.346C222.694 100.6 221.35 100.726 220.102 100.725C216.422 100.719 213.799 99.9317 212.233 98.3614C210.667 96.7912 209.887 94.3421 209.891 91.0141L209.91 77.8141C209.915 74.4861 210.703 72.0392 212.273 70.4735C213.843 68.9077 216.468 68.1275 220.148 68.1327ZM240.24 76.1774C243.088 76.1815 245.199 76.9525 246.573 78.4904C247.979 79.9964 248.68 82.1414 248.676 84.9254L248.665 92.0294C248.661 94.8134 247.954 96.9724 246.544 98.5064C245.166 100.008 243.053 100.757 240.205 100.753C237.357 100.749 235.23 99.9943 233.824 98.4883C232.45 96.9503 231.765 94.7893 231.769 92.0053L231.78 84.9013C231.784 82.1173 232.475 79.9743 233.853 78.4723C235.263 76.9383 237.392 76.1733 240.24 76.1774ZM240.235 79.5854C238.859 79.5834 237.787 80.0139 237.017 80.8768C236.248 81.7397 235.862 82.9712 235.86 84.5712L235.849 92.3471C235.847 93.9471 236.229 95.1797 236.996 96.0448C237.762 96.9099 238.834 97.3434 240.21 97.3454C241.586 97.3473 242.658 96.9169 243.428 96.054C244.197 95.1911 244.583 93.9596 244.585 92.3596L244.596 84.5356C244.598 82.9356 244.216 81.7191 243.449 80.886C242.683 80.0209 241.611 79.5874 240.235 79.5854ZM277.425 76.2305C279.473 76.2334 281.04 76.9396 282.126 78.3492C283.212 79.7267 283.753 81.6955 283.749 84.2555L283.726 100.239L279.646 100.234L279.668 84.8257C279.673 81.6257 278.651 80.0242 276.603 80.0213C275.707 80.02 274.779 80.3707 273.818 81.0733C272.889 81.776 272.071 82.7348 271.366 83.9498L271.342 100.222L267.262 100.216L267.284 84.808C267.289 81.608 266.267 80.0065 264.219 80.0036C263.323 80.0023 262.395 80.353 261.434 81.0556C260.505 81.7583 259.687 82.7172 258.982 83.9322L258.958 100.204L254.878 100.198L254.912 76.7743L258.752 76.7798L258.747 80.2838C259.581 78.973 260.542 77.9664 261.631 77.2639C262.72 76.5615 263.857 76.2111 265.041 76.2128C266.513 76.2149 267.744 76.6007 268.735 77.3701C269.726 78.1075 270.444 79.1965 270.89 80.6371C271.756 79.1984 272.75 78.1118 273.871 77.3774C274.992 76.611 276.177 76.2287 277.425 76.2305ZM300.667 76.2636C302.683 76.2665 304.25 76.9568 305.368 78.3344C306.486 79.712 307.043 81.6967 307.039 84.2887L307.027 92.8327C307.024 95.3287 306.365 97.2958 305.051 98.7339C303.769 100.14 302.024 100.842 299.816 100.838C298.984 100.837 298.088 100.66 297.128 100.307C296.201 99.9853 295.337 99.6001 294.538 99.1509L294.524 109.135L290.444 109.129L290.49 76.8251L294.33 76.8306L294.325 80.2386C296.089 77.5851 298.203 76.2601 300.667 76.2636ZM299.846 79.9105C298.918 79.9091 297.973 80.2598 297.012 80.9624C296.083 81.6331 295.266 82.5599 294.56 83.7429L294.543 95.5029C295.215 96.0479 295.95 96.4809 296.749 96.8021C297.581 97.0913 298.333 97.2363 299.005 97.2373C301.629 97.241 302.943 95.5789 302.948 92.2509L302.958 84.8589C302.963 81.5629 301.926 79.9134 299.846 79.9105ZM320.283 76.2916C323.035 76.2956 325.034 76.9224 326.281 78.1722C327.559 79.39 328.196 81.3429 328.192 84.0309L328.169 100.303L324.281 100.297L324.286 96.5534C322.426 99.4307 320.328 100.868 317.992 100.864C316.136 100.862 314.649 100.22 313.531 98.938C312.445 97.6565 311.903 95.9117 311.906 93.7037L311.908 92.3597C311.911 90.4397 312.569 88.8566 313.883 87.6105C315.197 86.3324 316.958 85.6949 319.166 85.6981C320.382 85.6998 322.03 85.9101 324.109 86.3291L324.113 83.6891C324.115 82.3131 323.796 81.3207 323.157 80.7117C322.55 80.1029 321.59 79.7975 320.278 79.7956C318.742 79.7934 316.582 80.0304 313.797 80.5064L313.802 77.0024C316.811 76.5267 318.971 76.2898 320.283 76.2916ZM320.169 88.8675C318.825 88.8656 317.801 89.2161 317.096 89.9191C316.391 90.6221 316.037 91.6136 316.036 92.8936L316.035 93.4216C316.033 94.6056 316.304 95.534 316.847 96.2068C317.39 96.8795 318.077 97.2165 318.909 97.2177C319.773 97.2189 320.654 96.8522 321.551 96.1175C322.48 95.3508 323.33 94.28 324.1 92.9051L324.105 89.2091C322.889 88.9834 321.577 88.8695 320.169 88.8675ZM344.918 76.3268C346.966 76.3297 348.533 77.036 349.619 78.4455C350.737 79.8231 351.294 81.7919 351.29 84.3519L351.268 100.336L347.188 100.33L347.21 84.9221C347.214 81.7221 346.176 80.1206 344.096 80.1176C343.168 80.1163 342.224 80.467 341.263 81.1696C340.302 81.8722 339.469 82.831 338.763 84.046L338.74 100.318L334.66 100.312L334.693 76.8882L338.533 76.8937L338.528 80.3977C339.394 79.0869 340.355 78.0803 341.412 77.3778C342.501 76.6754 343.67 76.325 344.918 76.3268ZM362.117 76.9273L362.083 100.351L358.003 100.346L358.037 76.9215L362.117 76.9273ZM360.066 67.4684C360.93 67.4696 361.586 67.6626 362.033 68.0472C362.513 68.4319 362.752 68.9762 362.751 69.6802L362.749 71.0722C362.748 71.7762 362.507 72.3199 362.027 72.7032C361.578 73.0546 360.922 73.2296 360.058 73.2284C359.226 73.2272 358.57 73.0503 358.091 72.6976C357.643 72.313 357.42 71.7686 357.421 71.0646L357.423 69.6726C357.424 68.9686 357.649 68.425 358.097 68.0416C358.578 67.6583 359.234 67.4672 360.066 67.4684ZM376.499 76.3719C379.187 76.3757 381.234 77.1146 382.64 78.5886C384.046 80.0627 384.746 82.1917 384.743 84.9757L384.735 89.9196L372.399 89.902L372.395 92.734C372.393 94.366 372.775 95.5506 373.542 96.2877C374.341 96.9928 375.589 97.3466 377.285 97.349C378.949 97.3514 381.029 97.0984 383.526 96.5899L383.617 100.142C380.64 100.682 378.512 100.951 377.232 100.949C374.064 100.944 371.777 100.253 370.371 98.8752C368.997 97.4972 368.312 95.3682 368.316 92.4882L368.327 84.9522C368.331 82.1682 369.006 80.0412 370.352 78.5711C371.73 77.1011 373.779 76.368 376.499 76.3719ZM376.494 79.7799C375.246 79.7781 374.253 80.1767 373.516 80.9756C372.779 81.7426 372.41 82.862 372.407 84.334L372.404 86.638L380.66 86.6498L380.663 84.4898C380.665 82.9538 380.283 81.7853 379.516 80.9842C378.781 80.1831 377.774 79.7817 376.494 79.7799ZM397.008 76.4011C398.352 76.4031 399.967 76.5974 401.855 76.9841L401.754 80.4399C400.09 80.0536 398.571 79.8594 397.195 79.8574C394.315 79.8533 392.873 80.7793 392.871 82.6353L392.87 83.0672C392.869 83.6432 393.013 84.1075 393.3 84.4599C393.62 84.8123 394.179 85.1811 394.978 85.5663L399.487 87.6847C402.206 88.9686 403.563 90.8425 403.559 93.3065L403.558 94.3625C403.523 96.5705 402.848 98.2335 401.535 99.3516C400.253 100.438 398.22 100.979 395.436 100.975C393.996 100.973 391.933 100.634 389.246 99.9581L389.443 96.3104C391.842 97.0178 393.81 97.3726 395.346 97.3748C396.914 97.377 398.002 97.1706 398.61 96.7555C399.219 96.3083 399.524 95.5888 399.526 94.5968L399.526 94.1168C399.527 93.3488 399.368 92.7405 399.049 92.2921C398.761 91.8437 398.266 91.459 397.562 91.138L392.909 89.0673C391.502 88.4253 390.463 87.6558 389.793 86.7589C389.154 85.8619 388.835 84.8215 388.837 83.6375L388.838 82.9655C388.905 80.7896 389.58 79.1585 390.861 78.0724C392.175 76.9543 394.224 76.3972 397.008 76.4011Z" fill="black"/>
</svg>
