<svg width="286" height="84" viewBox="0 0 286 84" fill="none" xmlns="http://www.w3.org/2000/svg">
<rect x="0.5" y="0.5" width="285" height="83" fill="white" stroke="black"/>
<path d="M219.08 64.1225L219.83 70.875L224.69 66.1908L233 43.0742C230.96 42.5571 229.16 41.5229 227.69 40.0933L219.08 64.1225Z" fill="black"/>
<path d="M244.31 40.0933C242.84 41.5229 241.01 42.5571 239 43.0742L247.31 66.1908L252.17 70.875L252.95 64.1225L244.31 40.0933Z" fill="black"/>
<path d="M245 31.3333C245 27.3792 242.48 24.0333 239 22.7558V16.125H233V22.7558C229.52 24.0333 227 27.3792 227 31.3333C227 36.3825 231.02 40.4583 236 40.4583C240.98 40.4583 245 36.3825 245 31.3333ZM236 34.375C234.35 34.375 233 33.0063 233 31.3333C233 29.6604 234.35 28.2917 236 28.2917C237.65 28.2917 239 29.6604 239 31.3333C239 33.0063 237.65 34.375 236 34.375Z" fill="black"/>
<path d="M18.968 32.392C20.648 32.392 21.936 32.76 22.832 33.496C23.744 34.232 24.352 35.168 24.656 36.304C24.96 37.44 25.112 38.768 25.112 40.288C25.112 43.328 24.608 45.544 23.6 46.936C22.608 48.312 21.064 49 18.968 49H13.04V32.392H18.968ZM18.968 47.368C21.8 47.368 23.216 45.064 23.216 40.456C23.216 38.216 22.872 36.584 22.184 35.56C21.496 34.536 20.424 34.024 18.968 34.024H14.888V47.368H18.968ZM32.6848 49.24C30.8608 49.24 29.5648 48.768 28.7968 47.824C28.0448 46.864 27.6688 45.36 27.6688 43.312C27.6688 41.088 28.0768 39.44 28.8928 38.368C29.7088 37.296 30.9888 36.76 32.7328 36.76C34.3328 36.76 35.5248 37.224 36.3088 38.152C37.1088 39.064 37.5088 40.472 37.5088 42.376L37.4128 43.744H29.4928C29.4928 44.736 29.5968 45.512 29.8048 46.072C30.0288 46.632 30.3968 47.04 30.9088 47.296C31.4368 47.536 32.1648 47.656 33.0928 47.656C33.5568 47.656 34.0928 47.648 34.7008 47.632C35.3088 47.6 35.8608 47.56 36.3568 47.512L37.0528 47.44L37.1008 48.856C35.3248 49.112 33.8528 49.24 32.6848 49.24ZM35.7088 42.304C35.7088 40.848 35.4768 39.816 35.0128 39.208C34.5488 38.584 33.7888 38.272 32.7328 38.272C31.6288 38.272 30.8128 38.6 30.2848 39.256C29.7568 39.896 29.4848 40.912 29.4688 42.304H35.7088ZM44.0819 49.24C43.1219 49.24 41.9459 49.128 40.5539 48.904L39.8339 48.784L39.9299 47.224C41.8019 47.496 43.1779 47.632 44.0579 47.632C45.0179 47.632 45.7299 47.48 46.1939 47.176C46.6739 46.856 46.9139 46.352 46.9139 45.664C46.9139 45.168 46.7939 44.792 46.5539 44.536C46.3299 44.28 46.0339 44.096 45.6659 43.984C45.3139 43.872 44.8099 43.768 44.1539 43.672L43.5539 43.576C42.5939 43.416 41.8419 43.224 41.2979 43C40.7539 42.776 40.3459 42.464 40.0739 42.064C39.8019 41.648 39.6659 41.08 39.6659 40.36C39.6659 39.064 40.0579 38.144 40.8419 37.6C41.6259 37.056 42.7379 36.784 44.1779 36.784C45.3139 36.784 46.4739 36.888 47.6579 37.096L48.3299 37.216L48.2819 38.752C46.5539 38.496 45.2019 38.368 44.2259 38.368C43.2979 38.368 42.6019 38.512 42.1379 38.8C41.6899 39.088 41.4659 39.536 41.4659 40.144C41.4659 40.576 41.5779 40.912 41.8019 41.152C42.0259 41.376 42.3139 41.544 42.6659 41.656C43.0339 41.752 43.5459 41.856 44.2019 41.968L44.8019 42.088C45.7939 42.264 46.5619 42.472 47.1059 42.712C47.6499 42.936 48.0499 43.264 48.3059 43.696C48.5779 44.128 48.7139 44.728 48.7139 45.496C48.7139 46.792 48.3299 47.744 47.5619 48.352C46.8099 48.944 45.6499 49.24 44.0819 49.24ZM51.4702 37H53.2462V49H51.4702V37ZM51.4702 32.2H53.2462V34.288H51.4702V32.2ZM60.8778 54.64C59.0858 54.64 57.8138 54.368 57.0618 53.824C56.3258 53.296 55.9578 52.408 55.9578 51.16C55.9578 50.648 56.0138 50.224 56.1258 49.888C56.2538 49.568 56.4458 49.28 56.7018 49.024C56.9578 48.768 57.3418 48.44 57.8538 48.04C57.6298 47.896 57.4618 47.68 57.3498 47.392C57.2378 47.104 57.1818 46.8 57.1818 46.48C57.1818 46.272 57.2298 46.048 57.3258 45.808C57.4218 45.552 57.6458 45.112 57.9978 44.488C56.7338 43.928 56.1018 42.728 56.1018 40.888C56.1018 39.496 56.4778 38.464 57.2298 37.792C57.9818 37.104 59.1178 36.76 60.6378 36.76C61.3738 36.76 62.1898 36.864 63.0858 37.072L66.6378 36.976V38.512L64.3578 38.464C64.6298 38.736 64.8298 39.072 64.9578 39.472C65.0858 39.856 65.1498 40.352 65.1498 40.96C65.1498 42.384 64.7818 43.4 64.0458 44.008C63.3098 44.616 62.1498 44.92 60.5658 44.92C60.0698 44.92 59.6618 44.888 59.3418 44.824C59.2138 45.144 59.1098 45.424 59.0298 45.664C58.9498 45.904 58.9098 46.112 58.9098 46.288C58.9098 46.704 59.0698 46.976 59.3898 47.104C59.7258 47.232 60.2378 47.296 60.9258 47.296H61.8618C62.9178 47.296 63.7658 47.376 64.4058 47.536C65.0618 47.696 65.5658 48.024 65.9178 48.52C66.2698 49 66.4458 49.704 66.4458 50.632C66.4458 52.024 66.0138 53.04 65.1498 53.68C64.2858 54.32 62.8618 54.64 60.8778 54.64ZM60.6378 43.48C61.6138 43.48 62.3098 43.28 62.7258 42.88C63.1418 42.48 63.3498 41.8 63.3498 40.84C63.3498 39.896 63.1418 39.224 62.7258 38.824C62.3098 38.424 61.6218 38.224 60.6618 38.224C59.6698 38.224 58.9578 38.432 58.5258 38.848C58.1098 39.248 57.9018 39.92 57.9018 40.864C57.9018 41.808 58.1098 42.48 58.5258 42.88C58.9578 43.28 59.6618 43.48 60.6378 43.48ZM61.0458 53.128C62.3738 53.128 63.3018 52.944 63.8298 52.576C64.3578 52.224 64.6218 51.608 64.6218 50.728C64.6218 50.216 64.5338 49.824 64.3578 49.552C64.1818 49.296 63.8858 49.12 63.4698 49.024C63.0538 48.928 62.4538 48.88 61.6698 48.88L59.0778 48.76C58.5498 49.144 58.1898 49.48 57.9978 49.768C57.8218 50.056 57.7338 50.44 57.7338 50.92C57.7338 51.752 57.9738 52.328 58.4538 52.648C58.9498 52.968 59.8138 53.128 61.0458 53.128ZM68.8139 37H70.5899V37.84C71.3099 37.44 71.9659 37.16 72.5579 37C73.1659 36.84 73.7979 36.76 74.4539 36.76C75.4779 36.76 76.2699 36.952 76.8299 37.336C77.3899 37.72 77.7819 38.336 78.0059 39.184C78.2459 40.016 78.3659 41.176 78.3659 42.664V49H76.5899V42.712C76.5899 41.576 76.5179 40.704 76.3739 40.096C76.2459 39.488 76.0059 39.048 75.6539 38.776C75.3019 38.504 74.7899 38.368 74.1179 38.368C73.5739 38.368 73.0139 38.44 72.4379 38.584C71.8779 38.712 71.4219 38.864 71.0699 39.04L70.6139 39.256V49H68.8139V37ZM91.802 49.216C90.682 49.216 89.218 49.08 87.41 48.808L86.546 48.688L86.738 47.152C88.93 47.44 90.586 47.584 91.706 47.584C94.074 47.584 95.258 46.472 95.258 44.248C95.258 43.64 95.146 43.16 94.922 42.808C94.714 42.456 94.346 42.168 93.818 41.944C93.306 41.72 92.554 41.512 91.562 41.32C90.25 41.048 89.226 40.736 88.49 40.384C87.77 40.032 87.242 39.56 86.906 38.968C86.57 38.376 86.402 37.584 86.402 36.592C86.402 33.616 88.186 32.128 91.754 32.128C92.986 32.128 94.658 32.288 96.77 32.608L96.602 34.168C94.298 33.896 92.722 33.76 91.874 33.76C89.474 33.76 88.274 34.664 88.274 36.472C88.274 37.16 88.386 37.688 88.61 38.056C88.85 38.408 89.25 38.696 89.81 38.92C90.37 39.144 91.258 39.392 92.474 39.664C93.658 39.936 94.57 40.24 95.21 40.576C95.866 40.912 96.346 41.36 96.65 41.92C96.954 42.464 97.106 43.192 97.106 44.104C97.106 47.512 95.338 49.216 91.802 49.216ZM104.594 49.24C103.314 49.24 102.298 49.032 101.546 48.616C100.794 48.184 100.258 47.52 99.9378 46.624C99.6178 45.728 99.4578 44.544 99.4578 43.072C99.4578 41.552 99.6258 40.336 99.9618 39.424C100.298 38.496 100.842 37.824 101.594 37.408C102.346 36.976 103.346 36.76 104.594 36.76C105.858 36.76 106.858 36.976 107.594 37.408C108.346 37.84 108.89 38.512 109.226 39.424C109.562 40.336 109.73 41.552 109.73 43.072C109.73 44.544 109.57 45.728 109.25 46.624C108.93 47.52 108.394 48.184 107.642 48.616C106.906 49.032 105.89 49.24 104.594 49.24ZM104.618 47.68C105.498 47.68 106.17 47.536 106.634 47.248C107.098 46.944 107.418 46.472 107.594 45.832C107.786 45.176 107.882 44.256 107.882 43.072C107.882 41.824 107.786 40.864 107.594 40.192C107.402 39.52 107.074 39.04 106.61 38.752C106.146 38.464 105.482 38.32 104.618 38.32C103.754 38.32 103.082 38.464 102.602 38.752C102.138 39.04 101.802 39.52 101.594 40.192C101.402 40.864 101.306 41.824 101.306 43.072C101.306 44.24 101.394 45.152 101.57 45.808C101.762 46.464 102.09 46.944 102.554 47.248C103.034 47.536 103.722 47.68 104.618 47.68ZM113.17 38.56H111.658V37H113.17V35.92C113.17 34.784 113.274 33.904 113.482 33.28C113.69 32.64 114.026 32.192 114.49 31.936C114.954 31.664 115.594 31.528 116.41 31.528L118.834 31.696L118.81 33.184C117.802 33.152 117.178 33.136 116.938 33.136C116.714 33.12 116.57 33.112 116.506 33.112C115.914 33.112 115.506 33.352 115.282 33.832C115.074 34.312 114.97 35.016 114.97 35.944V37H118.45V38.56H114.97V49H113.17V38.56ZM124.075 49.264C123.259 49.264 122.619 49.136 122.155 48.88C121.707 48.608 121.379 48.16 121.171 47.536C120.979 46.896 120.883 46.008 120.883 44.872V38.56H119.179V37H120.883V33.328H122.659V37H126.475V38.56H122.659V44.296C122.659 45.192 122.691 45.864 122.755 46.312C122.819 46.744 122.971 47.08 123.211 47.32C123.467 47.544 123.859 47.656 124.387 47.656L126.523 47.512L126.643 49C125.507 49.176 124.651 49.264 124.075 49.264ZM127.689 37H129.489L131.913 47.44H132.297L135.153 37.24H137.025L139.881 47.44H140.289L142.689 37H144.489L141.633 49H138.633L136.089 39.616L133.545 49H130.545L127.689 37ZM149.453 49.24C148.349 49.24 147.509 48.928 146.933 48.304C146.357 47.68 146.069 46.784 146.069 45.616C146.069 44.464 146.357 43.608 146.933 43.048C147.525 42.488 148.461 42.144 149.741 42.016L153.509 41.656V40.624C153.509 39.104 152.853 38.344 151.541 38.344C150.245 38.344 148.669 38.448 146.813 38.656L146.741 37.288C148.453 36.936 150.013 36.76 151.421 36.76C152.781 36.76 153.765 37.072 154.373 37.696C154.997 38.304 155.309 39.28 155.309 40.624V46.768C155.357 47.36 155.821 47.712 156.701 47.824L156.629 49.24C155.365 49.24 154.413 48.92 153.773 48.28C152.349 48.92 150.909 49.24 149.453 49.24ZM149.741 47.728C150.813 47.728 151.885 47.544 152.957 47.176L153.509 46.984V43.024L149.957 43.36C149.237 43.424 148.717 43.632 148.397 43.984C148.077 44.336 147.917 44.848 147.917 45.52C147.917 46.992 148.525 47.728 149.741 47.728ZM158.861 37H160.637V38.632C162.013 37.688 163.477 37.056 165.029 36.736V38.56C164.405 38.688 163.725 38.888 162.989 39.16C162.269 39.416 161.693 39.656 161.261 39.88L160.661 40.192V49H158.861V37ZM171.411 49.24C169.587 49.24 168.291 48.768 167.523 47.824C166.771 46.864 166.395 45.36 166.395 43.312C166.395 41.088 166.803 39.44 167.619 38.368C168.435 37.296 169.715 36.76 171.459 36.76C173.059 36.76 174.251 37.224 175.035 38.152C175.835 39.064 176.235 40.472 176.235 42.376L176.139 43.744H168.219C168.219 44.736 168.323 45.512 168.531 46.072C168.755 46.632 169.123 47.04 169.635 47.296C170.163 47.536 170.891 47.656 171.819 47.656C172.283 47.656 172.819 47.648 173.427 47.632C174.035 47.6 174.587 47.56 175.083 47.512L175.779 47.44L175.827 48.856C174.051 49.112 172.579 49.24 171.411 49.24ZM174.435 42.304C174.435 40.848 174.203 39.816 173.739 39.208C173.275 38.584 172.515 38.272 171.459 38.272C170.355 38.272 169.539 38.6 169.011 39.256C168.483 39.896 168.211 40.912 168.195 42.304H174.435Z" fill="black"/>
</svg>
