<svg width="508" height="122" viewBox="0 0 508 122" fill="none" xmlns="http://www.w3.org/2000/svg">
<rect x="0.5" y="0.5" width="507" height="121" fill="white" stroke="black"/>
<path d="M168.56 19.059C172.368 19.0645 175.294 20.1566 177.339 22.3356C179.416 24.4825 180.452 27.588 180.446 31.652L180.435 39.524C180.429 43.428 179.385 46.4345 177.302 48.5435C175.251 50.6206 172.242 51.6563 168.274 51.6507C165.554 51.6468 162.706 51.5467 159.73 51.3505L159.776 19.2385C162.656 19.1146 165.584 19.0548 168.56 19.059ZM168.315 22.5147C167.323 22.5133 165.835 22.5431 163.851 22.6043L163.815 47.8523C165.703 48.047 167.191 48.1451 168.279 48.1467C170.743 48.1502 172.696 47.449 174.138 46.043C175.612 44.6051 176.351 42.5422 176.354 39.8542L176.367 31.3582C176.371 28.4462 175.67 26.2532 174.264 24.7792C172.858 23.2732 170.875 22.5183 168.315 22.5147ZM194.626 27.1122C197.314 27.1161 199.361 27.855 200.767 29.329C202.173 30.803 202.874 32.932 202.87 35.716L202.863 40.66L190.527 40.6424L190.523 43.4744C190.521 45.1064 190.903 46.2909 191.67 47.028C192.469 47.7332 193.717 48.087 195.413 48.0894C197.077 48.0918 199.157 47.8387 201.654 47.3303L201.745 50.8824C198.768 51.4222 196.639 51.6911 195.359 51.6893C192.191 51.6848 189.904 50.9935 188.498 49.6155C187.124 48.2376 186.439 46.1086 186.443 43.2286L186.454 35.6926C186.458 32.9086 187.133 30.7815 188.479 29.3115C189.857 27.8414 191.906 27.1084 194.626 27.1122ZM194.622 30.5202C193.374 30.5185 192.381 30.917 191.644 31.716C190.907 32.4829 190.537 33.6024 190.535 35.0744L190.532 37.3784L198.788 37.3902L198.791 35.2302C198.793 33.6942 198.411 32.5256 197.644 31.7246C196.909 30.9235 195.902 30.5221 194.622 30.5202ZM215.135 27.1415C216.479 27.1434 218.095 27.3377 219.982 27.7244L219.881 31.1803C218.218 30.7939 216.698 30.5997 215.322 30.5978C212.442 30.5937 211.001 31.5196 210.998 33.3756L210.998 33.8076C210.997 34.3836 211.14 34.8478 211.428 35.2002C211.747 35.5527 212.307 35.9215 213.106 36.3066L217.615 38.4251C220.333 39.7089 221.691 41.5829 221.687 44.0469L221.686 45.1029C221.65 47.3108 220.976 48.9739 219.662 50.092C218.381 51.1782 216.348 51.7193 213.564 51.7153C212.124 51.7132 210.061 51.3743 207.374 50.6985L207.571 47.0507C209.97 47.7582 211.937 48.113 213.473 48.1152C215.041 48.1174 216.13 47.911 216.738 47.4958C217.347 47.0487 217.652 46.3291 217.653 45.3371L217.654 44.8571C217.655 44.0891 217.496 43.4809 217.177 43.0324C216.889 42.584 216.394 42.1993 215.69 41.8783L211.037 39.8077C209.63 39.1657 208.591 38.3962 207.92 37.4992C207.282 36.6023 206.963 35.5619 206.965 34.3779L206.966 33.7059C207.033 31.53 207.707 29.8989 208.989 28.8127C210.302 27.6946 212.351 27.1375 215.135 27.1415ZM231.057 27.7402L231.023 51.1642L226.943 51.1584L226.977 27.7344L231.057 27.7402ZM229.006 18.2813C229.87 18.2825 230.526 18.4755 230.974 18.8601C231.453 19.2448 231.692 19.7891 231.691 20.4931L231.689 21.8851C231.688 22.5891 231.447 23.1328 230.967 23.5161C230.518 23.8675 229.862 24.0425 228.998 24.0413C228.166 24.0401 227.51 23.8632 227.031 23.5105C226.583 23.1258 226.36 22.5815 226.361 21.8775L226.363 20.4855C226.364 19.7815 226.589 19.2379 227.038 18.8545C227.518 18.4712 228.174 18.2801 229.006 18.2813ZM245.439 27.1848C246.847 27.1868 248.127 27.3966 249.278 27.8142L256.766 27.7289L256.761 31.3289L252.825 31.2273C253.368 32.3801 253.638 33.5805 253.636 34.8285L253.634 35.8845C253.631 38.2205 252.908 40.1074 251.466 41.5454C250.024 42.9513 248.007 43.6524 245.415 43.6487C243.751 43.6464 242.392 43.4844 241.336 43.1629C240.631 43.7379 240.278 44.3934 240.277 45.1294L240.277 45.4174C240.276 45.9294 240.436 46.3136 240.755 46.5701C241.075 46.7946 241.699 46.9394 242.627 47.0048L249.778 47.543C251.25 47.6731 252.433 48.2348 253.327 49.228C254.254 50.1894 254.716 51.406 254.714 52.878L254.712 54.654C254.71 56.03 254.436 57.1496 253.891 58.0129C253.346 58.8761 252.337 59.5306 250.864 59.9765C249.423 60.4225 247.343 60.6435 244.623 60.6396C243.599 60.6382 242.383 60.5244 240.976 60.2984C239.6 60.0725 238.288 59.7826 237.041 59.4288L237.19 55.637C240.165 56.6333 242.692 57.1329 244.772 57.1358C246.5 57.1383 247.78 57.0281 248.613 56.8053C249.477 56.6146 250.037 56.3114 250.294 55.8957C250.583 55.4801 250.727 54.8563 250.729 54.0243L250.729 53.6403C250.73 52.9043 250.523 52.328 250.108 51.9115C249.724 51.4949 249.165 51.2701 248.429 51.2371L241.229 50.7468C239.693 50.6486 238.526 50.2149 237.727 49.4458C236.928 48.6766 236.53 47.6361 236.532 46.3241L236.533 45.3641C236.534 44.6601 236.711 43.9723 237.064 43.3008C237.449 42.6294 237.994 42.0382 238.698 41.5272C238.155 40.9184 237.756 40.1498 237.502 39.2214C237.279 38.2611 237.169 37.093 237.171 35.717L237.172 34.661C237.175 32.389 237.882 30.582 239.292 29.24C240.702 27.866 242.751 27.1809 245.439 27.1848ZM245.434 30.5928C244.09 30.5908 243.05 30.9414 242.313 31.6443C241.608 32.3153 241.254 33.2908 241.252 34.5708L241.25 36.1548C241.248 37.3388 241.343 38.2189 241.534 38.7952C241.758 39.3395 242.141 39.7241 242.685 39.9488C243.228 40.1416 244.044 40.2388 245.132 40.2403C246.604 40.2424 247.709 39.892 248.446 39.1891C249.183 38.4861 249.552 37.4786 249.554 36.1666L249.556 34.7266C249.558 33.3826 249.368 32.2144 248.985 31.2218C248.601 31.0613 248.074 30.9165 247.402 30.7876C246.762 30.6587 246.106 30.5937 245.434 30.5928ZM270.811 27.221C272.859 27.2239 274.426 27.9301 275.512 29.3397C276.63 30.7173 277.187 32.6861 277.184 35.2461L277.161 51.2301L273.081 51.2242L273.103 35.8163C273.107 32.6163 272.07 31.0148 269.99 31.0118C269.062 31.0105 268.117 31.3611 267.156 32.0638C266.195 32.7664 265.362 33.7252 264.656 34.9402L264.633 51.2122L260.553 51.2064L260.586 27.7824L264.426 27.7879L264.421 31.2919C265.287 29.9811 266.248 28.9745 267.306 28.272C268.395 27.5695 269.563 27.2192 270.811 27.221ZM300.679 19.2476C302.407 19.2501 304.663 19.5093 307.446 20.0253L307.345 23.6251C304.722 23.1094 302.498 22.8502 300.674 22.8476C298.818 22.8449 297.474 23.211 296.64 23.9458C295.839 24.6807 295.438 25.8001 295.436 27.3041L295.434 28.5521C295.433 29.3521 295.528 29.9923 295.719 30.4725C295.943 30.9209 296.326 31.3214 296.869 31.6742C297.413 31.995 298.228 32.3321 299.316 32.6857L303.778 34.18C305.921 34.9191 307.423 35.8972 308.286 37.1145C309.18 38.3318 309.625 40.1084 309.622 42.4444L309.621 43.3564C309.617 46.2044 308.782 48.3312 307.116 49.7368C305.482 51.1425 302.793 51.8427 299.049 51.8373C297.225 51.8347 294.889 51.5114 292.042 50.8673L292.143 47.1714C294.798 47.8152 297.07 48.1385 298.958 48.1412C301.358 48.1446 303.054 47.795 304.047 47.0924C305.04 46.3579 305.538 45.2226 305.54 43.6866L305.543 42.1026C305.544 40.9826 305.289 40.1342 304.778 39.5575C304.299 38.9488 303.436 38.4356 302.188 38.0178L297.247 36.3787C295.04 35.6396 293.505 34.6934 292.643 33.5401C291.78 32.3549 291.351 30.5783 291.354 28.2103L291.355 27.6823C291.359 24.8983 292.098 22.8034 293.572 21.3975C295.078 19.9596 297.447 19.243 300.679 19.2476ZM322.649 27.295C325.497 27.299 327.608 28.07 328.981 29.608C330.387 31.114 331.088 33.259 331.084 36.043L331.074 43.147C331.07 45.931 330.363 48.09 328.953 49.624C327.575 51.126 325.462 51.875 322.614 51.8709C319.766 51.8669 317.639 51.1118 316.233 49.6058C314.859 48.0679 314.174 45.9069 314.178 43.1229L314.188 36.0189C314.192 33.2349 314.883 31.0919 316.261 29.5899C317.672 28.0559 319.801 27.2909 322.649 27.295ZM322.644 30.703C321.268 30.701 320.195 31.1315 319.426 31.9944C318.657 32.8573 318.271 34.0887 318.269 35.6887L318.258 43.4647C318.255 45.0647 318.638 46.2973 319.404 47.1624C320.171 48.0275 321.242 48.461 322.618 48.4629C323.994 48.4649 325.067 48.0344 325.836 47.1715C326.606 46.3086 326.991 45.0772 326.994 43.4772L327.005 35.6532C327.007 34.0532 326.625 32.8366 325.858 32.0036C325.091 31.1385 324.02 30.7049 322.644 30.703ZM345.975 17.9682C347.031 17.9698 348.039 18.0832 348.998 18.3086L348.994 21.5726C348.034 21.4112 347.042 21.3298 346.018 21.3283C345.026 21.3269 344.241 21.6458 343.665 22.285C343.12 22.9242 342.846 23.8998 342.844 25.2118L342.84 27.8998L347.64 27.9066L347.636 31.2666L342.836 31.2598L342.807 51.3238L338.727 51.3179L338.756 31.254L335.396 31.2492L335.4 27.8892L338.76 27.894L338.764 25.446C338.8 22.95 339.426 21.0789 340.644 19.8326C341.862 18.5864 343.639 17.9649 345.975 17.9682ZM357.12 27.9202L363.36 27.9291L363.356 31.2891L357.116 31.2802L357.096 45.0082C357.094 46.2241 357.333 47.1045 357.812 47.6492C358.324 48.1619 359.107 48.419 360.163 48.4205C361.507 48.4224 362.819 48.2643 364.1 47.9461L364.191 51.3543C362.782 51.7363 361.502 51.9264 360.35 51.9248C357.79 51.9211 355.919 51.3585 354.737 50.2368C353.586 49.0831 353.013 47.2263 353.017 44.6663L353.036 31.2743L349.676 31.2695L349.68 27.9095L353.04 27.9143L353.817 21.6754L357.129 21.6802L357.12 27.9202ZM396.763 27.9767L391.306 51.393L386.17 51.3857L381.446 31.5069L376.618 51.372L371.482 51.3647L366.139 27.933L370.459 27.9392L374.223 47.7686L378.811 27.9511L384.091 27.9587L388.575 47.7891L392.443 27.9706L396.763 27.9767ZM407.989 27.4168C410.741 27.4207 412.74 28.0476 413.986 29.2973C415.264 30.5152 415.902 32.4681 415.898 35.1561L415.875 51.4281L411.987 51.4225L411.992 47.6785C410.132 50.5559 408.034 51.9929 405.698 51.9895C403.842 51.9869 402.355 51.3448 401.237 50.0632C400.15 48.7816 399.609 47.0368 399.612 44.8288L399.614 43.4848C399.617 41.5648 400.275 39.9818 401.589 38.7356C402.903 37.4575 404.663 36.82 406.871 36.8232C408.087 36.8249 409.735 37.0353 411.815 37.4542L411.818 34.8142C411.82 33.4382 411.502 32.4458 410.863 31.8369C410.255 31.228 409.296 30.9226 407.984 30.9208C406.448 30.9186 404.288 31.1555 401.503 31.6315L401.508 28.1275C404.517 27.6518 406.677 27.4149 407.989 27.4168ZM407.875 39.9926C406.531 39.9907 405.506 40.3412 404.801 41.0442C404.096 41.7472 403.743 42.7387 403.741 44.0187L403.74 44.5467C403.739 45.7307 404.009 46.6591 404.552 47.3319C405.095 48.0047 405.783 48.3416 406.615 48.3428C407.479 48.3441 408.36 47.9773 409.257 47.2426C410.186 46.4759 411.035 45.4051 411.805 44.0302L411.81 40.3342C410.595 40.1085 409.283 39.9946 407.875 39.9926ZM432.623 27.4519C433.071 27.4526 433.423 27.4851 433.679 27.5494L433.673 32.1574C433.193 32.0607 432.569 32.0119 431.801 32.0108C429.561 32.0076 427.783 33.125 426.468 35.3632L426.445 51.4431L422.365 51.4373L422.399 28.0133L426.239 28.0188L426.234 31.5228C427.099 30.212 428.061 29.2054 429.118 28.5029C430.207 27.8005 431.375 27.4502 432.623 27.4519ZM445.361 27.4701C448.049 27.4739 450.096 28.2129 451.501 29.6869C452.907 31.1609 453.608 33.2899 453.604 36.0739L453.597 41.0179L441.261 41.0003L441.257 43.8323C441.255 45.4643 441.637 46.6488 442.404 47.3859C443.203 48.0911 444.451 48.4448 446.147 48.4473C447.811 48.4496 449.891 48.1966 452.388 47.6882L452.479 51.2403C449.502 51.78 447.374 52.049 446.094 52.0472C442.926 52.0427 440.638 51.3514 439.232 49.9734C437.858 48.5954 437.173 46.4664 437.178 43.5864L437.188 36.0505C437.192 33.2665 437.867 31.1394 439.213 29.6693C440.592 28.1993 442.641 27.4662 445.361 27.4701ZM445.356 30.8781C444.108 30.8763 443.115 31.2749 442.378 32.0739C441.641 32.8408 441.271 33.9603 441.269 35.4323L441.266 37.7363L449.522 37.7481L449.525 35.5881C449.527 34.0521 449.145 32.8835 448.378 32.0824C447.643 31.2814 446.636 30.8799 445.356 30.8781ZM220.148 70.1327C221.396 70.1345 222.74 70.2644 224.18 70.5225C225.651 70.7486 226.515 70.8778 226.771 70.9102L226.67 74.51C223.855 73.994 221.679 73.7349 220.143 73.7327C217.967 73.7296 216.398 74.1754 215.437 75.07C214.476 75.9646 213.994 77.4519 213.991 79.5319L213.971 93.2599C213.968 95.3399 214.43 96.8286 215.357 97.7259C216.316 98.5913 217.899 99.0255 220.107 99.0287C221.643 99.0309 223.819 98.778 226.636 98.27L226.727 101.966C226.471 101.998 225.606 102.125 224.134 102.346C222.694 102.6 221.35 102.726 220.102 102.725C216.422 102.719 213.799 101.932 212.233 100.361C210.667 98.7912 209.887 96.3421 209.891 93.0141L209.91 79.8141C209.915 76.4861 210.703 74.0392 212.273 72.4735C213.843 70.9077 216.468 70.1275 220.148 70.1327ZM240.24 78.1774C243.088 78.1815 245.199 78.9525 246.573 80.4904C247.979 81.9964 248.68 84.1414 248.676 86.9254L248.665 94.0294C248.661 96.8134 247.954 98.9724 246.544 100.506C245.166 102.008 243.053 102.757 240.205 102.753C237.357 102.749 235.23 101.994 233.824 100.488C232.45 98.9503 231.765 96.7893 231.769 94.0053L231.78 86.9013C231.784 84.1173 232.475 81.9743 233.853 80.4723C235.263 78.9383 237.392 78.1733 240.24 78.1774ZM240.235 81.5854C238.859 81.5834 237.787 82.0139 237.017 82.8768C236.248 83.7397 235.862 84.9712 235.86 86.5712L235.849 94.3471C235.847 95.9471 236.229 97.1797 236.996 98.0448C237.762 98.9099 238.834 99.3434 240.21 99.3454C241.586 99.3473 242.658 98.9169 243.428 98.054C244.197 97.1911 244.583 95.9596 244.585 94.3596L244.596 86.5356C244.598 84.9356 244.216 83.7191 243.449 82.886C242.683 82.0209 241.611 81.5874 240.235 81.5854ZM277.425 78.2305C279.473 78.2334 281.04 78.9396 282.126 80.3492C283.212 81.7267 283.753 83.6955 283.749 86.2555L283.726 102.239L279.646 102.234L279.668 86.8257C279.673 83.6257 278.651 82.0242 276.603 82.0213C275.707 82.02 274.779 82.3707 273.818 83.0733C272.889 83.776 272.071 84.7348 271.366 85.9498L271.342 102.222L267.262 102.216L267.284 86.808C267.289 83.608 266.267 82.0065 264.219 82.0036C263.323 82.0023 262.395 82.353 261.434 83.0556C260.505 83.7583 259.687 84.7172 258.982 85.9322L258.958 102.204L254.878 102.198L254.912 78.7743L258.752 78.7798L258.747 82.2838C259.581 80.973 260.542 79.9664 261.631 79.2639C262.72 78.5615 263.857 78.2111 265.041 78.2128C266.513 78.2149 267.744 78.6007 268.735 79.3701C269.726 80.1075 270.444 81.1965 270.89 82.6371C271.756 81.1984 272.75 80.1118 273.871 79.3774C274.992 78.611 276.177 78.2287 277.425 78.2305ZM300.667 78.2636C302.683 78.2665 304.25 78.9568 305.368 80.3344C306.486 81.712 307.043 83.6967 307.039 86.2887L307.027 94.8327C307.024 97.3287 306.365 99.2958 305.051 100.734C303.769 102.14 302.024 102.842 299.816 102.838C298.984 102.837 298.088 102.66 297.128 102.307C296.201 101.985 295.337 101.6 294.538 101.151L294.524 111.135L290.444 111.129L290.49 78.8251L294.33 78.8306L294.325 82.2386C296.089 79.5851 298.203 78.2601 300.667 78.2636ZM299.846 81.9105C298.918 81.9091 297.973 82.2598 297.012 82.9624C296.083 83.6331 295.266 84.5599 294.56 85.7429L294.543 97.5029C295.215 98.0479 295.95 98.4809 296.749 98.8021C297.581 99.0913 298.333 99.2363 299.005 99.2373C301.629 99.241 302.943 97.5789 302.948 94.2509L302.958 86.8589C302.963 83.5629 301.926 81.9134 299.846 81.9105ZM320.283 78.2916C323.035 78.2956 325.034 78.9224 326.281 80.1722C327.559 81.39 328.196 83.3429 328.192 86.0309L328.169 102.303L324.281 102.297L324.286 98.5534C322.426 101.431 320.328 102.868 317.992 102.864C316.136 102.862 314.649 102.22 313.531 100.938C312.445 99.6565 311.903 97.9117 311.906 95.7037L311.908 94.3597C311.911 92.4397 312.569 90.8566 313.883 89.6105C315.197 88.3324 316.958 87.6949 319.166 87.6981C320.382 87.6998 322.03 87.9101 324.109 88.3291L324.113 85.6891C324.115 84.3131 323.796 83.3207 323.157 82.7117C322.55 82.1029 321.59 81.7975 320.278 81.7956C318.742 81.7934 316.582 82.0304 313.797 82.5064L313.802 79.0024C316.811 78.5267 318.971 78.2898 320.283 78.2916ZM320.169 90.8675C318.825 90.8656 317.801 91.2161 317.096 91.9191C316.391 92.6221 316.037 93.6136 316.036 94.8936L316.035 95.4216C316.033 96.6056 316.304 97.534 316.847 98.2068C317.39 98.8795 318.077 99.2165 318.909 99.2177C319.773 99.2189 320.654 98.8522 321.551 98.1175C322.48 97.3508 323.33 96.28 324.1 94.9051L324.105 91.2091C322.889 90.9834 321.577 90.8695 320.169 90.8675ZM344.918 78.3268C346.966 78.3297 348.533 79.036 349.619 80.4455C350.737 81.8231 351.294 83.7919 351.29 86.3519L351.268 102.336L347.188 102.33L347.21 86.9221C347.214 83.7221 346.176 82.1206 344.096 82.1176C343.168 82.1163 342.224 82.467 341.263 83.1696C340.302 83.8722 339.469 84.831 338.763 86.046L338.74 102.318L334.66 102.312L334.693 78.8882L338.533 78.8937L338.528 82.3977C339.394 81.0869 340.355 80.0803 341.412 79.3778C342.501 78.6754 343.67 78.325 344.918 78.3268ZM362.117 78.9273L362.083 102.351L358.003 102.346L358.037 78.9215L362.117 78.9273ZM360.066 69.4684C360.93 69.4696 361.586 69.6626 362.033 70.0472C362.513 70.4319 362.752 70.9762 362.751 71.6802L362.749 73.0722C362.748 73.7762 362.507 74.3199 362.027 74.7032C361.578 75.0546 360.922 75.2296 360.058 75.2284C359.226 75.2272 358.57 75.0503 358.091 74.6976C357.643 74.313 357.42 73.7686 357.421 73.0646L357.423 71.6726C357.424 70.9686 357.649 70.425 358.097 70.0416C358.578 69.6583 359.234 69.4672 360.066 69.4684ZM376.499 78.3719C379.187 78.3757 381.234 79.1146 382.64 80.5886C384.046 82.0627 384.746 84.1917 384.743 86.9757L384.735 91.9196L372.399 91.902L372.395 94.734C372.393 96.366 372.775 97.5506 373.542 98.2877C374.341 98.9928 375.589 99.3466 377.285 99.349C378.949 99.3514 381.029 99.0984 383.526 98.5899L383.617 102.142C380.64 102.682 378.512 102.951 377.232 102.949C374.064 102.944 371.777 102.253 370.371 100.875C368.997 99.4972 368.312 97.3682 368.316 94.4882L368.327 86.9522C368.331 84.1682 369.006 82.0412 370.352 80.5711C371.73 79.1011 373.779 78.368 376.499 78.3719ZM376.494 81.7799C375.246 81.7781 374.253 82.1767 373.516 82.9756C372.779 83.7426 372.41 84.862 372.407 86.334L372.404 88.638L380.66 88.6498L380.663 86.4898C380.665 84.9538 380.283 83.7853 379.516 82.9842C378.781 82.1831 377.774 81.7817 376.494 81.7799ZM397.008 78.4011C398.352 78.4031 399.967 78.5974 401.855 78.9841L401.754 82.4399C400.09 82.0536 398.571 81.8594 397.195 81.8574C394.315 81.8533 392.873 82.7793 392.871 84.6353L392.87 85.0672C392.869 85.6432 393.013 86.1075 393.3 86.4599C393.62 86.8123 394.179 87.1811 394.978 87.5663L399.487 89.6847C402.206 90.9686 403.563 92.8425 403.559 95.3065L403.558 96.3625C403.523 98.5705 402.848 100.234 401.535 101.352C400.253 102.438 398.22 102.979 395.436 102.975C393.996 102.973 391.933 102.634 389.246 101.958L389.443 98.3104C391.842 99.0178 393.81 99.3726 395.346 99.3748C396.914 99.377 398.002 99.1706 398.61 98.7555C399.219 98.3083 399.524 97.5888 399.526 96.5968L399.526 96.1168C399.527 95.3488 399.368 94.7405 399.049 94.2921C398.761 93.8437 398.266 93.459 397.562 93.138L392.909 91.0673C391.502 90.4253 390.463 89.6558 389.793 88.7589C389.154 87.8619 388.835 86.8215 388.837 85.6375L388.838 84.9655C388.905 82.7896 389.58 81.1585 390.861 80.0724C392.175 78.9543 394.224 78.3972 397.008 78.4011Z" fill="black"/>
<path d="M34.5 89.25L35.5417 98.5L42.2917 92.0833L53.8333 60.4167C51 59.7083 48.5 58.2917 46.4583 56.3333L34.5 89.25Z" fill="black"/>
<path d="M69.5417 56.3333C67.5001 58.2917 64.9584 59.7083 62.1667 60.4167L73.7084 92.0833L80.4584 98.5L81.5417 89.25L69.5417 56.3333Z" fill="black"/>
<path d="M70.5 44.3333C70.5 38.9167 67 34.3333 62.1667 32.5833V23.5H53.8333V32.5833C49 34.3333 45.5 38.9167 45.5 44.3333C45.5 51.25 51.0833 56.8333 58 56.8333C64.9167 56.8333 70.5 51.25 70.5 44.3333ZM58 48.5C55.7083 48.5 53.8333 46.625 53.8333 44.3333C53.8333 42.0417 55.7083 40.1667 58 40.1667C60.2917 40.1667 62.1667 42.0417 62.1667 44.3333C62.1667 46.625 60.2917 48.5 58 48.5Z" fill="black"/>
</svg>
