<svg width="286" height="84" viewBox="0 0 286 84" fill="none" xmlns="http://www.w3.org/2000/svg">
<rect x="0.5" y="0.5" width="285" height="83" fill="white" stroke="black"/>
<path d="M14.888 34.024V40.504H21.728V42.136H14.888V49H13.04V32.392H22.976V34.024H14.888ZM25.3608 37H27.1368V49H25.3608V37ZM25.3608 32.2H27.1368V34.288H25.3608V32.2ZM30.5874 37H32.3634V37.84C33.0834 37.44 33.7394 37.16 34.3314 37C34.9394 36.84 35.5714 36.76 36.2274 36.76C37.2514 36.76 38.0434 36.952 38.6034 37.336C39.1634 37.72 39.5554 38.336 39.7794 39.184C40.0194 40.016 40.1394 41.176 40.1394 42.664V49H38.3634V42.712C38.3634 41.576 38.2914 40.704 38.1474 40.096C38.0194 39.488 37.7794 39.048 37.4274 38.776C37.0754 38.504 36.5634 38.368 35.8914 38.368C35.3474 38.368 34.7874 38.44 34.2114 38.584C33.6514 38.712 33.1954 38.864 32.8434 39.04L32.3874 39.256V49H30.5874V37ZM47.2237 49.264C46.4077 49.264 45.7677 49.136 45.3037 48.88C44.8557 48.608 44.5277 48.16 44.3197 47.536C44.1277 46.896 44.0317 46.008 44.0317 44.872V38.56H42.3277V37H44.0317V33.328H45.8077V37H49.6237V38.56H45.8077V44.296C45.8077 45.192 45.8397 45.864 45.9037 46.312C45.9677 46.744 46.1197 47.08 46.3597 47.32C46.6157 47.544 47.0077 47.656 47.5357 47.656L49.6717 47.512L49.7917 49C48.6557 49.176 47.7997 49.264 47.2237 49.264ZM56.3098 49.24C54.4858 49.24 53.1898 48.768 52.4218 47.824C51.6698 46.864 51.2938 45.36 51.2938 43.312C51.2938 41.088 51.7018 39.44 52.5178 38.368C53.3338 37.296 54.6138 36.76 56.3578 36.76C57.9578 36.76 59.1498 37.224 59.9338 38.152C60.7338 39.064 61.1338 40.472 61.1338 42.376L61.0378 43.744H53.1178C53.1178 44.736 53.2218 45.512 53.4298 46.072C53.6538 46.632 54.0218 47.04 54.5338 47.296C55.0618 47.536 55.7898 47.656 56.7178 47.656C57.1818 47.656 57.7178 47.648 58.3258 47.632C58.9338 47.6 59.4858 47.56 59.9818 47.512L60.6778 47.44L60.7258 48.856C58.9498 49.112 57.4778 49.24 56.3098 49.24ZM59.3338 42.304C59.3338 40.848 59.1018 39.816 58.6378 39.208C58.1738 38.584 57.4138 38.272 56.3578 38.272C55.2538 38.272 54.4378 38.6 53.9098 39.256C53.3818 39.896 53.1098 40.912 53.0938 42.304H59.3338ZM68.2589 49.24C67.0589 49.24 66.1069 49.032 65.4029 48.616C64.6989 48.184 64.1949 47.52 63.8909 46.624C63.5869 45.712 63.4349 44.504 63.4349 43C63.4349 41.096 63.7549 39.576 64.3949 38.44C65.0349 37.304 66.2749 36.736 68.1149 36.736C68.5949 36.736 69.0909 36.76 69.6029 36.808C70.1149 36.856 70.8109 36.96 71.6909 37.12L71.6189 38.584C70.3549 38.44 69.3869 38.368 68.7149 38.368C67.8029 38.368 67.0989 38.512 66.6029 38.8C66.1229 39.072 65.7789 39.544 65.5709 40.216C65.3789 40.872 65.2829 41.816 65.2829 43.048C65.2829 44.216 65.3789 45.128 65.5709 45.784C65.7629 46.424 66.1069 46.896 66.6029 47.2C67.1149 47.488 67.8509 47.632 68.8109 47.632L71.6429 47.416L71.7149 48.904C70.1789 49.128 69.0269 49.24 68.2589 49.24ZM74.3921 31.768H76.1921V37.672C76.8961 37.352 77.5441 37.12 78.1361 36.976C78.7441 36.832 79.3601 36.76 79.9841 36.76C81.0241 36.76 81.8241 36.952 82.3841 37.336C82.9601 37.704 83.3601 38.312 83.5841 39.16C83.8241 40.008 83.9441 41.176 83.9441 42.664V49H82.1441V42.712C82.1441 41.528 82.0721 40.64 81.9281 40.048C81.8001 39.44 81.5441 39.008 81.1601 38.752C80.7921 38.496 80.2401 38.368 79.5041 38.368C78.5921 38.368 77.6401 38.552 76.6481 38.92L76.1921 39.088V49H74.3921V31.768Z" fill="black"/>
<path d="M266 27.2917V66.8333H209V60.75H260V27.2917H266ZM254 54.6667H200V18.1667H254V54.6667ZM236 36.4167C236 31.3675 231.98 27.2917 227 27.2917C222.02 27.2917 218 31.3675 218 36.4167C218 41.4658 222.02 45.5417 227 45.5417C231.98 45.5417 236 41.4658 236 36.4167Z" fill="black"/>
</svg>
