<svg width="508" height="122" viewBox="0 0 508 122" fill="none" xmlns="http://www.w3.org/2000/svg">
<rect x="0.5" y="0.5" width="507" height="121" fill="white" stroke="black"/>
<path d="M115.833 40.1667V94.3333H36.6667V86H107.5V40.1667H115.833ZM99.1667 77.6666H24.1667V27.6667H99.1667V77.6666ZM74.1667 52.6667C74.1667 45.75 68.5834 40.1667 61.6667 40.1667C54.7501 40.1667 49.1667 45.75 49.1667 52.6667C49.1667 59.5833 54.7501 65.1667 61.6667 65.1667C68.5834 65.1667 74.1667 59.5833 74.1667 52.6667Z" fill="black"/>
<path d="M270.808 19.56V23.256H258.328V33.192H267.736V36.84H258.328V51H254.248V19.56H270.808ZM280.167 27.576V51H276.087V27.576H280.167ZM278.103 18.12C278.967 18.12 279.623 18.312 280.071 18.696C280.551 19.08 280.791 19.624 280.791 20.328V21.72C280.791 22.424 280.551 22.968 280.071 23.352C279.623 23.704 278.967 23.88 278.103 23.88C277.271 23.88 276.615 23.704 276.135 23.352C275.687 22.968 275.463 22.424 275.463 21.72V20.328C275.463 19.624 275.687 19.08 276.135 18.696C276.615 18.312 277.271 18.12 278.103 18.12ZM297.092 27C299.14 27 300.708 27.704 301.796 29.112C302.916 30.488 303.476 32.456 303.476 35.016V51H299.396V35.592C299.396 32.392 298.356 30.792 296.276 30.792C295.348 30.792 294.404 31.144 293.444 31.848C292.484 32.552 291.652 33.512 290.948 34.728V51H286.868V27.576H290.708V31.08C291.572 29.768 292.532 28.76 293.588 28.056C294.676 27.352 295.844 27 297.092 27ZM315.012 27.576H321.252V30.936H315.012V44.664C315.012 45.88 315.252 46.76 315.732 47.304C316.244 47.816 317.028 48.072 318.084 48.072C319.428 48.072 320.74 47.912 322.02 47.592L322.116 51C320.708 51.384 319.428 51.576 318.276 51.576C315.716 51.576 313.844 51.016 312.66 49.896C311.508 48.744 310.932 46.888 310.932 44.328V30.936H307.572V27.576H310.932L311.7 21.336H315.012V27.576ZM334.11 27C336.798 27 338.846 27.736 340.254 29.208C341.662 30.68 342.366 32.808 342.366 35.592V40.536H330.03V43.368C330.03 45 330.414 46.184 331.182 46.92C331.982 47.624 333.23 47.976 334.926 47.976C336.59 47.976 338.67 47.72 341.166 47.208L341.262 50.76C338.286 51.304 336.158 51.576 334.878 51.576C331.71 51.576 329.422 50.888 328.014 49.512C326.638 48.136 325.95 46.008 325.95 43.128V35.592C325.95 32.808 326.622 30.68 327.966 29.208C329.342 27.736 331.39 27 334.11 27ZM334.11 30.408C332.862 30.408 331.87 30.808 331.134 31.608C330.398 32.376 330.03 33.496 330.03 34.968V37.272H338.286V35.112C338.286 33.576 337.902 32.408 337.134 31.608C336.398 30.808 335.39 30.408 334.11 30.408ZM356.107 27C357.547 27 359.179 27.208 361.003 27.624L360.907 31.224C359.051 30.808 357.451 30.6 356.107 30.6C354.603 30.6 353.451 31.016 352.651 31.848C351.883 32.68 351.499 33.864 351.499 35.4V43.128C351.499 44.728 351.899 45.944 352.699 46.776C353.531 47.576 354.667 47.976 356.107 47.976C357.003 47.976 357.787 47.928 358.459 47.832C359.131 47.736 359.947 47.576 360.907 47.352L361.003 50.952C359.051 51.368 357.403 51.576 356.059 51.576C350.299 51.576 347.419 48.664 347.419 42.84V35.736C347.419 29.912 350.315 27 356.107 27ZM370.682 30.696C372.442 28.232 374.49 27 376.826 27C378.874 27 380.442 27.704 381.53 29.112C382.65 30.488 383.21 32.456 383.21 35.016V51H379.13V35.592C379.13 32.392 378.09 30.792 376.01 30.792C375.082 30.792 374.138 31.144 373.178 31.848C372.218 32.552 371.386 33.512 370.682 34.728V51H366.602V18.216H370.682V30.696ZM232.732 69.984C233.98 69.984 235.324 70.112 236.764 70.368C238.236 70.592 239.1 70.72 239.356 70.752L239.26 74.352C236.444 73.84 234.268 73.584 232.732 73.584C230.556 73.584 228.988 74.032 228.028 74.928C227.068 75.824 226.588 77.312 226.588 79.392V93.12C226.588 95.2 227.052 96.688 227.98 97.584C228.94 98.448 230.524 98.88 232.732 98.88C234.268 98.88 236.444 98.624 239.26 98.112L239.356 101.808C239.1 101.84 238.236 101.968 236.764 102.192C235.324 102.448 233.98 102.576 232.732 102.576C229.052 102.576 226.428 101.792 224.86 100.224C223.292 98.656 222.508 96.208 222.508 92.88V79.68C222.508 76.352 223.292 73.904 224.86 72.336C226.428 70.768 229.052 69.984 232.732 69.984ZM252.836 78C255.684 78 257.796 78.768 259.172 80.304C260.58 81.808 261.284 83.952 261.284 86.736V93.84C261.284 96.624 260.58 98.784 259.172 100.32C257.796 101.824 255.684 102.576 252.836 102.576C249.988 102.576 247.86 101.824 246.452 100.32C245.076 98.784 244.388 96.624 244.388 93.84V86.736C244.388 83.952 245.076 81.808 246.452 80.304C247.86 78.768 249.988 78 252.836 78ZM252.836 81.408C251.46 81.408 250.388 81.84 249.62 82.704C248.852 83.568 248.468 84.8 248.468 86.4V94.176C248.468 95.776 248.852 97.008 249.62 97.872C250.388 98.736 251.46 99.168 252.836 99.168C254.212 99.168 255.284 98.736 256.052 97.872C256.82 97.008 257.204 95.776 257.204 94.176V86.352C257.204 84.752 256.82 83.536 256.052 82.704C255.284 81.84 254.212 81.408 252.836 81.408ZM290.02 78C292.068 78 293.636 78.704 294.724 80.112C295.812 81.488 296.356 83.456 296.356 86.016V102H292.276V86.592C292.276 83.392 291.252 81.792 289.204 81.792C288.308 81.792 287.38 82.144 286.42 82.848C285.492 83.552 284.676 84.512 283.972 85.728V102H279.892V86.592C279.892 83.392 278.868 81.792 276.82 81.792C275.924 81.792 274.996 82.144 274.036 82.848C273.108 83.552 272.292 84.512 271.588 85.728V102H267.508V78.576H271.348V82.08C272.18 80.768 273.14 79.76 274.228 79.056C275.316 78.352 276.452 78 277.636 78C279.108 78 280.34 78.384 281.332 79.152C282.324 79.888 283.044 80.976 283.492 82.416C284.356 80.976 285.348 79.888 286.468 79.152C287.588 78.384 288.772 78 290.02 78ZM313.263 78C315.279 78 316.847 78.688 317.967 80.064C319.087 81.44 319.647 83.424 319.647 86.016V94.56C319.647 97.056 318.991 99.024 317.679 100.464C316.399 101.872 314.655 102.576 312.447 102.576C311.615 102.576 310.719 102.4 309.759 102.048C308.831 101.728 307.967 101.344 307.167 100.896V110.88H303.087V78.576H306.927V81.984C308.687 79.328 310.799 78 313.263 78ZM312.447 81.648C311.519 81.648 310.575 82 309.615 82.704C308.687 83.376 307.871 84.304 307.167 85.488V97.248C307.839 97.792 308.575 98.224 309.375 98.544C310.207 98.832 310.959 98.976 311.631 98.976C314.255 98.976 315.567 97.312 315.567 93.984V86.592C315.567 83.296 314.527 81.648 312.447 81.648ZM332.879 78C335.631 78 337.631 78.624 338.879 79.872C340.159 81.088 340.799 83.04 340.799 85.728V102H336.911V98.256C335.055 101.136 332.959 102.576 330.623 102.576C328.767 102.576 327.279 101.936 326.159 100.656C325.071 99.376 324.527 97.632 324.527 95.424V94.08C324.527 92.16 325.183 90.576 326.495 89.328C327.807 88.048 329.567 87.408 331.775 87.408C332.991 87.408 334.639 87.616 336.719 88.032V85.392C336.719 84.016 336.399 83.024 335.759 82.416C335.151 81.808 334.191 81.504 332.879 81.504C331.343 81.504 329.183 81.744 326.399 82.224V78.72C329.407 78.24 331.567 78 332.879 78ZM332.783 90.576C331.439 90.576 330.415 90.928 329.711 91.632C329.007 92.336 328.655 93.328 328.655 94.608V95.136C328.655 96.32 328.927 97.248 329.471 97.92C330.015 98.592 330.703 98.928 331.535 98.928C332.399 98.928 333.279 98.56 334.175 97.824C335.103 97.056 335.951 95.984 336.719 94.608V90.912C335.503 90.688 334.191 90.576 332.783 90.576ZM357.514 78C359.562 78 361.13 78.704 362.218 80.112C363.338 81.488 363.898 83.456 363.898 86.016V102H359.818V86.592C359.818 83.392 358.778 81.792 356.698 81.792C355.77 81.792 354.826 82.144 353.866 82.848C352.906 83.552 352.074 84.512 351.37 85.728V102H347.29V78.576H351.13V82.08C351.994 80.768 352.954 79.76 354.01 79.056C355.098 78.352 356.266 78 357.514 78ZM374.713 78.576V102H370.633V78.576H374.713ZM372.649 69.12C373.513 69.12 374.169 69.312 374.617 69.696C375.097 70.08 375.337 70.624 375.337 71.328V72.72C375.337 73.424 375.097 73.968 374.617 74.352C374.169 74.704 373.513 74.88 372.649 74.88C371.817 74.88 371.161 74.704 370.681 74.352C370.233 73.968 370.009 73.424 370.009 72.72V71.328C370.009 70.624 370.233 70.08 370.681 69.696C371.161 69.312 371.817 69.12 372.649 69.12ZM389.095 78C391.783 78 393.831 78.736 395.239 80.208C396.647 81.68 397.351 83.808 397.351 86.592V91.536H385.015V94.368C385.015 96 385.399 97.184 386.167 97.92C386.967 98.624 388.215 98.976 389.911 98.976C391.575 98.976 393.655 98.72 396.151 98.208L396.247 101.76C393.271 102.304 391.143 102.576 389.863 102.576C386.695 102.576 384.407 101.888 382.999 100.512C381.623 99.136 380.935 97.008 380.935 94.128V86.592C380.935 83.808 381.607 81.68 382.951 80.208C384.327 78.736 386.375 78 389.095 78ZM389.095 81.408C387.847 81.408 386.855 81.808 386.119 82.608C385.383 83.376 385.015 84.496 385.015 85.968V88.272H393.271V86.112C393.271 84.576 392.887 83.408 392.119 82.608C391.383 81.808 390.375 81.408 389.095 81.408ZM409.603 78C410.947 78 412.563 78.192 414.451 78.576L414.355 82.032C412.691 81.648 411.171 81.456 409.795 81.456C406.915 81.456 405.475 82.384 405.475 84.24V84.672C405.475 85.248 405.619 85.712 405.907 86.064C406.227 86.416 406.787 86.784 407.587 87.168L412.099 89.28C414.819 90.56 416.179 92.432 416.179 94.896V95.952C416.147 98.16 415.475 99.824 414.163 100.944C412.883 102.032 410.851 102.576 408.067 102.576C406.627 102.576 404.563 102.24 401.875 101.568L402.067 97.92C404.467 98.624 406.435 98.976 407.971 98.976C409.539 98.976 410.627 98.768 411.235 98.352C411.843 97.904 412.147 97.184 412.147 96.192V95.712C412.147 94.944 411.987 94.336 411.667 93.888C411.379 93.44 410.883 93.056 410.179 92.736L405.523 90.672C404.115 90.032 403.075 89.264 402.403 88.368C401.763 87.472 401.443 86.432 401.443 85.248V84.576C401.507 82.4 402.179 80.768 403.459 79.68C404.771 78.56 406.819 78 409.603 78Z" fill="black"/>
</svg>
