<svg width="508" height="122" viewBox="0 0 508 122" fill="none" xmlns="http://www.w3.org/2000/svg">
<rect x="0.5" y="0.5" width="507" height="121" fill="white" stroke="black"/>
<path d="M103.833 36H12.1667V86H103.833V36ZM53.8334 65.1667H41.3334V77.6667H33.0001V65.1667H20.5001V56.8333H33.0001V44.3333H41.3334V56.8333H53.8334V65.1667ZM72.5834 73.5C69.1251 73.5 66.3334 70.7083 66.3334 67.25C66.3334 63.7917 69.1251 61 72.5834 61C76.0417 61 78.8334 63.7917 78.8334 67.25C78.8334 70.7083 76.0417 73.5 72.5834 73.5ZM89.2501 61C85.7917 61 83.0001 58.2083 83.0001 54.75C83.0001 51.2917 85.7917 48.5 89.2501 48.5C92.7084 48.5 95.5001 51.2917 95.5001 54.75C95.5001 58.2083 92.7084 61 89.2501 61Z" fill="black"/>
<path d="M244.901 19.168C246.085 19.1697 247.444 19.2836 248.98 19.5098C250.516 19.704 251.924 19.93 253.203 20.1878L253.102 23.7877C249.487 23.0785 246.752 22.7226 244.896 22.72C242.688 22.7168 241.103 23.1626 240.142 24.0572C239.212 24.9199 238.746 26.3752 238.743 28.4232L238.724 42.3432C238.721 44.3912 239.182 45.8799 240.109 46.8092C241.068 47.7065 242.651 48.1568 244.859 48.16C246.299 48.162 248.172 47.9407 250.476 47.496L250.491 36.888L244.491 36.8794L244.497 33.0394L254.577 33.0538L254.553 49.9978C250.711 51.1763 247.478 51.7637 244.854 51.76C241.174 51.7547 238.551 50.967 236.985 49.3967C235.42 47.8265 234.639 45.3774 234.644 42.0494L234.663 28.8494C234.668 25.4574 235.471 22.9945 237.073 21.4608C238.676 19.9271 241.285 19.1628 244.901 19.168ZM268.442 27.2176C271.194 27.2215 273.193 27.8484 274.439 29.0982C275.718 30.316 276.355 32.2689 276.351 34.9569L276.328 51.2289L272.44 51.2233L272.445 47.4793C270.585 50.3567 268.487 51.7937 266.151 51.7904C264.295 51.7877 262.808 51.1456 261.69 49.864C260.604 48.5824 260.062 46.8377 260.065 44.6297L260.067 43.2857C260.07 41.3657 260.728 39.7826 262.042 38.5365C263.356 37.2583 265.117 36.6209 267.325 36.624C268.541 36.6257 270.188 36.8361 272.268 37.2551L272.272 34.6151C272.274 33.2391 271.955 32.2466 271.316 31.6377C270.709 31.0288 269.749 30.7235 268.437 30.7216C266.901 30.7194 264.741 30.9563 261.956 31.4323L261.961 27.9283C264.97 27.4526 267.13 27.2157 268.442 27.2176ZM268.328 39.7934C266.984 39.7915 265.96 40.1421 265.255 40.8451C264.55 41.5481 264.196 42.5396 264.194 43.8196L264.194 44.3476C264.192 45.5315 264.463 46.4599 265.006 47.1327C265.549 47.8055 266.236 48.1425 267.068 48.1437C267.932 48.1449 268.813 47.7781 269.71 47.0434C270.639 46.2768 271.488 45.206 272.258 43.8311L272.264 40.1351C271.048 39.9093 269.736 39.7955 268.328 39.7934ZM305.365 27.2703C307.413 27.2732 308.98 27.9795 310.066 29.389C311.152 30.7666 311.693 32.7353 311.689 35.2953L311.666 51.2793L307.586 51.2735L307.608 35.8655C307.613 32.6655 306.591 31.064 304.543 31.0611C303.647 31.0598 302.719 31.4105 301.758 32.1132C300.829 32.8158 300.011 33.7747 299.306 34.9897L299.282 51.2616L295.202 51.2558L295.224 35.8478C295.229 32.6478 294.207 31.0464 292.159 31.0435C291.263 31.0422 290.335 31.3928 289.374 32.0955C288.445 32.7982 287.627 33.757 286.922 34.972L286.898 51.244L282.818 51.2381L282.852 27.8142L286.692 27.8196L286.687 31.3236C287.521 30.0128 288.482 29.0062 289.571 28.3038C290.66 27.6013 291.797 27.2509 292.981 27.2526C294.453 27.2547 295.684 27.6405 296.675 28.4099C297.666 29.1473 298.384 30.2363 298.83 31.677C299.696 30.2382 300.69 29.1516 301.811 28.4172C302.932 27.6508 304.117 27.2685 305.365 27.2703ZM322.51 27.8708L322.476 51.2947L318.396 51.2889L318.43 27.8649L322.51 27.8708ZM320.459 18.4118C321.323 18.4131 321.979 18.606 322.427 18.9906C322.906 19.3753 323.145 19.9197 323.144 20.6237L323.142 22.0157C323.141 22.7197 322.9 23.2633 322.42 23.6466C321.971 23.998 321.315 24.1731 320.451 24.1718C319.619 24.1706 318.963 23.9937 318.484 23.641C318.036 23.2564 317.813 22.7121 317.814 22.0081L317.816 20.6161C317.817 19.9121 318.042 19.3684 318.491 18.985C318.971 18.6017 319.627 18.4106 320.459 18.4118ZM339.436 27.3189C341.484 27.3218 343.051 28.0281 344.137 29.4376C345.255 30.8152 345.812 32.784 345.808 35.344L345.786 51.328L341.706 51.3222L341.728 35.9142C341.732 32.7142 340.695 31.1127 338.615 31.1098C337.687 31.1084 336.742 31.4591 335.781 32.1617C334.82 32.8643 333.987 33.8232 333.281 35.0381L333.258 51.3101L329.178 51.3043L329.211 27.8803L333.051 27.8858L333.046 31.3898C333.912 30.079 334.873 29.0724 335.93 28.3699C337.019 27.6675 338.188 27.3171 339.436 27.3189ZM360.236 27.3486C361.644 27.3506 362.923 27.5604 364.075 27.9781L371.563 27.8928L371.558 31.4928L367.622 31.3912C368.164 32.5439 368.435 33.7443 368.433 34.9923L368.431 36.0483C368.428 38.3843 367.705 40.2713 366.263 41.7092C364.821 43.1152 362.804 43.8163 360.212 43.8126C358.548 43.8102 357.188 43.6483 356.133 43.3268C355.428 43.9018 355.075 44.5573 355.074 45.2933L355.074 45.5813C355.073 46.0933 355.232 46.4775 355.552 46.7339C355.872 46.9584 356.495 47.1033 357.423 47.1686L364.575 47.7068C366.046 47.8369 367.23 48.3986 368.124 49.3919C369.051 50.3532 369.513 51.5699 369.511 53.0419L369.508 54.8179C369.507 56.1939 369.233 57.3135 368.688 58.1767C368.142 59.0399 367.134 59.6945 365.661 60.1404C364.22 60.5863 362.14 60.8074 359.42 60.8035C358.396 60.802 357.18 60.6883 355.772 60.4623C354.397 60.2363 353.085 59.9464 351.838 59.5927L351.987 55.8009C354.962 56.7971 357.489 57.2967 359.569 57.2997C361.297 57.3022 362.577 57.192 363.409 56.9692C364.274 56.7784 364.834 56.4752 365.091 56.0596C365.379 55.644 365.524 55.0202 365.525 54.1882L365.526 53.8042C365.527 53.0682 365.32 52.4919 364.904 52.0753C364.521 51.6588 363.961 51.434 363.225 51.4009L356.026 50.9106C354.49 50.8124 353.323 50.3788 352.524 49.6096C351.725 48.8405 351.326 47.7999 351.328 46.4879L351.33 45.5279C351.331 44.8239 351.508 44.1362 351.861 43.4647C352.246 42.7932 352.79 42.202 353.495 41.691C352.952 41.0822 352.553 40.3137 352.298 39.3853C352.076 38.425 351.966 37.2568 351.967 35.8808L351.969 34.8248C351.972 32.5528 352.679 30.7458 354.089 29.4038C355.499 28.0299 357.548 27.3448 360.236 27.3486ZM360.231 30.7566C358.887 30.7547 357.846 31.1052 357.109 31.8082C356.404 32.4791 356.051 33.4546 356.049 34.7346L356.047 36.3186C356.045 37.5026 356.14 38.3828 356.331 38.9591C356.554 39.5034 356.938 39.8879 357.481 40.1127C358.025 40.3055 358.841 40.4026 359.929 40.4042C361.401 40.4063 362.506 40.0559 363.243 39.3529C363.98 38.65 364.349 37.6425 364.351 36.3305L364.353 34.8905C364.355 33.5465 364.164 32.3782 363.782 31.3857C363.398 31.2251 362.87 31.0804 362.199 30.9514C361.559 30.8225 360.903 30.7576 360.231 30.7566ZM220.148 70.1327C221.396 70.1345 222.74 70.2644 224.18 70.5225C225.651 70.7486 226.515 70.8778 226.771 70.9102L226.67 74.51C223.855 73.994 221.679 73.7349 220.143 73.7327C217.967 73.7296 216.398 74.1754 215.437 75.07C214.476 75.9646 213.994 77.4519 213.991 79.5319L213.971 93.2599C213.968 95.3399 214.43 96.8286 215.357 97.7259C216.316 98.5913 217.899 99.0255 220.107 99.0287C221.643 99.0309 223.819 98.778 226.636 98.27L226.727 101.966C226.471 101.998 225.606 102.125 224.134 102.346C222.694 102.6 221.35 102.726 220.102 102.725C216.422 102.719 213.799 101.932 212.233 100.361C210.667 98.7912 209.887 96.3421 209.891 93.0141L209.91 79.8141C209.915 76.4861 210.703 74.0392 212.273 72.4735C213.843 70.9077 216.468 70.1275 220.148 70.1327ZM240.24 78.1774C243.088 78.1815 245.199 78.9525 246.573 80.4904C247.979 81.9964 248.68 84.1414 248.676 86.9254L248.665 94.0294C248.661 96.8134 247.954 98.9724 246.544 100.506C245.166 102.008 243.053 102.757 240.205 102.753C237.357 102.749 235.23 101.994 233.824 100.488C232.45 98.9503 231.765 96.7893 231.769 94.0053L231.78 86.9013C231.784 84.1173 232.475 81.9743 233.853 80.4723C235.263 78.9383 237.392 78.1733 240.24 78.1774ZM240.235 81.5854C238.859 81.5834 237.787 82.0139 237.017 82.8768C236.248 83.7397 235.862 84.9712 235.86 86.5712L235.849 94.3471C235.847 95.9471 236.229 97.1797 236.996 98.0448C237.762 98.9099 238.834 99.3434 240.21 99.3454C241.586 99.3473 242.658 98.9169 243.428 98.054C244.197 97.1911 244.583 95.9596 244.585 94.3596L244.596 86.5356C244.598 84.9356 244.216 83.7191 243.449 82.886C242.683 82.0209 241.611 81.5874 240.235 81.5854ZM277.425 78.2305C279.473 78.2334 281.04 78.9396 282.126 80.3492C283.212 81.7267 283.753 83.6955 283.749 86.2555L283.726 102.239L279.646 102.234L279.668 86.8257C279.673 83.6257 278.651 82.0242 276.603 82.0213C275.707 82.02 274.779 82.3707 273.818 83.0733C272.889 83.776 272.071 84.7348 271.366 85.9498L271.342 102.222L267.262 102.216L267.284 86.808C267.289 83.608 266.267 82.0065 264.219 82.0036C263.323 82.0023 262.395 82.353 261.434 83.0556C260.505 83.7583 259.687 84.7172 258.982 85.9322L258.958 102.204L254.878 102.198L254.912 78.7743L258.752 78.7798L258.747 82.2838C259.581 80.973 260.542 79.9664 261.631 79.2639C262.72 78.5615 263.857 78.2111 265.041 78.2128C266.513 78.2149 267.744 78.6007 268.735 79.3701C269.726 80.1075 270.444 81.1965 270.89 82.6371C271.756 81.1984 272.75 80.1118 273.871 79.3774C274.992 78.611 276.177 78.2287 277.425 78.2305ZM300.667 78.2636C302.683 78.2665 304.25 78.9568 305.368 80.3344C306.486 81.712 307.043 83.6967 307.039 86.2887L307.027 94.8327C307.024 97.3287 306.365 99.2958 305.051 100.734C303.769 102.14 302.024 102.842 299.816 102.838C298.984 102.837 298.088 102.66 297.128 102.307C296.201 101.985 295.337 101.6 294.538 101.151L294.524 111.135L290.444 111.129L290.49 78.8251L294.33 78.8306L294.325 82.2386C296.089 79.5851 298.203 78.2601 300.667 78.2636ZM299.846 81.9105C298.918 81.9091 297.973 82.2598 297.012 82.9624C296.083 83.6331 295.266 84.5599 294.56 85.7429L294.543 97.5029C295.215 98.0479 295.95 98.4809 296.749 98.8021C297.581 99.0913 298.333 99.2363 299.005 99.2373C301.629 99.241 302.943 97.5789 302.948 94.2509L302.958 86.8589C302.963 83.5629 301.926 81.9134 299.846 81.9105ZM320.283 78.2916C323.035 78.2956 325.034 78.9224 326.281 80.1722C327.559 81.39 328.196 83.3429 328.192 86.0309L328.169 102.303L324.281 102.297L324.286 98.5534C322.426 101.431 320.328 102.868 317.992 102.864C316.136 102.862 314.649 102.22 313.531 100.938C312.445 99.6565 311.903 97.9117 311.906 95.7037L311.908 94.3597C311.911 92.4397 312.569 90.8566 313.883 89.6105C315.197 88.3324 316.958 87.6949 319.166 87.6981C320.382 87.6998 322.03 87.9101 324.109 88.3291L324.113 85.6891C324.115 84.3131 323.796 83.3207 323.157 82.7117C322.55 82.1029 321.59 81.7975 320.278 81.7956C318.742 81.7934 316.582 82.0304 313.797 82.5064L313.802 79.0024C316.811 78.5267 318.971 78.2898 320.283 78.2916ZM320.169 90.8675C318.825 90.8656 317.801 91.2161 317.096 91.9191C316.391 92.6221 316.037 93.6136 316.036 94.8936L316.035 95.4216C316.033 96.6056 316.304 97.534 316.847 98.2068C317.39 98.8795 318.077 99.2165 318.909 99.2177C319.773 99.2189 320.654 98.8522 321.551 98.1175C322.48 97.3508 323.33 96.28 324.1 94.9051L324.105 91.2091C322.889 90.9834 321.577 90.8695 320.169 90.8675ZM344.918 78.3268C346.966 78.3297 348.533 79.036 349.619 80.4455C350.737 81.8231 351.294 83.7919 351.29 86.3519L351.268 102.336L347.188 102.33L347.21 86.9221C347.214 83.7221 346.176 82.1206 344.096 82.1176C343.168 82.1163 342.224 82.467 341.263 83.1696C340.302 83.8722 339.469 84.831 338.763 86.046L338.74 102.318L334.66 102.312L334.693 78.8882L338.533 78.8937L338.528 82.3977C339.394 81.0869 340.355 80.0803 341.412 79.3778C342.501 78.6754 343.67 78.325 344.918 78.3268ZM362.117 78.9273L362.083 102.351L358.003 102.346L358.037 78.9215L362.117 78.9273ZM360.066 69.4684C360.93 69.4696 361.586 69.6626 362.033 70.0472C362.513 70.4319 362.752 70.9762 362.751 71.6802L362.749 73.0722C362.748 73.7762 362.507 74.3199 362.027 74.7032C361.578 75.0546 360.922 75.2296 360.058 75.2284C359.226 75.2272 358.57 75.0503 358.091 74.6976C357.643 74.313 357.42 73.7686 357.421 73.0646L357.423 71.6726C357.424 70.9686 357.649 70.425 358.097 70.0416C358.578 69.6583 359.234 69.4672 360.066 69.4684ZM376.499 78.3719C379.187 78.3757 381.234 79.1146 382.64 80.5886C384.046 82.0627 384.746 84.1917 384.743 86.9757L384.735 91.9196L372.399 91.902L372.395 94.734C372.393 96.366 372.775 97.5506 373.542 98.2877C374.341 98.9928 375.589 99.3466 377.285 99.349C378.949 99.3514 381.029 99.0984 383.526 98.5899L383.617 102.142C380.64 102.682 378.512 102.951 377.232 102.949C374.064 102.944 371.777 102.253 370.371 100.875C368.997 99.4972 368.312 97.3682 368.316 94.4882L368.327 86.9522C368.331 84.1682 369.006 82.0412 370.352 80.5711C371.73 79.1011 373.779 78.368 376.499 78.3719ZM376.494 81.7799C375.246 81.7781 374.253 82.1767 373.516 82.9756C372.779 83.7426 372.41 84.862 372.407 86.334L372.404 88.638L380.66 88.6498L380.663 86.4898C380.665 84.9538 380.283 83.7853 379.516 82.9842C378.781 82.1831 377.774 81.7817 376.494 81.7799ZM397.008 78.4011C398.352 78.4031 399.967 78.5974 401.855 78.9841L401.754 82.4399C400.09 82.0536 398.571 81.8594 397.195 81.8574C394.315 81.8533 392.873 82.7793 392.871 84.6353L392.87 85.0672C392.869 85.6432 393.013 86.1075 393.3 86.4599C393.62 86.8123 394.179 87.1811 394.978 87.5663L399.487 89.6847C402.206 90.9686 403.563 92.8425 403.559 95.3065L403.558 96.3625C403.523 98.5705 402.848 100.234 401.535 101.352C400.253 102.438 398.22 102.979 395.436 102.975C393.996 102.973 391.933 102.634 389.246 101.958L389.443 98.3104C391.842 99.0178 393.81 99.3726 395.346 99.3748C396.914 99.377 398.002 99.1706 398.61 98.7555C399.219 98.3083 399.524 97.5888 399.526 96.5968L399.526 96.1168C399.527 95.3488 399.368 94.7405 399.049 94.2921C398.761 93.8437 398.266 93.459 397.562 93.138L392.909 91.0673C391.502 90.4253 390.463 89.6558 389.793 88.7589C389.154 87.8619 388.835 86.8215 388.837 85.6375L388.838 84.9655C388.905 82.7896 389.58 81.1585 390.861 80.0724C392.175 78.9543 394.224 78.3972 397.008 78.4011Z" fill="black"/>
</svg>
