<svg width="286" height="84" viewBox="0 0 286 84" fill="none" xmlns="http://www.w3.org/2000/svg">
<rect x="0.5" y="0.5" width="285" height="83" fill="white" stroke="black"/>
<path d="M19.8 49.24C18.2 49.24 16.928 48.936 15.984 48.328C15.056 47.72 14.384 46.8 13.968 45.568C13.568 44.32 13.368 42.696 13.368 40.696C13.368 38.712 13.568 37.096 13.968 35.848C14.384 34.6 15.056 33.672 15.984 33.064C16.912 32.456 18.168 32.152 19.752 32.152C21.192 32.152 22.736 32.312 24.384 32.632L25.2 32.776L25.128 34.312C23.144 33.976 21.424 33.808 19.968 33.808C18.752 33.808 17.8 34.04 17.112 34.504C16.44 34.952 15.968 35.672 15.696 36.664C15.424 37.64 15.288 38.984 15.288 40.696C15.288 42.408 15.424 43.76 15.696 44.752C15.968 45.728 16.44 46.448 17.112 46.912C17.784 47.376 18.728 47.608 19.944 47.608C21.016 47.608 22.16 47.496 23.376 47.272V42.16H20.616V40.504H25.2V48.664C23.184 49.048 21.384 49.24 19.8 49.24ZM31.1331 49.24C30.0291 49.24 29.1891 48.928 28.6131 48.304C28.0371 47.68 27.7491 46.784 27.7491 45.616C27.7491 44.464 28.0371 43.608 28.6131 43.048C29.2051 42.488 30.1411 42.144 31.4211 42.016L35.1891 41.656V40.624C35.1891 39.104 34.5331 38.344 33.2211 38.344C31.9251 38.344 30.3491 38.448 28.4931 38.656L28.4211 37.288C30.1331 36.936 31.6931 36.76 33.1011 36.76C34.4611 36.76 35.4451 37.072 36.0531 37.696C36.6771 38.304 36.9891 39.28 36.9891 40.624V46.768C37.0371 47.36 37.5011 47.712 38.3811 47.824L38.3091 49.24C37.0451 49.24 36.0931 48.92 35.4531 48.28C34.0291 48.92 32.5891 49.24 31.1331 49.24ZM31.4211 47.728C32.4931 47.728 33.5651 47.544 34.6371 47.176L35.1891 46.984V43.024L31.6371 43.36C30.9171 43.424 30.3971 43.632 30.0771 43.984C29.7571 44.336 29.5971 44.848 29.5971 45.52C29.5971 46.992 30.2051 47.728 31.4211 47.728ZM40.5405 37H42.3165V37.84C43.5165 37.12 44.7165 36.76 45.9165 36.76C46.5725 36.76 47.1645 36.864 47.6925 37.072C48.2205 37.264 48.6365 37.568 48.9405 37.984C49.5325 37.632 50.2285 37.344 51.0285 37.12C51.8285 36.88 52.6445 36.76 53.4765 36.76C54.4525 36.76 55.2125 36.96 55.7565 37.36C56.3005 37.744 56.6845 38.36 56.9085 39.208C57.1485 40.056 57.2685 41.208 57.2685 42.664V49H55.4685V42.712C55.4685 41.576 55.4045 40.704 55.2765 40.096C55.1485 39.488 54.9085 39.048 54.5565 38.776C54.2205 38.504 53.7165 38.368 53.0445 38.368C52.5005 38.368 51.9485 38.44 51.3885 38.584C50.8285 38.712 50.3725 38.864 50.0205 39.04L49.5645 39.256C49.7725 39.768 49.8765 40.936 49.8765 42.76V49H48.0765V42.808C48.0765 41.624 48.0125 40.728 47.8845 40.12C47.7565 39.496 47.5245 39.048 47.1885 38.776C46.8525 38.504 46.3485 38.368 45.6765 38.368C45.1485 38.368 44.6125 38.44 44.0685 38.584C43.5245 38.712 43.0845 38.864 42.7485 39.04L42.3405 39.256V49H40.5405V37ZM60.603 37H62.379V49H60.603V37ZM60.603 32.2H62.379V34.288H60.603V32.2ZM65.8296 37H67.6056V37.84C68.3256 37.44 68.9816 37.16 69.5736 37C70.1816 36.84 70.8136 36.76 71.4696 36.76C72.4936 36.76 73.2856 36.952 73.8456 37.336C74.4056 37.72 74.7976 38.336 75.0216 39.184C75.2616 40.016 75.3816 41.176 75.3816 42.664V49H73.6056V42.712C73.6056 41.576 73.5336 40.704 73.3896 40.096C73.2616 39.488 73.0216 39.048 72.6696 38.776C72.3176 38.504 71.8056 38.368 71.1336 38.368C70.5896 38.368 70.0296 38.44 69.4536 38.584C68.8936 38.712 68.4376 38.864 68.0856 39.04L67.6296 39.256V49H65.8296V37ZM83.1122 54.64C81.3202 54.64 80.0482 54.368 79.2962 53.824C78.5602 53.296 78.1922 52.408 78.1922 51.16C78.1922 50.648 78.2482 50.224 78.3602 49.888C78.4882 49.568 78.6802 49.28 78.9362 49.024C79.1922 48.768 79.5762 48.44 80.0882 48.04C79.8642 47.896 79.6962 47.68 79.5842 47.392C79.4722 47.104 79.4162 46.8 79.4162 46.48C79.4162 46.272 79.4642 46.048 79.5602 45.808C79.6562 45.552 79.8802 45.112 80.2322 44.488C78.9682 43.928 78.3362 42.728 78.3362 40.888C78.3362 39.496 78.7122 38.464 79.4642 37.792C80.2162 37.104 81.3522 36.76 82.8722 36.76C83.6082 36.76 84.4242 36.864 85.3202 37.072L88.8722 36.976V38.512L86.5922 38.464C86.8642 38.736 87.0642 39.072 87.1922 39.472C87.3202 39.856 87.3842 40.352 87.3842 40.96C87.3842 42.384 87.0162 43.4 86.2802 44.008C85.5442 44.616 84.3842 44.92 82.8002 44.92C82.3042 44.92 81.8962 44.888 81.5762 44.824C81.4482 45.144 81.3442 45.424 81.2642 45.664C81.1842 45.904 81.1442 46.112 81.1442 46.288C81.1442 46.704 81.3042 46.976 81.6242 47.104C81.9602 47.232 82.4722 47.296 83.1602 47.296H84.0962C85.1522 47.296 86.0002 47.376 86.6402 47.536C87.2962 47.696 87.8002 48.024 88.1522 48.52C88.5042 49 88.6802 49.704 88.6802 50.632C88.6802 52.024 88.2482 53.04 87.3842 53.68C86.5202 54.32 85.0962 54.64 83.1122 54.64ZM82.8722 43.48C83.8482 43.48 84.5442 43.28 84.9602 42.88C85.3762 42.48 85.5842 41.8 85.5842 40.84C85.5842 39.896 85.3762 39.224 84.9602 38.824C84.5442 38.424 83.8562 38.224 82.8962 38.224C81.9042 38.224 81.1922 38.432 80.7602 38.848C80.3442 39.248 80.1362 39.92 80.1362 40.864C80.1362 41.808 80.3442 42.48 80.7602 42.88C81.1922 43.28 81.8962 43.48 82.8722 43.48ZM83.2802 53.128C84.6082 53.128 85.5362 52.944 86.0642 52.576C86.5922 52.224 86.8562 51.608 86.8562 50.728C86.8562 50.216 86.7682 49.824 86.5922 49.552C86.4162 49.296 86.1202 49.12 85.7042 49.024C85.2882 48.928 84.6882 48.88 83.9042 48.88L81.3122 48.76C80.7842 49.144 80.4242 49.48 80.2322 49.768C80.0562 50.056 79.9682 50.44 79.9682 50.92C79.9682 51.752 80.2082 52.328 80.6882 52.648C81.1842 52.968 82.0482 53.128 83.2802 53.128Z" fill="black"/>
<path d="M267 25.25H201V61.75H267V25.25ZM231 46.5417H222V55.6667H216V46.5417H207V40.4583H216V31.3333H222V40.4583H231V46.5417ZM244.5 52.625C242.01 52.625 240 50.5871 240 48.0625C240 45.5379 242.01 43.5 244.5 43.5C246.99 43.5 249 45.5379 249 48.0625C249 50.5871 246.99 52.625 244.5 52.625ZM256.5 43.5C254.01 43.5 252 41.4621 252 38.9375C252 36.4129 254.01 34.375 256.5 34.375C258.99 34.375 261 36.4129 261 38.9375C261 41.4621 258.99 43.5 256.5 43.5Z" fill="black"/>
</svg>
