<svg width="508" height="122" viewBox="0 0 508 122" fill="none" xmlns="http://www.w3.org/2000/svg">
<rect x="0.5" y="0.5" width="507" height="121" fill="white" stroke="black"/>
<path d="M99.6666 27.6667H16.3333V94.3333H99.6666V27.6667ZM91.3333 86H24.6666V61H91.3333V86ZM91.3333 44.3333H24.6666V36H91.3333V44.3333Z" fill="black"/>
<path d="M227.049 19.1425C230.825 19.1479 233.624 19.9199 235.445 21.4585C237.299 22.9651 238.224 25.1265 238.22 27.9425L238.219 29.0945C238.214 32.1025 237.315 34.4212 235.521 36.0506C233.726 37.6801 231.021 38.4922 227.405 38.487C225.965 38.485 224.429 38.3548 222.798 38.0965L222.779 51.1524L218.699 51.1466L218.744 19.3707C221.465 19.2145 224.233 19.1385 227.049 19.1425ZM226.948 22.5984C225.54 22.5964 224.164 22.6264 222.82 22.6885L222.803 34.5925C224.722 34.8512 226.194 34.9813 227.218 34.9828C231.826 34.9893 234.133 32.9606 234.139 28.8966L234.14 28.0806C234.143 26.2566 233.569 24.8958 232.418 23.9982C231.267 23.0685 229.444 22.6019 226.948 22.5984ZM249.927 27.1912C252.679 27.1951 254.678 27.822 255.924 29.0717C257.202 30.2896 257.839 32.2425 257.835 34.9305L257.812 51.2024L253.924 51.1969L253.93 47.4529C252.07 50.3303 249.971 51.7673 247.635 51.7639C245.779 51.7613 244.292 51.1192 243.174 49.8376C242.088 48.556 241.547 46.8112 241.55 44.6032L241.552 43.2592C241.554 41.3392 242.213 39.7562 243.526 38.51C244.84 37.2319 246.601 36.5944 248.809 36.5976C250.025 36.5993 251.673 36.8097 253.752 37.2286L253.756 34.5886C253.758 33.2126 253.439 32.2202 252.8 31.6113C252.193 31.0024 251.234 30.697 249.922 30.6952C248.386 30.693 246.225 30.9299 243.441 31.4059L243.446 27.9019C246.454 27.4262 248.615 27.1893 249.927 27.1912ZM249.813 39.767C248.469 39.7651 247.444 40.1156 246.739 40.8186C246.034 41.5216 245.681 42.5131 245.679 43.7931L245.678 44.3211C245.676 45.5051 245.947 46.4335 246.49 47.1063C247.033 47.7791 247.721 48.116 248.553 48.1172C249.417 48.1185 250.297 47.7517 251.194 47.017C252.123 46.2503 252.973 45.1795 253.743 43.8046L253.748 40.1086C252.532 39.8829 251.221 39.769 249.813 39.767ZM281.424 27.8121L270.626 60.1007L266.546 60.0949L269.631 51.2193L268.095 51.2171L261.456 27.7836L265.92 27.79L270.931 48.2932L277.2 27.8061L281.424 27.8121ZM307.755 27.2737C309.803 27.2766 311.37 27.9829 312.456 29.3924C313.542 30.77 314.083 32.7387 314.08 35.2987L314.057 51.2827L309.977 51.2769L309.999 35.8689C310.004 32.6689 308.982 31.0675 306.934 31.0645C306.038 31.0633 305.109 31.4139 304.148 32.1166C303.219 32.8192 302.402 33.7781 301.696 34.9931L301.673 51.2651L297.593 51.2592L297.615 35.8512C297.62 32.6512 296.598 31.0498 294.55 31.0469C293.654 31.0456 292.725 31.3963 291.764 32.0989C290.835 32.8016 290.018 33.7604 289.312 34.9754L289.289 51.2474L285.209 51.2416L285.242 27.8176L289.082 27.8231L289.077 31.3271C289.911 30.0162 290.873 29.0096 291.962 28.3072C293.051 27.6047 294.187 27.2543 295.371 27.256C296.843 27.2581 298.075 27.6439 299.066 28.4133C300.057 29.1507 300.775 30.2397 301.221 31.6804C302.087 30.2416 303.081 29.155 304.202 28.4206C305.323 27.6542 306.507 27.2719 307.755 27.2737ZM328.501 27.3033C331.189 27.3072 333.236 28.0461 334.642 29.5201C336.048 30.9941 336.749 33.1231 336.745 35.9071L336.738 40.8511L324.402 40.8335L324.398 43.6655C324.396 45.2975 324.778 46.482 325.545 47.2191C326.344 47.9243 327.591 48.278 329.287 48.2805C330.951 48.2828 333.032 48.0298 335.528 47.5214L335.619 51.0735C332.643 51.6133 330.514 51.8822 329.234 51.8804C326.066 51.8759 323.779 51.1846 322.373 49.8066C320.999 48.4286 320.314 46.2997 320.318 43.4197L320.329 35.8837C320.333 33.0997 321.008 30.9726 322.354 29.5025C323.732 28.0325 325.781 27.2994 328.501 27.3033ZM328.496 30.7113C327.248 30.7095 326.256 31.1081 325.519 31.9071C324.782 32.674 324.412 33.7935 324.41 35.2655L324.407 37.5695L332.663 37.5813L332.666 35.4213C332.668 33.8853 332.286 32.7167 331.519 31.9156C330.784 31.1146 329.776 30.7131 328.496 30.7113ZM352.514 27.3376C354.562 27.3405 356.129 28.0468 357.215 29.4563C358.333 30.8339 358.89 32.8027 358.887 35.3627L358.864 51.3467L354.784 51.3409L354.806 35.9329C354.81 32.7329 353.773 31.1314 351.693 31.1284C350.765 31.1271 349.82 31.4778 348.859 32.1804C347.898 32.883 347.065 33.8418 346.359 35.0568L346.336 51.3288L342.256 51.323L342.289 27.899L346.129 27.9045L346.124 31.4085C346.99 30.0977 347.952 29.0911 349.009 28.3886C350.098 27.6861 351.266 27.3358 352.514 27.3376ZM370.433 27.9392L376.673 27.9481L376.668 31.3081L370.428 31.2992L370.409 45.0272C370.407 46.2431 370.646 47.1235 371.125 47.6682C371.636 48.1809 372.42 48.438 373.476 48.4395C374.82 48.4415 376.132 48.2833 377.412 47.9652L377.504 51.3733C376.095 51.7553 374.815 51.9454 373.663 51.9438C371.103 51.9401 369.232 51.3775 368.049 50.2558C366.899 49.1021 366.325 47.2453 366.329 44.6853L366.348 31.2933L362.988 31.2885L362.993 27.9285L366.353 27.9333L367.13 21.6944L370.442 21.6992L370.433 27.9392ZM388.573 27.3891C389.917 27.391 391.532 27.5853 393.42 27.972L393.319 31.4278C391.655 31.0415 390.136 30.8473 388.76 30.8453C385.88 30.8412 384.438 31.7672 384.436 33.6232L384.435 34.0552C384.434 34.6312 384.578 35.0954 384.865 35.4478C385.185 35.8002 385.744 36.169 386.543 36.5542L391.052 38.6726C393.771 39.9565 395.128 41.8304 395.124 44.2944L395.123 45.3504C395.088 47.5584 394.413 49.2214 393.1 50.3395C391.818 51.4257 389.785 51.9668 387.001 51.9628C385.561 51.9608 383.498 51.6218 380.811 50.946L381.008 47.2983C383.407 48.0057 385.375 48.3605 386.911 48.3627C388.479 48.3649 389.567 48.1585 390.175 47.7434C390.784 47.2962 391.089 46.5767 391.091 45.5847L391.091 45.1047C391.092 44.3367 390.933 43.7284 390.614 43.28C390.326 42.8316 389.831 42.4469 389.127 42.1259L384.474 40.0552C383.067 39.4132 382.028 38.6437 381.358 37.7468C380.719 36.8499 380.4 35.8094 380.402 34.6254L380.403 33.9534C380.47 31.7775 381.145 30.1465 382.426 29.0603C383.74 27.9422 385.789 27.3851 388.573 27.3891ZM220.148 70.1327C221.396 70.1345 222.74 70.2644 224.18 70.5225C225.651 70.7486 226.515 70.8778 226.771 70.9102L226.67 74.51C223.855 73.994 221.679 73.7349 220.143 73.7327C217.967 73.7296 216.398 74.1754 215.437 75.07C214.476 75.9646 213.994 77.4519 213.991 79.5319L213.971 93.2599C213.968 95.3399 214.43 96.8286 215.357 97.7259C216.316 98.5913 217.899 99.0255 220.107 99.0287C221.643 99.0309 223.819 98.778 226.636 98.27L226.727 101.966C226.471 101.998 225.606 102.125 224.134 102.346C222.694 102.6 221.35 102.726 220.102 102.725C216.422 102.719 213.799 101.932 212.233 100.361C210.667 98.7912 209.887 96.3421 209.891 93.0141L209.91 79.8141C209.915 76.4861 210.703 74.0392 212.273 72.4735C213.843 70.9077 216.468 70.1275 220.148 70.1327ZM240.24 78.1774C243.088 78.1815 245.199 78.9525 246.573 80.4904C247.979 81.9964 248.68 84.1414 248.676 86.9254L248.665 94.0294C248.661 96.8134 247.954 98.9724 246.544 100.506C245.166 102.008 243.053 102.757 240.205 102.753C237.357 102.749 235.23 101.994 233.824 100.488C232.45 98.9503 231.765 96.7893 231.769 94.0053L231.78 86.9013C231.784 84.1173 232.475 81.9743 233.853 80.4723C235.263 78.9383 237.392 78.1733 240.24 78.1774ZM240.235 81.5854C238.859 81.5834 237.787 82.0139 237.017 82.8768C236.248 83.7397 235.862 84.9712 235.86 86.5712L235.849 94.3471C235.847 95.9471 236.229 97.1797 236.996 98.0448C237.762 98.9099 238.834 99.3434 240.21 99.3454C241.586 99.3473 242.658 98.9169 243.428 98.054C244.197 97.1911 244.583 95.9596 244.585 94.3596L244.596 86.5356C244.598 84.9356 244.216 83.7191 243.449 82.886C242.683 82.0209 241.611 81.5874 240.235 81.5854ZM277.425 78.2305C279.473 78.2334 281.04 78.9396 282.126 80.3492C283.212 81.7267 283.753 83.6955 283.749 86.2555L283.726 102.239L279.646 102.234L279.668 86.8257C279.673 83.6257 278.651 82.0242 276.603 82.0213C275.707 82.02 274.779 82.3707 273.818 83.0733C272.889 83.776 272.071 84.7348 271.366 85.9498L271.342 102.222L267.262 102.216L267.284 86.808C267.289 83.608 266.267 82.0065 264.219 82.0036C263.323 82.0023 262.395 82.353 261.434 83.0556C260.505 83.7583 259.687 84.7172 258.982 85.9322L258.958 102.204L254.878 102.198L254.912 78.7743L258.752 78.7798L258.747 82.2838C259.581 80.973 260.542 79.9664 261.631 79.2639C262.72 78.5615 263.857 78.2111 265.041 78.2128C266.513 78.2149 267.744 78.6007 268.735 79.3701C269.726 80.1075 270.444 81.1965 270.89 82.6371C271.756 81.1984 272.75 80.1118 273.871 79.3774C274.992 78.611 276.177 78.2287 277.425 78.2305ZM300.667 78.2636C302.683 78.2665 304.25 78.9568 305.368 80.3344C306.486 81.712 307.043 83.6967 307.039 86.2887L307.027 94.8327C307.024 97.3287 306.365 99.2958 305.051 100.734C303.769 102.14 302.024 102.842 299.816 102.838C298.984 102.837 298.088 102.66 297.128 102.307C296.201 101.985 295.337 101.6 294.538 101.151L294.524 111.135L290.444 111.129L290.49 78.8251L294.33 78.8306L294.325 82.2386C296.089 79.5851 298.203 78.2601 300.667 78.2636ZM299.846 81.9105C298.918 81.9091 297.973 82.2598 297.012 82.9624C296.083 83.6331 295.266 84.5599 294.56 85.7429L294.543 97.5029C295.215 98.0479 295.95 98.4809 296.749 98.8021C297.581 99.0913 298.333 99.2363 299.005 99.2373C301.629 99.241 302.943 97.5789 302.948 94.2509L302.958 86.8589C302.963 83.5629 301.926 81.9134 299.846 81.9105ZM320.283 78.2916C323.035 78.2956 325.034 78.9224 326.281 80.1722C327.559 81.39 328.196 83.3429 328.192 86.0309L328.169 102.303L324.281 102.297L324.286 98.5534C322.426 101.431 320.328 102.868 317.992 102.864C316.136 102.862 314.649 102.22 313.531 100.938C312.445 99.6565 311.903 97.9117 311.906 95.7037L311.908 94.3597C311.911 92.4397 312.569 90.8566 313.883 89.6105C315.197 88.3324 316.958 87.6949 319.166 87.6981C320.382 87.6998 322.03 87.9101 324.109 88.3291L324.113 85.6891C324.115 84.3131 323.796 83.3207 323.157 82.7117C322.55 82.1029 321.59 81.7975 320.278 81.7956C318.742 81.7934 316.582 82.0304 313.797 82.5064L313.802 79.0024C316.811 78.5267 318.971 78.2898 320.283 78.2916ZM320.169 90.8675C318.825 90.8656 317.801 91.2161 317.096 91.9191C316.391 92.6221 316.037 93.6136 316.036 94.8936L316.035 95.4216C316.033 96.6056 316.304 97.534 316.847 98.2068C317.39 98.8795 318.077 99.2165 318.909 99.2177C319.773 99.2189 320.654 98.8522 321.551 98.1175C322.48 97.3508 323.33 96.28 324.1 94.9051L324.105 91.2091C322.889 90.9834 321.577 90.8695 320.169 90.8675ZM344.918 78.3268C346.966 78.3297 348.533 79.036 349.619 80.4455C350.737 81.8231 351.294 83.7919 351.29 86.3519L351.268 102.336L347.188 102.33L347.21 86.9221C347.214 83.7221 346.176 82.1206 344.096 82.1176C343.168 82.1163 342.224 82.467 341.263 83.1696C340.302 83.8722 339.469 84.831 338.763 86.046L338.74 102.318L334.66 102.312L334.693 78.8882L338.533 78.8937L338.528 82.3977C339.394 81.0869 340.355 80.0803 341.412 79.3778C342.501 78.6754 343.67 78.325 344.918 78.3268ZM362.117 78.9273L362.083 102.351L358.003 102.346L358.037 78.9215L362.117 78.9273ZM360.066 69.4684C360.93 69.4696 361.586 69.6626 362.033 70.0472C362.513 70.4319 362.752 70.9762 362.751 71.6802L362.749 73.0722C362.748 73.7762 362.507 74.3199 362.027 74.7032C361.578 75.0546 360.922 75.2296 360.058 75.2284C359.226 75.2272 358.57 75.0503 358.091 74.6976C357.643 74.313 357.42 73.7686 357.421 73.0646L357.423 71.6726C357.424 70.9686 357.649 70.425 358.097 70.0416C358.578 69.6583 359.234 69.4672 360.066 69.4684ZM376.499 78.3719C379.187 78.3757 381.234 79.1146 382.64 80.5886C384.046 82.0627 384.746 84.1917 384.743 86.9757L384.735 91.9196L372.399 91.902L372.395 94.734C372.393 96.366 372.775 97.5506 373.542 98.2877C374.341 98.9928 375.589 99.3466 377.285 99.349C378.949 99.3514 381.029 99.0984 383.526 98.5899L383.617 102.142C380.64 102.682 378.512 102.951 377.232 102.949C374.064 102.944 371.777 102.253 370.371 100.875C368.997 99.4972 368.312 97.3682 368.316 94.4882L368.327 86.9522C368.331 84.1682 369.006 82.0412 370.352 80.5711C371.73 79.1011 373.779 78.368 376.499 78.3719ZM376.494 81.7799C375.246 81.7781 374.253 82.1767 373.516 82.9756C372.779 83.7426 372.41 84.862 372.407 86.334L372.404 88.638L380.66 88.6498L380.663 86.4898C380.665 84.9538 380.283 83.7853 379.516 82.9842C378.781 82.1831 377.774 81.7817 376.494 81.7799ZM397.008 78.4011C398.352 78.4031 399.967 78.5974 401.855 78.9841L401.754 82.4399C400.09 82.0536 398.571 81.8594 397.195 81.8574C394.315 81.8533 392.873 82.7793 392.871 84.6353L392.87 85.0672C392.869 85.6432 393.013 86.1075 393.3 86.4599C393.62 86.8123 394.179 87.1811 394.978 87.5663L399.487 89.6847C402.206 90.9686 403.563 92.8425 403.559 95.3065L403.558 96.3625C403.523 98.5705 402.848 100.234 401.535 101.352C400.253 102.438 398.22 102.979 395.436 102.975C393.996 102.973 391.933 102.634 389.246 101.958L389.443 98.3104C391.842 99.0178 393.81 99.3726 395.346 99.3748C396.914 99.377 398.002 99.1706 398.61 98.7555C399.219 98.3083 399.524 97.5888 399.526 96.5968L399.526 96.1168C399.527 95.3488 399.368 94.7405 399.049 94.2921C398.761 93.8437 398.266 93.459 397.562 93.138L392.909 91.0673C391.502 90.4253 390.463 89.6558 389.793 88.7589C389.154 87.8619 388.835 86.8215 388.837 85.6375L388.838 84.9655C388.905 82.7896 389.58 81.1585 390.861 80.0724C392.175 78.9543 394.224 78.3972 397.008 78.4011Z" fill="black"/>
</svg>
