<svg width="286" height="84" viewBox="0 0 286 84" fill="none" xmlns="http://www.w3.org/2000/svg">
<rect x="0.5" y="0.5" width="285" height="83" fill="white" stroke="black"/>
<path d="M241.95 37.4167C239.49 30.3296 232.83 25.25 225 25.25C215.07 25.25 207 33.4321 207 43.5C207 53.5679 215.07 61.75 225 61.75C232.83 61.75 239.49 56.6704 241.95 49.5833H255V61.75H267V49.5833H273V37.4167H241.95ZM225 49.5833C221.7 49.5833 219 46.8458 219 43.5C219 40.1542 221.7 37.4167 225 37.4167C228.3 37.4167 231 40.1542 231 43.5C231 46.8458 228.3 49.5833 225 49.5833Z" fill="black"/>
<path d="M15.672 45.384L16.8 44.04C17.808 44.984 18.752 45.656 19.632 46.056C20.528 46.456 21.52 46.656 22.608 46.656C23.904 46.656 24.976 46.336 25.824 45.696C26.672 45.04 27.096 44.232 27.096 43.272C27.096 42.44 26.808 41.8 26.232 41.352C25.672 40.904 24.712 40.56 23.352 40.32L20.64 39.864C19.104 39.592 17.976 39.128 17.256 38.472C16.552 37.8 16.2 36.904 16.2 35.784C16.2 34.376 16.736 33.224 17.808 32.328C18.88 31.432 20.264 30.984 21.96 30.984C23.208 30.984 24.368 31.16 25.44 31.512C26.512 31.848 27.568 32.384 28.608 33.12L27.648 34.56C26.784 33.92 25.864 33.424 24.888 33.072C23.928 32.72 22.96 32.544 21.984 32.544C20.816 32.544 19.856 32.84 19.104 33.432C18.352 34.008 17.976 34.728 17.976 35.592C17.976 36.328 18.224 36.904 18.72 37.32C19.216 37.736 20.024 38.032 21.144 38.208L23.832 38.664C25.608 38.984 26.904 39.504 27.72 40.224C28.536 40.944 28.944 41.928 28.944 43.176C28.944 43.896 28.784 44.568 28.464 45.192C28.144 45.816 27.696 46.352 27.12 46.8C26.56 47.248 25.888 47.6 25.104 47.856C24.32 48.112 23.472 48.24 22.56 48.24C21.248 48.24 20.024 48.008 18.888 47.544C17.768 47.064 16.696 46.344 15.672 45.384ZM41.6595 46.656C40.9875 47.184 40.2915 47.576 39.5715 47.832C38.8515 48.088 38.0835 48.216 37.2675 48.216C36.4515 48.216 35.6835 48.064 34.9635 47.76C34.2595 47.44 33.6435 47.008 33.1155 46.464C32.6035 45.92 32.1955 45.28 31.8915 44.544C31.6035 43.792 31.4595 42.992 31.4595 42.144C31.4595 41.296 31.5955 40.504 31.8675 39.768C32.1555 39.016 32.5475 38.376 33.0435 37.848C33.5395 37.304 34.1235 36.88 34.7955 36.576C35.4675 36.256 36.1955 36.096 36.9795 36.096C37.7475 36.096 38.4595 36.248 39.1155 36.552C39.7715 36.856 40.3395 37.272 40.8195 37.8C41.2995 38.312 41.6755 38.936 41.9475 39.672C42.2195 40.392 42.3555 41.168 42.3555 42V42.528H33.1635C33.2435 43.712 33.6835 44.704 34.4835 45.504C35.2835 46.288 36.2355 46.68 37.3395 46.68C37.9475 46.68 38.5315 46.576 39.0915 46.368C39.6675 46.144 40.1555 45.848 40.5555 45.48L41.6595 46.656ZM36.9555 37.608C35.9955 37.608 35.1715 37.952 34.4835 38.64C33.7955 39.328 33.3715 40.208 33.2115 41.28H40.6275C40.4995 40.224 40.0915 39.352 39.4035 38.664C38.7315 37.96 37.9155 37.608 36.9555 37.608ZM50.7223 46.632C51.3623 46.632 51.9623 46.512 52.5223 46.272C53.0983 46.032 53.5863 45.688 53.9863 45.24L55.0663 46.32C54.5063 46.912 53.8343 47.376 53.0503 47.712C52.2823 48.048 51.4743 48.216 50.6263 48.216C49.8263 48.216 49.0663 48.064 48.3463 47.76C47.6423 47.44 47.0343 47.008 46.5223 46.464C46.0103 45.92 45.6023 45.28 45.2983 44.544C44.9943 43.792 44.8423 42.992 44.8423 42.144C44.8423 41.296 44.9863 40.504 45.2743 39.768C45.5783 39.032 45.9863 38.392 46.4983 37.848C47.0263 37.304 47.6423 36.88 48.3463 36.576C49.0503 36.256 49.8103 36.096 50.6263 36.096C51.4903 36.096 52.3143 36.256 53.0983 36.576C53.8823 36.896 54.5623 37.344 55.1383 37.92L54.0103 39.144C53.5943 38.696 53.0903 38.344 52.4983 38.088C51.9063 37.816 51.3063 37.68 50.6983 37.68C50.1223 37.68 49.5783 37.8 49.0663 38.04C48.5703 38.264 48.1383 38.576 47.7703 38.976C47.4183 39.376 47.1303 39.848 46.9063 40.392C46.6983 40.936 46.5943 41.52 46.5943 42.144C46.5943 43.408 46.9943 44.472 47.7943 45.336C48.5943 46.2 49.5703 46.632 50.7223 46.632ZM59.2853 36.288V43.344C59.2853 44.384 59.5653 45.208 60.1253 45.816C60.6853 46.424 61.4453 46.728 62.4053 46.728C63.0453 46.728 63.6293 46.576 64.1573 46.272C64.6853 45.968 65.1253 45.528 65.4773 44.952V36.288H67.2293V48H65.4773V46.104C65.0293 46.792 64.4933 47.312 63.8693 47.664C63.2453 48.016 62.5413 48.192 61.7573 48.192C60.5093 48.192 59.4853 47.792 58.6853 46.992C57.9013 46.176 57.5093 45.128 57.5093 43.848V36.288H59.2853ZM70.8234 48V36.288H72.5754V38.664C72.8794 37.848 73.3114 37.216 73.8714 36.768C74.4474 36.304 75.1034 36.072 75.8394 36.072C76.0474 36.072 76.2394 36.088 76.4154 36.12C76.5914 36.136 76.7674 36.176 76.9434 36.24V37.824C76.7514 37.76 76.5434 37.712 76.3194 37.68C76.1114 37.632 75.9114 37.608 75.7194 37.608C74.9994 37.608 74.3674 37.816 73.8234 38.232C73.2954 38.648 72.8794 39.232 72.5754 39.984V48H70.8234ZM80.1489 33.408C79.7969 33.408 79.4929 33.288 79.2369 33.048C78.9969 32.792 78.8769 32.488 78.8769 32.136C78.8769 31.8 78.9969 31.512 79.2369 31.272C79.4929 31.016 79.7969 30.888 80.1489 30.888C80.4849 30.888 80.7729 31.016 81.0129 31.272C81.2689 31.512 81.3969 31.8 81.3969 32.136C81.3969 32.488 81.2769 32.792 81.0369 33.048C80.7969 33.288 80.5009 33.408 80.1489 33.408ZM81.0129 36.288V48H79.2609V36.288H81.0129ZM85.9967 45.36V37.728H83.5727V36.288H85.9967V33.072L87.7487 32.664V36.288H91.1087V37.728H87.7487V44.904C87.7487 45.528 87.8767 45.976 88.1327 46.248C88.4047 46.52 88.8447 46.656 89.4527 46.656C89.7567 46.656 90.0287 46.632 90.2687 46.584C90.5087 46.536 90.7887 46.456 91.1087 46.344V47.904C90.7887 48.016 90.4527 48.096 90.1007 48.144C89.7487 48.192 89.4047 48.216 89.0687 48.216C88.0607 48.216 87.2927 47.976 86.7647 47.496C86.2527 47 85.9967 46.288 85.9967 45.36ZM96.2134 49.872L96.9814 47.976L92.4694 36.288H94.4134L97.9654 45.912L101.733 36.288H103.677L97.8694 50.4C97.5014 51.344 97.0614 52.008 96.5494 52.392C96.0534 52.792 95.3734 52.992 94.5094 52.992C94.3494 52.992 94.1734 52.976 93.9814 52.944C93.7894 52.928 93.5894 52.888 93.3814 52.824V51.264C93.6214 51.312 93.8054 51.336 93.9334 51.336C94.0774 51.352 94.2134 51.36 94.3414 51.36C94.7894 51.36 95.1574 51.24 95.4454 51C95.7494 50.776 96.0054 50.4 96.2134 49.872Z" fill="black"/>
</svg>
