<svg width="286" height="84" viewBox="0 0 286 84" fill="none" xmlns="http://www.w3.org/2000/svg">
<rect x="0.5" y="0.5" width="285" height="83" fill="white" stroke="black"/>
<path d="M13.672 48.384L14.8 47.04C15.808 47.984 16.752 48.656 17.632 49.056C18.528 49.456 19.52 49.656 20.608 49.656C21.904 49.656 22.976 49.336 23.824 48.696C24.672 48.04 25.096 47.232 25.096 46.272C25.096 45.44 24.808 44.8 24.232 44.352C23.672 43.904 22.712 43.56 21.352 43.32L18.64 42.864C17.104 42.592 15.976 42.128 15.256 41.472C14.552 40.8 14.2 39.904 14.2 38.784C14.2 37.376 14.736 36.224 15.808 35.328C16.88 34.432 18.264 33.984 19.96 33.984C21.208 33.984 22.368 34.16 23.44 34.512C24.512 34.848 25.568 35.384 26.608 36.12L25.648 37.56C24.784 36.92 23.864 36.424 22.888 36.072C21.928 35.72 20.96 35.544 19.984 35.544C18.816 35.544 17.856 35.84 17.104 36.432C16.352 37.008 15.976 37.728 15.976 38.592C15.976 39.328 16.224 39.904 16.72 40.32C17.216 40.736 18.024 41.032 19.144 41.208L21.832 41.664C23.608 41.984 24.904 42.504 25.72 43.224C26.536 43.944 26.944 44.928 26.944 46.176C26.944 46.896 26.784 47.568 26.464 48.192C26.144 48.816 25.696 49.352 25.12 49.8C24.56 50.248 23.888 50.6 23.104 50.856C22.32 51.112 21.472 51.24 20.56 51.24C19.248 51.24 18.024 51.008 16.888 50.544C15.768 50.064 14.696 49.344 13.672 48.384ZM39.6595 49.656C38.9875 50.184 38.2915 50.576 37.5715 50.832C36.8515 51.088 36.0835 51.216 35.2675 51.216C34.4515 51.216 33.6835 51.064 32.9635 50.76C32.2595 50.44 31.6435 50.008 31.1155 49.464C30.6035 48.92 30.1955 48.28 29.8915 47.544C29.6035 46.792 29.4595 45.992 29.4595 45.144C29.4595 44.296 29.5955 43.504 29.8675 42.768C30.1555 42.016 30.5475 41.376 31.0435 40.848C31.5395 40.304 32.1235 39.88 32.7955 39.576C33.4675 39.256 34.1955 39.096 34.9795 39.096C35.7475 39.096 36.4595 39.248 37.1155 39.552C37.7715 39.856 38.3395 40.272 38.8195 40.8C39.2995 41.312 39.6755 41.936 39.9475 42.672C40.2195 43.392 40.3555 44.168 40.3555 45V45.528H31.1635C31.2435 46.712 31.6835 47.704 32.4835 48.504C33.2835 49.288 34.2355 49.68 35.3395 49.68C35.9475 49.68 36.5315 49.576 37.0915 49.368C37.6675 49.144 38.1555 48.848 38.5555 48.48L39.6595 49.656ZM34.9555 40.608C33.9955 40.608 33.1715 40.952 32.4835 41.64C31.7955 42.328 31.3715 43.208 31.2115 44.28H38.6275C38.4995 43.224 38.0915 42.352 37.4035 41.664C36.7315 40.96 35.9155 40.608 34.9555 40.608ZM43.3469 51V39.288H45.0989V41.112C45.5469 40.44 46.0589 39.936 46.6349 39.6C47.2109 39.264 47.8589 39.096 48.5789 39.096C49.3949 39.096 50.1149 39.304 50.7389 39.72C51.3789 40.136 51.8589 40.688 52.1789 41.376C52.6269 40.624 53.1789 40.056 53.8349 39.672C54.4909 39.288 55.2429 39.096 56.0909 39.096C57.2589 39.096 58.2109 39.504 58.9469 40.32C59.6989 41.12 60.0749 42.16 60.0749 43.44V51H58.3229V43.872C58.3229 42.864 58.0589 42.064 57.5309 41.472C57.0189 40.864 56.3229 40.56 55.4429 40.56C54.8349 40.56 54.2829 40.712 53.7869 41.016C53.2909 41.32 52.8669 41.784 52.5149 42.408C52.5469 42.568 52.5709 42.736 52.5869 42.912C52.6029 43.088 52.6109 43.264 52.6109 43.44V51H50.8589V43.872C50.8589 42.864 50.5949 42.064 50.0669 41.472C49.5389 40.864 48.8349 40.56 47.9549 40.56C47.3629 40.56 46.8269 40.704 46.3469 40.992C45.8669 41.28 45.4509 41.712 45.0989 42.288V51H43.3469ZM64.5083 36.408C64.1563 36.408 63.8523 36.288 63.5963 36.048C63.3563 35.792 63.2363 35.488 63.2363 35.136C63.2363 34.8 63.3563 34.512 63.5963 34.272C63.8523 34.016 64.1563 33.888 64.5083 33.888C64.8443 33.888 65.1323 34.016 65.3723 34.272C65.6283 34.512 65.7563 34.8 65.7563 35.136C65.7563 35.488 65.6363 35.792 65.3963 36.048C65.1563 36.288 64.8603 36.408 64.5083 36.408ZM65.3723 39.288V51H63.6203V39.288H65.3723ZM74.3161 49.632C74.9561 49.632 75.5561 49.512 76.1161 49.272C76.6921 49.032 77.1801 48.688 77.5801 48.24L78.6601 49.32C78.1001 49.912 77.4281 50.376 76.6441 50.712C75.8761 51.048 75.0681 51.216 74.2201 51.216C73.4201 51.216 72.6601 51.064 71.9401 50.76C71.2361 50.44 70.6281 50.008 70.1161 49.464C69.6041 48.92 69.1961 48.28 68.8921 47.544C68.5881 46.792 68.4361 45.992 68.4361 45.144C68.4361 44.296 68.5801 43.504 68.8681 42.768C69.1721 42.032 69.5801 41.392 70.0921 40.848C70.6201 40.304 71.2361 39.88 71.9401 39.576C72.6441 39.256 73.4041 39.096 74.2201 39.096C75.0841 39.096 75.9081 39.256 76.6921 39.576C77.4761 39.896 78.1561 40.344 78.7321 40.92L77.6041 42.144C77.1881 41.696 76.6841 41.344 76.0921 41.088C75.5001 40.816 74.9001 40.68 74.2921 40.68C73.7161 40.68 73.1721 40.8 72.6601 41.04C72.1641 41.264 71.7321 41.576 71.3641 41.976C71.0121 42.376 70.7241 42.848 70.5001 43.392C70.2921 43.936 70.1881 44.52 70.1881 45.144C70.1881 46.408 70.5881 47.472 71.3881 48.336C72.1881 49.2 73.1641 49.632 74.3161 49.632ZM80.2954 45.144C80.2954 44.28 80.4394 43.48 80.7274 42.744C81.0154 42.008 81.4074 41.368 81.9034 40.824C82.4154 40.28 83.0234 39.856 83.7274 39.552C84.4314 39.248 85.1834 39.096 85.9834 39.096C86.7994 39.096 87.5514 39.248 88.2394 39.552C88.9434 39.856 89.5514 40.28 90.0634 40.824C90.5754 41.368 90.9754 42.008 91.2634 42.744C91.5514 43.48 91.6954 44.28 91.6954 45.144C91.6954 46.008 91.5434 46.816 91.2394 47.568C90.9514 48.32 90.5514 48.968 90.0394 49.512C89.5434 50.04 88.9434 50.464 88.2394 50.784C87.5354 51.088 86.7834 51.24 85.9834 51.24C85.1834 51.24 84.4314 51.088 83.7274 50.784C83.0394 50.464 82.4394 50.032 81.9274 49.488C81.4314 48.944 81.0314 48.304 80.7274 47.568C80.4394 46.816 80.2954 46.008 80.2954 45.144ZM85.9834 49.68C87.1194 49.68 88.0634 49.256 88.8154 48.408C89.5834 47.544 89.9674 46.464 89.9674 45.168C89.9674 43.872 89.5834 42.792 88.8154 41.928C88.0634 41.064 87.1194 40.632 85.9834 40.632C84.8474 40.632 83.9034 41.064 83.1514 41.928C82.3994 42.792 82.0234 43.872 82.0234 45.168C82.0234 46.464 82.3994 47.544 83.1514 48.408C83.9034 49.256 84.8474 49.68 85.9834 49.68ZM94.7688 51V39.288H96.5208V41.184C96.9688 40.496 97.5048 39.976 98.1288 39.624C98.7528 39.272 99.4568 39.096 100.241 39.096C101.489 39.096 102.505 39.496 103.289 40.296C104.089 41.096 104.489 42.136 104.489 43.416V51H102.737V43.92C102.737 42.896 102.449 42.08 101.873 41.472C101.313 40.864 100.553 40.56 99.5928 40.56C98.9528 40.56 98.3688 40.712 97.8408 41.016C97.3128 41.32 96.8728 41.768 96.5208 42.36V51H94.7688ZM116.627 51V49.44C116.179 50 115.635 50.432 114.995 50.736C114.355 51.024 113.651 51.168 112.883 51.168C112.131 51.168 111.419 51.016 110.747 50.712C110.091 50.392 109.523 49.968 109.043 49.44C108.563 48.896 108.179 48.256 107.891 47.52C107.619 46.784 107.483 46 107.483 45.168C107.483 44.32 107.619 43.528 107.891 42.792C108.179 42.056 108.571 41.424 109.067 40.896C109.563 40.352 110.147 39.928 110.819 39.624C111.491 39.304 112.211 39.144 112.979 39.144C113.699 39.144 114.371 39.288 114.995 39.576C115.619 39.848 116.163 40.248 116.627 40.776V33.84L118.379 33.48V51H116.627ZM109.211 45.144C109.211 46.424 109.603 47.496 110.387 48.36C111.171 49.208 112.147 49.632 113.315 49.632C114.003 49.632 114.635 49.496 115.211 49.224C115.787 48.952 116.259 48.568 116.627 48.072V42.264C116.243 41.768 115.755 41.384 115.163 41.112C114.587 40.824 113.971 40.68 113.315 40.68C112.147 40.68 111.171 41.104 110.387 41.952C109.603 42.8 109.211 43.864 109.211 45.144ZM123.684 39.288V46.344C123.684 47.384 123.964 48.208 124.524 48.816C125.084 49.424 125.844 49.728 126.804 49.728C127.444 49.728 128.028 49.576 128.556 49.272C129.084 48.968 129.524 48.528 129.876 47.952V39.288H131.628V51H129.876V49.104C129.428 49.792 128.892 50.312 128.268 50.664C127.644 51.016 126.94 51.192 126.156 51.192C124.908 51.192 123.884 50.792 123.084 49.992C122.3 49.176 121.908 48.128 121.908 46.848V39.288H123.684ZM140.574 49.632C141.214 49.632 141.814 49.512 142.374 49.272C142.95 49.032 143.438 48.688 143.838 48.24L144.918 49.32C144.358 49.912 143.686 50.376 142.902 50.712C142.134 51.048 141.326 51.216 140.478 51.216C139.678 51.216 138.918 51.064 138.198 50.76C137.494 50.44 136.886 50.008 136.374 49.464C135.862 48.92 135.454 48.28 135.15 47.544C134.846 46.792 134.694 45.992 134.694 45.144C134.694 44.296 134.838 43.504 135.126 42.768C135.43 42.032 135.838 41.392 136.35 40.848C136.878 40.304 137.494 39.88 138.198 39.576C138.902 39.256 139.662 39.096 140.478 39.096C141.342 39.096 142.166 39.256 142.95 39.576C143.734 39.896 144.414 40.344 144.99 40.92L143.862 42.144C143.446 41.696 142.942 41.344 142.35 41.088C141.758 40.816 141.158 40.68 140.55 40.68C139.974 40.68 139.43 40.8 138.918 41.04C138.422 41.264 137.99 41.576 137.622 41.976C137.27 42.376 136.982 42.848 136.758 43.392C136.55 43.936 136.446 44.52 136.446 45.144C136.446 46.408 136.846 47.472 137.646 48.336C138.446 49.2 139.422 49.632 140.574 49.632ZM149.059 48.36V40.728H146.635V39.288H149.059V36.072L150.811 35.664V39.288H154.171V40.728H150.811V47.904C150.811 48.528 150.939 48.976 151.195 49.248C151.467 49.52 151.907 49.656 152.515 49.656C152.819 49.656 153.091 49.632 153.331 49.584C153.571 49.536 153.851 49.456 154.171 49.344V50.904C153.851 51.016 153.515 51.096 153.163 51.144C152.811 51.192 152.467 51.216 152.131 51.216C151.123 51.216 150.355 50.976 149.827 50.496C149.315 50 149.059 49.288 149.059 48.36ZM155.928 45.144C155.928 44.28 156.072 43.48 156.36 42.744C156.648 42.008 157.04 41.368 157.536 40.824C158.048 40.28 158.656 39.856 159.36 39.552C160.064 39.248 160.816 39.096 161.616 39.096C162.432 39.096 163.184 39.248 163.872 39.552C164.576 39.856 165.184 40.28 165.696 40.824C166.208 41.368 166.608 42.008 166.896 42.744C167.184 43.48 167.328 44.28 167.328 45.144C167.328 46.008 167.176 46.816 166.872 47.568C166.584 48.32 166.184 48.968 165.672 49.512C165.176 50.04 164.576 50.464 163.872 50.784C163.168 51.088 162.416 51.24 161.616 51.24C160.816 51.24 160.064 51.088 159.36 50.784C158.672 50.464 158.072 50.032 157.56 49.488C157.064 48.944 156.664 48.304 156.36 47.568C156.072 46.816 155.928 46.008 155.928 45.144ZM161.616 49.68C162.752 49.68 163.696 49.256 164.448 48.408C165.216 47.544 165.6 46.464 165.6 45.168C165.6 43.872 165.216 42.792 164.448 41.928C163.696 41.064 162.752 40.632 161.616 40.632C160.48 40.632 159.536 41.064 158.784 41.928C158.032 42.792 157.656 43.872 157.656 45.168C157.656 46.464 158.032 47.544 158.784 48.408C159.536 49.256 160.48 49.68 161.616 49.68ZM170.402 51V39.288H172.154V41.664C172.458 40.848 172.89 40.216 173.45 39.768C174.026 39.304 174.682 39.072 175.418 39.072C175.626 39.072 175.818 39.088 175.994 39.12C176.17 39.136 176.346 39.176 176.522 39.24V40.824C176.33 40.76 176.122 40.712 175.898 40.68C175.69 40.632 175.49 40.608 175.298 40.608C174.578 40.608 173.946 40.816 173.402 41.232C172.874 41.648 172.458 42.232 172.154 42.984V51H170.402ZM177.57 49.488L178.506 48.336C179.194 48.848 179.834 49.224 180.426 49.464C181.034 49.688 181.65 49.8 182.274 49.8C183.122 49.8 183.826 49.6 184.386 49.2C184.946 48.8 185.226 48.296 185.226 47.688C185.226 47.208 185.058 46.832 184.722 46.56C184.386 46.288 183.85 46.08 183.114 45.936L181.194 45.6C180.058 45.392 179.218 45.04 178.674 44.544C178.146 44.048 177.882 43.376 177.882 42.528C177.882 41.52 178.274 40.696 179.058 40.056C179.858 39.416 180.874 39.096 182.106 39.096C182.906 39.096 183.666 39.216 184.386 39.456C185.106 39.696 185.834 40.064 186.57 40.56L185.706 41.784C185.098 41.352 184.49 41.04 183.882 40.848C183.274 40.64 182.658 40.536 182.034 40.536C181.266 40.536 180.65 40.704 180.186 41.04C179.722 41.376 179.49 41.832 179.49 42.408C179.49 42.888 179.634 43.256 179.922 43.512C180.226 43.768 180.754 43.96 181.506 44.088L183.474 44.448C184.642 44.656 185.498 45.016 186.042 45.528C186.602 46.04 186.882 46.728 186.882 47.592C186.882 48.6 186.442 49.456 185.562 50.16C184.698 50.864 183.618 51.216 182.322 51.216C181.362 51.216 180.474 51.072 179.658 50.784C178.842 50.48 178.146 50.048 177.57 49.488Z" fill="black"/>
<path d="M246.5 29.625H225.5V49.375H246.5V29.625ZM239.5 42.7917H232.5V36.2083H239.5V42.7917ZM267.5 36.2083V29.625H260.5V23.0417C260.5 19.4208 257.35 16.4583 253.5 16.4583H246.5V9.875H239.5V16.4583H232.5V9.875H225.5V16.4583H218.5C214.65 16.4583 211.5 19.4208 211.5 23.0417V29.625H204.5V36.2083H211.5V42.7917H204.5V49.375H211.5V55.9583C211.5 59.5792 214.65 62.5417 218.5 62.5417H225.5V69.125H232.5V62.5417H239.5V69.125H246.5V62.5417H253.5C257.35 62.5417 260.5 59.5792 260.5 55.9583V49.375H267.5V42.7917H260.5V36.2083H267.5ZM253.5 55.9583H218.5V23.0417H253.5V55.9583Z" fill="black"/>
</svg>
