<svg width="508" height="122" viewBox="0 0 508 122" fill="none" xmlns="http://www.w3.org/2000/svg">
<rect x="0.5" y="0.5" width="507" height="121" fill="white" stroke="black"/>
<path d="M98.8749 64.0833L95.4583 61.4583C95.4583 61.0833 95.4583 60.9167 95.4583 60.5417L98.7916 57.9167C99.4583 57.4167 99.6249 56.5 99.2083 55.7917L95.6666 49.625C95.3749 49.0833 94.7916 48.7917 94.2083 48.7917C93.9999 48.7917 93.7916 48.8333 93.5833 48.9167L89.6249 50.5C89.2916 50.2917 89.1666 50.2083 88.8333 50.0417L88.2083 45.8333C88.0833 44.9583 87.3749 44.3333 86.5416 44.3333H79.4166C78.5833 44.3333 77.8749 44.9583 77.7499 45.75L77.1666 49.9583C77.0416 50.0417 76.8749 50.0833 76.7499 50.1667C76.6249 50.25 76.4999 50.3333 76.3749 50.4167L72.4166 48.8333C72.2083 48.75 71.9999 48.7083 71.7916 48.7083C71.2083 48.7083 70.6666 49 70.3333 49.5417L66.7916 55.7083C66.3749 56.4167 66.5416 57.3333 67.2083 57.8333L70.5416 60.4583C70.5416 60.8333 70.5416 61 70.5416 61.4167L67.2083 64.0417C66.5416 64.5417 66.3749 65.4583 66.7916 66.1667L70.3333 72.3333C70.6249 72.875 71.2083 73.1667 71.7916 73.1667C71.9999 73.1667 72.2083 73.125 72.4166 73.0417L76.3749 71.5C76.7083 71.7083 76.8749 71.7917 77.2083 71.9583L77.8333 76.1667C77.9583 77 78.6666 77.5833 79.4999 77.5833H86.6249C87.4583 77.5833 88.1666 76.9583 88.2916 76.1667L88.9166 71.9583C89.0416 71.875 89.2083 71.8333 89.3333 71.75C89.4583 71.6667 89.5833 71.5833 89.7083 71.5L93.6666 73.0833C93.8749 73.1667 94.0833 73.2083 94.2916 73.2083C94.8749 73.2083 95.4166 72.9167 95.7499 72.375L99.2916 66.2083C99.7083 65.5 99.5416 64.5833 98.8749 64.0833ZM82.9999 67.25C79.5416 67.25 76.7499 64.4583 76.7499 61C76.7499 57.5417 79.5416 54.75 82.9999 54.75C86.4583 54.75 89.2499 57.5417 89.2499 61C89.2499 64.4583 86.4583 67.25 82.9999 67.25ZM28.8333 106.833V15.1667H87.1666V40.1667H78.8333V36H37.1666V86H78.8333V81.8333H87.1666V106.833H28.8333Z" fill="black"/>
<path d="M144.085 19.6001L144.08 23.2961L131.6 23.2783L131.586 33.2143L143.106 33.2307L143.101 36.8787L131.581 36.8623L131.566 47.3263L144.046 47.3441L144.04 51.0401L127.48 51.0164L127.525 19.5765L144.085 19.6001ZM160.795 27.064C162.843 27.0669 164.41 27.7731 165.496 29.1827C166.615 30.5603 167.172 32.5291 167.168 35.0891L167.145 51.073L163.065 51.0672L163.087 35.6592C163.092 32.4592 162.054 30.8578 159.974 30.8548C159.046 30.8535 158.102 31.2041 157.141 31.9067C156.18 32.6094 155.346 33.5682 154.64 34.7832L154.617 51.0552L150.537 51.0493L150.571 27.6254L154.411 27.6308L154.406 31.1348C155.272 29.8241 156.233 28.8174 157.29 28.1149C158.379 27.4125 159.547 27.0622 160.795 27.064ZM178.714 27.6655L184.954 27.6744L184.95 31.0344L178.71 31.0255L178.69 44.7535C178.688 45.9695 178.927 46.8499 179.406 47.3945C179.918 47.9073 180.701 48.1644 181.757 48.1659C183.101 48.1678 184.413 48.0097 185.694 47.6915L185.785 51.0996C184.376 51.4816 183.096 51.6718 181.944 51.6702C179.384 51.6665 177.513 51.1038 176.331 49.9821C175.18 48.8285 174.607 46.9717 174.61 44.4117L174.63 31.0197L171.27 31.0149L171.274 27.6549L174.634 27.6597L175.411 21.4208L178.723 21.4255L178.714 27.6655ZM197.814 27.1168C200.502 27.1206 202.549 27.8595 203.955 29.3336C205.361 30.8076 206.062 32.9366 206.058 35.7206L206.051 40.6646L193.715 40.647L193.711 43.4789C193.708 45.1109 194.091 46.2955 194.858 47.0326C195.657 47.7377 196.904 48.0915 198.6 48.0939C200.264 48.0963 202.344 47.8433 204.841 47.3348L204.932 50.887C201.955 51.4267 199.827 51.6957 198.547 51.6939C195.379 51.6893 193.092 50.9981 191.686 49.6201C190.312 48.2421 189.627 46.1131 189.631 43.2331L189.642 35.6971C189.646 32.9131 190.321 30.7861 191.667 29.316C193.045 27.846 195.094 27.1129 197.814 27.1168ZM197.809 30.5248C196.561 30.523 195.569 30.9216 194.831 31.7205C194.094 32.4875 193.725 33.607 193.723 35.079L193.719 37.383L201.975 37.3947L201.978 35.2347C201.981 33.6987 201.598 32.5302 200.831 31.7291C200.097 30.9281 199.089 30.5266 197.809 30.5248ZM221.827 27.1511C222.275 27.1517 222.627 27.1842 222.883 27.2486L222.876 31.8566C222.396 31.7599 221.772 31.711 221.004 31.7099C218.764 31.7067 216.987 32.8242 215.671 35.0623L215.648 51.1423L211.568 51.1364L211.602 27.7125L215.442 27.7179L215.437 31.2219C216.303 29.9112 217.264 28.9046 218.321 28.2021C219.41 27.4996 220.579 27.1493 221.827 27.1511ZM237.388 27.1733C239.404 27.1762 240.971 27.8664 242.089 29.244C243.207 30.6216 243.764 32.6064 243.761 35.1984L243.748 43.7424C243.745 46.2384 243.086 48.2054 241.772 49.6436C240.49 51.0497 238.745 51.7512 236.537 51.7481C235.705 51.7469 234.809 51.5696 233.85 51.2162C232.922 50.8949 232.059 50.5097 231.259 50.0605L231.245 60.0445L227.165 60.0387L227.211 27.7347L231.051 27.7402L231.046 31.1482C232.81 28.4947 234.924 27.1698 237.388 27.1733ZM236.567 30.8201C235.639 30.8188 234.694 31.1694 233.733 31.8721C232.804 32.5427 231.987 33.4696 231.281 34.6526L231.265 46.4126C231.936 46.9575 232.671 47.3906 233.471 47.7117C234.302 48.0009 235.054 48.146 235.726 48.1469C238.35 48.1507 239.664 46.4885 239.669 43.1605L239.68 35.7686C239.684 32.4726 238.647 30.8231 236.567 30.8201ZM260.217 27.2059C260.665 27.2065 261.017 27.239 261.273 27.3034L261.267 31.9114C260.787 31.8147 260.163 31.7658 259.395 31.7647C257.155 31.7615 255.377 32.879 254.062 35.1171L254.039 51.1971L249.959 51.1912L249.992 27.7673L253.832 27.7727L253.827 31.2767C254.693 29.966 255.655 28.9593 256.712 28.2569C257.801 27.5544 258.969 27.2041 260.217 27.2059ZM269.682 27.7954L269.648 51.2193L265.568 51.2135L265.602 27.7895L269.682 27.7954ZM267.631 18.3364C268.495 18.3377 269.151 18.5306 269.598 18.9152C270.078 19.2999 270.317 19.8443 270.316 20.5483L270.314 21.9403C270.313 22.6443 270.072 23.1879 269.592 23.5712C269.143 23.9226 268.487 24.0977 267.623 24.0964C266.791 24.0952 266.135 23.9183 265.656 23.5656C265.208 23.181 264.985 22.6367 264.986 21.9327L264.988 20.5407C264.989 19.8367 265.214 19.293 265.662 18.9096C266.143 18.5263 266.799 18.3352 267.631 18.3364ZM283.104 27.2385C284.448 27.2404 286.064 27.4347 287.951 27.8214L287.85 31.2773C286.187 30.8909 284.667 30.6968 283.291 30.6948C280.411 30.6907 278.97 31.6166 278.967 33.4726L278.966 33.9046C278.966 34.4806 279.109 34.9448 279.396 35.2972C279.716 35.6497 280.275 36.0185 281.075 36.4036L285.584 38.5221C288.302 39.806 289.659 41.6799 289.656 44.1439L289.654 45.1999C289.619 47.4078 288.945 49.0709 287.631 50.189C286.35 51.2752 284.317 51.8163 281.533 51.8123C280.093 51.8103 278.029 51.4713 275.342 50.7955L275.539 47.1477C277.938 47.8552 279.906 48.21 281.442 48.2122C283.01 48.2144 284.098 48.008 284.707 47.5928C285.315 47.1457 285.62 46.4261 285.622 45.4341L285.623 44.9541C285.624 44.1861 285.465 43.5779 285.145 43.1295C284.858 42.681 284.362 42.2963 283.659 41.9753L279.006 39.9047C277.599 39.2627 276.56 38.4932 275.889 37.5962C275.25 36.6993 274.932 35.6589 274.934 34.4749L274.934 33.8029C275.002 31.627 275.676 29.9959 276.957 28.9098C278.271 27.7916 280.32 27.2345 283.104 27.2385ZM302.392 27.2661C305.08 27.2699 307.127 28.0088 308.533 29.4828C309.939 30.9568 310.64 33.0858 310.636 35.8698L310.629 40.8138L298.293 40.7962L298.289 43.6282C298.286 45.2602 298.669 46.4448 299.436 47.1819C300.235 47.887 301.482 48.2408 303.178 48.2432C304.842 48.2456 306.922 47.9925 309.419 47.4841L309.51 51.0362C306.533 51.576 304.405 51.845 303.125 51.8431C299.957 51.8386 297.67 51.1473 296.264 49.7693C294.89 48.3914 294.205 46.2624 294.209 43.3824L294.22 35.8464C294.224 33.0624 294.899 30.9354 296.245 29.4653C297.623 27.9952 299.672 27.2622 302.392 27.2661ZM302.387 30.674C301.139 30.6723 300.147 31.0709 299.409 31.8698C298.672 32.6367 298.303 33.7562 298.301 35.2282L298.297 37.5322L306.553 37.544L306.556 35.384C306.559 33.848 306.176 32.6795 305.409 31.8784C304.675 31.0773 303.667 30.6759 302.387 30.674ZM332.929 19.2936C334.657 19.2961 336.913 19.5553 339.696 20.0713L339.595 23.6711C336.972 23.1554 334.748 22.8962 332.924 22.8936C331.068 22.891 329.723 23.2571 328.89 23.9919C328.089 24.7267 327.688 25.8462 327.686 27.3502L327.684 28.5982C327.683 29.3982 327.778 30.0383 327.969 30.5186C328.192 30.9669 328.576 31.3674 329.119 31.7202C329.663 32.041 330.478 32.3781 331.566 32.7317L336.028 34.2261C338.171 34.9651 339.673 35.9433 340.536 37.1605C341.43 38.3778 341.875 40.1544 341.872 42.4904L341.871 43.4024C341.867 46.2504 341.032 48.3772 339.366 49.7828C337.732 51.1885 335.043 51.8887 331.299 51.8833C329.475 51.8807 327.139 51.5574 324.292 50.9133L324.393 47.2175C327.048 47.8613 329.32 48.1845 331.208 48.1872C333.608 48.1906 335.304 47.841 336.297 47.1385C337.29 46.4039 337.788 45.2686 337.79 43.7326L337.793 42.1486C337.794 41.0286 337.539 40.1802 337.028 39.6035C336.549 38.9948 335.686 38.4816 334.438 38.0638L329.497 36.4247C327.29 35.6856 325.755 34.7394 324.893 33.5862C324.03 32.4009 323.601 30.6243 323.604 28.2563L323.605 27.7283C323.609 24.9443 324.348 22.8494 325.822 21.4435C327.328 20.0056 329.697 19.289 332.929 19.2936ZM354.899 27.341C357.747 27.3451 359.858 28.1161 361.231 29.654C362.637 31.16 363.338 33.305 363.334 36.089L363.324 43.193C363.32 45.977 362.613 48.136 361.203 49.67C359.825 51.1721 357.712 51.921 354.864 51.917C352.016 51.9129 349.889 51.1579 348.483 49.6519C347.109 48.1139 346.424 45.9529 346.428 43.1689L346.438 36.0649C346.442 33.2809 347.133 31.1379 348.511 29.6359C349.922 28.1019 352.051 27.3369 354.899 27.341ZM354.894 30.749C353.518 30.747 352.445 31.1775 351.676 32.0404C350.907 32.9033 350.521 34.1348 350.519 35.7348L350.508 43.5107C350.505 45.1107 350.888 46.3433 351.654 47.2084C352.421 48.0735 353.492 48.507 354.868 48.509C356.244 48.5109 357.317 48.0805 358.086 47.2176C358.856 46.3547 359.241 45.1232 359.244 43.5232L359.255 35.6992C359.257 34.0992 358.875 32.8827 358.108 32.0496C357.341 31.1845 356.27 30.751 354.894 30.749ZM378.225 18.0143C379.281 18.0158 380.288 18.1292 381.248 18.3546L381.243 21.6186C380.284 21.4572 379.292 21.3758 378.268 21.3743C377.276 21.3729 376.491 21.6918 375.914 22.331C375.37 22.9702 375.096 23.9458 375.094 25.2578L375.09 27.9458L379.89 27.9527L379.886 31.3127L375.086 31.3058L375.057 51.3698L370.977 51.364L371.006 31.3L367.646 31.2952L367.65 27.9352L371.01 27.94L371.014 25.492C371.05 22.996 371.676 21.1249 372.894 19.8787C374.112 18.6324 375.889 18.0109 378.225 18.0143ZM389.37 27.9662L395.61 27.9751L395.606 31.3351L389.366 31.3262L389.346 45.0542C389.344 46.2702 389.583 47.1505 390.062 47.6952C390.574 48.2079 391.357 48.4651 392.413 48.4666C393.757 48.4685 395.069 48.3104 396.35 47.9922L396.441 51.4003C395.032 51.7823 393.752 51.9725 392.6 51.9708C390.04 51.9672 388.169 51.4045 386.987 50.2828C385.836 49.1292 385.263 47.2724 385.267 44.7124L385.286 31.3204L381.926 31.3156L381.93 27.9556L385.29 27.9604L386.067 21.7215L389.379 21.7262L389.37 27.9662ZM429.013 28.0228L423.556 51.439L418.42 51.4317L413.696 31.5529L408.868 51.4181L403.732 51.4107L398.389 27.9791L402.709 27.9852L406.473 47.8146L411.061 27.9972L416.341 28.0047L420.825 47.8351L424.693 28.0166L429.013 28.0228ZM440.239 27.4628C442.991 27.4667 444.99 28.0936 446.236 29.3434C447.514 30.5612 448.152 32.5141 448.148 35.2021L448.125 51.4741L444.237 51.4685L444.242 47.7245C442.382 50.6019 440.284 52.0389 437.948 52.0356C436.092 52.0329 434.605 51.3908 433.487 50.1092C432.4 48.8276 431.859 47.0829 431.862 44.8749L431.864 43.5309C431.867 41.6109 432.525 40.0278 433.839 38.7817C435.152 37.5036 436.913 36.8661 439.121 36.8692C440.337 36.871 441.985 37.0813 444.065 37.5003L444.068 34.8603C444.07 33.4843 443.752 32.4918 443.113 31.8829C442.505 31.274 441.546 30.9687 440.234 30.9668C438.698 30.9646 436.537 31.2015 433.753 31.6775L433.758 28.1736C436.766 27.6978 438.927 27.4609 440.239 27.4628ZM440.125 40.0387C438.781 40.0367 437.756 40.3873 437.051 41.0903C436.346 41.7933 435.993 42.7848 435.991 44.0648L435.99 44.5928C435.989 45.7768 436.259 46.7051 436.802 47.3779C437.345 48.0507 438.033 48.3877 438.865 48.3889C439.729 48.3901 440.609 48.0234 441.507 47.2886C442.436 46.522 443.285 45.4512 444.055 44.0763L444.06 40.3803C442.845 40.1545 441.533 40.0407 440.125 40.0387ZM464.873 27.498C465.321 27.4986 465.673 27.5311 465.929 27.5955L465.923 32.2035C465.443 32.1068 464.819 32.0579 464.051 32.0568C461.811 32.0536 460.033 33.1711 458.718 35.4092L458.695 51.4892L454.615 51.4833L454.648 28.0594L458.488 28.0648L458.483 31.5688C459.349 30.2581 460.311 29.2515 461.368 28.549C462.457 27.8465 463.625 27.4962 464.873 27.498ZM477.611 27.5161C480.299 27.52 482.345 28.2589 483.751 29.7329C485.157 31.2069 485.858 33.3359 485.854 36.1199L485.847 41.0639L473.511 41.0463L473.507 43.8783C473.505 45.5103 473.887 46.6948 474.654 47.4319C475.453 48.1371 476.701 48.4909 478.397 48.4933C480.061 48.4957 482.141 48.2426 484.638 47.7342L484.729 51.2863C481.752 51.8261 479.623 52.095 478.343 52.0932C475.175 52.0887 472.888 51.3974 471.482 50.0194C470.108 48.6415 469.423 46.5125 469.428 43.6325L469.438 36.0965C469.442 33.3125 470.117 31.1854 471.463 29.7154C472.842 28.2453 474.891 27.5123 477.611 27.5161ZM477.606 30.9241C476.358 30.9224 475.365 31.3209 474.628 32.1199C473.891 32.8868 473.521 34.0063 473.519 35.4783L473.516 37.7823L481.772 37.7941L481.775 35.6341C481.777 34.0981 481.395 32.9295 480.628 32.1285C479.893 31.3274 478.886 30.926 477.606 30.9241ZM220.148 70.1327C221.396 70.1345 222.74 70.2644 224.18 70.5225C225.651 70.7486 226.515 70.8778 226.771 70.9102L226.67 74.51C223.855 73.994 221.679 73.7349 220.143 73.7327C217.967 73.7296 216.398 74.1754 215.437 75.07C214.476 75.9646 213.994 77.4519 213.991 79.5319L213.971 93.2599C213.968 95.3399 214.43 96.8286 215.357 97.7259C216.316 98.5913 217.899 99.0255 220.107 99.0287C221.643 99.0309 223.819 98.778 226.636 98.27L226.727 101.966C226.471 101.998 225.606 102.125 224.134 102.346C222.694 102.6 221.35 102.726 220.102 102.725C216.422 102.719 213.799 101.932 212.233 100.361C210.667 98.7912 209.887 96.3421 209.891 93.0141L209.91 79.8141C209.915 76.4861 210.703 74.0392 212.273 72.4735C213.843 70.9077 216.468 70.1275 220.148 70.1327ZM240.24 78.1774C243.088 78.1815 245.199 78.9525 246.573 80.4904C247.979 81.9964 248.68 84.1414 248.676 86.9254L248.665 94.0294C248.661 96.8134 247.954 98.9724 246.544 100.506C245.166 102.008 243.053 102.757 240.205 102.753C237.357 102.749 235.23 101.994 233.824 100.488C232.45 98.9503 231.765 96.7893 231.769 94.0053L231.78 86.9013C231.784 84.1173 232.475 81.9743 233.853 80.4723C235.263 78.9383 237.392 78.1733 240.24 78.1774ZM240.235 81.5854C238.859 81.5834 237.787 82.0139 237.017 82.8768C236.248 83.7397 235.862 84.9712 235.86 86.5712L235.849 94.3471C235.847 95.9471 236.229 97.1797 236.996 98.0448C237.762 98.9099 238.834 99.3434 240.21 99.3454C241.586 99.3473 242.658 98.9169 243.428 98.054C244.197 97.1911 244.583 95.9596 244.585 94.3596L244.596 86.5356C244.598 84.9356 244.216 83.7191 243.449 82.886C242.683 82.0209 241.611 81.5874 240.235 81.5854ZM277.425 78.2305C279.473 78.2334 281.04 78.9396 282.126 80.3492C283.212 81.7267 283.753 83.6955 283.749 86.2555L283.726 102.239L279.646 102.234L279.668 86.8257C279.673 83.6257 278.651 82.0242 276.603 82.0213C275.707 82.02 274.779 82.3707 273.818 83.0733C272.889 83.776 272.071 84.7348 271.366 85.9498L271.342 102.222L267.262 102.216L267.284 86.808C267.289 83.608 266.267 82.0065 264.219 82.0036C263.323 82.0023 262.395 82.353 261.434 83.0556C260.505 83.7583 259.687 84.7172 258.982 85.9322L258.958 102.204L254.878 102.198L254.912 78.7743L258.752 78.7798L258.747 82.2838C259.581 80.973 260.542 79.9664 261.631 79.2639C262.72 78.5615 263.857 78.2111 265.041 78.2128C266.513 78.2149 267.744 78.6007 268.735 79.3701C269.726 80.1075 270.444 81.1965 270.89 82.6371C271.756 81.1984 272.75 80.1118 273.871 79.3774C274.992 78.611 276.177 78.2287 277.425 78.2305ZM300.667 78.2636C302.683 78.2665 304.25 78.9568 305.368 80.3344C306.486 81.712 307.043 83.6967 307.039 86.2887L307.027 94.8327C307.024 97.3287 306.365 99.2958 305.051 100.734C303.769 102.14 302.024 102.842 299.816 102.838C298.984 102.837 298.088 102.66 297.128 102.307C296.201 101.985 295.337 101.6 294.538 101.151L294.524 111.135L290.444 111.129L290.49 78.8251L294.33 78.8306L294.325 82.2386C296.089 79.5851 298.203 78.2601 300.667 78.2636ZM299.846 81.9105C298.918 81.9091 297.973 82.2598 297.012 82.9624C296.083 83.6331 295.266 84.5599 294.56 85.7429L294.543 97.5029C295.215 98.0479 295.95 98.4809 296.749 98.8021C297.581 99.0913 298.333 99.2363 299.005 99.2373C301.629 99.241 302.943 97.5789 302.948 94.2509L302.958 86.8589C302.963 83.5629 301.926 81.9134 299.846 81.9105ZM320.283 78.2916C323.035 78.2956 325.034 78.9224 326.281 80.1722C327.559 81.39 328.196 83.3429 328.192 86.0309L328.169 102.303L324.281 102.297L324.286 98.5534C322.426 101.431 320.328 102.868 317.992 102.864C316.136 102.862 314.649 102.22 313.531 100.938C312.445 99.6565 311.903 97.9117 311.906 95.7037L311.908 94.3597C311.911 92.4397 312.569 90.8566 313.883 89.6105C315.197 88.3324 316.958 87.6949 319.166 87.6981C320.382 87.6998 322.03 87.9101 324.109 88.3291L324.113 85.6891C324.115 84.3131 323.796 83.3207 323.157 82.7117C322.55 82.1029 321.59 81.7975 320.278 81.7956C318.742 81.7934 316.582 82.0304 313.797 82.5064L313.802 79.0024C316.811 78.5267 318.971 78.2898 320.283 78.2916ZM320.169 90.8675C318.825 90.8656 317.801 91.2161 317.096 91.9191C316.391 92.6221 316.037 93.6136 316.036 94.8936L316.035 95.4216C316.033 96.6056 316.304 97.534 316.847 98.2068C317.39 98.8795 318.077 99.2165 318.909 99.2177C319.773 99.2189 320.654 98.8522 321.551 98.1175C322.48 97.3508 323.33 96.28 324.1 94.9051L324.105 91.2091C322.889 90.9834 321.577 90.8695 320.169 90.8675ZM344.918 78.3268C346.966 78.3297 348.533 79.036 349.619 80.4455C350.737 81.8231 351.294 83.7919 351.29 86.3519L351.268 102.336L347.188 102.33L347.21 86.9221C347.214 83.7221 346.176 82.1206 344.096 82.1176C343.168 82.1163 342.224 82.467 341.263 83.1696C340.302 83.8722 339.469 84.831 338.763 86.046L338.74 102.318L334.66 102.312L334.693 78.8882L338.533 78.8937L338.528 82.3977C339.394 81.0869 340.355 80.0803 341.412 79.3778C342.501 78.6754 343.67 78.325 344.918 78.3268ZM362.117 78.9273L362.083 102.351L358.003 102.346L358.037 78.9215L362.117 78.9273ZM360.066 69.4684C360.93 69.4696 361.586 69.6626 362.033 70.0472C362.513 70.4319 362.752 70.9762 362.751 71.6802L362.749 73.0722C362.748 73.7762 362.507 74.3199 362.027 74.7032C361.578 75.0546 360.922 75.2296 360.058 75.2284C359.226 75.2272 358.57 75.0503 358.091 74.6976C357.643 74.313 357.42 73.7686 357.421 73.0646L357.423 71.6726C357.424 70.9686 357.649 70.425 358.097 70.0416C358.578 69.6583 359.234 69.4672 360.066 69.4684ZM376.499 78.3719C379.187 78.3757 381.234 79.1146 382.64 80.5886C384.046 82.0627 384.746 84.1917 384.743 86.9757L384.735 91.9196L372.399 91.902L372.395 94.734C372.393 96.366 372.775 97.5506 373.542 98.2877C374.341 98.9928 375.589 99.3466 377.285 99.349C378.949 99.3514 381.029 99.0984 383.526 98.5899L383.617 102.142C380.64 102.682 378.512 102.951 377.232 102.949C374.064 102.944 371.777 102.253 370.371 100.875C368.997 99.4972 368.312 97.3682 368.316 94.4882L368.327 86.9522C368.331 84.1682 369.006 82.0412 370.352 80.5711C371.73 79.1011 373.779 78.368 376.499 78.3719ZM376.494 81.7799C375.246 81.7781 374.253 82.1767 373.516 82.9756C372.779 83.7426 372.41 84.862 372.407 86.334L372.404 88.638L380.66 88.6498L380.663 86.4898C380.665 84.9538 380.283 83.7853 379.516 82.9842C378.781 82.1831 377.774 81.7817 376.494 81.7799ZM397.008 78.4011C398.352 78.4031 399.967 78.5974 401.855 78.9841L401.754 82.4399C400.09 82.0536 398.571 81.8594 397.195 81.8574C394.315 81.8533 392.873 82.7793 392.871 84.6353L392.87 85.0672C392.869 85.6432 393.013 86.1075 393.3 86.4599C393.62 86.8123 394.179 87.1811 394.978 87.5663L399.487 89.6847C402.206 90.9686 403.563 92.8425 403.559 95.3065L403.558 96.3625C403.523 98.5705 402.848 100.234 401.535 101.352C400.253 102.438 398.22 102.979 395.436 102.975C393.996 102.973 391.933 102.634 389.246 101.958L389.443 98.3104C391.842 99.0178 393.81 99.3726 395.346 99.3748C396.914 99.377 398.002 99.1706 398.61 98.7555C399.219 98.3083 399.524 97.5888 399.526 96.5968L399.526 96.1168C399.527 95.3488 399.368 94.7405 399.049 94.2921C398.761 93.8437 398.266 93.459 397.562 93.138L392.909 91.0673C391.502 90.4253 390.463 89.6558 389.793 88.7589C389.154 87.8619 388.835 86.8215 388.837 85.6375L388.838 84.9655C388.905 82.7896 389.58 81.1585 390.861 80.0724C392.175 78.9543 394.224 78.3972 397.008 78.4011Z" fill="black"/>
</svg>
