<svg width="286" height="84" viewBox="0 0 286 84" fill="none" xmlns="http://www.w3.org/2000/svg">
<rect x="0.5" y="0.5" width="285" height="83" fill="white" stroke="black"/>
<path d="M257 16.125H215C211.7 16.125 209 18.8625 209 22.2083V64.7917C209 68.1375 211.7 70.875 215 70.875H257C260.3 70.875 263 68.1375 263 64.7917V22.2083C263 18.8625 260.3 16.125 257 16.125ZM227 58.7083H221V43.5H227V58.7083ZM239 58.7083H233V49.5833H239V58.7083ZM239 43.5H233V37.4167H239V43.5ZM251 58.7083H245V28.2917H251V58.7083Z" fill="black"/>
<path d="M14.872 27.456V29.448C15.496 29.4 16.288 29.376 17.08 29.376H25.36C26.056 29.376 26.896 29.4 27.592 29.448V27.456C26.896 27.552 26.056 27.6 25.36 27.6H17.056C16.288 27.6 15.568 27.528 14.872 27.456ZM12.04 33.48V35.472C12.688 35.424 13.384 35.424 14.104 35.424H21.304C21.232 37.704 20.968 39.72 19.912 41.376C18.976 42.888 17.248 44.28 15.376 45.048L17.152 46.368C19.192 45.312 21.016 43.584 21.88 42C22.84 40.2 23.224 38.016 23.296 35.424H29.824C30.4 35.424 31.168 35.448 31.696 35.472V33.48C31.12 33.576 30.328 33.6 29.824 33.6H14.104C13.36 33.6 12.688 33.552 12.04 33.48ZM28.84 25.512L27.568 26.04C28.216 26.952 29.032 28.392 29.512 29.376L30.808 28.8C30.328 27.816 29.44 26.352 28.84 25.512ZM31.48 24.552L30.208 25.08C30.904 25.992 31.672 27.336 32.2 28.392L33.496 27.816C33.04 26.928 32.104 25.416 31.48 24.552ZM36.448 34.608V36.96C37.192 36.888 38.464 36.84 39.784 36.84H52.96C54.04 36.84 55.048 36.936 55.528 36.96V34.608C55 34.656 54.136 34.728 52.936 34.728H39.784C38.44 34.728 37.168 34.656 36.448 34.608ZM70.864 26.16L68.68 25.464C68.536 26.088 68.152 26.928 67.912 27.36C66.784 29.544 64.336 33.144 60.208 35.712L61.816 36.96C64.504 35.112 66.64 32.76 68.176 30.6H76.288C75.808 32.568 74.584 35.16 73.024 37.248C71.344 36.072 69.544 34.92 67.96 34.008L66.664 35.328C68.2 36.288 70.024 37.536 71.752 38.784C69.592 41.112 66.52 43.32 62.464 44.568L64.192 46.056C68.248 44.544 71.2 42.336 73.336 39.96C74.32 40.752 75.232 41.496 75.952 42.144L77.368 40.488C76.6 39.864 75.64 39.12 74.632 38.376C76.456 35.928 77.752 33.12 78.376 30.912C78.52 30.528 78.736 29.952 78.952 29.616L77.368 28.656C76.96 28.8 76.432 28.896 75.784 28.896H69.28C69.472 28.608 69.64 28.32 69.784 28.032C70.024 27.6 70.456 26.784 70.864 26.16ZM89.392 26.328L87.496 27.12C88.6 29.736 89.872 32.544 90.976 34.512C88.408 36.312 86.824 38.256 86.824 40.728C86.824 44.328 90.088 45.672 94.6 45.672C97.6 45.672 100.36 45.384 102.184 45.072V42.936C100.312 43.416 97.12 43.752 94.504 43.752C90.712 43.752 88.816 42.504 88.816 40.512C88.816 38.688 90.16 37.104 92.392 35.664C94.744 34.104 98.056 32.52 99.688 31.68C100.384 31.32 100.984 31.008 101.536 30.672L100.48 28.968C99.976 29.376 99.472 29.688 98.776 30.096C97.456 30.816 94.864 32.088 92.608 33.456C91.552 31.56 90.352 28.968 89.392 26.328ZM113.632 39.168V36.36H115.792V39.168H113.632ZM110.176 36.36H112.336V39.168H110.128C110.176 38.52 110.176 37.872 110.176 37.296V36.36ZM113.776 28.464C113.488 29.304 113.08 30.24 112.72 30.96H109.96C110.392 30.192 110.776 29.352 111.16 28.464H113.776ZM113.632 32.376H115.792V35.016H113.632V32.376ZM110.176 32.376H112.336V35.016H110.176V32.376ZM126.712 27.648C126.568 30.432 126.352 31.536 126.088 31.848C125.92 32.064 125.728 32.088 125.416 32.064C125.08 32.064 124.192 32.064 123.256 31.968C123.472 32.376 123.616 33 123.664 33.456C124.648 33.504 125.632 33.528 126.136 33.48C126.76 33.432 127.12 33.264 127.432 32.88C127.96 32.304 128.152 30.768 128.344 26.808C128.368 26.592 128.368 26.136 128.368 26.136H118V27.648H121.24C120.784 29.904 119.824 31.8 117.304 32.904V30.96H114.304C114.856 29.928 115.408 28.704 115.816 27.648L114.76 26.976L114.496 27.048H111.688C111.88 26.472 112.072 25.872 112.24 25.272L110.584 24.912C109.864 27.84 108.544 30.672 106.84 32.496C107.224 32.736 107.92 33.288 108.184 33.576C108.352 33.384 108.52 33.168 108.688 32.928V37.296C108.688 39.984 108.52 43.536 106.912 46.056C107.272 46.224 107.944 46.608 108.184 46.872C109.312 45.144 109.816 42.792 110.032 40.56H115.792V44.88C115.792 45.192 115.672 45.288 115.336 45.312C115.024 45.336 113.944 45.336 112.696 45.288C112.936 45.696 113.2 46.392 113.272 46.8C114.928 46.8 115.888 46.776 116.488 46.512C117.112 46.248 117.304 45.744 117.304 44.88V32.928C117.64 33.216 118.072 33.744 118.264 34.128C121.216 32.784 122.368 30.48 122.872 27.648H126.712ZM129.016 40.68H124.456V37.728H128.608V36.192H124.456V33.744H122.752V36.192H120.664C120.856 35.568 121.024 34.92 121.168 34.272L119.656 33.96C119.224 36 118.504 37.968 117.448 39.336C117.856 39.528 118.552 39.864 118.84 40.08C119.296 39.432 119.728 38.616 120.088 37.728H122.752V40.68H117.712V42.216H122.752V46.704H124.456V42.216H129.016V40.68ZM140.08 37.944C139.576 37.296 137.464 34.68 136.72 33.84V31.728H140.008V30.048H136.72V24.912H135.04V30.048H131.32V31.728H134.8C134.008 35.016 132.376 38.76 130.768 40.752C131.056 41.184 131.512 41.88 131.704 42.36C132.928 40.752 134.128 38.088 135.04 35.352V46.8H136.72V35.952C137.56 37.128 138.544 38.592 138.976 39.384L140.08 37.944ZM153.016 33.072H143.368V28.824C146.368 28.296 149.632 27.528 151.936 26.568L150.424 25.2C148.696 25.968 145.864 26.76 143.152 27.312L141.64 26.856V33.6C141.64 37.176 141.376 42 138.688 45.552C139.096 45.792 139.792 46.368 140.032 46.728C142.672 43.224 143.272 38.448 143.344 34.776H147.688V46.824H149.464V34.776H153.016V33.072Z" fill="black"/>
</svg>
