<svg width="286" height="84" viewBox="0 0 286 84" fill="none" xmlns="http://www.w3.org/2000/svg">
<rect x="0.5" y="0.5" width="285" height="83" fill="white" stroke="black"/>
<path d="M219.08 64.1225L219.83 70.875L224.69 66.1908L233 43.0742C230.96 42.5571 229.16 41.5229 227.69 40.0933L219.08 64.1225Z" fill="black"/>
<path d="M244.31 40.0933C242.84 41.5229 241.01 42.5571 239 43.0742L247.31 66.1908L252.17 70.875L252.95 64.1225L244.31 40.0933Z" fill="black"/>
<path d="M245 31.3333C245 27.3792 242.48 24.0333 239 22.7558V16.125H233V22.7558C229.52 24.0333 227 27.3792 227 31.3333C227 36.3825 231.02 40.4583 236 40.4583C240.98 40.4583 245 36.3825 245 31.3333ZM236 34.375C234.35 34.375 233 33.0063 233 31.3333C233 29.6604 234.35 28.2917 236 28.2917C237.65 28.2917 239 29.6604 239 31.3333C239 33.0063 237.65 34.375 236 34.375Z" fill="black"/>
<path d="M15.872 31.456V33.448C16.496 33.4 17.288 33.376 18.08 33.376H26.36C27.056 33.376 27.896 33.4 28.592 33.448V31.456C27.896 31.552 27.056 31.6 26.36 31.6H18.056C17.288 31.6 16.568 31.528 15.872 31.456ZM13.04 37.48V39.472C13.688 39.424 14.384 39.424 15.104 39.424H22.304C22.232 41.704 21.968 43.72 20.912 45.376C19.976 46.888 18.248 48.28 16.376 49.048L18.152 50.368C20.192 49.312 22.016 47.584 22.88 46C23.84 44.2 24.224 42.016 24.296 39.424H30.824C31.4 39.424 32.168 39.448 32.696 39.472V37.48C32.12 37.576 31.328 37.6 30.824 37.6H15.104C14.36 37.6 13.688 37.552 13.04 37.48ZM29.84 29.512L28.568 30.04C29.216 30.952 30.032 32.392 30.512 33.376L31.808 32.8C31.328 31.816 30.44 30.352 29.84 29.512ZM32.48 28.552L31.208 29.08C31.904 29.992 32.672 31.336 33.2 32.392L34.496 31.816C34.04 30.928 33.104 29.416 32.48 28.552ZM52.28 37.984V37.12H54.92C55.976 37.12 56.864 37.168 57.128 37.192V35.176C56.792 35.224 55.976 35.296 54.92 35.296H52.28V32.296C52.28 31.36 52.376 30.568 52.4 30.328H50.24C50.288 30.568 50.36 31.36 50.36 32.296V35.296H43.52V32.224C43.52 31.384 43.616 30.712 43.64 30.472H41.504C41.576 31.024 41.6 31.72 41.6 32.224V35.296H39.008C38 35.296 36.824 35.176 36.608 35.128V37.216C36.896 37.192 37.976 37.12 39.008 37.12H41.6V41.008C41.6 41.92 41.528 42.952 41.504 43.192H43.616C43.592 42.952 43.52 41.896 43.52 41.008V37.12H50.36V38.128C50.36 44.848 48.176 46.912 43.808 48.592L45.416 50.104C50.912 47.656 52.28 44.368 52.28 37.984ZM61.064 40.336L62.024 42.208C65.36 41.176 68.648 39.736 71.168 38.296V47.176C71.168 48.088 71.096 49.288 71.024 49.744H73.376C73.28 49.264 73.232 48.088 73.232 47.176V37.048C75.68 35.416 77.888 33.592 79.712 31.696L78.104 30.208C76.448 32.2 74.048 34.288 71.552 35.848C68.888 37.528 65.216 39.208 61.064 40.336ZM88.448 31.408L87.08 32.872C88.856 34.072 91.856 36.64 93.056 37.888L94.568 36.376C93.224 35.032 90.152 32.536 88.448 31.408ZM86.384 47.488L87.656 49.456C91.664 48.712 94.688 47.248 97.088 45.736C100.712 43.456 103.52 40.192 105.152 37.192L104 35.152C102.608 38.104 99.68 41.656 95.984 43.984C93.704 45.4 90.584 46.864 86.384 47.488ZM113.336 48.136L115.136 49.648C119.048 47.848 121.76 45.136 123.632 42.256C125.384 39.544 126.344 36.544 126.92 33.688C127.016 33.256 127.208 32.416 127.4 31.792L125 31.456C125.024 31.888 124.928 32.8 124.808 33.424C124.424 35.656 123.656 38.512 121.808 41.248C120.032 43.912 117.32 46.504 113.336 48.136ZM111.872 31.744L109.976 32.704C110.96 34.096 112.952 37.504 113.984 39.64L115.904 38.56C115.04 37 112.928 33.304 111.872 31.744ZM151.664 33.04L150.2 32.104C149.744 32.224 149.288 32.224 148.928 32.224H136.88C136.088 32.224 135.152 32.152 134.48 32.08V34.192C135.104 34.168 135.92 34.12 136.88 34.12H149.144C148.808 36.424 147.704 39.76 146 41.944C143.984 44.512 141.296 46.552 136.64 47.728L138.272 49.528C142.688 48.136 145.544 45.904 147.728 43.096C149.624 40.624 150.8 36.76 151.304 34.24C151.4 33.784 151.496 33.376 151.664 33.04ZM163.088 46.888C163.088 47.776 163.04 48.952 162.92 49.72H165.248C165.152 48.928 165.104 47.632 165.104 46.888C165.104 46.192 165.104 42.568 165.08 38.968C167.744 39.808 171.896 41.416 174.512 42.832L175.328 40.792C172.808 39.52 168.248 37.792 165.08 36.832C165.08 35.32 165.08 33.928 165.08 32.92C165.08 32.2 165.176 31.168 165.248 30.424H162.896C163.04 31.168 163.088 32.248 163.088 32.92V46.888Z" fill="black"/>
</svg>
