<svg width="286" height="84" viewBox="0 0 286 84" fill="none" xmlns="http://www.w3.org/2000/svg">
<rect x="0.5" y="0.5" width="285" height="83" fill="white" stroke="black"/>
<path d="M266 27.2917V66.8333H209V60.75H260V27.2917H266ZM254 54.6667H200V18.1667H254V54.6667ZM236 36.4167C236 31.3675 231.98 27.2917 227 27.2917C222.02 27.2917 218 31.3675 218 36.4167C218 41.4658 222.02 45.5417 227 45.5417C231.98 45.5417 236 41.4658 236 36.4167Z" fill="black"/>
<path d="M31.664 29.04L30.2 28.104C29.744 28.224 29.288 28.224 28.928 28.224H16.88C16.088 28.224 15.152 28.152 14.48 28.08V30.192C15.104 30.168 15.92 30.12 16.88 30.12H29.144C28.808 32.424 27.704 35.76 26 37.944C23.984 40.512 21.296 42.552 16.64 43.728L18.272 45.528C22.688 44.136 25.544 41.904 27.728 39.096C29.624 36.624 30.8 32.76 31.304 30.24C31.4 29.784 31.496 29.376 31.664 29.04ZM37.4593 38.808L38.3713 40.584C41.0833 39.744 43.8673 38.496 45.8833 37.416V44.76C45.8833 45.504 45.8353 46.488 45.7873 46.872H47.9953C47.8993 46.488 47.8753 45.504 47.8753 44.76V36.216C50.0593 34.8 52.0993 33.048 53.2993 31.728L51.8113 30.288C50.5873 31.824 48.3793 33.792 46.0993 35.184C44.1553 36.384 40.6273 38.064 37.4593 38.808ZM63.9793 27.408L62.6113 28.872C64.3873 30.072 67.3873 32.64 68.5873 33.888L70.0993 32.376C68.7553 31.032 65.6833 28.536 63.9793 27.408ZM61.9153 43.488L63.1873 45.456C67.1953 44.712 70.2193 43.248 72.6193 41.736C76.2433 39.456 79.0513 36.192 80.6833 33.192L79.5313 31.152C78.1393 34.104 75.2113 37.656 71.5153 39.984C69.2353 41.4 66.1153 42.864 61.9153 43.488ZM87.6913 27.24V29.232C88.2913 29.184 89.0833 29.16 89.8753 29.16H99.5713C100.267 29.16 101.107 29.184 101.803 29.232V27.24C101.107 27.336 100.243 27.384 99.5713 27.384H89.8513C89.0833 27.384 88.3633 27.312 87.6913 27.24ZM84.8113 33.264V35.256C85.4833 35.208 86.1793 35.208 86.8993 35.208H94.0993C94.0273 37.464 93.7633 39.48 92.7073 41.16C91.7713 42.672 90.0433 44.064 88.1713 44.832L89.9473 46.152C91.9873 45.096 93.8113 43.368 94.6753 41.76C95.6353 39.984 96.0193 37.8 96.0912 35.208H102.619C103.195 35.208 103.963 35.232 104.491 35.256V33.264C103.915 33.36 103.123 33.384 102.619 33.384H86.8993C86.1553 33.384 85.4833 33.336 84.8113 33.264ZM118.123 31.176L116.371 31.776C116.875 32.856 117.979 35.904 118.243 36.984L120.019 36.36C119.707 35.304 118.531 32.136 118.123 31.176ZM126.811 32.52L124.747 31.872C124.387 34.944 123.139 37.992 121.435 40.08C119.467 42.552 116.419 44.376 113.635 45.192L115.219 46.8C117.907 45.768 120.835 43.92 123.043 41.088C124.771 38.928 125.803 36.36 126.451 33.72C126.547 33.408 126.643 33.024 126.811 32.52ZM112.555 32.376L110.779 33.072C111.259 33.912 112.555 37.224 112.915 38.472L114.739 37.8C114.283 36.552 113.035 33.408 112.555 32.376ZM143.419 26.352L141.187 25.632C141.043 26.256 140.683 27.12 140.443 27.528C139.411 29.688 137.035 33.168 132.907 35.64L134.563 36.888C137.179 35.136 139.195 33 140.659 30.984H148.771C148.267 33.168 146.803 36.264 144.931 38.472C142.747 41.016 139.747 43.2 135.355 44.496L137.083 46.056C141.595 44.4 144.451 42.192 146.635 39.528C148.771 36.936 150.259 33.696 150.907 31.272C151.027 30.888 151.267 30.336 151.459 30L149.851 29.016C149.467 29.184 148.939 29.256 148.291 29.256H141.787C142.003 28.92 142.195 28.584 142.363 28.248C142.579 27.792 143.011 26.976 143.419 26.352Z" fill="black"/>
</svg>
