<svg width="286" height="84" viewBox="0 0 286 84" fill="none" xmlns="http://www.w3.org/2000/svg">
<rect x="0.5" y="0.5" width="285" height="83" fill="white" stroke="black"/>
<path d="M30.24 30.04L28.968 30.592C29.616 31.504 30.432 32.944 30.912 33.904L32.208 33.328C31.728 32.368 30.84 30.904 30.24 30.04ZM32.88 29.08L31.608 29.632C32.304 30.52 33.072 31.888 33.6 32.92L34.896 32.344C34.44 31.456 33.528 29.968 32.88 29.08ZM21.552 30.928L19.224 30.472C19.176 31.096 19.056 31.768 18.864 32.392C18.6 33.328 18.168 34.552 17.52 35.752C16.68 37.216 14.976 39.664 13.248 40.912L15.144 42.04C16.536 40.888 18.168 38.704 19.128 36.904H25.296C24.936 43 22.344 46.144 19.992 47.92C19.464 48.352 18.744 48.76 18.048 49.024L20.088 50.416C24.216 47.776 26.904 43.768 27.288 36.904H31.368C31.92 36.904 32.856 36.928 33.6 36.976V34.912C32.904 35.008 31.944 35.032 31.368 35.032H20.016C20.4 34.168 20.688 33.304 20.928 32.608C21.096 32.128 21.336 31.48 21.552 30.928ZM38.448 38.608V40.96C39.192 40.888 40.464 40.84 41.784 40.84H54.96C56.04 40.84 57.048 40.936 57.528 40.96V38.608C57 38.656 56.136 38.728 54.936 38.728H41.784C40.44 38.728 39.168 38.656 38.448 38.608ZM66.888 30.832L66.192 32.608C69.504 33.04 75.792 34.408 78.72 35.464L79.488 33.616C76.464 32.56 70.008 31.216 66.888 30.832ZM65.808 37.168L65.088 38.968C68.496 39.472 74.352 40.792 77.136 41.896L77.904 40.048C74.904 38.944 69.096 37.72 65.808 37.168ZM64.488 44.152L63.744 45.976C67.632 46.6 74.76 48.208 77.952 49.6L78.768 47.752C75.48 46.432 68.52 44.776 64.488 44.152ZM89.448 31.408L88.08 32.872C89.856 34.072 92.856 36.64 94.056 37.888L95.568 36.376C94.224 35.032 91.152 32.536 89.448 31.408ZM87.384 47.488L88.656 49.456C92.664 48.712 95.688 47.248 98.088 45.736C101.712 43.456 104.52 40.192 106.152 37.192L105 35.152C103.608 38.104 100.68 41.656 96.984 43.984C94.704 45.4 91.584 46.864 87.384 47.488ZM126.36 29.8L125.088 30.352C125.736 31.24 126.552 32.704 127.032 33.664L128.328 33.088C127.824 32.104 126.96 30.664 126.36 29.8ZM129 28.84L127.728 29.392C128.4 30.28 129.192 31.648 129.72 32.68L131.016 32.104C130.56 31.216 129.624 29.728 129 28.84ZM119.904 30.952L117.696 30.208C117.552 30.832 117.192 31.696 116.952 32.128C115.896 34.264 113.544 37.768 109.416 40.24L111.072 41.464C113.712 39.736 115.704 37.6 117.168 35.56H125.256C124.776 37.744 123.288 40.864 121.44 43.048C119.256 45.616 116.256 47.776 111.84 49.072L113.592 50.656C118.08 48.976 120.96 46.792 123.144 44.128C125.28 41.512 126.744 38.272 127.392 35.848C127.512 35.464 127.752 34.912 127.944 34.576L126.36 33.616C125.976 33.76 125.448 33.832 124.8 33.832H118.296C118.488 33.496 118.68 33.16 118.848 32.824C119.088 32.392 119.52 31.576 119.904 30.952Z" fill="black"/>
<path d="M267 25.25H201V61.75H267V25.25ZM231 46.5417H222V55.6667H216V46.5417H207V40.4583H216V31.3333H222V40.4583H231V46.5417ZM244.5 52.625C242.01 52.625 240 50.5871 240 48.0625C240 45.5379 242.01 43.5 244.5 43.5C246.99 43.5 249 45.5379 249 48.0625C249 50.5871 246.99 52.625 244.5 52.625ZM256.5 43.5C254.01 43.5 252 41.4621 252 38.9375C252 36.4129 254.01 34.375 256.5 34.375C258.99 34.375 261 36.4129 261 38.9375C261 41.4621 258.99 43.5 256.5 43.5Z" fill="black"/>
</svg>
