<svg width="286" height="84" viewBox="0 0 286 84" fill="none" xmlns="http://www.w3.org/2000/svg">
<rect x="0.5" y="0.5" width="285" height="83" fill="white" stroke="black"/>
<path d="M241.95 37.4167C239.49 30.3296 232.83 25.25 225 25.25C215.07 25.25 207 33.4321 207 43.5C207 53.5679 215.07 61.75 225 61.75C232.83 61.75 239.49 56.6704 241.95 49.5833H255V61.75H267V49.5833H273V37.4167H241.95ZM225 49.5833C221.7 49.5833 219 46.8458 219 43.5C219 40.1542 221.7 37.4167 225 37.4167C228.3 37.4167 231 40.1542 231 43.5C231 46.8458 228.3 49.5833 225 49.5833Z" fill="black"/>
<path d="M22.344 44.904C22.344 47.28 23.16 48.432 27.624 48.432C30.624 48.432 33.024 48.264 35.16 47.952L35.256 45.888C32.856 46.344 30.552 46.584 27.768 46.584C24.912 46.584 24.288 46.056 24.288 44.4V37.248C28.536 36.384 32.952 35.496 33.36 35.424C32.64 36.864 30.888 39.504 29.088 41.136L30.768 42.144C32.688 40.152 34.584 37.152 35.688 35.16C35.856 34.848 36.096 34.44 36.264 34.2L34.848 33.096C34.56 33.264 34.104 33.408 33.576 33.528C32.568 33.744 28.368 34.608 24.288 35.4V31.656C24.288 30.96 24.336 30.144 24.456 29.448H22.176C22.296 30.144 22.344 30.936 22.344 31.656V35.76C19.8 36.24 17.52 36.648 16.44 36.792L16.8 38.784C17.784 38.568 19.92 38.136 22.344 37.632V44.904ZM48.408 31.032C48.48 31.32 48.648 32.256 48.912 33.552C46.656 33.912 44.568 34.224 43.632 34.32C42.864 34.416 42.24 34.464 41.64 34.488L42.048 36.648C42.768 36.48 43.32 36.36 43.992 36.24C44.904 36.072 46.992 35.736 49.272 35.376C49.56 36.864 49.896 38.568 50.232 40.2C47.496 40.632 44.88 41.04 43.68 41.208C43.056 41.304 42.12 41.4 41.568 41.424L42 43.512C42.504 43.368 43.176 43.248 44.112 43.08C45.288 42.864 47.856 42.432 50.568 41.976C51.024 44.352 51.408 46.296 51.504 46.824C51.672 47.544 51.744 48.264 51.864 49.08L54.048 48.672C53.832 48 53.64 47.184 53.472 46.488C53.352 45.936 52.968 44.016 52.488 41.664C54.84 41.304 57.072 40.944 58.392 40.728C59.28 40.584 60.048 40.464 60.552 40.416L60.168 38.4C59.64 38.544 58.968 38.688 58.032 38.856C56.832 39.072 54.552 39.48 52.128 39.864C51.816 38.256 51.48 36.552 51.168 35.064C53.472 34.704 55.656 34.344 56.76 34.176C57.384 34.08 58.128 33.984 58.488 33.936L58.08 31.92C57.672 32.04 57.072 32.208 56.376 32.328C55.368 32.52 53.16 32.88 50.832 33.264C50.544 31.92 50.376 30.936 50.328 30.672C50.256 30.144 50.136 29.472 50.112 29.016L47.952 29.4C48.12 29.88 48.288 30.408 48.408 31.032ZM80.688 36.576L79.224 35.88C79.008 35.976 78.408 36.048 78.024 36.048H70.728C70.128 36.048 69.408 35.976 68.832 35.904V37.92C69.432 37.896 70.056 37.848 70.752 37.848H78.384C78.312 39.216 77.616 43.896 77.256 45.912H68.568C67.848 45.912 67.152 45.864 66.576 45.816V47.808C67.272 47.76 67.824 47.736 68.568 47.736H81.72C82.224 47.736 83.112 47.76 83.544 47.784V45.84C83.04 45.888 82.176 45.912 81.648 45.912H79.296C79.632 43.704 80.328 38.952 80.52 37.32C80.544 37.128 80.616 36.816 80.688 36.576ZM105.624 29.784H103.368C103.44 30.384 103.488 31.056 103.488 31.872V35.664C103.488 40.2 103.2 42.144 101.496 44.136C100.008 45.816 97.968 46.776 95.76 47.328L97.32 48.984C99.072 48.384 101.472 47.352 103.032 45.48C104.76 43.416 105.552 41.52 105.552 35.76V31.872C105.552 31.056 105.576 30.384 105.624 29.784ZM94.488 29.976H92.304C92.352 30.432 92.4 31.272 92.4 31.704V39.696C92.4 40.416 92.328 41.184 92.28 41.544H94.488C94.44 41.112 94.392 40.32 94.392 39.72V31.704C94.392 31.128 94.44 30.432 94.488 29.976ZM116.16 30.24V32.232C116.76 32.184 117.552 32.16 118.344 32.16H128.04C128.736 32.16 129.576 32.184 130.272 32.232V30.24C129.576 30.336 128.712 30.384 128.04 30.384H118.32C117.552 30.384 116.832 30.312 116.16 30.24ZM113.28 36.264V38.256C113.952 38.208 114.648 38.208 115.368 38.208H122.568C122.496 40.464 122.232 42.48 121.176 44.16C120.24 45.672 118.512 47.064 116.64 47.832L118.416 49.152C120.456 48.096 122.28 46.368 123.144 44.76C124.104 42.984 124.488 40.8 124.56 38.208H131.088C131.664 38.208 132.432 38.232 132.96 38.256V36.264C132.384 36.36 131.592 36.384 131.088 36.384H115.368C114.624 36.384 113.952 36.336 113.28 36.264ZM137.064 39.336L138.024 41.208C141.36 40.176 144.648 38.736 147.168 37.296V46.176C147.168 47.088 147.096 48.288 147.024 48.744H149.376C149.28 48.264 149.232 47.088 149.232 46.176V36.048C151.68 34.416 153.888 32.592 155.712 30.696L154.104 29.208C152.448 31.2 150.048 33.288 147.552 34.848C144.888 36.528 141.216 38.208 137.064 39.336Z" fill="black"/>
</svg>
