<svg width="286" height="84" viewBox="0 0 286 84" fill="none" xmlns="http://www.w3.org/2000/svg">
<rect x="0.5" y="0.5" width="285" height="83" fill="white" stroke="black"/>
<path d="M29.376 39.76C28.152 42.136 26.304 43.984 24.024 45.4C21.864 43.912 20.184 42.04 19.032 39.76H29.376ZM30.72 37.936L30.384 38.008H24.864V34.312H34.008V32.584H24.864V28.936H23.04V32.584H13.944V34.312H23.04V38.008H15.024V39.76H18.816L17.376 40.264C18.6 42.712 20.256 44.728 22.344 46.36C19.608 47.728 16.416 48.616 13.032 49.144C13.368 49.528 13.848 50.368 13.992 50.824C17.592 50.176 21 49.12 23.952 47.488C26.664 49.168 29.976 50.296 33.864 50.896C34.104 50.392 34.584 49.6 34.992 49.216C31.392 48.736 28.248 47.8 25.68 46.408C28.416 44.512 30.6 42.016 31.944 38.68L30.72 37.936ZM46.416 39.232L42.72 40.144V35.464H46.224V33.808H42.72V28.912H41.016V33.808H37.2V35.464H41.016V40.552C39.432 40.936 37.992 41.272 36.864 41.512L37.296 43.264C38.4 42.976 39.672 42.64 41.016 42.304V48.64C41.016 49.048 40.872 49.144 40.512 49.168C40.152 49.192 38.904 49.216 37.608 49.168C37.848 49.624 38.064 50.392 38.16 50.848C39.984 50.848 41.112 50.8 41.784 50.536C42.48 50.248 42.72 49.744 42.72 48.64V41.848C43.992 41.512 45.312 41.176 46.584 40.84L46.416 39.232ZM59.184 50.128C58.488 47.464 56.496 43.264 54.528 40.024L53.016 40.624C54.192 42.592 55.344 44.968 56.208 47.104C53.4 47.44 50.568 47.752 48.096 48.04C49.632 42.952 51.336 35.68 52.416 29.92L50.496 29.584C49.584 35.368 47.808 43.144 46.248 48.232C45.36 48.352 44.544 48.424 43.824 48.496L44.208 50.344C47.496 49.936 52.296 49.312 56.832 48.688C57.12 49.456 57.336 50.2 57.504 50.824L59.184 50.128ZM65.352 32.248L63.024 32.2C63.168 32.776 63.192 33.784 63.192 34.336C63.192 35.728 63.24 38.656 63.456 40.744C64.104 46.96 66.288 49.216 68.568 49.216C70.176 49.216 71.64 47.824 73.08 43.744L71.568 42.04C70.944 44.44 69.816 46.936 68.592 46.936C66.888 46.936 65.712 44.272 65.328 40.264C65.16 38.272 65.136 36.088 65.16 34.576C65.16 33.952 65.256 32.824 65.352 32.248ZM77.856 32.92L75.984 33.568C78.288 36.376 79.728 41.296 80.16 45.64L82.08 44.848C81.72 40.792 79.992 35.704 77.856 32.92Z" fill="black"/>
<path d="M264 18.1667H204V66.8333H264V18.1667ZM258 60.75H210V42.5H258V60.75ZM258 30.3333H210V24.25H258V30.3333Z" fill="black"/>
</svg>
