<svg width="286" height="84" viewBox="0 0 286 84" fill="none" xmlns="http://www.w3.org/2000/svg">
<rect x="0.5" y="0.5" width="285" height="83" fill="white" stroke="black"/>
<path d="M21.336 47.136L23.136 48.648C27.048 46.848 29.76 44.136 31.632 41.256C33.384 38.544 34.344 35.544 34.92 32.688C35.016 32.256 35.208 31.416 35.4 30.792L33 30.456C33.024 30.888 32.928 31.8 32.808 32.424C32.424 34.656 31.656 37.512 29.808 40.248C28.032 42.912 25.32 45.504 21.336 47.136ZM19.872 30.744L17.976 31.704C18.96 33.096 20.952 36.504 21.984 38.64L23.904 37.56C23.04 36 20.928 32.304 19.872 30.744ZM59.664 32.04L58.2 31.104C57.744 31.224 57.288 31.224 56.928 31.224H44.88C44.088 31.224 43.152 31.152 42.48 31.08V33.192C43.104 33.168 43.92 33.12 44.88 33.12H57.144C56.808 35.424 55.704 38.76 54 40.944C51.984 43.512 49.296 45.552 44.64 46.728L46.272 48.528C50.688 47.136 53.544 44.904 55.728 42.096C57.624 39.624 58.8 35.76 59.304 33.24C59.4 32.784 59.496 32.376 59.664 32.04ZM71.088 45.888C71.088 46.776 71.04 47.952 70.92 48.72H73.248C73.152 47.928 73.104 46.632 73.104 45.888C73.104 45.192 73.104 41.568 73.08 37.968C75.744 38.808 79.896 40.416 82.512 41.832L83.328 39.792C80.808 38.52 76.248 36.792 73.08 35.832C73.08 34.32 73.08 32.928 73.08 31.92C73.08 31.2 73.176 30.168 73.248 29.424H70.896C71.04 30.168 71.088 31.248 71.088 31.92V45.888ZM99.984 28.776H97.68C97.776 29.52 97.8 30.072 97.8 30.576V32.808H92.496C91.656 32.808 90.96 32.784 90.264 32.712C90.336 33.24 90.336 34.056 90.336 34.56V38.784C90.336 39.24 90.312 39.888 90.264 40.32H92.352C92.28 39.936 92.256 39.312 92.256 38.88V34.584H105.672C105.456 36.648 104.688 39.552 103.392 41.592C101.928 43.848 99.288 45.648 96.888 46.416C96.12 46.704 95.208 46.968 94.392 47.088L95.952 48.888C100.344 47.688 103.656 45.24 105.456 42.096C106.8 39.792 107.496 36.792 107.808 34.872C107.904 34.416 108.048 33.792 108.168 33.432L106.872 32.616C106.56 32.736 106.104 32.808 105.216 32.808H99.84V30.576C99.84 30.072 99.864 29.52 99.984 28.776ZM115.896 35.592V37.512C116.4 37.464 117.168 37.44 117.552 37.44H121.968V46.272H116.448C115.896 46.272 115.272 46.224 114.72 46.152V48.168C115.296 48.12 115.92 48.096 116.448 48.096H129.72C130.104 48.096 130.848 48.12 131.328 48.168V46.152C130.848 46.224 130.296 46.272 129.72 46.272H123.912V37.44H128.592C129.144 37.44 129.768 37.464 130.296 37.512V35.592C129.792 35.64 129.192 35.688 128.592 35.688H117.552C117.168 35.688 116.4 35.664 115.896 35.592ZM157.344 31.776L156.168 30.648C155.808 30.72 154.944 30.792 154.488 30.792H140.712C139.824 30.792 138.816 30.696 137.976 30.576V32.76C138.912 32.664 139.824 32.616 140.712 32.616H154.392C153.6 34.104 151.344 36.72 149.136 37.992L150.72 39.264C153.456 37.368 155.736 34.272 156.696 32.64C156.864 32.376 157.176 32.016 157.344 31.776ZM147.768 34.944H145.608C145.68 35.568 145.704 36.096 145.704 36.672C145.704 40.68 145.176 44.088 141.456 46.368C140.784 46.848 139.968 47.232 139.296 47.448L141.072 48.888C147.192 45.84 147.768 41.448 147.768 34.944Z" fill="black"/>
<path d="M228.675 54.0333L216.6 41L228.675 27.9667L225 24L209.25 41L225 58L228.675 54.0333ZM242.325 54.0333L254.4 41L242.325 27.9667L246 24L261.75 41L246 58L242.325 54.0333V54.0333Z" fill="black"/>
</svg>
