<svg width="150" height="150" viewBox="0 0 150 150" fill="none" xmlns="http://www.w3.org/2000/svg">
<rect x="0.5" y="0.5" width="149" height="149" fill="white" stroke="black"/>
<path d="M116.667 16.6667H33.3334V83.3333H116.667V16.6667ZM108.333 75H41.6667V50H108.333V75ZM108.333 33.3333H41.6667V25H108.333V33.3333Z" fill="black"/>
<path d="M22.5483 100.088H31.5843C34.1043 100.088 35.9643 100.616 37.1643 101.672C38.3883 102.704 39.0003 104.324 39.0003 106.532C39.0003 107.996 38.7363 109.172 38.2083 110.06C37.6803 110.924 36.8763 111.62 35.7963 112.148C37.1403 112.628 38.1363 113.348 38.7843 114.308C39.4323 115.268 39.7563 116.564 39.7563 118.196C39.7563 120.548 39.0963 122.276 37.7763 123.38C36.4803 124.46 34.5723 125 32.0523 125H22.5483V100.088ZM31.7283 111.14C33.2403 111.14 34.3563 110.78 35.0763 110.06C35.7963 109.316 36.1563 108.212 36.1563 106.748C36.1563 105.26 35.7843 104.192 35.0403 103.544C34.2963 102.872 33.1083 102.536 31.4763 102.536H25.3203V111.14H31.7283ZM31.9443 122.552C33.5763 122.552 34.8123 122.204 35.6523 121.508C36.5163 120.812 36.9483 119.684 36.9483 118.124C36.9483 116.444 36.4803 115.268 35.5443 114.596C34.6083 113.9 33.3483 113.552 31.7643 113.552H25.3203V122.552H31.9443ZM44.2639 107H46.9279V125H44.2639V107ZM44.2639 99.8H46.9279V102.932H44.2639V99.8ZM52.3197 99.152H55.0197V125H52.3197V99.152ZM60.6518 99.152H63.3518V125H60.6518V99.152ZM77.1459 100.088H86.2539C88.9659 100.088 90.9699 100.748 92.2659 102.068C93.5619 103.364 94.2099 105.38 94.2099 108.116C94.2099 113.78 91.5579 116.612 86.2539 116.612H79.9179V125H77.1459V100.088ZM86.2179 114.164C89.6499 114.164 91.3659 112.148 91.3659 108.116C91.3659 106.172 90.9579 104.756 90.1419 103.868C89.3259 102.98 88.0179 102.536 86.2179 102.536H79.9179V114.164H86.2179ZM101.766 125.36C100.11 125.36 98.85 124.892 97.986 123.956C97.122 123.02 96.69 121.676 96.69 119.924C96.69 118.196 97.122 116.912 97.986 116.072C98.874 115.232 100.278 114.716 102.198 114.524L107.85 113.984V112.436C107.85 110.156 106.866 109.016 104.898 109.016C102.954 109.016 100.59 109.172 97.806 109.484L97.698 107.432C100.266 106.904 102.606 106.64 104.718 106.64C106.758 106.64 108.234 107.108 109.146 108.044C110.082 108.956 110.55 110.42 110.55 112.436V121.652C110.622 122.54 111.318 123.068 112.638 123.236L112.53 125.36C110.634 125.36 109.206 124.88 108.246 123.92C106.11 124.88 103.95 125.36 101.766 125.36ZM102.198 123.092C103.806 123.092 105.414 122.816 107.022 122.264L107.85 121.976V116.036L102.522 116.54C101.442 116.636 100.662 116.948 100.182 117.476C99.702 118.004 99.462 118.772 99.462 119.78C99.462 121.988 100.374 123.092 102.198 123.092ZM121.785 125H119.121L114.009 107H116.709L121.209 122.66H122.397L126.933 107H129.633L122.145 132.992H119.445L121.785 125Z" fill="black"/>
</svg>
