<svg width="150" height="150" viewBox="0 0 150 150" fill="none" xmlns="http://www.w3.org/2000/svg">
<rect x="0.5" y="0.5" width="149" height="149" fill="white" stroke="black"/>
<path d="M87.5 37.5H62.5V62.5H87.5V37.5ZM79.1667 54.1667H70.8333V45.8333H79.1667V54.1667ZM112.5 45.8333V37.5H104.167V29.1667C104.167 24.5833 100.417 20.8333 95.8333 20.8333H87.5V12.5H79.1667V20.8333H70.8333V12.5H62.5V20.8333H54.1667C49.5833 20.8333 45.8333 24.5833 45.8333 29.1667V37.5H37.5V45.8333H45.8333V54.1667H37.5V62.5H45.8333V70.8333C45.8333 75.4167 49.5833 79.1667 54.1667 79.1667H62.5V87.5H70.8333V79.1667H79.1667V87.5H87.5V79.1667H95.8333C100.417 79.1667 104.167 75.4167 104.167 70.8333V62.5H112.5V54.1667H104.167V45.8333H112.5ZM95.8333 70.8333H54.1667V29.1667H95.8333V70.8333Z" fill="black"/>
<path d="M45.3177 125.36C42.7737 125.36 40.8177 124.892 39.4497 123.956C38.0817 122.996 37.1457 121.604 36.6417 119.78C36.1377 117.956 35.8857 115.544 35.8857 112.544C35.8857 109.568 36.1377 107.168 36.6417 105.344C37.1457 103.496 38.0577 102.104 39.3777 101.168C40.7217 100.208 42.6417 99.728 45.1377 99.728C47.0817 99.728 49.3257 99.992 51.8697 100.52L51.7617 102.86C49.3377 102.428 47.2497 102.212 45.4977 102.212C43.6257 102.212 42.2097 102.548 41.2497 103.22C40.2897 103.892 39.6297 104.972 39.2697 106.46C38.9337 107.948 38.7657 110.108 38.7657 112.94C38.7657 115.388 38.9217 117.308 39.2337 118.7C39.5697 120.068 40.2417 121.112 41.2497 121.832C42.2577 122.528 43.7817 122.876 45.8217 122.876C47.4777 122.876 49.4577 122.66 51.7617 122.228L51.8697 124.604C49.3977 125.108 47.2137 125.36 45.3177 125.36ZM55.9358 99.152H58.6357V108.008C59.6918 107.528 60.6638 107.18 61.5518 106.964C62.4638 106.748 63.3878 106.64 64.3238 106.64C65.8838 106.64 67.0838 106.928 67.9238 107.504C68.7878 108.056 69.3878 108.968 69.7238 110.24C70.0838 111.512 70.2638 113.264 70.2638 115.496V125H67.5638V115.568C67.5638 113.792 67.4558 112.46 67.2398 111.572C67.0478 110.66 66.6638 110.012 66.0878 109.628C65.5358 109.244 64.7078 109.052 63.6038 109.052C62.2358 109.052 60.8078 109.328 59.3198 109.88L58.6357 110.132V125H55.9358V99.152ZM75.2717 107H77.9357V125H75.2717V107ZM75.2717 99.8H77.9357V102.932H75.2717V99.8ZM83.1115 107H85.7755V108.296C86.7115 107.744 87.6115 107.336 88.4755 107.072C89.3635 106.784 90.2995 106.64 91.2835 106.64C93.5155 106.64 95.1355 107.384 96.1435 108.872C97.1755 110.336 97.6915 112.676 97.6915 115.892C97.6915 118.172 97.4275 120.008 96.8995 121.4C96.3715 122.768 95.5315 123.776 94.3795 124.424C93.2275 125.048 91.6795 125.36 89.7355 125.36C88.3915 125.36 87.0835 125.228 85.8115 124.964V132.992H83.1115V107ZM89.7715 123.02C91.6435 123.02 92.9755 122.468 93.7675 121.364C94.5595 120.26 94.9555 118.472 94.9555 116C94.9555 113.552 94.6075 111.788 93.9115 110.708C93.2395 109.604 92.2075 109.052 90.8155 109.052C90.1195 109.052 89.3635 109.172 88.5475 109.412C87.7555 109.628 87.0715 109.868 86.4955 110.132L85.8115 110.492V122.624C87.5875 122.888 88.9075 123.02 89.7715 123.02ZM107.748 125.36C106.308 125.36 104.544 125.192 102.456 124.856L101.376 124.676L101.52 122.336C104.328 122.744 106.392 122.948 107.712 122.948C109.152 122.948 110.22 122.72 110.916 122.264C111.636 121.784 111.996 121.028 111.996 119.996C111.996 119.252 111.816 118.688 111.456 118.304C111.12 117.92 110.676 117.644 110.124 117.476C109.596 117.308 108.84 117.152 107.856 117.008L106.956 116.864C105.516 116.624 104.388 116.336 103.572 116C102.756 115.664 102.144 115.196 101.736 114.596C101.328 113.972 101.124 113.12 101.124 112.04C101.124 110.096 101.712 108.716 102.888 107.9C104.064 107.084 105.732 106.676 107.892 106.676C109.596 106.676 111.336 106.832 113.112 107.144L114.12 107.324L114.048 109.628C111.456 109.244 109.428 109.052 107.964 109.052C106.572 109.052 105.528 109.268 104.832 109.7C104.16 110.132 103.824 110.804 103.824 111.716C103.824 112.364 103.992 112.868 104.328 113.228C104.664 113.564 105.096 113.816 105.624 113.984C106.176 114.128 106.944 114.284 107.928 114.452L108.828 114.632C110.316 114.896 111.468 115.208 112.284 115.568C113.1 115.904 113.7 116.396 114.084 117.044C114.492 117.692 114.696 118.592 114.696 119.744C114.696 121.688 114.12 123.116 112.968 124.028C111.84 124.916 110.1 125.36 107.748 125.36Z" fill="black"/>
</svg>
