<svg width="150" height="150" viewBox="0 0 150 150" fill="none" xmlns="http://www.w3.org/2000/svg">
<rect x="0.5" y="0.5" width="149" height="149" fill="white" stroke="black"/>
<path d="M51.5 78.25L52.5417 87.5L59.2917 81.0833L70.8333 49.4167C68 48.7083 65.5 47.2917 63.4583 45.3333L51.5 78.25Z" fill="black"/>
<path d="M86.5417 45.3333C84.5001 47.2917 81.9584 48.7083 79.1667 49.4167L90.7084 81.0833L97.4584 87.5L98.5417 78.25L86.5417 45.3333Z" fill="black"/>
<path d="M87.5 33.3333C87.5 27.9167 84 23.3333 79.1667 21.5833V12.5H70.8333V21.5833C66 23.3333 62.5 27.9167 62.5 33.3333C62.5 40.25 68.0833 45.8333 75 45.8333C81.9167 45.8333 87.5 40.25 87.5 33.3333ZM75 37.5C72.7083 37.5 70.8333 35.625 70.8333 33.3333C70.8333 31.0417 72.7083 29.1667 75 29.1667C77.2917 29.1667 79.1667 31.0417 79.1667 33.3333C79.1667 35.625 77.2917 37.5 75 37.5Z" fill="black"/>
<path d="M35.2196 101.088C37.7396 101.088 39.6716 101.64 41.0156 102.744C42.3836 103.848 43.2956 105.252 43.7516 106.956C44.2076 108.66 44.4356 110.652 44.4356 112.932C44.4356 117.492 43.6796 120.816 42.1676 122.904C40.6796 124.968 38.3636 126 35.2196 126H26.3276V101.088H35.2196ZM35.2196 123.552C39.4676 123.552 41.5916 120.096 41.5916 113.184C41.5916 109.824 41.0756 107.376 40.0436 105.84C39.0116 104.304 37.4036 103.536 35.2196 103.536H29.0996V123.552H35.2196ZM55.7947 126.36C53.0587 126.36 51.1147 125.652 49.9627 124.236C48.8347 122.796 48.2707 120.54 48.2707 117.468C48.2707 114.132 48.8827 111.66 50.1067 110.052C51.3307 108.444 53.2507 107.64 55.8667 107.64C58.2667 107.64 60.0547 108.336 61.2307 109.728C62.4307 111.096 63.0307 113.208 63.0307 116.064L62.8867 118.116H51.0067C51.0067 119.604 51.1627 120.768 51.4747 121.608C51.8107 122.448 52.3627 123.06 53.1307 123.444C53.9227 123.804 55.0147 123.984 56.4067 123.984C57.1027 123.984 57.9067 123.972 58.8187 123.948C59.7307 123.9 60.5587 123.84 61.3027 123.768L62.3467 123.66L62.4187 125.784C59.7547 126.168 57.5467 126.36 55.7947 126.36ZM60.3307 115.956C60.3307 113.772 59.9827 112.224 59.2867 111.312C58.5907 110.376 57.4507 109.908 55.8667 109.908C54.2107 109.908 52.9867 110.4 52.1947 111.384C51.4027 112.344 50.9947 113.868 50.9707 115.956H60.3307ZM72.8905 126.36C71.4505 126.36 69.6865 126.192 67.5985 125.856L66.5185 125.676L66.6625 123.336C69.4705 123.744 71.5345 123.948 72.8545 123.948C74.2945 123.948 75.3625 123.72 76.0585 123.264C76.7785 122.784 77.1385 122.028 77.1385 120.996C77.1385 120.252 76.9585 119.688 76.5985 119.304C76.2625 118.92 75.8185 118.644 75.2665 118.476C74.7385 118.308 73.9825 118.152 72.9985 118.008L72.0985 117.864C70.6585 117.624 69.5305 117.336 68.7145 117C67.8985 116.664 67.2865 116.196 66.8785 115.596C66.4705 114.972 66.2665 114.12 66.2665 113.04C66.2665 111.096 66.8545 109.716 68.0305 108.9C69.2065 108.084 70.8745 107.676 73.0345 107.676C74.7385 107.676 76.4785 107.832 78.2545 108.144L79.2625 108.324L79.1905 110.628C76.5985 110.244 74.5705 110.052 73.1065 110.052C71.7145 110.052 70.6705 110.268 69.9745 110.7C69.3025 111.132 68.9665 111.804 68.9665 112.716C68.9665 113.364 69.1345 113.868 69.4705 114.228C69.8065 114.564 70.2385 114.816 70.7665 114.984C71.3185 115.128 72.0865 115.284 73.0705 115.452L73.9705 115.632C75.4585 115.896 76.6105 116.208 77.4265 116.568C78.2425 116.904 78.8425 117.396 79.2265 118.044C79.6345 118.692 79.8385 119.592 79.8385 120.744C79.8385 122.688 79.2625 124.116 78.1105 125.028C76.9825 125.916 75.2425 126.36 72.8905 126.36ZM83.9729 108H86.6369V126H83.9729V108ZM83.9729 100.8H86.6369V103.932H83.9729V100.8ZM98.0843 134.46C95.3963 134.46 93.4883 134.052 92.3603 133.236C91.2563 132.444 90.7043 131.112 90.7043 129.24C90.7043 128.472 90.7883 127.836 90.9563 127.332C91.1483 126.852 91.4363 126.42 91.8203 126.036C92.2043 125.652 92.7803 125.16 93.5483 124.56C93.2123 124.344 92.9603 124.02 92.7923 123.588C92.6243 123.156 92.5403 122.7 92.5403 122.22C92.5403 121.908 92.6123 121.572 92.7563 121.212C92.9003 120.828 93.2363 120.168 93.7643 119.232C91.8683 118.392 90.9203 116.592 90.9203 113.832C90.9203 111.744 91.4843 110.196 92.6123 109.188C93.7403 108.156 95.4443 107.64 97.7243 107.64C98.8283 107.64 100.052 107.796 101.396 108.108L106.724 107.964V110.268L103.304 110.196C103.712 110.604 104.012 111.108 104.204 111.708C104.396 112.284 104.492 113.028 104.492 113.94C104.492 116.076 103.94 117.6 102.836 118.512C101.732 119.424 99.9923 119.88 97.6163 119.88C96.8723 119.88 96.2603 119.832 95.7803 119.736C95.5883 120.216 95.4323 120.636 95.3123 120.996C95.1923 121.356 95.1323 121.668 95.1323 121.932C95.1323 122.556 95.3723 122.964 95.8523 123.156C96.3563 123.348 97.1243 123.444 98.1563 123.444H99.5603C101.144 123.444 102.416 123.564 103.376 123.804C104.36 124.044 105.116 124.536 105.644 125.28C106.172 126 106.436 127.056 106.436 128.448C106.436 130.536 105.788 132.06 104.492 133.02C103.196 133.98 101.06 134.46 98.0843 134.46ZM97.7243 117.72C99.1883 117.72 100.232 117.42 100.856 116.82C101.48 116.22 101.792 115.2 101.792 113.76C101.792 112.344 101.48 111.336 100.856 110.736C100.232 110.136 99.2003 109.836 97.7603 109.836C96.2723 109.836 95.2043 110.148 94.5563 110.772C93.9323 111.372 93.6203 112.38 93.6203 113.796C93.6203 115.212 93.9323 116.22 94.5563 116.82C95.2043 117.42 96.2603 117.72 97.7243 117.72ZM98.3363 132.192C100.328 132.192 101.72 131.916 102.512 131.364C103.304 130.836 103.7 129.912 103.7 128.592C103.7 127.824 103.568 127.236 103.304 126.828C103.04 126.444 102.596 126.18 101.972 126.036C101.348 125.892 100.448 125.82 99.2723 125.82L95.3843 125.64C94.5923 126.216 94.0523 126.72 93.7643 127.152C93.5003 127.584 93.3683 128.16 93.3683 128.88C93.3683 130.128 93.7283 130.992 94.4483 131.472C95.1923 131.952 96.4883 132.192 98.3363 132.192ZM109.988 108H112.652V109.26C113.732 108.66 114.716 108.24 115.604 108C116.516 107.76 117.464 107.64 118.448 107.64C119.984 107.64 121.172 107.928 122.012 108.504C122.852 109.08 123.44 110.004 123.776 111.276C124.136 112.524 124.316 114.264 124.316 116.496V126H121.652V116.568C121.652 114.864 121.544 113.556 121.328 112.644C121.136 111.732 120.776 111.072 120.248 110.664C119.72 110.256 118.952 110.052 117.944 110.052C117.128 110.052 116.288 110.16 115.424 110.376C114.584 110.568 113.9 110.796 113.372 111.06L112.688 111.384V126H109.988V108Z" fill="black"/>
</svg>
