<svg width="150" height="150" viewBox="0 0 150 150" fill="none" xmlns="http://www.w3.org/2000/svg">
<rect x="0.5" y="0.5" width="149" height="149" fill="white" stroke="black"/>
<path d="M120.833 29.1667V83.3333H41.6666V75H112.5V29.1667H120.833ZM104.167 66.6667H29.1666V16.6667H104.167V66.6667ZM79.1666 41.6667C79.1666 34.75 73.5833 29.1667 66.6666 29.1667C59.75 29.1667 54.1666 34.75 54.1666 41.6667C54.1666 48.5833 59.75 54.1667 66.6666 54.1667C73.5833 54.1667 79.1666 48.5833 79.1666 41.6667Z" fill="black"/>
<path d="M32.0859 117.697H21.3457V129H17.9707V103.406H33.8262V106.184H21.3457V114.938H32.0859V117.697ZM40.8926 129H37.6406V109.98H40.8926V129ZM37.377 104.936C37.377 104.408 37.5352 103.963 37.8516 103.6C38.1797 103.236 38.6602 103.055 39.293 103.055C39.9258 103.055 40.4062 103.236 40.7344 103.6C41.0625 103.963 41.2266 104.408 41.2266 104.936C41.2266 105.463 41.0625 105.902 40.7344 106.254C40.4062 106.605 39.9258 106.781 39.293 106.781C38.6602 106.781 38.1797 106.605 37.8516 106.254C37.5352 105.902 37.377 105.463 37.377 104.936ZM49.1895 109.98L49.2949 112.371C50.748 110.543 52.6465 109.629 54.9902 109.629C59.0098 109.629 61.0371 111.896 61.0723 116.432V129H57.8203V116.414C57.8086 115.043 57.4922 114.029 56.8711 113.373C56.2617 112.717 55.3066 112.389 54.0059 112.389C52.9512 112.389 52.0254 112.67 51.2285 113.232C50.4316 113.795 49.8105 114.533 49.3652 115.447V129H46.1133V109.98H49.1895ZM70.3887 105.375V109.98H73.9395V112.494H70.3887V124.289C70.3887 125.051 70.5469 125.625 70.8633 126.012C71.1797 126.387 71.7188 126.574 72.4805 126.574C72.8555 126.574 73.3711 126.504 74.0273 126.363V129C73.1719 129.234 72.3398 129.352 71.5312 129.352C70.0781 129.352 68.9824 128.912 68.2441 128.033C67.5059 127.154 67.1367 125.906 67.1367 124.289V112.494H63.6738V109.98H67.1367V105.375H70.3887ZM85.6465 129.352C83.0684 129.352 80.9707 128.508 79.3535 126.82C77.7363 125.121 76.9277 122.854 76.9277 120.018V119.42C76.9277 117.533 77.2852 115.852 78 114.375C78.7266 112.887 79.7344 111.727 81.0234 110.895C82.3242 110.051 83.7305 109.629 85.2422 109.629C87.7148 109.629 89.6367 110.443 91.0078 112.072C92.3789 113.701 93.0645 116.033 93.0645 119.068V120.422H80.1797C80.2266 122.297 80.7715 123.814 81.8145 124.975C82.8691 126.123 84.2051 126.697 85.8223 126.697C86.9707 126.697 87.9434 126.463 88.7402 125.994C89.5371 125.525 90.2344 124.904 90.832 124.131L92.8184 125.678C91.2246 128.127 88.834 129.352 85.6465 129.352ZM85.2422 112.301C83.9297 112.301 82.8281 112.781 81.9375 113.742C81.0469 114.691 80.4961 116.027 80.2852 117.75H89.8125V117.504C89.7188 115.852 89.2734 114.574 88.4766 113.672C87.6797 112.758 86.6016 112.301 85.2422 112.301ZM104.473 126.697C105.633 126.697 106.646 126.346 107.514 125.643C108.381 124.939 108.861 124.061 108.955 123.006H112.031C111.973 124.096 111.598 125.133 110.906 126.117C110.215 127.102 109.289 127.887 108.129 128.473C106.98 129.059 105.762 129.352 104.473 129.352C101.883 129.352 99.8203 128.49 98.2852 126.768C96.7617 125.033 96 122.666 96 119.666V119.121C96 117.27 96.3398 115.623 97.0195 114.182C97.6992 112.74 98.6719 111.621 99.9375 110.824C101.215 110.027 102.721 109.629 104.455 109.629C106.588 109.629 108.357 110.268 109.764 111.545C111.182 112.822 111.938 114.48 112.031 116.52H108.955C108.861 115.289 108.393 114.281 107.549 113.496C106.717 112.699 105.686 112.301 104.455 112.301C102.803 112.301 101.52 112.898 100.605 114.094C99.7031 115.277 99.252 116.994 99.252 119.244V119.859C99.252 122.051 99.7031 123.738 100.605 124.922C101.508 126.105 102.797 126.697 104.473 126.697ZM118.939 112.283C120.381 110.514 122.256 109.629 124.564 109.629C128.584 109.629 130.611 111.896 130.646 116.432V129H127.395V116.414C127.383 115.043 127.066 114.029 126.445 113.373C125.836 112.717 124.881 112.389 123.58 112.389C122.525 112.389 121.6 112.67 120.803 113.232C120.006 113.795 119.385 114.533 118.939 115.447V129H115.688V102H118.939V112.283Z" fill="black"/>
</svg>
