<svg width="150" height="150" viewBox="0 0 150 150" fill="none" xmlns="http://www.w3.org/2000/svg">
<rect x="0.5" y="0.5" width="149" height="149" fill="white" stroke="black"/>
<path d="M120.833 25H29.1666V75H120.833V25ZM70.8333 54.1667H58.3333V66.6667H50V54.1667H37.5V45.8333H50V33.3333H58.3333V45.8333H70.8333V54.1667ZM89.5833 62.5C86.125 62.5 83.3333 59.7083 83.3333 56.25C83.3333 52.7917 86.125 50 89.5833 50C93.0416 50 95.8333 52.7917 95.8333 56.25C95.8333 59.7083 93.0416 62.5 89.5833 62.5ZM106.25 50C102.792 50 100 47.2083 100 43.75C100 40.2917 102.792 37.5 106.25 37.5C109.708 37.5 112.5 40.2917 112.5 43.75C112.5 47.2083 109.708 50 106.25 50Z" fill="black"/>
<path d="M28.7098 126.36C26.3098 126.36 24.4018 125.904 22.9858 124.992C21.5938 124.08 20.5858 122.7 19.9618 120.852C19.3618 118.98 19.0618 116.544 19.0618 113.544C19.0618 110.568 19.3618 108.144 19.9618 106.272C20.5858 104.4 21.5938 103.008 22.9858 102.096C24.3778 101.184 26.2618 100.728 28.6378 100.728C30.7978 100.728 33.1138 100.968 35.5858 101.448L36.8098 101.664L36.7018 103.968C33.7258 103.464 31.1458 103.212 28.9618 103.212C27.1378 103.212 25.7098 103.56 24.6778 104.256C23.6698 104.928 22.9618 106.008 22.5538 107.496C22.1458 108.96 21.9418 110.976 21.9418 113.544C21.9418 116.112 22.1458 118.14 22.5538 119.628C22.9618 121.092 23.6698 122.172 24.6778 122.868C25.6858 123.564 27.1018 123.912 28.9258 123.912C30.5338 123.912 32.2498 123.744 34.0738 123.408V115.74H29.9338V113.256H36.8098V125.496C33.7858 126.072 31.0858 126.36 28.7098 126.36ZM45.7094 126.36C44.0534 126.36 42.7934 125.892 41.9294 124.956C41.0654 124.02 40.6334 122.676 40.6334 120.924C40.6334 119.196 41.0654 117.912 41.9294 117.072C42.8174 116.232 44.2214 115.716 46.1414 115.524L51.7934 114.984V113.436C51.7934 111.156 50.8094 110.016 48.8414 110.016C46.8974 110.016 44.5334 110.172 41.7494 110.484L41.6414 108.432C44.2094 107.904 46.5494 107.64 48.6614 107.64C50.7014 107.64 52.1774 108.108 53.0894 109.044C54.0254 109.956 54.4934 111.42 54.4934 113.436V122.652C54.5654 123.54 55.2614 124.068 56.5814 124.236L56.4734 126.36C54.5774 126.36 53.1494 125.88 52.1894 124.92C50.0534 125.88 47.8934 126.36 45.7094 126.36ZM46.1414 124.092C47.7494 124.092 49.3574 123.816 50.9654 123.264L51.7934 122.976V117.036L46.4654 117.54C45.3854 117.636 44.6054 117.948 44.1254 118.476C43.6454 119.004 43.4054 119.772 43.4054 120.78C43.4054 122.988 44.3174 124.092 46.1414 124.092ZM59.8205 108H62.4845V109.26C64.2845 108.18 66.0845 107.64 67.8845 107.64C68.8685 107.64 69.7565 107.796 70.5485 108.108C71.3405 108.396 71.9645 108.852 72.4205 109.476C73.3085 108.948 74.3525 108.516 75.5525 108.18C76.7525 107.82 77.9765 107.64 79.2245 107.64C80.6885 107.64 81.8285 107.94 82.6445 108.54C83.4605 109.116 84.0365 110.04 84.3725 111.312C84.7325 112.584 84.9125 114.312 84.9125 116.496V126H82.2125V116.568C82.2125 114.864 82.1165 113.556 81.9245 112.644C81.7325 111.732 81.3725 111.072 80.8445 110.664C80.3405 110.256 79.5845 110.052 78.5765 110.052C77.7605 110.052 76.9325 110.16 76.0925 110.376C75.2525 110.568 74.5685 110.796 74.0405 111.06L73.3565 111.384C73.6685 112.152 73.8245 113.904 73.8245 116.64V126H71.1245V116.712C71.1245 114.936 71.0285 113.592 70.8365 112.68C70.6445 111.744 70.2965 111.072 69.7925 110.664C69.2885 110.256 68.5325 110.052 67.5245 110.052C66.7325 110.052 65.9285 110.16 65.1125 110.376C64.2965 110.568 63.6365 110.796 63.1325 111.06L62.5205 111.384V126H59.8205V108ZM89.9143 108H92.5783V126H89.9143V108ZM89.9143 100.8H92.5783V103.932H89.9143V100.8ZM97.7541 108H100.418V109.26C101.498 108.66 102.482 108.24 103.37 108C104.282 107.76 105.23 107.64 106.214 107.64C107.75 107.64 108.938 107.928 109.778 108.504C110.618 109.08 111.206 110.004 111.542 111.276C111.902 112.524 112.082 114.264 112.082 116.496V126H109.418V116.568C109.418 114.864 109.31 113.556 109.094 112.644C108.902 111.732 108.542 111.072 108.014 110.664C107.486 110.256 106.718 110.052 105.71 110.052C104.894 110.052 104.054 110.16 103.19 110.376C102.35 110.568 101.666 110.796 101.138 111.06L100.454 111.384V126H97.7541V108ZM123.678 134.46C120.99 134.46 119.082 134.052 117.954 133.236C116.85 132.444 116.298 131.112 116.298 129.24C116.298 128.472 116.382 127.836 116.55 127.332C116.742 126.852 117.03 126.42 117.414 126.036C117.798 125.652 118.374 125.16 119.142 124.56C118.806 124.344 118.554 124.02 118.386 123.588C118.218 123.156 118.134 122.7 118.134 122.22C118.134 121.908 118.206 121.572 118.35 121.212C118.494 120.828 118.83 120.168 119.358 119.232C117.462 118.392 116.514 116.592 116.514 113.832C116.514 111.744 117.078 110.196 118.206 109.188C119.334 108.156 121.038 107.64 123.318 107.64C124.422 107.64 125.646 107.796 126.99 108.108L132.318 107.964V110.268L128.898 110.196C129.306 110.604 129.606 111.108 129.798 111.708C129.99 112.284 130.086 113.028 130.086 113.94C130.086 116.076 129.534 117.6 128.43 118.512C127.326 119.424 125.586 119.88 123.21 119.88C122.466 119.88 121.854 119.832 121.374 119.736C121.182 120.216 121.026 120.636 120.906 120.996C120.786 121.356 120.726 121.668 120.726 121.932C120.726 122.556 120.966 122.964 121.446 123.156C121.95 123.348 122.718 123.444 123.75 123.444H125.154C126.738 123.444 128.01 123.564 128.97 123.804C129.954 124.044 130.71 124.536 131.238 125.28C131.766 126 132.03 127.056 132.03 128.448C132.03 130.536 131.382 132.06 130.086 133.02C128.79 133.98 126.654 134.46 123.678 134.46ZM123.318 117.72C124.782 117.72 125.826 117.42 126.45 116.82C127.074 116.22 127.386 115.2 127.386 113.76C127.386 112.344 127.074 111.336 126.45 110.736C125.826 110.136 124.794 109.836 123.354 109.836C121.866 109.836 120.798 110.148 120.15 110.772C119.526 111.372 119.214 112.38 119.214 113.796C119.214 115.212 119.526 116.22 120.15 116.82C120.798 117.42 121.854 117.72 123.318 117.72ZM123.93 132.192C125.922 132.192 127.314 131.916 128.106 131.364C128.898 130.836 129.294 129.912 129.294 128.592C129.294 127.824 129.162 127.236 128.898 126.828C128.634 126.444 128.19 126.18 127.566 126.036C126.942 125.892 126.042 125.82 124.866 125.82L120.978 125.64C120.186 126.216 119.646 126.72 119.358 127.152C119.094 127.584 118.962 128.16 118.962 128.88C118.962 130.128 119.322 130.992 120.042 131.472C120.786 131.952 122.082 132.192 123.93 132.192Z" fill="black"/>
</svg>
