<svg width="110" height="110" viewBox="0 0 110 110" fill="none" xmlns="http://www.w3.org/2000/svg">
<path d="M91.6667 27.5H55L45.8333 18.3333H18.3333C13.2917 18.3333 9.21251 22.4583 9.21251 27.5L9.16667 82.5C9.16667 87.5417 13.2917 91.6667 18.3333 91.6667H91.6667C96.7083 91.6667 100.833 87.5417 100.833 82.5V36.6667C100.833 31.625 96.7083 27.5 91.6667 27.5ZM68.75 41.25C73.7917 41.25 77.9167 45.375 77.9167 50.4167C77.9167 55.4583 73.7917 59.5833 68.75 59.5833C63.7083 59.5833 59.5833 55.4583 59.5833 50.4167C59.5833 45.375 63.7083 41.25 68.75 41.25ZM87.0833 77.9167H50.4167V73.3333C50.4167 67.2375 62.6542 64.1667 68.75 64.1667C74.8458 64.1667 87.0833 67.2375 87.0833 73.3333V77.9167Z" fill="black"/>
<rect x="0.5" y="0.5" width="109" height="109" stroke="black"/>
</svg>
