<svg viewBox="0 0 110 110" fill="none" xmlns="http://www.w3.org/2000/svg">
<path d="M96.25 18.3333H50.4167L45.8333 4.58334H13.75C8.70834 4.58334 4.58334 8.70834 4.58334 13.75V82.5C4.58334 87.5417 8.70834 91.6667 13.75 91.6667H50.4167L55 105.417H96.25C101.292 105.417 105.417 101.292 105.417 96.25V27.5C105.417 22.4583 101.292 18.3333 96.25 18.3333ZM32.0833 73.3333C19.4333 73.3333 9.16668 63.0667 9.16668 50.4167C9.16668 37.7667 19.4333 27.5 32.0833 27.5C38.2708 27.5 43.45 29.7917 47.4375 33.4583L41.3875 39.2792C39.6458 37.6292 36.6208 35.7042 32.0833 35.7042C24.1083 35.7042 17.6458 42.3042 17.6458 50.4167C17.6458 58.5292 24.1083 65.1292 32.0833 65.1292C41.2958 65.1292 45.1 58.5292 45.4667 54.0833H32.0833V46.2458H53.5333C53.8542 47.6667 54.0833 49.0417 54.0833 50.9208C54.0833 64.0292 45.3292 73.3333 32.0833 73.3333ZM60.3625 48.4917H77.3208C75.35 54.2208 72.2333 59.6292 67.925 64.3958C66.5042 62.7917 65.175 61.0958 63.9833 59.3542L60.3625 48.4917V48.4917ZM98.5417 93.9583C98.5417 96.4792 96.4792 98.5417 93.9583 98.5417H64.1667L73.3333 87.0833L68.5667 72.875L82.775 87.0833L86.9917 82.8667L71.8667 67.9708L71.9583 67.8792C77.1375 62.15 80.8042 55.55 82.9583 48.5375H91.6667V42.5792H70.9042V36.6667H64.9917V42.5792H58.3917L52.525 25.2083H93.9583C96.4792 25.2083 98.5417 27.2708 98.5417 29.7917V93.9583Z" fill="black"/>
<rect x="0.5" y="0.5" width="109" height="109" stroke="black"/>
</svg>
