<svg height="150" width="150" viewBox="0 0 150 150" fill="none" xmlns="http://www.w3.org/2000/svg">
<rect x="0.5" y="0.5" width="149" height="149" fill="white" stroke="black"/>
<path d="M72 17.1667C51.2917 17.1667 34.5 33.9583 34.5 54.6667V83.8333C34.5 90.75 40.0833 96.3333 47 96.3333H59.5V63H42.8333V54.6667C42.8333 38.5417 55.875 25.5 72 25.5C88.125 25.5 101.167 38.5417 101.167 54.6667V63H84.5V96.3333H97C103.917 96.3333 109.5 90.75 109.5 83.8333V54.6667C109.5 33.9583 92.7083 17.1667 72 17.1667Z" fill="black"/>
<path d="M33.5789 135.688V139H15.2909V105.784H18.9869V135.688H33.5789ZM37.6357 115H41.1877V139H37.6357V115ZM37.6357 105.4H41.1877V109.576H37.6357V105.4ZM55.6248 139.48C53.7048 139.48 51.3528 139.256 48.5688 138.808L47.1288 138.568L47.3208 135.448C51.0648 135.992 53.8168 136.264 55.5768 136.264C57.4968 136.264 58.9208 135.96 59.8488 135.352C60.8088 134.712 61.2888 133.704 61.2888 132.328C61.2888 131.336 61.0488 130.584 60.5688 130.072C60.1208 129.56 59.5288 129.192 58.7928 128.968C58.0888 128.744 57.0808 128.536 55.7688 128.344L54.5688 128.152C52.6488 127.832 51.1448 127.448 50.0568 127C48.9688 126.552 48.1528 125.928 47.6088 125.128C47.0648 124.296 46.7928 123.16 46.7928 121.72C46.7928 119.128 47.5768 117.288 49.1448 116.2C50.7128 115.112 52.9368 114.568 55.8168 114.568C58.0888 114.568 60.4088 114.776 62.7768 115.192L64.1208 115.432L64.0248 118.504C60.5688 117.992 57.8648 117.736 55.9128 117.736C54.0568 117.736 52.6648 118.024 51.7368 118.6C50.8408 119.176 50.3928 120.072 50.3928 121.288C50.3928 122.152 50.6168 122.824 51.0648 123.304C51.5128 123.752 52.0888 124.088 52.7928 124.312C53.5288 124.504 54.5528 124.712 55.8648 124.936L57.0648 125.176C59.0488 125.528 60.5848 125.944 61.6728 126.424C62.7608 126.872 63.5608 127.528 64.0728 128.392C64.6168 129.256 64.8888 130.456 64.8888 131.992C64.8888 134.584 64.1208 136.488 62.5848 137.704C61.0808 138.888 58.7608 139.48 55.6248 139.48ZM78.0333 139.528C76.4013 139.528 75.1213 139.272 74.1933 138.76C73.2973 138.216 72.6413 137.32 72.2253 136.072C71.8413 134.792 71.6493 133.016 71.6493 130.744V118.12H68.2413V115H71.6493V107.656H75.2013V115H82.8333V118.12H75.2013V129.592C75.2013 131.384 75.2653 132.728 75.3933 133.624C75.5213 134.488 75.8253 135.16 76.3053 135.64C76.8173 136.088 77.6013 136.312 78.6573 136.312L82.9293 136.024L83.1693 139C80.8973 139.352 79.1853 139.528 78.0333 139.528ZM96.2054 139.48C92.5574 139.48 89.9654 138.536 88.4294 136.648C86.9254 134.728 86.1734 131.72 86.1734 127.624C86.1734 123.176 86.9894 119.88 88.6214 117.736C90.2534 115.592 92.8134 114.52 96.3014 114.52C99.5014 114.52 101.885 115.448 103.453 117.304C105.053 119.128 105.853 121.944 105.853 125.752L105.661 128.488H89.8214C89.8214 130.472 90.0294 132.024 90.4454 133.144C90.8934 134.264 91.6294 135.08 92.6534 135.592C93.7094 136.072 95.1654 136.312 97.0214 136.312C97.9494 136.312 99.0214 136.296 100.237 136.264C101.453 136.2 102.557 136.12 103.549 136.024L104.941 135.88L105.037 138.712C101.485 139.224 98.5414 139.48 96.2054 139.48ZM102.253 125.608C102.253 122.696 101.789 120.632 100.861 119.416C99.9334 118.168 98.4134 117.544 96.3014 117.544C94.0934 117.544 92.4614 118.2 91.4054 119.512C90.3494 120.792 89.8054 122.824 89.7734 125.608H102.253ZM111.464 115H115.016V116.68C116.456 115.88 117.768 115.32 118.952 115C120.168 114.68 121.432 114.52 122.744 114.52C124.792 114.52 126.376 114.904 127.496 115.672C128.616 116.44 129.4 117.672 129.848 119.368C130.328 121.032 130.568 123.352 130.568 126.328V139H127.016V126.424C127.016 124.152 126.872 122.408 126.584 121.192C126.328 119.976 125.848 119.096 125.144 118.552C124.44 118.008 123.416 117.736 122.072 117.736C120.984 117.736 119.864 117.88 118.712 118.168C117.592 118.424 116.68 118.728 115.976 119.08L115.064 119.512V139H111.464V115Z" fill="black"/>
</svg>
