<svg viewBox="0 0 110 110" fill="none" xmlns="http://www.w3.org/2000/svg">
<path d="M61.875 48.125H48.125V37.8125H65.3125V30.9375H48.125C46.3016 30.9375 44.553 31.6618 43.2636 32.9511C41.9743 34.2405 41.25 35.9891 41.25 37.8125V72.1875C41.25 74.0109 41.9743 75.7595 43.2636 77.0489C44.553 78.3382 46.3016 79.0625 48.125 79.0625H61.875C63.6984 79.0625 65.447 78.3382 66.7364 77.0489C68.0257 75.7595 68.75 74.0109 68.75 72.1875V55C68.75 53.1766 68.0257 51.428 66.7364 50.1386C65.447 48.8493 63.6984 48.125 61.875 48.125ZM48.125 72.1875V55H61.875V72.1875H48.125Z" fill="black"/>
<rect x="0.5" y="0.5" width="109" height="109" stroke="black"/>
</svg>
