<svg viewBox="0 0 110 110" fill="none" xmlns="http://www.w3.org/2000/svg">
<path d="M61.875 30.9375H48.125C46.3016 30.9375 44.553 31.6618 43.2636 32.9511C41.9743 34.2405 41.25 35.9891 41.25 37.8125V55C41.25 56.8234 41.9743 58.572 43.2636 59.8614C44.553 61.1507 46.3016 61.875 48.125 61.875H61.875V72.1875H44.6875V79.0625H61.875C63.6984 79.0625 65.447 78.3382 66.7364 77.0489C68.0257 75.7595 68.75 74.0109 68.75 72.1875V37.8125C68.75 35.9891 68.0257 34.2405 66.7364 32.9511C65.447 31.6618 63.6984 30.9375 61.875 30.9375ZM61.875 55H48.125V37.8125H61.875V55Z" fill="black"/>
<rect x="0.5" y="0.5" width="109" height="109" stroke="black"/>
</svg>
