<svg width="150" height="150" viewBox="0 0 150 150" fill="none" xmlns="http://www.w3.org/2000/svg">
<rect x="0.5" y="0.5" width="149" height="149" fill="white" stroke="black"/>
<path d="M87.5 25H37.5V33.3333H87.5V25ZM87.5 41.6667H37.5V50H87.5V41.6667ZM37.5 66.6667H70.8333V58.3333H37.5V66.6667ZM95.8333 25V59.0833C94.5417 58.625 93.125 58.3333 91.6667 58.3333C84.75 58.3333 79.1667 63.9167 79.1667 70.8333C79.1667 77.75 84.75 83.3333 91.6667 83.3333C98.5833 83.3333 104.167 77.75 104.167 70.8333V33.3333H116.667V25H95.8333Z" fill="black"/>
<path d="M19.8295 104.088H28.9375C31.6495 104.088 33.6535 104.748 34.9495 106.068C36.2455 107.364 36.8935 109.38 36.8935 112.116C36.8935 117.78 34.2415 120.612 28.9375 120.612H22.6015V129H19.8295V104.088ZM28.9015 118.164C32.3335 118.164 34.0495 116.148 34.0495 112.116C34.0495 110.172 33.6415 108.756 32.8255 107.868C32.0095 106.98 30.7015 106.536 28.9015 106.536H22.6015V118.164H28.9015ZM40.9174 103.152H43.6174V129H40.9174V103.152ZM52.9574 129.36C51.3014 129.36 50.0414 128.892 49.1774 127.956C48.3134 127.02 47.8814 125.676 47.8814 123.924C47.8814 122.196 48.3134 120.912 49.1774 120.072C50.0654 119.232 51.4694 118.716 53.3894 118.524L59.0414 117.984V116.436C59.0414 114.156 58.0574 113.016 56.0894 113.016C54.1454 113.016 51.7814 113.172 48.9974 113.484L48.8894 111.432C51.4574 110.904 53.7974 110.64 55.9094 110.64C57.9494 110.64 59.4254 111.108 60.3374 112.044C61.2734 112.956 61.7414 114.42 61.7414 116.436V125.652C61.8134 126.54 62.5094 127.068 63.8294 127.236L63.7214 129.36C61.8254 129.36 60.3974 128.88 59.4374 127.92C57.3014 128.88 55.1414 129.36 52.9574 129.36ZM53.3894 127.092C54.9974 127.092 56.6054 126.816 58.2134 126.264L59.0414 125.976V120.036L53.7134 120.54C52.6334 120.636 51.8534 120.948 51.3734 121.476C50.8934 122.004 50.6534 122.772 50.6534 123.78C50.6534 125.988 51.5654 127.092 53.3894 127.092ZM72.9768 129H70.3128L65.2008 111H67.9008L72.4008 126.66H73.5888L78.1248 111H80.8248L73.3368 136.992H70.6368L72.9768 129ZM84.5111 103.152H87.2111V129H84.5111V103.152ZM92.6272 111H95.2912V129H92.6272V111ZM92.6272 103.8H95.2912V106.932H92.6272V103.8ZM106.119 129.36C104.679 129.36 102.915 129.192 100.827 128.856L99.747 128.676L99.891 126.336C102.699 126.744 104.763 126.948 106.083 126.948C107.523 126.948 108.591 126.72 109.287 126.264C110.007 125.784 110.367 125.028 110.367 123.996C110.367 123.252 110.187 122.688 109.827 122.304C109.491 121.92 109.047 121.644 108.495 121.476C107.967 121.308 107.211 121.152 106.227 121.008L105.327 120.864C103.887 120.624 102.759 120.336 101.943 120C101.127 119.664 100.515 119.196 100.107 118.596C99.699 117.972 99.495 117.12 99.495 116.04C99.495 114.096 100.083 112.716 101.259 111.9C102.435 111.084 104.103 110.676 106.263 110.676C107.967 110.676 109.707 110.832 111.483 111.144L112.491 111.324L112.419 113.628C109.827 113.244 107.799 113.052 106.335 113.052C104.943 113.052 103.899 113.268 103.203 113.7C102.531 114.132 102.195 114.804 102.195 115.716C102.195 116.364 102.363 116.868 102.699 117.228C103.035 117.564 103.467 117.816 103.995 117.984C104.547 118.128 105.315 118.284 106.299 118.452L107.199 118.632C108.687 118.896 109.839 119.208 110.655 119.568C111.471 119.904 112.071 120.396 112.455 121.044C112.863 121.692 113.067 122.592 113.067 123.744C113.067 125.688 112.491 127.116 111.339 128.028C110.211 128.916 108.471 129.36 106.119 129.36ZM122.925 129.396C121.701 129.396 120.741 129.204 120.045 128.82C119.373 128.412 118.881 127.74 118.569 126.804C118.281 125.844 118.137 124.512 118.137 122.808V113.34H115.581V111H118.137V105.492H120.801V111H126.525V113.34H120.801V121.944C120.801 123.288 120.849 124.296 120.945 124.968C121.041 125.616 121.269 126.12 121.629 126.48C122.013 126.816 122.601 126.984 123.393 126.984L126.597 126.768L126.777 129C125.073 129.264 123.789 129.396 122.925 129.396Z" fill="black"/>
</svg>
