<svg width="150" height="150" viewBox="0 0 150 150" fill="none" xmlns="http://www.w3.org/2000/svg">
<rect x="0.5" y="0.5" width="149" height="149" fill="white" stroke="black"/>
<path d="M77.7083 41.6667C74.2916 31.9583 65.0416 25 54.1666 25C40.375 25 29.1666 36.2083 29.1666 50C29.1666 63.7917 40.375 75 54.1666 75C65.0416 75 74.2916 68.0417 77.7083 58.3333H95.8333V75H112.5V58.3333H120.833V41.6667H77.7083ZM54.1666 58.3333C49.5833 58.3333 45.8333 54.5833 45.8333 50C45.8333 45.4167 49.5833 41.6667 54.1666 41.6667C58.75 41.6667 62.5 45.4167 62.5 50C62.5 54.5833 58.75 58.3333 54.1666 58.3333Z" fill="black"/>
<path d="M23.6913 126.324C22.0113 126.324 19.8153 126.12 17.1033 125.712L15.8073 125.532L16.0953 123.228C19.3833 123.66 21.8673 123.876 23.5473 123.876C27.0993 123.876 28.8753 122.208 28.8753 118.872C28.8753 117.96 28.7073 117.24 28.3713 116.712C28.0593 116.184 27.5073 115.752 26.7153 115.416C25.9473 115.08 24.8193 114.768 23.3313 114.48C21.3633 114.072 19.8273 113.604 18.7233 113.076C17.6433 112.548 16.8513 111.84 16.3473 110.952C15.8433 110.064 15.5913 108.876 15.5913 107.388C15.5913 102.924 18.2673 100.692 23.6193 100.692C25.4673 100.692 27.9753 100.932 31.1433 101.412L30.8913 103.752C27.4353 103.344 25.0713 103.14 23.7993 103.14C20.1993 103.14 18.3993 104.496 18.3993 107.208C18.3993 108.24 18.5673 109.032 18.9033 109.584C19.2633 110.112 19.8633 110.544 20.7033 110.88C21.5433 111.216 22.8753 111.588 24.6993 111.996C26.4753 112.404 27.8433 112.86 28.8033 113.364C29.7873 113.868 30.5073 114.54 30.9633 115.38C31.4193 116.196 31.6473 117.288 31.6473 118.656C31.6473 123.768 28.9953 126.324 23.6913 126.324ZM42.699 126.36C39.963 126.36 38.019 125.652 36.867 124.236C35.739 122.796 35.175 120.54 35.175 117.468C35.175 114.132 35.787 111.66 37.011 110.052C38.235 108.444 40.155 107.64 42.771 107.64C45.171 107.64 46.959 108.336 48.135 109.728C49.335 111.096 49.935 113.208 49.935 116.064L49.791 118.116H37.911C37.911 119.604 38.067 120.768 38.379 121.608C38.715 122.448 39.267 123.06 40.035 123.444C40.827 123.804 41.919 123.984 43.311 123.984C44.007 123.984 44.811 123.972 45.723 123.948C46.635 123.9 47.463 123.84 48.207 123.768L49.251 123.66L49.323 125.784C46.659 126.168 44.451 126.36 42.699 126.36ZM47.235 115.956C47.235 113.772 46.887 112.224 46.191 111.312C45.495 110.376 44.355 109.908 42.771 109.908C41.115 109.908 39.891 110.4 39.099 111.384C38.307 112.344 37.899 113.868 37.875 115.956H47.235ZM60.6228 126.36C58.8228 126.36 57.3948 126.048 56.3388 125.424C55.2828 124.776 54.5268 123.78 54.0708 122.436C53.6148 121.068 53.3868 119.256 53.3868 117C53.3868 114.144 53.8668 111.864 54.8268 110.16C55.7868 108.456 57.6468 107.604 60.4068 107.604C61.1268 107.604 61.8708 107.64 62.6388 107.712C63.4068 107.784 64.4508 107.94 65.7708 108.18L65.6628 110.376C63.7668 110.16 62.3148 110.052 61.3068 110.052C59.9388 110.052 58.8828 110.268 58.1388 110.7C57.4188 111.108 56.9028 111.816 56.5908 112.824C56.3028 113.808 56.1588 115.224 56.1588 117.072C56.1588 118.824 56.3028 120.192 56.5908 121.176C56.8788 122.136 57.3948 122.844 58.1388 123.3C58.9068 123.732 60.0108 123.948 61.4508 123.948L65.6988 123.624L65.8068 125.856C63.5028 126.192 61.7748 126.36 60.6228 126.36ZM75.4385 126.36C73.9025 126.36 72.7145 126.084 71.8745 125.532C71.0585 124.956 70.4825 124.032 70.1465 122.76C69.8105 121.488 69.6425 119.7 69.6425 117.396V108H72.3425V117.36C72.3425 119.16 72.4385 120.516 72.6305 121.428C72.8225 122.34 73.1705 122.988 73.6745 123.372C74.1785 123.756 74.9585 123.948 76.0145 123.948C77.6465 123.948 79.3265 123.504 81.0545 122.616V108H83.7545V126H81.0545V124.74C80.0705 125.316 79.1585 125.736 78.3185 126C77.4785 126.24 76.5185 126.36 75.4385 126.36ZM88.9475 108H91.6115V110.448C93.6755 109.032 95.8715 108.084 98.1995 107.604V110.34C97.2635 110.532 96.2435 110.832 95.1395 111.24C94.0595 111.624 93.1955 111.984 92.5475 112.32L91.6475 112.788V126H88.9475V108ZM101.393 108H104.057V126H101.393V108ZM101.393 100.8H104.057V103.932H101.393V100.8ZM114.429 126.396C113.205 126.396 112.245 126.204 111.549 125.82C110.877 125.412 110.385 124.74 110.073 123.804C109.785 122.844 109.641 121.512 109.641 119.808V110.34H107.085V108H109.641V102.492H112.305V108H118.029V110.34H112.305V118.944C112.305 120.288 112.353 121.296 112.449 121.968C112.545 122.616 112.773 123.12 113.133 123.48C113.517 123.816 114.105 123.984 114.897 123.984L118.101 123.768L118.281 126C116.577 126.264 115.293 126.396 114.429 126.396ZM127.41 126H124.746L119.634 108H122.334L126.834 123.66H128.022L132.558 108H135.258L127.77 133.992H125.07L127.41 126Z" fill="black"/>
</svg>
