<svg height="150" width="150" viewBox="0 0 150 150" fill="none" xmlns="http://www.w3.org/2000/svg">
<rect x="0.5" y="0.5" width="149" height="149" fill="white" stroke="black"/>
<path d="M100 79C96.8333 79 94 80.25 91.8333 82.2083L62.125 64.9167C62.3333 63.9583 62.5 63 62.5 62C62.5 61 62.3333 60.0417 62.125 59.0833L91.5 41.9583C93.75 44.0417 96.7083 45.3333 100 45.3333C106.917 45.3333 112.5 39.75 112.5 32.8333C112.5 25.9167 106.917 20.3333 100 20.3333C93.0833 20.3333 87.5 25.9167 87.5 32.8333C87.5 33.8333 87.6667 34.7917 87.875 35.75L58.5 52.875C56.25 50.7917 53.2917 49.5 50 49.5C43.0833 49.5 37.5 55.0833 37.5 62C37.5 68.9167 43.0833 74.5 50 74.5C53.2917 74.5 56.25 73.2083 58.5 71.125L88.1667 88.4583C87.9583 89.3333 87.8333 90.25 87.8333 91.1667C87.8333 97.875 93.2917 103.333 100 103.333C106.708 103.333 112.167 97.875 112.167 91.1667C112.167 84.4583 106.708 79 100 79Z" fill="black"/>
<path d="M29.5024 136.432C27.2624 136.432 24.3344 136.16 20.7184 135.616L18.9904 135.376L19.3744 132.304C23.7584 132.88 27.0704 133.168 29.3104 133.168C34.0464 133.168 36.4144 130.944 36.4144 126.496C36.4144 125.28 36.1904 124.32 35.7424 123.616C35.3264 122.912 34.5904 122.336 33.5344 121.888C32.5104 121.44 31.0064 121.024 29.0224 120.64C26.3984 120.096 24.3504 119.472 22.8784 118.768C21.4384 118.064 20.3824 117.12 19.7104 115.936C19.0384 114.752 18.7024 113.168 18.7024 111.184C18.7024 105.232 22.2704 102.256 29.4064 102.256C31.8704 102.256 35.2144 102.576 39.4384 103.216L39.1024 106.336C34.4944 105.792 31.3424 105.52 29.6464 105.52C24.8464 105.52 22.4464 107.328 22.4464 110.944C22.4464 112.32 22.6704 113.376 23.1184 114.112C23.5984 114.816 24.3984 115.392 25.5184 115.84C26.6384 116.288 28.4144 116.784 30.8464 117.328C33.2144 117.872 35.0384 118.48 36.3184 119.152C37.6304 119.824 38.5904 120.72 39.1984 121.84C39.8064 122.928 40.1104 124.384 40.1104 126.208C40.1104 133.024 36.5744 136.432 29.5024 136.432ZM45.8701 101.536H49.4701V113.344C50.8781 112.704 52.1741 112.24 53.3581 111.952C54.5741 111.664 55.8061 111.52 57.0541 111.52C59.1341 111.52 60.7341 111.904 61.8541 112.672C63.0061 113.408 63.8061 114.624 64.2541 116.32C64.7341 118.016 64.9741 120.352 64.9741 123.328V136H61.3741V123.424C61.3741 121.056 61.2301 119.28 60.9421 118.096C60.6861 116.88 60.1741 116.016 59.4061 115.504C58.6701 114.992 57.5661 114.736 56.0941 114.736C54.2701 114.736 52.3661 115.104 50.3821 115.84L49.4701 116.176V136H45.8701V101.536ZM76.8833 136.48C74.6753 136.48 72.9953 135.856 71.8433 134.608C70.6913 133.36 70.1153 131.568 70.1153 129.232C70.1153 126.928 70.6913 125.216 71.8433 124.096C73.0273 122.976 74.8993 122.288 77.4593 122.032L84.9953 121.312V119.248C84.9953 116.208 83.6833 114.688 81.0593 114.688C78.4673 114.688 75.3153 114.896 71.6033 115.312L71.4593 112.576C74.8833 111.872 78.0033 111.52 80.8193 111.52C83.5393 111.52 85.5073 112.144 86.7233 113.392C87.9713 114.608 88.5953 116.56 88.5953 119.248V131.536C88.6913 132.72 89.6193 133.424 91.3793 133.648L91.2353 136.48C88.7073 136.48 86.8033 135.84 85.5233 134.56C82.6753 135.84 79.7953 136.48 76.8833 136.48ZM77.4593 133.456C79.6033 133.456 81.7473 133.088 83.8913 132.352L84.9953 131.968V124.048L77.8913 124.72C76.4513 124.848 75.4113 125.264 74.7713 125.968C74.1313 126.672 73.8113 127.696 73.8113 129.04C73.8113 131.984 75.0273 133.456 77.4593 133.456ZM95.6982 112H99.2502V115.264C102.002 113.376 104.93 112.112 108.034 111.472V115.12C106.786 115.376 105.426 115.776 103.954 116.32C102.514 116.832 101.362 117.312 100.498 117.76L99.2982 118.384V136H95.6982V112ZM120.799 136.48C117.151 136.48 114.559 135.536 113.023 133.648C111.519 131.728 110.767 128.72 110.767 124.624C110.767 120.176 111.583 116.88 113.215 114.736C114.847 112.592 117.407 111.52 120.895 111.52C124.095 111.52 126.479 112.448 128.047 114.304C129.647 116.128 130.447 118.944 130.447 122.752L130.255 125.488H114.415C114.415 127.472 114.623 129.024 115.039 130.144C115.487 131.264 116.223 132.08 117.247 132.592C118.303 133.072 119.759 133.312 121.615 133.312C122.543 133.312 123.615 133.296 124.831 133.264C126.047 133.2 127.151 133.12 128.143 133.024L129.535 132.88L129.631 135.712C126.079 136.224 123.135 136.48 120.799 136.48ZM126.847 122.608C126.847 119.696 126.383 117.632 125.455 116.416C124.527 115.168 123.007 114.544 120.895 114.544C118.687 114.544 117.055 115.2 115.999 116.512C114.943 117.792 114.399 119.824 114.367 122.608H126.847Z" fill="black"/>
</svg>
