<svg width="150" height="150" viewBox="0 0 150 150" fill="none" xmlns="http://www.w3.org/2000/svg">
<rect x="0.5" y="0.5" width="149" height="149" fill="white" stroke="black"/>
<path d="M115.875 54.0833L112.458 51.4583C112.458 51.0833 112.458 50.9167 112.458 50.5417L115.792 47.9167C116.458 47.4167 116.625 46.5 116.208 45.7917L112.667 39.625C112.375 39.0833 111.792 38.7917 111.208 38.7917C111 38.7917 110.792 38.8333 110.583 38.9167L106.625 40.5C106.292 40.2917 106.167 40.2083 105.833 40.0417L105.208 35.8333C105.083 34.9583 104.375 34.3333 103.542 34.3333H96.4167C95.5834 34.3333 94.875 34.9583 94.75 35.75L94.1667 39.9583C94.0417 40.0417 93.875 40.0833 93.75 40.1667C93.625 40.25 93.5 40.3333 93.375 40.4167L89.4167 38.8333C89.2084 38.75 89 38.7083 88.7917 38.7083C88.2084 38.7083 87.6667 39 87.3334 39.5417L83.7917 45.7083C83.375 46.4167 83.5417 47.3333 84.2084 47.8333L87.5417 50.4583C87.5417 50.8333 87.5417 51 87.5417 51.4167L84.2084 54.0417C83.5417 54.5417 83.375 55.4583 83.7917 56.1667L87.3334 62.3333C87.625 62.875 88.2084 63.1667 88.7917 63.1667C89 63.1667 89.2084 63.125 89.4167 63.0417L93.375 61.5C93.7084 61.7083 93.875 61.7917 94.2084 61.9583L94.8334 66.1667C94.9584 67 95.6667 67.5833 96.5 67.5833H103.625C104.458 67.5833 105.167 66.9583 105.292 66.1667L105.917 61.9583C106.042 61.875 106.208 61.8333 106.333 61.75C106.458 61.6667 106.583 61.5833 106.708 61.5L110.667 63.0833C110.875 63.1667 111.083 63.2083 111.292 63.2083C111.875 63.2083 112.417 62.9167 112.75 62.375L116.292 56.2083C116.708 55.5 116.542 54.5833 115.875 54.0833ZM100 57.25C96.5417 57.25 93.75 54.4583 93.75 51C93.75 47.5417 96.5417 44.75 100 44.75C103.458 44.75 106.25 47.5417 106.25 51C106.25 54.4583 103.458 57.25 100 57.25ZM45.8334 96.8333V5.16667H104.167V30.1667H95.8334V26H54.1667V76H95.8334V71.8333H104.167V96.8333H45.8334Z" fill="black"/>
<path d="M15.7811 126.324C14.1011 126.324 11.9051 126.12 9.19313 125.712L7.89713 125.532L8.18513 123.228C11.4731 123.66 13.9571 123.876 15.6371 123.876C19.1891 123.876 20.9651 122.208 20.9651 118.872C20.9651 117.96 20.7971 117.24 20.4611 116.712C20.1491 116.184 19.5971 115.752 18.8051 115.416C18.0371 115.08 16.9091 114.768 15.4211 114.48C13.4531 114.072 11.9171 113.604 10.8131 113.076C9.73313 112.548 8.94113 111.84 8.43713 110.952C7.93313 110.064 7.68113 108.876 7.68113 107.388C7.68113 102.924 10.3571 100.692 15.7091 100.692C17.5571 100.692 20.0651 100.932 23.2331 101.412L22.9811 103.752C19.5251 103.344 17.1611 103.14 15.8891 103.14C12.2891 103.14 10.4891 104.496 10.4891 107.208C10.4891 108.24 10.6571 109.032 10.9931 109.584C11.3531 110.112 11.9531 110.544 12.7931 110.88C13.6331 111.216 14.9651 111.588 16.7891 111.996C18.5651 112.404 19.9331 112.86 20.8931 113.364C21.8771 113.868 22.5971 114.54 23.0531 115.38C23.5091 116.196 23.7371 117.288 23.7371 118.656C23.7371 123.768 21.0851 126.324 15.7811 126.324ZM34.9688 126.36C33.0488 126.36 31.5248 126.048 30.3968 125.424C29.2688 124.776 28.4648 123.78 27.9848 122.436C27.5048 121.092 27.2648 119.316 27.2648 117.108C27.2648 114.828 27.5168 113.004 28.0208 111.636C28.5248 110.244 29.3408 109.236 30.4688 108.612C31.5968 107.964 33.0968 107.64 34.9688 107.64C36.8648 107.64 38.3648 107.964 39.4688 108.612C40.5968 109.26 41.4128 110.268 41.9168 111.636C42.4208 113.004 42.6728 114.828 42.6728 117.108C42.6728 119.316 42.4328 121.092 41.9528 122.436C41.4728 123.78 40.6688 124.776 39.5408 125.424C38.4368 126.048 36.9128 126.36 34.9688 126.36ZM35.0048 124.02C36.3248 124.02 37.3328 123.804 38.0288 123.372C38.7248 122.916 39.2048 122.208 39.4688 121.248C39.7568 120.264 39.9008 118.884 39.9008 117.108C39.9008 115.236 39.7568 113.796 39.4688 112.788C39.1808 111.78 38.6888 111.06 37.9928 110.628C37.2968 110.196 36.3008 109.98 35.0048 109.98C33.7088 109.98 32.7008 110.196 31.9808 110.628C31.2848 111.06 30.7808 111.78 30.4688 112.788C30.1808 113.796 30.0368 115.236 30.0368 117.108C30.0368 118.86 30.1688 120.228 30.4328 121.212C30.7208 122.196 31.2128 122.916 31.9088 123.372C32.6288 123.804 33.6608 124.02 35.0048 124.02ZM47.8324 110.34H45.5644V108H47.8324V106.38C47.8324 104.676 47.9884 103.356 48.3004 102.42C48.6124 101.46 49.1164 100.788 49.8124 100.404C50.5084 99.996 51.4684 99.792 52.6924 99.792L56.3284 100.044L56.2924 102.276C54.7804 102.228 53.8444 102.204 53.4844 102.204C53.1484 102.18 52.9324 102.168 52.8364 102.168C51.9484 102.168 51.3364 102.528 51.0004 103.248C50.6884 103.968 50.5324 105.024 50.5324 106.416V108H55.7524V110.34H50.5324V126H47.8324V110.34ZM64.191 126.396C62.967 126.396 62.007 126.204 61.311 125.82C60.639 125.412 60.147 124.74 59.835 123.804C59.547 122.844 59.403 121.512 59.403 119.808V110.34H56.847V108H59.403V102.492H62.067V108H67.791V110.34H62.067V118.944C62.067 120.288 62.115 121.296 62.211 121.968C62.307 122.616 62.535 123.12 62.895 123.48C63.279 123.816 63.867 123.984 64.659 123.984L67.863 123.768L68.043 126C66.339 126.264 65.055 126.396 64.191 126.396ZM69.6121 108H72.3121L75.9481 123.66H76.5241L80.8081 108.36H83.6161L87.9001 123.66H88.5121L92.1121 108H94.8121L90.5281 126H86.0281L82.2121 111.924L78.3961 126H73.8961L69.6121 108ZM102.258 126.36C100.602 126.36 99.3422 125.892 98.4782 124.956C97.6142 124.02 97.1822 122.676 97.1822 120.924C97.1822 119.196 97.6142 117.912 98.4782 117.072C99.3662 116.232 100.77 115.716 102.69 115.524L108.342 114.984V113.436C108.342 111.156 107.358 110.016 105.39 110.016C103.446 110.016 101.082 110.172 98.2982 110.484L98.1902 108.432C100.758 107.904 103.098 107.64 105.21 107.64C107.25 107.64 108.726 108.108 109.638 109.044C110.574 109.956 111.042 111.42 111.042 113.436V122.652C111.114 123.54 111.81 124.068 113.13 124.236L113.022 126.36C111.126 126.36 109.698 125.88 108.738 124.92C106.602 125.88 104.442 126.36 102.258 126.36ZM102.69 124.092C104.298 124.092 105.906 123.816 107.514 123.264L108.342 122.976V117.036L103.014 117.54C101.934 117.636 101.154 117.948 100.674 118.476C100.194 119.004 99.9542 119.772 99.9542 120.78C99.9542 122.988 100.866 124.092 102.69 124.092ZM116.369 108H119.033V110.448C121.097 109.032 123.293 108.084 125.621 107.604V110.34C124.685 110.532 123.665 110.832 122.561 111.24C121.481 111.624 120.617 111.984 119.969 112.32L119.069 112.788V126H116.369V108ZM135.195 126.36C132.459 126.36 130.515 125.652 129.363 124.236C128.235 122.796 127.671 120.54 127.671 117.468C127.671 114.132 128.283 111.66 129.507 110.052C130.731 108.444 132.651 107.64 135.267 107.64C137.667 107.64 139.455 108.336 140.631 109.728C141.831 111.096 142.431 113.208 142.431 116.064L142.287 118.116H130.407C130.407 119.604 130.563 120.768 130.875 121.608C131.211 122.448 131.763 123.06 132.531 123.444C133.323 123.804 134.415 123.984 135.807 123.984C136.503 123.984 137.307 123.972 138.219 123.948C139.131 123.9 139.959 123.84 140.703 123.768L141.747 123.66L141.819 125.784C139.155 126.168 136.947 126.36 135.195 126.36ZM139.731 115.956C139.731 113.772 139.383 112.224 138.687 111.312C137.991 110.376 136.851 109.908 135.267 109.908C133.611 109.908 132.387 110.4 131.595 111.384C130.803 112.344 130.395 113.868 130.371 115.956H139.731Z" fill="black"/>
</svg>
