<svg viewBox="0 0 110 110" fill="none" xmlns="http://www.w3.org/2000/svg">
<path d="M55 22.4125L64.4875 41.5938L66.0688 45.0312L69.5063 45.5469L90.6813 48.6063L75.625 63.3875L73.0469 65.8969L73.6656 69.3344L77.275 90.4062L58.3344 80.4719L55 79.0625L51.8031 80.7469L32.8625 90.5437L36.3 69.4719L36.9188 66.0344L34.375 63.3875L19.1813 48.4344L40.3563 45.375L43.7938 44.8594L45.375 41.4219L55 22.4125ZM55 6.875L39.3594 38.5688L4.40002 43.6219L29.7 68.3031L23.7188 103.125L55 86.6937L86.2813 103.125L80.3 68.3031L105.6 43.6562L70.6406 38.5688L55 6.875Z" fill="black"/>
<rect x="0.5" y="0.5" width="109" height="109" stroke="black"/>
</svg>
