<svg height="150" width="150" viewBox="0 0 150 150" fill="none" xmlns="http://www.w3.org/2000/svg">
<rect x="0.5" y="0.5" width="149" height="149" fill="white" stroke="black"/>
<path d="M71.5 58.1667C80.7048 58.1667 88.1667 50.7048 88.1667 41.5C88.1667 32.2953 80.7048 24.8333 71.5 24.8333C62.2953 24.8333 54.8333 32.2953 54.8333 41.5C54.8333 50.7048 62.2953 58.1667 71.5 58.1667Z" fill="black"/>
<path d="M71.5 66.5C60.375 66.5 38.1667 72.0833 38.1667 83.1667V91.5H104.833V83.1667C104.833 72.0833 82.625 66.5 71.5 66.5ZM103.833 26.3333L96.8333 33.375C100.333 38.2917 100.333 44.6667 96.8333 49.5833L103.833 56.625C112.25 48.2083 112.25 35.5 103.833 26.3333ZM117.625 12.3333L110.833 19.125C122.375 31.7083 122.375 50.625 110.833 63.875L117.625 70.6667C133.875 54.4583 133.917 29.2083 117.625 12.3333Z" fill="black"/>
<path d="M47.7855 106.096H37.5615V102.784H61.5615V106.096H51.4335V136H47.7855V106.096ZM66.6255 136.48C64.4175 136.48 62.7375 135.856 61.5855 134.608C60.4335 133.36 59.8575 131.568 59.8575 129.232C59.8575 126.928 60.4335 125.216 61.5855 124.096C62.7695 122.976 64.6415 122.288 67.2015 122.032L74.7375 121.312V119.248C74.7375 116.208 73.4255 114.688 70.8015 114.688C68.2095 114.688 65.0575 114.896 61.3455 115.312L61.2015 112.576C64.6255 111.872 67.7455 111.52 70.5615 111.52C73.2815 111.52 75.2495 112.144 76.4655 113.392C77.7135 114.608 78.3375 116.56 78.3375 119.248V131.536C78.4335 132.72 79.3615 133.424 81.1215 133.648L80.9775 136.48C78.4495 136.48 76.5455 135.84 75.2655 134.56C72.4175 135.84 69.5375 136.48 66.6255 136.48ZM67.2015 133.456C69.3455 133.456 71.4895 133.088 73.6335 132.352L74.7375 131.968V124.048L67.6335 124.72C66.1935 124.848 65.1535 125.264 64.5135 125.968C63.8735 126.672 63.5535 127.696 63.5535 129.04C63.5535 131.984 64.7695 133.456 67.2015 133.456ZM85.7284 101.536H89.3284V136H85.7284V101.536ZM96.5498 101.536H100.15V121.888L103.894 121.696L110.758 112H114.838L107.014 123.04L115.174 136H111.094L103.942 124.864L100.15 125.008V136H96.5498V101.536Z" fill="black"/>
</svg>
