<svg width="340" height="100" viewBox="0 0 340 100" fill="none" xmlns="http://www.w3.org/2000/svg">
<rect x="0.5" y="0.5" width="339" height="99" fill="white" stroke="black"/>
<path d="M30.5696 33.54C26.4896 33.54 23.3336 32.436 21.1016 30.228C18.8696 28.02 17.7536 24.864 17.7536 20.76C17.7536 16.656 18.8456 13.5 21.0296 11.292C23.2376 9.084 26.3816 7.98 30.4616 7.98C32.0936 7.98 33.6056 8.148 34.9976 8.484C36.3896 8.82 37.5656 9.3 38.5256 9.924C38.7416 10.068 38.8496 10.224 38.8496 10.392C38.8496 10.536 38.7896 10.704 38.6696 10.896L37.6616 12.624C37.5176 12.84 37.3856 12.948 37.2656 12.948C37.1696 12.948 37.0016 12.888 36.7616 12.768C35.2496 11.856 33.3176 11.4 30.9656 11.4C28.2536 11.4 26.1296 12.18 24.5936 13.74C23.0576 15.3 22.2896 17.64 22.2896 20.76C22.2896 23.928 23.0816 26.292 24.6656 27.852C26.2496 29.388 28.3856 30.156 31.0736 30.156C33.5696 30.156 35.6216 29.688 37.2296 28.752C37.4696 28.632 37.6256 28.572 37.6976 28.572C37.8416 28.572 37.9856 28.68 38.1296 28.896L39.2456 30.768C39.3176 30.912 39.3536 31.032 39.3536 31.128C39.3536 31.272 39.2216 31.428 38.9576 31.596C37.1096 32.892 34.3136 33.54 30.5696 33.54ZM50.2557 33.54C47.1357 33.54 44.7237 32.724 43.0197 31.092C41.3397 29.436 40.4997 27.192 40.4997 24.36C40.4997 21.528 41.3397 19.296 43.0197 17.664C44.7237 16.008 47.1357 15.18 50.2557 15.18C53.3757 15.18 55.7877 16.008 57.4917 17.664C59.1957 19.296 60.0477 21.528 60.0477 24.36C60.0477 27.192 59.1957 29.436 57.4917 31.092C55.7877 32.724 53.3757 33.54 50.2557 33.54ZM50.2557 30.156C51.9597 30.156 53.2557 29.664 54.1437 28.68C55.0317 27.696 55.4757 26.256 55.4757 24.36C55.4757 22.488 55.0317 21.072 54.1437 20.112C53.2557 19.128 51.9597 18.636 50.2557 18.636C48.5757 18.636 47.2797 19.128 46.3677 20.112C45.4797 21.072 45.0357 22.488 45.0357 24.36C45.0357 26.232 45.4797 27.672 46.3677 28.68C47.2797 29.664 48.5757 30.156 50.2557 30.156ZM64.9471 33C64.4671 33 64.1191 32.892 63.9031 32.676C63.6871 32.46 63.5791 32.136 63.5791 31.704V16.692C63.5791 16.332 63.6391 16.08 63.7591 15.936C63.8791 15.792 64.1311 15.72 64.5151 15.72H66.5671C67.0951 15.72 67.3711 15.96 67.3951 16.44L67.4671 17.88C69.0991 16.08 71.4391 15.18 74.4871 15.18C76.4311 15.18 77.9911 15.708 79.1671 16.764C80.3671 17.796 80.9671 19.356 80.9671 21.444V31.704C80.9671 32.136 80.8591 32.46 80.6431 32.676C80.4511 32.892 80.1151 33 79.6351 33H77.7271C77.2471 33 76.8991 32.892 76.6831 32.676C76.4671 32.46 76.3591 32.136 76.3591 31.704V21.732C76.3591 20.556 76.0831 19.728 75.5311 19.248C75.0031 18.744 74.1391 18.492 72.9391 18.492C71.6671 18.492 70.5511 18.84 69.5911 19.536C68.6551 20.208 68.1871 21.084 68.1871 22.164V31.704C68.1871 32.136 68.0791 32.46 67.8631 32.676C67.6711 32.892 67.3231 33 66.8191 33H64.9471ZM92.9804 33.54C90.9404 33.54 89.4044 32.976 88.3724 31.848C87.3404 30.72 86.8244 29.16 86.8244 27.168V19.104H84.7724C84.2924 19.104 83.9684 19.02 83.8004 18.852C83.6564 18.684 83.5844 18.372 83.5844 17.916V16.944C83.5844 16.488 83.6564 16.176 83.8004 16.008C83.9684 15.816 84.2924 15.72 84.7724 15.72H86.8244V13.74C86.8244 13.236 86.9084 12.768 87.0764 12.336C87.2684 11.88 87.5564 11.316 87.9404 10.644C88.0844 10.356 88.2164 10.176 88.3364 10.104C88.4804 10.008 88.7204 9.96 89.0564 9.96H90.2444C90.6764 9.96 90.9764 10.068 91.1444 10.284C91.3364 10.476 91.4324 10.776 91.4324 11.184V15.72H95.6804C96.1604 15.72 96.4724 15.816 96.6164 16.008C96.7844 16.176 96.8684 16.488 96.8684 16.944V17.916C96.8684 18.372 96.7844 18.684 96.6164 18.852C96.4724 19.02 96.1604 19.104 95.6804 19.104H91.4324V27.024C91.4324 28.128 91.6244 28.932 92.0084 29.436C92.3924 29.916 93.0524 30.156 93.9884 30.156C94.5404 30.156 95.0084 30.096 95.3924 29.976C95.7764 29.832 96.1964 29.604 96.6524 29.292C96.7724 29.196 96.9044 29.148 97.0484 29.148C97.1924 29.148 97.3364 29.256 97.4804 29.472L98.5244 31.2C98.6204 31.32 98.6684 31.452 98.6684 31.596C98.6684 31.764 98.5484 31.932 98.3084 32.1C96.8204 33.06 95.0444 33.54 92.9804 33.54ZM110.802 33.54C108.93 33.54 107.238 33.228 105.726 32.604C104.214 31.956 103.002 30.972 102.09 29.652C101.202 28.308 100.758 26.64 100.758 24.648C100.758 21.552 101.586 19.2 103.242 17.592C104.898 15.984 107.25 15.18 110.298 15.18C113.322 15.18 115.602 15.96 117.138 17.52C118.698 19.08 119.478 21.336 119.478 24.288C119.478 25.128 119.094 25.548 118.326 25.548H105.114C105.114 27.132 105.666 28.356 106.77 29.22C107.874 30.06 109.41 30.48 111.378 30.48C113.274 30.48 114.978 30.048 116.49 29.184C116.658 29.088 116.79 29.04 116.886 29.04C117.054 29.04 117.186 29.148 117.282 29.364L118.146 30.912C118.218 31.056 118.254 31.188 118.254 31.308C118.254 31.476 118.146 31.632 117.93 31.776C116.946 32.376 115.878 32.82 114.726 33.108C113.598 33.396 112.29 33.54 110.802 33.54ZM115.302 22.884C115.302 21.396 114.882 20.232 114.042 19.392C113.226 18.552 111.99 18.132 110.334 18.132C108.654 18.132 107.358 18.564 106.446 19.428C105.558 20.292 105.114 21.444 105.114 22.884H115.302ZM124.361 33C123.881 33 123.533 32.892 123.317 32.676C123.101 32.46 122.993 32.136 122.993 31.704V16.692C122.993 16.332 123.053 16.08 123.173 15.936C123.293 15.792 123.545 15.72 123.929 15.72H125.981C126.509 15.72 126.785 15.96 126.809 16.44L126.881 17.88C128.513 16.08 130.853 15.18 133.901 15.18C135.845 15.18 137.405 15.708 138.581 16.764C139.781 17.796 140.381 19.356 140.381 21.444V31.704C140.381 32.136 140.273 32.46 140.057 32.676C139.865 32.892 139.529 33 139.049 33H137.141C136.661 33 136.313 32.892 136.097 32.676C135.881 32.46 135.773 32.136 135.773 31.704V21.732C135.773 20.556 135.497 19.728 134.945 19.248C134.417 18.744 133.553 18.492 132.353 18.492C131.081 18.492 129.965 18.84 129.005 19.536C128.069 20.208 127.601 21.084 127.601 22.164V31.704C127.601 32.136 127.493 32.46 127.277 32.676C127.085 32.892 126.737 33 126.233 33H124.361ZM152.394 33.54C150.354 33.54 148.818 32.976 147.786 31.848C146.754 30.72 146.238 29.16 146.238 27.168V19.104H144.186C143.706 19.104 143.382 19.02 143.214 18.852C143.07 18.684 142.998 18.372 142.998 17.916V16.944C142.998 16.488 143.07 16.176 143.214 16.008C143.382 15.816 143.706 15.72 144.186 15.72H146.238V13.74C146.238 13.236 146.322 12.768 146.49 12.336C146.682 11.88 146.97 11.316 147.354 10.644C147.498 10.356 147.63 10.176 147.75 10.104C147.894 10.008 148.134 9.96 148.47 9.96H149.658C150.09 9.96 150.39 10.068 150.558 10.284C150.75 10.476 150.846 10.776 150.846 11.184V15.72H155.094C155.574 15.72 155.886 15.816 156.03 16.008C156.198 16.176 156.282 16.488 156.282 16.944V17.916C156.282 18.372 156.198 18.684 156.03 18.852C155.886 19.02 155.574 19.104 155.094 19.104H150.846V27.024C150.846 28.128 151.038 28.932 151.422 29.436C151.806 29.916 152.466 30.156 153.402 30.156C153.954 30.156 154.422 30.096 154.806 29.976C155.19 29.832 155.61 29.604 156.066 29.292C156.186 29.196 156.318 29.148 156.462 29.148C156.606 29.148 156.75 29.256 156.894 29.472L157.938 31.2C158.034 31.32 158.082 31.452 158.082 31.596C158.082 31.764 157.962 31.932 157.722 32.1C156.234 33.06 154.458 33.54 152.394 33.54ZM187.015 33.54C182.935 33.54 179.779 32.436 177.547 30.228C175.315 28.02 174.199 24.864 174.199 20.76C174.199 16.656 175.291 13.5 177.475 11.292C179.683 9.084 182.827 7.98 186.907 7.98C188.539 7.98 190.051 8.148 191.443 8.484C192.835 8.82 194.011 9.3 194.971 9.924C195.187 10.068 195.295 10.224 195.295 10.392C195.295 10.536 195.235 10.704 195.115 10.896L194.107 12.624C193.963 12.84 193.831 12.948 193.711 12.948C193.615 12.948 193.447 12.888 193.207 12.768C191.695 11.856 189.763 11.4 187.411 11.4C184.699 11.4 182.575 12.18 181.039 13.74C179.503 15.3 178.735 17.64 178.735 20.76C178.735 23.928 179.527 26.292 181.111 27.852C182.695 29.388 184.831 30.156 187.519 30.156C190.015 30.156 192.067 29.688 193.675 28.752C193.915 28.632 194.071 28.572 194.143 28.572C194.287 28.572 194.431 28.68 194.575 28.896L195.691 30.768C195.763 30.912 195.799 31.032 195.799 31.128C195.799 31.272 195.667 31.428 195.403 31.596C193.555 32.892 190.759 33.54 187.015 33.54ZM199.736 33C199.256 33 198.908 32.892 198.692 32.676C198.476 32.46 198.368 32.136 198.368 31.704V16.692C198.368 16.332 198.428 16.08 198.548 15.936C198.668 15.792 198.92 15.72 199.304 15.72H201.356C201.62 15.72 201.812 15.78 201.932 15.9C202.052 15.996 202.124 16.176 202.148 16.44L202.256 17.736C203.672 16.032 205.532 15.18 207.836 15.18C208.892 15.18 209.696 15.36 210.248 15.72C210.392 15.816 210.476 15.924 210.5 16.044C210.548 16.14 210.548 16.26 210.5 16.404L209.852 18.564C209.78 18.804 209.648 18.924 209.456 18.924L209.168 18.852C208.592 18.588 207.932 18.456 207.188 18.456C205.964 18.456 204.956 18.804 204.164 19.5C203.372 20.172 202.976 21.096 202.976 22.272V31.704C202.976 32.136 202.868 32.46 202.652 32.676C202.46 32.892 202.112 33 201.608 33H199.736ZM222.669 33.54C220.797 33.54 219.105 33.228 217.593 32.604C216.081 31.956 214.869 30.972 213.957 29.652C213.069 28.308 212.625 26.64 212.625 24.648C212.625 21.552 213.453 19.2 215.109 17.592C216.765 15.984 219.117 15.18 222.165 15.18C225.189 15.18 227.469 15.96 229.005 17.52C230.565 19.08 231.345 21.336 231.345 24.288C231.345 25.128 230.961 25.548 230.193 25.548H216.981C216.981 27.132 217.533 28.356 218.637 29.22C219.741 30.06 221.277 30.48 223.245 30.48C225.141 30.48 226.845 30.048 228.357 29.184C228.525 29.088 228.657 29.04 228.753 29.04C228.921 29.04 229.053 29.148 229.149 29.364L230.013 30.912C230.085 31.056 230.121 31.188 230.121 31.308C230.121 31.476 230.013 31.632 229.797 31.776C228.813 32.376 227.745 32.82 226.593 33.108C225.465 33.396 224.157 33.54 222.669 33.54ZM227.169 22.884C227.169 21.396 226.749 20.232 225.909 19.392C225.093 18.552 223.857 18.132 222.201 18.132C220.521 18.132 219.225 18.564 218.313 19.428C217.425 20.292 216.981 21.444 216.981 22.884H227.169ZM241.844 33.54C239.492 33.54 237.62 32.832 236.228 31.416C234.836 29.976 234.14 27.96 234.14 25.368C234.14 23.352 234.584 21.576 235.472 20.04C236.36 18.48 237.62 17.28 239.252 16.44C240.908 15.6 242.828 15.18 245.012 15.18C248.06 15.18 250.64 15.9 252.752 17.34V32.028C252.752 32.388 252.668 32.64 252.5 32.784C252.356 32.928 252.092 33 251.708 33H249.728C249.464 33 249.26 32.952 249.116 32.856C248.996 32.736 248.912 32.556 248.864 32.316L248.576 30.912C247.832 31.824 246.908 32.496 245.804 32.928C244.724 33.336 243.404 33.54 241.844 33.54ZM243.572 30.264C244.844 30.264 245.96 29.892 246.92 29.148C247.904 28.404 248.396 27.42 248.396 26.196V19.176C247.892 18.912 247.376 18.732 246.848 18.636C246.344 18.516 245.72 18.456 244.976 18.456C243.08 18.456 241.556 19.056 240.404 20.256C239.252 21.456 238.676 23.112 238.676 25.224C238.676 26.952 239.072 28.224 239.864 29.04C240.68 29.856 241.916 30.264 243.572 30.264ZM264.051 33.54C262.011 33.54 260.475 32.976 259.443 31.848C258.411 30.72 257.895 29.16 257.895 27.168V19.104H255.843C255.363 19.104 255.039 19.02 254.871 18.852C254.727 18.684 254.655 18.372 254.655 17.916V16.944C254.655 16.488 254.727 16.176 254.871 16.008C255.039 15.816 255.363 15.72 255.843 15.72H257.895V13.74C257.895 13.236 257.979 12.768 258.147 12.336C258.339 11.88 258.627 11.316 259.011 10.644C259.155 10.356 259.287 10.176 259.407 10.104C259.551 10.008 259.791 9.96 260.127 9.96H261.315C261.747 9.96 262.047 10.068 262.215 10.284C262.407 10.476 262.503 10.776 262.503 11.184V15.72H266.751C267.231 15.72 267.543 15.816 267.687 16.008C267.855 16.176 267.939 16.488 267.939 16.944V17.916C267.939 18.372 267.855 18.684 267.687 18.852C267.543 19.02 267.231 19.104 266.751 19.104H262.503V27.024C262.503 28.128 262.695 28.932 263.079 29.436C263.463 29.916 264.123 30.156 265.059 30.156C265.611 30.156 266.079 30.096 266.463 29.976C266.847 29.832 267.267 29.604 267.723 29.292C267.843 29.196 267.975 29.148 268.119 29.148C268.263 29.148 268.407 29.256 268.551 29.472L269.595 31.2C269.691 31.32 269.739 31.452 269.739 31.596C269.739 31.764 269.619 31.932 269.379 32.1C267.891 33.06 266.115 33.54 264.051 33.54ZM274.348 12.732C273.772 12.732 273.328 12.564 273.016 12.228C272.704 11.892 272.548 11.484 272.548 11.004V10.248C272.548 9.768 272.704 9.36 273.016 9.024C273.328 8.688 273.772 8.52 274.348 8.52H275.896C276.472 8.52 276.916 8.688 277.228 9.024C277.564 9.36 277.732 9.768 277.732 10.248V11.004C277.732 11.484 277.564 11.892 277.228 12.228C276.916 12.564 276.472 12.732 275.896 12.732H274.348ZM274.204 33C273.724 33 273.376 32.892 273.16 32.676C272.944 32.46 272.836 32.136 272.836 31.704V17.052C272.836 16.596 272.944 16.26 273.16 16.044C273.376 15.828 273.724 15.72 274.204 15.72H276.076C276.556 15.72 276.904 15.828 277.12 16.044C277.336 16.26 277.444 16.596 277.444 17.052V31.704C277.444 32.136 277.336 32.46 277.12 32.676C276.928 32.892 276.58 33 276.076 33H274.204ZM291.006 33.54C287.886 33.54 285.474 32.724 283.77 31.092C282.09 29.436 281.25 27.192 281.25 24.36C281.25 21.528 282.09 19.296 283.77 17.664C285.474 16.008 287.886 15.18 291.006 15.18C294.126 15.18 296.538 16.008 298.242 17.664C299.946 19.296 300.798 21.528 300.798 24.36C300.798 27.192 299.946 29.436 298.242 31.092C296.538 32.724 294.126 33.54 291.006 33.54ZM291.006 30.156C292.71 30.156 294.006 29.664 294.894 28.68C295.782 27.696 296.226 26.256 296.226 24.36C296.226 22.488 295.782 21.072 294.894 20.112C294.006 19.128 292.71 18.636 291.006 18.636C289.326 18.636 288.03 19.128 287.118 20.112C286.23 21.072 285.786 22.488 285.786 24.36C285.786 26.232 286.23 27.672 287.118 28.68C288.03 29.664 289.326 30.156 291.006 30.156ZM305.697 33C305.217 33 304.869 32.892 304.653 32.676C304.437 32.46 304.329 32.136 304.329 31.704V16.692C304.329 16.332 304.389 16.08 304.509 15.936C304.629 15.792 304.881 15.72 305.265 15.72H307.317C307.845 15.72 308.121 15.96 308.145 16.44L308.217 17.88C309.849 16.08 312.189 15.18 315.237 15.18C317.181 15.18 318.741 15.708 319.917 16.764C321.117 17.796 321.717 19.356 321.717 21.444V31.704C321.717 32.136 321.609 32.46 321.393 32.676C321.201 32.892 320.865 33 320.385 33H318.477C317.997 33 317.649 32.892 317.433 32.676C317.217 32.46 317.109 32.136 317.109 31.704V21.732C317.109 20.556 316.833 19.728 316.281 19.248C315.753 18.744 314.889 18.492 313.689 18.492C312.417 18.492 311.301 18.84 310.341 19.536C309.405 20.208 308.937 21.084 308.937 22.164V31.704C308.937 32.136 308.829 32.46 308.613 32.676C308.421 32.892 308.073 33 307.569 33H305.697ZM132.274 90C131.794 90 131.446 89.892 131.23 89.676C131.014 89.46 130.906 89.136 130.906 88.704V69.048H124.606C124.126 69.048 123.79 68.952 123.598 68.76C123.43 68.568 123.346 68.244 123.346 67.788V66.816C123.346 66.36 123.43 66.036 123.598 65.844C123.79 65.628 124.126 65.52 124.606 65.52H141.814C142.294 65.52 142.63 65.628 142.822 65.844C143.014 66.036 143.11 66.36 143.11 66.816V67.788C143.11 68.244 143.014 68.568 142.822 68.76C142.63 68.952 142.294 69.048 141.814 69.048H135.514V88.704C135.514 89.136 135.406 89.46 135.19 89.676C134.998 89.892 134.65 90 134.146 90H132.274ZM148.751 90.54C146.399 90.54 144.527 89.832 143.135 88.416C141.743 86.976 141.047 84.96 141.047 82.368C141.047 80.352 141.491 78.576 142.379 77.04C143.267 75.48 144.527 74.28 146.159 73.44C147.815 72.6 149.735 72.18 151.919 72.18C154.967 72.18 157.547 72.9 159.659 74.34V89.028C159.659 89.388 159.575 89.64 159.407 89.784C159.263 89.928 158.999 90 158.615 90H156.635C156.371 90 156.167 89.952 156.023 89.856C155.903 89.736 155.819 89.556 155.771 89.316L155.483 87.912C154.739 88.824 153.815 89.496 152.711 89.928C151.631 90.336 150.311 90.54 148.751 90.54ZM150.479 87.264C151.751 87.264 152.867 86.892 153.827 86.148C154.811 85.404 155.303 84.42 155.303 83.196V76.176C154.799 75.912 154.283 75.732 153.755 75.636C153.251 75.516 152.627 75.456 151.883 75.456C149.987 75.456 148.463 76.056 147.311 77.256C146.159 78.456 145.583 80.112 145.583 82.224C145.583 83.952 145.979 85.224 146.771 86.04C147.587 86.856 148.823 87.264 150.479 87.264ZM170.489 90.54C169.049 90.54 167.645 90.384 166.277 90.072C164.909 89.784 163.733 89.34 162.749 88.74C162.437 88.572 162.281 88.392 162.281 88.2C162.281 88.056 162.329 87.924 162.425 87.804L163.433 86.04C163.553 85.824 163.673 85.716 163.793 85.716C163.913 85.716 164.069 85.776 164.261 85.896C164.981 86.328 165.869 86.688 166.925 86.976C167.981 87.264 168.953 87.408 169.841 87.408C171.209 87.408 172.181 87.276 172.757 87.012C173.357 86.724 173.657 86.22 173.657 85.5C173.657 85.092 173.537 84.768 173.297 84.528C173.081 84.264 172.745 84.036 172.289 83.844C171.833 83.652 171.077 83.388 170.021 83.052C170.021 83.052 169.625 82.92 168.833 82.656C167.465 82.2 166.373 81.756 165.557 81.324C164.741 80.892 164.105 80.352 163.649 79.704C163.217 79.032 163.001 78.192 163.001 77.184C163.001 75.552 163.685 74.316 165.053 73.476C166.445 72.612 168.245 72.18 170.453 72.18C173.141 72.18 175.457 72.756 177.401 73.908C177.713 74.076 177.869 74.256 177.869 74.448C177.869 74.568 177.809 74.724 177.689 74.916L176.717 76.464C176.573 76.68 176.453 76.788 176.357 76.788C176.261 76.788 176.117 76.728 175.925 76.608C175.301 76.224 174.545 75.924 173.657 75.708C172.793 75.468 171.917 75.348 171.029 75.348C169.829 75.348 168.941 75.48 168.365 75.744C167.813 75.984 167.537 76.464 167.537 77.184C167.537 77.808 167.861 78.3 168.509 78.66C169.181 79.02 170.333 79.452 171.965 79.956L173.153 80.316C175.025 80.916 176.333 81.624 177.077 82.44C177.845 83.256 178.229 84.276 178.229 85.5C178.229 86.988 177.569 88.2 176.249 89.136C174.953 90.072 173.033 90.54 170.489 90.54ZM183.106 90C182.626 90 182.278 89.892 182.062 89.676C181.87 89.46 181.774 89.136 181.774 88.704V66.852C181.774 66.396 181.87 66.06 182.062 65.844C182.278 65.628 182.626 65.52 183.106 65.52H185.014C185.494 65.52 185.842 65.628 186.058 65.844C186.274 66.06 186.382 66.396 186.382 66.852V88.704C186.382 89.136 186.274 89.46 186.058 89.676C185.866 89.892 185.518 90 185.014 90H183.106ZM194.77 90C194.506 90 194.314 89.976 194.194 89.928C194.074 89.88 193.942 89.772 193.798 89.604L187.462 82.44C187.246 82.2 187.09 81.984 186.994 81.792C186.898 81.576 186.85 81.312 186.85 81C186.85 80.688 186.898 80.436 186.994 80.244C187.09 80.028 187.246 79.8 187.462 79.56L193.582 73.152C193.726 72.984 193.858 72.876 193.978 72.828C194.122 72.756 194.35 72.72 194.662 72.72H198.01C198.178 72.72 198.298 72.768 198.37 72.864C198.466 72.96 198.514 73.08 198.514 73.224C198.514 73.416 198.442 73.584 198.298 73.728L191.134 81L198.55 88.992C198.694 89.136 198.766 89.292 198.766 89.46C198.766 89.604 198.718 89.736 198.622 89.856C198.526 89.952 198.394 90 198.226 90H194.77ZM208.176 90.54C206.736 90.54 205.332 90.384 203.964 90.072C202.596 89.784 201.42 89.34 200.436 88.74C200.124 88.572 199.968 88.392 199.968 88.2C199.968 88.056 200.016 87.924 200.112 87.804L201.12 86.04C201.24 85.824 201.36 85.716 201.48 85.716C201.6 85.716 201.756 85.776 201.948 85.896C202.668 86.328 203.556 86.688 204.612 86.976C205.668 87.264 206.64 87.408 207.528 87.408C208.896 87.408 209.868 87.276 210.444 87.012C211.044 86.724 211.344 86.22 211.344 85.5C211.344 85.092 211.224 84.768 210.984 84.528C210.768 84.264 210.432 84.036 209.976 83.844C209.52 83.652 208.764 83.388 207.708 83.052C207.708 83.052 207.312 82.92 206.52 82.656C205.152 82.2 204.06 81.756 203.244 81.324C202.428 80.892 201.792 80.352 201.336 79.704C200.904 79.032 200.688 78.192 200.688 77.184C200.688 75.552 201.372 74.316 202.74 73.476C204.132 72.612 205.932 72.18 208.14 72.18C210.828 72.18 213.144 72.756 215.088 73.908C215.4 74.076 215.556 74.256 215.556 74.448C215.556 74.568 215.496 74.724 215.376 74.916L214.404 76.464C214.26 76.68 214.14 76.788 214.044 76.788C213.948 76.788 213.804 76.728 213.612 76.608C212.988 76.224 212.232 75.924 211.344 75.708C210.48 75.468 209.604 75.348 208.716 75.348C207.516 75.348 206.628 75.48 206.052 75.744C205.5 75.984 205.224 76.464 205.224 77.184C205.224 77.808 205.548 78.3 206.196 78.66C206.868 79.02 208.02 79.452 209.652 79.956L210.84 80.316C212.712 80.916 214.02 81.624 214.764 82.44C215.532 83.256 215.916 84.276 215.916 85.5C215.916 86.988 215.256 88.2 213.936 89.136C212.64 90.072 210.72 90.54 208.176 90.54Z" fill="black"/>
<path d="M18.25 69.75H23.75V64.25H18.25V69.75ZM18.25 80.75H23.75V75.25H18.25V80.75ZM18.25 58.75H23.75V53.25H18.25V58.75ZM29.25 69.75H67.75V64.25H29.25V69.75ZM29.25 80.75H67.75V75.25H29.25V80.75ZM29.25 53.25V58.75H67.75V53.25H29.25Z" fill="black"/>
</svg>
