<svg width="155" height="166" viewBox="0 0 155 166" fill="none" xmlns="http://www.w3.org/2000/svg">
<rect x="0.5" y="0.5" width="154" height="165" fill="white" stroke="black"/>
<path d="M122.833 57L112.667 45.4167L114.083 30.0833L99.0417 26.6667L91.1667 13.4167L77.0001 19.5L62.8334 13.4167L54.9584 26.6667L39.9167 30.0417L41.3334 45.375L31.1667 57L41.3334 68.5833L39.9167 83.9583L54.9584 87.375L62.8334 100.625L77.0001 94.5L91.1667 100.583L99.0417 87.3333L114.083 83.9166L112.667 68.5833L122.833 57ZM81.1667 77.8333H72.8334V69.5H81.1667V77.8333ZM81.1667 61.1667H72.8334V36.1667H81.1667V61.1667Z" fill="black"/>
<path d="M42.0195 128.029C42.0195 130.537 41.5977 132.729 40.7539 134.604C39.9102 136.467 38.7148 137.891 37.168 138.875C35.6211 139.859 33.8164 140.352 31.7539 140.352C29.7383 140.352 27.9512 139.859 26.3926 138.875C24.834 137.879 23.6211 136.467 22.7539 134.639C21.8984 132.799 21.459 130.672 21.4355 128.258V126.412C21.4355 123.951 21.8633 121.777 22.7188 119.891C23.5742 118.004 24.7812 116.562 26.3398 115.566C27.9102 114.559 29.7031 114.055 31.7188 114.055C33.7695 114.055 35.5742 114.553 37.1328 115.549C38.7031 116.533 39.9102 117.969 40.7539 119.855C41.5977 121.73 42.0195 123.916 42.0195 126.412V128.029ZM38.6621 126.377C38.6621 123.342 38.0527 121.016 36.834 119.398C35.6152 117.77 33.9102 116.955 31.7188 116.955C29.5859 116.955 27.9043 117.77 26.6738 119.398C25.4551 121.016 24.8281 123.266 24.793 126.148V128.029C24.793 130.971 25.4082 133.285 26.6387 134.973C27.8809 136.648 29.5859 137.486 31.7539 137.486C33.9336 137.486 35.6211 136.695 36.8164 135.113C38.0117 133.52 38.627 131.24 38.6621 128.275V126.377ZM58.3145 138.119C57.0488 139.607 55.1914 140.352 52.7422 140.352C50.7148 140.352 49.168 139.766 48.1016 138.594C47.0469 137.41 46.5137 135.664 46.502 133.355V120.98H49.7539V133.268C49.7539 136.15 50.9258 137.592 53.2695 137.592C55.7539 137.592 57.4062 136.666 58.2266 134.814V120.98H61.4785V140H58.3848L58.3145 138.119ZM70.8477 116.375V120.98H74.3984V123.494H70.8477V135.289C70.8477 136.051 71.0059 136.625 71.3223 137.012C71.6387 137.387 72.1777 137.574 72.9395 137.574C73.3145 137.574 73.8301 137.504 74.4863 137.363V140C73.6309 140.234 72.7988 140.352 71.9902 140.352C70.5371 140.352 69.4414 139.912 68.7031 139.033C67.9648 138.154 67.5957 136.906 67.5957 135.289V123.494H64.1328V120.98H67.5957V116.375H70.8477ZM89.9551 140C89.7676 139.625 89.6152 138.957 89.498 137.996C87.9863 139.566 86.1816 140.352 84.084 140.352C82.209 140.352 80.668 139.824 79.4609 138.77C78.2656 137.703 77.668 136.355 77.668 134.727C77.668 132.746 78.418 131.211 79.918 130.121C81.4297 129.02 83.5508 128.469 86.2812 128.469H89.4453V126.975C89.4453 125.838 89.1055 124.936 88.4258 124.268C87.7461 123.588 86.7441 123.248 85.4199 123.248C84.2598 123.248 83.2871 123.541 82.502 124.127C81.7168 124.713 81.3242 125.422 81.3242 126.254H78.0547C78.0547 125.305 78.3887 124.391 79.0566 123.512C79.7363 122.621 80.6504 121.918 81.7988 121.402C82.959 120.887 84.2305 120.629 85.6133 120.629C87.8047 120.629 89.5215 121.18 90.7637 122.281C92.0059 123.371 92.6504 124.877 92.6973 126.799V135.553C92.6973 137.299 92.9199 138.688 93.3652 139.719V140H89.9551ZM84.5586 137.521C85.5781 137.521 86.5449 137.258 87.459 136.73C88.373 136.203 89.0352 135.518 89.4453 134.674V130.771H86.8965C82.9121 130.771 80.9199 131.938 80.9199 134.27C80.9199 135.289 81.2598 136.086 81.9395 136.66C82.6191 137.234 83.4922 137.521 84.5586 137.521ZM97.0215 130.332C97.0215 127.367 97.707 125.012 99.0781 123.266C100.449 121.508 102.266 120.629 104.527 120.629C106.848 120.629 108.658 121.449 109.959 123.09L110.117 120.98H113.088V139.543C113.088 142.004 112.355 143.943 110.891 145.361C109.438 146.779 107.48 147.488 105.02 147.488C103.648 147.488 102.307 147.195 100.994 146.609C99.6816 146.023 98.6797 145.221 97.9883 144.201L99.6758 142.25C101.07 143.973 102.775 144.834 104.791 144.834C106.373 144.834 107.604 144.389 108.482 143.498C109.373 142.607 109.818 141.354 109.818 139.736V138.102C108.518 139.602 106.742 140.352 104.492 140.352C102.266 140.352 100.461 139.455 99.0781 137.662C97.707 135.869 97.0215 133.426 97.0215 130.332ZM100.291 130.701C100.291 132.846 100.73 134.533 101.609 135.764C102.488 136.982 103.719 137.592 105.301 137.592C107.352 137.592 108.857 136.66 109.818 134.797V126.113C108.822 124.297 107.328 123.389 105.336 123.389C103.754 123.389 102.518 124.004 101.627 125.234C100.736 126.465 100.291 128.287 100.291 130.701ZM125.902 140.352C123.324 140.352 121.227 139.508 119.609 137.82C117.992 136.121 117.184 133.854 117.184 131.018V130.42C117.184 128.533 117.541 126.852 118.256 125.375C118.982 123.887 119.99 122.727 121.279 121.895C122.58 121.051 123.986 120.629 125.498 120.629C127.971 120.629 129.893 121.443 131.264 123.072C132.635 124.701 133.32 127.033 133.32 130.068V131.422H120.436C120.482 133.297 121.027 134.814 122.07 135.975C123.125 137.123 124.461 137.697 126.078 137.697C127.227 137.697 128.199 137.463 128.996 136.994C129.793 136.525 130.49 135.904 131.088 135.131L133.074 136.678C131.48 139.127 129.09 140.352 125.902 140.352ZM125.498 123.301C124.186 123.301 123.084 123.781 122.193 124.742C121.303 125.691 120.752 127.027 120.541 128.75H130.068V128.504C129.975 126.852 129.529 125.574 128.732 124.672C127.936 123.758 126.857 123.301 125.498 123.301Z" fill="black"/>
</svg>
