<svg viewBox="0 0 820 120" fill="none" xmlns="http://www.w3.org/2000/svg">
<rect x="0.5" y="0.5" width="819" height="119" fill="#FFF9F9" stroke="black"/>
<path d="M418.327 75C417.687 75 417.223 74.856 416.935 74.568C416.679 74.28 416.551 73.848 416.551 73.272V44.136C416.551 43.528 416.679 43.08 416.935 42.792C417.223 42.504 417.687 42.36 418.327 42.36H430.615C434.551 42.36 437.463 43.304 439.351 45.192C441.271 47.048 442.231 49.72 442.231 53.208C442.231 56.664 441.271 59.32 439.351 61.176C437.463 63.032 434.551 63.96 430.615 63.96H422.695V73.272C422.695 73.848 422.551 74.28 422.263 74.568C422.007 74.856 421.543 75 420.871 75H418.327ZM430.327 59.304C432.279 59.304 433.735 58.808 434.695 57.816C435.655 56.792 436.135 55.256 436.135 53.208C436.135 51.128 435.655 49.592 434.695 48.6C433.735 47.576 432.279 47.064 430.327 47.064H422.695V59.304H430.327ZM447.764 75C447.124 75 446.66 74.856 446.372 74.568C446.116 74.28 445.988 73.848 445.988 73.272V44.136C445.988 43.528 446.116 43.08 446.372 42.792C446.66 42.504 447.124 42.36 447.764 42.36H450.308C450.948 42.36 451.412 42.504 451.7 42.792C451.988 43.08 452.132 43.528 452.132 44.136V73.272C452.132 73.848 451.988 74.28 451.7 74.568C451.444 74.856 450.98 75 450.308 75H447.764ZM467.113 75.72C463.977 75.72 461.481 74.776 459.625 72.888C457.769 70.968 456.841 68.28 456.841 64.824C456.841 62.136 457.433 59.768 458.617 57.72C459.801 55.64 461.481 54.04 463.657 52.92C465.865 51.8 468.425 51.24 471.337 51.24C475.401 51.24 478.841 52.2 481.657 54.12V73.704C481.657 74.184 481.545 74.52 481.321 74.712C481.129 74.904 480.777 75 480.265 75H477.625C477.273 75 477.001 74.936 476.809 74.808C476.649 74.648 476.537 74.408 476.473 74.088L476.089 72.216C475.097 73.432 473.865 74.328 472.393 74.904C470.953 75.448 469.193 75.72 467.113 75.72ZM469.417 71.352C471.113 71.352 472.601 70.856 473.881 69.864C475.193 68.872 475.849 67.56 475.849 65.928V56.568C475.177 56.216 474.489 55.976 473.785 55.848C473.113 55.688 472.281 55.608 471.289 55.608C468.761 55.608 466.729 56.408 465.193 58.008C463.657 59.608 462.889 61.816 462.889 64.632C462.889 66.936 463.417 68.632 464.473 69.72C465.561 70.808 467.209 71.352 469.417 71.352ZM489.156 75C488.516 75 488.052 74.856 487.764 74.568C487.476 74.28 487.332 73.848 487.332 73.272V53.256C487.332 52.776 487.412 52.44 487.572 52.248C487.732 52.056 488.068 51.96 488.58 51.96H491.316C492.02 51.96 492.388 52.28 492.42 52.92L492.516 54.84C494.692 52.44 497.812 51.24 501.876 51.24C504.468 51.24 506.548 51.944 508.116 53.352C509.716 54.728 510.516 56.808 510.516 59.592V73.272C510.516 73.848 510.372 74.28 510.084 74.568C509.828 74.856 509.38 75 508.74 75H506.196C505.556 75 505.092 74.856 504.804 74.568C504.516 74.28 504.372 73.848 504.372 73.272V59.976C504.372 58.408 504.004 57.304 503.268 56.664C502.564 55.992 501.412 55.656 499.812 55.656C498.116 55.656 496.628 56.12 495.348 57.048C494.1 57.944 493.476 59.112 493.476 60.552V73.272C493.476 73.848 493.332 74.28 493.044 74.568C492.788 74.856 492.324 75 491.652 75H489.156ZM540.197 82.488C538.981 82.488 537.861 82.312 536.837 81.96C535.813 81.608 534.933 81.128 534.197 80.52C533.941 80.296 533.813 80.088 533.813 79.896C533.813 79.704 533.877 79.528 534.005 79.368L535.349 77.064C535.541 76.744 535.733 76.584 535.925 76.584C536.085 76.584 536.277 76.68 536.501 76.872C537.013 77.256 537.525 77.544 538.037 77.736C538.581 77.928 539.221 78.024 539.957 78.024C540.917 78.024 541.669 77.704 542.213 77.064C542.757 76.456 543.317 75.416 543.893 73.944L534.197 53.304C534.069 52.984 534.005 52.76 534.005 52.632C534.005 52.184 534.261 51.96 534.773 51.96H538.853C539.269 51.96 539.573 52.024 539.765 52.152C539.957 52.28 540.133 52.52 540.293 52.872L546.725 67.944L553.157 52.872C553.317 52.52 553.493 52.28 553.685 52.152C553.877 52.024 554.181 51.96 554.597 51.96H558.677C559.189 51.96 559.445 52.184 559.445 52.632C559.445 52.76 559.381 52.984 559.253 53.304L550.229 72.552C548.981 75.176 547.925 77.16 547.061 78.504C546.229 79.848 545.269 80.84 544.181 81.48C543.125 82.152 541.797 82.488 540.197 82.488ZM575.224 75.72C571.064 75.72 567.848 74.632 565.576 72.456C563.336 70.248 562.216 67.256 562.216 63.48C562.216 59.704 563.336 56.728 565.576 54.552C567.848 52.344 571.064 51.24 575.224 51.24C579.384 51.24 582.6 52.344 584.872 54.552C587.144 56.728 588.28 59.704 588.28 63.48C588.28 67.256 587.144 70.248 584.872 72.456C582.6 74.632 579.384 75.72 575.224 75.72ZM575.224 71.208C577.496 71.208 579.224 70.552 580.408 69.24C581.592 67.928 582.184 66.008 582.184 63.48C582.184 60.984 581.592 59.096 580.408 57.816C579.224 56.504 577.496 55.848 575.224 55.848C572.984 55.848 571.256 56.504 570.04 57.816C568.856 59.096 568.264 60.984 568.264 63.48C568.264 65.976 568.856 67.896 570.04 69.24C571.256 70.552 572.984 71.208 575.224 71.208ZM601.484 75.72C598.86 75.72 596.748 75 595.148 73.56C593.548 72.088 592.748 69.912 592.748 67.032V53.736C592.748 53.128 592.876 52.68 593.132 52.392C593.42 52.104 593.884 51.96 594.524 51.96H597.068C597.708 51.96 598.172 52.104 598.46 52.392C598.748 52.68 598.892 53.128 598.892 53.736V66.888C598.892 68.424 599.292 69.56 600.092 70.296C600.892 71 602.076 71.352 603.644 71.352C605.308 71.352 606.7 70.888 607.82 69.96C608.94 69.032 609.5 67.832 609.5 66.36V53.736C609.5 53.128 609.644 52.68 609.932 52.392C610.22 52.104 610.684 51.96 611.324 51.96H613.82C614.46 51.96 614.924 52.104 615.212 52.392C615.5 52.68 615.644 53.128 615.644 53.736V73.704C615.644 74.216 615.564 74.568 615.404 74.76C615.244 74.92 614.908 75 614.396 75H611.708C611.356 75 611.1 74.936 610.94 74.808C610.78 74.648 610.684 74.408 610.652 74.088L610.46 72.072C608.284 74.504 605.292 75.72 601.484 75.72ZM623.125 75C622.485 75 622.021 74.856 621.733 74.568C621.445 74.28 621.301 73.848 621.301 73.272V53.256C621.301 52.776 621.381 52.44 621.541 52.248C621.701 52.056 622.037 51.96 622.549 51.96H625.285C625.637 51.96 625.893 52.04 626.053 52.2C626.213 52.328 626.309 52.568 626.341 52.92L626.485 54.648C628.373 52.376 630.853 51.24 633.925 51.24C635.333 51.24 636.405 51.48 637.141 51.96C637.333 52.088 637.445 52.232 637.477 52.392C637.541 52.52 637.541 52.68 637.477 52.872L636.613 55.752C636.517 56.072 636.341 56.232 636.085 56.232L635.701 56.136C634.933 55.784 634.053 55.608 633.061 55.608C631.429 55.608 630.085 56.072 629.029 57C627.973 57.896 627.445 59.128 627.445 60.696V73.272C627.445 73.848 627.301 74.28 627.013 74.568C626.757 74.856 626.293 75 625.621 75H623.125ZM661.749 75C661.109 75 660.645 74.856 660.357 74.568C660.101 74.28 659.973 73.848 659.973 73.272V44.136C659.973 43.528 660.101 43.08 660.357 42.792C660.645 42.504 661.109 42.36 661.749 42.36H674.037C677.973 42.36 680.885 43.304 682.773 45.192C684.693 47.048 685.653 49.72 685.653 53.208C685.653 56.664 684.693 59.32 682.773 61.176C680.885 63.032 677.973 63.96 674.037 63.96H666.117V73.272C666.117 73.848 665.973 74.28 665.685 74.568C665.429 74.856 664.965 75 664.293 75H661.749ZM673.749 59.304C675.701 59.304 677.157 58.808 678.117 57.816C679.077 56.792 679.557 55.256 679.557 53.208C679.557 51.128 679.077 49.592 678.117 48.6C677.157 47.576 675.701 47.064 673.749 47.064H666.117V59.304H673.749ZM699.302 75.72C695.142 75.72 691.926 74.632 689.654 72.456C687.414 70.248 686.294 67.256 686.294 63.48C686.294 59.704 687.414 56.728 689.654 54.552C691.926 52.344 695.142 51.24 699.302 51.24C703.462 51.24 706.678 52.344 708.95 54.552C711.222 56.728 712.358 59.704 712.358 63.48C712.358 67.256 711.222 70.248 708.95 72.456C706.678 74.632 703.462 75.72 699.302 75.72ZM699.302 71.208C701.574 71.208 703.302 70.552 704.486 69.24C705.67 67.928 706.262 66.008 706.262 63.48C706.262 60.984 705.67 59.096 704.486 57.816C703.302 56.504 701.574 55.848 699.302 55.848C697.062 55.848 695.334 56.504 694.118 57.816C692.934 59.096 692.342 60.984 692.342 63.48C692.342 65.976 692.934 67.896 694.118 69.24C695.334 70.552 697.062 71.208 699.302 71.208ZM725.832 75.72C723.912 75.72 722.04 75.512 720.216 75.096C718.392 74.712 716.824 74.12 715.512 73.32C715.096 73.096 714.888 72.856 714.888 72.6C714.888 72.408 714.952 72.232 715.08 72.072L716.424 69.72C716.584 69.432 716.744 69.288 716.904 69.288C717.064 69.288 717.272 69.368 717.528 69.528C718.488 70.104 719.672 70.584 721.08 70.968C722.488 71.352 723.784 71.544 724.968 71.544C726.792 71.544 728.088 71.368 728.856 71.016C729.656 70.632 730.056 69.96 730.056 69C730.056 68.456 729.896 68.024 729.576 67.704C729.288 67.352 728.84 67.048 728.232 66.792C727.624 66.536 726.616 66.184 725.208 65.736C725.208 65.736 724.68 65.56 723.624 65.208C721.8 64.6 720.344 64.008 719.256 63.432C718.168 62.856 717.32 62.136 716.712 61.272C716.136 60.376 715.848 59.256 715.848 57.912C715.848 55.736 716.76 54.088 718.584 52.968C720.44 51.816 722.84 51.24 725.784 51.24C729.368 51.24 732.456 52.008 735.048 53.544C735.464 53.768 735.672 54.008 735.672 54.264C735.672 54.424 735.592 54.632 735.432 54.888L734.136 56.952C733.944 57.24 733.784 57.384 733.656 57.384C733.528 57.384 733.336 57.304 733.08 57.144C732.248 56.632 731.24 56.232 730.056 55.944C728.904 55.624 727.736 55.464 726.552 55.464C724.952 55.464 723.768 55.64 723 55.992C722.264 56.312 721.896 56.952 721.896 57.912C721.896 58.744 722.328 59.4 723.192 59.88C724.088 60.36 725.624 60.936 727.8 61.608L729.384 62.088C731.88 62.888 733.624 63.832 734.616 64.92C735.64 66.008 736.152 67.368 736.152 69C736.152 70.984 735.272 72.6 733.512 73.848C731.784 75.096 729.224 75.72 725.832 75.72ZM750.784 75.72C748.064 75.72 746.016 74.968 744.64 73.464C743.264 71.96 742.576 69.88 742.576 67.224V56.472H739.84C739.2 56.472 738.768 56.36 738.544 56.136C738.352 55.912 738.256 55.496 738.256 54.888V53.592C738.256 52.984 738.352 52.568 738.544 52.344C738.768 52.088 739.2 51.96 739.84 51.96H742.576V49.32C742.576 48.648 742.688 48.024 742.912 47.448C743.168 46.84 743.552 46.088 744.064 45.192C744.256 44.808 744.432 44.568 744.592 44.472C744.784 44.344 745.104 44.28 745.552 44.28H747.136C747.712 44.28 748.112 44.424 748.336 44.712C748.592 44.968 748.72 45.368 748.72 45.912V51.96H754.384C755.024 51.96 755.44 52.088 755.632 52.344C755.856 52.568 755.968 52.984 755.968 53.592V54.888C755.968 55.496 755.856 55.912 755.632 56.136C755.44 56.36 755.024 56.472 754.384 56.472H748.72V67.032C748.72 68.504 748.976 69.576 749.488 70.248C750 70.888 750.88 71.208 752.128 71.208C752.864 71.208 753.488 71.128 754 70.968C754.512 70.776 755.072 70.472 755.68 70.056C755.84 69.928 756.016 69.864 756.208 69.864C756.4 69.864 756.592 70.008 756.784 70.296L758.176 72.6C758.304 72.76 758.368 72.936 758.368 73.128C758.368 73.352 758.208 73.576 757.888 73.8C755.904 75.08 753.536 75.72 750.784 75.72Z" fill="black"/>
<rect x="17.5" y="10.5" width="339" height="99" fill="#98AE7B" fill-opacity="0.46" stroke="black"/>
<path d="M137.062 86H140.375V42.25H137.062V86ZM143.25 66.6875H152.875C158.458 66.5208 161.812 63.9792 162.938 59.0625C163.271 57.6458 163.438 56.0833 163.438 54.375C163.438 47.25 160.542 43.2708 154.75 42.4375C154.125 42.3542 153.5 42.2917 152.875 42.25H143.25V45.3125H151.625C156.125 45.3125 158.812 47.125 159.688 50.75C159.938 51.7917 160.062 52.9583 160.062 54.25C160.062 59.3333 158.292 62.3125 154.75 63.1875C153.833 63.3958 152.812 63.5 151.688 63.5H143.25V66.6875ZM167.125 86V42.25H170.438V82.8125H190.625V86H167.125ZM193.75 86L202.25 48.6875H203.312L204.312 53.4375L197.062 86H193.75ZM201.688 77.9375L202.375 74.75H211.938L204.812 42.3125H208.125L217.688 86H214.375L212.688 77.9375H201.688ZM222.125 86V49.625H222.625L225.438 54.1875V86H222.125ZM222.125 44.3125V42.25H225.188L249.938 81.75V86H248.25L222.125 44.3125ZM246.625 71.6875V42.25H249.938V76.3125H249.438L246.625 71.6875Z" fill="black"/>
</svg>
