<svg viewBox="0 0 260 100" fill="none" xmlns="http://www.w3.org/2000/svg">
<rect width="260" height="100" fill="#68785B"/>
<path d="M69.8574 43.3516C68.498 43.3516 67.1855 43.1172 65.9199 42.6484C64.5137 42.1094 63.4473 41.3477 62.7207 40.3633L64.373 38.0781C65.8262 39.7891 67.6895 40.6328 69.9629 40.6094C71.2988 40.6094 72.3652 40.2461 73.1621 39.5195C73.959 38.793 74.3574 37.7617 74.3574 36.4258C74.3574 34.8086 73.4082 33.6016 71.5098 32.8047C70.3379 32.3359 68.5684 31.6094 66.2012 30.625C64.3262 29.4531 63.4004 27.6367 63.4238 25.1758C63.4473 23.3477 64.1738 21.8477 65.6035 20.6758C66.916 19.5742 68.5098 19.0234 70.3848 19.0234C72.5879 19.0234 74.6152 19.75 76.4668 21.2031L74.9551 23.4883C73.6895 22.3398 72.166 21.7656 70.3848 21.7656C67.9473 21.7656 66.7285 22.9727 66.7285 25.3867C66.7285 26.9102 67.9707 28.0938 70.4551 28.9375C73.0801 29.8281 74.8027 30.6133 75.623 31.293C76.8418 32.3477 77.4512 34.0352 77.4512 36.3555C77.4512 38.582 76.748 40.3047 75.3418 41.5234C73.9355 42.7422 72.1074 43.3516 69.8574 43.3516ZM86.627 43.2812C85.291 43.2812 84.248 42.6719 83.498 41.4531C82.8418 40.4219 82.5137 39.2031 82.5137 37.7969V27.5312H79.7012V25.1406H82.5137V21.5195H85.3613V25.1406H90.002V27.5664L85.3613 27.5312V38.2188C85.3613 39.8359 86.0527 40.6328 87.4355 40.6094C88.1855 40.6094 89.123 40.0703 90.248 38.9922L91.6191 40.9609C90.2832 42.5078 88.6191 43.2812 86.627 43.2812ZM105.717 43.3867C104.732 43.3867 103.982 42.8125 103.467 41.6641C102.74 42.2266 102.119 42.625 101.604 42.8594C100.549 43.3281 99.3418 43.5625 97.9824 43.5625C96.459 43.5625 95.252 43.082 94.3613 42.1211C93.4707 41.1602 93.0254 39.9297 93.0254 38.4297C93.0254 36.4844 93.6113 35.0781 94.7832 34.2109C95.5566 33.6484 97.0098 33.1211 99.1426 32.6289C99.9629 32.4414 101.264 32.2656 103.045 32.1016V29.8164C103.045 29.0195 102.729 28.375 102.096 27.8828C101.486 27.3672 100.783 27.1094 99.9863 27.1094C98.6738 27.1094 97.0684 27.8828 95.1699 29.4297L93.6934 27.4258C94.4434 26.7461 95.4277 26.1133 96.6465 25.5273C97.9824 24.8711 99.0957 24.5547 99.9863 24.5781C101.65 24.5781 103.045 25.0938 104.17 26.125C105.295 27.1562 105.857 28.4922 105.857 30.1328V40.293C105.975 40.7617 106.221 41.0078 106.596 41.0312C106.854 41.0547 107.357 40.7969 108.107 40.2578L108.67 42.1211C107.873 42.9648 106.889 43.3867 105.717 43.3867ZM103.045 34.5977C102.342 34.5977 101.428 34.7148 100.303 34.9492C99.6465 35.0664 98.9551 35.2188 98.2285 35.4062C96.4941 35.8516 95.627 36.8711 95.627 38.4648C95.627 39.332 95.873 40.0234 96.3652 40.5391C96.8574 41.0547 97.5371 41.3125 98.4043 41.3125C99.3418 41.3125 100.291 41.0547 101.252 40.5391C102.424 39.9297 103.021 39.168 103.045 38.2539V34.5977ZM119.92 28.2344C119.475 27.9297 118.83 27.7891 117.986 27.8125C117.33 27.8125 116.545 28.2812 115.631 29.2188C114.74 30.1562 114.295 30.9414 114.295 31.5742V43H111.482V25.1758H114.295V28.1289C115.701 25.9023 117.189 24.7891 118.76 24.7891C119.158 24.7891 119.838 24.9766 120.799 25.3516L119.92 28.2344ZM129.201 43.2812C127.865 43.2812 126.822 42.6719 126.072 41.4531C125.416 40.4219 125.088 39.2031 125.088 37.7969V27.5312H122.275V25.1406H125.088V21.5195H127.936V25.1406H132.576V27.5664L127.936 27.5312V38.2188C127.936 39.8359 128.627 40.6328 130.01 40.6094C130.76 40.6094 131.697 40.0703 132.822 38.9922L134.193 40.9609C132.857 42.5078 131.193 43.2812 129.201 43.2812ZM138.342 21.3438C137.779 21.3438 137.311 21.1562 136.936 20.7812C136.584 20.3828 136.408 19.9023 136.408 19.3398C136.408 18.7773 136.584 18.3203 136.936 17.9688C137.311 17.5938 137.779 17.4062 138.342 17.4062C138.904 17.4062 139.361 17.5938 139.713 17.9688C140.064 18.3438 140.24 18.8008 140.24 19.3398C140.24 19.9023 140.064 20.3828 139.713 20.7812C139.361 21.1562 138.904 21.3438 138.342 21.3438ZM136.689 43V25.1758H139.607V43H136.689ZM155.85 43V31.293C155.85 30.1211 155.58 29.1484 155.041 28.375C154.432 27.4844 153.576 27.0391 152.475 27.0391C151.49 27.0391 150.471 27.4258 149.416 28.1992C148.221 29.0664 147.611 30.0625 147.588 31.1875V43H144.775V25.1758H147.588V27.1797C148.525 26.2891 149.311 25.6797 149.943 25.3516C150.834 24.8359 151.783 24.5898 152.791 24.6133C154.455 24.6133 155.85 25.2344 156.975 26.4766C158.1 27.6953 158.662 29.1484 158.662 30.8359V43H155.85ZM179.193 28.6562L175.361 28.5508C175.736 29.3711 175.924 30.168 175.924 30.9414C175.924 32.7461 175.314 34.2461 174.096 35.4414C172.713 36.7773 171.002 37.4453 168.963 37.4453C167.791 37.4453 167.006 37.3047 166.607 37.0234C165.67 37.6094 165.201 38.2539 165.201 38.957C165.201 39.6133 165.658 40.0352 166.572 40.2227C166.994 40.3164 168.166 40.3633 170.088 40.3633C172.549 40.3633 174.225 40.5391 175.115 40.8906C176.709 41.5 177.506 42.8008 177.506 44.793C177.506 46.8555 176.428 48.4844 174.271 49.6797C172.42 50.7109 170.393 51.2266 168.189 51.2266H168.084C166.561 51.2266 165.26 50.9102 164.182 50.2773C162.893 49.4805 162.248 48.3789 162.248 46.9727C162.248 45.4023 163.08 43.8438 164.744 42.2969C164.205 42.1094 163.689 41.6992 163.197 41.0664C162.705 40.4102 162.459 39.8125 162.459 39.2734C162.459 38.6172 162.752 37.9961 163.338 37.4102C164.299 36.4492 164.791 35.957 164.814 35.9336C163.338 34.668 162.576 33.0039 162.529 30.9414C162.529 29.1367 163.221 27.5781 164.604 26.2656C165.893 25.0703 167.486 24.4844 169.385 24.5078C170.486 24.5312 171.541 24.8008 172.549 25.3164C173.439 25.7852 174.096 26.3477 174.518 27.0039L179.193 26.3008V28.6562ZM173.428 30.8711C173.428 29.7461 173.018 28.75 172.197 27.8828C171.4 27.0859 170.416 26.6875 169.244 26.6875C168.049 26.6875 167.076 27.1328 166.326 28.0234C165.6 28.9141 165.236 29.9336 165.236 31.082C165.236 32.2305 165.6 33.2266 166.326 34.0703C167.053 34.8906 167.979 35.3008 169.104 35.3008C170.416 35.3008 171.494 34.8672 172.338 34C173.064 33.2266 173.428 32.1836 173.428 30.8711ZM174.729 44.8984C174.729 43.3281 173.357 42.5547 170.615 42.5781C169.537 42.5781 168.354 42.6133 167.064 42.6836C166.455 42.707 165.916 43.1406 165.447 43.9844C165.025 44.7344 164.814 45.4258 164.814 46.0586C164.814 47.043 165.295 47.8164 166.256 48.3789C167.053 48.8008 167.967 49.0117 168.998 49.0117C170.357 49.0117 171.611 48.6719 172.76 47.9922C174.072 47.1953 174.729 46.1641 174.729 44.8984ZM203.275 43.3867C202.291 43.3867 201.541 42.8125 201.025 41.6641C200.299 42.2266 199.678 42.625 199.162 42.8594C198.107 43.3281 196.9 43.5625 195.541 43.5625C194.018 43.5625 192.811 43.082 191.92 42.1211C191.029 41.1602 190.584 39.9297 190.584 38.4297C190.584 36.4844 191.17 35.0781 192.342 34.2109C193.115 33.6484 194.568 33.1211 196.701 32.6289C197.521 32.4414 198.822 32.2656 200.604 32.1016V29.8164C200.604 29.0195 200.287 28.375 199.654 27.8828C199.045 27.3672 198.342 27.1094 197.545 27.1094C196.232 27.1094 194.627 27.8828 192.729 29.4297L191.252 27.4258C192.002 26.7461 192.986 26.1133 194.205 25.5273C195.541 24.8711 196.654 24.5547 197.545 24.5781C199.209 24.5781 200.604 25.0938 201.729 26.125C202.854 27.1562 203.416 28.4922 203.416 30.1328V40.293C203.533 40.7617 203.779 41.0078 204.154 41.0312C204.412 41.0547 204.916 40.7969 205.666 40.2578L206.229 42.1211C205.432 42.9648 204.447 43.3867 203.275 43.3867ZM200.604 34.5977C199.9 34.5977 198.986 34.7148 197.861 34.9492C197.205 35.0664 196.514 35.2188 195.787 35.4062C194.053 35.8516 193.186 36.8711 193.186 38.4648C193.186 39.332 193.432 40.0234 193.924 40.5391C194.416 41.0547 195.096 41.3125 195.963 41.3125C196.9 41.3125 197.85 41.0547 198.811 40.5391C199.982 39.9297 200.58 39.168 200.604 38.2539V34.5977ZM79.1562 83L71.8789 82.9297V59.9375L77.8203 59.832C77.8672 59.832 78.0312 59.8203 78.3125 59.7969C78.3125 59.7969 78.4766 59.7969 78.8047 59.7969C80.6562 59.7969 82.1211 60.2305 83.1992 61.0977C84.3477 62.0586 84.9219 63.4531 84.9219 65.2812C84.9219 67.2969 84.418 68.668 83.4102 69.3945C82.8711 69.7461 82.0859 70.0742 81.0547 70.3789C84.7344 71.1758 86.5625 73.1797 86.5391 76.3906C86.5391 78.5469 85.8359 80.2109 84.4297 81.3828C83.1172 82.4844 81.3594 83.0234 79.1562 83ZM78.0664 61.9414C77.7383 61.9414 76.7422 61.9766 75.0781 62.0469V69.5L77.5391 69.5352C78.8281 69.5586 79.8828 69.2422 80.7031 68.5859C81.6172 67.8594 82.0742 66.875 82.0742 65.6328C82.0742 63.1719 80.7383 61.9414 78.0664 61.9414ZM78.3828 71.7852H75.0781V80.5742H78.4531C81.7812 80.5742 83.4453 79.168 83.4453 76.3555C83.4453 74.9727 82.9531 73.8711 81.9688 73.0508C80.9844 72.207 79.7891 71.7852 78.3828 71.7852ZM104.504 83H101.938L101.551 81.1367C99.7695 82.8242 97.9297 83.6562 96.0312 83.6328C94.3906 83.6328 93.0664 82.9648 92.0586 81.6289C91.1445 80.3867 90.6992 78.9219 90.7227 77.2344V65.1758H93.5352V77.0938C93.5352 79.7656 94.6016 81.1016 96.7344 81.1016C97.7422 81.1016 98.8203 80.6797 99.9688 79.8359C101.117 78.9922 101.691 78.0781 101.691 77.0938V65.1758H104.504V83ZM114.523 83.4922C112.062 83.4922 110.07 82.8008 108.547 81.418L109.988 79.2031C111.23 80.3984 112.836 81.0078 114.805 81.0312C115.648 81.0312 116.434 80.7148 117.16 80.082C117.887 79.4492 118.25 78.7344 118.25 77.9375C118.25 76.625 117.301 75.7109 115.402 75.1953C113.949 74.8203 112.508 74.3633 111.078 73.8242C109.695 73.0977 108.992 71.8672 108.969 70.1328C108.969 68.3984 109.52 67.0273 110.621 66.0195C111.746 64.9883 113.176 64.4844 114.91 64.5078C116.551 64.5312 118.285 65.082 120.113 66.1602L119.164 68.4102C117.477 67.332 116.023 66.793 114.805 66.793C112.719 66.793 111.676 67.6719 111.676 69.4297C111.676 70.3906 112.156 71.0352 113.117 71.3633C113.773 71.5742 115.508 72.1367 118.32 73.0508C120.242 73.9414 121.203 75.3477 121.203 77.2695C121.203 79.2148 120.582 80.7383 119.34 81.8398C118.098 82.9414 116.492 83.4922 114.523 83.4922ZM126.758 61.3438C126.195 61.3438 125.727 61.1562 125.352 60.7812C125 60.3828 124.824 59.9023 124.824 59.3398C124.824 58.7773 125 58.3203 125.352 57.9688C125.727 57.5938 126.195 57.4062 126.758 57.4062C127.32 57.4062 127.777 57.5938 128.129 57.9688C128.48 58.3438 128.656 58.8008 128.656 59.3398C128.656 59.9023 128.48 60.3828 128.129 60.7812C127.777 61.1562 127.32 61.3438 126.758 61.3438ZM125.105 83V65.1758H128.023V83H125.105ZM144.266 83V71.293C144.266 70.1211 143.996 69.1484 143.457 68.375C142.848 67.4844 141.992 67.0391 140.891 67.0391C139.906 67.0391 138.887 67.4258 137.832 68.1992C136.637 69.0664 136.027 70.0625 136.004 71.1875V83H133.191V65.1758H136.004V67.1797C136.941 66.2891 137.727 65.6797 138.359 65.3516C139.25 64.8359 140.199 64.5898 141.207 64.6133C142.871 64.6133 144.266 65.2344 145.391 66.4766C146.516 67.6953 147.078 69.1484 147.078 70.8359V83H144.266ZM153.793 73.7539C153.793 77.3164 154.801 79.543 156.816 80.4336C157.613 80.7852 158.445 80.9727 159.312 80.9961C160.719 80.9961 162.289 80.2227 164.023 78.6758L165.465 80.6797C163.543 82.5078 161.398 83.4219 159.031 83.4219C155.773 83.4219 153.453 82.2031 152.07 79.7656C151.18 78.1953 150.734 76.3086 150.734 74.1055C150.734 71.3633 151.449 69.1484 152.879 67.4609C154.402 65.6562 156.512 64.7539 159.207 64.7539C161.176 64.7539 162.746 65.3867 163.918 66.6523C165.09 67.918 165.676 69.5469 165.676 71.5391V73.7539H153.793ZM162.828 71.0469C162.828 68.4219 161.527 67.1094 158.926 67.1094C157.496 67.1094 156.418 67.4727 155.691 68.1992C154.965 68.9023 154.414 69.9922 154.039 71.4688H162.828V71.0469ZM174.676 83.4922C172.215 83.4922 170.223 82.8008 168.699 81.418L170.141 79.2031C171.383 80.3984 172.988 81.0078 174.957 81.0312C175.801 81.0312 176.586 80.7148 177.312 80.082C178.039 79.4492 178.402 78.7344 178.402 77.9375C178.402 76.625 177.453 75.7109 175.555 75.1953C174.102 74.8203 172.66 74.3633 171.23 73.8242C169.848 73.0977 169.145 71.8672 169.121 70.1328C169.121 68.3984 169.672 67.0273 170.773 66.0195C171.898 64.9883 173.328 64.4844 175.062 64.5078C176.703 64.5312 178.438 65.082 180.266 66.1602L179.316 68.4102C177.629 67.332 176.176 66.793 174.957 66.793C172.871 66.793 171.828 67.6719 171.828 69.4297C171.828 70.3906 172.309 71.0352 173.27 71.3633C173.926 71.5742 175.66 72.1367 178.473 73.0508C180.395 73.9414 181.355 75.3477 181.355 77.2695C181.355 79.2148 180.734 80.7383 179.492 81.8398C178.25 82.9414 176.645 83.4922 174.676 83.4922ZM190.391 83.4922C187.93 83.4922 185.938 82.8008 184.414 81.418L185.855 79.2031C187.098 80.3984 188.703 81.0078 190.672 81.0312C191.516 81.0312 192.301 80.7148 193.027 80.082C193.754 79.4492 194.117 78.7344 194.117 77.9375C194.117 76.625 193.168 75.7109 191.27 75.1953C189.816 74.8203 188.375 74.3633 186.945 73.8242C185.562 73.0977 184.859 71.8672 184.836 70.1328C184.836 68.3984 185.387 67.0273 186.488 66.0195C187.613 64.9883 189.043 64.4844 190.777 64.5078C192.418 64.5312 194.152 65.082 195.98 66.1602L195.031 68.4102C193.344 67.332 191.891 66.793 190.672 66.793C188.586 66.793 187.543 67.6719 187.543 69.4297C187.543 70.3906 188.023 71.0352 188.984 71.3633C189.641 71.5742 191.375 72.1367 194.188 73.0508C196.109 73.9414 197.07 75.3477 197.07 77.2695C197.07 79.2148 196.449 80.7383 195.207 81.8398C193.965 82.9414 192.359 83.4922 190.391 83.4922Z" fill="white"/>
</svg>
