<svg width="260" height="100" viewBox="0 0 260 100" fill="none" xmlns="http://www.w3.org/2000/svg">
<rect x="0.5" y="0.5" width="259" height="99" fill="white" stroke="black"/>
<path d="M75.5 29.1666C71.8611 29.1666 68.9167 32.6736 68.6111 37.1527C63.3889 35.4166 60.7222 30.9027 54.6667 30.9027C48.5834 30.9027 45.9445 35.4166 40.7222 37.1527C40.4167 32.7083 37.4722 29.1666 33.8334 29.1666C30 29.1666 26.8889 33.0555 26.8889 37.8472V39.5833C26.8889 60.4166 36.8889 66.7014 45 67.2916C47.8056 69.5139 51.1111 70.8333 54.6667 70.8333C58.2222 70.8333 61.5278 69.5139 64.3334 67.2916C72.4445 66.7014 82.4445 60.4166 82.4445 39.5833V37.8472C82.4445 33.0555 79.3334 29.1666 75.5 29.1666ZM31.0556 39.5833V37.8472C31.0556 35.9375 32.3056 34.375 33.8334 34.375C35.3611 34.375 36.6111 35.9375 36.6111 37.8472V48.2638C36.6111 52.7083 37.6667 56.8402 39.4167 60.3472C35.1945 57.8819 31.0556 52.2569 31.0556 39.5833ZM78.2778 39.5833C78.2778 52.2569 74.1389 57.8819 69.9167 60.3472C71.6945 56.8402 72.7222 52.7083 72.7222 48.2638V37.8472C72.7222 35.9375 73.9722 34.375 75.5 34.375C77.0278 34.375 78.2778 35.9375 78.2778 37.8472V39.5833ZM51.0278 44.7222C49.8056 45.625 48.3611 46.6666 46.3334 47.3611V43.75C47.6667 43.1597 48.6667 42.4305 49.6111 41.7361C51.1111 40.625 52.5278 39.5833 54.6667 39.5833C56.8056 39.5833 58.1945 40.625 59.6667 41.7361C60.6111 42.4305 61.6389 43.1944 63 43.7847V47.3958C60.9167 46.6666 59.5 45.625 58.25 44.6875C56.9722 43.75 56.0278 43.0555 54.6667 43.0555C53.3056 43.0555 52.3334 43.75 51.0278 44.7222Z" fill="black"/>
<path d="M105.338 57.324C103.658 57.324 101.462 57.12 98.7504 56.712L97.4544 56.532L97.7424 54.228C101.03 54.66 103.514 54.876 105.194 54.876C108.746 54.876 110.522 53.208 110.522 49.872C110.522 48.96 110.354 48.24 110.018 47.712C109.706 47.184 109.154 46.752 108.362 46.416C107.594 46.08 106.466 45.768 104.978 45.48C103.01 45.072 101.474 44.604 100.37 44.076C99.2904 43.548 98.4984 42.84 97.9944 41.952C97.4904 41.064 97.2384 39.876 97.2384 38.388C97.2384 33.924 99.9144 31.692 105.266 31.692C107.114 31.692 109.622 31.932 112.79 32.412L112.538 34.752C109.082 34.344 106.718 34.14 105.446 34.14C101.846 34.14 100.046 35.496 100.046 38.208C100.046 39.24 100.214 40.032 100.55 40.584C100.91 41.112 101.51 41.544 102.35 41.88C103.19 42.216 104.522 42.588 106.346 42.996C108.122 43.404 109.49 43.86 110.45 44.364C111.434 44.868 112.154 45.54 112.61 46.38C113.066 47.196 113.294 48.288 113.294 49.656C113.294 54.768 110.642 57.324 105.338 57.324ZM123.022 57.396C121.798 57.396 120.838 57.204 120.142 56.82C119.47 56.412 118.978 55.74 118.666 54.804C118.378 53.844 118.234 52.512 118.234 50.808V41.34H115.678V39H118.234V33.492H120.898V39H126.622V41.34H120.898V49.944C120.898 51.288 120.946 52.296 121.042 52.968C121.138 53.616 121.366 54.12 121.726 54.48C122.11 54.816 122.698 54.984 123.49 54.984L126.694 54.768L126.874 57C125.17 57.264 123.886 57.396 123.022 57.396ZM133.843 57.36C132.187 57.36 130.927 56.892 130.063 55.956C129.199 55.02 128.767 53.676 128.767 51.924C128.767 50.196 129.199 48.912 130.063 48.072C130.951 47.232 132.355 46.716 134.275 46.524L139.927 45.984V44.436C139.927 42.156 138.943 41.016 136.975 41.016C135.031 41.016 132.667 41.172 129.883 41.484L129.775 39.432C132.343 38.904 134.683 38.64 136.795 38.64C138.835 38.64 140.311 39.108 141.223 40.044C142.159 40.956 142.627 42.42 142.627 44.436V53.652C142.699 54.54 143.395 55.068 144.715 55.236L144.607 57.36C142.711 57.36 141.283 56.88 140.323 55.92C138.187 56.88 136.027 57.36 133.843 57.36ZM134.275 55.092C135.883 55.092 137.491 54.816 139.099 54.264L139.927 53.976V48.036L134.599 48.54C133.519 48.636 132.739 48.948 132.259 49.476C131.779 50.004 131.539 50.772 131.539 51.78C131.539 53.988 132.451 55.092 134.275 55.092ZM153.862 57H151.198L146.086 39H148.786L153.286 54.66H154.474L159.01 39H161.71L154.222 64.992H151.522L153.862 57ZM180.327 57.324C178.647 57.324 176.451 57.12 173.739 56.712L172.443 56.532L172.731 54.228C176.019 54.66 178.503 54.876 180.183 54.876C183.735 54.876 185.511 53.208 185.511 49.872C185.511 48.96 185.343 48.24 185.007 47.712C184.695 47.184 184.143 46.752 183.351 46.416C182.583 46.08 181.455 45.768 179.967 45.48C177.999 45.072 176.463 44.604 175.359 44.076C174.279 43.548 173.487 42.84 172.983 41.952C172.479 41.064 172.227 39.876 172.227 38.388C172.227 33.924 174.903 31.692 180.255 31.692C182.103 31.692 184.611 31.932 187.779 32.412L187.527 34.752C184.071 34.344 181.707 34.14 180.435 34.14C176.835 34.14 175.035 35.496 175.035 38.208C175.035 39.24 175.203 40.032 175.539 40.584C175.899 41.112 176.499 41.544 177.339 41.88C178.179 42.216 179.511 42.588 181.335 42.996C183.111 43.404 184.479 43.86 185.439 44.364C186.423 44.868 187.143 45.54 187.599 46.38C188.055 47.196 188.283 48.288 188.283 49.656C188.283 54.768 185.631 57.324 180.327 57.324ZM196.526 57.36C194.87 57.36 193.61 56.892 192.746 55.956C191.882 55.02 191.45 53.676 191.45 51.924C191.45 50.196 191.882 48.912 192.746 48.072C193.634 47.232 195.038 46.716 196.958 46.524L202.61 45.984V44.436C202.61 42.156 201.626 41.016 199.658 41.016C197.714 41.016 195.35 41.172 192.566 41.484L192.458 39.432C195.026 38.904 197.366 38.64 199.478 38.64C201.518 38.64 202.994 39.108 203.906 40.044C204.842 40.956 205.31 42.42 205.31 44.436V53.652C205.382 54.54 206.078 55.068 207.398 55.236L207.29 57.36C205.394 57.36 203.966 56.88 203.006 55.92C200.87 56.88 198.71 57.36 196.526 57.36ZM196.958 55.092C198.566 55.092 200.174 54.816 201.782 54.264L202.61 53.976V48.036L197.282 48.54C196.202 48.636 195.422 48.948 194.942 49.476C194.462 50.004 194.222 50.772 194.222 51.78C194.222 53.988 195.134 55.092 196.958 55.092ZM211.394 41.34H209.126V39H211.394V37.38C211.394 35.676 211.55 34.356 211.862 33.42C212.174 32.46 212.678 31.788 213.374 31.404C214.07 30.996 215.03 30.792 216.254 30.792L219.89 31.044L219.854 33.276C218.342 33.228 217.406 33.204 217.046 33.204C216.71 33.18 216.494 33.168 216.398 33.168C215.51 33.168 214.898 33.528 214.562 34.248C214.25 34.968 214.094 36.024 214.094 37.416V39H219.314V41.34H214.094V57H211.394V41.34ZM228.971 57.36C226.235 57.36 224.291 56.652 223.139 55.236C222.011 53.796 221.447 51.54 221.447 48.468C221.447 45.132 222.059 42.66 223.283 41.052C224.507 39.444 226.427 38.64 229.043 38.64C231.443 38.64 233.231 39.336 234.407 40.728C235.607 42.096 236.207 44.208 236.207 47.064L236.063 49.116H224.183C224.183 50.604 224.339 51.768 224.651 52.608C224.987 53.448 225.539 54.06 226.307 54.444C227.099 54.804 228.191 54.984 229.583 54.984C230.279 54.984 231.083 54.972 231.995 54.948C232.907 54.9 233.735 54.84 234.479 54.768L235.523 54.66L235.595 56.784C232.931 57.168 230.723 57.36 228.971 57.36ZM233.507 46.956C233.507 44.772 233.159 43.224 232.463 42.312C231.767 41.376 230.627 40.908 229.043 40.908C227.387 40.908 226.163 41.4 225.371 42.384C224.579 43.344 224.171 44.868 224.147 46.956H233.507Z" fill="black"/>
</svg>
