<svg viewBox="0 0 260 100" fill="none" xmlns="http://www.w3.org/2000/svg">
<rect width="260" height="100" fill="#B21DBF"/>
<path d="M26.6133 41.3516C25.2539 41.3516 23.9414 41.1172 22.6758 40.6484C21.2695 40.1094 20.2031 39.3477 19.4766 38.3633L21.1289 36.0781C22.582 37.7891 24.4453 38.6328 26.7188 38.6094C28.0547 38.6094 29.1211 38.2461 29.918 37.5195C30.7148 36.793 31.1133 35.7617 31.1133 34.4258C31.1133 32.8086 30.1641 31.6016 28.2656 30.8047C27.0938 30.3359 25.3242 29.6094 22.957 28.625C21.082 27.4531 20.1562 25.6367 20.1797 23.1758C20.2031 21.3477 20.9297 19.8477 22.3594 18.6758C23.6719 17.5742 25.2656 17.0234 27.1406 17.0234C29.3438 17.0234 31.3711 17.75 33.2227 19.2031L31.7109 21.4883C30.4453 20.3398 28.9219 19.7656 27.1406 19.7656C24.7031 19.7656 23.4844 20.9727 23.4844 23.3867C23.4844 24.9102 24.7266 26.0938 27.2109 26.9375C29.8359 27.8281 31.5586 28.6133 32.3789 29.293C33.5977 30.3477 34.207 32.0352 34.207 34.3555C34.207 36.582 33.5039 38.3047 32.0977 39.5234C30.6914 40.7422 28.8633 41.3516 26.6133 41.3516ZM43.3828 41.2812C42.0469 41.2812 41.0039 40.6719 40.2539 39.4531C39.5977 38.4219 39.2695 37.2031 39.2695 35.7969V25.5312H36.457V23.1406H39.2695V19.5195H42.1172V23.1406H46.7578V25.5664L42.1172 25.5312V36.2188C42.1172 37.8359 42.8086 38.6328 44.1914 38.6094C44.9414 38.6094 45.8789 38.0703 47.0039 36.9922L48.375 38.9609C47.0391 40.5078 45.375 41.2812 43.3828 41.2812ZM64.3711 41H61.8047L61.418 39.1367C59.6367 40.8242 57.7969 41.6562 55.8984 41.6328C54.2578 41.6328 52.9336 40.9648 51.9258 39.6289C51.0117 38.3867 50.5664 36.9219 50.5898 35.2344V23.1758H53.4023V35.0938C53.4023 37.7656 54.4688 39.1016 56.6016 39.1016C57.6094 39.1016 58.6875 38.6797 59.8359 37.8359C60.9844 36.9922 61.5586 36.0781 61.5586 35.0938V23.1758H64.3711V41ZM82.8281 41H80.4375L80.0156 39.4883C78.0703 40.8008 76.4062 41.457 75.0234 41.457C72.7969 41.457 71.0273 40.4375 69.7148 38.3984C68.5898 36.6406 68.0273 34.5898 68.0273 32.2461C68.0273 29.5508 68.625 27.3359 69.8203 25.6016C71.2031 23.5859 73.1836 22.5781 75.7617 22.5781C77.4492 22.5781 78.8672 23.2695 80.0156 24.6523V15.8984H82.8281V41ZM80.0156 27.3242C79.3359 26.4102 78.7148 25.8008 78.1523 25.4961C77.5898 25.1914 76.7461 25.0391 75.6211 25.0391C74.0039 25.0391 72.832 25.8242 72.1055 27.3945C71.5195 28.5664 71.2266 30.0547 71.2266 31.8594C71.2266 33.6641 71.5664 35.1875 72.2461 36.4297C73.0664 38.0234 74.2969 38.8203 75.9375 38.8203C77.3906 38.8203 78.75 38.2695 80.0156 37.168V27.3242ZM94.043 44.0234C93.6445 45.1484 92.8945 46.0977 91.793 46.8711C90.6914 47.668 89.543 48.0664 88.3477 48.0664C87.9961 48.0664 87.1758 47.8438 85.8867 47.3984L86.7656 44.8672C87.4453 45.1719 88.043 45.3359 88.5586 45.3594C89.6602 45.3828 90.668 44.5742 91.582 42.9336C92.0508 41.7852 92.543 40.6367 93.0586 39.4883L86.168 23.8086L88.9453 23.0352L94.3594 35.7969L99 23.0703L101.566 23.668L94.043 44.0234ZM126.316 41.3867C125.332 41.3867 124.582 40.8125 124.066 39.6641C123.34 40.2266 122.719 40.625 122.203 40.8594C121.148 41.3281 119.941 41.5625 118.582 41.5625C117.059 41.5625 115.852 41.082 114.961 40.1211C114.07 39.1602 113.625 37.9297 113.625 36.4297C113.625 34.4844 114.211 33.0781 115.383 32.2109C116.156 31.6484 117.609 31.1211 119.742 30.6289C120.562 30.4414 121.863 30.2656 123.645 30.1016V27.8164C123.645 27.0195 123.328 26.375 122.695 25.8828C122.086 25.3672 121.383 25.1094 120.586 25.1094C119.273 25.1094 117.668 25.8828 115.77 27.4297L114.293 25.4258C115.043 24.7461 116.027 24.1133 117.246 23.5273C118.582 22.8711 119.695 22.5547 120.586 22.5781C122.25 22.5781 123.645 23.0938 124.77 24.125C125.895 25.1562 126.457 26.4922 126.457 28.1328V38.293C126.574 38.7617 126.82 39.0078 127.195 39.0312C127.453 39.0547 127.957 38.7969 128.707 38.2578L129.27 40.1211C128.473 40.9648 127.488 41.3867 126.316 41.3867ZM123.645 32.5977C122.941 32.5977 122.027 32.7148 120.902 32.9492C120.246 33.0664 119.555 33.2188 118.828 33.4062C117.094 33.8516 116.227 34.8711 116.227 36.4648C116.227 37.332 116.473 38.0234 116.965 38.5391C117.457 39.0547 118.137 39.3125 119.004 39.3125C119.941 39.3125 120.891 39.0547 121.852 38.5391C123.023 37.9297 123.621 37.168 123.645 36.2539V32.5977ZM145.09 20.5391V27.5H154.23V30.207H145.09V41H141.891V17.9727H154.828V20.5391H145.09ZM167.133 41.3867C163.898 41.3867 161.555 40.1797 160.102 37.7656C159.117 36.1016 158.625 34.1562 158.625 31.9297C158.625 28.8359 159.598 26.4219 161.543 24.6875C163.137 23.2812 165.012 22.5781 167.168 22.5781C169.301 22.5781 171.129 23.2812 172.652 24.6875C174.527 26.4219 175.465 28.8359 175.465 31.9297C175.465 34.0859 174.914 36.043 173.812 37.8008C172.312 40.1914 170.086 41.3867 167.133 41.3867ZM167.344 24.9688C165.445 24.9688 163.992 25.7188 162.984 27.2188C162.141 28.5078 161.719 30.1484 161.719 32.1406C161.719 34.0391 162.117 35.5977 162.914 36.8164C163.852 38.293 165.211 39.043 166.992 39.0664C168.844 39.0664 170.227 38.3047 171.141 36.7812C171.961 35.5156 172.371 33.9102 172.371 31.9648C172.371 30.1133 171.996 28.5547 171.246 27.2891C170.379 25.7422 169.078 24.9688 167.344 24.9688ZM187.594 26.2344C187.148 25.9297 186.504 25.7891 185.66 25.8125C185.004 25.8125 184.219 26.2812 183.305 27.2188C182.414 28.1562 181.969 28.9414 181.969 29.5742V41H179.156V23.1758H181.969V26.1289C183.375 23.9023 184.863 22.7891 186.434 22.7891C186.832 22.7891 187.512 22.9766 188.473 23.3516L187.594 26.2344ZM193.641 31.7539C193.641 35.3164 194.648 37.543 196.664 38.4336C197.461 38.7852 198.293 38.9727 199.16 38.9961C200.566 38.9961 202.137 38.2227 203.871 36.6758L205.312 38.6797C203.391 40.5078 201.246 41.4219 198.879 41.4219C195.621 41.4219 193.301 40.2031 191.918 37.7656C191.027 36.1953 190.582 34.3086 190.582 32.1055C190.582 29.3633 191.297 27.1484 192.727 25.4609C194.25 23.6562 196.359 22.7539 199.055 22.7539C201.023 22.7539 202.594 23.3867 203.766 24.6523C204.938 25.918 205.523 27.5469 205.523 29.5391V31.7539H193.641ZM202.676 29.0469C202.676 26.4219 201.375 25.1094 198.773 25.1094C197.344 25.1094 196.266 25.4727 195.539 26.1992C194.812 26.9023 194.262 27.9922 193.887 29.4688H202.676V29.0469ZM211.043 19.3438C210.48 19.3438 210.012 19.1562 209.637 18.7812C209.285 18.3828 209.109 17.9023 209.109 17.3398C209.109 16.7773 209.285 16.3203 209.637 15.9688C210.012 15.5938 210.48 15.4062 211.043 15.4062C211.605 15.4062 212.062 15.5938 212.414 15.9688C212.766 16.3438 212.941 16.8008 212.941 17.3398C212.941 17.9023 212.766 18.3828 212.414 18.7812C212.062 19.1562 211.605 19.3438 211.043 19.3438ZM209.391 41V23.1758H212.309V41H209.391ZM233.473 26.6562L229.641 26.5508C230.016 27.3711 230.203 28.168 230.203 28.9414C230.203 30.7461 229.594 32.2461 228.375 33.4414C226.992 34.7773 225.281 35.4453 223.242 35.4453C222.07 35.4453 221.285 35.3047 220.887 35.0234C219.949 35.6094 219.48 36.2539 219.48 36.957C219.48 37.6133 219.938 38.0352 220.852 38.2227C221.273 38.3164 222.445 38.3633 224.367 38.3633C226.828 38.3633 228.504 38.5391 229.395 38.8906C230.988 39.5 231.785 40.8008 231.785 42.793C231.785 44.8555 230.707 46.4844 228.551 47.6797C226.699 48.7109 224.672 49.2266 222.469 49.2266H222.363C220.84 49.2266 219.539 48.9102 218.461 48.2773C217.172 47.4805 216.527 46.3789 216.527 44.9727C216.527 43.4023 217.359 41.8438 219.023 40.2969C218.484 40.1094 217.969 39.6992 217.477 39.0664C216.984 38.4102 216.738 37.8125 216.738 37.2734C216.738 36.6172 217.031 35.9961 217.617 35.4102C218.578 34.4492 219.07 33.957 219.094 33.9336C217.617 32.668 216.855 31.0039 216.809 28.9414C216.809 27.1367 217.5 25.5781 218.883 24.2656C220.172 23.0703 221.766 22.4844 223.664 22.5078C224.766 22.5312 225.82 22.8008 226.828 23.3164C227.719 23.7852 228.375 24.3477 228.797 25.0039L233.473 24.3008V26.6562ZM227.707 28.8711C227.707 27.7461 227.297 26.75 226.477 25.8828C225.68 25.0859 224.695 24.6875 223.523 24.6875C222.328 24.6875 221.355 25.1328 220.605 26.0234C219.879 26.9141 219.516 27.9336 219.516 29.082C219.516 30.2305 219.879 31.2266 220.605 32.0703C221.332 32.8906 222.258 33.3008 223.383 33.3008C224.695 33.3008 225.773 32.8672 226.617 32C227.344 31.2266 227.707 30.1836 227.707 28.8711ZM229.008 42.8984C229.008 41.3281 227.637 40.5547 224.895 40.5781C223.816 40.5781 222.633 40.6133 221.344 40.6836C220.734 40.707 220.195 41.1406 219.727 41.9844C219.305 42.7344 219.094 43.4258 219.094 44.0586C219.094 45.043 219.574 45.8164 220.535 46.3789C221.332 46.8008 222.246 47.0117 223.277 47.0117C224.637 47.0117 225.891 46.6719 227.039 45.9922C228.352 45.1953 229.008 44.1641 229.008 42.8984ZM246.938 41V29.293C246.938 28.1211 246.668 27.1484 246.129 26.375C245.52 25.4844 244.664 25.0391 243.562 25.0391C242.578 25.0391 241.559 25.4258 240.504 26.1992C239.309 27.0664 238.699 28.0625 238.676 29.1875V41H235.863V23.1758H238.676V25.1797C239.613 24.2891 240.398 23.6797 241.031 23.3516C241.922 22.8359 242.871 22.5898 243.879 22.6133C245.543 22.6133 246.938 23.2344 248.062 24.4766C249.188 25.6953 249.75 27.1484 249.75 28.8359V41H246.938ZM65.0039 81V57.9375H68.2031V78.3984H78.5039V81H65.0039ZM94.9219 81.3867C93.9375 81.3867 93.1875 80.8125 92.6719 79.6641C91.9453 80.2266 91.3242 80.625 90.8086 80.8594C89.7539 81.3281 88.5469 81.5625 87.1875 81.5625C85.6641 81.5625 84.457 81.082 83.5664 80.1211C82.6758 79.1602 82.2305 77.9297 82.2305 76.4297C82.2305 74.4844 82.8164 73.0781 83.9883 72.2109C84.7617 71.6484 86.2148 71.1211 88.3477 70.6289C89.168 70.4414 90.4688 70.2656 92.25 70.1016V67.8164C92.25 67.0195 91.9336 66.375 91.3008 65.8828C90.6914 65.3672 89.9883 65.1094 89.1914 65.1094C87.8789 65.1094 86.2734 65.8828 84.375 67.4297L82.8984 65.4258C83.6484 64.7461 84.6328 64.1133 85.8516 63.5273C87.1875 62.8711 88.3008 62.5547 89.1914 62.5781C90.8555 62.5781 92.25 63.0938 93.375 64.125C94.5 65.1562 95.0625 66.4922 95.0625 68.1328V78.293C95.1797 78.7617 95.4258 79.0078 95.8008 79.0312C96.0586 79.0547 96.5625 78.7969 97.3125 78.2578L97.875 80.1211C97.0781 80.9648 96.0938 81.3867 94.9219 81.3867ZM92.25 72.5977C91.5469 72.5977 90.6328 72.7148 89.5078 72.9492C88.8516 73.0664 88.1602 73.2188 87.4336 73.4062C85.6992 73.8516 84.832 74.8711 84.832 76.4648C84.832 77.332 85.0781 78.0234 85.5703 78.5391C86.0625 79.0547 86.7422 79.3125 87.6094 79.3125C88.5469 79.3125 89.4961 79.0547 90.457 78.5391C91.6289 77.9297 92.2266 77.168 92.25 76.2539V72.5977ZM111.762 81V69.293C111.762 68.1211 111.492 67.1484 110.953 66.375C110.344 65.4844 109.488 65.0391 108.387 65.0391C107.402 65.0391 106.383 65.4258 105.328 66.1992C104.133 67.0664 103.523 68.0625 103.5 69.1875V81H100.688V63.1758H103.5V65.1797C104.438 64.2891 105.223 63.6797 105.855 63.3516C106.746 62.8359 107.695 62.5898 108.703 62.6133C110.367 62.6133 111.762 63.2344 112.887 64.4766C114.012 65.6953 114.574 67.1484 114.574 68.8359V81H111.762ZM135.105 66.6562L131.273 66.5508C131.648 67.3711 131.836 68.168 131.836 68.9414C131.836 70.7461 131.227 72.2461 130.008 73.4414C128.625 74.7773 126.914 75.4453 124.875 75.4453C123.703 75.4453 122.918 75.3047 122.52 75.0234C121.582 75.6094 121.113 76.2539 121.113 76.957C121.113 77.6133 121.57 78.0352 122.484 78.2227C122.906 78.3164 124.078 78.3633 126 78.3633C128.461 78.3633 130.137 78.5391 131.027 78.8906C132.621 79.5 133.418 80.8008 133.418 82.793C133.418 84.8555 132.34 86.4844 130.184 87.6797C128.332 88.7109 126.305 89.2266 124.102 89.2266H123.996C122.473 89.2266 121.172 88.9102 120.094 88.2773C118.805 87.4805 118.16 86.3789 118.16 84.9727C118.16 83.4023 118.992 81.8438 120.656 80.2969C120.117 80.1094 119.602 79.6992 119.109 79.0664C118.617 78.4102 118.371 77.8125 118.371 77.2734C118.371 76.6172 118.664 75.9961 119.25 75.4102C120.211 74.4492 120.703 73.957 120.727 73.9336C119.25 72.668 118.488 71.0039 118.441 68.9414C118.441 67.1367 119.133 65.5781 120.516 64.2656C121.805 63.0703 123.398 62.4844 125.297 62.5078C126.398 62.5312 127.453 62.8008 128.461 63.3164C129.352 63.7852 130.008 64.3477 130.43 65.0039L135.105 64.3008V66.6562ZM129.34 68.8711C129.34 67.7461 128.93 66.75 128.109 65.8828C127.312 65.0859 126.328 64.6875 125.156 64.6875C123.961 64.6875 122.988 65.1328 122.238 66.0234C121.512 66.9141 121.148 67.9336 121.148 69.082C121.148 70.2305 121.512 71.2266 122.238 72.0703C122.965 72.8906 123.891 73.3008 125.016 73.3008C126.328 73.3008 127.406 72.8672 128.25 72C128.977 71.2266 129.34 70.1836 129.34 68.8711ZM130.641 82.8984C130.641 81.3281 129.27 80.5547 126.527 80.5781C125.449 80.5781 124.266 80.6133 122.977 80.6836C122.367 80.707 121.828 81.1406 121.359 81.9844C120.938 82.7344 120.727 83.4258 120.727 84.0586C120.727 85.043 121.207 85.8164 122.168 86.3789C122.965 86.8008 123.879 87.0117 124.91 87.0117C126.27 87.0117 127.523 86.6719 128.672 85.9922C129.984 85.1953 130.641 84.1641 130.641 82.8984ZM151.277 81H148.711L148.324 79.1367C146.543 80.8242 144.703 81.6562 142.805 81.6328C141.164 81.6328 139.84 80.9648 138.832 79.6289C137.918 78.3867 137.473 76.9219 137.496 75.2344V63.1758H140.309V75.0938C140.309 77.7656 141.375 79.1016 143.508 79.1016C144.516 79.1016 145.594 78.6797 146.742 77.8359C147.891 76.9922 148.465 76.0781 148.465 75.0938V63.1758H151.277V81ZM167.766 81.3867C166.781 81.3867 166.031 80.8125 165.516 79.6641C164.789 80.2266 164.168 80.625 163.652 80.8594C162.598 81.3281 161.391 81.5625 160.031 81.5625C158.508 81.5625 157.301 81.082 156.41 80.1211C155.52 79.1602 155.074 77.9297 155.074 76.4297C155.074 74.4844 155.66 73.0781 156.832 72.2109C157.605 71.6484 159.059 71.1211 161.191 70.6289C162.012 70.4414 163.312 70.2656 165.094 70.1016V67.8164C165.094 67.0195 164.777 66.375 164.145 65.8828C163.535 65.3672 162.832 65.1094 162.035 65.1094C160.723 65.1094 159.117 65.8828 157.219 67.4297L155.742 65.4258C156.492 64.7461 157.477 64.1133 158.695 63.5273C160.031 62.8711 161.145 62.5547 162.035 62.5781C163.699 62.5781 165.094 63.0938 166.219 64.125C167.344 65.1562 167.906 66.4922 167.906 68.1328V78.293C168.023 78.7617 168.27 79.0078 168.645 79.0312C168.902 79.0547 169.406 78.7969 170.156 78.2578L170.719 80.1211C169.922 80.9648 168.938 81.3867 167.766 81.3867ZM165.094 72.5977C164.391 72.5977 163.477 72.7148 162.352 72.9492C161.695 73.0664 161.004 73.2188 160.277 73.4062C158.543 73.8516 157.676 74.8711 157.676 76.4648C157.676 77.332 157.922 78.0234 158.414 78.5391C158.906 79.0547 159.586 79.3125 160.453 79.3125C161.391 79.3125 162.34 79.0547 163.301 78.5391C164.473 77.9297 165.07 77.168 165.094 76.2539V72.5977ZM189.527 66.6562L185.695 66.5508C186.07 67.3711 186.258 68.168 186.258 68.9414C186.258 70.7461 185.648 72.2461 184.43 73.4414C183.047 74.7773 181.336 75.4453 179.297 75.4453C178.125 75.4453 177.34 75.3047 176.941 75.0234C176.004 75.6094 175.535 76.2539 175.535 76.957C175.535 77.6133 175.992 78.0352 176.906 78.2227C177.328 78.3164 178.5 78.3633 180.422 78.3633C182.883 78.3633 184.559 78.5391 185.449 78.8906C187.043 79.5 187.84 80.8008 187.84 82.793C187.84 84.8555 186.762 86.4844 184.605 87.6797C182.754 88.7109 180.727 89.2266 178.523 89.2266H178.418C176.895 89.2266 175.594 88.9102 174.516 88.2773C173.227 87.4805 172.582 86.3789 172.582 84.9727C172.582 83.4023 173.414 81.8438 175.078 80.2969C174.539 80.1094 174.023 79.6992 173.531 79.0664C173.039 78.4102 172.793 77.8125 172.793 77.2734C172.793 76.6172 173.086 75.9961 173.672 75.4102C174.633 74.4492 175.125 73.957 175.148 73.9336C173.672 72.668 172.91 71.0039 172.863 68.9414C172.863 67.1367 173.555 65.5781 174.938 64.2656C176.227 63.0703 177.82 62.4844 179.719 62.5078C180.82 62.5312 181.875 62.8008 182.883 63.3164C183.773 63.7852 184.43 64.3477 184.852 65.0039L189.527 64.3008V66.6562ZM183.762 68.8711C183.762 67.7461 183.352 66.75 182.531 65.8828C181.734 65.0859 180.75 64.6875 179.578 64.6875C178.383 64.6875 177.41 65.1328 176.66 66.0234C175.934 66.9141 175.57 67.9336 175.57 69.082C175.57 70.2305 175.934 71.2266 176.66 72.0703C177.387 72.8906 178.312 73.3008 179.438 73.3008C180.75 73.3008 181.828 72.8672 182.672 72C183.398 71.2266 183.762 70.1836 183.762 68.8711ZM185.062 82.8984C185.062 81.3281 183.691 80.5547 180.949 80.5781C179.871 80.5781 178.688 80.6133 177.398 80.6836C176.789 80.707 176.25 81.1406 175.781 81.9844C175.359 82.7344 175.148 83.4258 175.148 84.0586C175.148 85.043 175.629 85.8164 176.59 86.3789C177.387 86.8008 178.301 87.0117 179.332 87.0117C180.691 87.0117 181.945 86.6719 183.094 85.9922C184.406 85.1953 185.062 84.1641 185.062 82.8984ZM194.098 71.7539C194.098 75.3164 195.105 77.543 197.121 78.4336C197.918 78.7852 198.75 78.9727 199.617 78.9961C201.023 78.9961 202.594 78.2227 204.328 76.6758L205.77 78.6797C203.848 80.5078 201.703 81.4219 199.336 81.4219C196.078 81.4219 193.758 80.2031 192.375 77.7656C191.484 76.1953 191.039 74.3086 191.039 72.1055C191.039 69.3633 191.754 67.1484 193.184 65.4609C194.707 63.6562 196.816 62.7539 199.512 62.7539C201.48 62.7539 203.051 63.3867 204.223 64.6523C205.395 65.918 205.98 67.5469 205.98 69.5391V71.7539H194.098ZM203.133 69.0469C203.133 66.4219 201.832 65.1094 199.23 65.1094C197.801 65.1094 196.723 65.4727 195.996 66.1992C195.27 66.9023 194.719 67.9922 194.344 69.4688H203.133V69.0469Z" fill="white"/>
</svg>
