<svg viewBox="0 0 260 100" fill="none" xmlns="http://www.w3.org/2000/svg">
<rect width="260" height="100" fill="#4A9986" fill-opacity="0.86"/>
<path d="M46.2305 61L38.9531 60.9297V37.9375L44.8945 37.832C44.9414 37.832 45.1055 37.8203 45.3867 37.7969C45.3867 37.7969 45.5508 37.7969 45.8789 37.7969C47.7305 37.7969 49.1953 38.2305 50.2734 39.0977C51.4219 40.0586 51.9961 41.4531 51.9961 43.2812C51.9961 45.2969 51.4922 46.668 50.4844 47.3945C49.9453 47.7461 49.1602 48.0742 48.1289 48.3789C51.8086 49.1758 53.6367 51.1797 53.6133 54.3906C53.6133 56.5469 52.9102 58.2109 51.5039 59.3828C50.1914 60.4844 48.4336 61.0234 46.2305 61ZM45.1406 39.9414C44.8125 39.9414 43.8164 39.9766 42.1523 40.0469V47.5L44.6133 47.5352C45.9023 47.5586 46.957 47.2422 47.7773 46.5859C48.6914 45.8594 49.1484 44.875 49.1484 43.6328C49.1484 41.1719 47.8125 39.9414 45.1406 39.9414ZM45.457 49.7852H42.1523V58.5742H45.5273C48.8555 58.5742 50.5195 57.168 50.5195 54.3555C50.5195 52.9727 50.0273 51.8711 49.043 51.0508C48.0586 50.207 46.8633 49.7852 45.457 49.7852ZM59.7305 39.3438C59.168 39.3438 58.6992 39.1562 58.3242 38.7812C57.9727 38.3828 57.7969 37.9023 57.7969 37.3398C57.7969 36.7773 57.9727 36.3203 58.3242 35.9688C58.6992 35.5938 59.168 35.4062 59.7305 35.4062C60.293 35.4062 60.75 35.5938 61.1016 35.9688C61.4531 36.3438 61.6289 36.8008 61.6289 37.3398C61.6289 37.9023 61.4531 38.3828 61.1016 38.7812C60.75 39.1562 60.293 39.3438 59.7305 39.3438ZM58.0781 61V43.1758H60.9961V61H58.0781ZM69.5039 61H66.6914V35.8633H69.5039V61ZM76.5 39.3438C75.9375 39.3438 75.4688 39.1562 75.0938 38.7812C74.7422 38.3828 74.5664 37.9023 74.5664 37.3398C74.5664 36.7773 74.7422 36.3203 75.0938 35.9688C75.4688 35.5938 75.9375 35.4062 76.5 35.4062C77.0625 35.4062 77.5195 35.5938 77.8711 35.9688C78.2227 36.3438 78.3984 36.8008 78.3984 37.3398C78.3984 37.9023 78.2227 38.3828 77.8711 38.7812C77.5195 39.1562 77.0625 39.3438 76.5 39.3438ZM74.8477 61V43.1758H77.7656V61H74.8477ZM94.0078 61V49.293C94.0078 48.1211 93.7383 47.1484 93.1992 46.375C92.5898 45.4844 91.7344 45.0391 90.6328 45.0391C89.6484 45.0391 88.6289 45.4258 87.5742 46.1992C86.3789 47.0664 85.7695 48.0625 85.7461 49.1875V61H82.9336V43.1758H85.7461V45.1797C86.6836 44.2891 87.4688 43.6797 88.1016 43.3516C88.9922 42.8359 89.9414 42.5898 90.9492 42.6133C92.6133 42.6133 94.0078 43.2344 95.1328 44.4766C96.2578 45.6953 96.8203 47.1484 96.8203 48.8359V61H94.0078ZM117.352 46.6562L113.52 46.5508C113.895 47.3711 114.082 48.168 114.082 48.9414C114.082 50.7461 113.473 52.2461 112.254 53.4414C110.871 54.7773 109.16 55.4453 107.121 55.4453C105.949 55.4453 105.164 55.3047 104.766 55.0234C103.828 55.6094 103.359 56.2539 103.359 56.957C103.359 57.6133 103.816 58.0352 104.73 58.2227C105.152 58.3164 106.324 58.3633 108.246 58.3633C110.707 58.3633 112.383 58.5391 113.273 58.8906C114.867 59.5 115.664 60.8008 115.664 62.793C115.664 64.8555 114.586 66.4844 112.43 67.6797C110.578 68.7109 108.551 69.2266 106.348 69.2266H106.242C104.719 69.2266 103.418 68.9102 102.34 68.2773C101.051 67.4805 100.406 66.3789 100.406 64.9727C100.406 63.4023 101.238 61.8438 102.902 60.2969C102.363 60.1094 101.848 59.6992 101.355 59.0664C100.863 58.4102 100.617 57.8125 100.617 57.2734C100.617 56.6172 100.91 55.9961 101.496 55.4102C102.457 54.4492 102.949 53.957 102.973 53.9336C101.496 52.668 100.734 51.0039 100.688 48.9414C100.688 47.1367 101.379 45.5781 102.762 44.2656C104.051 43.0703 105.645 42.4844 107.543 42.5078C108.645 42.5312 109.699 42.8008 110.707 43.3164C111.598 43.7852 112.254 44.3477 112.676 45.0039L117.352 44.3008V46.6562ZM111.586 48.8711C111.586 47.7461 111.176 46.75 110.355 45.8828C109.559 45.0859 108.574 44.6875 107.402 44.6875C106.207 44.6875 105.234 45.1328 104.484 46.0234C103.758 46.9141 103.395 47.9336 103.395 49.082C103.395 50.2305 103.758 51.2266 104.484 52.0703C105.211 52.8906 106.137 53.3008 107.262 53.3008C108.574 53.3008 109.652 52.8672 110.496 52C111.223 51.2266 111.586 50.1836 111.586 48.8711ZM112.887 62.8984C112.887 61.3281 111.516 60.5547 108.773 60.5781C107.695 60.5781 106.512 60.6133 105.223 60.6836C104.613 60.707 104.074 61.1406 103.605 61.9844C103.184 62.7344 102.973 63.4258 102.973 64.0586C102.973 65.043 103.453 65.8164 104.414 66.3789C105.211 66.8008 106.125 67.0117 107.156 67.0117C108.516 67.0117 109.77 66.6719 110.918 65.9922C112.23 65.1953 112.887 64.1641 112.887 62.8984ZM133.523 61H130.957L130.57 59.1367C128.789 60.8242 126.949 61.6562 125.051 61.6328C123.41 61.6328 122.086 60.9648 121.078 59.6289C120.164 58.3867 119.719 56.9219 119.742 55.2344V43.1758H122.555V55.0938C122.555 57.7656 123.621 59.1016 125.754 59.1016C126.762 59.1016 127.84 58.6797 128.988 57.8359C130.137 56.9922 130.711 56.0781 130.711 55.0938V43.1758H133.523V61ZM150.012 61.3867C149.027 61.3867 148.277 60.8125 147.762 59.6641C147.035 60.2266 146.414 60.625 145.898 60.8594C144.844 61.3281 143.637 61.5625 142.277 61.5625C140.754 61.5625 139.547 61.082 138.656 60.1211C137.766 59.1602 137.32 57.9297 137.32 56.4297C137.32 54.4844 137.906 53.0781 139.078 52.2109C139.852 51.6484 141.305 51.1211 143.438 50.6289C144.258 50.4414 145.559 50.2656 147.34 50.1016V47.8164C147.34 47.0195 147.023 46.375 146.391 45.8828C145.781 45.3672 145.078 45.1094 144.281 45.1094C142.969 45.1094 141.363 45.8828 139.465 47.4297L137.988 45.4258C138.738 44.7461 139.723 44.1133 140.941 43.5273C142.277 42.8711 143.391 42.5547 144.281 42.5781C145.945 42.5781 147.34 43.0938 148.465 44.125C149.59 45.1562 150.152 46.4922 150.152 48.1328V58.293C150.27 58.7617 150.516 59.0078 150.891 59.0312C151.148 59.0547 151.652 58.7969 152.402 58.2578L152.965 60.1211C152.168 60.9648 151.184 61.3867 150.012 61.3867ZM147.34 52.5977C146.637 52.5977 145.723 52.7148 144.598 52.9492C143.941 53.0664 143.25 53.2188 142.523 53.4062C140.789 53.8516 139.922 54.8711 139.922 56.4648C139.922 57.332 140.168 58.0234 140.66 58.5391C141.152 59.0547 141.832 59.3125 142.699 59.3125C143.637 59.3125 144.586 59.0547 145.547 58.5391C146.719 57.9297 147.316 57.168 147.34 56.2539V52.5977ZM159.117 61H156.305V35.8633H159.117V61ZM177.188 58.5039C177.188 63.9648 174.785 66.707 169.98 66.7305C168.574 66.7305 167.367 66.1328 166.359 64.9375L168.047 62.5117C168.844 63.3555 169.641 63.7773 170.438 63.7773C172.781 63.7773 173.965 62.125 173.988 58.8203V38.043H177.188V58.5039ZM189.352 61.3867C186.117 61.3867 183.773 60.1797 182.32 57.7656C181.336 56.1016 180.844 54.1562 180.844 51.9297C180.844 48.8359 181.816 46.4219 183.762 44.6875C185.355 43.2812 187.23 42.5781 189.387 42.5781C191.52 42.5781 193.348 43.2812 194.871 44.6875C196.746 46.4219 197.684 48.8359 197.684 51.9297C197.684 54.0859 197.133 56.043 196.031 57.8008C194.531 60.1914 192.305 61.3867 189.352 61.3867ZM189.562 44.9688C187.664 44.9688 186.211 45.7188 185.203 47.2188C184.359 48.5078 183.938 50.1484 183.938 52.1406C183.938 54.0391 184.336 55.5977 185.133 56.8164C186.07 58.293 187.43 59.043 189.211 59.0664C191.062 59.0664 192.445 58.3047 193.359 56.7812C194.18 55.5156 194.59 53.9102 194.59 51.9648C194.59 50.1133 194.215 48.5547 193.465 47.2891C192.598 45.7422 191.297 44.9688 189.562 44.9688ZM208.898 61.3516C207.352 61.3516 205.793 60.7539 204.223 59.5586L203.73 61H201.41V35.793H204.223V44.8633C205.863 43.3164 207.363 42.5547 208.723 42.5781C211.16 42.5781 213.082 43.5156 214.488 45.3906C215.754 47.0781 216.398 49.1758 216.422 51.6836C216.422 54.4492 215.859 56.6758 214.734 58.3633C213.469 60.3555 211.523 61.3516 208.898 61.3516ZM208.688 45.0391C206.508 45.0391 205.02 45.9062 204.223 47.6406V57.0977C204.645 57.6836 205.312 58.1406 206.227 58.4688C207.047 58.7969 207.832 58.9727 208.582 58.9961C211.629 58.9961 213.152 56.5938 213.152 51.7891C213.152 50.0312 212.859 48.5547 212.273 47.3594C211.477 45.8125 210.281 45.0391 208.688 45.0391ZM225.316 61.4922C222.855 61.4922 220.863 60.8008 219.34 59.418L220.781 57.2031C222.023 58.3984 223.629 59.0078 225.598 59.0312C226.441 59.0312 227.227 58.7148 227.953 58.082C228.68 57.4492 229.043 56.7344 229.043 55.9375C229.043 54.625 228.094 53.7109 226.195 53.1953C224.742 52.8203 223.301 52.3633 221.871 51.8242C220.488 51.0977 219.785 49.8672 219.762 48.1328C219.762 46.3984 220.312 45.0273 221.414 44.0195C222.539 42.9883 223.969 42.4844 225.703 42.5078C227.344 42.5312 229.078 43.082 230.906 44.1602L229.957 46.4102C228.27 45.332 226.816 44.793 225.598 44.793C223.512 44.793 222.469 45.6719 222.469 47.4297C222.469 48.3906 222.949 49.0352 223.91 49.3633C224.566 49.5742 226.301 50.1367 229.113 51.0508C231.035 51.9414 231.996 53.3477 231.996 55.2695C231.996 57.2148 231.375 58.7383 230.133 59.8398C228.891 60.9414 227.285 61.4922 225.316 61.4922Z" fill="white"/>
</svg>
