<svg viewBox="0 0 260 100" fill="none" xmlns="http://www.w3.org/2000/svg">
<rect width="260" height="100" fill="#E0D807"/>
<path d="M25.0059 61.2812C21.748 61.2812 19.2051 60.0391 17.377 57.5547C15.7363 55.3516 14.9277 52.5508 14.9512 49.1523C14.9512 45.8945 15.7949 43.1523 17.4824 40.9258C19.3574 38.5117 21.9004 37.2812 25.1113 37.2344C26.2363 37.2344 27.5605 37.4922 29.084 38.0078C30.2793 38.4062 31.2285 38.8047 31.9316 39.2031L30.5605 42.0508C28.3809 40.7148 26.623 40.0469 25.2871 40.0469C22.9199 40.0469 21.0684 41.1836 19.7324 43.457C18.7012 45.2617 18.1855 47.3008 18.1855 49.5742C18.1855 51.8242 18.7363 53.793 19.8379 55.4805C21.1035 57.4258 22.8145 58.3984 24.9707 58.3984C27.0098 58.3984 28.9316 57.8828 30.7363 56.8516L32.1426 59.207C30.7363 60.0039 29.5879 60.5312 28.6973 60.7891C27.5957 61.1172 26.3652 61.2812 25.0059 61.2812ZM46.5566 61V49.293C46.5566 48.1211 46.2871 47.1484 45.748 46.375C45.1387 45.4844 44.2832 45.0391 43.1816 45.0391C42.2441 45.0391 41.2246 45.4258 40.123 46.1992C38.9277 47.0195 38.3184 47.875 38.2949 48.7656V61H35.4824V35.9336H38.2949V45.1797C40.1465 43.4453 41.8691 42.5898 43.4629 42.6133C45.1504 42.6133 46.5566 43.2344 47.6816 44.4766C48.8066 45.6953 49.3691 47.1484 49.3691 48.8359V61H46.5566ZM65.7871 61.3867C64.8027 61.3867 64.0527 60.8125 63.5371 59.6641C62.8105 60.2266 62.1895 60.625 61.6738 60.8594C60.6191 61.3281 59.4121 61.5625 58.0527 61.5625C56.5293 61.5625 55.3223 61.082 54.4316 60.1211C53.541 59.1602 53.0957 57.9297 53.0957 56.4297C53.0957 54.4844 53.6816 53.0781 54.8535 52.2109C55.627 51.6484 57.0801 51.1211 59.2129 50.6289C60.0332 50.4414 61.334 50.2656 63.1152 50.1016V47.8164C63.1152 47.0195 62.7988 46.375 62.166 45.8828C61.5566 45.3672 60.8535 45.1094 60.0566 45.1094C58.7441 45.1094 57.1387 45.8828 55.2402 47.4297L53.7637 45.4258C54.5137 44.7461 55.498 44.1133 56.7168 43.5273C58.0527 42.8711 59.166 42.5547 60.0566 42.5781C61.7207 42.5781 63.1152 43.0938 64.2402 44.125C65.3652 45.1562 65.9277 46.4922 65.9277 48.1328V58.293C66.0449 58.7617 66.291 59.0078 66.666 59.0312C66.9238 59.0547 67.4277 58.7969 68.1777 58.2578L68.7402 60.1211C67.9434 60.9648 66.959 61.3867 65.7871 61.3867ZM63.1152 52.5977C62.4121 52.5977 61.498 52.7148 60.373 52.9492C59.7168 53.0664 59.0254 53.2188 58.2988 53.4062C56.5645 53.8516 55.6973 54.8711 55.6973 56.4648C55.6973 57.332 55.9434 58.0234 56.4355 58.5391C56.9277 59.0547 57.6074 59.3125 58.4746 59.3125C59.4121 59.3125 60.3613 59.0547 61.3223 58.5391C62.4941 57.9297 63.0918 57.168 63.1152 56.2539V52.5977ZM82.627 61V49.293C82.627 48.1211 82.3574 47.1484 81.8184 46.375C81.209 45.4844 80.3535 45.0391 79.252 45.0391C78.2676 45.0391 77.248 45.4258 76.1934 46.1992C74.998 47.0664 74.3887 48.0625 74.3652 49.1875V61H71.5527V43.1758H74.3652V45.1797C75.3027 44.2891 76.0879 43.6797 76.7207 43.3516C77.6113 42.8359 78.5605 42.5898 79.5684 42.6133C81.2324 42.6133 82.627 43.2344 83.752 44.4766C84.877 45.6953 85.4395 47.1484 85.4395 48.8359V61H82.627ZM105.971 46.6562L102.139 46.5508C102.514 47.3711 102.701 48.168 102.701 48.9414C102.701 50.7461 102.092 52.2461 100.873 53.4414C99.4902 54.7773 97.7793 55.4453 95.7402 55.4453C94.5684 55.4453 93.7832 55.3047 93.3848 55.0234C92.4473 55.6094 91.9785 56.2539 91.9785 56.957C91.9785 57.6133 92.4355 58.0352 93.3496 58.2227C93.7715 58.3164 94.9434 58.3633 96.8652 58.3633C99.3262 58.3633 101.002 58.5391 101.893 58.8906C103.486 59.5 104.283 60.8008 104.283 62.793C104.283 64.8555 103.205 66.4844 101.049 67.6797C99.1973 68.7109 97.1699 69.2266 94.9668 69.2266H94.8613C93.3379 69.2266 92.0371 68.9102 90.959 68.2773C89.6699 67.4805 89.0254 66.3789 89.0254 64.9727C89.0254 63.4023 89.8574 61.8438 91.5215 60.2969C90.9824 60.1094 90.4668 59.6992 89.9746 59.0664C89.4824 58.4102 89.2363 57.8125 89.2363 57.2734C89.2363 56.6172 89.5293 55.9961 90.1152 55.4102C91.0762 54.4492 91.5684 53.957 91.5918 53.9336C90.1152 52.668 89.3535 51.0039 89.3066 48.9414C89.3066 47.1367 89.998 45.5781 91.3809 44.2656C92.6699 43.0703 94.2637 42.4844 96.1621 42.5078C97.2637 42.5312 98.3184 42.8008 99.3262 43.3164C100.217 43.7852 100.873 44.3477 101.295 45.0039L105.971 44.3008V46.6562ZM100.205 48.8711C100.205 47.7461 99.7949 46.75 98.9746 45.8828C98.1777 45.0859 97.1934 44.6875 96.0215 44.6875C94.8262 44.6875 93.8535 45.1328 93.1035 46.0234C92.377 46.9141 92.0137 47.9336 92.0137 49.082C92.0137 50.2305 92.377 51.2266 93.1035 52.0703C93.8301 52.8906 94.7559 53.3008 95.8809 53.3008C97.1934 53.3008 98.2715 52.8672 99.1152 52C99.8418 51.2266 100.205 50.1836 100.205 48.8711ZM101.506 62.8984C101.506 61.3281 100.135 60.5547 97.3926 60.5781C96.3145 60.5781 95.1309 60.6133 93.8418 60.6836C93.2324 60.707 92.6934 61.1406 92.2246 61.9844C91.8027 62.7344 91.5918 63.4258 91.5918 64.0586C91.5918 65.043 92.0723 65.8164 93.0332 66.3789C93.8301 66.8008 94.7441 67.0117 95.7754 67.0117C97.1348 67.0117 98.3887 66.6719 99.5371 65.9922C100.85 65.1953 101.506 64.1641 101.506 62.8984ZM110.541 51.7539C110.541 55.3164 111.549 57.543 113.564 58.4336C114.361 58.7852 115.193 58.9727 116.061 58.9961C117.467 58.9961 119.037 58.2227 120.771 56.6758L122.213 58.6797C120.291 60.5078 118.146 61.4219 115.779 61.4219C112.521 61.4219 110.201 60.2031 108.818 57.7656C107.928 56.1953 107.482 54.3086 107.482 52.1055C107.482 49.3633 108.197 47.1484 109.627 45.4609C111.15 43.6562 113.26 42.7539 115.955 42.7539C117.924 42.7539 119.494 43.3867 120.666 44.6523C121.838 45.918 122.424 47.5469 122.424 49.5391V51.7539H110.541ZM119.576 49.0469C119.576 46.4219 118.275 45.1094 115.674 45.1094C114.244 45.1094 113.166 45.4727 112.439 46.1992C111.713 46.9023 111.162 47.9922 110.787 49.4688H119.576V49.0469ZM144.713 61.2812C141.455 61.2812 138.912 60.0391 137.084 57.5547C135.443 55.3516 134.635 52.5508 134.658 49.1523C134.658 45.8945 135.502 43.1523 137.189 40.9258C139.064 38.5117 141.607 37.2812 144.818 37.2344C145.943 37.2344 147.268 37.4922 148.791 38.0078C149.986 38.4062 150.936 38.8047 151.639 39.2031L150.268 42.0508C148.088 40.7148 146.33 40.0469 144.994 40.0469C142.627 40.0469 140.775 41.1836 139.439 43.457C138.408 45.2617 137.893 47.3008 137.893 49.5742C137.893 51.8242 138.443 53.793 139.545 55.4805C140.811 57.4258 142.521 58.3984 144.678 58.3984C146.717 58.3984 148.639 57.8828 150.443 56.8516L151.85 59.207C150.443 60.0039 149.295 60.5312 148.404 60.7891C147.303 61.1172 146.072 61.2812 144.713 61.2812ZM167.072 61.3867C166.088 61.3867 165.338 60.8125 164.822 59.6641C164.096 60.2266 163.475 60.625 162.959 60.8594C161.904 61.3281 160.697 61.5625 159.338 61.5625C157.814 61.5625 156.607 61.082 155.717 60.1211C154.826 59.1602 154.381 57.9297 154.381 56.4297C154.381 54.4844 154.967 53.0781 156.139 52.2109C156.912 51.6484 158.365 51.1211 160.498 50.6289C161.318 50.4414 162.619 50.2656 164.4 50.1016V47.8164C164.4 47.0195 164.084 46.375 163.451 45.8828C162.842 45.3672 162.139 45.1094 161.342 45.1094C160.029 45.1094 158.424 45.8828 156.525 47.4297L155.049 45.4258C155.799 44.7461 156.783 44.1133 158.002 43.5273C159.338 42.8711 160.451 42.5547 161.342 42.5781C163.006 42.5781 164.4 43.0938 165.525 44.125C166.65 45.1562 167.213 46.4922 167.213 48.1328V58.293C167.33 58.7617 167.576 59.0078 167.951 59.0312C168.209 59.0547 168.713 58.7969 169.463 58.2578L170.025 60.1211C169.229 60.9648 168.244 61.3867 167.072 61.3867ZM164.4 52.5977C163.697 52.5977 162.783 52.7148 161.658 52.9492C161.002 53.0664 160.311 53.2188 159.584 53.4062C157.85 53.8516 156.982 54.8711 156.982 56.4648C156.982 57.332 157.229 58.0234 157.721 58.5391C158.213 59.0547 158.893 59.3125 159.76 59.3125C160.697 59.3125 161.646 59.0547 162.607 58.5391C163.779 57.9297 164.377 57.168 164.4 56.2539V52.5977ZM181.275 46.2344C180.83 45.9297 180.186 45.7891 179.342 45.8125C178.686 45.8125 177.9 46.2812 176.986 47.2188C176.096 48.1562 175.65 48.9414 175.65 49.5742V61H172.838V43.1758H175.65V46.1289C177.057 43.9023 178.545 42.7891 180.115 42.7891C180.514 42.7891 181.193 42.9766 182.154 43.3516L181.275 46.2344ZM187.322 51.7539C187.322 55.3164 188.33 57.543 190.346 58.4336C191.143 58.7852 191.975 58.9727 192.842 58.9961C194.248 58.9961 195.818 58.2227 197.553 56.6758L198.994 58.6797C197.072 60.5078 194.928 61.4219 192.561 61.4219C189.303 61.4219 186.982 60.2031 185.6 57.7656C184.709 56.1953 184.264 54.3086 184.264 52.1055C184.264 49.3633 184.979 47.1484 186.408 45.4609C187.932 43.6562 190.041 42.7539 192.736 42.7539C194.705 42.7539 196.275 43.3867 197.447 44.6523C198.619 45.918 199.205 47.5469 199.205 49.5391V51.7539H187.322ZM196.357 49.0469C196.357 46.4219 195.057 45.1094 192.455 45.1094C191.025 45.1094 189.947 45.4727 189.221 46.1992C188.494 46.9023 187.943 47.9922 187.568 49.4688H196.357V49.0469ZM204.971 51.7539C204.971 55.3164 205.979 57.543 207.994 58.4336C208.791 58.7852 209.623 58.9727 210.49 58.9961C211.896 58.9961 213.467 58.2227 215.201 56.6758L216.643 58.6797C214.721 60.5078 212.576 61.4219 210.209 61.4219C206.951 61.4219 204.631 60.2031 203.248 57.7656C202.357 56.1953 201.912 54.3086 201.912 52.1055C201.912 49.3633 202.627 47.1484 204.057 45.4609C205.58 43.6562 207.689 42.7539 210.385 42.7539C212.354 42.7539 213.924 43.3867 215.096 44.6523C216.268 45.918 216.854 47.5469 216.854 49.5391V51.7539H204.971ZM214.006 49.0469C214.006 46.4219 212.705 45.1094 210.104 45.1094C208.674 45.1094 207.596 45.4727 206.869 46.1992C206.143 46.9023 205.592 47.9922 205.217 49.4688H214.006V49.0469ZM228.877 46.2344C228.432 45.9297 227.787 45.7891 226.943 45.8125C226.287 45.8125 225.502 46.2812 224.588 47.2188C223.697 48.1562 223.252 48.9414 223.252 49.5742V61H220.439V43.1758H223.252V46.1289C224.658 43.9023 226.146 42.7891 227.717 42.7891C228.115 42.7891 228.795 42.9766 229.756 43.3516L228.877 46.2344ZM238.158 61.4922C235.697 61.4922 233.705 60.8008 232.182 59.418L233.623 57.2031C234.865 58.3984 236.471 59.0078 238.439 59.0312C239.283 59.0312 240.068 58.7148 240.795 58.082C241.521 57.4492 241.885 56.7344 241.885 55.9375C241.885 54.625 240.936 53.7109 239.037 53.1953C237.584 52.8203 236.143 52.3633 234.713 51.8242C233.33 51.0977 232.627 49.8672 232.604 48.1328C232.604 46.3984 233.154 45.0273 234.256 44.0195C235.381 42.9883 236.811 42.4844 238.545 42.5078C240.186 42.5312 241.92 43.082 243.748 44.1602L242.799 46.4102C241.111 45.332 239.658 44.793 238.439 44.793C236.354 44.793 235.311 45.6719 235.311 47.4297C235.311 48.3906 235.791 49.0352 236.752 49.3633C237.408 49.5742 239.143 50.1367 241.955 51.0508C243.877 51.9414 244.838 53.3477 244.838 55.2695C244.838 57.2148 244.217 58.7383 242.975 59.8398C241.732 60.9414 240.127 61.4922 238.158 61.4922Z" fill="black"/>
</svg>
