<svg viewBox="0 0 260 100" fill="none" xmlns="http://www.w3.org/2000/svg">
<rect width="260" height="100" fill="#1DA2BF"/>
<path d="M81.0371 43.2812C77.7793 43.2812 75.2363 42.0391 73.4082 39.5547C71.7676 37.3516 70.959 34.5508 70.9824 31.1523C70.9824 27.8945 71.8262 25.1523 73.5137 22.9258C75.3887 20.5117 77.9316 19.2812 81.1426 19.2344C82.2676 19.2344 83.5918 19.4922 85.1152 20.0078C86.3105 20.4062 87.2598 20.8047 87.9629 21.2031L86.5918 24.0508C84.4121 22.7148 82.6543 22.0469 81.3184 22.0469C78.9512 22.0469 77.0996 23.1836 75.7637 25.457C74.7324 27.2617 74.2168 29.3008 74.2168 31.5742C74.2168 33.8242 74.7676 35.793 75.8691 37.4805C77.1348 39.4258 78.8457 40.3984 81.002 40.3984C83.041 40.3984 84.9629 39.8828 86.7676 38.8516L88.1738 41.207C86.7676 42.0039 85.6191 42.5312 84.7285 42.7891C83.627 43.1172 82.3965 43.2812 81.0371 43.2812ZM99.1426 43.3867C95.9082 43.3867 93.5645 42.1797 92.1113 39.7656C91.127 38.1016 90.6348 36.1562 90.6348 33.9297C90.6348 30.8359 91.6074 28.4219 93.5527 26.6875C95.1465 25.2812 97.0215 24.5781 99.1777 24.5781C101.311 24.5781 103.139 25.2812 104.662 26.6875C106.537 28.4219 107.475 30.8359 107.475 33.9297C107.475 36.0859 106.924 38.043 105.822 39.8008C104.322 42.1914 102.096 43.3867 99.1426 43.3867ZM99.3535 26.9688C97.4551 26.9688 96.002 27.7188 94.9941 29.2188C94.1504 30.5078 93.7285 32.1484 93.7285 34.1406C93.7285 36.0391 94.127 37.5977 94.9238 38.8164C95.8613 40.293 97.2207 41.043 99.002 41.0664C100.854 41.0664 102.236 40.3047 103.15 38.7812C103.971 37.5156 104.381 35.9102 104.381 33.9648C104.381 32.1133 104.006 30.5547 103.256 29.2891C102.389 27.7422 101.088 26.9688 99.3535 26.9688ZM118.268 43.4219H116.334L109.689 25.7734L112.502 24.9648L117.424 38.8516L122.064 24.9648L124.807 25.7734L118.268 43.4219ZM129.799 21.3438C129.236 21.3438 128.768 21.1562 128.393 20.7812C128.041 20.3828 127.865 19.9023 127.865 19.3398C127.865 18.7773 128.041 18.3203 128.393 17.9688C128.768 17.5938 129.236 17.4062 129.799 17.4062C130.361 17.4062 130.818 17.5938 131.17 17.9688C131.521 18.3438 131.697 18.8008 131.697 19.3398C131.697 19.9023 131.521 20.3828 131.17 20.7812C130.818 21.1562 130.361 21.3438 129.799 21.3438ZM128.146 43V25.1758H131.064V43H128.146ZM150.084 43H147.693L147.271 41.4883C145.326 42.8008 143.662 43.457 142.279 43.457C140.053 43.457 138.283 42.4375 136.971 40.3984C135.846 38.6406 135.283 36.5898 135.283 34.2461C135.283 31.5508 135.881 29.3359 137.076 27.6016C138.459 25.5859 140.439 24.5781 143.018 24.5781C144.705 24.5781 146.123 25.2695 147.271 26.6523V17.8984H150.084V43ZM147.271 29.3242C146.592 28.4102 145.971 27.8008 145.408 27.4961C144.846 27.1914 144.002 27.0391 142.877 27.0391C141.26 27.0391 140.088 27.8242 139.361 29.3945C138.775 30.5664 138.482 32.0547 138.482 33.8594C138.482 35.6641 138.822 37.1875 139.502 38.4297C140.322 40.0234 141.553 40.8203 143.193 40.8203C144.646 40.8203 146.006 40.2695 147.271 39.168V29.3242ZM173.99 43H171.248V26.8984H166.537V24.7539H173.99V43ZM188.545 26.9336C187.186 26.9336 186.025 27.625 185.064 29.0078C184.197 30.2266 183.764 31.5508 183.764 32.9805C183.764 34.4102 184.221 35.7227 185.135 36.918C186.096 38.207 187.279 38.8516 188.686 38.8516C190.256 38.8516 191.58 38.2656 192.658 37.0938C193.76 35.8984 194.311 34.4922 194.311 32.875C194.311 31.3281 193.771 29.957 192.693 28.7617C191.639 27.543 190.256 26.9336 188.545 26.9336ZM188.123 50.0664C185.334 50.0664 183.072 49.2109 181.338 47.5L182.357 45.3203C184.068 46.9141 186.096 47.6992 188.439 47.6758C190.432 47.6758 192.025 46.3984 193.221 43.8438C194.205 41.7344 194.721 39.3672 194.768 36.7422C193.9 38.2891 193.08 39.3672 192.307 39.9766C191.299 40.8438 190.057 41.2656 188.58 41.2422C186.447 41.2188 184.654 40.3633 183.201 38.6758C181.842 37.0586 181.162 35.1953 181.162 33.0859C181.162 30.7422 181.807 28.7734 183.096 27.1797C184.479 25.4688 186.295 24.625 188.545 24.6484C190.795 24.6484 192.729 25.4102 194.346 26.9336C196.338 28.7852 197.334 31.4336 197.334 34.8789C197.334 38.6055 196.725 41.8281 195.506 44.5469C193.865 48.2266 191.404 50.0664 188.123 50.0664ZM82.373 83.2812C79.1152 83.2812 76.5723 82.0391 74.7441 79.5547C73.1035 77.3516 72.2949 74.5508 72.3184 71.1523C72.3184 67.8945 73.1621 65.1523 74.8496 62.9258C76.7246 60.5117 79.2676 59.2812 82.4785 59.2344C83.6035 59.2344 84.9277 59.4922 86.4512 60.0078C87.6465 60.4062 88.5957 60.8047 89.2988 61.2031L87.9277 64.0508C85.748 62.7148 83.9902 62.0469 82.6543 62.0469C80.2871 62.0469 78.4355 63.1836 77.0996 65.457C76.0684 67.2617 75.5527 69.3008 75.5527 71.5742C75.5527 73.8242 76.1035 75.793 77.2051 77.4805C78.4707 79.4258 80.1816 80.3984 82.3379 80.3984C84.377 80.3984 86.2988 79.8828 88.1035 78.8516L89.5098 81.207C88.1035 82.0039 86.9551 82.5312 86.0645 82.7891C84.9629 83.1172 83.7324 83.2812 82.373 83.2812ZM103.924 83V71.293C103.924 70.1211 103.654 69.1484 103.115 68.375C102.506 67.4844 101.65 67.0391 100.549 67.0391C99.6113 67.0391 98.5918 67.4258 97.4902 68.1992C96.2949 69.0195 95.6855 69.875 95.6621 70.7656V83H92.8496V57.9336H95.6621V67.1797C97.5137 65.4453 99.2363 64.5898 100.83 64.6133C102.518 64.6133 103.924 65.2344 105.049 66.4766C106.174 67.6953 106.736 69.1484 106.736 70.8359V83H103.924ZM123.154 83.3867C122.17 83.3867 121.42 82.8125 120.904 81.6641C120.178 82.2266 119.557 82.625 119.041 82.8594C117.986 83.3281 116.779 83.5625 115.42 83.5625C113.896 83.5625 112.689 83.082 111.799 82.1211C110.908 81.1602 110.463 79.9297 110.463 78.4297C110.463 76.4844 111.049 75.0781 112.221 74.2109C112.994 73.6484 114.447 73.1211 116.58 72.6289C117.4 72.4414 118.701 72.2656 120.482 72.1016V69.8164C120.482 69.0195 120.166 68.375 119.533 67.8828C118.924 67.3672 118.221 67.1094 117.424 67.1094C116.111 67.1094 114.506 67.8828 112.607 69.4297L111.131 67.4258C111.881 66.7461 112.865 66.1133 114.084 65.5273C115.42 64.8711 116.533 64.5547 117.424 64.5781C119.088 64.5781 120.482 65.0938 121.607 66.125C122.732 67.1562 123.295 68.4922 123.295 70.1328V80.293C123.412 80.7617 123.658 81.0078 124.033 81.0312C124.291 81.0547 124.795 80.7969 125.545 80.2578L126.107 82.1211C125.311 82.9648 124.326 83.3867 123.154 83.3867ZM120.482 74.5977C119.779 74.5977 118.865 74.7148 117.74 74.9492C117.084 75.0664 116.393 75.2188 115.666 75.4062C113.932 75.8516 113.064 76.8711 113.064 78.4648C113.064 79.332 113.311 80.0234 113.803 80.5391C114.295 81.0547 114.975 81.3125 115.842 81.3125C116.779 81.3125 117.729 81.0547 118.689 80.5391C119.861 79.9297 120.459 79.168 120.482 78.2539V74.5977ZM139.994 83V71.293C139.994 70.1211 139.725 69.1484 139.186 68.375C138.576 67.4844 137.721 67.0391 136.619 67.0391C135.635 67.0391 134.615 67.4258 133.561 68.1992C132.365 69.0664 131.756 70.0625 131.732 71.1875V83H128.92V65.1758H131.732V67.1797C132.67 66.2891 133.455 65.6797 134.088 65.3516C134.979 64.8359 135.928 64.5898 136.936 64.6133C138.6 64.6133 139.994 65.2344 141.119 66.4766C142.244 67.6953 142.807 69.1484 142.807 70.8359V83H139.994ZM163.338 68.6562L159.506 68.5508C159.881 69.3711 160.068 70.168 160.068 70.9414C160.068 72.7461 159.459 74.2461 158.24 75.4414C156.857 76.7773 155.146 77.4453 153.107 77.4453C151.936 77.4453 151.15 77.3047 150.752 77.0234C149.814 77.6094 149.346 78.2539 149.346 78.957C149.346 79.6133 149.803 80.0352 150.717 80.2227C151.139 80.3164 152.311 80.3633 154.232 80.3633C156.693 80.3633 158.369 80.5391 159.26 80.8906C160.854 81.5 161.65 82.8008 161.65 84.793C161.65 86.8555 160.572 88.4844 158.416 89.6797C156.564 90.7109 154.537 91.2266 152.334 91.2266H152.229C150.705 91.2266 149.404 90.9102 148.326 90.2773C147.037 89.4805 146.393 88.3789 146.393 86.9727C146.393 85.4023 147.225 83.8438 148.889 82.2969C148.35 82.1094 147.834 81.6992 147.342 81.0664C146.85 80.4102 146.604 79.8125 146.604 79.2734C146.604 78.6172 146.896 77.9961 147.482 77.4102C148.443 76.4492 148.936 75.957 148.959 75.9336C147.482 74.668 146.721 73.0039 146.674 70.9414C146.674 69.1367 147.365 67.5781 148.748 66.2656C150.037 65.0703 151.631 64.4844 153.529 64.5078C154.631 64.5312 155.686 64.8008 156.693 65.3164C157.584 65.7852 158.24 66.3477 158.662 67.0039L163.338 66.3008V68.6562ZM157.572 70.8711C157.572 69.7461 157.162 68.75 156.342 67.8828C155.545 67.0859 154.561 66.6875 153.389 66.6875C152.193 66.6875 151.221 67.1328 150.471 68.0234C149.744 68.9141 149.381 69.9336 149.381 71.082C149.381 72.2305 149.744 73.2266 150.471 74.0703C151.197 74.8906 152.123 75.3008 153.248 75.3008C154.561 75.3008 155.639 74.8672 156.482 74C157.209 73.2266 157.572 72.1836 157.572 70.8711ZM158.873 84.8984C158.873 83.3281 157.502 82.5547 154.76 82.5781C153.682 82.5781 152.498 82.6133 151.209 82.6836C150.6 82.707 150.061 83.1406 149.592 83.9844C149.17 84.7344 148.959 85.4258 148.959 86.0586C148.959 87.043 149.439 87.8164 150.4 88.3789C151.197 88.8008 152.111 89.0117 153.143 89.0117C154.502 89.0117 155.756 88.6719 156.904 87.9922C158.217 87.1953 158.873 86.1641 158.873 84.8984ZM167.908 73.7539C167.908 77.3164 168.916 79.543 170.932 80.4336C171.729 80.7852 172.561 80.9727 173.428 80.9961C174.834 80.9961 176.404 80.2227 178.139 78.6758L179.58 80.6797C177.658 82.5078 175.514 83.4219 173.146 83.4219C169.889 83.4219 167.568 82.2031 166.186 79.7656C165.295 78.1953 164.85 76.3086 164.85 74.1055C164.85 71.3633 165.564 69.1484 166.994 67.4609C168.518 65.6562 170.627 64.7539 173.322 64.7539C175.291 64.7539 176.861 65.3867 178.033 66.6523C179.205 67.918 179.791 69.5469 179.791 71.5391V73.7539H167.908ZM176.943 71.0469C176.943 68.4219 175.643 67.1094 173.041 67.1094C171.611 67.1094 170.533 67.4727 169.807 68.1992C169.08 68.9023 168.529 69.9922 168.154 71.4688H176.943V71.0469ZM188.791 83.4922C186.33 83.4922 184.338 82.8008 182.814 81.418L184.256 79.2031C185.498 80.3984 187.104 81.0078 189.072 81.0312C189.916 81.0312 190.701 80.7148 191.428 80.082C192.154 79.4492 192.518 78.7344 192.518 77.9375C192.518 76.625 191.568 75.7109 189.67 75.1953C188.217 74.8203 186.775 74.3633 185.346 73.8242C183.963 73.0977 183.26 71.8672 183.236 70.1328C183.236 68.3984 183.787 67.0273 184.889 66.0195C186.014 64.9883 187.443 64.4844 189.178 64.5078C190.818 64.5312 192.553 65.082 194.381 66.1602L193.432 68.4102C191.744 67.332 190.291 66.793 189.072 66.793C186.986 66.793 185.943 67.6719 185.943 69.4297C185.943 70.3906 186.424 71.0352 187.385 71.3633C188.041 71.5742 189.775 72.1367 192.588 73.0508C194.51 73.9414 195.471 75.3477 195.471 77.2695C195.471 79.2148 194.85 80.7383 193.607 81.8398C192.365 82.9414 190.76 83.4922 188.791 83.4922Z" fill="white"/>
</svg>
