<svg viewBox="0 0 260 100" fill="none" xmlns="http://www.w3.org/2000/svg">
<rect width="260" height="100" fill="#4A9986" fill-opacity="0.86"/>
<path d="M43.7695 20.5391V27.5H52.9102V30.207H43.7695V41H40.5703V17.9727H53.5078V20.5391H43.7695ZM60.1172 19.3438C59.5547 19.3438 59.0859 19.1562 58.7109 18.7812C58.3594 18.3828 58.1836 17.9023 58.1836 17.3398C58.1836 16.7773 58.3594 16.3203 58.7109 15.9688C59.0859 15.5938 59.5547 15.4062 60.1172 15.4062C60.6797 15.4062 61.1367 15.5938 61.4883 15.9688C61.8398 16.3438 62.0156 16.8008 62.0156 17.3398C62.0156 17.9023 61.8398 18.3828 61.4883 18.7812C61.1367 19.1562 60.6797 19.3438 60.1172 19.3438ZM58.4648 41V23.1758H61.3828V41H58.4648ZM77.625 41V29.293C77.625 28.1211 77.3555 27.1484 76.8164 26.375C76.207 25.4844 75.3516 25.0391 74.25 25.0391C73.2656 25.0391 72.2461 25.4258 71.1914 26.1992C69.9961 27.0664 69.3867 28.0625 69.3633 29.1875V41H66.5508V23.1758H69.3633V25.1797C70.3008 24.2891 71.0859 23.6797 71.7188 23.3516C72.6094 22.8359 73.5586 22.5898 74.5664 22.6133C76.2305 22.6133 77.625 23.2344 78.75 24.4766C79.875 25.6953 80.4375 27.1484 80.4375 28.8359V41H77.625ZM98.8242 41H96.4336L96.0117 39.4883C94.0664 40.8008 92.4023 41.457 91.0195 41.457C88.793 41.457 87.0234 40.4375 85.7109 38.3984C84.5859 36.6406 84.0234 34.5898 84.0234 32.2461C84.0234 29.5508 84.6211 27.3359 85.8164 25.6016C87.1992 23.5859 89.1797 22.5781 91.7578 22.5781C93.4453 22.5781 94.8633 23.2695 96.0117 24.6523V15.8984H98.8242V41ZM96.0117 27.3242C95.332 26.4102 94.7109 25.8008 94.1484 25.4961C93.5859 25.1914 92.7422 25.0391 91.6172 25.0391C90 25.0391 88.8281 25.8242 88.1016 27.3945C87.5156 28.5664 87.2227 30.0547 87.2227 31.8594C87.2227 33.6641 87.5625 35.1875 88.2422 36.4297C89.0625 38.0234 90.293 38.8203 91.9336 38.8203C93.3867 38.8203 94.7461 38.2695 96.0117 37.168V27.3242ZM113.168 41V17.9023H116.367V41H113.168ZM131.977 41V29.293C131.977 28.1211 131.707 27.1484 131.168 26.375C130.559 25.4844 129.703 25.0391 128.602 25.0391C127.617 25.0391 126.598 25.4258 125.543 26.1992C124.348 27.0664 123.738 28.0625 123.715 29.1875V41H120.902V23.1758H123.715V25.1797C124.652 24.2891 125.438 23.6797 126.07 23.3516C126.961 22.8359 127.91 22.5898 128.918 22.6133C130.582 22.6133 131.977 23.2344 133.102 24.4766C134.227 25.6953 134.789 27.1484 134.789 28.8359V41H131.977ZM153.176 41H150.785L150.363 39.4883C148.418 40.8008 146.754 41.457 145.371 41.457C143.145 41.457 141.375 40.4375 140.062 38.3984C138.938 36.6406 138.375 34.5898 138.375 32.2461C138.375 29.5508 138.973 27.3359 140.168 25.6016C141.551 23.5859 143.531 22.5781 146.109 22.5781C147.797 22.5781 149.215 23.2695 150.363 24.6523V15.8984H153.176V41ZM150.363 27.3242C149.684 26.4102 149.062 25.8008 148.5 25.4961C147.938 25.1914 147.094 25.0391 145.969 25.0391C144.352 25.0391 143.18 25.8242 142.453 27.3945C141.867 28.5664 141.574 30.0547 141.574 31.8594C141.574 33.6641 141.914 35.1875 142.594 36.4297C143.414 38.0234 144.645 38.8203 146.285 38.8203C147.738 38.8203 149.098 38.2695 150.363 37.168V27.3242ZM171.492 41H168.926L168.539 39.1367C166.758 40.8242 164.918 41.6562 163.02 41.6328C161.379 41.6328 160.055 40.9648 159.047 39.6289C158.133 38.3867 157.688 36.9219 157.711 35.2344V23.1758H160.523V35.0938C160.523 37.7656 161.59 39.1016 163.723 39.1016C164.73 39.1016 165.809 38.6797 166.957 37.8359C168.105 36.9922 168.68 36.0781 168.68 35.0938V23.1758H171.492V41ZM181.512 41.4922C179.051 41.4922 177.059 40.8008 175.535 39.418L176.977 37.2031C178.219 38.3984 179.824 39.0078 181.793 39.0312C182.637 39.0312 183.422 38.7148 184.148 38.082C184.875 37.4492 185.238 36.7344 185.238 35.9375C185.238 34.625 184.289 33.7109 182.391 33.1953C180.938 32.8203 179.496 32.3633 178.066 31.8242C176.684 31.0977 175.98 29.8672 175.957 28.1328C175.957 26.3984 176.508 25.0273 177.609 24.0195C178.734 22.9883 180.164 22.4844 181.898 22.5078C183.539 22.5312 185.273 23.082 187.102 24.1602L186.152 26.4102C184.465 25.332 183.012 24.793 181.793 24.793C179.707 24.793 178.664 25.6719 178.664 27.4297C178.664 28.3906 179.145 29.0352 180.105 29.3633C180.762 29.5742 182.496 30.1367 185.309 31.0508C187.23 31.9414 188.191 33.3477 188.191 35.2695C188.191 37.2148 187.57 38.7383 186.328 39.8398C185.086 40.9414 183.48 41.4922 181.512 41.4922ZM197.227 41.2812C195.891 41.2812 194.848 40.6719 194.098 39.4531C193.441 38.4219 193.113 37.2031 193.113 35.7969V25.5312H190.301V23.1406H193.113V19.5195H195.961V23.1406H200.602V25.5664L195.961 25.5312V36.2188C195.961 37.8359 196.652 38.6328 198.035 38.6094C198.785 38.6094 199.723 38.0703 200.848 36.9922L202.219 38.9609C200.883 40.5078 199.219 41.2812 197.227 41.2812ZM212.871 26.2344C212.426 25.9297 211.781 25.7891 210.938 25.8125C210.281 25.8125 209.496 26.2812 208.582 27.2188C207.691 28.1562 207.246 28.9414 207.246 29.5742V41H204.434V23.1758H207.246V26.1289C208.652 23.9023 210.141 22.7891 211.711 22.7891C212.109 22.7891 212.789 22.9766 213.75 23.3516L212.871 26.2344ZM223.418 44.0234C223.02 45.1484 222.27 46.0977 221.168 46.8711C220.066 47.668 218.918 48.0664 217.723 48.0664C217.371 48.0664 216.551 47.8438 215.262 47.3984L216.141 44.8672C216.82 45.1719 217.418 45.3359 217.934 45.3594C219.035 45.3828 220.043 44.5742 220.957 42.9336C221.426 41.7852 221.918 40.6367 222.434 39.4883L215.543 23.8086L218.32 23.0352L223.734 35.7969L228.375 23.0703L230.941 23.668L223.418 44.0234ZM91.1426 60.5391V67.5H100.213V70.207L91.1426 70.1719V78.2578L100.74 78.2227V81H87.9434V57.9727H100.846V60.5391H91.1426ZM112.623 81.4219H110.689L104.045 63.7734L106.857 62.9648L111.779 76.8516L116.42 62.9648L119.162 63.7734L112.623 81.4219ZM124.4 71.7539C124.4 75.3164 125.408 77.543 127.424 78.4336C128.221 78.7852 129.053 78.9727 129.92 78.9961C131.326 78.9961 132.896 78.2227 134.631 76.6758L136.072 78.6797C134.15 80.5078 132.006 81.4219 129.639 81.4219C126.381 81.4219 124.061 80.2031 122.678 77.7656C121.787 76.1953 121.342 74.3086 121.342 72.1055C121.342 69.3633 122.057 67.1484 123.486 65.4609C125.01 63.6562 127.119 62.7539 129.814 62.7539C131.783 62.7539 133.354 63.3867 134.525 64.6523C135.697 65.918 136.283 67.5469 136.283 69.5391V71.7539H124.4ZM133.436 69.0469C133.436 66.4219 132.135 65.1094 129.533 65.1094C128.104 65.1094 127.025 65.4727 126.299 66.1992C125.572 66.9023 125.021 67.9922 124.646 69.4688H133.436V69.0469ZM150.943 81V69.293C150.943 68.1211 150.674 67.1484 150.135 66.375C149.525 65.4844 148.67 65.0391 147.568 65.0391C146.584 65.0391 145.564 65.4258 144.51 66.1992C143.314 67.0664 142.705 68.0625 142.682 69.1875V81H139.869V63.1758H142.682V65.1797C143.619 64.2891 144.404 63.6797 145.037 63.3516C145.928 62.8359 146.877 62.5898 147.885 62.6133C149.549 62.6133 150.943 63.2344 152.068 64.4766C153.193 65.6953 153.756 67.1484 153.756 68.8359V81H150.943ZM163.705 81.2812C162.369 81.2812 161.326 80.6719 160.576 79.4531C159.92 78.4219 159.592 77.2031 159.592 75.7969V65.5312H156.779V63.1406H159.592V59.5195H162.439V63.1406H167.08V65.5664L162.439 65.5312V76.2188C162.439 77.8359 163.131 78.6328 164.514 78.6094C165.264 78.6094 166.201 78.0703 167.326 76.9922L168.697 78.9609C167.361 80.5078 165.697 81.2812 163.705 81.2812ZM176.326 81.4922C173.865 81.4922 171.873 80.8008 170.35 79.418L171.791 77.2031C173.033 78.3984 174.639 79.0078 176.607 79.0312C177.451 79.0312 178.236 78.7148 178.963 78.082C179.689 77.4492 180.053 76.7344 180.053 75.9375C180.053 74.625 179.104 73.7109 177.205 73.1953C175.752 72.8203 174.311 72.3633 172.881 71.8242C171.498 71.0977 170.795 69.8672 170.771 68.1328C170.771 66.3984 171.322 65.0273 172.424 64.0195C173.549 62.9883 174.979 62.4844 176.713 62.5078C178.354 62.5312 180.088 63.082 181.916 64.1602L180.967 66.4102C179.279 65.332 177.826 64.793 176.607 64.793C174.521 64.793 173.479 65.6719 173.479 67.4297C173.479 68.3906 173.959 69.0352 174.92 69.3633C175.576 69.5742 177.311 70.1367 180.123 71.0508C182.045 71.9414 183.006 73.3477 183.006 75.2695C183.006 77.2148 182.385 78.7383 181.143 79.8398C179.9 80.9414 178.295 81.4922 176.326 81.4922Z" fill="white"/>
</svg>
