<svg viewBox="0 0 260 100" fill="none" xmlns="http://www.w3.org/2000/svg">
<rect width="260" height="100" fill="#4A6599"/>
<path d="M38.164 11.984C37.912 16.736 37.912 33.908 23.332 41.36C24.16 41.9 25.024 42.764 25.492 43.412C34.6 38.48 38.308 29.804 39.892 22.604C41.62 29.804 45.58 39.02 54.868 43.412C55.264 42.692 56.092 41.792 56.848 41.216C43.312 35.024 41.368 18.392 41.044 13.64C41.08 13.028 41.08 12.452 41.116 11.984H38.164ZM74.776 28.76C73.876 27.716 70.276 23.504 68.944 22.064V21.128H73.84V18.572H68.944V10.868H66.28V18.572H60.304V21.128H65.884C64.552 26.096 61.816 31.676 59.08 34.664C59.584 35.312 60.268 36.428 60.556 37.184C62.68 34.736 64.732 30.632 66.28 26.42V43.7H68.944V25.304C70.42 27.248 72.292 29.768 73.084 31.064L74.776 28.76ZM92.38 18.608H88.672V10.94H85.936V18.608H75.208V21.164H85C82.336 26.816 77.62 32.828 73.12 35.888C73.768 36.428 74.56 37.364 75.028 38.048C78.988 35.06 83.092 29.984 85.936 24.8V40.136C85.936 40.784 85.684 40.964 85.036 41C84.352 41 82.048 41.036 79.708 40.964C80.104 41.72 80.536 42.944 80.68 43.7C83.704 43.7 85.828 43.628 87.016 43.16C88.204 42.764 88.672 41.936 88.672 40.1V21.164H92.38V18.608ZM97.384 31.28C96.988 34.448 96.232 37.652 95.044 39.848C95.62 40.028 96.7 40.532 97.132 40.856C98.32 38.552 99.184 35.096 99.688 31.712L97.384 31.28ZM104.8 31.676C105.736 33.764 106.636 36.464 106.996 38.264L109.048 37.58C108.688 35.816 107.716 33.08 106.744 31.028L104.8 31.676ZM103.864 23.252C104.476 24.224 105.052 25.376 105.556 26.492L100.228 26.708C102.604 23.612 105.34 19.4 107.392 15.98L105.124 14.972C104.188 16.88 102.892 19.184 101.488 21.416C100.912 20.696 100.192 19.868 99.4 19.076C100.732 17.06 102.244 14.216 103.468 11.84L101.128 10.904C100.372 12.884 99.112 15.584 97.888 17.6C97.528 17.276 97.204 16.952 96.844 16.664L95.476 18.428C97.132 19.904 99.004 21.92 100.12 23.504C99.328 24.692 98.5 25.844 97.744 26.816L95.368 26.924L95.584 29.3C97.24 29.192 99.184 29.084 101.236 28.976V43.808H103.612V28.832L106.456 28.652C106.744 29.408 106.96 30.128 107.104 30.74L109.12 29.84C108.652 27.896 107.212 24.8 105.736 22.496L103.864 23.252ZM124.312 31.352V39.488H113.476V31.352H124.312ZM111.028 43.736H113.476V41.864H124.312V43.592H126.904V28.976H111.028V43.736ZM109.66 12.74V15.188H115.492C114.844 19.58 113.296 23.216 108.328 25.268C108.904 25.736 109.624 26.636 109.912 27.248C115.528 24.764 117.364 20.516 118.12 15.188H125.032C124.78 20.876 124.456 23.072 123.952 23.684C123.664 23.972 123.376 24.008 122.8 24.008C122.188 24.008 120.64 24.008 119.02 23.864C119.452 24.548 119.74 25.592 119.812 26.348C121.468 26.384 123.052 26.42 123.88 26.312C124.888 26.24 125.536 26.024 126.112 25.34C126.976 24.296 127.264 21.488 127.552 13.856C127.588 13.46 127.588 12.74 127.588 12.74H109.66ZM147.856 13.568C151.06 18.644 157.216 23.936 162.94 26.96C163.372 26.168 164.02 25.268 164.704 24.584C158.98 21.992 152.752 16.736 149.08 10.868H146.308C143.608 15.944 137.776 21.776 131.44 25.052C132.052 25.628 132.808 26.564 133.096 27.212C139.252 23.828 145.048 18.392 147.856 13.568ZM152.896 23.468V43.7H155.668V23.468H152.896ZM140.152 23.612V28.58C140.152 32.972 139.54 38.084 132.808 41.864C133.492 42.296 134.5 43.196 134.932 43.772C142.096 39.56 142.888 33.692 142.888 28.616V23.612H140.152ZM169.312 31.316H178.78C177.808 33.944 176.26 37.22 174.892 39.704C172.948 39.776 171.148 39.812 169.6 39.848L169.96 42.476C176.116 42.26 185.44 41.864 194.26 41.432C194.944 42.296 195.484 43.124 195.916 43.844L198.328 42.368C196.672 39.704 193.18 35.816 189.868 32.972L187.6 34.196C189.184 35.6 190.876 37.364 192.352 39.056C187.312 39.272 182.236 39.452 177.772 39.596C179.212 37.076 180.76 33.98 182.02 31.316H198.904V28.832H169.312V31.316ZM175.432 21.992V24.44H192.46V21.992H175.432ZM182.344 10.94C179.572 15.512 173.596 20.696 167.44 23.648C168.016 24.188 168.7 25.16 168.988 25.772C175.108 22.748 180.94 17.816 183.856 13.496C187.204 18.14 193.504 22.928 199.048 25.628C199.516 24.836 200.164 23.9 200.776 23.252C195.124 20.912 188.86 16.232 185.08 10.94H182.344ZM218.596 31.244C217.696 30.452 214.528 27.68 212.836 26.348C214.744 23.936 216.4 21.272 217.516 18.5L216.004 17.492L215.536 17.6H212.404V10.904H209.776V17.6H204.124V20.048H214.132C211.648 24.836 207.148 29.372 202.864 31.856C203.296 32.36 203.98 33.584 204.268 34.268C206.104 33.08 207.976 31.568 209.776 29.768V43.736H212.404V28.832C214.024 30.344 216.004 32.36 216.94 33.404L218.596 31.244ZM228.388 40.1V25.16H236.056V22.568H228.388V11.156H225.724V22.568H218.02V25.16H225.724V40.1H216.616V42.728H236.776V40.1H228.388ZM56.56 52.524L53.608 52.272C53.536 53.604 53.212 55.224 52.708 56.772C51.916 56.808 51.088 56.808 50.332 56.808C48.676 56.808 46.156 56.664 44.248 56.412V59.112C46.228 59.256 48.604 59.328 50.152 59.328C50.656 59.328 51.196 59.328 51.736 59.328C50.368 62.244 47.956 65.952 43.42 70.344L45.868 72.144C47.092 70.704 48.1 69.372 49.144 68.4C50.764 66.888 53.068 65.772 55.336 65.772C56.956 65.772 58.252 66.456 58.612 68.004C54.4 70.2 50.116 72.864 50.116 77.112C50.116 81.504 54.256 82.62 59.404 82.62C62.536 82.62 66.532 82.332 69.268 81.972L69.34 79.092C66.172 79.632 62.32 79.956 59.512 79.956C55.804 79.956 52.996 79.524 52.996 76.716C52.996 74.34 55.336 72.432 58.684 70.668C58.684 72.576 58.648 74.916 58.576 76.284H61.348C61.312 74.52 61.276 71.46 61.24 69.372C63.976 68.076 66.532 67.032 68.548 66.276C69.52 65.88 70.816 65.376 71.752 65.124L70.564 62.424C69.556 62.964 68.692 63.36 67.612 63.828C65.74 64.692 63.544 65.556 61.096 66.744C60.52 64.656 58.612 63.504 56.272 63.504C54.724 63.504 52.636 63.972 51.268 64.836C52.492 63.216 53.68 61.164 54.508 59.256C58.432 59.112 62.896 58.824 66.46 58.248L66.496 55.584C63.112 56.196 59.188 56.52 55.516 56.7C56.056 55.008 56.344 53.604 56.56 52.524ZM85.324 66.42H102.676V70.164H85.324V66.42ZM85.324 60.444H102.676V64.152H85.324V60.444ZM85.324 54.54H102.676V58.212H85.324V54.54ZM100.84 80.928C99.292 80.928 99.004 80.748 99.004 79.704V72.54H105.376V52.128H82.732V72.54H87.592C86.836 77.148 84.928 79.956 77.548 81.432C78.088 81.972 78.844 83.088 79.06 83.772C87.232 81.9 89.536 78.3 90.4 72.54H96.304V79.74C96.304 82.656 97.204 83.448 100.588 83.448H106.384C109.408 83.448 110.2 82.152 110.524 76.932C109.768 76.752 108.616 76.32 108.04 75.852C107.896 80.28 107.608 80.928 106.168 80.928H100.84ZM114.628 62.208L115.96 65.376C118.804 64.224 127.984 60.3 133.888 60.3C138.748 60.3 141.556 63.252 141.556 67.032C141.556 74.412 133.132 77.256 123.7 77.508L124.996 80.496C136.084 79.884 144.688 75.708 144.688 67.104C144.688 61.056 139.936 57.6 133.96 57.6C128.704 57.6 121.648 60.192 118.588 61.164C117.22 61.596 115.924 61.956 114.628 62.208ZM175.396 52.92H172.048C172.156 53.496 172.3 54.252 172.372 55.08C172.444 55.98 172.552 58.392 172.588 60.66C171.076 60.732 169.528 60.768 168.052 60.768C166.108 60.768 163.804 60.624 162.256 60.372V63.252C163.804 63.36 166.36 63.468 168.088 63.468C169.564 63.468 171.112 63.432 172.66 63.36C172.66 63.792 172.66 64.152 172.66 64.476C172.66 71.388 172.444 75.456 168.592 78.84C167.728 79.704 166.252 80.604 165.1 81.072L167.728 83.124C175.36 78.624 175.36 72.756 175.36 64.476C175.36 64.152 175.36 63.72 175.36 63.216C177.52 63.072 179.536 62.856 181.192 62.604V59.652C179.5 60.048 177.448 60.3 175.324 60.48C175.288 58.248 175.252 55.836 175.288 55.044C175.288 54.252 175.324 53.532 175.396 52.92ZM157.18 53.46L153.832 53.136C153.832 53.784 153.796 54.72 153.652 55.548C153.22 58.536 152.284 64.08 152.284 69.912C152.284 74.448 153.472 79.128 154.192 81.324L156.64 81.036C156.604 80.676 156.568 80.172 156.532 79.812C156.496 79.416 156.568 78.732 156.712 78.192C157.108 76.428 158.188 72.756 159.052 70.236L157.504 69.3C156.82 71.1 156.064 73.296 155.56 74.808C154.192 68.904 155.416 61.02 156.568 55.8C156.748 55.116 157 54.144 157.18 53.46ZM197.176 77.22C197.176 75.96 198.436 74.916 200.056 74.916C202.792 74.916 204.592 76.968 204.88 79.812C203.98 79.956 203.008 80.028 201.964 80.028C199.156 80.028 197.176 78.948 197.176 77.22ZM192.568 54.468L192.676 57.456C193.432 57.348 194.26 57.276 195.052 57.24C196.96 57.132 204.16 56.808 206.068 56.736C204.232 58.356 199.732 62.136 197.716 63.792C195.628 65.556 191.02 69.408 188.032 71.856L190.084 73.98C194.656 69.336 197.86 66.78 203.872 66.78C208.552 66.78 211.936 69.444 211.936 72.972C211.936 75.924 210.316 78.012 207.436 79.128C207.004 75.708 204.592 72.756 200.092 72.756C196.744 72.756 194.548 74.952 194.548 77.436C194.548 80.424 197.536 82.548 202.432 82.548C210.064 82.548 214.816 78.804 214.816 73.008C214.816 68.148 210.532 64.548 204.556 64.548C202.936 64.548 201.208 64.728 199.552 65.304C202.36 62.964 207.256 58.788 209.056 57.42C209.704 56.88 210.424 56.412 211.072 55.944L209.416 53.856C209.056 53.964 208.552 54.072 207.472 54.144C205.564 54.324 196.996 54.612 195.124 54.612C194.404 54.612 193.396 54.576 192.568 54.468Z" fill="white"/>
</svg>
