<svg viewBox="0 0 260 100" fill="none" xmlns="http://www.w3.org/2000/svg">
<rect width="260" height="100" fill="#4A6599"/>
<path d="M17.5176 40.5391V47.5H26.6582V50.207H17.5176V61H14.3184V37.9727H27.2559V40.5391H17.5176ZM33.8652 39.3438C33.3027 39.3438 32.834 39.1562 32.459 38.7812C32.1074 38.3828 31.9316 37.9023 31.9316 37.3398C31.9316 36.7773 32.1074 36.3203 32.459 35.9688C32.834 35.5938 33.3027 35.4062 33.8652 35.4062C34.4277 35.4062 34.8848 35.5938 35.2363 35.9688C35.5879 36.3438 35.7637 36.8008 35.7637 37.3398C35.7637 37.9023 35.5879 38.3828 35.2363 38.7812C34.8848 39.1562 34.4277 39.3438 33.8652 39.3438ZM32.2129 61V43.1758H35.1309V61H32.2129ZM51.373 61V49.293C51.373 48.1211 51.1035 47.1484 50.5645 46.375C49.9551 45.4844 49.0996 45.0391 47.998 45.0391C47.0137 45.0391 45.9941 45.4258 44.9395 46.1992C43.7441 47.0664 43.1348 48.0625 43.1113 49.1875V61H40.2988V43.1758H43.1113V45.1797C44.0488 44.2891 44.834 43.6797 45.4668 43.3516C46.3574 42.8359 47.3066 42.5898 48.3145 42.6133C49.9785 42.6133 51.373 43.2344 52.498 44.4766C53.623 45.6953 54.1855 47.1484 54.1855 48.8359V61H51.373ZM72.5723 61H70.1816L69.7598 59.4883C67.8145 60.8008 66.1504 61.457 64.7676 61.457C62.541 61.457 60.7715 60.4375 59.459 58.3984C58.334 56.6406 57.7715 54.5898 57.7715 52.2461C57.7715 49.5508 58.3691 47.3359 59.5645 45.6016C60.9473 43.5859 62.9277 42.5781 65.5059 42.5781C67.1934 42.5781 68.6113 43.2695 69.7598 44.6523V35.8984H72.5723V61ZM69.7598 47.3242C69.0801 46.4102 68.459 45.8008 67.8965 45.4961C67.334 45.1914 66.4902 45.0391 65.3652 45.0391C63.748 45.0391 62.5762 45.8242 61.8496 47.3945C61.2637 48.5664 60.9707 50.0547 60.9707 51.8594C60.9707 53.6641 61.3105 55.1875 61.9902 56.4297C62.8105 58.0234 64.041 58.8203 65.6816 58.8203C67.1348 58.8203 68.4941 58.2695 69.7598 57.168V47.3242ZM95.8105 61.2812C92.5527 61.2812 90.0098 60.0391 88.1816 57.5547C86.541 55.3516 85.7324 52.5508 85.7559 49.1523C85.7559 45.8945 86.5996 43.1523 88.2871 40.9258C90.1621 38.5117 92.7051 37.2812 95.916 37.2344C97.041 37.2344 98.3652 37.4922 99.8887 38.0078C101.084 38.4062 102.033 38.8047 102.736 39.2031L101.365 42.0508C99.1855 40.7148 97.4277 40.0469 96.0918 40.0469C93.7246 40.0469 91.873 41.1836 90.5371 43.457C89.5059 45.2617 88.9902 47.3008 88.9902 49.5742C88.9902 51.8242 89.541 53.793 90.6426 55.4805C91.9082 57.4258 93.6191 58.3984 95.7754 58.3984C97.8145 58.3984 99.7363 57.8828 101.541 56.8516L102.947 59.207C101.541 60.0039 100.393 60.5312 99.502 60.7891C98.4004 61.1172 97.1699 61.2812 95.8105 61.2812ZM113.916 61.3867C110.682 61.3867 108.338 60.1797 106.885 57.7656C105.9 56.1016 105.408 54.1562 105.408 51.9297C105.408 48.8359 106.381 46.4219 108.326 44.6875C109.92 43.2812 111.795 42.5781 113.951 42.5781C116.084 42.5781 117.912 43.2812 119.436 44.6875C121.311 46.4219 122.248 48.8359 122.248 51.9297C122.248 54.0859 121.697 56.043 120.596 57.8008C119.096 60.1914 116.869 61.3867 113.916 61.3867ZM114.127 44.9688C112.229 44.9688 110.775 45.7188 109.768 47.2188C108.924 48.5078 108.502 50.1484 108.502 52.1406C108.502 54.0391 108.9 55.5977 109.697 56.8164C110.635 58.293 111.994 59.043 113.775 59.0664C115.627 59.0664 117.01 58.3047 117.924 56.7812C118.744 55.5156 119.154 53.9102 119.154 51.9648C119.154 50.1133 118.779 48.5547 118.029 47.2891C117.162 45.7422 115.861 44.9688 114.127 44.9688ZM146.471 61V48.5547C146.471 46.2344 145.416 45.0625 143.307 45.0391C142.65 45.0391 141.818 45.4258 140.811 46.1992C139.592 47.1367 138.982 48.2031 138.982 49.3984V61H136.17V48.3789C136.17 47.418 135.912 46.6328 135.396 46.0234C134.881 45.3906 134.154 45.0742 133.217 45.0742C132.279 45.0742 131.295 45.5078 130.264 46.375C129.256 47.2422 128.752 48.1445 128.752 49.082V61H125.939V43.1758H128.752V45.707C130.58 43.7383 132.268 42.7539 133.814 42.7539C134.799 42.7539 135.678 43.0703 136.451 43.7031C137.248 44.3125 137.846 45.0859 138.244 46.0234C140.26 43.7266 142.158 42.5781 143.939 42.5781C145.416 42.5781 146.682 43.1641 147.736 44.3359C148.791 45.5078 149.318 46.8555 149.318 48.3789V61H146.471ZM160.85 61.457C159.326 61.457 157.932 60.7773 156.666 59.418V68.1016H153.854V43.1758H156.666V44.8633C158.26 43.3164 159.666 42.5547 160.885 42.5781C166.182 42.5781 168.842 45.5195 168.865 51.4023C168.865 54.2852 168.268 56.6055 167.072 58.3633C165.689 60.4258 163.615 61.457 160.85 61.457ZM160.85 44.9688C159.959 44.9688 159.104 45.25 158.283 45.8125C157.463 46.375 156.924 47.0664 156.666 47.8867V57.3789C158.119 58.5039 159.572 59.0664 161.025 59.0664C162.572 59.0664 163.779 58.2227 164.646 56.5352C165.373 55.1289 165.725 53.582 165.701 51.8945C165.701 47.2773 164.084 44.9688 160.85 44.9688ZM184.334 61.3867C183.35 61.3867 182.6 60.8125 182.084 59.6641C181.357 60.2266 180.736 60.625 180.221 60.8594C179.166 61.3281 177.959 61.5625 176.6 61.5625C175.076 61.5625 173.869 61.082 172.979 60.1211C172.088 59.1602 171.643 57.9297 171.643 56.4297C171.643 54.4844 172.229 53.0781 173.4 52.2109C174.174 51.6484 175.627 51.1211 177.76 50.6289C178.58 50.4414 179.881 50.2656 181.662 50.1016V47.8164C181.662 47.0195 181.346 46.375 180.713 45.8828C180.104 45.3672 179.4 45.1094 178.604 45.1094C177.291 45.1094 175.686 45.8828 173.787 47.4297L172.311 45.4258C173.061 44.7461 174.045 44.1133 175.264 43.5273C176.6 42.8711 177.713 42.5547 178.604 42.5781C180.268 42.5781 181.662 43.0938 182.787 44.125C183.912 45.1562 184.475 46.4922 184.475 48.1328V58.293C184.592 58.7617 184.838 59.0078 185.213 59.0312C185.471 59.0547 185.975 58.7969 186.725 58.2578L187.287 60.1211C186.49 60.9648 185.506 61.3867 184.334 61.3867ZM181.662 52.5977C180.959 52.5977 180.045 52.7148 178.92 52.9492C178.264 53.0664 177.572 53.2188 176.846 53.4062C175.111 53.8516 174.244 54.8711 174.244 56.4648C174.244 57.332 174.49 58.0234 174.982 58.5391C175.475 59.0547 176.154 59.3125 177.021 59.3125C177.959 59.3125 178.908 59.0547 179.869 58.5391C181.041 57.9297 181.639 57.168 181.662 56.2539V52.5977ZM201.174 61V49.293C201.174 48.1211 200.904 47.1484 200.365 46.375C199.756 45.4844 198.9 45.0391 197.799 45.0391C196.814 45.0391 195.795 45.4258 194.74 46.1992C193.545 47.0664 192.936 48.0625 192.912 49.1875V61H190.1V43.1758H192.912V45.1797C193.85 44.2891 194.635 43.6797 195.268 43.3516C196.158 42.8359 197.107 42.5898 198.115 42.6133C199.779 42.6133 201.174 43.2344 202.299 44.4766C203.424 45.6953 203.986 47.1484 203.986 48.8359V61H201.174ZM210.455 39.3438C209.893 39.3438 209.424 39.1562 209.049 38.7812C208.697 38.3828 208.521 37.9023 208.521 37.3398C208.521 36.7773 208.697 36.3203 209.049 35.9688C209.424 35.5938 209.893 35.4062 210.455 35.4062C211.018 35.4062 211.475 35.5938 211.826 35.9688C212.178 36.3438 212.354 36.8008 212.354 37.3398C212.354 37.9023 212.178 38.3828 211.826 38.7812C211.475 39.1562 211.018 39.3438 210.455 39.3438ZM208.803 61V43.1758H211.721V61H208.803ZM219.068 51.7539C219.068 55.3164 220.076 57.543 222.092 58.4336C222.889 58.7852 223.721 58.9727 224.588 58.9961C225.994 58.9961 227.564 58.2227 229.299 56.6758L230.74 58.6797C228.818 60.5078 226.674 61.4219 224.307 61.4219C221.049 61.4219 218.729 60.2031 217.346 57.7656C216.455 56.1953 216.01 54.3086 216.01 52.1055C216.01 49.3633 216.725 47.1484 218.154 45.4609C219.678 43.6562 221.787 42.7539 224.482 42.7539C226.451 42.7539 228.021 43.3867 229.193 44.6523C230.365 45.918 230.951 47.5469 230.951 49.5391V51.7539H219.068ZM228.104 49.0469C228.104 46.4219 226.803 45.1094 224.201 45.1094C222.771 45.1094 221.693 45.4727 220.967 46.1992C220.24 46.9023 219.689 47.9922 219.314 49.4688H228.104V49.0469ZM239.951 61.4922C237.49 61.4922 235.498 60.8008 233.975 59.418L235.416 57.2031C236.658 58.3984 238.264 59.0078 240.232 59.0312C241.076 59.0312 241.861 58.7148 242.588 58.082C243.314 57.4492 243.678 56.7344 243.678 55.9375C243.678 54.625 242.729 53.7109 240.83 53.1953C239.377 52.8203 237.936 52.3633 236.506 51.8242C235.123 51.0977 234.42 49.8672 234.396 48.1328C234.396 46.3984 234.947 45.0273 236.049 44.0195C237.174 42.9883 238.604 42.4844 240.338 42.5078C241.979 42.5312 243.713 43.082 245.541 44.1602L244.592 46.4102C242.904 45.332 241.451 44.793 240.232 44.793C238.146 44.793 237.104 45.6719 237.104 47.4297C237.104 48.3906 237.584 49.0352 238.545 49.3633C239.201 49.5742 240.936 50.1367 243.748 51.0508C245.67 51.9414 246.631 53.3477 246.631 55.2695C246.631 57.2148 246.01 58.7383 244.768 59.8398C243.525 60.9414 241.92 61.4922 239.951 61.4922Z" fill="white"/>
</svg>
