<svg viewBox="0 0 260 100" fill="none" xmlns="http://www.w3.org/2000/svg">
<rect width="260" height="100" fill="#E0D807"/>
<path d="M81.4844 38.8203C80.0547 39.6875 78.8594 40.2852 77.8984 40.6133C76.7031 41.0117 75.332 41.2109 73.7852 41.2109C70.668 41.2109 68.207 39.9805 66.4023 37.5195C64.7617 35.3164 63.9414 32.5977 63.9414 29.3633C63.918 26.4336 64.6914 23.7852 66.2617 21.418C68.1133 18.6289 70.5742 17.2344 73.6445 17.2344C74.793 17.2344 76.0703 17.4336 77.4766 17.832C79.0234 18.2305 80.1719 18.7578 80.9219 19.4141L79.5859 22.0859C77.5938 20.7266 75.7188 20.0469 73.9609 20.0469C71.6875 20.0469 69.9297 21.207 68.6875 23.5273C67.7031 25.3555 67.2109 27.3711 67.2109 29.5742C67.2109 31.7773 67.7266 33.7227 68.7578 35.4102C69.9766 37.4023 71.6172 38.3984 73.6797 38.3984C75.3906 38.3984 76.9375 38.0352 78.3203 37.3086V30.1719H73.2227V27.5H81.4844V38.8203ZM88.1992 31.7539C88.1992 35.3164 89.207 37.543 91.2227 38.4336C92.0195 38.7852 92.8516 38.9727 93.7188 38.9961C95.125 38.9961 96.6953 38.2227 98.4297 36.6758L99.8711 38.6797C97.9492 40.5078 95.8047 41.4219 93.4375 41.4219C90.1797 41.4219 87.8594 40.2031 86.4766 37.7656C85.5859 36.1953 85.1406 34.3086 85.1406 32.1055C85.1406 29.3633 85.8555 27.1484 87.2852 25.4609C88.8086 23.6562 90.918 22.7539 93.6133 22.7539C95.582 22.7539 97.1523 23.3867 98.3242 24.6523C99.4961 25.918 100.082 27.5469 100.082 29.5391V31.7539H88.1992ZM97.2344 29.0469C97.2344 26.4219 95.9336 25.1094 93.332 25.1094C91.9023 25.1094 90.8242 25.4727 90.0977 26.1992C89.3711 26.9023 88.8203 27.9922 88.4453 29.4688H97.2344V29.0469ZM109.082 41.2812C107.746 41.2812 106.703 40.6719 105.953 39.4531C105.297 38.4219 104.969 37.2031 104.969 35.7969V25.5312H102.156V23.1406H104.969V19.5195H107.816V23.1406H112.457V25.5664L107.816 25.5312V36.2188C107.816 37.8359 108.508 38.6328 109.891 38.6094C110.641 38.6094 111.578 38.0703 112.703 36.9922L114.074 38.9609C112.738 40.5078 111.074 41.2812 109.082 41.2812ZM137.98 41.3867C136.996 41.3867 136.246 40.8125 135.73 39.6641C135.004 40.2266 134.383 40.625 133.867 40.8594C132.812 41.3281 131.605 41.5625 130.246 41.5625C128.723 41.5625 127.516 41.082 126.625 40.1211C125.734 39.1602 125.289 37.9297 125.289 36.4297C125.289 34.4844 125.875 33.0781 127.047 32.2109C127.82 31.6484 129.273 31.1211 131.406 30.6289C132.227 30.4414 133.527 30.2656 135.309 30.1016V27.8164C135.309 27.0195 134.992 26.375 134.359 25.8828C133.75 25.3672 133.047 25.1094 132.25 25.1094C130.938 25.1094 129.332 25.8828 127.434 27.4297L125.957 25.4258C126.707 24.7461 127.691 24.1133 128.91 23.5273C130.246 22.8711 131.359 22.5547 132.25 22.5781C133.914 22.5781 135.309 23.0938 136.434 24.125C137.559 25.1562 138.121 26.4922 138.121 28.1328V38.293C138.238 38.7617 138.484 39.0078 138.859 39.0312C139.117 39.0547 139.621 38.7969 140.371 38.2578L140.934 40.1211C140.137 40.9648 139.152 41.3867 137.98 41.3867ZM135.309 32.5977C134.605 32.5977 133.691 32.7148 132.566 32.9492C131.91 33.0664 131.219 33.2188 130.492 33.4062C128.758 33.8516 127.891 34.8711 127.891 36.4648C127.891 37.332 128.137 38.0234 128.629 38.5391C129.121 39.0547 129.801 39.3125 130.668 39.3125C131.605 39.3125 132.555 39.0547 133.516 38.5391C134.688 37.9297 135.285 37.168 135.309 36.2539V32.5977ZM156.754 38.5039C156.754 43.9648 154.352 46.707 149.547 46.7305C148.141 46.7305 146.934 46.1328 145.926 44.9375L147.613 42.5117C148.41 43.3555 149.207 43.7773 150.004 43.7773C152.348 43.7773 153.531 42.125 153.555 38.8203V18.043H156.754V38.5039ZM168.918 41.3867C165.684 41.3867 163.34 40.1797 161.887 37.7656C160.902 36.1016 160.41 34.1562 160.41 31.9297C160.41 28.8359 161.383 26.4219 163.328 24.6875C164.922 23.2812 166.797 22.5781 168.953 22.5781C171.086 22.5781 172.914 23.2812 174.438 24.6875C176.312 26.4219 177.25 28.8359 177.25 31.9297C177.25 34.0859 176.699 36.043 175.598 37.8008C174.098 40.1914 171.871 41.3867 168.918 41.3867ZM169.129 24.9688C167.23 24.9688 165.777 25.7188 164.77 27.2188C163.926 28.5078 163.504 30.1484 163.504 32.1406C163.504 34.0391 163.902 35.5977 164.699 36.8164C165.637 38.293 166.996 39.043 168.777 39.0664C170.629 39.0664 172.012 38.3047 172.926 36.7812C173.746 35.5156 174.156 33.9102 174.156 31.9648C174.156 30.1133 173.781 28.5547 173.031 27.2891C172.164 25.7422 170.863 24.9688 169.129 24.9688ZM188.465 41.3516C186.918 41.3516 185.359 40.7539 183.789 39.5586L183.297 41H180.977V15.793H183.789V24.8633C185.43 23.3164 186.93 22.5547 188.289 22.5781C190.727 22.5781 192.648 23.5156 194.055 25.3906C195.32 27.0781 195.965 29.1758 195.988 31.6836C195.988 34.4492 195.426 36.6758 194.301 38.3633C193.035 40.3555 191.09 41.3516 188.465 41.3516ZM188.254 25.0391C186.074 25.0391 184.586 25.9062 183.789 27.6406V37.0977C184.211 37.6836 184.879 38.1406 185.793 38.4688C186.613 38.7969 187.398 38.9727 188.148 38.9961C191.195 38.9961 192.719 36.5938 192.719 31.7891C192.719 30.0312 192.426 28.5547 191.84 27.3594C191.043 25.8125 189.848 25.0391 188.254 25.0391ZM40.3867 81V57.9023H43.5859V81H40.3867ZM59.1953 81V69.293C59.1953 68.1211 58.9258 67.1484 58.3867 66.375C57.7773 65.4844 56.9219 65.0391 55.8203 65.0391C54.8359 65.0391 53.8164 65.4258 52.7617 66.1992C51.5664 67.0664 50.957 68.0625 50.9336 69.1875V81H48.1211V63.1758H50.9336V65.1797C51.8711 64.2891 52.6562 63.6797 53.2891 63.3516C54.1797 62.8359 55.1289 62.5898 56.1367 62.6133C57.8008 62.6133 59.1953 63.2344 60.3203 64.4766C61.4453 65.6953 62.0078 67.1484 62.0078 68.8359V81H59.1953ZM71.957 81.2812C70.6211 81.2812 69.5781 80.6719 68.8281 79.4531C68.1719 78.4219 67.8438 77.2031 67.8438 75.7969V65.5312H65.0312V63.1406H67.8438V59.5195H70.6914V63.1406H75.332V65.5664L70.6914 65.5312V76.2188C70.6914 77.8359 71.3828 78.6328 72.7656 78.6094C73.5156 78.6094 74.4531 78.0703 75.5781 76.9922L76.9492 78.9609C75.6133 80.5078 73.9492 81.2812 71.957 81.2812ZM87.6016 66.2344C87.1562 65.9297 86.5117 65.7891 85.668 65.8125C85.0117 65.8125 84.2266 66.2812 83.3125 67.2188C82.4219 68.1562 81.9766 68.9414 81.9766 69.5742V81H79.1641V63.1758H81.9766V66.1289C83.3828 63.9023 84.8711 62.7891 86.4414 62.7891C86.8398 62.7891 87.5195 62.9766 88.4805 63.3516L87.6016 66.2344ZM99.0977 81.3867C95.8633 81.3867 93.5195 80.1797 92.0664 77.7656C91.082 76.1016 90.5898 74.1562 90.5898 71.9297C90.5898 68.8359 91.5625 66.4219 93.5078 64.6875C95.1016 63.2812 96.9766 62.5781 99.1328 62.5781C101.266 62.5781 103.094 63.2812 104.617 64.6875C106.492 66.4219 107.43 68.8359 107.43 71.9297C107.43 74.0859 106.879 76.043 105.777 77.8008C104.277 80.1914 102.051 81.3867 99.0977 81.3867ZM99.3086 64.9688C97.4102 64.9688 95.957 65.7188 94.9492 67.2188C94.1055 68.5078 93.6836 70.1484 93.6836 72.1406C93.6836 74.0391 94.082 75.5977 94.8789 76.8164C95.8164 78.293 97.1758 79.043 98.957 79.0664C100.809 79.0664 102.191 78.3047 103.105 76.7812C103.926 75.5156 104.336 73.9102 104.336 71.9648C104.336 70.1133 103.961 68.5547 103.211 67.2891C102.344 65.7422 101.043 64.9688 99.3086 64.9688ZM124.973 81H122.582L122.16 79.4883C120.215 80.8008 118.551 81.457 117.168 81.457C114.941 81.457 113.172 80.4375 111.859 78.3984C110.734 76.6406 110.172 74.5898 110.172 72.2461C110.172 69.5508 110.77 67.3359 111.965 65.6016C113.348 63.5859 115.328 62.5781 117.906 62.5781C119.594 62.5781 121.012 63.2695 122.16 64.6523V55.8984H124.973V81ZM122.16 67.3242C121.48 66.4102 120.859 65.8008 120.297 65.4961C119.734 65.1914 118.891 65.0391 117.766 65.0391C116.148 65.0391 114.977 65.8242 114.25 67.3945C113.664 68.5664 113.371 70.0547 113.371 71.8594C113.371 73.6641 113.711 75.1875 114.391 76.4297C115.211 78.0234 116.441 78.8203 118.082 78.8203C119.535 78.8203 120.895 78.2695 122.16 77.168V67.3242ZM143.289 81H140.723L140.336 79.1367C138.555 80.8242 136.715 81.6562 134.816 81.6328C133.176 81.6328 131.852 80.9648 130.844 79.6289C129.93 78.3867 129.484 76.9219 129.508 75.2344V63.1758H132.32V75.0938C132.32 77.7656 133.387 79.1016 135.52 79.1016C136.527 79.1016 137.605 78.6797 138.754 77.8359C139.902 76.9922 140.477 76.0781 140.477 75.0938V63.1758H143.289V81ZM155.277 81.4219C152.137 81.4219 149.852 80.2148 148.422 77.8008C147.484 76.207 147.016 74.3672 147.016 72.2812C147.016 69.5156 147.707 67.2773 149.09 65.5664C150.613 63.668 152.711 62.7305 155.383 62.7539C157.492 62.7773 159.367 63.4102 161.008 64.6523L159.496 67.043C157.879 65.8242 156.367 65.2031 154.961 65.1797C153.25 65.1797 151.961 66 151.094 67.6406C150.367 68.9531 150.004 70.5469 150.004 72.4219C150.004 74.1797 150.438 75.668 151.305 76.8867C152.289 78.2461 153.613 78.9375 155.277 78.9609C157.012 78.9609 158.629 78.293 160.129 76.957L161.535 78.8555C159.754 80.5664 157.668 81.4219 155.277 81.4219ZM170.535 81.2812C169.199 81.2812 168.156 80.6719 167.406 79.4531C166.75 78.4219 166.422 77.2031 166.422 75.7969V65.5312H163.609V63.1406H166.422V59.5195H169.27V63.1406H173.91V65.5664L169.27 65.5312V76.2188C169.27 77.8359 169.961 78.6328 171.344 78.6094C172.094 78.6094 173.031 78.0703 174.156 76.9922L175.527 78.9609C174.191 80.5078 172.527 81.2812 170.535 81.2812ZM179.676 59.3438C179.113 59.3438 178.645 59.1562 178.27 58.7812C177.918 58.3828 177.742 57.9023 177.742 57.3398C177.742 56.7773 177.918 56.3203 178.27 55.9688C178.645 55.5938 179.113 55.4062 179.676 55.4062C180.238 55.4062 180.695 55.5938 181.047 55.9688C181.398 56.3438 181.574 56.8008 181.574 57.3398C181.574 57.9023 181.398 58.3828 181.047 58.7812C180.695 59.1562 180.238 59.3438 179.676 59.3438ZM178.023 81V63.1758H180.941V81H178.023ZM193.738 81.3867C190.504 81.3867 188.16 80.1797 186.707 77.7656C185.723 76.1016 185.23 74.1562 185.23 71.9297C185.23 68.8359 186.203 66.4219 188.148 64.6875C189.742 63.2812 191.617 62.5781 193.773 62.5781C195.906 62.5781 197.734 63.2812 199.258 64.6875C201.133 66.4219 202.07 68.8359 202.07 71.9297C202.07 74.0859 201.52 76.043 200.418 77.8008C198.918 80.1914 196.691 81.3867 193.738 81.3867ZM193.949 64.9688C192.051 64.9688 190.598 65.7188 189.59 67.2188C188.746 68.5078 188.324 70.1484 188.324 72.1406C188.324 74.0391 188.723 75.5977 189.52 76.8164C190.457 78.293 191.816 79.043 193.598 79.0664C195.449 79.0664 196.832 78.3047 197.746 76.7812C198.566 75.5156 198.977 73.9102 198.977 71.9648C198.977 70.1133 198.602 68.5547 197.852 67.2891C196.984 65.7422 195.684 64.9688 193.949 64.9688ZM216.836 81V69.293C216.836 68.1211 216.566 67.1484 216.027 66.375C215.418 65.4844 214.562 65.0391 213.461 65.0391C212.477 65.0391 211.457 65.4258 210.402 66.1992C209.207 67.0664 208.598 68.0625 208.574 69.1875V81H205.762V63.1758H208.574V65.1797C209.512 64.2891 210.297 63.6797 210.93 63.3516C211.82 62.8359 212.77 62.5898 213.777 62.6133C215.441 62.6133 216.836 63.2344 217.961 64.4766C219.086 65.6953 219.648 67.1484 219.648 68.8359V81H216.836Z" fill="black"/>
</svg>
