<svg viewBox="0 0 260 100" fill="none" xmlns="http://www.w3.org/2000/svg">
<rect width="260" height="100" fill="#2EA77B"/>
<path d="M77.9688 38.5039C77.9688 43.9648 75.5664 46.707 70.7617 46.7305C69.3555 46.7305 68.1484 46.1328 67.1406 44.9375L68.8281 42.5117C69.625 43.3555 70.4219 43.7773 71.2188 43.7773C73.5625 43.7773 74.7461 42.125 74.7695 38.8203V18.043H77.9688V38.5039ZM90.1328 41.3867C86.8984 41.3867 84.5547 40.1797 83.1016 37.7656C82.1172 36.1016 81.625 34.1562 81.625 31.9297C81.625 28.8359 82.5977 26.4219 84.543 24.6875C86.1367 23.2812 88.0117 22.5781 90.168 22.5781C92.3008 22.5781 94.1289 23.2812 95.6523 24.6875C97.5273 26.4219 98.4648 28.8359 98.4648 31.9297C98.4648 34.0859 97.9141 36.043 96.8125 37.8008C95.3125 40.1914 93.0859 41.3867 90.1328 41.3867ZM90.3438 24.9688C88.4453 24.9688 86.9922 25.7188 85.9844 27.2188C85.1406 28.5078 84.7188 30.1484 84.7188 32.1406C84.7188 34.0391 85.1172 35.5977 85.9141 36.8164C86.8516 38.293 88.2109 39.043 89.9922 39.0664C91.8438 39.0664 93.2266 38.3047 94.1406 36.7812C94.9609 35.5156 95.3711 33.9102 95.3711 31.9648C95.3711 30.1133 94.9961 28.5547 94.2461 27.2891C93.3789 25.7422 92.0781 24.9688 90.3438 24.9688ZM109.68 41.3516C108.133 41.3516 106.574 40.7539 105.004 39.5586L104.512 41H102.191V15.793H105.004V24.8633C106.645 23.3164 108.145 22.5547 109.504 22.5781C111.941 22.5781 113.863 23.5156 115.27 25.3906C116.535 27.0781 117.18 29.1758 117.203 31.6836C117.203 34.4492 116.641 36.6758 115.516 38.3633C114.25 40.3555 112.305 41.3516 109.68 41.3516ZM109.469 25.0391C107.289 25.0391 105.801 25.9062 105.004 27.6406V37.0977C105.426 37.6836 106.094 38.1406 107.008 38.4688C107.828 38.7969 108.613 38.9727 109.363 38.9961C112.41 38.9961 113.934 36.5938 113.934 31.7891C113.934 30.0312 113.641 28.5547 113.055 27.3594C112.258 25.8125 111.062 25.0391 109.469 25.0391ZM126.098 41.4922C123.637 41.4922 121.645 40.8008 120.121 39.418L121.562 37.2031C122.805 38.3984 124.41 39.0078 126.379 39.0312C127.223 39.0312 128.008 38.7148 128.734 38.082C129.461 37.4492 129.824 36.7344 129.824 35.9375C129.824 34.625 128.875 33.7109 126.977 33.1953C125.523 32.8203 124.082 32.3633 122.652 31.8242C121.27 31.0977 120.566 29.8672 120.543 28.1328C120.543 26.3984 121.094 25.0273 122.195 24.0195C123.32 22.9883 124.75 22.4844 126.484 22.5078C128.125 22.5312 129.859 23.082 131.688 24.1602L130.738 26.4102C129.051 25.332 127.598 24.793 126.379 24.793C124.293 24.793 123.25 25.6719 123.25 27.4297C123.25 28.3906 123.73 29.0352 124.691 29.3633C125.348 29.5742 127.082 30.1367 129.895 31.0508C131.816 31.9414 132.777 33.3477 132.777 35.2695C132.777 37.2148 132.156 38.7383 130.914 39.8398C129.672 40.9414 128.066 41.4922 126.098 41.4922ZM156.016 17.5508C154.891 16.8242 153.859 16.4609 152.922 16.4609C151.914 16.4375 151.152 16.9531 150.637 18.0078C150.285 18.8281 150.109 19.8008 150.109 20.9258V23.1758H155.102V25.5312H150.109V41H147.367V25.5312H144.555V23.1758H147.367V20.8203C147.367 18.9219 147.801 17.3633 148.668 16.1445C149.629 14.8086 151.035 14.1406 152.887 14.1406C153.965 14.1406 154.797 14.2578 155.383 14.4922C155.547 14.5625 156.215 14.9727 157.387 15.7227L156.016 17.5508ZM165.473 41.3867C162.238 41.3867 159.895 40.1797 158.441 37.7656C157.457 36.1016 156.965 34.1562 156.965 31.9297C156.965 28.8359 157.938 26.4219 159.883 24.6875C161.477 23.2812 163.352 22.5781 165.508 22.5781C167.641 22.5781 169.469 23.2812 170.992 24.6875C172.867 26.4219 173.805 28.8359 173.805 31.9297C173.805 34.0859 173.254 36.043 172.152 37.8008C170.652 40.1914 168.426 41.3867 165.473 41.3867ZM165.684 24.9688C163.785 24.9688 162.332 25.7188 161.324 27.2188C160.48 28.5078 160.059 30.1484 160.059 32.1406C160.059 34.0391 160.457 35.5977 161.254 36.8164C162.191 38.293 163.551 39.043 165.332 39.0664C167.184 39.0664 168.566 38.3047 169.48 36.7812C170.301 35.5156 170.711 33.9102 170.711 31.9648C170.711 30.1133 170.336 28.5547 169.586 27.2891C168.719 25.7422 167.418 24.9688 165.684 24.9688ZM185.934 26.2344C185.488 25.9297 184.844 25.7891 184 25.8125C183.344 25.8125 182.559 26.2812 181.645 27.2188C180.754 28.1562 180.309 28.9414 180.309 29.5742V41H177.496V23.1758H180.309V26.1289C181.715 23.9023 183.203 22.7891 184.773 22.7891C185.172 22.7891 185.852 22.9766 186.812 23.3516L185.934 26.2344ZM37.8379 81.3867C35.6816 77.4961 31.9668 71.8008 26.6934 64.3008V80.9648L23.7051 81V57.832H26.3418L37.1348 74.1797V57.9727H40.0879V80.6133L37.8379 81.3867ZM52.252 81.3867C49.0176 81.3867 46.6738 80.1797 45.2207 77.7656C44.2363 76.1016 43.7441 74.1562 43.7441 71.9297C43.7441 68.8359 44.7168 66.4219 46.6621 64.6875C48.2559 63.2812 50.1309 62.5781 52.2871 62.5781C54.4199 62.5781 56.248 63.2812 57.7715 64.6875C59.6465 66.4219 60.584 68.8359 60.584 71.9297C60.584 74.0859 60.0332 76.043 58.9316 77.8008C57.4316 80.1914 55.2051 81.3867 52.252 81.3867ZM52.4629 64.9688C50.5645 64.9688 49.1113 65.7188 48.1035 67.2188C47.2598 68.5078 46.8379 70.1484 46.8379 72.1406C46.8379 74.0391 47.2363 75.5977 48.0332 76.8164C48.9707 78.293 50.3301 79.043 52.1113 79.0664C53.9629 79.0664 55.3457 78.3047 56.2598 76.7812C57.0801 75.5156 57.4902 73.9102 57.4902 71.9648C57.4902 70.1133 57.1152 68.5547 56.3652 67.2891C55.498 65.7422 54.1973 64.9688 52.4629 64.9688ZM75.3496 81V69.293C75.3496 68.1211 75.0801 67.1484 74.541 66.375C73.9316 65.4844 73.0762 65.0391 71.9746 65.0391C70.9902 65.0391 69.9707 65.4258 68.916 66.1992C67.7207 67.0664 67.1113 68.0625 67.0879 69.1875V81H64.2754V63.1758H67.0879V65.1797C68.0254 64.2891 68.8105 63.6797 69.4434 63.3516C70.334 62.8359 71.2832 62.5898 72.291 62.6133C73.9551 62.6133 75.3496 63.2344 76.4746 64.4766C77.5996 65.6953 78.1621 67.1484 78.1621 68.8359V81H75.3496ZM82.2051 71.4023V68.0273H92.2949V71.4023H82.2051ZM99.5723 60.5391V67.5H108.643V70.207L99.5723 70.1719V78.2578L109.17 78.2227V81H96.373V57.9727H109.275V60.5391H99.5723ZM125.025 81V69.293C125.025 68.1211 124.756 67.1484 124.217 66.375C123.607 65.4844 122.752 65.0391 121.65 65.0391C120.666 65.0391 119.646 65.4258 118.592 66.1992C117.396 67.0664 116.787 68.0625 116.764 69.1875V81H113.951V63.1758H116.764V65.1797C117.701 64.2891 118.486 63.6797 119.119 63.3516C120.01 62.8359 120.959 62.5898 121.967 62.6133C123.631 62.6133 125.025 63.2344 126.15 64.4766C127.275 65.6953 127.838 67.1484 127.838 68.8359V81H125.025ZM148.369 66.6562L144.537 66.5508C144.912 67.3711 145.1 68.168 145.1 68.9414C145.1 70.7461 144.49 72.2461 143.271 73.4414C141.889 74.7773 140.178 75.4453 138.139 75.4453C136.967 75.4453 136.182 75.3047 135.783 75.0234C134.846 75.6094 134.377 76.2539 134.377 76.957C134.377 77.6133 134.834 78.0352 135.748 78.2227C136.17 78.3164 137.342 78.3633 139.264 78.3633C141.725 78.3633 143.4 78.5391 144.291 78.8906C145.885 79.5 146.682 80.8008 146.682 82.793C146.682 84.8555 145.604 86.4844 143.447 87.6797C141.596 88.7109 139.568 89.2266 137.365 89.2266H137.26C135.736 89.2266 134.436 88.9102 133.357 88.2773C132.068 87.4805 131.424 86.3789 131.424 84.9727C131.424 83.4023 132.256 81.8438 133.92 80.2969C133.381 80.1094 132.865 79.6992 132.373 79.0664C131.881 78.4102 131.635 77.8125 131.635 77.2734C131.635 76.6172 131.928 75.9961 132.514 75.4102C133.475 74.4492 133.967 73.957 133.99 73.9336C132.514 72.668 131.752 71.0039 131.705 68.9414C131.705 67.1367 132.396 65.5781 133.779 64.2656C135.068 63.0703 136.662 62.4844 138.561 62.5078C139.662 62.5312 140.717 62.8008 141.725 63.3164C142.615 63.7852 143.271 64.3477 143.693 65.0039L148.369 64.3008V66.6562ZM142.604 68.8711C142.604 67.7461 142.193 66.75 141.373 65.8828C140.576 65.0859 139.592 64.6875 138.42 64.6875C137.225 64.6875 136.252 65.1328 135.502 66.0234C134.775 66.9141 134.412 67.9336 134.412 69.082C134.412 70.2305 134.775 71.2266 135.502 72.0703C136.229 72.8906 137.154 73.3008 138.279 73.3008C139.592 73.3008 140.67 72.8672 141.514 72C142.24 71.2266 142.604 70.1836 142.604 68.8711ZM143.904 82.8984C143.904 81.3281 142.533 80.5547 139.791 80.5781C138.713 80.5781 137.529 80.6133 136.24 80.6836C135.631 80.707 135.092 81.1406 134.623 81.9844C134.201 82.7344 133.99 83.4258 133.99 84.0586C133.99 85.043 134.471 85.8164 135.432 86.3789C136.229 86.8008 137.143 87.0117 138.174 87.0117C139.533 87.0117 140.787 86.6719 141.936 85.9922C143.248 85.1953 143.904 84.1641 143.904 82.8984ZM152.693 59.3438C152.131 59.3438 151.662 59.1562 151.287 58.7812C150.936 58.3828 150.76 57.9023 150.76 57.3398C150.76 56.7773 150.936 56.3203 151.287 55.9688C151.662 55.5938 152.131 55.4062 152.693 55.4062C153.256 55.4062 153.713 55.5938 154.064 55.9688C154.416 56.3438 154.592 56.8008 154.592 57.3398C154.592 57.9023 154.416 58.3828 154.064 58.7812C153.713 59.1562 153.256 59.3438 152.693 59.3438ZM151.041 81V63.1758H153.959V81H151.041ZM170.201 81V69.293C170.201 68.1211 169.932 67.1484 169.393 66.375C168.783 65.4844 167.928 65.0391 166.826 65.0391C165.842 65.0391 164.822 65.4258 163.768 66.1992C162.572 67.0664 161.963 68.0625 161.939 69.1875V81H159.127V63.1758H161.939V65.1797C162.877 64.2891 163.662 63.6797 164.295 63.3516C165.186 62.8359 166.135 62.5898 167.143 62.6133C168.807 62.6133 170.201 63.2344 171.326 64.4766C172.451 65.6953 173.014 67.1484 173.014 68.8359V81H170.201ZM179.729 71.7539C179.729 75.3164 180.736 77.543 182.752 78.4336C183.549 78.7852 184.381 78.9727 185.248 78.9961C186.654 78.9961 188.225 78.2227 189.959 76.6758L191.4 78.6797C189.479 80.5078 187.334 81.4219 184.967 81.4219C181.709 81.4219 179.389 80.2031 178.006 77.7656C177.115 76.1953 176.67 74.3086 176.67 72.1055C176.67 69.3633 177.385 67.1484 178.814 65.4609C180.338 63.6562 182.447 62.7539 185.143 62.7539C187.111 62.7539 188.682 63.3867 189.854 64.6523C191.025 65.918 191.611 67.5469 191.611 69.5391V71.7539H179.729ZM188.764 69.0469C188.764 66.4219 187.463 65.1094 184.861 65.1094C183.432 65.1094 182.354 65.4727 181.627 66.1992C180.9 66.9023 180.35 67.9922 179.975 69.4688H188.764V69.0469ZM197.377 71.7539C197.377 75.3164 198.385 77.543 200.4 78.4336C201.197 78.7852 202.029 78.9727 202.896 78.9961C204.303 78.9961 205.873 78.2227 207.607 76.6758L209.049 78.6797C207.127 80.5078 204.982 81.4219 202.615 81.4219C199.357 81.4219 197.037 80.2031 195.654 77.7656C194.764 76.1953 194.318 74.3086 194.318 72.1055C194.318 69.3633 195.033 67.1484 196.463 65.4609C197.986 63.6562 200.096 62.7539 202.791 62.7539C204.76 62.7539 206.33 63.3867 207.502 64.6523C208.674 65.918 209.26 67.5469 209.26 69.5391V71.7539H197.377ZM206.412 69.0469C206.412 66.4219 205.111 65.1094 202.51 65.1094C201.08 65.1094 200.002 65.4727 199.275 66.1992C198.549 66.9023 197.998 67.9922 197.623 69.4688H206.412V69.0469ZM221.283 66.2344C220.838 65.9297 220.193 65.7891 219.35 65.8125C218.693 65.8125 217.908 66.2812 216.994 67.2188C216.104 68.1562 215.658 68.9414 215.658 69.5742V81H212.846V63.1758H215.658V66.1289C217.064 63.9023 218.553 62.7891 220.123 62.7891C220.521 62.7891 221.201 62.9766 222.162 63.3516L221.283 66.2344ZM230.564 81.4922C228.104 81.4922 226.111 80.8008 224.588 79.418L226.029 77.2031C227.271 78.3984 228.877 79.0078 230.846 79.0312C231.689 79.0312 232.475 78.7148 233.201 78.082C233.928 77.4492 234.291 76.7344 234.291 75.9375C234.291 74.625 233.342 73.7109 231.443 73.1953C229.99 72.8203 228.549 72.3633 227.119 71.8242C225.736 71.0977 225.033 69.8672 225.01 68.1328C225.01 66.3984 225.561 65.0273 226.662 64.0195C227.787 62.9883 229.217 62.4844 230.951 62.5078C232.592 62.5312 234.326 63.082 236.154 64.1602L235.205 66.4102C233.518 65.332 232.064 64.793 230.846 64.793C228.76 64.793 227.717 65.6719 227.717 67.4297C227.717 68.3906 228.197 69.0352 229.158 69.3633C229.814 69.5742 231.549 70.1367 234.361 71.0508C236.283 71.9414 237.244 73.3477 237.244 75.2695C237.244 77.2148 236.623 78.7383 235.381 79.8398C234.139 80.9414 232.533 81.4922 230.564 81.4922Z" fill="white"/>
</svg>
