<svg viewBox="0 0 260 100" fill="none" xmlns="http://www.w3.org/2000/svg">
<rect width="260" height="100" fill="#2EA77B"/>
<path d="M27.0098 41V17.9375H30.209V38.3984H40.5098V41H27.0098ZM47.2246 31.7539C47.2246 35.3164 48.2324 37.543 50.248 38.4336C51.0449 38.7852 51.877 38.9727 52.7441 38.9961C54.1504 38.9961 55.7207 38.2227 57.4551 36.6758L58.8965 38.6797C56.9746 40.5078 54.8301 41.4219 52.4629 41.4219C49.2051 41.4219 46.8848 40.2031 45.502 37.7656C44.6113 36.1953 44.166 34.3086 44.166 32.1055C44.166 29.3633 44.8809 27.1484 46.3105 25.4609C47.834 23.6562 49.9434 22.7539 52.6387 22.7539C54.6074 22.7539 56.1777 23.3867 57.3496 24.6523C58.5215 25.918 59.1074 27.5469 59.1074 29.5391V31.7539H47.2246ZM56.2598 29.0469C56.2598 26.4219 54.959 25.1094 52.3574 25.1094C50.9277 25.1094 49.8496 25.4727 49.123 26.1992C48.3965 26.9023 47.8457 27.9922 47.4707 29.4688H56.2598V29.0469ZM74.5762 41.3867C73.5918 41.3867 72.8418 40.8125 72.3262 39.6641C71.5996 40.2266 70.9785 40.625 70.4629 40.8594C69.4082 41.3281 68.2012 41.5625 66.8418 41.5625C65.3184 41.5625 64.1113 41.082 63.2207 40.1211C62.3301 39.1602 61.8848 37.9297 61.8848 36.4297C61.8848 34.4844 62.4707 33.0781 63.6426 32.2109C64.416 31.6484 65.8691 31.1211 68.002 30.6289C68.8223 30.4414 70.123 30.2656 71.9043 30.1016V27.8164C71.9043 27.0195 71.5879 26.375 70.9551 25.8828C70.3457 25.3672 69.6426 25.1094 68.8457 25.1094C67.5332 25.1094 65.9277 25.8828 64.0293 27.4297L62.5527 25.4258C63.3027 24.7461 64.2871 24.1133 65.5059 23.5273C66.8418 22.8711 67.9551 22.5547 68.8457 22.5781C70.5098 22.5781 71.9043 23.0938 73.0293 24.125C74.1543 25.1562 74.7168 26.4922 74.7168 28.1328V38.293C74.834 38.7617 75.0801 39.0078 75.4551 39.0312C75.7129 39.0547 76.2168 38.7969 76.9668 38.2578L77.5293 40.1211C76.7324 40.9648 75.748 41.3867 74.5762 41.3867ZM71.9043 32.5977C71.2012 32.5977 70.2871 32.7148 69.1621 32.9492C68.5059 33.0664 67.8145 33.2188 67.0879 33.4062C65.3535 33.8516 64.4863 34.8711 64.4863 36.4648C64.4863 37.332 64.7324 38.0234 65.2246 38.5391C65.7168 39.0547 66.3965 39.3125 67.2637 39.3125C68.2012 39.3125 69.1504 39.0547 70.1113 38.5391C71.2832 37.9297 71.8809 37.168 71.9043 36.2539V32.5977ZM88.7793 26.2344C88.334 25.9297 87.6895 25.7891 86.8457 25.8125C86.1895 25.8125 85.4043 26.2812 84.4902 27.2188C83.5996 28.1562 83.1543 28.9414 83.1543 29.5742V41H80.3418V23.1758H83.1543V26.1289C84.5605 23.9023 86.0488 22.7891 87.6191 22.7891C88.0176 22.7891 88.6973 22.9766 89.6582 23.3516L88.7793 26.2344ZM103.721 41V29.293C103.721 28.1211 103.451 27.1484 102.912 26.375C102.303 25.4844 101.447 25.0391 100.346 25.0391C99.3613 25.0391 98.3418 25.4258 97.2871 26.1992C96.0918 27.0664 95.4824 28.0625 95.459 29.1875V41H92.6465V23.1758H95.459V25.1797C96.3965 24.2891 97.1816 23.6797 97.8145 23.3516C98.7051 22.8359 99.6543 22.5898 100.662 22.6133C102.326 22.6133 103.721 23.2344 104.846 24.4766C105.971 25.6953 106.533 27.1484 106.533 28.8359V41H103.721ZM113.002 19.3438C112.439 19.3438 111.971 19.1562 111.596 18.7812C111.244 18.3828 111.068 17.9023 111.068 17.3398C111.068 16.7773 111.244 16.3203 111.596 15.9688C111.971 15.5938 112.439 15.4062 113.002 15.4062C113.564 15.4062 114.021 15.5938 114.373 15.9688C114.725 16.3438 114.9 16.8008 114.9 17.3398C114.9 17.9023 114.725 18.3828 114.373 18.7812C114.021 19.1562 113.564 19.3438 113.002 19.3438ZM111.35 41V23.1758H114.268V41H111.35ZM130.51 41V29.293C130.51 28.1211 130.24 27.1484 129.701 26.375C129.092 25.4844 128.236 25.0391 127.135 25.0391C126.15 25.0391 125.131 25.4258 124.076 26.1992C122.881 27.0664 122.271 28.0625 122.248 29.1875V41H119.436V23.1758H122.248V25.1797C123.186 24.2891 123.971 23.6797 124.604 23.3516C125.494 22.8359 126.443 22.5898 127.451 22.6133C129.115 22.6133 130.51 23.2344 131.635 24.4766C132.76 25.6953 133.322 27.1484 133.322 28.8359V41H130.51ZM153.854 26.6562L150.021 26.5508C150.396 27.3711 150.584 28.168 150.584 28.9414C150.584 30.7461 149.975 32.2461 148.756 33.4414C147.373 34.7773 145.662 35.4453 143.623 35.4453C142.451 35.4453 141.666 35.3047 141.268 35.0234C140.33 35.6094 139.861 36.2539 139.861 36.957C139.861 37.6133 140.318 38.0352 141.232 38.2227C141.654 38.3164 142.826 38.3633 144.748 38.3633C147.209 38.3633 148.885 38.5391 149.775 38.8906C151.369 39.5 152.166 40.8008 152.166 42.793C152.166 44.8555 151.088 46.4844 148.932 47.6797C147.08 48.7109 145.053 49.2266 142.85 49.2266H142.744C141.221 49.2266 139.92 48.9102 138.842 48.2773C137.553 47.4805 136.908 46.3789 136.908 44.9727C136.908 43.4023 137.74 41.8438 139.404 40.2969C138.865 40.1094 138.35 39.6992 137.857 39.0664C137.365 38.4102 137.119 37.8125 137.119 37.2734C137.119 36.6172 137.412 35.9961 137.998 35.4102C138.959 34.4492 139.451 33.957 139.475 33.9336C137.998 32.668 137.236 31.0039 137.189 28.9414C137.189 27.1367 137.881 25.5781 139.264 24.2656C140.553 23.0703 142.146 22.4844 144.045 22.5078C145.146 22.5312 146.201 22.8008 147.209 23.3164C148.1 23.7852 148.756 24.3477 149.178 25.0039L153.854 24.3008V26.6562ZM148.088 28.8711C148.088 27.7461 147.678 26.75 146.857 25.8828C146.061 25.0859 145.076 24.6875 143.904 24.6875C142.709 24.6875 141.736 25.1328 140.986 26.0234C140.26 26.9141 139.896 27.9336 139.896 29.082C139.896 30.2305 140.26 31.2266 140.986 32.0703C141.713 32.8906 142.639 33.3008 143.764 33.3008C145.076 33.3008 146.154 32.8672 146.998 32C147.725 31.2266 148.088 30.1836 148.088 28.8711ZM149.389 42.8984C149.389 41.3281 148.018 40.5547 145.275 40.5781C144.197 40.5781 143.014 40.6133 141.725 40.6836C141.115 40.707 140.576 41.1406 140.107 41.9844C139.686 42.7344 139.475 43.4258 139.475 44.0586C139.475 45.043 139.955 45.8164 140.916 46.3789C141.713 46.8008 142.627 47.0117 143.658 47.0117C145.018 47.0117 146.271 46.6719 147.42 45.9922C148.732 45.1953 149.389 44.1641 149.389 42.8984ZM175.861 17.5508C174.736 16.8242 173.705 16.4609 172.768 16.4609C171.76 16.4375 170.998 16.9531 170.482 18.0078C170.131 18.8281 169.955 19.8008 169.955 20.9258V23.1758H174.947V25.5312H169.955V41H167.213V25.5312H164.4V23.1758H167.213V20.8203C167.213 18.9219 167.646 17.3633 168.514 16.1445C169.475 14.8086 170.881 14.1406 172.732 14.1406C173.811 14.1406 174.643 14.2578 175.229 14.4922C175.393 14.5625 176.061 14.9727 177.232 15.7227L175.861 17.5508ZM186.127 26.2344C185.682 25.9297 185.037 25.7891 184.193 25.8125C183.537 25.8125 182.752 26.2812 181.838 27.2188C180.947 28.1562 180.502 28.9414 180.502 29.5742V41H177.689V23.1758H180.502V26.1289C181.908 23.9023 183.396 22.7891 184.967 22.7891C185.365 22.7891 186.045 22.9766 187.006 23.3516L186.127 26.2344ZM197.623 41.3867C194.389 41.3867 192.045 40.1797 190.592 37.7656C189.607 36.1016 189.115 34.1562 189.115 31.9297C189.115 28.8359 190.088 26.4219 192.033 24.6875C193.627 23.2812 195.502 22.5781 197.658 22.5781C199.791 22.5781 201.619 23.2812 203.143 24.6875C205.018 26.4219 205.955 28.8359 205.955 31.9297C205.955 34.0859 205.404 36.043 204.303 37.8008C202.803 40.1914 200.576 41.3867 197.623 41.3867ZM197.834 24.9688C195.936 24.9688 194.482 25.7188 193.475 27.2188C192.631 28.5078 192.209 30.1484 192.209 32.1406C192.209 34.0391 192.607 35.5977 193.404 36.8164C194.342 38.293 195.701 39.043 197.482 39.0664C199.334 39.0664 200.717 38.3047 201.631 36.7812C202.451 35.5156 202.861 33.9102 202.861 31.9648C202.861 30.1133 202.486 28.5547 201.736 27.2891C200.869 25.7422 199.568 24.9688 197.834 24.9688ZM230.178 41V28.5547C230.178 26.2344 229.123 25.0625 227.014 25.0391C226.357 25.0391 225.525 25.4258 224.518 26.1992C223.299 27.1367 222.689 28.2031 222.689 29.3984V41H219.877V28.3789C219.877 27.418 219.619 26.6328 219.104 26.0234C218.588 25.3906 217.861 25.0742 216.924 25.0742C215.986 25.0742 215.002 25.5078 213.971 26.375C212.963 27.2422 212.459 28.1445 212.459 29.082V41H209.646V23.1758H212.459V25.707C214.287 23.7383 215.975 22.7539 217.521 22.7539C218.506 22.7539 219.385 23.0703 220.158 23.7031C220.955 24.3125 221.553 25.0859 221.951 26.0234C223.967 23.7266 225.865 22.5781 227.646 22.5781C229.123 22.5781 230.389 23.1641 231.443 24.3359C232.498 25.5078 233.025 26.8555 233.025 28.3789V41H230.178ZM85.2988 60.5391V67.5H94.4395V70.207H85.2988V81H82.0996V57.9727H95.0371V60.5391H85.2988ZM111.596 81.3867C110.611 81.3867 109.861 80.8125 109.346 79.6641C108.619 80.2266 107.998 80.625 107.482 80.8594C106.428 81.3281 105.221 81.5625 103.861 81.5625C102.338 81.5625 101.131 81.082 100.24 80.1211C99.3496 79.1602 98.9043 77.9297 98.9043 76.4297C98.9043 74.4844 99.4902 73.0781 100.662 72.2109C101.436 71.6484 102.889 71.1211 105.021 70.6289C105.842 70.4414 107.143 70.2656 108.924 70.1016V67.8164C108.924 67.0195 108.607 66.375 107.975 65.8828C107.365 65.3672 106.662 65.1094 105.865 65.1094C104.553 65.1094 102.947 65.8828 101.049 67.4297L99.5723 65.4258C100.322 64.7461 101.307 64.1133 102.525 63.5273C103.861 62.8711 104.975 62.5547 105.865 62.5781C107.529 62.5781 108.924 63.0938 110.049 64.125C111.174 65.1562 111.736 66.4922 111.736 68.1328V78.293C111.854 78.7617 112.1 79.0078 112.475 79.0312C112.732 79.0547 113.236 78.7969 113.986 78.2578L114.549 80.1211C113.752 80.9648 112.768 81.3867 111.596 81.3867ZM108.924 72.5977C108.221 72.5977 107.307 72.7148 106.182 72.9492C105.525 73.0664 104.834 73.2188 104.107 73.4062C102.373 73.8516 101.506 74.8711 101.506 76.4648C101.506 77.332 101.752 78.0234 102.244 78.5391C102.736 79.0547 103.416 79.3125 104.283 79.3125C105.221 79.3125 106.17 79.0547 107.131 78.5391C108.303 77.9297 108.9 77.168 108.924 76.2539V72.5977ZM119.295 59.3438C118.732 59.3438 118.264 59.1562 117.889 58.7812C117.537 58.3828 117.361 57.9023 117.361 57.3398C117.361 56.7773 117.537 56.3203 117.889 55.9688C118.264 55.5938 118.732 55.4062 119.295 55.4062C119.857 55.4062 120.314 55.5938 120.666 55.9688C121.018 56.3438 121.193 56.8008 121.193 57.3398C121.193 57.9023 121.018 58.3828 120.666 58.7812C120.314 59.1562 119.857 59.3438 119.295 59.3438ZM117.643 81V63.1758H120.561V81H117.643ZM129.068 81H126.256V55.8633H129.068V81ZM147.912 81H145.346L144.959 79.1367C143.178 80.8242 141.338 81.6562 139.439 81.6328C137.799 81.6328 136.475 80.9648 135.467 79.6289C134.553 78.3867 134.107 76.9219 134.131 75.2344V63.1758H136.943V75.0938C136.943 77.7656 138.01 79.1016 140.143 79.1016C141.15 79.1016 142.229 78.6797 143.377 77.8359C144.525 76.9922 145.1 76.0781 145.1 75.0938V63.1758H147.912V81ZM160.955 66.2344C160.51 65.9297 159.865 65.7891 159.021 65.8125C158.365 65.8125 157.58 66.2812 156.666 67.2188C155.775 68.1562 155.33 68.9414 155.33 69.5742V81H152.518V63.1758H155.33V66.1289C156.736 63.9023 158.225 62.7891 159.795 62.7891C160.193 62.7891 160.873 62.9766 161.834 63.3516L160.955 66.2344ZM167.002 71.7539C167.002 75.3164 168.01 77.543 170.025 78.4336C170.822 78.7852 171.654 78.9727 172.521 78.9961C173.928 78.9961 175.498 78.2227 177.232 76.6758L178.674 78.6797C176.752 80.5078 174.607 81.4219 172.24 81.4219C168.982 81.4219 166.662 80.2031 165.279 77.7656C164.389 76.1953 163.943 74.3086 163.943 72.1055C163.943 69.3633 164.658 67.1484 166.088 65.4609C167.611 63.6562 169.721 62.7539 172.416 62.7539C174.385 62.7539 175.955 63.3867 177.127 64.6523C178.299 65.918 178.885 67.5469 178.885 69.5391V71.7539H167.002ZM176.037 69.0469C176.037 66.4219 174.736 65.1094 172.135 65.1094C170.705 65.1094 169.627 65.4727 168.9 66.1992C168.174 66.9023 167.623 67.9922 167.248 69.4688H176.037V69.0469Z" fill="white"/>
</svg>
