<svg viewBox="0 0 260 100" fill="none" xmlns="http://www.w3.org/2000/svg">
<rect width="260" height="100" fill="#95BF1D"/>
<path d="M37.7148 41V22.6133L30.7188 41.0352H27.7305L20.6641 22.4727V41H17.7109V17.9023H22.2812L29.418 36.4297L36.6953 17.9023H40.9141V41H37.7148ZM48.0508 31.7539C48.0508 35.3164 49.0586 37.543 51.0742 38.4336C51.8711 38.7852 52.7031 38.9727 53.5703 38.9961C54.9766 38.9961 56.5469 38.2227 58.2812 36.6758L59.7227 38.6797C57.8008 40.5078 55.6562 41.4219 53.2891 41.4219C50.0312 41.4219 47.7109 40.2031 46.3281 37.7656C45.4375 36.1953 44.9922 34.3086 44.9922 32.1055C44.9922 29.3633 45.707 27.1484 47.1367 25.4609C48.6602 23.6562 50.7695 22.7539 53.4648 22.7539C55.4336 22.7539 57.0039 23.3867 58.1758 24.6523C59.3477 25.918 59.9336 27.5469 59.9336 29.5391V31.7539H48.0508ZM57.0859 29.0469C57.0859 26.4219 55.7852 25.1094 53.1836 25.1094C51.7539 25.1094 50.6758 25.4727 49.9492 26.1992C49.2227 26.9023 48.6719 27.9922 48.2969 29.4688H57.0859V29.0469ZM65.6992 31.7539C65.6992 35.3164 66.707 37.543 68.7227 38.4336C69.5195 38.7852 70.3516 38.9727 71.2188 38.9961C72.625 38.9961 74.1953 38.2227 75.9297 36.6758L77.3711 38.6797C75.4492 40.5078 73.3047 41.4219 70.9375 41.4219C67.6797 41.4219 65.3594 40.2031 63.9766 37.7656C63.0859 36.1953 62.6406 34.3086 62.6406 32.1055C62.6406 29.3633 63.3555 27.1484 64.7852 25.4609C66.3086 23.6562 68.418 22.7539 71.1133 22.7539C73.082 22.7539 74.6523 23.3867 75.8242 24.6523C76.9961 25.918 77.582 27.5469 77.582 29.5391V31.7539H65.6992ZM74.7344 29.0469C74.7344 26.4219 73.4336 25.1094 70.832 25.1094C69.4023 25.1094 68.3242 25.4727 67.5977 26.1992C66.8711 26.9023 66.3203 27.9922 65.9453 29.4688H74.7344V29.0469ZM86.582 41.2812C85.2461 41.2812 84.2031 40.6719 83.4531 39.4531C82.7969 38.4219 82.4688 37.2031 82.4688 35.7969V25.5312H79.6562V23.1406H82.4688V19.5195H85.3164V23.1406H89.957V25.5664L85.3164 25.5312V36.2188C85.3164 37.8359 86.0078 38.6328 87.3906 38.6094C88.1406 38.6094 89.0781 38.0703 90.2031 36.9922L91.5742 38.9609C90.2383 40.5078 88.5742 41.2812 86.582 41.2812ZM95.7227 19.3438C95.1602 19.3438 94.6914 19.1562 94.3164 18.7812C93.9648 18.3828 93.7891 17.9023 93.7891 17.3398C93.7891 16.7773 93.9648 16.3203 94.3164 15.9688C94.6914 15.5938 95.1602 15.4062 95.7227 15.4062C96.2852 15.4062 96.7422 15.5938 97.0938 15.9688C97.4453 16.3438 97.6211 16.8008 97.6211 17.3398C97.6211 17.9023 97.4453 18.3828 97.0938 18.7812C96.7422 19.1562 96.2852 19.3438 95.7227 19.3438ZM94.0703 41V23.1758H96.9883V41H94.0703ZM113.23 41V29.293C113.23 28.1211 112.961 27.1484 112.422 26.375C111.812 25.4844 110.957 25.0391 109.855 25.0391C108.871 25.0391 107.852 25.4258 106.797 26.1992C105.602 27.0664 104.992 28.0625 104.969 29.1875V41H102.156V23.1758H104.969V25.1797C105.906 24.2891 106.691 23.6797 107.324 23.3516C108.215 22.8359 109.164 22.5898 110.172 22.6133C111.836 22.6133 113.23 23.2344 114.355 24.4766C115.48 25.6953 116.043 27.1484 116.043 28.8359V41H113.23ZM136.574 26.6562L132.742 26.5508C133.117 27.3711 133.305 28.168 133.305 28.9414C133.305 30.7461 132.695 32.2461 131.477 33.4414C130.094 34.7773 128.383 35.4453 126.344 35.4453C125.172 35.4453 124.387 35.3047 123.988 35.0234C123.051 35.6094 122.582 36.2539 122.582 36.957C122.582 37.6133 123.039 38.0352 123.953 38.2227C124.375 38.3164 125.547 38.3633 127.469 38.3633C129.93 38.3633 131.605 38.5391 132.496 38.8906C134.09 39.5 134.887 40.8008 134.887 42.793C134.887 44.8555 133.809 46.4844 131.652 47.6797C129.801 48.7109 127.773 49.2266 125.57 49.2266H125.465C123.941 49.2266 122.641 48.9102 121.562 48.2773C120.273 47.4805 119.629 46.3789 119.629 44.9727C119.629 43.4023 120.461 41.8438 122.125 40.2969C121.586 40.1094 121.07 39.6992 120.578 39.0664C120.086 38.4102 119.84 37.8125 119.84 37.2734C119.84 36.6172 120.133 35.9961 120.719 35.4102C121.68 34.4492 122.172 33.957 122.195 33.9336C120.719 32.668 119.957 31.0039 119.91 28.9414C119.91 27.1367 120.602 25.5781 121.984 24.2656C123.273 23.0703 124.867 22.4844 126.766 22.5078C127.867 22.5312 128.922 22.8008 129.93 23.3164C130.82 23.7852 131.477 24.3477 131.898 25.0039L136.574 24.3008V26.6562ZM130.809 28.8711C130.809 27.7461 130.398 26.75 129.578 25.8828C128.781 25.0859 127.797 24.6875 126.625 24.6875C125.43 24.6875 124.457 25.1328 123.707 26.0234C122.98 26.9141 122.617 27.9336 122.617 29.082C122.617 30.2305 122.98 31.2266 123.707 32.0703C124.434 32.8906 125.359 33.3008 126.484 33.3008C127.797 33.3008 128.875 32.8672 129.719 32C130.445 31.2266 130.809 30.1836 130.809 28.8711ZM132.109 42.8984C132.109 41.3281 130.738 40.5547 127.996 40.5781C126.918 40.5781 125.734 40.6133 124.445 40.6836C123.836 40.707 123.297 41.1406 122.828 41.9844C122.406 42.7344 122.195 43.4258 122.195 44.0586C122.195 45.043 122.676 45.8164 123.637 46.3789C124.434 46.8008 125.348 47.0117 126.379 47.0117C127.738 47.0117 128.992 46.6719 130.141 45.9922C131.453 45.1953 132.109 44.1641 132.109 42.8984ZM155.277 31.5078C154.363 31.5078 153.262 31.4609 151.973 31.3672V41H148.773V17.9727L155.559 17.832C157.504 17.7852 159.039 18.3945 160.164 19.6602C161.289 20.9023 161.852 22.5078 161.852 24.4766C161.852 26.3984 161.23 28.0508 159.988 29.4336C158.746 30.8164 157.176 31.5078 155.277 31.5078ZM155.137 19.9414L151.973 20.0117V29.1172L154.785 29.082C155.98 29.0586 156.93 28.5898 157.633 27.6758C158.336 26.832 158.688 25.8008 158.688 24.582C158.688 21.4414 157.504 19.8945 155.137 19.9414ZM167.477 31.7539C167.477 35.3164 168.484 37.543 170.5 38.4336C171.297 38.7852 172.129 38.9727 172.996 38.9961C174.402 38.9961 175.973 38.2227 177.707 36.6758L179.148 38.6797C177.227 40.5078 175.082 41.4219 172.715 41.4219C169.457 41.4219 167.137 40.2031 165.754 37.7656C164.863 36.1953 164.418 34.3086 164.418 32.1055C164.418 29.3633 165.133 27.1484 166.562 25.4609C168.086 23.6562 170.195 22.7539 172.891 22.7539C174.859 22.7539 176.43 23.3867 177.602 24.6523C178.773 25.918 179.359 27.5469 179.359 29.5391V31.7539H167.477ZM176.512 29.0469C176.512 26.4219 175.211 25.1094 172.609 25.1094C171.18 25.1094 170.102 25.4727 169.375 26.1992C168.648 26.9023 168.098 27.9922 167.723 29.4688H176.512V29.0469ZM190.574 41.3867C187.34 41.3867 184.996 40.1797 183.543 37.7656C182.559 36.1016 182.066 34.1562 182.066 31.9297C182.066 28.8359 183.039 26.4219 184.984 24.6875C186.578 23.2812 188.453 22.5781 190.609 22.5781C192.742 22.5781 194.57 23.2812 196.094 24.6875C197.969 26.4219 198.906 28.8359 198.906 31.9297C198.906 34.0859 198.355 36.043 197.254 37.8008C195.754 40.1914 193.527 41.3867 190.574 41.3867ZM190.785 24.9688C188.887 24.9688 187.434 25.7188 186.426 27.2188C185.582 28.5078 185.16 30.1484 185.16 32.1406C185.16 34.0391 185.559 35.5977 186.355 36.8164C187.293 38.293 188.652 39.043 190.434 39.0664C192.285 39.0664 193.668 38.3047 194.582 36.7812C195.402 35.5156 195.812 33.9102 195.812 31.9648C195.812 30.1133 195.438 28.5547 194.688 27.2891C193.82 25.7422 192.52 24.9688 190.785 24.9688ZM209.594 41.457C208.07 41.457 206.676 40.7773 205.41 39.418V48.1016H202.598V23.1758H205.41V24.8633C207.004 23.3164 208.41 22.5547 209.629 22.5781C214.926 22.5781 217.586 25.5195 217.609 31.4023C217.609 34.2852 217.012 36.6055 215.816 38.3633C214.434 40.4258 212.359 41.457 209.594 41.457ZM209.594 24.9688C208.703 24.9688 207.848 25.25 207.027 25.8125C206.207 26.375 205.668 27.0664 205.41 27.8867V37.3789C206.863 38.5039 208.316 39.0664 209.77 39.0664C211.316 39.0664 212.523 38.2227 213.391 36.5352C214.117 35.1289 214.469 33.582 214.445 31.8945C214.445 27.2773 212.828 24.9688 209.594 24.9688ZM224.535 41H221.723V15.8633H224.535V41ZM231.777 31.7539C231.777 35.3164 232.785 37.543 234.801 38.4336C235.598 38.7852 236.43 38.9727 237.297 38.9961C238.703 38.9961 240.273 38.2227 242.008 36.6758L243.449 38.6797C241.527 40.5078 239.383 41.4219 237.016 41.4219C233.758 41.4219 231.438 40.2031 230.055 37.7656C229.164 36.1953 228.719 34.3086 228.719 32.1055C228.719 29.3633 229.434 27.1484 230.863 25.4609C232.387 23.6562 234.496 22.7539 237.191 22.7539C239.16 22.7539 240.73 23.3867 241.902 24.6523C243.074 25.918 243.66 27.5469 243.66 29.5391V31.7539H231.777ZM240.812 29.0469C240.812 26.4219 239.512 25.1094 236.91 25.1094C235.48 25.1094 234.402 25.4727 233.676 26.1992C232.949 26.9023 232.398 27.9922 232.023 29.4688H240.812V29.0469ZM84.5781 57.5508C83.4531 56.8242 82.4219 56.4609 81.4844 56.4609C80.4766 56.4375 79.7148 56.9531 79.1992 58.0078C78.8477 58.8281 78.6719 59.8008 78.6719 60.9258V63.1758H83.6641V65.5312H78.6719V81H75.9297V65.5312H73.1172V63.1758H75.9297V60.8203C75.9297 58.9219 76.3633 57.3633 77.2305 56.1445C78.1914 54.8086 79.5977 54.1406 81.4492 54.1406C82.5273 54.1406 83.3594 54.2578 83.9453 54.4922C84.1094 54.5625 84.7773 54.9727 85.9492 55.7227L84.5781 57.5508ZM94.0352 81.3867C90.8008 81.3867 88.457 80.1797 87.0039 77.7656C86.0195 76.1016 85.5273 74.1562 85.5273 71.9297C85.5273 68.8359 86.5 66.4219 88.4453 64.6875C90.0391 63.2812 91.9141 62.5781 94.0703 62.5781C96.2031 62.5781 98.0312 63.2812 99.5547 64.6875C101.43 66.4219 102.367 68.8359 102.367 71.9297C102.367 74.0859 101.816 76.043 100.715 77.8008C99.2148 80.1914 96.9883 81.3867 94.0352 81.3867ZM94.2461 64.9688C92.3477 64.9688 90.8945 65.7188 89.8867 67.2188C89.043 68.5078 88.6211 70.1484 88.6211 72.1406C88.6211 74.0391 89.0195 75.5977 89.8164 76.8164C90.7539 78.293 92.1133 79.043 93.8945 79.0664C95.7461 79.0664 97.1289 78.3047 98.043 76.7812C98.8633 75.5156 99.2734 73.9102 99.2734 71.9648C99.2734 70.1133 98.8984 68.5547 98.1484 67.2891C97.2812 65.7422 95.9805 64.9688 94.2461 64.9688ZM114.496 66.2344C114.051 65.9297 113.406 65.7891 112.562 65.8125C111.906 65.8125 111.121 66.2812 110.207 67.2188C109.316 68.1562 108.871 68.9414 108.871 69.5742V81H106.059V63.1758H108.871V66.1289C110.277 63.9023 111.766 62.7891 113.336 62.7891C113.734 62.7891 114.414 62.9766 115.375 63.3516L114.496 66.2344ZM131.371 78.5039C131.371 83.9648 128.969 86.707 124.164 86.7305C122.758 86.7305 121.551 86.1328 120.543 84.9375L122.23 82.5117C123.027 83.3555 123.824 83.7773 124.621 83.7773C126.965 83.7773 128.148 82.125 128.172 78.8203V58.043H131.371V78.5039ZM143.535 81.3867C140.301 81.3867 137.957 80.1797 136.504 77.7656C135.52 76.1016 135.027 74.1562 135.027 71.9297C135.027 68.8359 136 66.4219 137.945 64.6875C139.539 63.2812 141.414 62.5781 143.57 62.5781C145.703 62.5781 147.531 63.2812 149.055 64.6875C150.93 66.4219 151.867 68.8359 151.867 71.9297C151.867 74.0859 151.316 76.043 150.215 77.8008C148.715 80.1914 146.488 81.3867 143.535 81.3867ZM143.746 64.9688C141.848 64.9688 140.395 65.7188 139.387 67.2188C138.543 68.5078 138.121 70.1484 138.121 72.1406C138.121 74.0391 138.52 75.5977 139.316 76.8164C140.254 78.293 141.613 79.043 143.395 79.0664C145.246 79.0664 146.629 78.3047 147.543 76.7812C148.363 75.5156 148.773 73.9102 148.773 71.9648C148.773 70.1133 148.398 68.5547 147.648 67.2891C146.781 65.7422 145.48 64.9688 143.746 64.9688ZM163.082 81.3516C161.535 81.3516 159.977 80.7539 158.406 79.5586L157.914 81H155.594V55.793H158.406V64.8633C160.047 63.3164 161.547 62.5547 162.906 62.5781C165.344 62.5781 167.266 63.5156 168.672 65.3906C169.938 67.0781 170.582 69.1758 170.605 71.6836C170.605 74.4492 170.043 76.6758 168.918 78.3633C167.652 80.3555 165.707 81.3516 163.082 81.3516ZM162.871 65.0391C160.691 65.0391 159.203 65.9062 158.406 67.6406V77.0977C158.828 77.6836 159.496 78.1406 160.41 78.4688C161.23 78.7969 162.016 78.9727 162.766 78.9961C165.812 78.9961 167.336 76.5938 167.336 71.7891C167.336 70.0312 167.043 68.5547 166.457 67.3594C165.66 65.8125 164.465 65.0391 162.871 65.0391ZM179.5 81.4922C177.039 81.4922 175.047 80.8008 173.523 79.418L174.965 77.2031C176.207 78.3984 177.812 79.0078 179.781 79.0312C180.625 79.0312 181.41 78.7148 182.137 78.082C182.863 77.4492 183.227 76.7344 183.227 75.9375C183.227 74.625 182.277 73.7109 180.379 73.1953C178.926 72.8203 177.484 72.3633 176.055 71.8242C174.672 71.0977 173.969 69.8672 173.945 68.1328C173.945 66.3984 174.496 65.0273 175.598 64.0195C176.723 62.9883 178.152 62.4844 179.887 62.5078C181.527 62.5312 183.262 63.082 185.09 64.1602L184.141 66.4102C182.453 65.332 181 64.793 179.781 64.793C177.695 64.793 176.652 65.6719 176.652 67.4297C176.652 68.3906 177.133 69.0352 178.094 69.3633C178.75 69.5742 180.484 70.1367 183.297 71.0508C185.219 71.9414 186.18 73.3477 186.18 75.2695C186.18 77.2148 185.559 78.7383 184.316 79.8398C183.074 80.9414 181.469 81.4922 179.5 81.4922Z" fill="white"/>
</svg>
