<svg viewBox="0 0 260 100" fill="none" xmlns="http://www.w3.org/2000/svg">
<rect width="260" height="100" fill="#1D5EBF"/>
<path d="M28.4082 51.5078C27.4941 51.5078 26.3926 51.4609 25.1035 51.3672V61H21.9043V37.9727L28.6895 37.832C30.6348 37.7852 32.1699 38.3945 33.2949 39.6602C34.4199 40.9023 34.9824 42.5078 34.9824 44.4766C34.9824 46.3984 34.3613 48.0508 33.1191 49.4336C31.877 50.8164 30.3066 51.5078 28.4082 51.5078ZM28.2676 39.9414L25.1035 40.0117V49.1172L27.916 49.082C29.1113 49.0586 30.0605 48.5898 30.7637 47.6758C31.4668 46.832 31.8184 45.8008 31.8184 44.582C31.8184 41.4414 30.6348 39.8945 28.2676 39.9414ZM50.3105 61.3867C49.3262 61.3867 48.5762 60.8125 48.0605 59.6641C47.334 60.2266 46.7129 60.625 46.1973 60.8594C45.1426 61.3281 43.9355 61.5625 42.5762 61.5625C41.0527 61.5625 39.8457 61.082 38.9551 60.1211C38.0645 59.1602 37.6191 57.9297 37.6191 56.4297C37.6191 54.4844 38.2051 53.0781 39.377 52.2109C40.1504 51.6484 41.6035 51.1211 43.7363 50.6289C44.5566 50.4414 45.8574 50.2656 47.6387 50.1016V47.8164C47.6387 47.0195 47.3223 46.375 46.6895 45.8828C46.0801 45.3672 45.377 45.1094 44.5801 45.1094C43.2676 45.1094 41.6621 45.8828 39.7637 47.4297L38.2871 45.4258C39.0371 44.7461 40.0215 44.1133 41.2402 43.5273C42.5762 42.8711 43.6895 42.5547 44.5801 42.5781C46.2441 42.5781 47.6387 43.0938 48.7637 44.125C49.8887 45.1562 50.4512 46.4922 50.4512 48.1328V58.293C50.5684 58.7617 50.8145 59.0078 51.1895 59.0312C51.4473 59.0547 51.9512 58.7969 52.7012 58.2578L53.2637 60.1211C52.4668 60.9648 51.4824 61.3867 50.3105 61.3867ZM47.6387 52.5977C46.9355 52.5977 46.0215 52.7148 44.8965 52.9492C44.2402 53.0664 43.5488 53.2188 42.8223 53.4062C41.0879 53.8516 40.2207 54.8711 40.2207 56.4648C40.2207 57.332 40.4668 58.0234 40.959 58.5391C41.4512 59.0547 42.1309 59.3125 42.998 59.3125C43.9355 59.3125 44.8848 59.0547 45.8457 58.5391C47.0176 57.9297 47.6152 57.168 47.6387 56.2539V52.5977ZM64.5137 46.2344C64.0684 45.9297 63.4238 45.7891 62.5801 45.8125C61.9238 45.8125 61.1387 46.2812 60.2246 47.2188C59.334 48.1562 58.8887 48.9414 58.8887 49.5742V61H56.0762V43.1758H58.8887V46.1289C60.2949 43.9023 61.7832 42.7891 63.3535 42.7891C63.752 42.7891 64.4316 42.9766 65.3926 43.3516L64.5137 46.2344ZM73.7949 61.2812C72.459 61.2812 71.416 60.6719 70.666 59.4531C70.0098 58.4219 69.6816 57.2031 69.6816 55.7969V45.5312H66.8691V43.1406H69.6816V39.5195H72.5293V43.1406H77.1699V45.5664L72.5293 45.5312V56.2188C72.5293 57.8359 73.2207 58.6328 74.6035 58.6094C75.3535 58.6094 76.291 58.0703 77.416 56.9922L78.7871 58.9609C77.4512 60.5078 75.7871 61.2812 73.7949 61.2812ZM80.5098 51.4023V48.0273H90.5996V51.4023H80.5098ZM100.092 61.2812C98.7559 61.2812 97.7129 60.6719 96.9629 59.4531C96.3066 58.4219 95.9785 57.2031 95.9785 55.7969V45.5312H93.166V43.1406H95.9785V39.5195H98.8262V43.1406H103.467V45.5664L98.8262 45.5312V56.2188C98.8262 57.8359 99.5176 58.6328 100.9 58.6094C101.65 58.6094 102.588 58.0703 103.713 56.9922L105.084 58.9609C103.748 60.5078 102.084 61.2812 100.092 61.2812ZM109.232 39.3438C108.67 39.3438 108.201 39.1562 107.826 38.7812C107.475 38.3828 107.299 37.9023 107.299 37.3398C107.299 36.7773 107.475 36.3203 107.826 35.9688C108.201 35.5938 108.67 35.4062 109.232 35.4062C109.795 35.4062 110.252 35.5938 110.604 35.9688C110.955 36.3438 111.131 36.8008 111.131 37.3398C111.131 37.9023 110.955 38.3828 110.604 38.7812C110.252 39.1562 109.795 39.3438 109.232 39.3438ZM107.58 61V43.1758H110.498V61H107.58ZM136.197 61V48.5547C136.197 46.2344 135.143 45.0625 133.033 45.0391C132.377 45.0391 131.545 45.4258 130.537 46.1992C129.318 47.1367 128.709 48.2031 128.709 49.3984V61H125.896V48.3789C125.896 47.418 125.639 46.6328 125.123 46.0234C124.607 45.3906 123.881 45.0742 122.943 45.0742C122.006 45.0742 121.021 45.5078 119.99 46.375C118.982 47.2422 118.479 48.1445 118.479 49.082V61H115.666V43.1758H118.479V45.707C120.307 43.7383 121.994 42.7539 123.541 42.7539C124.525 42.7539 125.404 43.0703 126.178 43.7031C126.975 44.3125 127.572 45.0859 127.971 46.0234C129.986 43.7266 131.885 42.5781 133.666 42.5781C135.143 42.5781 136.408 43.1641 137.463 44.3359C138.518 45.5078 139.045 46.8555 139.045 48.3789V61H136.197ZM145.76 51.7539C145.76 55.3164 146.768 57.543 148.783 58.4336C149.58 58.7852 150.412 58.9727 151.279 58.9961C152.686 58.9961 154.256 58.2227 155.99 56.6758L157.432 58.6797C155.51 60.5078 153.365 61.4219 150.998 61.4219C147.74 61.4219 145.42 60.2031 144.037 57.7656C143.146 56.1953 142.701 54.3086 142.701 52.1055C142.701 49.3633 143.416 47.1484 144.846 45.4609C146.369 43.6562 148.479 42.7539 151.174 42.7539C153.143 42.7539 154.713 43.3867 155.885 44.6523C157.057 45.918 157.643 47.5469 157.643 49.5391V51.7539H145.76ZM154.795 49.0469C154.795 46.4219 153.494 45.1094 150.893 45.1094C149.463 45.1094 148.385 45.4727 147.658 46.1992C146.932 46.9023 146.381 47.9922 146.006 49.4688H154.795V49.0469ZM174.236 58.5039C174.236 63.9648 171.834 66.707 167.029 66.7305C165.623 66.7305 164.416 66.1328 163.408 64.9375L165.096 62.5117C165.893 63.3555 166.689 63.7773 167.486 63.7773C169.83 63.7773 171.014 62.125 171.037 58.8203V38.043H174.236V58.5039ZM186.4 61.3867C183.166 61.3867 180.822 60.1797 179.369 57.7656C178.385 56.1016 177.893 54.1562 177.893 51.9297C177.893 48.8359 178.865 46.4219 180.811 44.6875C182.404 43.2812 184.279 42.5781 186.436 42.5781C188.568 42.5781 190.396 43.2812 191.92 44.6875C193.795 46.4219 194.732 48.8359 194.732 51.9297C194.732 54.0859 194.182 56.043 193.08 57.8008C191.58 60.1914 189.354 61.3867 186.4 61.3867ZM186.611 44.9688C184.713 44.9688 183.26 45.7188 182.252 47.2188C181.408 48.5078 180.986 50.1484 180.986 52.1406C180.986 54.0391 181.385 55.5977 182.182 56.8164C183.119 58.293 184.479 59.043 186.26 59.0664C188.111 59.0664 189.494 58.3047 190.408 56.7812C191.229 55.5156 191.639 53.9102 191.639 51.9648C191.639 50.1133 191.264 48.5547 190.514 47.2891C189.646 45.7422 188.346 44.9688 186.611 44.9688ZM205.947 61.3516C204.4 61.3516 202.842 60.7539 201.271 59.5586L200.779 61H198.459V35.793H201.271V44.8633C202.912 43.3164 204.412 42.5547 205.771 42.5781C208.209 42.5781 210.131 43.5156 211.537 45.3906C212.803 47.0781 213.447 49.1758 213.471 51.6836C213.471 54.4492 212.908 56.6758 211.783 58.3633C210.518 60.3555 208.572 61.3516 205.947 61.3516ZM205.736 45.0391C203.557 45.0391 202.068 45.9062 201.271 47.6406V57.0977C201.693 57.6836 202.361 58.1406 203.275 58.4688C204.096 58.7969 204.881 58.9727 205.631 58.9961C208.678 58.9961 210.201 56.5938 210.201 51.7891C210.201 50.0312 209.908 48.5547 209.322 47.3594C208.525 45.8125 207.33 45.0391 205.736 45.0391ZM222.365 61.4922C219.904 61.4922 217.912 60.8008 216.389 59.418L217.83 57.2031C219.072 58.3984 220.678 59.0078 222.646 59.0312C223.49 59.0312 224.275 58.7148 225.002 58.082C225.729 57.4492 226.092 56.7344 226.092 55.9375C226.092 54.625 225.143 53.7109 223.244 53.1953C221.791 52.8203 220.35 52.3633 218.92 51.8242C217.537 51.0977 216.834 49.8672 216.811 48.1328C216.811 46.3984 217.361 45.0273 218.463 44.0195C219.588 42.9883 221.018 42.4844 222.752 42.5078C224.393 42.5312 226.127 43.082 227.955 44.1602L227.006 46.4102C225.318 45.332 223.865 44.793 222.646 44.793C220.561 44.793 219.518 45.6719 219.518 47.4297C219.518 48.3906 219.998 49.0352 220.959 49.3633C221.615 49.5742 223.35 50.1367 226.162 51.0508C228.084 51.9414 229.045 53.3477 229.045 55.2695C229.045 57.2148 228.424 58.7383 227.182 59.8398C225.939 60.9414 224.334 61.4922 222.365 61.4922Z" fill="white"/>
</svg>
