<svg viewBox="0 0 260 100" fill="none" xmlns="http://www.w3.org/2000/svg">
<rect width="260" height="100" fill="#BF1D92"/>
<path d="M69.1367 41.3516C67.918 40.1328 66.5 38.375 64.8828 36.0781C63.7812 34.5078 62.5859 32.6562 61.2969 30.5234L59.7148 30.5938V41H56.5156V17.9375L63.7578 17.832C67.9531 17.8789 70.0391 20 70.0156 24.1953C69.9922 25.8594 69.4883 27.2188 68.5039 28.2734C67.5195 29.3281 66.1836 30.0195 64.4961 30.3477C65.293 31.4492 66.582 33.1719 68.3633 35.5156C69.3242 36.7578 70.918 38.4688 73.1445 40.6484L69.1367 41.3516ZM62.8438 20.0117L59.7148 20.082V28.168H62.0352C63.7695 28.168 65.0352 27.8516 65.832 27.2188C66.6523 26.5859 67.0625 25.4492 67.0625 23.8086C67.0625 21.207 65.6562 19.9414 62.8438 20.0117ZM77.75 31.7539C77.75 35.3164 78.7578 37.543 80.7734 38.4336C81.5703 38.7852 82.4023 38.9727 83.2695 38.9961C84.6758 38.9961 86.2461 38.2227 87.9805 36.6758L89.4219 38.6797C87.5 40.5078 85.3555 41.4219 82.9883 41.4219C79.7305 41.4219 77.4102 40.2031 76.0273 37.7656C75.1367 36.1953 74.6914 34.3086 74.6914 32.1055C74.6914 29.3633 75.4062 27.1484 76.8359 25.4609C78.3594 23.6562 80.4688 22.7539 83.1641 22.7539C85.1328 22.7539 86.7031 23.3867 87.875 24.6523C89.0469 25.918 89.6328 27.5469 89.6328 29.5391V31.7539H77.75ZM86.7852 29.0469C86.7852 26.4219 85.4844 25.1094 82.8828 25.1094C81.4531 25.1094 80.375 25.4727 79.6484 26.1992C78.9219 26.9023 78.3711 27.9922 77.9961 29.4688H86.7852V29.0469ZM111.113 41.3164H108.934L104.258 27.9922L99.5117 41.3164H97.2266L91.918 23.7734L94.6602 23.0352L98.668 37.2734L103.098 23.2812H105.629L110.234 37.2031L113.996 23.0352L116.633 23.7734L111.113 41.3164ZM128.094 26.2344C127.648 25.9297 127.004 25.7891 126.16 25.8125C125.504 25.8125 124.719 26.2812 123.805 27.2188C122.914 28.1562 122.469 28.9414 122.469 29.5742V41H119.656V23.1758H122.469V26.1289C123.875 23.9023 125.363 22.7891 126.934 22.7891C127.332 22.7891 128.012 22.9766 128.973 23.3516L128.094 26.2344ZM133.895 19.3438C133.332 19.3438 132.863 19.1562 132.488 18.7812C132.137 18.3828 131.961 17.9023 131.961 17.3398C131.961 16.7773 132.137 16.3203 132.488 15.9688C132.863 15.5938 133.332 15.4062 133.895 15.4062C134.457 15.4062 134.914 15.5938 135.266 15.9688C135.617 16.3438 135.793 16.8008 135.793 17.3398C135.793 17.9023 135.617 18.3828 135.266 18.7812C134.914 19.1562 134.457 19.3438 133.895 19.3438ZM132.242 41V23.1758H135.16V41H132.242ZM145.742 41.2812C144.406 41.2812 143.363 40.6719 142.613 39.4531C141.957 38.4219 141.629 37.2031 141.629 35.7969V25.5312H138.816V23.1406H141.629V19.5195H144.477V23.1406H149.117V25.5664L144.477 25.5312V36.2188C144.477 37.8359 145.168 38.6328 146.551 38.6094C147.301 38.6094 148.238 38.0703 149.363 36.9922L150.734 38.9609C149.398 40.5078 147.734 41.2812 145.742 41.2812ZM155.129 31.7539C155.129 35.3164 156.137 37.543 158.152 38.4336C158.949 38.7852 159.781 38.9727 160.648 38.9961C162.055 38.9961 163.625 38.2227 165.359 36.6758L166.801 38.6797C164.879 40.5078 162.734 41.4219 160.367 41.4219C157.109 41.4219 154.789 40.2031 153.406 37.7656C152.516 36.1953 152.07 34.3086 152.07 32.1055C152.07 29.3633 152.785 27.1484 154.215 25.4609C155.738 23.6562 157.848 22.7539 160.543 22.7539C162.512 22.7539 164.082 23.3867 165.254 24.6523C166.426 25.918 167.012 27.5469 167.012 29.5391V31.7539H155.129ZM164.164 29.0469C164.164 26.4219 162.863 25.1094 160.262 25.1094C158.832 25.1094 157.754 25.4727 157.027 26.1992C156.301 26.9023 155.75 27.9922 155.375 29.4688H164.164V29.0469ZM192.289 41.3867C191.305 41.3867 190.555 40.8125 190.039 39.6641C189.312 40.2266 188.691 40.625 188.176 40.8594C187.121 41.3281 185.914 41.5625 184.555 41.5625C183.031 41.5625 181.824 41.082 180.934 40.1211C180.043 39.1602 179.598 37.9297 179.598 36.4297C179.598 34.4844 180.184 33.0781 181.355 32.2109C182.129 31.6484 183.582 31.1211 185.715 30.6289C186.535 30.4414 187.836 30.2656 189.617 30.1016V27.8164C189.617 27.0195 189.301 26.375 188.668 25.8828C188.059 25.3672 187.355 25.1094 186.559 25.1094C185.246 25.1094 183.641 25.8828 181.742 27.4297L180.266 25.4258C181.016 24.7461 182 24.1133 183.219 23.5273C184.555 22.8711 185.668 22.5547 186.559 22.5781C188.223 22.5781 189.617 23.0938 190.742 24.125C191.867 25.1562 192.43 26.4922 192.43 28.1328V38.293C192.547 38.7617 192.793 39.0078 193.168 39.0312C193.426 39.0547 193.93 38.7969 194.68 38.2578L195.242 40.1211C194.445 40.9648 193.461 41.3867 192.289 41.3867ZM189.617 32.5977C188.914 32.5977 188 32.7148 186.875 32.9492C186.219 33.0664 185.527 33.2188 184.801 33.4062C183.066 33.8516 182.199 34.8711 182.199 36.4648C182.199 37.332 182.445 38.0234 182.938 38.5391C183.43 39.0547 184.109 39.3125 184.977 39.3125C185.914 39.3125 186.863 39.0547 187.824 38.5391C188.996 37.9297 189.594 37.168 189.617 36.2539V32.5977ZM81.7227 81.3516C80.5039 80.1328 79.0859 78.375 77.4688 76.0781C76.3672 74.5078 75.1719 72.6562 73.8828 70.5234L72.3008 70.5938V81H69.1016V57.9375L76.3438 57.832C80.5391 57.8789 82.625 60 82.6016 64.1953C82.5781 65.8594 82.0742 67.2188 81.0898 68.2734C80.1055 69.3281 78.7695 70.0195 77.082 70.3477C77.8789 71.4492 79.168 73.1719 80.9492 75.5156C81.9102 76.7578 83.5039 78.4688 85.7305 80.6484L81.7227 81.3516ZM75.4297 60.0117L72.3008 60.082V68.168H74.6211C76.3555 68.168 77.6211 67.8516 78.418 67.2188C79.2383 66.5859 79.6484 65.4492 79.6484 63.8086C79.6484 61.207 78.2422 59.9414 75.4297 60.0117ZM90.3359 71.7539C90.3359 75.3164 91.3438 77.543 93.3594 78.4336C94.1562 78.7852 94.9883 78.9727 95.8555 78.9961C97.2617 78.9961 98.832 78.2227 100.566 76.6758L102.008 78.6797C100.086 80.5078 97.9414 81.4219 95.5742 81.4219C92.3164 81.4219 89.9961 80.2031 88.6133 77.7656C87.7227 76.1953 87.2773 74.3086 87.2773 72.1055C87.2773 69.3633 87.9922 67.1484 89.4219 65.4609C90.9453 63.6562 93.0547 62.7539 95.75 62.7539C97.7188 62.7539 99.2891 63.3867 100.461 64.6523C101.633 65.918 102.219 67.5469 102.219 69.5391V71.7539H90.3359ZM99.3711 69.0469C99.3711 66.4219 98.0703 65.1094 95.4688 65.1094C94.0391 65.1094 92.9609 65.4727 92.2344 66.1992C91.5078 66.9023 90.957 67.9922 90.582 69.4688H99.3711V69.0469ZM111.219 81.4922C108.758 81.4922 106.766 80.8008 105.242 79.418L106.684 77.2031C107.926 78.3984 109.531 79.0078 111.5 79.0312C112.344 79.0312 113.129 78.7148 113.855 78.082C114.582 77.4492 114.945 76.7344 114.945 75.9375C114.945 74.625 113.996 73.7109 112.098 73.1953C110.645 72.8203 109.203 72.3633 107.773 71.8242C106.391 71.0977 105.688 69.8672 105.664 68.1328C105.664 66.3984 106.215 65.0273 107.316 64.0195C108.441 62.9883 109.871 62.4844 111.605 62.5078C113.246 62.5312 114.98 63.082 116.809 64.1602L115.859 66.4102C114.172 65.332 112.719 64.793 111.5 64.793C109.414 64.793 108.371 65.6719 108.371 67.4297C108.371 68.3906 108.852 69.0352 109.812 69.3633C110.469 69.5742 112.203 70.1367 115.016 71.0508C116.938 71.9414 117.898 73.3477 117.898 75.2695C117.898 77.2148 117.277 78.7383 116.035 79.8398C114.793 80.9414 113.188 81.4922 111.219 81.4922ZM135.301 81H132.734L132.348 79.1367C130.566 80.8242 128.727 81.6562 126.828 81.6328C125.188 81.6328 123.863 80.9648 122.855 79.6289C121.941 78.3867 121.496 76.9219 121.52 75.2344V63.1758H124.332V75.0938C124.332 77.7656 125.398 79.1016 127.531 79.1016C128.539 79.1016 129.617 78.6797 130.766 77.8359C131.914 76.9922 132.488 76.0781 132.488 75.0938V63.1758H135.301V81ZM160.438 81V68.5547C160.438 66.2344 159.383 65.0625 157.273 65.0391C156.617 65.0391 155.785 65.4258 154.777 66.1992C153.559 67.1367 152.949 68.2031 152.949 69.3984V81H150.137V68.3789C150.137 67.418 149.879 66.6328 149.363 66.0234C148.848 65.3906 148.121 65.0742 147.184 65.0742C146.246 65.0742 145.262 65.5078 144.23 66.375C143.223 67.2422 142.719 68.1445 142.719 69.082V81H139.906V63.1758H142.719V65.707C144.547 63.7383 146.234 62.7539 147.781 62.7539C148.766 62.7539 149.645 63.0703 150.418 63.7031C151.215 64.3125 151.812 65.0859 152.211 66.0234C154.227 63.7266 156.125 62.5781 157.906 62.5781C159.383 62.5781 160.648 63.1641 161.703 64.3359C162.758 65.5078 163.285 66.8555 163.285 68.3789V81H160.438ZM170 71.7539C170 75.3164 171.008 77.543 173.023 78.4336C173.82 78.7852 174.652 78.9727 175.52 78.9961C176.926 78.9961 178.496 78.2227 180.23 76.6758L181.672 78.6797C179.75 80.5078 177.605 81.4219 175.238 81.4219C171.98 81.4219 169.66 80.2031 168.277 77.7656C167.387 76.1953 166.941 74.3086 166.941 72.1055C166.941 69.3633 167.656 67.1484 169.086 65.4609C170.609 63.6562 172.719 62.7539 175.414 62.7539C177.383 62.7539 178.953 63.3867 180.125 64.6523C181.297 65.918 181.883 67.5469 181.883 69.5391V71.7539H170ZM179.035 69.0469C179.035 66.4219 177.734 65.1094 175.133 65.1094C173.703 65.1094 172.625 65.4727 171.898 66.1992C171.172 66.9023 170.621 67.9922 170.246 69.4688H179.035V69.0469Z" fill="white"/>
</svg>
