<svg viewBox="0 0 260 100" fill="none" xmlns="http://www.w3.org/2000/svg">
<rect width="260" height="100" fill="#442B0E"/>
<path d="M26.0078 61.3516C24.6484 61.3516 23.3359 61.1172 22.0703 60.6484C20.6641 60.1094 19.5977 59.3477 18.8711 58.3633L20.5234 56.0781C21.9766 57.7891 23.8398 58.6328 26.1133 58.6094C27.4492 58.6094 28.5156 58.2461 29.3125 57.5195C30.1094 56.793 30.5078 55.7617 30.5078 54.4258C30.5078 52.8086 29.5586 51.6016 27.6602 50.8047C26.4883 50.3359 24.7188 49.6094 22.3516 48.625C20.4766 47.4531 19.5508 45.6367 19.5742 43.1758C19.5977 41.3477 20.3242 39.8477 21.7539 38.6758C23.0664 37.5742 24.6602 37.0234 26.5352 37.0234C28.7383 37.0234 30.7656 37.75 32.6172 39.2031L31.1055 41.4883C29.8398 40.3398 28.3164 39.7656 26.5352 39.7656C24.0977 39.7656 22.8789 40.9727 22.8789 43.3867C22.8789 44.9102 24.1211 46.0938 26.6055 46.9375C29.2305 47.8281 30.9531 48.6133 31.7734 49.293C32.9922 50.3477 33.6016 52.0352 33.6016 54.3555C33.6016 56.582 32.8984 58.3047 31.4922 59.5234C30.0859 60.7422 28.2578 61.3516 26.0078 61.3516ZM42.7773 61.2812C41.4414 61.2812 40.3984 60.6719 39.6484 59.4531C38.9922 58.4219 38.6641 57.2031 38.6641 55.7969V45.5312H35.8516V43.1406H38.6641V39.5195H41.5117V43.1406H46.1523V45.5664L41.5117 45.5312V56.2188C41.5117 57.8359 42.2031 58.6328 43.5859 58.6094C44.3359 58.6094 45.2734 58.0703 46.3984 56.9922L47.7695 58.9609C46.4336 60.5078 44.7695 61.2812 42.7773 61.2812ZM63.7656 61H61.1992L60.8125 59.1367C59.0312 60.8242 57.1914 61.6562 55.293 61.6328C53.6523 61.6328 52.3281 60.9648 51.3203 59.6289C50.4062 58.3867 49.9609 56.9219 49.9844 55.2344V43.1758H52.7969V55.0938C52.7969 57.7656 53.8633 59.1016 55.9961 59.1016C57.0039 59.1016 58.082 58.6797 59.2305 57.8359C60.3789 56.9922 60.9531 56.0781 60.9531 55.0938V43.1758H63.7656V61ZM82.2227 61H79.832L79.4102 59.4883C77.4648 60.8008 75.8008 61.457 74.418 61.457C72.1914 61.457 70.4219 60.4375 69.1094 58.3984C67.9844 56.6406 67.4219 54.5898 67.4219 52.2461C67.4219 49.5508 68.0195 47.3359 69.2148 45.6016C70.5977 43.5859 72.5781 42.5781 75.1562 42.5781C76.8438 42.5781 78.2617 43.2695 79.4102 44.6523V35.8984H82.2227V61ZM79.4102 47.3242C78.7305 46.4102 78.1094 45.8008 77.5469 45.4961C76.9844 45.1914 76.1406 45.0391 75.0156 45.0391C73.3984 45.0391 72.2266 45.8242 71.5 47.3945C70.9141 48.5664 70.6211 50.0547 70.6211 51.8594C70.6211 53.6641 70.9609 55.1875 71.6406 56.4297C72.4609 58.0234 73.6914 58.8203 75.332 58.8203C76.7852 58.8203 78.1445 58.2695 79.4102 57.168V47.3242ZM93.4375 64.0234C93.0391 65.1484 92.2891 66.0977 91.1875 66.8711C90.0859 67.668 88.9375 68.0664 87.7422 68.0664C87.3906 68.0664 86.5703 67.8438 85.2812 67.3984L86.1602 64.8672C86.8398 65.1719 87.4375 65.3359 87.9531 65.3594C89.0547 65.3828 90.0625 64.5742 90.9766 62.9336C91.4453 61.7852 91.9375 60.6367 92.4531 59.4883L85.5625 43.8086L88.3398 43.0352L93.7539 55.7969L98.3945 43.0703L100.961 43.668L93.4375 64.0234ZM117.027 58.5039C117.027 63.9648 114.625 66.707 109.82 66.7305C108.414 66.7305 107.207 66.1328 106.199 64.9375L107.887 62.5117C108.684 63.3555 109.48 63.7773 110.277 63.7773C112.621 63.7773 113.805 62.125 113.828 58.8203V38.043H117.027V58.5039ZM133.445 61.3867C132.461 61.3867 131.711 60.8125 131.195 59.6641C130.469 60.2266 129.848 60.625 129.332 60.8594C128.277 61.3281 127.07 61.5625 125.711 61.5625C124.188 61.5625 122.98 61.082 122.09 60.1211C121.199 59.1602 120.754 57.9297 120.754 56.4297C120.754 54.4844 121.34 53.0781 122.512 52.2109C123.285 51.6484 124.738 51.1211 126.871 50.6289C127.691 50.4414 128.992 50.2656 130.773 50.1016V47.8164C130.773 47.0195 130.457 46.375 129.824 45.8828C129.215 45.3672 128.512 45.1094 127.715 45.1094C126.402 45.1094 124.797 45.8828 122.898 47.4297L121.422 45.4258C122.172 44.7461 123.156 44.1133 124.375 43.5273C125.711 42.8711 126.824 42.5547 127.715 42.5781C129.379 42.5781 130.773 43.0938 131.898 44.125C133.023 45.1562 133.586 46.4922 133.586 48.1328V58.293C133.703 58.7617 133.949 59.0078 134.324 59.0312C134.582 59.0547 135.086 58.7969 135.836 58.2578L136.398 60.1211C135.602 60.9648 134.617 61.3867 133.445 61.3867ZM130.773 52.5977C130.07 52.5977 129.156 52.7148 128.031 52.9492C127.375 53.0664 126.684 53.2188 125.957 53.4062C124.223 53.8516 123.355 54.8711 123.355 56.4648C123.355 57.332 123.602 58.0234 124.094 58.5391C124.586 59.0547 125.266 59.3125 126.133 59.3125C127.07 59.3125 128.02 59.0547 128.98 58.5391C130.152 57.9297 130.75 57.168 130.773 56.2539V52.5977ZM146.207 61.457C144.684 61.457 143.289 60.7773 142.023 59.418V68.1016H139.211V43.1758H142.023V44.8633C143.617 43.3164 145.023 42.5547 146.242 42.5781C151.539 42.5781 154.199 45.5195 154.223 51.4023C154.223 54.2852 153.625 56.6055 152.43 58.3633C151.047 60.4258 148.973 61.457 146.207 61.457ZM146.207 44.9688C145.316 44.9688 144.461 45.25 143.641 45.8125C142.82 46.375 142.281 47.0664 142.023 47.8867V57.3789C143.477 58.5039 144.93 59.0664 146.383 59.0664C147.93 59.0664 149.137 58.2227 150.004 56.5352C150.73 55.1289 151.082 53.582 151.059 51.8945C151.059 47.2773 149.441 44.9688 146.207 44.9688ZM169.691 61.3867C168.707 61.3867 167.957 60.8125 167.441 59.6641C166.715 60.2266 166.094 60.625 165.578 60.8594C164.523 61.3281 163.316 61.5625 161.957 61.5625C160.434 61.5625 159.227 61.082 158.336 60.1211C157.445 59.1602 157 57.9297 157 56.4297C157 54.4844 157.586 53.0781 158.758 52.2109C159.531 51.6484 160.984 51.1211 163.117 50.6289C163.938 50.4414 165.238 50.2656 167.02 50.1016V47.8164C167.02 47.0195 166.703 46.375 166.07 45.8828C165.461 45.3672 164.758 45.1094 163.961 45.1094C162.648 45.1094 161.043 45.8828 159.145 47.4297L157.668 45.4258C158.418 44.7461 159.402 44.1133 160.621 43.5273C161.957 42.8711 163.07 42.5547 163.961 42.5781C165.625 42.5781 167.02 43.0938 168.145 44.125C169.27 45.1562 169.832 46.4922 169.832 48.1328V58.293C169.949 58.7617 170.195 59.0078 170.57 59.0312C170.828 59.0547 171.332 58.7969 172.082 58.2578L172.645 60.1211C171.848 60.9648 170.863 61.3867 169.691 61.3867ZM167.02 52.5977C166.316 52.5977 165.402 52.7148 164.277 52.9492C163.621 53.0664 162.93 53.2188 162.203 53.4062C160.469 53.8516 159.602 54.8711 159.602 56.4648C159.602 57.332 159.848 58.0234 160.34 58.5391C160.832 59.0547 161.512 59.3125 162.379 59.3125C163.316 59.3125 164.266 59.0547 165.227 58.5391C166.398 57.9297 166.996 57.168 167.02 56.2539V52.5977ZM186.531 61V49.293C186.531 48.1211 186.262 47.1484 185.723 46.375C185.113 45.4844 184.258 45.0391 183.156 45.0391C182.172 45.0391 181.152 45.4258 180.098 46.1992C178.902 47.0664 178.293 48.0625 178.27 49.1875V61H175.457V43.1758H178.27V45.1797C179.207 44.2891 179.992 43.6797 180.625 43.3516C181.516 42.8359 182.465 42.5898 183.473 42.6133C185.137 42.6133 186.531 43.2344 187.656 44.4766C188.781 45.6953 189.344 47.1484 189.344 48.8359V61H186.531ZM196.059 51.7539C196.059 55.3164 197.066 57.543 199.082 58.4336C199.879 58.7852 200.711 58.9727 201.578 58.9961C202.984 58.9961 204.555 58.2227 206.289 56.6758L207.73 58.6797C205.809 60.5078 203.664 61.4219 201.297 61.4219C198.039 61.4219 195.719 60.2031 194.336 57.7656C193.445 56.1953 193 54.3086 193 52.1055C193 49.3633 193.715 47.1484 195.145 45.4609C196.668 43.6562 198.777 42.7539 201.473 42.7539C203.441 42.7539 205.012 43.3867 206.184 44.6523C207.355 45.918 207.941 47.5469 207.941 49.5391V51.7539H196.059ZM205.094 49.0469C205.094 46.4219 203.793 45.1094 201.191 45.1094C199.762 45.1094 198.684 45.4727 197.957 46.1992C197.23 46.9023 196.68 47.9922 196.305 49.4688H205.094V49.0469ZM216.941 61.4922C214.48 61.4922 212.488 60.8008 210.965 59.418L212.406 57.2031C213.648 58.3984 215.254 59.0078 217.223 59.0312C218.066 59.0312 218.852 58.7148 219.578 58.082C220.305 57.4492 220.668 56.7344 220.668 55.9375C220.668 54.625 219.719 53.7109 217.82 53.1953C216.367 52.8203 214.926 52.3633 213.496 51.8242C212.113 51.0977 211.41 49.8672 211.387 48.1328C211.387 46.3984 211.938 45.0273 213.039 44.0195C214.164 42.9883 215.594 42.4844 217.328 42.5078C218.969 42.5312 220.703 43.082 222.531 44.1602L221.582 46.4102C219.895 45.332 218.441 44.793 217.223 44.793C215.137 44.793 214.094 45.6719 214.094 47.4297C214.094 48.3906 214.574 49.0352 215.535 49.3633C216.191 49.5742 217.926 50.1367 220.738 51.0508C222.66 51.9414 223.621 53.3477 223.621 55.2695C223.621 57.2148 223 58.7383 221.758 59.8398C220.516 60.9414 218.91 61.4922 216.941 61.4922ZM229.422 51.7539C229.422 55.3164 230.43 57.543 232.445 58.4336C233.242 58.7852 234.074 58.9727 234.941 58.9961C236.348 58.9961 237.918 58.2227 239.652 56.6758L241.094 58.6797C239.172 60.5078 237.027 61.4219 234.66 61.4219C231.402 61.4219 229.082 60.2031 227.699 57.7656C226.809 56.1953 226.363 54.3086 226.363 52.1055C226.363 49.3633 227.078 47.1484 228.508 45.4609C230.031 43.6562 232.141 42.7539 234.836 42.7539C236.805 42.7539 238.375 43.3867 239.547 44.6523C240.719 45.918 241.305 47.5469 241.305 49.5391V51.7539H229.422ZM238.457 49.0469C238.457 46.4219 237.156 45.1094 234.555 45.1094C233.125 45.1094 232.047 45.4727 231.32 46.1992C230.594 46.9023 230.043 47.9922 229.668 49.4688H238.457V49.0469Z" fill="white"/>
</svg>
