<svg viewBox="0 0 260 100" fill="none" xmlns="http://www.w3.org/2000/svg">
<rect width="260" height="100" fill="#1D5EBF"/>
<path d="M46.9004 41.3516C45.541 41.3516 44.2285 41.1172 42.9629 40.6484C41.5566 40.1094 40.4902 39.3477 39.7637 38.3633L41.416 36.0781C42.8691 37.7891 44.7324 38.6328 47.0059 38.6094C48.3418 38.6094 49.4082 38.2461 50.2051 37.5195C51.002 36.793 51.4004 35.7617 51.4004 34.4258C51.4004 32.8086 50.4512 31.6016 48.5527 30.8047C47.3809 30.3359 45.6113 29.6094 43.2441 28.625C41.3691 27.4531 40.4434 25.6367 40.4668 23.1758C40.4902 21.3477 41.2168 19.8477 42.6465 18.6758C43.959 17.5742 45.5527 17.0234 47.4277 17.0234C49.6309 17.0234 51.6582 17.75 53.5098 19.2031L51.998 21.4883C50.7324 20.3398 49.209 19.7656 47.4277 19.7656C44.9902 19.7656 43.7715 20.9727 43.7715 23.3867C43.7715 24.9102 45.0137 26.0938 47.498 26.9375C50.123 27.8281 51.8457 28.6133 52.666 29.293C53.8848 30.3477 54.4941 32.0352 54.4941 34.3555C54.4941 36.582 53.791 38.3047 52.3848 39.5234C50.9785 40.7422 49.1504 41.3516 46.9004 41.3516ZM63.6699 41.2812C62.334 41.2812 61.291 40.6719 60.541 39.4531C59.8848 38.4219 59.5566 37.2031 59.5566 35.7969V25.5312H56.7441V23.1406H59.5566V19.5195H62.4043V23.1406H67.0449V25.5664L62.4043 25.5312V36.2188C62.4043 37.8359 63.0957 38.6328 64.4785 38.6094C65.2285 38.6094 66.166 38.0703 67.291 36.9922L68.6621 38.9609C67.3262 40.5078 65.6621 41.2812 63.6699 41.2812ZM84.6582 41H82.0918L81.7051 39.1367C79.9238 40.8242 78.084 41.6562 76.1855 41.6328C74.5449 41.6328 73.2207 40.9648 72.2129 39.6289C71.2988 38.3867 70.8535 36.9219 70.877 35.2344V23.1758H73.6895V35.0938C73.6895 37.7656 74.7559 39.1016 76.8887 39.1016C77.8965 39.1016 78.9746 38.6797 80.123 37.8359C81.2715 36.9922 81.8457 36.0781 81.8457 35.0938V23.1758H84.6582V41ZM103.115 41H100.725L100.303 39.4883C98.3574 40.8008 96.6934 41.457 95.3105 41.457C93.084 41.457 91.3145 40.4375 90.002 38.3984C88.877 36.6406 88.3145 34.5898 88.3145 32.2461C88.3145 29.5508 88.9121 27.3359 90.1074 25.6016C91.4902 23.5859 93.4707 22.5781 96.0488 22.5781C97.7363 22.5781 99.1543 23.2695 100.303 24.6523V15.8984H103.115V41ZM100.303 27.3242C99.623 26.4102 99.002 25.8008 98.4395 25.4961C97.877 25.1914 97.0332 25.0391 95.9082 25.0391C94.291 25.0391 93.1191 25.8242 92.3926 27.3945C91.8066 28.5664 91.5137 30.0547 91.5137 31.8594C91.5137 33.6641 91.8535 35.1875 92.5332 36.4297C93.3535 38.0234 94.584 38.8203 96.2246 38.8203C97.6777 38.8203 99.0371 38.2695 100.303 37.168V27.3242ZM114.33 44.0234C113.932 45.1484 113.182 46.0977 112.08 46.8711C110.979 47.668 109.83 48.0664 108.635 48.0664C108.283 48.0664 107.463 47.8438 106.174 47.3984L107.053 44.8672C107.732 45.1719 108.33 45.3359 108.846 45.3594C109.947 45.3828 110.955 44.5742 111.869 42.9336C112.338 41.7852 112.83 40.6367 113.346 39.4883L106.455 23.8086L109.232 23.0352L114.646 35.7969L119.287 23.0703L121.854 23.668L114.33 44.0234ZM152.615 41.3164H150.436L145.76 27.9922L141.014 41.3164H138.729L133.42 23.7734L136.162 23.0352L140.17 37.2734L144.6 23.2812H147.131L151.736 37.2031L155.498 23.0352L158.135 23.7734L152.615 41.3164ZM172.232 41V29.293C172.232 28.1211 171.963 27.1484 171.424 26.375C170.814 25.4844 169.959 25.0391 168.857 25.0391C167.92 25.0391 166.9 25.4258 165.799 26.1992C164.604 27.0195 163.994 27.875 163.971 28.7656V41H161.158V15.9336H163.971V25.1797C165.822 23.4453 167.545 22.5898 169.139 22.6133C170.826 22.6133 172.232 23.2344 173.357 24.4766C174.482 25.6953 175.045 27.1484 175.045 28.8359V41H172.232ZM181.514 19.3438C180.951 19.3438 180.482 19.1562 180.107 18.7812C179.756 18.3828 179.58 17.9023 179.58 17.3398C179.58 16.7773 179.756 16.3203 180.107 15.9688C180.482 15.5938 180.951 15.4062 181.514 15.4062C182.076 15.4062 182.533 15.5938 182.885 15.9688C183.236 16.3438 183.412 16.8008 183.412 17.3398C183.412 17.9023 183.236 18.3828 182.885 18.7812C182.533 19.1562 182.076 19.3438 181.514 19.3438ZM179.861 41V23.1758H182.779V41H179.861ZM191.287 41H188.475V15.8633H191.287V41ZM198.529 31.7539C198.529 35.3164 199.537 37.543 201.553 38.4336C202.35 38.7852 203.182 38.9727 204.049 38.9961C205.455 38.9961 207.025 38.2227 208.76 36.6758L210.201 38.6797C208.279 40.5078 206.135 41.4219 203.768 41.4219C200.51 41.4219 198.189 40.2031 196.807 37.7656C195.916 36.1953 195.471 34.3086 195.471 32.1055C195.471 29.3633 196.186 27.1484 197.615 25.4609C199.139 23.6562 201.248 22.7539 203.943 22.7539C205.912 22.7539 207.482 23.3867 208.654 24.6523C209.826 25.918 210.412 27.5469 210.412 29.5391V31.7539H198.529ZM207.564 29.0469C207.564 26.4219 206.264 25.1094 203.662 25.1094C202.232 25.1094 201.154 25.4727 200.428 26.1992C199.701 26.9023 199.15 27.9922 198.775 29.4688H207.564V29.0469ZM84.957 81.2109H83.0938L77.9961 64.4766L72.8633 81.2109H70.6133L64.25 58.4648L67.3789 57.7969L72.1602 75.7266L77.0117 58.1484H79.2969L84.043 75.6914L88.9297 57.7969L91.3555 58.4648L84.957 81.2109ZM101.973 81.3867C98.7383 81.3867 96.3945 80.1797 94.9414 77.7656C93.957 76.1016 93.4648 74.1562 93.4648 71.9297C93.4648 68.8359 94.4375 66.4219 96.3828 64.6875C97.9766 63.2812 99.8516 62.5781 102.008 62.5781C104.141 62.5781 105.969 63.2812 107.492 64.6875C109.367 66.4219 110.305 68.8359 110.305 71.9297C110.305 74.0859 109.754 76.043 108.652 77.8008C107.152 80.1914 104.926 81.3867 101.973 81.3867ZM102.184 64.9688C100.285 64.9688 98.832 65.7188 97.8242 67.2188C96.9805 68.5078 96.5586 70.1484 96.5586 72.1406C96.5586 74.0391 96.957 75.5977 97.7539 76.8164C98.6914 78.293 100.051 79.043 101.832 79.0664C103.684 79.0664 105.066 78.3047 105.98 76.7812C106.801 75.5156 107.211 73.9102 107.211 71.9648C107.211 70.1133 106.836 68.5547 106.086 67.2891C105.219 65.7422 103.918 64.9688 102.184 64.9688ZM122.434 66.2344C121.988 65.9297 121.344 65.7891 120.5 65.8125C119.844 65.8125 119.059 66.2812 118.145 67.2188C117.254 68.1562 116.809 68.9414 116.809 69.5742V81H113.996V63.1758H116.809V66.1289C118.215 63.9023 119.703 62.7891 121.273 62.7891C121.672 62.7891 122.352 62.9766 123.312 63.3516L122.434 66.2344ZM138.219 81.9141L130.344 72.8789L129.113 74.0742V81H126.301V55.8984H129.113V71.0508L136.988 62.2266L139.414 63.9141L132.312 71.1914L140.75 80.3672L138.219 81.9141ZM145.355 59.3438C144.793 59.3438 144.324 59.1562 143.949 58.7812C143.598 58.3828 143.422 57.9023 143.422 57.3398C143.422 56.7773 143.598 56.3203 143.949 55.9688C144.324 55.5938 144.793 55.4062 145.355 55.4062C145.918 55.4062 146.375 55.5938 146.727 55.9688C147.078 56.3438 147.254 56.8008 147.254 57.3398C147.254 57.9023 147.078 58.3828 146.727 58.7812C146.375 59.1562 145.918 59.3438 145.355 59.3438ZM143.703 81V63.1758H146.621V81H143.703ZM162.863 81V69.293C162.863 68.1211 162.594 67.1484 162.055 66.375C161.445 65.4844 160.59 65.0391 159.488 65.0391C158.504 65.0391 157.484 65.4258 156.43 66.1992C155.234 67.0664 154.625 68.0625 154.602 69.1875V81H151.789V63.1758H154.602V65.1797C155.539 64.2891 156.324 63.6797 156.957 63.3516C157.848 62.8359 158.797 62.5898 159.805 62.6133C161.469 62.6133 162.863 63.2344 163.988 64.4766C165.113 65.6953 165.676 67.1484 165.676 68.8359V81H162.863ZM186.207 66.6562L182.375 66.5508C182.75 67.3711 182.938 68.168 182.938 68.9414C182.938 70.7461 182.328 72.2461 181.109 73.4414C179.727 74.7773 178.016 75.4453 175.977 75.4453C174.805 75.4453 174.02 75.3047 173.621 75.0234C172.684 75.6094 172.215 76.2539 172.215 76.957C172.215 77.6133 172.672 78.0352 173.586 78.2227C174.008 78.3164 175.18 78.3633 177.102 78.3633C179.562 78.3633 181.238 78.5391 182.129 78.8906C183.723 79.5 184.52 80.8008 184.52 82.793C184.52 84.8555 183.441 86.4844 181.285 87.6797C179.434 88.7109 177.406 89.2266 175.203 89.2266H175.098C173.574 89.2266 172.273 88.9102 171.195 88.2773C169.906 87.4805 169.262 86.3789 169.262 84.9727C169.262 83.4023 170.094 81.8438 171.758 80.2969C171.219 80.1094 170.703 79.6992 170.211 79.0664C169.719 78.4102 169.473 77.8125 169.473 77.2734C169.473 76.6172 169.766 75.9961 170.352 75.4102C171.312 74.4492 171.805 73.957 171.828 73.9336C170.352 72.668 169.59 71.0039 169.543 68.9414C169.543 67.1367 170.234 65.5781 171.617 64.2656C172.906 63.0703 174.5 62.4844 176.398 62.5078C177.5 62.5312 178.555 62.8008 179.562 63.3164C180.453 63.7852 181.109 64.3477 181.531 65.0039L186.207 64.3008V66.6562ZM180.441 68.8711C180.441 67.7461 180.031 66.75 179.211 65.8828C178.414 65.0859 177.43 64.6875 176.258 64.6875C175.062 64.6875 174.09 65.1328 173.34 66.0234C172.613 66.9141 172.25 67.9336 172.25 69.082C172.25 70.2305 172.613 71.2266 173.34 72.0703C174.066 72.8906 174.992 73.3008 176.117 73.3008C177.43 73.3008 178.508 72.8672 179.352 72C180.078 71.2266 180.441 70.1836 180.441 68.8711ZM181.742 82.8984C181.742 81.3281 180.371 80.5547 177.629 80.5781C176.551 80.5781 175.367 80.6133 174.078 80.6836C173.469 80.707 172.93 81.1406 172.461 81.9844C172.039 82.7344 171.828 83.4258 171.828 84.0586C171.828 85.043 172.309 85.8164 173.27 86.3789C174.066 86.8008 174.98 87.0117 176.012 87.0117C177.371 87.0117 178.625 86.6719 179.773 85.9922C181.086 85.1953 181.742 84.1641 181.742 82.8984Z" fill="white"/>
</svg>
