<svg viewBox="0 0 260 100" fill="none" xmlns="http://www.w3.org/2000/svg">
<rect width="260" height="100" fill="#7314AE"/>
<path d="M24.4258 41.3516H22.1055L14.7227 18.3242L17.7812 17.4805L23.5117 36.2891L29.2422 17.4805L31.8789 18.3242L24.4258 41.3516ZM37.1875 19.3438C36.625 19.3438 36.1562 19.1562 35.7812 18.7812C35.4297 18.3828 35.2539 17.9023 35.2539 17.3398C35.2539 16.7773 35.4297 16.3203 35.7812 15.9688C36.1562 15.5938 36.625 15.4062 37.1875 15.4062C37.75 15.4062 38.207 15.5938 38.5586 15.9688C38.9102 16.3438 39.0859 16.8008 39.0859 17.3398C39.0859 17.9023 38.9102 18.3828 38.5586 18.7812C38.207 19.1562 37.75 19.3438 37.1875 19.3438ZM35.5352 41V23.1758H38.4531V41H35.5352ZM49.0352 41.4922C46.5742 41.4922 44.582 40.8008 43.0586 39.418L44.5 37.2031C45.7422 38.3984 47.3477 39.0078 49.3164 39.0312C50.1602 39.0312 50.9453 38.7148 51.6719 38.082C52.3984 37.4492 52.7617 36.7344 52.7617 35.9375C52.7617 34.625 51.8125 33.7109 49.9141 33.1953C48.4609 32.8203 47.0195 32.3633 45.5898 31.8242C44.207 31.0977 43.5039 29.8672 43.4805 28.1328C43.4805 26.3984 44.0312 25.0273 45.1328 24.0195C46.2578 22.9883 47.6875 22.4844 49.4219 22.5078C51.0625 22.5312 52.7969 23.082 54.625 24.1602L53.6758 26.4102C51.9883 25.332 50.5352 24.793 49.3164 24.793C47.2305 24.793 46.1875 25.6719 46.1875 27.4297C46.1875 28.3906 46.668 29.0352 47.6289 29.3633C48.2852 29.5742 50.0195 30.1367 52.832 31.0508C54.7539 31.9414 55.7148 33.3477 55.7148 35.2695C55.7148 37.2148 55.0938 38.7383 53.8516 39.8398C52.6094 40.9414 51.0039 41.4922 49.0352 41.4922ZM61.2695 19.3438C60.707 19.3438 60.2383 19.1562 59.8633 18.7812C59.5117 18.3828 59.3359 17.9023 59.3359 17.3398C59.3359 16.7773 59.5117 16.3203 59.8633 15.9688C60.2383 15.5938 60.707 15.4062 61.2695 15.4062C61.832 15.4062 62.2891 15.5938 62.6406 15.9688C62.9922 16.3438 63.168 16.8008 63.168 17.3398C63.168 17.9023 62.9922 18.3828 62.6406 18.7812C62.2891 19.1562 61.832 19.3438 61.2695 19.3438ZM59.6172 41V23.1758H62.5352V41H59.6172ZM73.1172 41.2812C71.7812 41.2812 70.7383 40.6719 69.9883 39.4531C69.332 38.4219 69.0039 37.2031 69.0039 35.7969V25.5312H66.1914V23.1406H69.0039V19.5195H71.8516V23.1406H76.4922V25.5664L71.8516 25.5312V36.2188C71.8516 37.8359 72.543 38.6328 73.9258 38.6094C74.6758 38.6094 75.6133 38.0703 76.7383 36.9922L78.1094 38.9609C76.7734 40.5078 75.1094 41.2812 73.1172 41.2812ZM97.7617 41.3867C94.5273 41.3867 92.1836 40.1797 90.7305 37.7656C89.7461 36.1016 89.2539 34.1562 89.2539 31.9297C89.2539 28.8359 90.2266 26.4219 92.1719 24.6875C93.7656 23.2812 95.6406 22.5781 97.7969 22.5781C99.9297 22.5781 101.758 23.2812 103.281 24.6875C105.156 26.4219 106.094 28.8359 106.094 31.9297C106.094 34.0859 105.543 36.043 104.441 37.8008C102.941 40.1914 100.715 41.3867 97.7617 41.3867ZM97.9727 24.9688C96.0742 24.9688 94.6211 25.7188 93.6133 27.2188C92.7695 28.5078 92.3477 30.1484 92.3477 32.1406C92.3477 34.0391 92.7461 35.5977 93.543 36.8164C94.4805 38.293 95.8398 39.043 97.6211 39.0664C99.4727 39.0664 100.855 38.3047 101.77 36.7812C102.59 35.5156 103 33.9102 103 31.9648C103 30.1133 102.625 28.5547 101.875 27.2891C101.008 25.7422 99.707 24.9688 97.9727 24.9688ZM118.223 26.2344C117.777 25.9297 117.133 25.7891 116.289 25.8125C115.633 25.8125 114.848 26.2812 113.934 27.2188C113.043 28.1562 112.598 28.9414 112.598 29.5742V41H109.785V23.1758H112.598V26.1289C114.004 23.9023 115.492 22.7891 117.062 22.7891C117.461 22.7891 118.141 22.9766 119.102 23.3516L118.223 26.2344ZM145.926 41.3516L143.781 34.5664H135.695L133.621 41.3516L130.668 41L138.332 17.4453H141.215L148.984 40.8594L145.926 41.3516ZM139.738 21.1719L136.469 32.0703H143.078L139.738 21.1719ZM160.762 26.2344C160.316 25.9297 159.672 25.7891 158.828 25.8125C158.172 25.8125 157.387 26.2812 156.473 27.2188C155.582 28.1562 155.137 28.9414 155.137 29.5742V41H152.324V23.1758H155.137V26.1289C156.543 23.9023 158.031 22.7891 159.602 22.7891C160 22.7891 160.68 22.9766 161.641 23.3516L160.762 26.2344ZM173.066 26.2344C172.621 25.9297 171.977 25.7891 171.133 25.8125C170.477 25.8125 169.691 26.2812 168.777 27.2188C167.887 28.1562 167.441 28.9414 167.441 29.5742V41H164.629V23.1758H167.441V26.1289C168.848 23.9023 170.336 22.7891 171.906 22.7891C172.305 22.7891 172.984 22.9766 173.945 23.3516L173.066 26.2344ZM188.816 41.3867C187.832 41.3867 187.082 40.8125 186.566 39.6641C185.84 40.2266 185.219 40.625 184.703 40.8594C183.648 41.3281 182.441 41.5625 181.082 41.5625C179.559 41.5625 178.352 41.082 177.461 40.1211C176.57 39.1602 176.125 37.9297 176.125 36.4297C176.125 34.4844 176.711 33.0781 177.883 32.2109C178.656 31.6484 180.109 31.1211 182.242 30.6289C183.062 30.4414 184.363 30.2656 186.145 30.1016V27.8164C186.145 27.0195 185.828 26.375 185.195 25.8828C184.586 25.3672 183.883 25.1094 183.086 25.1094C181.773 25.1094 180.168 25.8828 178.27 27.4297L176.793 25.4258C177.543 24.7461 178.527 24.1133 179.746 23.5273C181.082 22.8711 182.195 22.5547 183.086 22.5781C184.75 22.5781 186.145 23.0938 187.27 24.125C188.395 25.1562 188.957 26.4922 188.957 28.1328V38.293C189.074 38.7617 189.32 39.0078 189.695 39.0312C189.953 39.0547 190.457 38.7969 191.207 38.2578L191.77 40.1211C190.973 40.9648 189.988 41.3867 188.816 41.3867ZM186.145 32.5977C185.441 32.5977 184.527 32.7148 183.402 32.9492C182.746 33.0664 182.055 33.2188 181.328 33.4062C179.594 33.8516 178.727 34.8711 178.727 36.4648C178.727 37.332 178.973 38.0234 179.465 38.5391C179.957 39.0547 180.637 39.3125 181.504 39.3125C182.441 39.3125 183.391 39.0547 184.352 38.5391C185.523 37.9297 186.121 37.168 186.145 36.2539V32.5977ZM205.656 41V29.293C205.656 28.1211 205.387 27.1484 204.848 26.375C204.238 25.4844 203.383 25.0391 202.281 25.0391C201.297 25.0391 200.277 25.4258 199.223 26.1992C198.027 27.0664 197.418 28.0625 197.395 29.1875V41H194.582V23.1758H197.395V25.1797C198.332 24.2891 199.117 23.6797 199.75 23.3516C200.641 22.8359 201.59 22.5898 202.598 22.6133C204.262 22.6133 205.656 23.2344 206.781 24.4766C207.906 25.6953 208.469 27.1484 208.469 28.8359V41H205.656ZM229 26.6562L225.168 26.5508C225.543 27.3711 225.73 28.168 225.73 28.9414C225.73 30.7461 225.121 32.2461 223.902 33.4414C222.52 34.7773 220.809 35.4453 218.77 35.4453C217.598 35.4453 216.812 35.3047 216.414 35.0234C215.477 35.6094 215.008 36.2539 215.008 36.957C215.008 37.6133 215.465 38.0352 216.379 38.2227C216.801 38.3164 217.973 38.3633 219.895 38.3633C222.355 38.3633 224.031 38.5391 224.922 38.8906C226.516 39.5 227.312 40.8008 227.312 42.793C227.312 44.8555 226.234 46.4844 224.078 47.6797C222.227 48.7109 220.199 49.2266 217.996 49.2266H217.891C216.367 49.2266 215.066 48.9102 213.988 48.2773C212.699 47.4805 212.055 46.3789 212.055 44.9727C212.055 43.4023 212.887 41.8438 214.551 40.2969C214.012 40.1094 213.496 39.6992 213.004 39.0664C212.512 38.4102 212.266 37.8125 212.266 37.2734C212.266 36.6172 212.559 35.9961 213.145 35.4102C214.105 34.4492 214.598 33.957 214.621 33.9336C213.145 32.668 212.383 31.0039 212.336 28.9414C212.336 27.1367 213.027 25.5781 214.41 24.2656C215.699 23.0703 217.293 22.4844 219.191 22.5078C220.293 22.5312 221.348 22.8008 222.355 23.3164C223.246 23.7852 223.902 24.3477 224.324 25.0039L229 24.3008V26.6562ZM223.234 28.8711C223.234 27.7461 222.824 26.75 222.004 25.8828C221.207 25.0859 220.223 24.6875 219.051 24.6875C217.855 24.6875 216.883 25.1328 216.133 26.0234C215.406 26.9141 215.043 27.9336 215.043 29.082C215.043 30.2305 215.406 31.2266 216.133 32.0703C216.859 32.8906 217.785 33.3008 218.91 33.3008C220.223 33.3008 221.301 32.8672 222.145 32C222.871 31.2266 223.234 30.1836 223.234 28.8711ZM224.535 42.8984C224.535 41.3281 223.164 40.5547 220.422 40.5781C219.344 40.5781 218.16 40.6133 216.871 40.6836C216.262 40.707 215.723 41.1406 215.254 41.9844C214.832 42.7344 214.621 43.4258 214.621 44.0586C214.621 45.043 215.102 45.8164 216.062 46.3789C216.859 46.8008 217.773 47.0117 218.805 47.0117C220.164 47.0117 221.418 46.6719 222.566 45.9922C223.879 45.1953 224.535 44.1641 224.535 42.8984ZM233.57 31.7539C233.57 35.3164 234.578 37.543 236.594 38.4336C237.391 38.7852 238.223 38.9727 239.09 38.9961C240.496 38.9961 242.066 38.2227 243.801 36.6758L245.242 38.6797C243.32 40.5078 241.176 41.4219 238.809 41.4219C235.551 41.4219 233.23 40.2031 231.848 37.7656C230.957 36.1953 230.512 34.3086 230.512 32.1055C230.512 29.3633 231.227 27.1484 232.656 25.4609C234.18 23.6562 236.289 22.7539 238.984 22.7539C240.953 22.7539 242.523 23.3867 243.695 24.6523C244.867 25.918 245.453 27.5469 245.453 29.5391V31.7539H233.57ZM242.605 29.0469C242.605 26.4219 241.305 25.1094 238.703 25.1094C237.273 25.1094 236.195 25.4727 235.469 26.1992C234.742 26.9023 234.191 27.9922 233.816 29.4688H242.605V29.0469ZM86.1426 60.5391V67.5H95.2129V70.207L86.1426 70.1719V78.2578L95.7402 78.2227V81H82.9434V57.9727H95.8457V60.5391H86.1426ZM107.623 81.4219H105.689L99.0449 63.7734L101.857 62.9648L106.779 76.8516L111.42 62.9648L114.162 63.7734L107.623 81.4219ZM119.4 71.7539C119.4 75.3164 120.408 77.543 122.424 78.4336C123.221 78.7852 124.053 78.9727 124.92 78.9961C126.326 78.9961 127.896 78.2227 129.631 76.6758L131.072 78.6797C129.15 80.5078 127.006 81.4219 124.639 81.4219C121.381 81.4219 119.061 80.2031 117.678 77.7656C116.787 76.1953 116.342 74.3086 116.342 72.1055C116.342 69.3633 117.057 67.1484 118.486 65.4609C120.01 63.6562 122.119 62.7539 124.814 62.7539C126.783 62.7539 128.354 63.3867 129.525 64.6523C130.697 65.918 131.283 67.5469 131.283 69.5391V71.7539H119.4ZM128.436 69.0469C128.436 66.4219 127.135 65.1094 124.533 65.1094C123.104 65.1094 122.025 65.4727 121.299 66.1992C120.572 66.9023 120.021 67.9922 119.646 69.4688H128.436V69.0469ZM145.943 81V69.293C145.943 68.1211 145.674 67.1484 145.135 66.375C144.525 65.4844 143.67 65.0391 142.568 65.0391C141.584 65.0391 140.564 65.4258 139.51 66.1992C138.314 67.0664 137.705 68.0625 137.682 69.1875V81H134.869V63.1758H137.682V65.1797C138.619 64.2891 139.404 63.6797 140.037 63.3516C140.928 62.8359 141.877 62.5898 142.885 62.6133C144.549 62.6133 145.943 63.2344 147.068 64.4766C148.193 65.6953 148.756 67.1484 148.756 68.8359V81H145.943ZM158.705 81.2812C157.369 81.2812 156.326 80.6719 155.576 79.4531C154.92 78.4219 154.592 77.2031 154.592 75.7969V65.5312H151.779V63.1406H154.592V59.5195H157.439V63.1406H162.08V65.5664L157.439 65.5312V76.2188C157.439 77.8359 158.131 78.6328 159.514 78.6094C160.264 78.6094 161.201 78.0703 162.326 76.9922L163.697 78.9609C162.361 80.5078 160.697 81.2812 158.705 81.2812ZM171.326 81.4922C168.865 81.4922 166.873 80.8008 165.35 79.418L166.791 77.2031C168.033 78.3984 169.639 79.0078 171.607 79.0312C172.451 79.0312 173.236 78.7148 173.963 78.082C174.689 77.4492 175.053 76.7344 175.053 75.9375C175.053 74.625 174.104 73.7109 172.205 73.1953C170.752 72.8203 169.311 72.3633 167.881 71.8242C166.498 71.0977 165.795 69.8672 165.771 68.1328C165.771 66.3984 166.322 65.0273 167.424 64.0195C168.549 62.9883 169.979 62.4844 171.713 62.5078C173.354 62.5312 175.088 63.082 176.916 64.1602L175.967 66.4102C174.279 65.332 172.826 64.793 171.607 64.793C169.521 64.793 168.479 65.6719 168.479 67.4297C168.479 68.3906 168.959 69.0352 169.92 69.3633C170.576 69.5742 172.311 70.1367 175.123 71.0508C177.045 71.9414 178.006 73.3477 178.006 75.2695C178.006 77.2148 177.385 78.7383 176.143 79.8398C174.9 80.9414 173.295 81.4922 171.326 81.4922Z" fill="white"/>
</svg>
