<svg viewBox="0 0 260 100" fill="none" xmlns="http://www.w3.org/2000/svg">
<rect width="260" height="100" fill="#1DA2BF"/>
<path d="M65.8496 43.2109H63.9863L58.8887 26.4766L53.7559 43.2109H51.5059L45.1426 20.4648L48.2715 19.7969L53.0527 37.7266L57.9043 20.1484H60.1895L64.9355 37.6914L69.8223 19.7969L72.248 20.4648L65.8496 43.2109ZM86.3105 43V31.293C86.3105 30.1211 86.041 29.1484 85.502 28.375C84.8926 27.4844 84.0371 27.0391 82.9355 27.0391C81.998 27.0391 80.9785 27.4258 79.877 28.1992C78.6816 29.0195 78.0723 29.875 78.0488 30.7656V43H75.2363V17.9336H78.0488V27.1797C79.9004 25.4453 81.623 24.5898 83.2168 24.6133C84.9043 24.6133 86.3105 25.2344 87.4355 26.4766C88.5605 27.6953 89.123 29.1484 89.123 30.8359V43H86.3105ZM105.541 43.3867C104.557 43.3867 103.807 42.8125 103.291 41.6641C102.564 42.2266 101.943 42.625 101.428 42.8594C100.373 43.3281 99.166 43.5625 97.8066 43.5625C96.2832 43.5625 95.0762 43.082 94.1855 42.1211C93.2949 41.1602 92.8496 39.9297 92.8496 38.4297C92.8496 36.4844 93.4355 35.0781 94.6074 34.2109C95.3809 33.6484 96.834 33.1211 98.9668 32.6289C99.7871 32.4414 101.088 32.2656 102.869 32.1016V29.8164C102.869 29.0195 102.553 28.375 101.92 27.8828C101.311 27.3672 100.607 27.1094 99.8105 27.1094C98.498 27.1094 96.8926 27.8828 94.9941 29.4297L93.5176 27.4258C94.2676 26.7461 95.252 26.1133 96.4707 25.5273C97.8066 24.8711 98.9199 24.5547 99.8105 24.5781C101.475 24.5781 102.869 25.0938 103.994 26.125C105.119 27.1562 105.682 28.4922 105.682 30.1328V40.293C105.799 40.7617 106.045 41.0078 106.42 41.0312C106.678 41.0547 107.182 40.7969 107.932 40.2578L108.494 42.1211C107.697 42.9648 106.713 43.3867 105.541 43.3867ZM102.869 34.5977C102.166 34.5977 101.252 34.7148 100.127 34.9492C99.4707 35.0664 98.7793 35.2188 98.0527 35.4062C96.3184 35.8516 95.4512 36.8711 95.4512 38.4648C95.4512 39.332 95.6973 40.0234 96.1895 40.5391C96.6816 41.0547 97.3613 41.3125 98.2285 41.3125C99.166 41.3125 100.115 41.0547 101.076 40.5391C102.248 39.9297 102.846 39.168 102.869 38.2539V34.5977ZM116.721 43.2812C115.385 43.2812 114.342 42.6719 113.592 41.4531C112.936 40.4219 112.607 39.2031 112.607 37.7969V27.5312H109.795V25.1406H112.607V21.5195H115.455V25.1406H120.096V27.5664L115.455 27.5312V38.2188C115.455 39.8359 116.146 40.6328 117.529 40.6094C118.279 40.6094 119.217 40.0703 120.342 38.9922L121.713 40.9609C120.377 42.5078 118.713 43.2812 116.721 43.2812ZM123.33 23.9805L124.912 24.4375C127.092 21.5781 128.193 19.1289 128.217 17.0898H124.736C124.736 18.0039 124.596 19.1758 124.314 20.6055C124.01 22.1055 123.682 23.2305 123.33 23.9805ZM137.99 43.4922C135.529 43.4922 133.537 42.8008 132.014 41.418L133.455 39.2031C134.697 40.3984 136.303 41.0078 138.271 41.0312C139.115 41.0312 139.9 40.7148 140.627 40.082C141.354 39.4492 141.717 38.7344 141.717 37.9375C141.717 36.625 140.768 35.7109 138.869 35.1953C137.416 34.8203 135.975 34.3633 134.545 33.8242C133.162 33.0977 132.459 31.8672 132.436 30.1328C132.436 28.3984 132.986 27.0273 134.088 26.0195C135.213 24.9883 136.643 24.4844 138.377 24.5078C140.018 24.5312 141.752 25.082 143.58 26.1602L142.631 28.4102C140.943 27.332 139.49 26.793 138.271 26.793C136.186 26.793 135.143 27.6719 135.143 29.4297C135.143 30.3906 135.623 31.0352 136.584 31.3633C137.24 31.5742 138.975 32.1367 141.787 33.0508C143.709 33.9414 144.67 35.3477 144.67 37.2695C144.67 39.2148 144.049 40.7383 142.807 41.8398C141.564 42.9414 139.959 43.4922 137.99 43.4922ZM164.779 46.0234C164.381 47.1484 163.631 48.0977 162.529 48.8711C161.428 49.668 160.279 50.0664 159.084 50.0664C158.732 50.0664 157.912 49.8438 156.623 49.3984L157.502 46.8672C158.182 47.1719 158.779 47.3359 159.295 47.3594C160.396 47.3828 161.404 46.5742 162.318 44.9336C162.787 43.7852 163.279 42.6367 163.795 41.4883L156.904 25.8086L159.682 25.0352L165.096 37.7969L169.736 25.0703L172.303 25.668L164.779 46.0234ZM182.99 43.3867C179.756 43.3867 177.412 42.1797 175.959 39.7656C174.975 38.1016 174.482 36.1562 174.482 33.9297C174.482 30.8359 175.455 28.4219 177.4 26.6875C178.994 25.2812 180.869 24.5781 183.025 24.5781C185.158 24.5781 186.986 25.2812 188.51 26.6875C190.385 28.4219 191.322 30.8359 191.322 33.9297C191.322 36.0859 190.771 38.043 189.67 39.8008C188.17 42.1914 185.943 43.3867 182.99 43.3867ZM183.201 26.9688C181.303 26.9688 179.85 27.7188 178.842 29.2188C177.998 30.5078 177.576 32.1484 177.576 34.1406C177.576 36.0391 177.975 37.5977 178.771 38.8164C179.709 40.293 181.068 41.043 182.85 41.0664C184.701 41.0664 186.084 40.3047 186.998 38.7812C187.818 37.5156 188.229 35.9102 188.229 33.9648C188.229 32.1133 187.854 30.5547 187.104 29.2891C186.236 27.7422 184.936 26.9688 183.201 26.9688ZM208.795 43H206.229L205.842 41.1367C204.061 42.8242 202.221 43.6562 200.322 43.6328C198.682 43.6328 197.357 42.9648 196.35 41.6289C195.436 40.3867 194.99 38.9219 195.014 37.2344V25.1758H197.826V37.0938C197.826 39.7656 198.893 41.1016 201.025 41.1016C202.033 41.1016 203.111 40.6797 204.26 39.8359C205.408 38.9922 205.982 38.0781 205.982 37.0938V25.1758H208.795V43ZM221.838 28.2344C221.393 27.9297 220.748 27.7891 219.904 27.8125C219.248 27.8125 218.463 28.2812 217.549 29.2188C216.658 30.1562 216.213 30.9414 216.213 31.5742V43H213.4V25.1758H216.213V28.1289C217.619 25.9023 219.107 24.7891 220.678 24.7891C221.076 24.7891 221.756 24.9766 222.717 25.3516L221.838 28.2344ZM119.357 80.8203C117.928 81.6875 116.732 82.2852 115.771 82.6133C114.576 83.0117 113.205 83.2109 111.658 83.2109C108.541 83.2109 106.08 81.9805 104.275 79.5195C102.635 77.3164 101.814 74.5977 101.814 71.3633C101.791 68.4336 102.564 65.7852 104.135 63.418C105.986 60.6289 108.447 59.2344 111.518 59.2344C112.666 59.2344 113.943 59.4336 115.35 59.832C116.896 60.2305 118.045 60.7578 118.795 61.4141L117.459 64.0859C115.467 62.7266 113.592 62.0469 111.834 62.0469C109.561 62.0469 107.803 63.207 106.561 65.5273C105.576 67.3555 105.084 69.3711 105.084 71.5742C105.084 73.7773 105.6 75.7227 106.631 77.4102C107.85 79.4023 109.49 80.3984 111.553 80.3984C113.264 80.3984 114.811 80.0352 116.193 79.3086V72.1719H111.096V69.5H119.357V80.8203ZM131.521 83.3867C128.287 83.3867 125.943 82.1797 124.49 79.7656C123.506 78.1016 123.014 76.1562 123.014 73.9297C123.014 70.8359 123.986 68.4219 125.932 66.6875C127.525 65.2812 129.4 64.5781 131.557 64.5781C133.689 64.5781 135.518 65.2812 137.041 66.6875C138.916 68.4219 139.854 70.8359 139.854 73.9297C139.854 76.0859 139.303 78.043 138.201 79.8008C136.701 82.1914 134.475 83.3867 131.521 83.3867ZM131.732 66.9688C129.834 66.9688 128.381 67.7188 127.373 69.2188C126.529 70.5078 126.107 72.1484 126.107 74.1406C126.107 76.0391 126.506 77.5977 127.303 78.8164C128.24 80.293 129.6 81.043 131.381 81.0664C133.232 81.0664 134.615 80.3047 135.529 78.7812C136.35 77.5156 136.76 75.9102 136.76 73.9648C136.76 72.1133 136.385 70.5547 135.635 69.2891C134.768 67.7422 133.467 66.9688 131.732 66.9688ZM155.428 83.3867C154.443 83.3867 153.693 82.8125 153.178 81.6641C152.451 82.2266 151.83 82.625 151.314 82.8594C150.26 83.3281 149.053 83.5625 147.693 83.5625C146.17 83.5625 144.963 83.082 144.072 82.1211C143.182 81.1602 142.736 79.9297 142.736 78.4297C142.736 76.4844 143.322 75.0781 144.494 74.2109C145.268 73.6484 146.721 73.1211 148.854 72.6289C149.674 72.4414 150.975 72.2656 152.756 72.1016V69.8164C152.756 69.0195 152.439 68.375 151.807 67.8828C151.197 67.3672 150.494 67.1094 149.697 67.1094C148.385 67.1094 146.779 67.8828 144.881 69.4297L143.404 67.4258C144.154 66.7461 145.139 66.1133 146.357 65.5273C147.693 64.8711 148.807 64.5547 149.697 64.5781C151.361 64.5781 152.756 65.0938 153.881 66.125C155.006 67.1562 155.568 68.4922 155.568 70.1328V80.293C155.686 80.7617 155.932 81.0078 156.307 81.0312C156.564 81.0547 157.068 80.7969 157.818 80.2578L158.381 82.1211C157.584 82.9648 156.6 83.3867 155.428 83.3867ZM152.756 74.5977C152.053 74.5977 151.139 74.7148 150.014 74.9492C149.357 75.0664 148.666 75.2188 147.939 75.4062C146.205 75.8516 145.338 76.8711 145.338 78.4648C145.338 79.332 145.584 80.0234 146.076 80.5391C146.568 81.0547 147.248 81.3125 148.115 81.3125C149.053 81.3125 150.002 81.0547 150.963 80.5391C152.135 79.9297 152.732 79.168 152.756 78.2539V74.5977ZM164.533 83H161.721V57.8633H164.533V83Z" fill="white"/>
</svg>
