<svg viewBox="0 0 260 100" fill="none" xmlns="http://www.w3.org/2000/svg">
<rect width="260" height="100" fill="#442B0E"/>
<path d="M56.6641 41.2109H54.8008L49.7031 24.4766L44.5703 41.2109H42.3203L35.957 18.4648L39.0859 17.7969L43.8672 35.7266L48.7188 18.1484H51.0039L55.75 35.6914L60.6367 17.7969L63.0625 18.4648L56.6641 41.2109ZM77.125 41V29.293C77.125 28.1211 76.8555 27.1484 76.3164 26.375C75.707 25.4844 74.8516 25.0391 73.75 25.0391C72.8125 25.0391 71.793 25.4258 70.6914 26.1992C69.4961 27.0195 68.8867 27.875 68.8633 28.7656V41H66.0508V15.9336H68.8633V25.1797C70.7148 23.4453 72.4375 22.5898 74.0312 22.6133C75.7188 22.6133 77.125 23.2344 78.25 24.4766C79.375 25.6953 79.9375 27.1484 79.9375 28.8359V41H77.125ZM96.3555 41.3867C95.3711 41.3867 94.6211 40.8125 94.1055 39.6641C93.3789 40.2266 92.7578 40.625 92.2422 40.8594C91.1875 41.3281 89.9805 41.5625 88.6211 41.5625C87.0977 41.5625 85.8906 41.082 85 40.1211C84.1094 39.1602 83.6641 37.9297 83.6641 36.4297C83.6641 34.4844 84.25 33.0781 85.4219 32.2109C86.1953 31.6484 87.6484 31.1211 89.7812 30.6289C90.6016 30.4414 91.9023 30.2656 93.6836 30.1016V27.8164C93.6836 27.0195 93.3672 26.375 92.7344 25.8828C92.125 25.3672 91.4219 25.1094 90.625 25.1094C89.3125 25.1094 87.707 25.8828 85.8086 27.4297L84.332 25.4258C85.082 24.7461 86.0664 24.1133 87.2852 23.5273C88.6211 22.8711 89.7344 22.5547 90.625 22.5781C92.2891 22.5781 93.6836 23.0938 94.8086 24.125C95.9336 25.1562 96.4961 26.4922 96.4961 28.1328V38.293C96.6133 38.7617 96.8594 39.0078 97.2344 39.0312C97.4922 39.0547 97.9961 38.7969 98.7461 38.2578L99.3086 40.1211C98.5117 40.9648 97.5273 41.3867 96.3555 41.3867ZM93.6836 32.5977C92.9805 32.5977 92.0664 32.7148 90.9414 32.9492C90.2852 33.0664 89.5938 33.2188 88.8672 33.4062C87.1328 33.8516 86.2656 34.8711 86.2656 36.4648C86.2656 37.332 86.5117 38.0234 87.0039 38.5391C87.4961 39.0547 88.1758 39.3125 89.043 39.3125C89.9805 39.3125 90.9297 39.0547 91.8906 38.5391C93.0625 37.9297 93.6602 37.168 93.6836 36.2539V32.5977ZM107.535 41.2812C106.199 41.2812 105.156 40.6719 104.406 39.4531C103.75 38.4219 103.422 37.2031 103.422 35.7969V25.5312H100.609V23.1406H103.422V19.5195H106.27V23.1406H110.91V25.5664L106.27 25.5312V36.2188C106.27 37.8359 106.961 38.6328 108.344 38.6094C109.094 38.6094 110.031 38.0703 111.156 36.9922L112.527 38.9609C111.191 40.5078 109.527 41.2812 107.535 41.2812ZM126.484 19.3438C125.922 19.3438 125.453 19.1562 125.078 18.7812C124.727 18.3828 124.551 17.9023 124.551 17.3398C124.551 16.7773 124.727 16.3203 125.078 15.9688C125.453 15.5938 125.922 15.4062 126.484 15.4062C127.047 15.4062 127.504 15.5938 127.855 15.9688C128.207 16.3438 128.383 16.8008 128.383 17.3398C128.383 17.9023 128.207 18.3828 127.855 18.7812C127.504 19.1562 127.047 19.3438 126.484 19.3438ZM124.832 41V23.1758H127.75V41H124.832ZM138.332 41.4922C135.871 41.4922 133.879 40.8008 132.355 39.418L133.797 37.2031C135.039 38.3984 136.645 39.0078 138.613 39.0312C139.457 39.0312 140.242 38.7148 140.969 38.082C141.695 37.4492 142.059 36.7344 142.059 35.9375C142.059 34.625 141.109 33.7109 139.211 33.1953C137.758 32.8203 136.316 32.3633 134.887 31.8242C133.504 31.0977 132.801 29.8672 132.777 28.1328C132.777 26.3984 133.328 25.0273 134.43 24.0195C135.555 22.9883 136.984 22.4844 138.719 22.5078C140.359 22.5312 142.094 23.082 143.922 24.1602L142.973 26.4102C141.285 25.332 139.832 24.793 138.613 24.793C136.527 24.793 135.484 25.6719 135.484 27.4297C135.484 28.3906 135.965 29.0352 136.926 29.3633C137.582 29.5742 139.316 30.1367 142.129 31.0508C144.051 31.9414 145.012 33.3477 145.012 35.2695C145.012 37.2148 144.391 38.7383 143.148 39.8398C141.906 40.9414 140.301 41.4922 138.332 41.4922ZM166.809 31.1914V41H163.574V31.1914L157.211 18.4297L160.094 17.5859L165.297 28.3086L170.465 17.5859L173.172 18.4297L166.809 31.1914ZM184.176 41.3867C180.941 41.3867 178.598 40.1797 177.145 37.7656C176.16 36.1016 175.668 34.1562 175.668 31.9297C175.668 28.8359 176.641 26.4219 178.586 24.6875C180.18 23.2812 182.055 22.5781 184.211 22.5781C186.344 22.5781 188.172 23.2812 189.695 24.6875C191.57 26.4219 192.508 28.8359 192.508 31.9297C192.508 34.0859 191.957 36.043 190.855 37.8008C189.355 40.1914 187.129 41.3867 184.176 41.3867ZM184.387 24.9688C182.488 24.9688 181.035 25.7188 180.027 27.2188C179.184 28.5078 178.762 30.1484 178.762 32.1406C178.762 34.0391 179.16 35.5977 179.957 36.8164C180.895 38.293 182.254 39.043 184.035 39.0664C185.887 39.0664 187.27 38.3047 188.184 36.7812C189.004 35.5156 189.414 33.9102 189.414 31.9648C189.414 30.1133 189.039 28.5547 188.289 27.2891C187.422 25.7422 186.121 24.9688 184.387 24.9688ZM209.98 41H207.414L207.027 39.1367C205.246 40.8242 203.406 41.6562 201.508 41.6328C199.867 41.6328 198.543 40.9648 197.535 39.6289C196.621 38.3867 196.176 36.9219 196.199 35.2344V23.1758H199.012V35.0938C199.012 37.7656 200.078 39.1016 202.211 39.1016C203.219 39.1016 204.297 38.6797 205.445 37.8359C206.594 36.9922 207.168 36.0781 207.168 35.0938V23.1758H209.98V41ZM223.023 26.2344C222.578 25.9297 221.934 25.7891 221.09 25.8125C220.434 25.8125 219.648 26.2812 218.734 27.2188C217.844 28.1562 217.398 28.9414 217.398 29.5742V41H214.586V23.1758H217.398V26.1289C218.805 23.9023 220.293 22.7891 221.863 22.7891C222.262 22.7891 222.941 22.9766 223.902 23.3516L223.023 26.2344ZM87.4258 81L80.1484 80.9297V57.9375L86.0898 57.832C86.1367 57.832 86.3008 57.8203 86.582 57.7969C86.582 57.7969 86.7461 57.7969 87.0742 57.7969C88.9258 57.7969 90.3906 58.2305 91.4688 59.0977C92.6172 60.0586 93.1914 61.4531 93.1914 63.2812C93.1914 65.2969 92.6875 66.668 91.6797 67.3945C91.1406 67.7461 90.3555 68.0742 89.3242 68.3789C93.0039 69.1758 94.832 71.1797 94.8086 74.3906C94.8086 76.5469 94.1055 78.2109 92.6992 79.3828C91.3867 80.4844 89.6289 81.0234 87.4258 81ZM86.3359 59.9414C86.0078 59.9414 85.0117 59.9766 83.3477 60.0469V67.5L85.8086 67.5352C87.0977 67.5586 88.1523 67.2422 88.9727 66.5859C89.8867 65.8594 90.3438 64.875 90.3438 63.6328C90.3438 61.1719 89.0078 59.9414 86.3359 59.9414ZM86.6523 69.7852H83.3477V78.5742H86.7227C90.0508 78.5742 91.7148 77.168 91.7148 74.3555C91.7148 72.9727 91.2227 71.8711 90.2383 71.0508C89.2539 70.207 88.0586 69.7852 86.6523 69.7852ZM112.773 81H110.207L109.82 79.1367C108.039 80.8242 106.199 81.6562 104.301 81.6328C102.66 81.6328 101.336 80.9648 100.328 79.6289C99.4141 78.3867 98.9688 76.9219 98.9922 75.2344V63.1758H101.805V75.0938C101.805 77.7656 102.871 79.1016 105.004 79.1016C106.012 79.1016 107.09 78.6797 108.238 77.8359C109.387 76.9922 109.961 76.0781 109.961 75.0938V63.1758H112.773V81ZM131.23 81H128.84L128.418 79.4883C126.473 80.8008 124.809 81.457 123.426 81.457C121.199 81.457 119.43 80.4375 118.117 78.3984C116.992 76.6406 116.43 74.5898 116.43 72.2461C116.43 69.5508 117.027 67.3359 118.223 65.6016C119.605 63.5859 121.586 62.5781 124.164 62.5781C125.852 62.5781 127.27 63.2695 128.418 64.6523V55.8984H131.23V81ZM128.418 67.3242C127.738 66.4102 127.117 65.8008 126.555 65.4961C125.992 65.1914 125.148 65.0391 124.023 65.0391C122.406 65.0391 121.234 65.8242 120.508 67.3945C119.922 68.5664 119.629 70.0547 119.629 71.8594C119.629 73.6641 119.969 75.1875 120.648 76.4297C121.469 78.0234 122.699 78.8203 124.34 78.8203C125.793 78.8203 127.152 78.2695 128.418 77.168V67.3242ZM151.762 66.6562L147.93 66.5508C148.305 67.3711 148.492 68.168 148.492 68.9414C148.492 70.7461 147.883 72.2461 146.664 73.4414C145.281 74.7773 143.57 75.4453 141.531 75.4453C140.359 75.4453 139.574 75.3047 139.176 75.0234C138.238 75.6094 137.77 76.2539 137.77 76.957C137.77 77.6133 138.227 78.0352 139.141 78.2227C139.562 78.3164 140.734 78.3633 142.656 78.3633C145.117 78.3633 146.793 78.5391 147.684 78.8906C149.277 79.5 150.074 80.8008 150.074 82.793C150.074 84.8555 148.996 86.4844 146.84 87.6797C144.988 88.7109 142.961 89.2266 140.758 89.2266H140.652C139.129 89.2266 137.828 88.9102 136.75 88.2773C135.461 87.4805 134.816 86.3789 134.816 84.9727C134.816 83.4023 135.648 81.8438 137.312 80.2969C136.773 80.1094 136.258 79.6992 135.766 79.0664C135.273 78.4102 135.027 77.8125 135.027 77.2734C135.027 76.6172 135.32 75.9961 135.906 75.4102C136.867 74.4492 137.359 73.957 137.383 73.9336C135.906 72.668 135.145 71.0039 135.098 68.9414C135.098 67.1367 135.789 65.5781 137.172 64.2656C138.461 63.0703 140.055 62.4844 141.953 62.5078C143.055 62.5312 144.109 62.8008 145.117 63.3164C146.008 63.7852 146.664 64.3477 147.086 65.0039L151.762 64.3008V66.6562ZM145.996 68.8711C145.996 67.7461 145.586 66.75 144.766 65.8828C143.969 65.0859 142.984 64.6875 141.812 64.6875C140.617 64.6875 139.645 65.1328 138.895 66.0234C138.168 66.9141 137.805 67.9336 137.805 69.082C137.805 70.2305 138.168 71.2266 138.895 72.0703C139.621 72.8906 140.547 73.3008 141.672 73.3008C142.984 73.3008 144.062 72.8672 144.906 72C145.633 71.2266 145.996 70.1836 145.996 68.8711ZM147.297 82.8984C147.297 81.3281 145.926 80.5547 143.184 80.5781C142.105 80.5781 140.922 80.6133 139.633 80.6836C139.023 80.707 138.484 81.1406 138.016 81.9844C137.594 82.7344 137.383 83.4258 137.383 84.0586C137.383 85.043 137.863 85.8164 138.824 86.3789C139.621 86.8008 140.535 87.0117 141.566 87.0117C142.926 87.0117 144.18 86.6719 145.328 85.9922C146.641 85.1953 147.297 84.1641 147.297 82.8984ZM156.332 71.7539C156.332 75.3164 157.34 77.543 159.355 78.4336C160.152 78.7852 160.984 78.9727 161.852 78.9961C163.258 78.9961 164.828 78.2227 166.562 76.6758L168.004 78.6797C166.082 80.5078 163.938 81.4219 161.57 81.4219C158.312 81.4219 155.992 80.2031 154.609 77.7656C153.719 76.1953 153.273 74.3086 153.273 72.1055C153.273 69.3633 153.988 67.1484 155.418 65.4609C156.941 63.6562 159.051 62.7539 161.746 62.7539C163.715 62.7539 165.285 63.3867 166.457 64.6523C167.629 65.918 168.215 67.5469 168.215 69.5391V71.7539H156.332ZM165.367 69.0469C165.367 66.4219 164.066 65.1094 161.465 65.1094C160.035 65.1094 158.957 65.4727 158.23 66.1992C157.504 66.9023 156.953 67.9922 156.578 69.4688H165.367V69.0469ZM177.215 81.2812C175.879 81.2812 174.836 80.6719 174.086 79.4531C173.43 78.4219 173.102 77.2031 173.102 75.7969V65.5312H170.289V63.1406H173.102V59.5195H175.949V63.1406H180.59V65.5664L175.949 65.5312V76.2188C175.949 77.8359 176.641 78.6328 178.023 78.6094C178.773 78.6094 179.711 78.0703 180.836 76.9922L182.207 78.9609C180.871 80.5078 179.207 81.2812 177.215 81.2812Z" fill="white"/>
</svg>
