<svg viewBox="0 0 260 100" fill="none" xmlns="http://www.w3.org/2000/svg">
<rect width="260" height="100" fill="#7314AE"/>
<path d="M89.957 41.2109H88.0938L82.9961 24.4766L77.8633 41.2109H75.6133L69.25 18.4648L72.3789 17.7969L77.1602 35.7266L82.0117 18.1484H84.2969L89.043 35.6914L93.9297 17.7969L96.3555 18.4648L89.957 41.2109ZM106.973 41.3867C103.738 41.3867 101.395 40.1797 99.9414 37.7656C98.957 36.1016 98.4648 34.1562 98.4648 31.9297C98.4648 28.8359 99.4375 26.4219 101.383 24.6875C102.977 23.2812 104.852 22.5781 107.008 22.5781C109.141 22.5781 110.969 23.2812 112.492 24.6875C114.367 26.4219 115.305 28.8359 115.305 31.9297C115.305 34.0859 114.754 36.043 113.652 37.8008C112.152 40.1914 109.926 41.3867 106.973 41.3867ZM107.184 24.9688C105.285 24.9688 103.832 25.7188 102.824 27.2188C101.98 28.5078 101.559 30.1484 101.559 32.1406C101.559 34.0391 101.957 35.5977 102.754 36.8164C103.691 38.293 105.051 39.043 106.832 39.0664C108.684 39.0664 110.066 38.3047 110.98 36.7812C111.801 35.5156 112.211 33.9102 112.211 31.9648C112.211 30.1133 111.836 28.5547 111.086 27.2891C110.219 25.7422 108.918 24.9688 107.184 24.9688ZM127.434 26.2344C126.988 25.9297 126.344 25.7891 125.5 25.8125C124.844 25.8125 124.059 26.2812 123.145 27.2188C122.254 28.1562 121.809 28.9414 121.809 29.5742V41H118.996V23.1758H121.809V26.1289C123.215 23.9023 124.703 22.7891 126.273 22.7891C126.672 22.7891 127.352 22.9766 128.312 23.3516L127.434 26.2344ZM143.219 41.9141L135.344 32.8789L134.113 34.0742V41H131.301V15.8984H134.113V31.0508L141.988 22.2266L144.414 23.9141L137.312 31.1914L145.75 40.3672L143.219 41.9141ZM150.355 19.3438C149.793 19.3438 149.324 19.1562 148.949 18.7812C148.598 18.3828 148.422 17.9023 148.422 17.3398C148.422 16.7773 148.598 16.3203 148.949 15.9688C149.324 15.5938 149.793 15.4062 150.355 15.4062C150.918 15.4062 151.375 15.5938 151.727 15.9688C152.078 16.3438 152.254 16.8008 152.254 17.3398C152.254 17.9023 152.078 18.3828 151.727 18.7812C151.375 19.1562 150.918 19.3438 150.355 19.3438ZM148.703 41V23.1758H151.621V41H148.703ZM167.863 41V29.293C167.863 28.1211 167.594 27.1484 167.055 26.375C166.445 25.4844 165.59 25.0391 164.488 25.0391C163.504 25.0391 162.484 25.4258 161.43 26.1992C160.234 27.0664 159.625 28.0625 159.602 29.1875V41H156.789V23.1758H159.602V25.1797C160.539 24.2891 161.324 23.6797 161.957 23.3516C162.848 22.8359 163.797 22.5898 164.805 22.6133C166.469 22.6133 167.863 23.2344 168.988 24.4766C170.113 25.6953 170.676 27.1484 170.676 28.8359V41H167.863ZM191.207 26.6562L187.375 26.5508C187.75 27.3711 187.938 28.168 187.938 28.9414C187.938 30.7461 187.328 32.2461 186.109 33.4414C184.727 34.7773 183.016 35.4453 180.977 35.4453C179.805 35.4453 179.02 35.3047 178.621 35.0234C177.684 35.6094 177.215 36.2539 177.215 36.957C177.215 37.6133 177.672 38.0352 178.586 38.2227C179.008 38.3164 180.18 38.3633 182.102 38.3633C184.562 38.3633 186.238 38.5391 187.129 38.8906C188.723 39.5 189.52 40.8008 189.52 42.793C189.52 44.8555 188.441 46.4844 186.285 47.6797C184.434 48.7109 182.406 49.2266 180.203 49.2266H180.098C178.574 49.2266 177.273 48.9102 176.195 48.2773C174.906 47.4805 174.262 46.3789 174.262 44.9727C174.262 43.4023 175.094 41.8438 176.758 40.2969C176.219 40.1094 175.703 39.6992 175.211 39.0664C174.719 38.4102 174.473 37.8125 174.473 37.2734C174.473 36.6172 174.766 35.9961 175.352 35.4102C176.312 34.4492 176.805 33.957 176.828 33.9336C175.352 32.668 174.59 31.0039 174.543 28.9414C174.543 27.1367 175.234 25.5781 176.617 24.2656C177.906 23.0703 179.5 22.4844 181.398 22.5078C182.5 22.5312 183.555 22.8008 184.562 23.3164C185.453 23.7852 186.109 24.3477 186.531 25.0039L191.207 24.3008V26.6562ZM185.441 28.8711C185.441 27.7461 185.031 26.75 184.211 25.8828C183.414 25.0859 182.43 24.6875 181.258 24.6875C180.062 24.6875 179.09 25.1328 178.34 26.0234C177.613 26.9141 177.25 27.9336 177.25 29.082C177.25 30.2305 177.613 31.2266 178.34 32.0703C179.066 32.8906 179.992 33.3008 181.117 33.3008C182.43 33.3008 183.508 32.8672 184.352 32C185.078 31.2266 185.441 30.1836 185.441 28.8711ZM186.742 42.8984C186.742 41.3281 185.371 40.5547 182.629 40.5781C181.551 40.5781 180.367 40.6133 179.078 40.6836C178.469 40.707 177.93 41.1406 177.461 41.9844C177.039 42.7344 176.828 43.4258 176.828 44.0586C176.828 45.043 177.309 45.8164 178.27 46.3789C179.066 46.8008 179.98 47.0117 181.012 47.0117C182.371 47.0117 183.625 46.6719 184.773 45.9922C186.086 45.1953 186.742 44.1641 186.742 42.8984ZM73.2227 81.5625C69.8711 81.5625 67.2578 80.3438 65.3828 77.9062C63.6953 75.7266 62.8633 72.8906 62.8867 69.3984C62.8867 66.1406 63.8242 63.4219 65.6992 61.2422C67.668 58.9219 70.2578 57.75 73.4688 57.7266C76.6562 57.7266 79.2109 58.8984 81.1328 61.2422C82.9141 63.4219 83.8047 66.1406 83.8047 69.3984C83.8047 72.8438 82.9141 75.6914 81.1328 77.9414C79.2109 80.3555 76.5742 81.5625 73.2227 81.5625ZM73.3984 60.3984C71.0547 60.3984 69.168 61.3945 67.7383 63.3867C66.4961 65.168 65.875 67.2773 65.875 69.7148C65.875 72.0586 66.4961 74.1211 67.7383 75.9023C69.1211 77.8477 70.9492 78.8203 73.2227 78.8203C75.4961 78.8203 77.3594 77.8594 78.8125 75.9375C80.1484 74.1562 80.8281 72.1055 80.8516 69.7852C80.8516 67.3711 80.2188 65.25 78.9531 63.4219C77.5703 61.4062 75.7188 60.3984 73.3984 60.3984ZM94.2812 81.4219H92.3477L85.7031 63.7734L88.5156 62.9648L93.4375 76.8516L98.0781 62.9648L100.82 63.7734L94.2812 81.4219ZM106.059 71.7539C106.059 75.3164 107.066 77.543 109.082 78.4336C109.879 78.7852 110.711 78.9727 111.578 78.9961C112.984 78.9961 114.555 78.2227 116.289 76.6758L117.73 78.6797C115.809 80.5078 113.664 81.4219 111.297 81.4219C108.039 81.4219 105.719 80.2031 104.336 77.7656C103.445 76.1953 103 74.3086 103 72.1055C103 69.3633 103.715 67.1484 105.145 65.4609C106.668 63.6562 108.777 62.7539 111.473 62.7539C113.441 62.7539 115.012 63.3867 116.184 64.6523C117.355 65.918 117.941 67.5469 117.941 69.5391V71.7539H106.059ZM115.094 69.0469C115.094 66.4219 113.793 65.1094 111.191 65.1094C109.762 65.1094 108.684 65.4727 107.957 66.1992C107.23 66.9023 106.68 67.9922 106.305 69.4688H115.094V69.0469ZM129.965 66.2344C129.52 65.9297 128.875 65.7891 128.031 65.8125C127.375 65.8125 126.59 66.2812 125.676 67.2188C124.785 68.1562 124.34 68.9414 124.34 69.5742V81H121.527V63.1758H124.34V66.1289C125.746 63.9023 127.234 62.7891 128.805 62.7891C129.203 62.7891 129.883 62.9766 130.844 63.3516L129.965 66.2344ZM139.246 81.4922C136.785 81.4922 134.793 80.8008 133.27 79.418L134.711 77.2031C135.953 78.3984 137.559 79.0078 139.527 79.0312C140.371 79.0312 141.156 78.7148 141.883 78.082C142.609 77.4492 142.973 76.7344 142.973 75.9375C142.973 74.625 142.023 73.7109 140.125 73.1953C138.672 72.8203 137.23 72.3633 135.801 71.8242C134.418 71.0977 133.715 69.8672 133.691 68.1328C133.691 66.3984 134.242 65.0273 135.344 64.0195C136.469 62.9883 137.898 62.4844 139.633 62.5078C141.273 62.5312 143.008 63.082 144.836 64.1602L143.887 66.4102C142.199 65.332 140.746 64.793 139.527 64.793C137.441 64.793 136.398 65.6719 136.398 67.4297C136.398 68.3906 136.879 69.0352 137.84 69.3633C138.496 69.5742 140.23 70.1367 143.043 71.0508C144.965 71.9414 145.926 73.3477 145.926 75.2695C145.926 77.2148 145.305 78.7383 144.062 79.8398C142.82 80.9414 141.215 81.4922 139.246 81.4922ZM151.727 71.7539C151.727 75.3164 152.734 77.543 154.75 78.4336C155.547 78.7852 156.379 78.9727 157.246 78.9961C158.652 78.9961 160.223 78.2227 161.957 76.6758L163.398 78.6797C161.477 80.5078 159.332 81.4219 156.965 81.4219C153.707 81.4219 151.387 80.2031 150.004 77.7656C149.113 76.1953 148.668 74.3086 148.668 72.1055C148.668 69.3633 149.383 67.1484 150.812 65.4609C152.336 63.6562 154.445 62.7539 157.141 62.7539C159.109 62.7539 160.68 63.3867 161.852 64.6523C163.023 65.918 163.609 67.5469 163.609 69.5391V71.7539H151.727ZM160.762 69.0469C160.762 66.4219 159.461 65.1094 156.859 65.1094C155.43 65.1094 154.352 65.4727 153.625 66.1992C152.898 66.9023 152.348 67.9922 151.973 69.4688H160.762V69.0469ZM179.078 81.3867C178.094 81.3867 177.344 80.8125 176.828 79.6641C176.102 80.2266 175.48 80.625 174.965 80.8594C173.91 81.3281 172.703 81.5625 171.344 81.5625C169.82 81.5625 168.613 81.082 167.723 80.1211C166.832 79.1602 166.387 77.9297 166.387 76.4297C166.387 74.4844 166.973 73.0781 168.145 72.2109C168.918 71.6484 170.371 71.1211 172.504 70.6289C173.324 70.4414 174.625 70.2656 176.406 70.1016V67.8164C176.406 67.0195 176.09 66.375 175.457 65.8828C174.848 65.3672 174.145 65.1094 173.348 65.1094C172.035 65.1094 170.43 65.8828 168.531 67.4297L167.055 65.4258C167.805 64.7461 168.789 64.1133 170.008 63.5273C171.344 62.8711 172.457 62.5547 173.348 62.5781C175.012 62.5781 176.406 63.0938 177.531 64.125C178.656 65.1562 179.219 66.4922 179.219 68.1328V78.293C179.336 78.7617 179.582 79.0078 179.957 79.0312C180.215 79.0547 180.719 78.7969 181.469 78.2578L182.031 80.1211C181.234 80.9648 180.25 81.3867 179.078 81.3867ZM176.406 72.5977C175.703 72.5977 174.789 72.7148 173.664 72.9492C173.008 73.0664 172.316 73.2188 171.59 73.4062C169.855 73.8516 168.988 74.8711 168.988 76.4648C168.988 77.332 169.234 78.0234 169.727 78.5391C170.219 79.0547 170.898 79.3125 171.766 79.3125C172.703 79.3125 173.652 79.0547 174.613 78.5391C175.785 77.9297 176.383 77.168 176.406 76.2539V72.5977ZM190.258 81.4922C187.797 81.4922 185.805 80.8008 184.281 79.418L185.723 77.2031C186.965 78.3984 188.57 79.0078 190.539 79.0312C191.383 79.0312 192.168 78.7148 192.895 78.082C193.621 77.4492 193.984 76.7344 193.984 75.9375C193.984 74.625 193.035 73.7109 191.137 73.1953C189.684 72.8203 188.242 72.3633 186.812 71.8242C185.43 71.0977 184.727 69.8672 184.703 68.1328C184.703 66.3984 185.254 65.0273 186.355 64.0195C187.48 62.9883 188.91 62.4844 190.645 62.5078C192.285 62.5312 194.02 63.082 195.848 64.1602L194.898 66.4102C193.211 65.332 191.758 64.793 190.539 64.793C188.453 64.793 187.41 65.6719 187.41 67.4297C187.41 68.3906 187.891 69.0352 188.852 69.3633C189.508 69.5742 191.242 70.1367 194.055 71.0508C195.977 71.9414 196.938 73.3477 196.938 75.2695C196.938 77.2148 196.316 78.7383 195.074 79.8398C193.832 80.9414 192.227 81.4922 190.258 81.4922Z" fill="white"/>
</svg>
