<svg viewBox="0 0 260 100" fill="none" xmlns="http://www.w3.org/2000/svg">
<rect width="260" height="100" fill="#BF1D1D"/>
<path d="M44.3164 61.2109H42.4531L37.3555 44.4766L32.2227 61.2109H29.9727L23.6094 38.4648L26.7383 37.7969L31.5195 55.7266L36.3711 38.1484H38.6562L43.4023 55.6914L48.2891 37.7969L50.7148 38.4648L44.3164 61.2109ZM61.332 61.3867C58.0977 61.3867 55.7539 60.1797 54.3008 57.7656C53.3164 56.1016 52.8242 54.1562 52.8242 51.9297C52.8242 48.8359 53.7969 46.4219 55.7422 44.6875C57.3359 43.2812 59.2109 42.5781 61.3672 42.5781C63.5 42.5781 65.3281 43.2812 66.8516 44.6875C68.7266 46.4219 69.6641 48.8359 69.6641 51.9297C69.6641 54.0859 69.1133 56.043 68.0117 57.8008C66.5117 60.1914 64.2852 61.3867 61.332 61.3867ZM61.543 44.9688C59.6445 44.9688 58.1914 45.7188 57.1836 47.2188C56.3398 48.5078 55.918 50.1484 55.918 52.1406C55.918 54.0391 56.3164 55.5977 57.1133 56.8164C58.0508 58.293 59.4102 59.043 61.1914 59.0664C63.043 59.0664 64.4258 58.3047 65.3398 56.7812C66.1602 55.5156 66.5703 53.9102 66.5703 51.9648C66.5703 50.1133 66.1953 48.5547 65.4453 47.2891C64.5781 45.7422 63.2773 44.9688 61.543 44.9688ZM81.793 46.2344C81.3477 45.9297 80.7031 45.7891 79.8594 45.8125C79.2031 45.8125 78.418 46.2812 77.5039 47.2188C76.6133 48.1562 76.168 48.9414 76.168 49.5742V61H73.3555V43.1758H76.168V46.1289C77.5742 43.9023 79.0625 42.7891 80.6328 42.7891C81.0312 42.7891 81.7109 42.9766 82.6719 43.3516L81.793 46.2344ZM97.5781 61.9141L89.7031 52.8789L88.4727 54.0742V61H85.6602V35.8984H88.4727V51.0508L96.3477 42.2266L98.7734 43.9141L91.6719 51.1914L100.109 60.3672L97.5781 61.9141ZM114.523 39.3438C113.961 39.3438 113.492 39.1562 113.117 38.7812C112.766 38.3828 112.59 37.9023 112.59 37.3398C112.59 36.7773 112.766 36.3203 113.117 35.9688C113.492 35.5938 113.961 35.4062 114.523 35.4062C115.086 35.4062 115.543 35.5938 115.895 35.9688C116.246 36.3438 116.422 36.8008 116.422 37.3398C116.422 37.9023 116.246 38.3828 115.895 38.7812C115.543 39.1562 115.086 39.3438 114.523 39.3438ZM112.871 61V43.1758H115.789V61H112.871ZM132.031 61V49.293C132.031 48.1211 131.762 47.1484 131.223 46.375C130.613 45.4844 129.758 45.0391 128.656 45.0391C127.672 45.0391 126.652 45.4258 125.598 46.1992C124.402 47.0664 123.793 48.0625 123.77 49.1875V61H120.957V43.1758H123.77V45.1797C124.707 44.2891 125.492 43.6797 126.125 43.3516C127.016 42.8359 127.965 42.5898 128.973 42.6133C130.637 42.6133 132.031 43.2344 133.156 44.4766C134.281 45.6953 134.844 47.1484 134.844 48.8359V61H132.031ZM152.387 58.5039C152.387 63.9648 149.984 66.707 145.18 66.7305C143.773 66.7305 142.566 66.1328 141.559 64.9375L143.246 62.5117C144.043 63.3555 144.84 63.7773 145.637 63.7773C147.98 63.7773 149.164 62.125 149.188 58.8203V38.043H152.387V58.5039ZM168.805 61.3867C167.82 61.3867 167.07 60.8125 166.555 59.6641C165.828 60.2266 165.207 60.625 164.691 60.8594C163.637 61.3281 162.43 61.5625 161.07 61.5625C159.547 61.5625 158.34 61.082 157.449 60.1211C156.559 59.1602 156.113 57.9297 156.113 56.4297C156.113 54.4844 156.699 53.0781 157.871 52.2109C158.645 51.6484 160.098 51.1211 162.23 50.6289C163.051 50.4414 164.352 50.2656 166.133 50.1016V47.8164C166.133 47.0195 165.816 46.375 165.184 45.8828C164.574 45.3672 163.871 45.1094 163.074 45.1094C161.762 45.1094 160.156 45.8828 158.258 47.4297L156.781 45.4258C157.531 44.7461 158.516 44.1133 159.734 43.5273C161.07 42.8711 162.184 42.5547 163.074 42.5781C164.738 42.5781 166.133 43.0938 167.258 44.125C168.383 45.1562 168.945 46.4922 168.945 48.1328V58.293C169.062 58.7617 169.309 59.0078 169.684 59.0312C169.941 59.0547 170.445 58.7969 171.195 58.2578L171.758 60.1211C170.961 60.9648 169.977 61.3867 168.805 61.3867ZM166.133 52.5977C165.43 52.5977 164.516 52.7148 163.391 52.9492C162.734 53.0664 162.043 53.2188 161.316 53.4062C159.582 53.8516 158.715 54.8711 158.715 56.4648C158.715 57.332 158.961 58.0234 159.453 58.5391C159.945 59.0547 160.625 59.3125 161.492 59.3125C162.43 59.3125 163.379 59.0547 164.34 58.5391C165.512 57.9297 166.109 57.168 166.133 56.2539V52.5977ZM181.566 61.457C180.043 61.457 178.648 60.7773 177.383 59.418V68.1016H174.57V43.1758H177.383V44.8633C178.977 43.3164 180.383 42.5547 181.602 42.5781C186.898 42.5781 189.559 45.5195 189.582 51.4023C189.582 54.2852 188.984 56.6055 187.789 58.3633C186.406 60.4258 184.332 61.457 181.566 61.457ZM181.566 44.9688C180.676 44.9688 179.82 45.25 179 45.8125C178.18 46.375 177.641 47.0664 177.383 47.8867V57.3789C178.836 58.5039 180.289 59.0664 181.742 59.0664C183.289 59.0664 184.496 58.2227 185.363 56.5352C186.09 55.1289 186.441 53.582 186.418 51.8945C186.418 47.2773 184.801 44.9688 181.566 44.9688ZM205.051 61.3867C204.066 61.3867 203.316 60.8125 202.801 59.6641C202.074 60.2266 201.453 60.625 200.938 60.8594C199.883 61.3281 198.676 61.5625 197.316 61.5625C195.793 61.5625 194.586 61.082 193.695 60.1211C192.805 59.1602 192.359 57.9297 192.359 56.4297C192.359 54.4844 192.945 53.0781 194.117 52.2109C194.891 51.6484 196.344 51.1211 198.477 50.6289C199.297 50.4414 200.598 50.2656 202.379 50.1016V47.8164C202.379 47.0195 202.062 46.375 201.43 45.8828C200.82 45.3672 200.117 45.1094 199.32 45.1094C198.008 45.1094 196.402 45.8828 194.504 47.4297L193.027 45.4258C193.777 44.7461 194.762 44.1133 195.98 43.5273C197.316 42.8711 198.43 42.5547 199.32 42.5781C200.984 42.5781 202.379 43.0938 203.504 44.125C204.629 45.1562 205.191 46.4922 205.191 48.1328V58.293C205.309 58.7617 205.555 59.0078 205.93 59.0312C206.188 59.0547 206.691 58.7969 207.441 58.2578L208.004 60.1211C207.207 60.9648 206.223 61.3867 205.051 61.3867ZM202.379 52.5977C201.676 52.5977 200.762 52.7148 199.637 52.9492C198.98 53.0664 198.289 53.2188 197.562 53.4062C195.828 53.8516 194.961 54.8711 194.961 56.4648C194.961 57.332 195.207 58.0234 195.699 58.5391C196.191 59.0547 196.871 59.3125 197.738 59.3125C198.676 59.3125 199.625 59.0547 200.586 58.5391C201.758 57.9297 202.355 57.168 202.379 56.2539V52.5977ZM221.891 61V49.293C221.891 48.1211 221.621 47.1484 221.082 46.375C220.473 45.4844 219.617 45.0391 218.516 45.0391C217.531 45.0391 216.512 45.4258 215.457 46.1992C214.262 47.0664 213.652 48.0625 213.629 49.1875V61H210.816V43.1758H213.629V45.1797C214.566 44.2891 215.352 43.6797 215.984 43.3516C216.875 42.8359 217.824 42.5898 218.832 42.6133C220.496 42.6133 221.891 43.2344 223.016 44.4766C224.141 45.6953 224.703 47.1484 224.703 48.8359V61H221.891Z" fill="white"/>
</svg>
