<svg viewBox="0 0 260 100" fill="none" xmlns="http://www.w3.org/2000/svg">
<rect width="260" height="100" fill="#68785B"/>
<path d="M74.0234 43.2109H72.1602L67.0625 26.4766L61.9297 43.2109H59.6797L53.3164 20.4648L56.4453 19.7969L61.2266 37.7266L66.0781 20.1484H68.3633L73.1094 37.6914L77.9961 19.7969L80.4219 20.4648L74.0234 43.2109ZM91.8477 28.2344C91.4023 27.9297 90.7578 27.7891 89.9141 27.8125C89.2578 27.8125 88.4727 28.2812 87.5586 29.2188C86.668 30.1562 86.2227 30.9414 86.2227 31.5742V43H83.4102V25.1758H86.2227V28.1289C87.6289 25.9023 89.1172 24.7891 90.6875 24.7891C91.0859 24.7891 91.7656 24.9766 92.7266 25.3516L91.8477 28.2344ZM97.6484 21.3438C97.0859 21.3438 96.6172 21.1562 96.2422 20.7812C95.8906 20.3828 95.7148 19.9023 95.7148 19.3398C95.7148 18.7773 95.8906 18.3203 96.2422 17.9688C96.6172 17.5938 97.0859 17.4062 97.6484 17.4062C98.2109 17.4062 98.668 17.5938 99.0195 17.9688C99.3711 18.3438 99.5469 18.8008 99.5469 19.3398C99.5469 19.9023 99.3711 20.3828 99.0195 20.7812C98.668 21.1562 98.2109 21.3438 97.6484 21.3438ZM95.9961 43V25.1758H98.9141V43H95.9961ZM109.496 43.2812C108.16 43.2812 107.117 42.6719 106.367 41.4531C105.711 40.4219 105.383 39.2031 105.383 37.7969V27.5312H102.57V25.1406H105.383V21.5195H108.23V25.1406H112.871V27.5664L108.23 27.5312V38.2188C108.23 39.8359 108.922 40.6328 110.305 40.6094C111.055 40.6094 111.992 40.0703 113.117 38.9922L114.488 40.9609C113.152 42.5078 111.488 43.2812 109.496 43.2812ZM118.883 33.7539C118.883 37.3164 119.891 39.543 121.906 40.4336C122.703 40.7852 123.535 40.9727 124.402 40.9961C125.809 40.9961 127.379 40.2227 129.113 38.6758L130.555 40.6797C128.633 42.5078 126.488 43.4219 124.121 43.4219C120.863 43.4219 118.543 42.2031 117.16 39.7656C116.27 38.1953 115.824 36.3086 115.824 34.1055C115.824 31.3633 116.539 29.1484 117.969 27.4609C119.492 25.6562 121.602 24.7539 124.297 24.7539C126.266 24.7539 127.836 25.3867 129.008 26.6523C130.18 27.918 130.766 29.5469 130.766 31.5391V33.7539H118.883ZM127.918 31.0469C127.918 28.4219 126.617 27.1094 124.016 27.1094C122.586 27.1094 121.508 27.4727 120.781 28.1992C120.055 28.9023 119.504 29.9922 119.129 31.4688H127.918V31.0469ZM156.043 43.3867C155.059 43.3867 154.309 42.8125 153.793 41.6641C153.066 42.2266 152.445 42.625 151.93 42.8594C150.875 43.3281 149.668 43.5625 148.309 43.5625C146.785 43.5625 145.578 43.082 144.688 42.1211C143.797 41.1602 143.352 39.9297 143.352 38.4297C143.352 36.4844 143.938 35.0781 145.109 34.2109C145.883 33.6484 147.336 33.1211 149.469 32.6289C150.289 32.4414 151.59 32.2656 153.371 32.1016V29.8164C153.371 29.0195 153.055 28.375 152.422 27.8828C151.812 27.3672 151.109 27.1094 150.312 27.1094C149 27.1094 147.395 27.8828 145.496 29.4297L144.02 27.4258C144.77 26.7461 145.754 26.1133 146.973 25.5273C148.309 24.8711 149.422 24.5547 150.312 24.5781C151.977 24.5781 153.371 25.0938 154.496 26.125C155.621 27.1562 156.184 28.4922 156.184 30.1328V40.293C156.301 40.7617 156.547 41.0078 156.922 41.0312C157.18 41.0547 157.684 40.7969 158.434 40.2578L158.996 42.1211C158.199 42.9648 157.215 43.3867 156.043 43.3867ZM153.371 34.5977C152.668 34.5977 151.754 34.7148 150.629 34.9492C149.973 35.0664 149.281 35.2188 148.555 35.4062C146.82 35.8516 145.953 36.8711 145.953 38.4648C145.953 39.332 146.199 40.0234 146.691 40.5391C147.184 41.0547 147.863 41.3125 148.73 41.3125C149.668 41.3125 150.617 41.0547 151.578 40.5391C152.75 39.9297 153.348 39.168 153.371 38.2539V34.5977ZM174.816 40.5039C174.816 45.9648 172.414 48.707 167.609 48.7305C166.203 48.7305 164.996 48.1328 163.988 46.9375L165.676 44.5117C166.473 45.3555 167.27 45.7773 168.066 45.7773C170.41 45.7773 171.594 44.125 171.617 40.8203V20.043H174.816V40.5039ZM186.98 43.3867C183.746 43.3867 181.402 42.1797 179.949 39.7656C178.965 38.1016 178.473 36.1562 178.473 33.9297C178.473 30.8359 179.445 28.4219 181.391 26.6875C182.984 25.2812 184.859 24.5781 187.016 24.5781C189.148 24.5781 190.977 25.2812 192.5 26.6875C194.375 28.4219 195.312 30.8359 195.312 33.9297C195.312 36.0859 194.762 38.043 193.66 39.8008C192.16 42.1914 189.934 43.3867 186.98 43.3867ZM187.191 26.9688C185.293 26.9688 183.84 27.7188 182.832 29.2188C181.988 30.5078 181.566 32.1484 181.566 34.1406C181.566 36.0391 181.965 37.5977 182.762 38.8164C183.699 40.293 185.059 41.043 186.84 41.0664C188.691 41.0664 190.074 40.3047 190.988 38.7812C191.809 37.5156 192.219 35.9102 192.219 33.9648C192.219 32.1133 191.844 30.5547 191.094 29.2891C190.227 27.7422 188.926 26.9688 187.191 26.9688ZM206.527 43.3516C204.98 43.3516 203.422 42.7539 201.852 41.5586L201.359 43H199.039V17.793H201.852V26.8633C203.492 25.3164 204.992 24.5547 206.352 24.5781C208.789 24.5781 210.711 25.5156 212.117 27.3906C213.383 29.0781 214.027 31.1758 214.051 33.6836C214.051 36.4492 213.488 38.6758 212.363 40.3633C211.098 42.3555 209.152 43.3516 206.527 43.3516ZM206.316 27.0391C204.137 27.0391 202.648 27.9062 201.852 29.6406V39.0977C202.273 39.6836 202.941 40.1406 203.855 40.4688C204.676 40.7969 205.461 40.9727 206.211 40.9961C209.258 40.9961 210.781 38.5938 210.781 33.7891C210.781 32.0312 210.488 30.5547 209.902 29.3594C209.105 27.8125 207.91 27.0391 206.316 27.0391ZM54.7051 83.3516C53.4863 82.1328 52.0684 80.375 50.4512 78.0781C49.3496 76.5078 48.1543 74.6562 46.8652 72.5234L45.2832 72.5938V83H42.084V59.9375L49.3262 59.832C53.5215 59.8789 55.6074 62 55.584 66.1953C55.5605 67.8594 55.0566 69.2188 54.0723 70.2734C53.0879 71.3281 51.752 72.0195 50.0645 72.3477C50.8613 73.4492 52.1504 75.1719 53.9316 77.5156C54.8926 78.7578 56.4863 80.4688 58.7129 82.6484L54.7051 83.3516ZM48.4121 62.0117L45.2832 62.082V70.168H47.6035C49.3379 70.168 50.6035 69.8516 51.4004 69.2188C52.2207 68.5859 52.6309 67.4492 52.6309 65.8086C52.6309 63.207 51.2246 61.9414 48.4121 62.0117ZM63.3184 73.7539C63.3184 77.3164 64.3262 79.543 66.3418 80.4336C67.1387 80.7852 67.9707 80.9727 68.8379 80.9961C70.2441 80.9961 71.8145 80.2227 73.5488 78.6758L74.9902 80.6797C73.0684 82.5078 70.9238 83.4219 68.5566 83.4219C65.2988 83.4219 62.9785 82.2031 61.5957 79.7656C60.7051 78.1953 60.2598 76.3086 60.2598 74.1055C60.2598 71.3633 60.9746 69.1484 62.4043 67.4609C63.9277 65.6562 66.0371 64.7539 68.7324 64.7539C70.7012 64.7539 72.2715 65.3867 73.4434 66.6523C74.6152 67.918 75.2012 69.5469 75.2012 71.5391V73.7539H63.3184ZM72.3535 71.0469C72.3535 68.4219 71.0527 67.1094 68.4512 67.1094C67.0215 67.1094 65.9434 67.4727 65.2168 68.1992C64.4902 68.9023 63.9395 69.9922 63.5645 71.4688H72.3535V71.0469ZM89.7559 90.1016V81.0664C87.5293 82.6836 85.8066 83.4805 84.5879 83.457C82.3379 83.457 80.6035 82.3438 79.3848 80.1172C78.3535 78.2891 77.8379 76.168 77.8379 73.7539C77.8379 71.3398 78.3652 69.3125 79.4199 67.6719C80.7793 65.5859 82.8418 64.5547 85.6074 64.5781C86.3105 64.5781 87.0605 64.7891 87.8574 65.2109C88.6777 65.6094 89.3105 66.0781 89.7559 66.6172V65.1758H92.6387V90.1016H89.7559ZM89.7559 69.8516C89.498 68.9844 88.9824 68.2812 88.209 67.7422C87.459 67.2031 86.627 66.9336 85.7129 66.9336C83.9551 66.9336 82.6777 67.7422 81.8809 69.3594C81.248 70.5781 80.9316 72.1484 80.9316 74.0703C80.9316 75.7109 81.3184 77.1875 82.0918 78.5C83.0059 80.0469 84.2246 80.8203 85.748 80.8203C87.0137 80.8203 88.3496 80.2695 89.7559 79.168V69.8516ZM110.955 83H108.389L108.002 81.1367C106.221 82.8242 104.381 83.6562 102.482 83.6328C100.842 83.6328 99.5176 82.9648 98.5098 81.6289C97.5957 80.3867 97.1504 78.9219 97.1738 77.2344V65.1758H99.9863V77.0938C99.9863 79.7656 101.053 81.1016 103.186 81.1016C104.193 81.1016 105.271 80.6797 106.42 79.8359C107.568 78.9922 108.143 78.0781 108.143 77.0938V65.1758H110.955V83ZM117.494 61.3438C116.932 61.3438 116.463 61.1562 116.088 60.7812C115.736 60.3828 115.561 59.9023 115.561 59.3398C115.561 58.7773 115.736 58.3203 116.088 57.9688C116.463 57.5938 116.932 57.4062 117.494 57.4062C118.057 57.4062 118.514 57.5938 118.865 57.9688C119.217 58.3438 119.393 58.8008 119.393 59.3398C119.393 59.9023 119.217 60.3828 118.865 60.7812C118.514 61.1562 118.057 61.3438 117.494 61.3438ZM115.842 83V65.1758H118.76V83H115.842ZM132.365 68.2344C131.92 67.9297 131.275 67.7891 130.432 67.8125C129.775 67.8125 128.99 68.2812 128.076 69.2188C127.186 70.1562 126.74 70.9414 126.74 71.5742V83H123.928V65.1758H126.74V68.1289C128.146 65.9023 129.635 64.7891 131.205 64.7891C131.604 64.7891 132.283 64.9766 133.244 65.3516L132.365 68.2344ZM138.412 73.7539C138.412 77.3164 139.42 79.543 141.436 80.4336C142.232 80.7852 143.064 80.9727 143.932 80.9961C145.338 80.9961 146.908 80.2227 148.643 78.6758L150.084 80.6797C148.162 82.5078 146.018 83.4219 143.65 83.4219C140.393 83.4219 138.072 82.2031 136.689 79.7656C135.799 78.1953 135.354 76.3086 135.354 74.1055C135.354 71.3633 136.068 69.1484 137.498 67.4609C139.021 65.6562 141.131 64.7539 143.826 64.7539C145.795 64.7539 147.365 65.3867 148.537 66.6523C149.709 67.918 150.295 69.5469 150.295 71.5391V73.7539H138.412ZM147.447 71.0469C147.447 68.4219 146.146 67.1094 143.545 67.1094C142.115 67.1094 141.037 67.4727 140.311 68.1992C139.584 68.9023 139.033 69.9922 138.658 71.4688H147.447V71.0469ZM174.412 83V70.5547C174.412 68.2344 173.357 67.0625 171.248 67.0391C170.592 67.0391 169.76 67.4258 168.752 68.1992C167.533 69.1367 166.924 70.2031 166.924 71.3984V83H164.111V70.3789C164.111 69.418 163.854 68.6328 163.338 68.0234C162.822 67.3906 162.096 67.0742 161.158 67.0742C160.221 67.0742 159.236 67.5078 158.205 68.375C157.197 69.2422 156.693 70.1445 156.693 71.082V83H153.881V65.1758H156.693V67.707C158.521 65.7383 160.209 64.7539 161.756 64.7539C162.74 64.7539 163.619 65.0703 164.393 65.7031C165.189 66.3125 165.787 67.0859 166.186 68.0234C168.201 65.7266 170.1 64.5781 171.881 64.5781C173.357 64.5781 174.623 65.1641 175.678 66.3359C176.732 67.5078 177.26 68.8555 177.26 70.3789V83H174.412ZM183.975 73.7539C183.975 77.3164 184.982 79.543 186.998 80.4336C187.795 80.7852 188.627 80.9727 189.494 80.9961C190.9 80.9961 192.471 80.2227 194.205 78.6758L195.646 80.6797C193.725 82.5078 191.58 83.4219 189.213 83.4219C185.955 83.4219 183.635 82.2031 182.252 79.7656C181.361 78.1953 180.916 76.3086 180.916 74.1055C180.916 71.3633 181.631 69.1484 183.061 67.4609C184.584 65.6562 186.693 64.7539 189.389 64.7539C191.357 64.7539 192.928 65.3867 194.1 66.6523C195.271 67.918 195.857 69.5469 195.857 71.5391V73.7539H183.975ZM193.01 71.0469C193.01 68.4219 191.709 67.1094 189.107 67.1094C187.678 67.1094 186.6 67.4727 185.873 68.1992C185.146 68.9023 184.596 69.9922 184.221 71.4688H193.01V71.0469ZM210.518 83V71.293C210.518 70.1211 210.248 69.1484 209.709 68.375C209.1 67.4844 208.244 67.0391 207.143 67.0391C206.158 67.0391 205.139 67.4258 204.084 68.1992C202.889 69.0664 202.279 70.0625 202.256 71.1875V83H199.443V65.1758H202.256V67.1797C203.193 66.2891 203.979 65.6797 204.611 65.3516C205.502 64.8359 206.451 64.5898 207.459 64.6133C209.123 64.6133 210.518 65.2344 211.643 66.4766C212.768 67.6953 213.33 69.1484 213.33 70.8359V83H210.518ZM223.279 83.2812C221.943 83.2812 220.9 82.6719 220.15 81.4531C219.494 80.4219 219.166 79.2031 219.166 77.7969V67.5312H216.354V65.1406H219.166V61.5195H222.014V65.1406H226.654V67.5664L222.014 67.5312V78.2188C222.014 79.8359 222.705 80.6328 224.088 80.6094C224.838 80.6094 225.775 80.0703 226.9 78.9922L228.271 80.9609C226.936 82.5078 225.271 83.2812 223.279 83.2812Z" fill="white"/>
</svg>
