<svg width="73" viewBox="0 0 146 138" fill="none" xmlns="http://www.w3.org/2000/svg">
<path d="M73 5C48.16 5 28 25.16 28 50C28 74.84 48.16 95 73 95C97.84 95 118 74.84 118 50C118 25.16 97.84 5 73 5ZM77.5 72.5H68.5V45.5H77.5V72.5ZM77.5 36.5H68.5V27.5H77.5V36.5Z" fill="white"/>
<path d="M45.0059 126.352L42.8613 119.566H34.7754L32.7012 126.352L29.748 126L37.4121 102.445H40.2949L48.0645 125.859L45.0059 126.352ZM38.8184 106.172L35.5488 117.07H42.1582L38.8184 106.172ZM58.9277 126.352C57.3809 126.352 55.8223 125.754 54.252 124.559L53.7598 126H51.4395V100.793H54.252V109.863C55.8926 108.316 57.3926 107.555 58.752 107.578C61.1895 107.578 63.1113 108.516 64.5176 110.391C65.7832 112.078 66.4277 114.176 66.4512 116.684C66.4512 119.449 65.8887 121.676 64.7637 123.363C63.498 125.355 61.5527 126.352 58.9277 126.352ZM58.7168 110.039C56.5371 110.039 55.0488 110.906 54.252 112.641V122.098C54.6738 122.684 55.3418 123.141 56.2559 123.469C57.0762 123.797 57.8613 123.973 58.6113 123.996C61.6582 123.996 63.1816 121.594 63.1816 116.789C63.1816 115.031 62.8887 113.555 62.3027 112.359C61.5059 110.812 60.3105 110.039 58.7168 110.039ZM77.5605 126.387C74.3262 126.387 71.9824 125.18 70.5293 122.766C69.5449 121.102 69.0527 119.156 69.0527 116.93C69.0527 113.836 70.0254 111.422 71.9707 109.688C73.5645 108.281 75.4395 107.578 77.5957 107.578C79.7285 107.578 81.5566 108.281 83.0801 109.688C84.9551 111.422 85.8926 113.836 85.8926 116.93C85.8926 119.086 85.3418 121.043 84.2402 122.801C82.7402 125.191 80.5137 126.387 77.5605 126.387ZM77.7715 109.969C75.873 109.969 74.4199 110.719 73.4121 112.219C72.5684 113.508 72.1465 115.148 72.1465 117.141C72.1465 119.039 72.5449 120.598 73.3418 121.816C74.2793 123.293 75.6387 124.043 77.4199 124.066C79.2715 124.066 80.6543 123.305 81.5684 121.781C82.3887 120.516 82.7988 118.91 82.7988 116.965C82.7988 115.113 82.4238 113.555 81.6738 112.289C80.8066 110.742 79.5059 109.969 77.7715 109.969ZM103.365 126H100.799L100.412 124.137C98.6309 125.824 96.791 126.656 94.8926 126.633C93.252 126.633 91.9277 125.965 90.9199 124.629C90.0059 123.387 89.5605 121.922 89.584 120.234V108.176H92.3965V120.094C92.3965 122.766 93.4629 124.102 95.5957 124.102C96.6035 124.102 97.6816 123.68 98.8301 122.836C99.9785 121.992 100.553 121.078 100.553 120.094V108.176H103.365V126ZM113.385 126.281C112.049 126.281 111.006 125.672 110.256 124.453C109.6 123.422 109.271 122.203 109.271 120.797V110.531H106.459V108.141H109.271V104.52H112.119V108.141H116.76V110.566L112.119 110.531V121.219C112.119 122.836 112.811 123.633 114.193 123.609C114.943 123.609 115.881 123.07 117.006 121.992L118.377 123.961C117.041 125.508 115.377 126.281 113.385 126.281Z" fill="white"/>
</svg>
