<svg width="73" viewBox="0 0 146 138" fill="none" xmlns="http://www.w3.org/2000/svg">
<path d="M115.142 45.875L93.1015 45.8333C90.6769 45.8333 88.6932 47.7083 88.6932 50V87.5C88.6932 89.7917 90.6769 91.6667 93.1015 91.6667H115.142C117.567 91.6667 119.551 89.7917 119.551 87.5V50C119.551 47.7083 117.567 45.875 115.142 45.875ZM115.142 83.3334H93.1015V54.1667H115.142V83.3334ZM101.918 8.33337H22.57C17.6769 8.33337 13.7536 12.0417 13.7536 16.6667V66.6667C13.7536 71.25 17.6769 75 22.57 75H53.4275V83.3334H44.6112V91.6667H79.8768V83.3334H71.0604V75H79.8768V66.6667H22.57V16.6667H101.918V37.5H110.735V16.6667C110.735 12.0417 106.767 8.33337 101.918 8.33337ZM66.5199 37.5L62.2439 25L57.968 37.5H44.6112L55.4994 44.8333L51.3557 56.9583L62.2439 49.4583L73.1323 56.9583L68.9885 44.8333L79.8768 37.5H66.5199Z" fill="white"/>
<path d="M30.2899 118.107H19.0162L17.1118 124.515H14.2172L21.4537 99.6027H27.8524L35.0889 124.515H32.1943L30.2899 118.107ZM19.6637 115.623H29.6424L25.6433 101.979H23.6628L19.6637 115.623ZM38.7339 106.515H41.5523V108.963C43.736 107.547 46.0593 106.599 48.5223 106.119V108.855C47.532 109.047 46.4529 109.347 45.2849 109.755C44.1423 110.139 43.2282 110.499 42.5426 110.835L41.5904 111.303V124.515H38.7339V106.515ZM57.9565 124.911C56.6615 124.911 55.6459 124.719 54.9095 124.335C54.1986 123.927 53.6781 123.255 53.348 122.319C53.0433 121.359 52.8909 120.027 52.8909 118.323V108.855H50.1868V106.515H52.8909V101.007H55.7094V106.515H61.7652V108.855H55.7094V117.459C55.7094 118.803 55.7602 119.811 55.8617 120.483C55.9633 121.131 56.2045 121.635 56.5854 121.995C56.9916 122.331 57.6137 122.499 58.4516 122.499L61.8414 122.283L62.0318 124.515C60.229 124.779 58.8706 124.911 57.9565 124.911ZM65.2534 106.515H68.0719V124.515H65.2534V106.515ZM65.2534 99.3148H68.0719V102.447H65.2534V99.3148ZM80.1802 124.875C78.2759 124.875 76.7651 124.563 75.6479 123.939C74.5307 123.291 73.7308 122.295 73.2484 120.951C72.766 119.583 72.5248 117.771 72.5248 115.515C72.5248 112.659 73.0326 110.379 74.0482 108.675C75.0639 106.971 77.0317 106.119 79.9517 106.119C80.7135 106.119 81.5006 106.155 82.3131 106.227C83.1256 106.299 84.2301 106.455 85.6267 106.695L85.5124 108.891C83.5065 108.675 81.9703 108.567 80.9039 108.567C79.4566 108.567 78.3394 108.783 77.5522 109.215C76.7905 109.623 76.2446 110.331 75.9145 111.339C75.6098 112.323 75.4574 113.739 75.4574 115.587C75.4574 117.339 75.6098 118.707 75.9145 119.691C76.2192 120.651 76.7651 121.359 77.5522 121.815C78.3648 122.247 79.5328 122.463 81.0562 122.463L85.5505 122.139L85.6648 124.371C83.2272 124.707 81.399 124.875 80.1802 124.875ZM90.1418 98.6667H92.9983V124.515H90.1418V98.6667ZM105.627 124.875C102.733 124.875 100.676 124.167 99.4573 122.751C98.2639 121.311 97.6672 119.055 97.6672 115.983C97.6672 112.647 98.3147 110.175 99.6097 108.567C100.905 106.959 102.936 106.155 105.704 106.155C108.243 106.155 110.135 106.851 111.379 108.243C112.649 109.611 113.283 111.723 113.283 114.579L113.131 116.631H100.562C100.562 118.119 100.727 119.283 101.057 120.123C101.412 120.963 101.996 121.575 102.809 121.959C103.647 122.319 104.802 122.499 106.275 122.499C107.012 122.499 107.862 122.487 108.827 122.463C109.792 122.415 110.668 122.355 111.455 122.283L112.56 122.175L112.636 124.299C109.817 124.683 107.481 124.875 105.627 124.875ZM110.427 114.471C110.427 112.287 110.059 110.739 109.322 109.827C108.586 108.891 107.38 108.423 105.704 108.423C103.952 108.423 102.657 108.915 101.819 109.899C100.981 110.859 100.549 112.383 100.524 114.471H110.427ZM123.714 124.875C122.19 124.875 120.324 124.707 118.115 124.371L116.972 124.191L117.125 121.851C120.096 122.259 122.279 122.463 123.676 122.463C125.199 122.463 126.329 122.235 127.065 121.779C127.827 121.299 128.208 120.543 128.208 119.511C128.208 118.767 128.018 118.203 127.637 117.819C127.281 117.435 126.812 117.159 126.228 116.991C125.669 116.823 124.869 116.667 123.828 116.523L122.876 116.379C121.352 116.139 120.159 115.851 119.296 115.515C118.432 115.179 117.785 114.711 117.353 114.111C116.922 113.487 116.706 112.635 116.706 111.555C116.706 109.611 117.328 108.231 118.572 107.415C119.816 106.599 121.581 106.191 123.866 106.191C125.669 106.191 127.51 106.347 129.389 106.659L130.455 106.839L130.379 109.143C127.637 108.759 125.491 108.567 123.942 108.567C122.47 108.567 121.365 108.783 120.629 109.215C119.918 109.647 119.562 110.319 119.562 111.231C119.562 111.879 119.74 112.383 120.096 112.743C120.451 113.079 120.908 113.331 121.467 113.499C122.051 113.643 122.863 113.799 123.904 113.967L124.856 114.147C126.431 114.411 127.649 114.723 128.513 115.083C129.376 115.419 130.011 115.911 130.417 116.559C130.849 117.207 131.065 118.107 131.065 119.259C131.065 121.203 130.455 122.631 129.236 123.543C128.043 124.431 126.202 124.875 123.714 124.875Z" fill="white"/>
</svg>
