<svg viewBox="0 0 138 138" fill="none" xmlns="http://www.w3.org/2000/svg">
<path d="M108.833 45.875L88 45.8333C85.7083 45.8333 83.8333 47.7083 83.8333 50V87.5C83.8333 89.7917 85.7083 91.6667 88 91.6667H108.833C111.125 91.6667 113 89.7917 113 87.5V50C113 47.7083 111.125 45.875 108.833 45.875ZM108.833 83.3334H88V54.1667H108.833V83.3334ZM96.3333 8.33334H21.3333C16.7083 8.33334 13 12.0417 13 16.6667V66.6667C13 71.25 16.7083 75 21.3333 75H50.5V83.3334H42.1667V91.6667H75.5V83.3334H67.1667V75H75.5V66.6667H21.3333V16.6667H96.3333V37.5H104.667V16.6667C104.667 12.0417 100.917 8.33334 96.3333 8.33334ZM62.875 37.5L58.8333 25L54.7917 37.5H42.1667L52.4583 44.8333L48.5417 56.9583L58.8333 49.4583L69.125 56.9583L65.2083 44.8333L75.5 37.5H62.875Z" fill="black"/>
<path d="M28.6302 118.592H17.9742L16.1742 125H13.4382L20.2782 100.088H26.3262L33.1662 125H30.4302L28.6302 118.592ZM18.5862 116.108H28.0182L24.2382 102.464H22.3662L18.5862 116.108ZM36.6115 107H39.2755V109.448C41.3395 108.032 43.5355 107.084 45.8635 106.604V109.34C44.9275 109.532 43.9075 109.832 42.8035 110.24C41.7235 110.624 40.8595 110.984 40.2115 111.32L39.3115 111.788V125H36.6115V107ZM54.7808 125.396C53.5568 125.396 52.5968 125.204 51.9008 124.82C51.2288 124.412 50.7368 123.74 50.4248 122.804C50.1368 121.844 49.9928 120.512 49.9928 118.808V109.34H47.4368V107H49.9928V101.492H52.6568V107H58.3808V109.34H52.6568V117.944C52.6568 119.288 52.7048 120.296 52.8008 120.968C52.8968 121.616 53.1248 122.12 53.4848 122.48C53.8688 122.816 54.4568 122.984 55.2488 122.984L58.4528 122.768L58.6328 125C56.9288 125.264 55.6448 125.396 54.7808 125.396ZM61.6779 107H64.3419V125H61.6779V107ZM61.6779 99.8H64.3419V102.932H61.6779V99.8ZM75.7868 125.36C73.9868 125.36 72.5588 125.048 71.5028 124.424C70.4468 123.776 69.6908 122.78 69.2348 121.436C68.7788 120.068 68.5508 118.256 68.5508 116C68.5508 113.144 69.0308 110.864 69.9908 109.16C70.9508 107.456 72.8108 106.604 75.5708 106.604C76.2908 106.604 77.0348 106.64 77.8028 106.712C78.5708 106.784 79.6148 106.94 80.9348 107.18L80.8268 109.376C78.9308 109.16 77.4788 109.052 76.4708 109.052C75.1028 109.052 74.0468 109.268 73.3028 109.7C72.5828 110.108 72.0668 110.816 71.7548 111.824C71.4668 112.808 71.3228 114.224 71.3228 116.072C71.3228 117.824 71.4668 119.192 71.7548 120.176C72.0428 121.136 72.5588 121.844 73.3028 122.3C74.0708 122.732 75.1748 122.948 76.6148 122.948L80.8628 122.624L80.9708 124.856C78.6668 125.192 76.9388 125.36 75.7868 125.36ZM85.2025 99.152H87.9025V125H85.2025V99.152ZM99.8396 125.36C97.1036 125.36 95.1596 124.652 94.0076 123.236C92.8796 121.796 92.3156 119.54 92.3156 116.468C92.3156 113.132 92.9276 110.66 94.1516 109.052C95.3756 107.444 97.2956 106.64 99.9116 106.64C102.312 106.64 104.1 107.336 105.276 108.728C106.476 110.096 107.076 112.208 107.076 115.064L106.932 117.116H95.0516C95.0516 118.604 95.2076 119.768 95.5196 120.608C95.8556 121.448 96.4076 122.06 97.1756 122.444C97.9676 122.804 99.0596 122.984 100.452 122.984C101.148 122.984 101.952 122.972 102.864 122.948C103.776 122.9 104.604 122.84 105.348 122.768L106.392 122.66L106.464 124.784C103.8 125.168 101.592 125.36 99.8396 125.36ZM104.376 114.956C104.376 112.772 104.028 111.224 103.332 110.312C102.636 109.376 101.496 108.908 99.9116 108.908C98.2556 108.908 97.0316 109.4 96.2396 110.384C95.4476 111.344 95.0396 112.868 95.0156 114.956H104.376ZM116.935 125.36C115.495 125.36 113.731 125.192 111.643 124.856L110.563 124.676L110.707 122.336C113.515 122.744 115.579 122.948 116.899 122.948C118.339 122.948 119.407 122.72 120.103 122.264C120.823 121.784 121.183 121.028 121.183 119.996C121.183 119.252 121.003 118.688 120.643 118.304C120.307 117.92 119.863 117.644 119.311 117.476C118.783 117.308 118.027 117.152 117.043 117.008L116.143 116.864C114.703 116.624 113.575 116.336 112.759 116C111.943 115.664 111.331 115.196 110.923 114.596C110.515 113.972 110.311 113.12 110.311 112.04C110.311 110.096 110.899 108.716 112.075 107.9C113.251 107.084 114.919 106.676 117.079 106.676C118.783 106.676 120.523 106.832 122.299 107.144L123.307 107.324L123.235 109.628C120.643 109.244 118.615 109.052 117.151 109.052C115.759 109.052 114.715 109.268 114.019 109.7C113.347 110.132 113.011 110.804 113.011 111.716C113.011 112.364 113.179 112.868 113.515 113.228C113.851 113.564 114.283 113.816 114.811 113.984C115.363 114.128 116.131 114.284 117.115 114.452L118.015 114.632C119.503 114.896 120.655 115.208 121.471 115.568C122.287 115.904 122.887 116.396 123.271 117.044C123.679 117.692 123.883 118.592 123.883 119.744C123.883 121.688 123.307 123.116 122.155 124.028C121.027 124.916 119.287 125.36 116.935 125.36Z" fill="black"/>
</svg>
