<svg viewBox="0 0 138 146" fill="none" xmlns="http://www.w3.org/2000/svg">
<path d="M110.833 45.875L90 45.8333C87.7083 45.8333 85.8333 47.7083 85.8333 50V87.5C85.8333 89.7917 87.7083 91.6667 90 91.6667H110.833C113.125 91.6667 115 89.7917 115 87.5V50C115 47.7083 113.125 45.875 110.833 45.875ZM110.833 83.3334H90V54.1667H110.833V83.3334ZM98.3333 8.33334H23.3333C18.7083 8.33334 15 12.0417 15 16.6667V66.6667C15 71.25 18.7083 75 23.3333 75H52.5V83.3334H44.1667V91.6667H77.5V83.3334H69.1667V75H77.5V66.6667H23.3333V16.6667H98.3333V37.5H106.667V16.6667C106.667 12.0417 102.917 8.33334 98.3333 8.33334ZM64.875 37.5L60.8333 25L56.7917 37.5H44.1667L54.4583 44.8333L50.5417 56.9583L60.8333 49.4583L71.125 56.9583L67.2083 44.8333L77.5 37.5H64.875Z" fill="black"/>
<path d="M47.508 111.128H36.384V113.288H47.508V111.128ZM44.844 132.476V138.524H38.544V132.476H44.844ZM47.256 130.28H36.168V142.34H38.544V140.684H47.256V130.28ZM36.204 127.616H47.364V125.456H36.204V127.616ZM36.204 122.828H47.364V120.704H36.204V122.828ZM34.512 118.04H48.696V115.844H34.512V118.04ZM55.788 139.82C53.808 139.82 53.448 139.532 53.448 138.128V126.104H62.988V128.084H65.652V111.92H50.352V114.44H62.988V123.548H50.748V138.128C50.748 141.512 51.864 142.34 55.572 142.34H62.772C66.336 142.34 67.164 140.756 67.56 134.996C66.804 134.816 65.688 134.384 65.04 133.88C64.824 138.884 64.536 139.82 62.592 139.82H55.788ZM96.864 135.248H88.224V132.548H96.864V135.248ZM88.224 127.904H96.864V130.424H88.224V127.904ZM77.82 121.532V118.94H85.56V121.532H77.82ZM96.288 118.94V121.532H88.224V118.94H96.288ZM103.236 130.424H99.528V125.924H88.224V123.404H98.952V117.068H88.224V114.98H102.552V112.784H88.224V109.904H85.56V112.784H71.52V114.98H85.56V117.068H75.264V123.404H85.56V125.924H74.256V127.904H85.56V130.424H70.836V132.548H85.56V135.248H73.932V137.3H85.56V139.784C85.56 140.396 85.344 140.612 84.66 140.648C84.048 140.648 81.888 140.684 79.728 140.612C80.088 141.224 80.52 142.196 80.664 142.88C83.652 142.88 85.524 142.844 86.64 142.448C87.72 142.052 88.224 141.44 88.224 139.784V137.3H96.864V138.92H99.528V132.548H103.236V130.424Z" fill="black"/>
</svg>
