<svg width="73" viewBox="0 0 146 138" fill="none" xmlns="http://www.w3.org/2000/svg">
<path d="M117.258 43.3613L95.2174 43.3219C92.7928 43.3219 90.8091 45.0941 90.8091 47.2603V82.7055C90.8091 84.8716 92.7928 86.6439 95.2174 86.6439H117.258C119.683 86.6439 121.667 84.8716 121.667 82.7055V47.2603C121.667 45.0941 119.683 43.3613 117.258 43.3613ZM117.258 78.7672H95.2174V51.1986H117.258V78.7672ZM104.034 7.87671H24.686C19.7928 7.87671 15.8696 11.3819 15.8696 15.7534V63.0137C15.8696 67.3459 19.7928 70.8904 24.686 70.8904H55.5435V78.7672H46.7271V86.6439H81.9928V78.7672H73.1764V70.8904H81.9928V63.0137H24.686V15.7534H104.034V35.4452H112.851V15.7534C112.851 11.3819 108.883 7.87671 104.034 7.87671ZM68.6359 35.4452L64.3599 23.6301L60.084 35.4452H46.7271L57.6153 42.3767L53.4717 53.8373L64.3599 46.7482L75.2482 53.8373L71.1044 42.3767L81.9928 35.4452H68.6359Z" fill="white"/>
<path d="M50.2621 105.039H38.4932V107.08H50.2621V105.039ZM47.4437 125.217V130.934H40.7784V125.217H47.4437ZM49.9955 123.141H38.2647V134.541H40.7784V132.975H49.9955V123.141ZM38.3028 120.623H50.1097V118.582H38.3028V120.623ZM38.3028 116.098H50.1097V114.09H38.3028V116.098ZM36.5127 111.572H51.519V109.496H36.5127V111.572ZM59.0221 132.159C56.9273 132.159 56.5464 131.886 56.5464 130.559V119.194H66.6395V121.066H69.4579V105.787H53.271V108.169H66.6395V116.778H53.6899V130.559C53.6899 133.758 54.8706 134.541 58.7936 134.541H66.411C70.1816 134.541 71.0576 133.043 71.4765 127.599C70.6767 127.429 69.496 127.02 68.8104 126.544C68.5819 131.274 68.2772 132.159 66.2205 132.159H59.0221ZM102.479 127.837H93.3384V125.285H102.479V127.837ZM93.3384 120.896H102.479V123.277H93.3384V120.896ZM82.3313 114.873V112.423H90.52V114.873H82.3313ZM101.87 112.423V114.873H93.3384V112.423H101.87ZM109.221 123.277H105.298V119.024H93.3384V116.642H104.688V110.653H93.3384V108.68H108.497V106.604H93.3384V103.882H90.52V106.604H75.6661V108.68H90.52V110.653H79.6271V116.642H90.52V119.024H78.5607V120.896H90.52V123.277H74.9424V125.285H90.52V127.837H78.2179V129.777H90.52V132.125C90.52 132.703 90.2915 132.907 89.5678 132.941C88.9204 132.941 86.6351 132.975 84.3499 132.907C84.7308 133.486 85.1878 134.404 85.3402 135.051C88.5014 135.051 90.4819 135.017 91.6626 134.643C92.8052 134.268 93.3384 133.69 93.3384 132.125V129.777H102.479V131.308H105.298V125.285H109.221V123.277Z" fill="white"/>
</svg>
