<svg width="73" viewBox="0 0 146 138" fill="none" xmlns="http://www.w3.org/2000/svg">
<path d="M75 16C50.16 16 30 36.16 30 61C30 85.84 50.16 106 75 106C99.84 106 120 85.84 120 61C120 36.16 99.84 16 75 16ZM79.5 83.5H70.5V56.5H79.5V83.5ZM79.5 47.5H70.5V38.5H79.5V47.5Z" fill="white"/>
<path d="M44.168 132.32H33.4453L31.0371 139H27.5566L37.3301 113.406H40.2832L50.0742 139H46.6113L44.168 132.32ZM34.4648 129.543H43.166L38.8066 117.572L34.4648 129.543ZM69.1113 129.701C69.1113 132.607 68.4434 134.945 67.1074 136.715C65.7715 138.473 63.9785 139.352 61.7285 139.352C59.3262 139.352 57.4688 138.502 56.1562 136.803L55.998 139H53.0098V112H56.2617V122.072C57.5742 120.443 59.3848 119.629 61.6934 119.629C64.002 119.629 65.8125 120.502 67.125 122.248C68.4492 123.994 69.1113 126.385 69.1113 129.42V129.701ZM65.8594 129.332C65.8594 127.117 65.4316 125.406 64.5762 124.199C63.7207 122.992 62.4902 122.389 60.8848 122.389C58.7402 122.389 57.1992 123.385 56.2617 125.377V133.604C57.2578 135.596 58.8105 136.592 60.9199 136.592C62.4785 136.592 63.6914 135.988 64.5586 134.781C65.4258 133.574 65.8594 131.758 65.8594 129.332ZM72.3633 129.314C72.3633 127.451 72.7266 125.775 73.4531 124.287C74.1914 122.799 75.2109 121.65 76.5117 120.842C77.8242 120.033 79.3184 119.629 80.9941 119.629C83.584 119.629 85.6758 120.525 87.2695 122.318C88.875 124.111 89.6777 126.496 89.6777 129.473V129.701C89.6777 131.553 89.3203 133.217 88.6055 134.693C87.9023 136.158 86.8887 137.301 85.5645 138.121C84.252 138.941 82.7402 139.352 81.0293 139.352C78.4512 139.352 76.3594 138.455 74.7539 136.662C73.1602 134.869 72.3633 132.496 72.3633 129.543V129.314ZM75.6328 129.701C75.6328 131.811 76.1191 133.504 77.0918 134.781C78.0762 136.059 79.3887 136.697 81.0293 136.697C82.6816 136.697 83.9941 136.053 84.9668 134.764C85.9395 133.463 86.4258 131.646 86.4258 129.314C86.4258 127.229 85.9277 125.541 84.9316 124.252C83.9473 122.951 82.6348 122.301 80.9941 122.301C79.3887 122.301 78.0938 122.939 77.1094 124.217C76.125 125.494 75.6328 127.322 75.6328 129.701ZM105.498 137.119C104.232 138.607 102.375 139.352 99.9258 139.352C97.8984 139.352 96.3516 138.766 95.2852 137.594C94.2305 136.41 93.6973 134.664 93.6855 132.355V119.98H96.9375V132.268C96.9375 135.15 98.1094 136.592 100.453 136.592C102.938 136.592 104.59 135.666 105.41 133.814V119.98H108.662V139H105.568L105.498 137.119ZM118.031 115.375V119.98H121.582V122.494H118.031V134.289C118.031 135.051 118.189 135.625 118.506 136.012C118.822 136.387 119.361 136.574 120.123 136.574C120.498 136.574 121.014 136.504 121.67 136.363V139C120.814 139.234 119.982 139.352 119.174 139.352C117.721 139.352 116.625 138.912 115.887 138.033C115.148 137.154 114.779 135.906 114.779 134.289V122.494H111.316V119.98H114.779V115.375H118.031Z" fill="white"/>
</svg>
