<svg viewBox="0 0 138 138" fill="none" xmlns="http://www.w3.org/2000/svg">
<path d="M68.3483 62.7917L58.609 52.3333L58.724 52.2083C65.3958 44.125 70.1504 34.8333 72.9495 25H84.1842V16.6667H57.3437V8.33334H49.675V16.6667H22.8345V24.9583H65.6642C63.0952 33 59.0308 40.625 53.5093 47.2917C49.9434 43 46.9909 38.2917 44.652 33.3333H36.9832C39.7823 40.125 43.6167 46.5417 48.4096 52.3333L28.8928 73.25L34.3375 79.1667L53.5093 58.3333L65.4342 71.2917L68.3483 62.7917ZM89.9357 41.6667H82.267L65.0124 91.6667H72.6811L76.9756 79.1667H95.1888L99.5216 91.6667H107.19L89.9357 41.6667ZM79.8897 70.8333L86.1013 52.7917L92.313 70.8333H79.8897Z" fill="black"/>
<path d="M0.706594 125.108C1.95459 125.108 2.84259 125.024 3.37059 124.856C3.89859 124.688 4.25859 124.34 4.45059 123.812C4.66659 123.284 4.77459 122.408 4.77459 121.184V100.088H7.51059L7.54659 121.58C7.54659 123.404 7.28259 124.748 6.75459 125.612C6.25059 126.476 5.54259 127.016 4.63059 127.232C3.71859 127.472 2.41059 127.592 0.706594 127.592V125.108ZM16.9808 125.36C15.3248 125.36 14.0648 124.892 13.2008 123.956C12.3368 123.02 11.9048 121.676 11.9048 119.924C11.9048 118.196 12.3368 116.912 13.2008 116.072C14.0888 115.232 15.4928 114.716 17.4128 114.524L23.0648 113.984V112.436C23.0648 110.156 22.0808 109.016 20.1128 109.016C18.1688 109.016 15.8048 109.172 13.0208 109.484L12.9128 107.432C15.4808 106.904 17.8208 106.64 19.9328 106.64C21.9728 106.64 23.4488 107.108 24.3608 108.044C25.2968 108.956 25.7648 110.42 25.7648 112.436V121.652C25.8368 122.54 26.5328 123.068 27.8528 123.236L27.7448 125.36C25.8488 125.36 24.4208 124.88 23.4608 123.92C21.3248 124.88 19.1648 125.36 16.9808 125.36ZM17.4128 123.092C19.0208 123.092 20.6288 122.816 22.2368 122.264L23.0648 121.976V116.036L17.7368 116.54C16.6568 116.636 15.8768 116.948 15.3968 117.476C14.9168 118.004 14.6768 118.772 14.6768 119.78C14.6768 121.988 15.5888 123.092 17.4128 123.092ZM31.092 107H33.756V108.296C34.692 107.744 35.592 107.336 36.456 107.072C37.344 106.784 38.28 106.64 39.264 106.64C41.496 106.64 43.116 107.384 44.124 108.872C45.156 110.336 45.672 112.676 45.672 115.892C45.672 118.172 45.408 120.008 44.88 121.4C44.352 122.768 43.512 123.776 42.36 124.424C41.208 125.048 39.66 125.36 37.716 125.36C36.372 125.36 35.064 125.228 33.792 124.964V132.992H31.092V107ZM37.752 123.02C39.624 123.02 40.956 122.468 41.748 121.364C42.54 120.26 42.936 118.472 42.936 116C42.936 113.552 42.588 111.788 41.892 110.708C41.22 109.604 40.188 109.052 38.796 109.052C38.1 109.052 37.344 109.172 36.528 109.412C35.736 109.628 35.052 109.868 34.476 110.132L33.792 110.492V122.624C35.568 122.888 36.888 123.02 37.752 123.02ZM54.0004 125.36C52.3444 125.36 51.0844 124.892 50.2204 123.956C49.3564 123.02 48.9244 121.676 48.9244 119.924C48.9244 118.196 49.3564 116.912 50.2204 116.072C51.1084 115.232 52.5124 114.716 54.4324 114.524L60.0844 113.984V112.436C60.0844 110.156 59.1004 109.016 57.1324 109.016C55.1884 109.016 52.8244 109.172 50.0404 109.484L49.9324 107.432C52.5004 106.904 54.8404 106.64 56.9524 106.64C58.9924 106.64 60.4684 107.108 61.3804 108.044C62.3164 108.956 62.7844 110.42 62.7844 112.436V121.652C62.8564 122.54 63.5524 123.068 64.8724 123.236L64.7644 125.36C62.8684 125.36 61.4404 124.88 60.4804 123.92C58.3444 124.88 56.1844 125.36 54.0004 125.36ZM54.4324 123.092C56.0404 123.092 57.6484 122.816 59.2564 122.264L60.0844 121.976V116.036L54.7564 116.54C53.6764 116.636 52.8964 116.948 52.4164 117.476C51.9364 118.004 51.6964 118.772 51.6964 119.78C51.6964 121.988 52.6084 123.092 54.4324 123.092ZM68.1115 107H70.7755V108.26C71.8555 107.66 72.8395 107.24 73.7275 107C74.6395 106.76 75.5875 106.64 76.5715 106.64C78.1075 106.64 79.2955 106.928 80.1355 107.504C80.9755 108.08 81.5635 109.004 81.8995 110.276C82.2595 111.524 82.4395 113.264 82.4395 115.496V125H79.7755V115.568C79.7755 113.864 79.6675 112.556 79.4515 111.644C79.2595 110.732 78.8995 110.072 78.3715 109.664C77.8435 109.256 77.0755 109.052 76.0675 109.052C75.2515 109.052 74.4115 109.16 73.5475 109.376C72.7075 109.568 72.0235 109.796 71.4955 110.06L70.8115 110.384V125H68.1115V107ZM94.1795 125.36C91.4435 125.36 89.4995 124.652 88.3475 123.236C87.2195 121.796 86.6555 119.54 86.6555 116.468C86.6555 113.132 87.2675 110.66 88.4915 109.052C89.7155 107.444 91.6355 106.64 94.2515 106.64C96.6515 106.64 98.4395 107.336 99.6155 108.728C100.815 110.096 101.415 112.208 101.415 115.064L101.271 117.116H89.3915C89.3915 118.604 89.5475 119.768 89.8595 120.608C90.1955 121.448 90.7475 122.06 91.5155 122.444C92.3075 122.804 93.3995 122.984 94.7915 122.984C95.4875 122.984 96.2915 122.972 97.2035 122.948C98.1155 122.9 98.9435 122.84 99.6875 122.768L100.731 122.66L100.803 124.784C98.1395 125.168 95.9315 125.36 94.1795 125.36ZM98.7155 114.956C98.7155 112.772 98.3675 111.224 97.6715 110.312C96.9755 109.376 95.8355 108.908 94.2515 108.908C92.5955 108.908 91.3715 109.4 90.5795 110.384C89.7875 111.344 89.3795 112.868 89.3555 114.956H98.7155ZM111.275 125.36C109.835 125.36 108.071 125.192 105.983 124.856L104.903 124.676L105.047 122.336C107.855 122.744 109.919 122.948 111.239 122.948C112.679 122.948 113.747 122.72 114.443 122.264C115.163 121.784 115.523 121.028 115.523 119.996C115.523 119.252 115.343 118.688 114.983 118.304C114.647 117.92 114.203 117.644 113.651 117.476C113.123 117.308 112.367 117.152 111.383 117.008L110.483 116.864C109.043 116.624 107.915 116.336 107.099 116C106.283 115.664 105.671 115.196 105.263 114.596C104.855 113.972 104.651 113.12 104.651 112.04C104.651 110.096 105.239 108.716 106.415 107.9C107.591 107.084 109.259 106.676 111.419 106.676C113.123 106.676 114.863 106.832 116.639 107.144L117.647 107.324L117.575 109.628C114.983 109.244 112.955 109.052 111.491 109.052C110.099 109.052 109.055 109.268 108.359 109.7C107.687 110.132 107.351 110.804 107.351 111.716C107.351 112.364 107.519 112.868 107.855 113.228C108.191 113.564 108.623 113.816 109.151 113.984C109.703 114.128 110.471 114.284 111.455 114.452L112.355 114.632C113.843 114.896 114.995 115.208 115.811 115.568C116.627 115.904 117.227 116.396 117.611 117.044C118.019 117.692 118.223 118.592 118.223 119.744C118.223 121.688 117.647 123.116 116.495 124.028C115.367 124.916 113.627 125.36 111.275 125.36ZM129.09 125.36C126.354 125.36 124.41 124.652 123.258 123.236C122.13 121.796 121.566 119.54 121.566 116.468C121.566 113.132 122.178 110.66 123.402 109.052C124.626 107.444 126.546 106.64 129.162 106.64C131.562 106.64 133.35 107.336 134.526 108.728C135.726 110.096 136.326 112.208 136.326 115.064L136.182 117.116H124.302C124.302 118.604 124.458 119.768 124.77 120.608C125.106 121.448 125.658 122.06 126.426 122.444C127.218 122.804 128.31 122.984 129.702 122.984C130.398 122.984 131.202 122.972 132.114 122.948C133.026 122.9 133.854 122.84 134.598 122.768L135.642 122.66L135.714 124.784C133.05 125.168 130.842 125.36 129.09 125.36ZM133.626 114.956C133.626 112.772 133.278 111.224 132.582 110.312C131.886 109.376 130.746 108.908 129.162 108.908C127.506 108.908 126.282 109.4 125.49 110.384C124.698 111.344 124.29 112.868 124.266 114.956H133.626Z" fill="black"/>
</svg>
