<svg width="73" viewBox="0 0 146 138" fill="none" xmlns="http://www.w3.org/2000/svg">
<path d="M72.3105 62.7917L62.0066 52.3333L62.1283 52.2083C69.1869 44.125 74.2171 34.8333 77.1785 25H89.0644V16.6667H60.668V8.33331H52.5547V16.6667H24.1582V24.9583H69.4708C66.7529 33 62.4529 40.625 56.6113 47.2917C52.8387 43 49.715 38.2917 47.2405 33.3333H39.1272C42.0885 40.125 46.1452 46.5417 51.216 52.3333L30.5677 73.25L36.3281 79.1667L56.6113 58.3333L69.2275 71.2917L72.3105 62.7917ZM95.1494 41.6667H87.0361L68.7812 91.6667H76.8945L81.438 79.1667H100.707L105.291 91.6667H113.404L95.1494 41.6667ZM84.521 70.8333L91.0927 52.7917L97.6645 70.8333H84.521Z" fill="white"/>
<path d="M0.747559 125.108C2.0679 125.108 3.00738 125.024 3.56599 124.856C4.1246 124.688 4.50547 124.34 4.7086 123.812C4.93712 123.284 5.05138 122.408 5.05138 121.184V100.088H7.94599L7.98408 121.58C7.98408 123.404 7.70477 124.748 7.14616 125.612C6.61294 126.476 5.8639 127.016 4.89903 127.232C3.93416 127.472 2.55034 127.592 0.747559 127.592V125.108ZM17.9652 125.36C16.2132 125.36 14.8802 124.892 13.9661 123.956C13.052 123.02 12.5949 121.676 12.5949 119.924C12.5949 118.196 13.052 116.912 13.9661 116.072C14.9055 115.232 16.3909 114.716 18.4222 114.524L24.4019 113.984V112.436C24.4019 110.156 23.3608 109.016 21.2788 109.016C19.2221 109.016 16.721 109.172 13.7756 109.484L13.6614 107.432C16.3782 106.904 18.8539 106.64 21.0883 106.64C23.2466 106.64 24.8081 107.108 25.773 108.044C26.7633 108.956 27.2584 110.42 27.2584 112.436V121.652C27.3346 122.54 28.0709 123.068 29.4675 123.236L29.3532 125.36C27.3473 125.36 25.8365 124.88 24.8208 123.92C22.561 124.88 20.2758 125.36 17.9652 125.36ZM18.4222 123.092C20.1235 123.092 21.8247 122.816 23.5259 122.264L24.4019 121.976V116.036L18.765 116.54C17.6224 116.636 16.7972 116.948 16.2894 117.476C15.7815 118.004 15.5276 118.772 15.5276 119.78C15.5276 121.988 16.4925 123.092 18.4222 123.092ZM32.8944 107H35.7129V108.296C36.7031 107.744 37.6553 107.336 38.5694 107.072C39.5089 106.784 40.4991 106.64 41.5402 106.64C43.9016 106.64 45.6155 107.384 46.6819 108.872C47.7737 110.336 48.3197 112.676 48.3197 115.892C48.3197 118.172 48.0403 120.008 47.4817 121.4C46.9231 122.768 46.0344 123.776 44.8157 124.424C43.5969 125.048 41.9591 125.36 39.9024 125.36C38.4805 125.36 37.0967 125.228 35.751 124.964V132.992H32.8944V107ZM39.9405 123.02C41.921 123.02 43.3303 122.468 44.1682 121.364C45.0061 120.26 45.425 118.472 45.425 116C45.425 113.552 45.0569 111.788 44.3205 110.708C43.6096 109.604 42.5177 109.052 41.045 109.052C40.3087 109.052 39.5089 109.172 38.6456 109.412C37.8077 109.628 37.084 109.868 36.4746 110.132L35.751 110.492V122.624C37.6299 122.888 39.0264 123.02 39.9405 123.02ZM57.1309 125.36C55.3789 125.36 54.0458 124.892 53.1317 123.956C52.2176 123.02 51.7606 121.676 51.7606 119.924C51.7606 118.196 52.2176 116.912 53.1317 116.072C54.0712 115.232 55.5566 114.716 57.5879 114.524L63.5676 113.984V112.436C63.5676 110.156 62.5265 109.016 60.4444 109.016C58.3877 109.016 55.8867 109.172 52.9413 109.484L52.827 107.432C55.5439 106.904 58.0196 106.64 60.254 106.64C62.4122 106.64 63.9738 107.108 64.9387 108.044C65.9289 108.956 66.4241 110.42 66.4241 112.436V121.652C66.5002 122.54 67.2366 123.068 68.6331 123.236L68.5188 125.36C66.5129 125.36 65.0022 124.88 63.9865 123.92C61.7267 124.88 59.4415 125.36 57.1309 125.36ZM57.5879 123.092C59.2891 123.092 60.9903 122.816 62.6916 122.264L63.5676 121.976V116.036L57.9307 116.54C56.7881 116.636 55.9629 116.948 55.455 117.476C54.9472 118.004 54.6933 118.772 54.6933 119.78C54.6933 121.988 55.6582 123.092 57.5879 123.092ZM72.06 107H74.8784V108.26C76.021 107.66 77.0621 107.24 78.0015 107C78.9664 106.76 79.9694 106.64 81.0104 106.64C82.6355 106.64 83.8923 106.928 84.781 107.504C85.6697 108.08 86.2918 109.004 86.6473 110.276C87.0282 111.524 87.2186 113.264 87.2186 115.496V125H84.4002V115.568C84.4002 113.864 84.2859 112.556 84.0574 111.644C83.8542 110.732 83.4734 110.072 82.9148 109.664C82.3562 109.256 81.5436 109.052 80.4772 109.052C79.6139 109.052 78.7252 109.16 77.8111 109.376C76.9224 109.568 76.1988 109.796 75.6402 110.06L74.9165 110.384V125H72.06V107ZM99.6392 125.36C96.7446 125.36 94.6879 124.652 93.4691 123.236C92.2757 121.796 91.679 119.54 91.679 116.468C91.679 113.132 92.3265 110.66 93.6214 109.052C94.9164 107.444 96.9477 106.64 99.7153 106.64C102.254 106.64 104.146 107.336 105.39 108.728C106.659 110.096 107.294 112.208 107.294 115.064L107.142 117.116H94.5736C94.5736 118.604 94.7386 119.768 95.0687 120.608C95.4242 121.448 96.0082 122.06 96.8207 122.444C97.6587 122.804 98.8139 122.984 100.287 122.984C101.023 122.984 101.874 122.972 102.838 122.948C103.803 122.9 104.679 122.84 105.466 122.768L106.57 122.66L106.647 124.784C103.829 125.168 101.493 125.36 99.6392 125.36ZM104.438 114.956C104.438 112.772 104.07 111.224 103.334 110.312C102.597 109.376 101.391 108.908 99.7153 108.908C97.9633 108.908 96.6684 109.4 95.8305 110.384C94.9926 111.344 94.5609 112.868 94.5355 114.956H104.438ZM117.726 125.36C116.202 125.36 114.336 125.192 112.127 124.856L110.984 124.676L111.137 122.336C114.107 122.744 116.291 122.948 117.688 122.948C119.211 122.948 120.341 122.72 121.077 122.264C121.839 121.784 122.22 121.028 122.22 119.996C122.22 119.252 122.03 118.688 121.649 118.304C121.293 117.92 120.823 117.644 120.239 117.476C119.681 117.308 118.881 117.152 117.84 117.008L116.888 116.864C115.364 116.624 114.171 116.336 113.308 116C112.444 115.664 111.797 115.196 111.365 114.596C110.934 113.972 110.718 113.12 110.718 112.04C110.718 110.096 111.34 108.716 112.584 107.9C113.828 107.084 115.593 106.676 117.878 106.676C119.681 106.676 121.522 106.832 123.401 107.144L124.467 107.324L124.391 109.628C121.649 109.244 119.503 109.052 117.954 109.052C116.482 109.052 115.377 109.268 114.641 109.7C113.93 110.132 113.574 110.804 113.574 111.716C113.574 112.364 113.752 112.868 114.107 113.228C114.463 113.564 114.92 113.816 115.479 113.984C116.063 114.128 116.875 114.284 117.916 114.452L118.868 114.632C120.443 114.896 121.661 115.208 122.525 115.568C123.388 115.904 124.023 116.396 124.429 117.044C124.861 117.692 125.076 118.592 125.076 119.744C125.076 121.688 124.467 123.116 123.248 124.028C122.055 124.916 120.214 125.36 117.726 125.36ZM136.573 125.36C133.679 125.36 131.622 124.652 130.403 123.236C129.21 121.796 128.613 119.54 128.613 116.468C128.613 113.132 129.261 110.66 130.556 109.052C131.851 107.444 133.882 106.64 136.65 106.64C139.189 106.64 141.08 107.336 142.325 108.728C143.594 110.096 144.229 112.208 144.229 115.064L144.077 117.116H131.508C131.508 118.604 131.673 119.768 132.003 120.608C132.359 121.448 132.943 122.06 133.755 122.444C134.593 122.804 135.748 122.984 137.221 122.984C137.957 122.984 138.808 122.972 139.773 122.948C140.738 122.9 141.614 122.84 142.401 122.768L143.505 122.66L143.581 124.784C140.763 125.168 138.427 125.36 136.573 125.36ZM141.372 114.956C141.372 112.772 141.004 111.224 140.268 110.312C139.532 109.376 138.325 108.908 136.65 108.908C134.898 108.908 133.603 109.4 132.765 110.384C131.927 111.344 131.495 112.868 131.47 114.956H141.372Z" fill="white"/>
</svg>
