<svg viewBox="0 0 138 146" fill="none" xmlns="http://www.w3.org/2000/svg">
<path d="M65 4.16666C44.2917 4.16666 27.5 20.9583 27.5 41.6667V70.8333C27.5 77.75 33.0833 83.3333 40 83.3333H52.5V50H35.8333V41.6667C35.8333 25.5417 48.875 12.5 65 12.5C81.125 12.5 94.1667 25.5417 94.1667 41.6667V50H77.5V83.3333H90C96.9167 83.3333 102.5 77.75 102.5 70.8333V41.6667C102.5 20.9583 85.7083 4.16666 65 4.16666Z" fill="black"/>
<path d="M46.824 113.432V116.24H38.94V113.432H46.824ZM38.94 121.136V118.112H46.824V121.136H38.94ZM49.344 123.116V111.416H36.312V142.772H38.94V123.116H49.344ZM54.78 129.272H47.04V127.112H54.78V129.272ZM47.04 134.924H54.78V137.156C52.116 137.336 49.452 137.48 47.04 137.624V134.924ZM54.78 133.232H47.04V130.964H54.78V133.232ZM59.892 127.112V125.132H42V127.112H44.664V137.732C43.512 137.804 42.468 137.84 41.532 137.876L41.712 140.036C45.204 139.82 49.956 139.496 54.78 139.136V141.908H57.192V127.112H59.892ZM55.068 121.172V118.112H63.24V121.172H55.068ZM63.24 113.432V116.24H55.068V113.432H63.24ZM65.868 111.416H52.512V123.152H63.24V139.28C63.24 139.856 63.06 140.036 62.52 140.036C61.98 140.072 60.144 140.072 58.164 140C58.56 140.72 58.92 141.98 58.992 142.664C61.692 142.7 63.42 142.628 64.464 142.196C65.544 141.728 65.868 140.864 65.868 139.28V111.416ZM94.344 113.432L91.68 111.056C91.248 111.74 90.348 112.748 89.628 113.468C87.18 115.952 81.708 120.272 79.008 122.54C75.768 125.276 75.336 126.824 78.756 129.668C82.104 132.44 87.576 137.12 90.096 139.712C90.996 140.576 91.824 141.476 92.58 142.34L95.136 139.964C91.32 136.148 84.948 131 81.672 128.336C79.368 126.392 79.404 125.816 81.564 123.98C84.228 121.748 89.412 117.644 91.86 115.484C92.472 114.98 93.588 114.044 94.344 113.432Z" fill="black"/>
</svg>
