<svg width="73" viewBox="0 0 146 138" fill="none" xmlns="http://www.w3.org/2000/svg">
<path d="M68.7681 3.93835C46.8593 3.93835 29.0942 19.8099 29.0942 39.3836V66.952C29.0942 73.4897 35.0012 78.7671 42.3188 78.7671H55.5435V47.2603H37.9106V39.3836C37.9106 24.1422 51.7083 11.8151 68.7681 11.8151C85.8279 11.8151 99.6256 24.1422 99.6256 39.3836V47.2603H81.9928V78.7671H95.2174C102.535 78.7671 108.442 73.4897 108.442 66.952V39.3836C108.442 19.8099 90.6769 3.93835 68.7681 3.93835Z" fill="white"/>
<path d="M49.5384 107.217V109.871H41.1974V107.217H49.5384ZM41.1974 114.498V111.64H49.5384V114.498H41.1974ZM52.2045 116.37V105.311H38.417V134.949H41.1974V116.37H52.2045ZM57.9556 122.189H49.767V120.147H57.9556V122.189ZM49.767 127.531H57.9556V129.641C55.1372 129.811 52.3188 129.947 49.767 130.083V127.531ZM57.9556 125.932H49.767V123.788H57.9556V125.932ZM63.364 120.147V118.275H44.4348V120.147H47.2532V130.185C46.0344 130.253 44.9299 130.287 43.9396 130.321L44.1301 132.363C47.8245 132.159 52.852 131.852 57.9556 131.512V134.132H60.5075V120.147H63.364ZM58.2603 114.532V111.64H66.9061V114.532H58.2603ZM66.9061 107.217V109.871H58.2603V107.217H66.9061ZM69.6864 105.311H55.5562V116.404H66.9061V131.648C66.9061 132.193 66.7156 132.363 66.1443 132.363C65.573 132.397 63.6306 132.397 61.5358 132.329C61.9548 133.009 62.3356 134.2 62.4118 134.847C65.2683 134.881 67.0965 134.813 68.201 134.404C69.3436 133.962 69.6864 133.145 69.6864 131.648V105.311ZM99.8132 107.217L96.9948 104.971C96.5377 105.617 95.5856 106.57 94.8238 107.251C92.2339 109.598 86.4447 113.682 83.5882 115.826C80.1603 118.412 79.7033 119.875 83.3216 122.563C86.8636 125.183 92.6529 129.607 95.319 132.057C96.2711 132.873 97.1471 133.724 97.947 134.541L100.651 132.295C96.6139 128.688 89.8725 123.822 86.4066 121.304C83.969 119.466 84.0071 118.922 86.2923 117.187C89.1108 115.077 94.5953 111.198 97.1852 109.156C97.8327 108.68 99.0134 107.795 99.8132 107.217Z" fill="white"/>
</svg>
