<svg width="73" viewBox="0 0 146 138" fill="none" xmlns="http://www.w3.org/2000/svg">
<path d="M72.6913 39.3836C69.0765 30.2071 59.2903 23.6301 47.7848 23.6301C33.1936 23.6301 21.3356 34.2243 21.3356 47.2603C21.3356 60.2963 33.1936 70.8904 47.7848 70.8904C59.2903 70.8904 69.0765 64.3134 72.6913 55.1369H91.867V70.8904H109.5V55.1369H118.316V39.3836H72.6913ZM47.7848 55.1369C42.9358 55.1369 38.9685 51.5924 38.9685 47.2603C38.9685 42.9281 42.9358 39.3836 47.7848 39.3836C52.6338 39.3836 56.6012 42.9281 56.6012 47.2603C56.6012 51.5924 52.6338 55.1369 47.7848 55.1369Z" fill="white"/>
<path d="M59.6696 126.884C58.984 128.348 57.8795 130.389 56.9273 131.682L58.1461 131.988H48.9671L50.7191 131.512C50.3002 130.219 49.348 128.348 48.3197 126.884H59.6696ZM46.2249 120.317H61.612V124.775H46.2249V120.317ZM60.5837 126.884H64.4304V118.207H43.5207V126.884H47.8245L45.6917 127.395C46.6057 128.79 47.5198 130.661 47.9007 131.988H37.541V134.132H70.4482V131.988H59.5934C60.5075 130.729 61.5358 128.994 62.4499 127.327L60.5837 126.884ZM68.2772 108.135C67.0204 109.36 64.9256 110.96 63.0593 112.185C62.1452 111.402 61.2692 110.551 60.4694 109.666C62.2976 108.51 64.4685 106.978 66.2205 105.515L64.0877 104.154C62.8308 105.345 60.8883 106.91 59.1744 108.135C58.108 106.808 57.232 105.379 56.5083 103.95L54.1089 104.63C55.7085 107.829 57.9176 110.755 60.5456 113.273H47.6341C49.8431 111.164 51.7094 108.68 52.9282 105.889L51.1381 105.039L50.6049 105.141H39.7882V107.285H49.2337C48.2435 108.952 46.9104 110.551 45.387 111.98C44.2063 110.823 42.1115 109.462 40.3214 108.51L38.7598 109.905C40.5118 110.891 42.5304 112.321 43.7111 113.41C41.3497 115.315 38.6456 116.88 36.0557 117.833C36.627 118.275 37.3887 119.16 37.7696 119.671C40.9308 118.378 44.1682 116.404 46.9485 113.92V115.451H60.9645V113.648C63.5544 116.03 66.5633 117.969 69.8007 119.262C70.2197 118.616 71.0195 117.697 71.667 117.187C69.2294 116.336 66.868 115.043 64.7351 113.512C66.6014 112.355 68.7343 110.857 70.4101 109.462L68.2772 108.135ZM96.1569 125.966C93.567 127.531 90.939 129.13 88.9965 130.185L88.8823 129.13L83.6263 130.083V120.215H89.0727V118.003H83.6263V114.396H88.0063V112.219H77.8751C79.9699 110.177 81.5315 108.033 82.6741 106.196C84.6927 107.897 86.9017 110.313 88.0443 111.844L89.9106 109.973C88.6157 108.237 85.8353 105.685 83.5882 103.882H81.0364C79.7795 106.57 77.3419 110.007 73.9141 112.593C74.4092 112.899 75.2471 113.682 75.6661 114.192C76.1993 113.75 76.7325 113.307 77.2277 112.865V114.396H81.1506V118.003H75.209V120.215H81.1506V130.525C78.7892 130.934 76.6183 131.308 74.8663 131.546L75.4376 133.894C79.1701 133.145 84.1214 132.227 88.9203 131.274L89.7583 132.601C92.0054 131.24 94.5953 129.538 96.9948 127.871L96.1569 125.966ZM76.085 122.461C76.8087 124.502 77.38 127.123 77.4562 128.892L79.551 128.416C79.4367 126.68 78.8273 124.06 78.0275 122.018L76.085 122.461ZM86.8637 128.279C87.435 126.714 88.1586 124.298 88.768 122.223L86.559 121.712C86.2543 123.516 85.5306 126.204 84.9974 127.837L86.8637 128.279ZM96.1569 123.754C95.357 122.461 93.567 120.589 91.9292 119.262L90.0249 120.351C91.6245 121.712 93.3384 123.686 94.1002 124.979L96.1569 123.754ZM100.385 117.493H109.449V115.281H106.326V105.209H91.2056V107.353H103.736V110.279H91.9673V112.321H103.736V115.281H89.225V117.493H97.7184V132.227C97.7184 132.635 97.6042 132.737 97.1852 132.737C96.7663 132.737 95.4713 132.771 94.024 132.703C94.3668 133.35 94.7096 134.302 94.8238 134.915C96.8805 134.915 98.3278 134.915 99.2038 134.541C100.118 134.166 100.385 133.486 100.385 132.295V124.128C101.984 127.395 104.46 130.798 108.269 132.873C108.687 132.261 109.563 131.24 110.135 130.832C104.46 128.177 101.603 122.699 100.385 118.275V117.493ZM104.269 124.605C105.793 123.38 107.659 121.576 109.145 119.909L106.935 118.684C105.869 120.147 103.927 122.223 102.517 123.482L104.269 124.605Z" fill="white"/>
</svg>
