<svg width="73" viewBox="0 0 146 138" fill="none" xmlns="http://www.w3.org/2000/svg">
<path d="M71.6333 41.6667C68.0185 31.9583 58.2323 25 46.7269 25C32.1357 25 20.2776 36.2083 20.2776 50C20.2776 63.7917 32.1357 75 46.7269 75C58.2323 75 68.0185 68.0417 71.6333 58.3333H90.809V75H108.442V58.3333H117.258V41.6667H71.6333ZM46.7269 58.3333C41.8779 58.3333 37.9105 54.5833 37.9105 50C37.9105 45.4167 41.8779 41.6667 46.7269 41.6667C51.5759 41.6667 55.5433 45.4167 55.5433 50C55.5433 54.5833 51.5759 58.3333 46.7269 58.3333Z" fill="white"/>
<path d="M29.9867 125.324C28.2093 125.324 25.886 125.12 23.0168 124.712L21.6457 124.532L21.9504 122.228C25.429 122.66 28.057 122.876 29.8344 122.876C33.5923 122.876 35.4712 121.208 35.4712 117.872C35.4712 116.96 35.2935 116.24 34.938 115.712C34.6079 115.184 34.0239 114.752 33.186 114.416C32.3735 114.08 31.1801 113.768 29.6058 113.48C27.5238 113.072 25.8987 112.604 24.7307 112.076C23.5881 111.548 22.7502 110.84 22.217 109.952C21.6838 109.064 21.4171 107.876 21.4171 106.388C21.4171 101.924 24.2483 99.692 29.9105 99.692C31.8657 99.692 34.5191 99.932 37.8707 100.412L37.6041 102.752C33.9477 102.344 31.4467 102.14 30.101 102.14C26.2923 102.14 24.3879 103.496 24.3879 106.208C24.3879 107.24 24.5657 108.032 24.9211 108.584C25.302 109.112 25.9368 109.544 26.8255 109.88C27.7142 110.216 29.1234 110.588 31.0531 110.996C32.9321 111.404 34.3794 111.86 35.3951 112.364C36.4361 112.868 37.1978 113.54 37.6803 114.38C38.1627 115.196 38.4039 116.288 38.4039 117.656C38.4039 122.768 35.5982 125.324 29.9867 125.324ZM42.974 107H45.7925V125H42.974V107ZM42.974 99.8H45.7925V102.932H42.974V99.8ZM57.9036 133.46C55.0598 133.46 53.0412 133.052 51.8478 132.236C50.6798 131.444 50.0958 130.112 50.0958 128.24C50.0958 127.472 50.1846 126.836 50.3624 126.332C50.5655 125.852 50.8702 125.42 51.2765 125.036C51.6827 124.652 52.2921 124.16 53.1046 123.56C52.7492 123.344 52.4826 123.02 52.3048 122.588C52.1271 122.156 52.0382 121.7 52.0382 121.22C52.0382 120.908 52.1144 120.572 52.2667 120.212C52.4191 119.828 52.7746 119.168 53.3332 118.232C51.3273 117.392 50.3243 115.592 50.3243 112.832C50.3243 110.744 50.921 109.196 52.1144 108.188C53.3078 107.156 55.1106 106.64 57.5227 106.64C58.6907 106.64 59.9857 106.796 61.4076 107.108L67.0445 106.964V109.268L63.4262 109.196C63.8579 109.604 64.1753 110.108 64.3784 110.708C64.5815 111.284 64.6831 112.028 64.6831 112.94C64.6831 115.076 64.0991 116.6 62.9311 117.512C61.7631 118.424 59.9222 118.88 57.4085 118.88C56.6213 118.88 55.9739 118.832 55.466 118.736C55.2629 119.216 55.0979 119.636 54.9709 119.996C54.8439 120.356 54.7805 120.668 54.7805 120.932C54.7805 121.556 55.0344 121.964 55.5422 122.156C56.0754 122.348 56.8879 122.444 57.9798 122.444H59.4652C61.141 122.444 62.4867 122.564 63.5024 122.804C64.5434 123.044 65.3432 123.536 65.9019 124.28C66.4605 125 66.7398 126.056 66.7398 127.448C66.7398 129.536 66.0542 131.06 64.6831 132.02C63.312 132.98 61.0521 133.46 57.9036 133.46ZM57.5227 116.72C59.0716 116.72 60.1761 116.42 60.8363 115.82C61.4965 115.22 61.8266 114.2 61.8266 112.76C61.8266 111.344 61.4965 110.336 60.8363 109.736C60.1761 109.136 59.0843 108.836 57.5608 108.836C55.9866 108.836 54.8566 109.148 54.1711 109.772C53.5109 110.372 53.1808 111.38 53.1808 112.796C53.1808 114.212 53.5109 115.22 54.1711 115.82C54.8566 116.42 55.9739 116.72 57.5227 116.72ZM58.1702 131.192C60.2777 131.192 61.7504 130.916 62.5883 130.364C63.4262 129.836 63.8452 128.912 63.8452 127.592C63.8452 126.824 63.7055 126.236 63.4262 125.828C63.1469 125.444 62.6772 125.18 62.017 125.036C61.3568 124.892 60.4046 124.82 59.1605 124.82L55.0471 124.64C54.2092 125.216 53.6379 125.72 53.3332 126.152C53.0539 126.584 52.9142 127.16 52.9142 127.88C52.9142 129.128 53.2951 129.992 54.0568 130.472C54.8439 130.952 56.2151 131.192 58.1702 131.192ZM70.4979 107H73.3163V108.26C74.4589 107.66 75.5 107.24 76.4395 107C77.4043 106.76 78.4073 106.64 79.4483 106.64C81.0734 106.64 82.3302 106.928 83.2189 107.504C84.1076 108.08 84.7297 109.004 85.0852 110.276C85.4661 111.524 85.6565 113.264 85.6565 115.496V125H82.8381V115.568C82.8381 113.864 82.7238 112.556 82.4953 111.644C82.2922 110.732 81.9113 110.072 81.3527 109.664C80.7941 109.256 79.9816 109.052 78.9151 109.052C78.0518 109.052 77.1631 109.16 76.249 109.376C75.3603 109.568 74.6367 109.796 74.0781 110.06L73.3544 110.384V125H70.4979V107ZM99.8186 100.088H102.751V125H99.8186V100.088ZM108.696 107H111.514V108.26C112.657 107.66 113.698 107.24 114.638 107C115.602 106.76 116.605 106.64 117.646 106.64C119.271 106.64 120.528 106.928 121.417 107.504C122.306 108.08 122.928 109.004 123.283 110.276C123.664 111.524 123.855 113.264 123.855 115.496V125H121.036V115.568C121.036 113.864 120.922 112.556 120.693 111.644C120.49 110.732 120.109 110.072 119.551 109.664C118.992 109.256 118.18 109.052 117.113 109.052C116.25 109.052 115.361 109.16 114.447 109.376C113.558 109.568 112.835 109.796 112.276 110.06L111.552 110.384V125H108.696V107Z" fill="white"/>
</svg>
