<svg viewBox="0 0 309 130" fill="none" xmlns="http://www.w3.org/2000/svg">
<rect x="0.5" y="0.5" width="308" height="129" fill="white" stroke="black"/>
<path d="M177.844 65V61.4873C177.844 53.1027 174.436 45.0615 168.37 39.1327C162.305 33.2039 154.078 29.8731 145.5 29.8731C136.922 29.8731 128.695 33.2039 122.63 39.1327C116.564 45.0615 113.156 53.1027 113.156 61.4873V65C108.391 65 103.82 66.8504 100.45 70.1442C97.0806 73.438 95.1875 77.9053 95.1875 82.5634C95.1875 87.2215 97.0806 91.6889 100.45 94.9827C103.82 98.2764 108.391 100.127 113.156 100.127H120.344V61.4873C120.344 54.9659 122.994 48.7117 127.712 44.1004C132.43 39.4891 138.828 36.8985 145.5 36.8985C152.172 36.8985 158.57 39.4891 163.288 44.1004C168.006 48.7117 170.656 54.9659 170.656 61.4873V100.127H177.844C182.609 100.127 187.18 98.2764 190.55 94.9827C193.919 91.6889 195.812 87.2215 195.812 82.5634C195.812 77.9053 193.919 73.438 190.55 70.1442C187.18 66.8504 182.609 65 177.844 65ZM102.375 82.5634C102.375 79.7686 103.511 77.0882 105.533 75.1119C107.555 73.1356 110.297 72.0254 113.156 72.0254V93.1015C110.297 93.1015 107.555 91.9912 105.533 90.015C103.511 88.0387 102.375 85.3583 102.375 82.5634V82.5634ZM177.844 93.1015V72.0254C180.703 72.0254 183.445 73.1356 185.467 75.1119C187.489 77.0882 188.625 79.7686 188.625 82.5634C188.625 85.3583 187.489 88.0387 185.467 90.015C183.445 91.9912 180.703 93.1015 177.844 93.1015V93.1015Z" fill="black"/>
</svg>
