<svg width="110" height="110" viewBox="0 0 110 110" fill="none" xmlns="http://www.w3.org/2000/svg">
<rect x="0.5" y="0.5" width="109" height="109" fill="#0DBFF6"/>
<path d="M68.75 79.0625H41.25V58.4375C41.25 56.6141 41.9743 54.8655 43.2636 53.5761C44.553 52.2868 46.3016 51.5625 48.125 51.5625H61.875V37.8125H41.25V30.9375H61.875C63.6984 30.9375 65.447 31.6618 66.7364 32.9511C68.0257 34.2405 68.75 35.9891 68.75 37.8125V51.5625C68.75 53.3859 68.0257 55.1345 66.7364 56.4239C65.447 57.7132 63.6984 58.4375 61.875 58.4375H48.125V72.1875H68.75V79.0625Z" fill="black"/>
<rect x="0.5" y="0.5" width="109" height="109" stroke="black"/>
</svg>
