<svg width="110" height="110" viewBox="0 0 110 110" fill="none" xmlns="http://www.w3.org/2000/svg">
<rect x="0.5" y="0.5" width="109" height="109" fill="#0DBFF6"/>
<path d="M61.875 79.0625H48.125C46.3016 79.0625 44.553 78.3382 43.2636 77.0489C41.9743 75.7595 41.25 74.0109 41.25 72.1875V37.8125C41.25 35.9891 41.9743 34.2405 43.2636 32.9511C44.553 31.6618 46.3016 30.9375 48.125 30.9375H61.875C63.6984 30.9375 65.447 31.6618 66.7364 32.9511C68.0257 34.2405 68.75 35.9891 68.75 37.8125V72.1875C68.75 74.0109 68.0257 75.7595 66.7364 77.0489C65.447 78.3382 63.6984 79.0625 61.875 79.0625ZM48.125 37.8125V72.1875H61.875V37.8125H48.125Z" fill="black"/>
<path d="M51.5625 51.5625H58.4375V58.4375H51.5625V51.5625Z" fill="black"/>
<rect x="0.5" y="0.5" width="109" height="109" stroke="black"/>
</svg>
