<svg viewBox="0 0 309 130" fill="none" xmlns="http://www.w3.org/2000/svg">
<rect x="0.5" y="0.5" width="308" height="129" fill="white" stroke="black"/>
<path d="M155.5 44.2437L161.106 55.5781L162.041 57.6094L164.072 57.9141L176.584 59.7219L167.687 68.4563L166.164 69.9391L166.53 71.9703L168.662 84.4219L157.47 78.5516L155.5 77.7188L153.611 78.7141L142.419 84.5031L144.45 72.0516L144.816 70.0203L143.312 68.4563L134.334 59.6203L146.847 57.8125L148.878 57.5078L149.812 55.4766L155.5 44.2437ZM155.5 35.0625L146.258 53.7906L125.6 56.7766L140.55 71.3609L137.016 91.9375L155.5 82.2281L173.984 91.9375L170.45 71.3609L185.4 56.7969L164.742 53.7906L155.5 35.0625Z" fill="black"/>
</svg>
