<svg width="110" height="110" viewBox="0 0 110 110" fill="none" xmlns="http://www.w3.org/2000/svg">
<rect x="0.5" y="0.5" width="109" height="109" fill="#0DBFF6"/>
<path d="M54.9999 22.4125L64.4874 41.5938L66.0686 45.0313L69.5061 45.5469L90.6811 48.6063L75.6249 63.3875L73.0468 65.8969L73.6655 69.3344L77.2749 90.4062L58.3343 80.4719L54.9999 79.0625L51.803 80.7469L32.8624 90.5438L36.2999 69.4719L36.9187 66.0344L34.3749 63.3875L19.1812 48.4344L40.3561 45.375L43.7936 44.8594L45.3749 41.4219L54.9999 22.4125ZM54.9999 6.875L39.3593 38.5688L4.3999 43.6219L29.6999 68.3031L23.7187 103.125L54.9999 86.6937L86.2811 103.125L80.2999 68.3031L105.6 43.6562L70.6405 38.5688L54.9999 6.875Z" fill="black"/>
<rect x="0.5" y="0.5" width="109" height="109" stroke="black"/>
</svg>
