<svg viewBox="0 0 309 130" fill="none" xmlns="http://www.w3.org/2000/svg">
<rect x="0.5" y="0.5" width="308" height="129" fill="white" stroke="black"/>
<path d="M159.875 88.031H146.125C144.302 88.031 142.553 87.323 141.264 86.0628C139.974 84.8026 139.25 83.0933 139.25 81.3111V47.7115C139.25 45.9292 139.974 44.22 141.264 42.9598C142.553 41.6995 144.302 40.9915 146.125 40.9915H159.875C161.698 40.9915 163.447 41.6995 164.736 42.9598C166.026 44.22 166.75 45.9292 166.75 47.7115V81.3111C166.75 83.0933 166.026 84.8026 164.736 86.0628C163.447 87.323 161.698 88.031 159.875 88.031ZM146.125 47.7115V81.3111H159.875V47.7115H146.125Z" fill="black"/>
<path d="M149.562 61.1513H156.438V67.8712H149.562V61.1513Z" fill="black"/>
</svg>
