<svg viewBox="0 0 286 84" fill="none" xmlns="http://www.w3.org/2000/svg">
<rect x="0.5" y="0.5" width="285" height="83" fill="white" stroke="black"/>
<path d="M257 16.125H215C211.7 16.125 209 18.8625 209 22.2083V64.7917C209 68.1375 211.7 70.875 215 70.875H257C260.3 70.875 263 68.1375 263 64.7917V22.2083C263 18.8625 260.3 16.125 257 16.125ZM227 58.7083H221V43.5H227V58.7083ZM239 58.7083H233V49.5833H239V58.7083ZM239 43.5H233V37.4167H239V43.5ZM251 58.7083H245V28.2917H251V58.7083Z" fill="black"/>
<path d="M17.968 28.392C19.648 28.392 20.936 28.76 21.832 29.496C22.744 30.232 23.352 31.168 23.656 32.304C23.96 33.44 24.112 34.768 24.112 36.288C24.112 39.328 23.608 41.544 22.6 42.936C21.608 44.312 20.064 45 17.968 45H12.04V28.392H17.968ZM17.968 43.368C20.8 43.368 22.216 41.064 22.216 36.456C22.216 34.216 21.872 32.584 21.184 31.56C20.496 30.536 19.424 30.024 17.968 30.024H13.888V43.368H17.968ZM29.8128 45.24C28.7088 45.24 27.8688 44.928 27.2928 44.304C26.7168 43.68 26.4288 42.784 26.4288 41.616C26.4288 40.464 26.7168 39.608 27.2928 39.048C27.8848 38.488 28.8208 38.144 30.1008 38.016L33.8688 37.656V36.624C33.8688 35.104 33.2128 34.344 31.9008 34.344C30.6048 34.344 29.0288 34.448 27.1728 34.656L27.1008 33.288C28.8128 32.936 30.3728 32.76 31.7808 32.76C33.1408 32.76 34.1248 33.072 34.7328 33.696C35.3568 34.304 35.6688 35.28 35.6688 36.624V42.768C35.7168 43.36 36.1808 43.712 37.0608 43.824L36.9888 45.24C35.7248 45.24 34.7728 44.92 34.1328 44.28C32.7088 44.92 31.2688 45.24 29.8128 45.24ZM30.1008 43.728C31.1728 43.728 32.2448 43.544 33.3168 43.176L33.8688 42.984V39.024L30.3168 39.36C29.5968 39.424 29.0768 39.632 28.7568 39.984C28.4368 40.336 28.2768 40.848 28.2768 41.52C28.2768 42.992 28.8848 43.728 30.1008 43.728ZM43.0362 45.264C42.2202 45.264 41.5802 45.136 41.1162 44.88C40.6682 44.608 40.3402 44.16 40.1322 43.536C39.9402 42.896 39.8442 42.008 39.8442 40.872V34.56H38.1402V33H39.8442V29.328H41.6202V33H45.4362V34.56H41.6202V40.296C41.6202 41.192 41.6522 41.864 41.7162 42.312C41.7802 42.744 41.9322 43.08 42.1722 43.32C42.4282 43.544 42.8202 43.656 43.3482 43.656L45.4842 43.512L45.6042 45C44.4682 45.176 43.6122 45.264 43.0362 45.264ZM50.2503 45.24C49.1463 45.24 48.3063 44.928 47.7303 44.304C47.1543 43.68 46.8663 42.784 46.8663 41.616C46.8663 40.464 47.1543 39.608 47.7303 39.048C48.3223 38.488 49.2583 38.144 50.5383 38.016L54.3063 37.656V36.624C54.3063 35.104 53.6503 34.344 52.3383 34.344C51.0423 34.344 49.4663 34.448 47.6103 34.656L47.5383 33.288C49.2503 32.936 50.8103 32.76 52.2183 32.76C53.5783 32.76 54.5623 33.072 55.1703 33.696C55.7943 34.304 56.1063 35.28 56.1063 36.624V42.768C56.1543 43.36 56.6183 43.712 57.4983 43.824L57.4263 45.24C56.1623 45.24 55.2103 44.92 54.5703 44.28C53.1463 44.92 51.7063 45.24 50.2503 45.24ZM50.5383 43.728C51.6103 43.728 52.6823 43.544 53.7543 43.176L54.3063 42.984V39.024L50.7543 39.36C50.0343 39.424 49.5143 39.632 49.1943 39.984C48.8743 40.336 48.7143 40.848 48.7143 41.52C48.7143 42.992 49.3223 43.728 50.5383 43.728ZM69.9231 45.24C67.9231 45.24 66.4671 44.808 65.5551 43.944C64.6591 43.08 64.2111 41.816 64.2111 40.152C64.2111 38.776 64.5071 37.728 65.0991 37.008C65.6911 36.272 66.6351 35.696 67.9311 35.28C67.4511 34.752 67.0991 34.232 66.8751 33.72C66.6671 33.208 66.5631 32.624 66.5631 31.968C66.5631 30.72 66.9231 29.776 67.6431 29.136C68.3791 28.496 69.4191 28.176 70.7631 28.176C72.1231 28.176 73.1471 28.488 73.8351 29.112C74.5391 29.736 74.8911 30.656 74.8911 31.872C74.8911 32.912 74.6111 33.768 74.0511 34.44C73.4911 35.112 72.5391 35.752 71.1951 36.36L74.8431 39.96C75.1951 38.952 75.4191 37.656 75.5151 36.072L77.2671 36.096C77.0431 38.144 76.6751 39.808 76.1631 41.088L79.2591 44.016L78.1791 45.216L75.2751 42.504C74.6351 43.528 73.8911 44.24 73.0431 44.64C72.2111 45.04 71.1711 45.24 69.9231 45.24ZM70.1391 35.28C71.2271 34.816 71.9871 34.352 72.4191 33.888C72.8671 33.408 73.0911 32.784 73.0911 32.016C73.0911 30.496 72.3071 29.736 70.7391 29.736C69.1551 29.736 68.3631 30.48 68.3631 31.968C68.3631 32.96 68.7231 33.84 69.4431 34.608L70.1391 35.28ZM69.8991 43.608C70.9231 43.608 71.7711 43.432 72.4431 43.08C73.1311 42.712 73.6591 42.168 74.0271 41.448L68.9631 36.408C67.9231 36.728 67.1711 37.16 66.7071 37.704C66.2591 38.232 66.0351 39 66.0351 40.008C66.0351 41.224 66.3551 42.128 66.9951 42.72C67.6351 43.312 68.6031 43.608 69.8991 43.608ZM95.704 40.728H88.6L87.4 45H85.576L90.136 28.392H94.168L98.728 45H96.904L95.704 40.728ZM89.008 39.072H95.296L92.776 29.976H91.528L89.008 39.072ZM101.025 33H102.801V33.84C103.521 33.44 104.177 33.16 104.769 33C105.377 32.84 106.009 32.76 106.665 32.76C107.689 32.76 108.481 32.952 109.041 33.336C109.601 33.72 109.993 34.336 110.217 35.184C110.457 36.016 110.577 37.176 110.577 38.664V45H108.801V38.712C108.801 37.576 108.729 36.704 108.585 36.096C108.457 35.488 108.217 35.048 107.865 34.776C107.513 34.504 107.001 34.368 106.329 34.368C105.785 34.368 105.225 34.44 104.649 34.584C104.089 34.712 103.633 34.864 103.281 35.04L102.825 35.256V45H101.025V33ZM116.532 45.24C115.428 45.24 114.588 44.928 114.012 44.304C113.436 43.68 113.148 42.784 113.148 41.616C113.148 40.464 113.436 39.608 114.012 39.048C114.604 38.488 115.54 38.144 116.82 38.016L120.588 37.656V36.624C120.588 35.104 119.932 34.344 118.62 34.344C117.324 34.344 115.748 34.448 113.892 34.656L113.82 33.288C115.532 32.936 117.092 32.76 118.5 32.76C119.86 32.76 120.844 33.072 121.452 33.696C122.076 34.304 122.388 35.28 122.388 36.624V42.768C122.436 43.36 122.9 43.712 123.78 43.824L123.708 45.24C122.444 45.24 121.492 44.92 120.852 44.28C119.428 44.92 117.988 45.24 116.532 45.24ZM116.82 43.728C117.892 43.728 118.964 43.544 120.036 43.176L120.588 42.984V39.024L117.036 39.36C116.316 39.424 115.796 39.632 115.476 39.984C115.156 40.336 114.996 40.848 114.996 41.52C114.996 42.992 115.604 43.728 116.82 43.728ZM126.083 27.768H127.883V45H126.083V27.768ZM135.128 45H133.352L129.944 33H131.744L134.744 43.44H135.536L138.56 33H140.36L135.368 50.328H133.568L135.128 45ZM146.489 45.264C145.673 45.264 145.033 45.136 144.569 44.88C144.121 44.608 143.793 44.16 143.585 43.536C143.393 42.896 143.297 42.008 143.297 40.872V34.56H141.593V33H143.297V29.328H145.073V33H148.889V34.56H145.073V40.296C145.073 41.192 145.105 41.864 145.169 42.312C145.233 42.744 145.385 43.08 145.625 43.32C145.881 43.544 146.273 43.656 146.801 43.656L148.937 43.512L149.057 45C147.921 45.176 147.065 45.264 146.489 45.264ZM151.087 33H152.863V45H151.087V33ZM151.087 28.2H152.863V30.288H151.087V28.2ZM160.493 45.24C159.293 45.24 158.341 45.032 157.637 44.616C156.933 44.184 156.429 43.52 156.125 42.624C155.821 41.712 155.669 40.504 155.669 39C155.669 37.096 155.989 35.576 156.629 34.44C157.269 33.304 158.509 32.736 160.349 32.736C160.829 32.736 161.325 32.76 161.837 32.808C162.349 32.856 163.045 32.96 163.925 33.12L163.853 34.584C162.589 34.44 161.621 34.368 160.949 34.368C160.037 34.368 159.333 34.512 158.837 34.8C158.357 35.072 158.013 35.544 157.805 36.216C157.613 36.872 157.517 37.816 157.517 39.048C157.517 40.216 157.613 41.128 157.805 41.784C157.997 42.424 158.341 42.896 158.837 43.2C159.349 43.488 160.085 43.632 161.045 43.632L163.877 43.416L163.949 44.904C162.413 45.128 161.261 45.24 160.493 45.24ZM170.394 45.24C169.434 45.24 168.258 45.128 166.866 44.904L166.146 44.784L166.242 43.224C168.114 43.496 169.49 43.632 170.37 43.632C171.33 43.632 172.042 43.48 172.506 43.176C172.986 42.856 173.226 42.352 173.226 41.664C173.226 41.168 173.106 40.792 172.866 40.536C172.642 40.28 172.346 40.096 171.978 39.984C171.626 39.872 171.122 39.768 170.466 39.672L169.866 39.576C168.906 39.416 168.154 39.224 167.61 39C167.066 38.776 166.658 38.464 166.386 38.064C166.114 37.648 165.978 37.08 165.978 36.36C165.978 35.064 166.37 34.144 167.154 33.6C167.938 33.056 169.05 32.784 170.49 32.784C171.626 32.784 172.786 32.888 173.97 33.096L174.642 33.216L174.594 34.752C172.866 34.496 171.514 34.368 170.538 34.368C169.61 34.368 168.914 34.512 168.45 34.8C168.002 35.088 167.778 35.536 167.778 36.144C167.778 36.576 167.89 36.912 168.114 37.152C168.338 37.376 168.626 37.544 168.978 37.656C169.346 37.752 169.858 37.856 170.514 37.968L171.114 38.088C172.106 38.264 172.874 38.472 173.418 38.712C173.962 38.936 174.362 39.264 174.618 39.696C174.89 40.128 175.026 40.728 175.026 41.496C175.026 42.792 174.642 43.744 173.874 44.352C173.122 44.944 171.962 45.24 170.394 45.24Z" fill="black"/>
</svg>
