<svg viewBox="0 0 286 84" fill="none" xmlns="http://www.w3.org/2000/svg">
<rect x="0.5" y="0.5" width="285" height="83" fill="white" stroke="black"/>
<path d="M256.05 35.5383C254.01 25.0446 244.92 17.1667 234 17.1667C225.33 17.1667 217.8 22.155 214.05 29.455C205.02 30.4283 198 38.1846 198 47.5833C198 57.6513 206.07 65.8333 216 65.8333H255C263.28 65.8333 270 59.02 270 50.625C270 42.595 263.85 36.0858 256.05 35.5383ZM255 59.75H216C209.37 59.75 204 54.3054 204 47.5833C204 40.8613 209.37 35.4167 216 35.4167H218.13C220.11 28.3904 226.44 23.25 234 23.25C243.12 23.25 250.5 30.7325 250.5 39.9792V41.5H255C259.98 41.5 264 45.5758 264 50.625C264 55.6742 259.98 59.75 255 59.75Z" fill="black"/>
<path d="M17.552 48.216C16.432 48.216 14.968 48.08 13.16 47.808L12.296 47.688L12.488 46.152C14.68 46.44 16.336 46.584 17.456 46.584C19.824 46.584 21.008 45.472 21.008 43.248C21.008 42.64 20.896 42.16 20.672 41.808C20.464 41.456 20.096 41.168 19.568 40.944C19.056 40.72 18.304 40.512 17.312 40.32C16 40.048 14.976 39.736 14.24 39.384C13.52 39.032 12.992 38.56 12.656 37.968C12.32 37.376 12.152 36.584 12.152 35.592C12.152 32.616 13.936 31.128 17.504 31.128C18.736 31.128 20.408 31.288 22.52 31.608L22.352 33.168C20.048 32.896 18.472 32.76 17.624 32.76C15.224 32.76 14.024 33.664 14.024 35.472C14.024 36.16 14.136 36.688 14.36 37.056C14.6 37.408 15 37.696 15.56 37.92C16.12 38.144 17.008 38.392 18.224 38.664C19.408 38.936 20.32 39.24 20.96 39.576C21.616 39.912 22.096 40.36 22.4 40.92C22.704 41.464 22.856 42.192 22.856 43.104C22.856 46.512 21.088 48.216 17.552 48.216ZM28.3518 48.24C27.2478 48.24 26.4078 47.928 25.8318 47.304C25.2558 46.68 24.9678 45.784 24.9678 44.616C24.9678 43.464 25.2558 42.608 25.8318 42.048C26.4238 41.488 27.3598 41.144 28.6398 41.016L32.4078 40.656V39.624C32.4078 38.104 31.7518 37.344 30.4398 37.344C29.1438 37.344 27.5678 37.448 25.7118 37.656L25.6398 36.288C27.3518 35.936 28.9118 35.76 30.3198 35.76C31.6798 35.76 32.6638 36.072 33.2718 36.696C33.8958 37.304 34.2078 38.28 34.2078 39.624V45.768C34.2558 46.36 34.7198 46.712 35.5998 46.824L35.5278 48.24C34.2638 48.24 33.3118 47.92 32.6718 47.28C31.2478 47.92 29.8078 48.24 28.3518 48.24ZM28.6398 46.728C29.7118 46.728 30.7838 46.544 31.8558 46.176L32.4078 45.984V42.024L28.8558 42.36C28.1358 42.424 27.6158 42.632 27.2958 42.984C26.9758 43.336 26.8158 43.848 26.8158 44.52C26.8158 45.992 27.4238 46.728 28.6398 46.728ZM40.3753 48.24C39.2713 48.24 38.4313 47.928 37.8553 47.304C37.2793 46.68 36.9913 45.784 36.9913 44.616C36.9913 43.464 37.2793 42.608 37.8553 42.048C38.4473 41.488 39.3833 41.144 40.6633 41.016L44.4313 40.656V39.624C44.4313 38.104 43.7753 37.344 42.4633 37.344C41.1673 37.344 39.5913 37.448 37.7353 37.656L37.6633 36.288C39.3753 35.936 40.9353 35.76 42.3433 35.76C43.7033 35.76 44.6873 36.072 45.2953 36.696C45.9193 37.304 46.2313 38.28 46.2313 39.624V45.768C46.2793 46.36 46.7433 46.712 47.6233 46.824L47.5513 48.24C46.2873 48.24 45.3353 47.92 44.6953 47.28C43.2713 47.92 41.8313 48.24 40.3753 48.24ZM40.6633 46.728C41.7353 46.728 42.8073 46.544 43.8793 46.176L44.4313 45.984V42.024L40.8793 42.36C40.1593 42.424 39.6393 42.632 39.3193 42.984C38.9993 43.336 38.8393 43.848 38.8393 44.52C38.8393 45.992 39.4473 46.728 40.6633 46.728ZM54.6067 48.216C53.4867 48.216 52.0227 48.08 50.2147 47.808L49.3507 47.688L49.5427 46.152C51.7347 46.44 53.3907 46.584 54.5107 46.584C56.8787 46.584 58.0627 45.472 58.0627 43.248C58.0627 42.64 57.9507 42.16 57.7267 41.808C57.5187 41.456 57.1507 41.168 56.6227 40.944C56.1107 40.72 55.3587 40.512 54.3667 40.32C53.0547 40.048 52.0307 39.736 51.2947 39.384C50.5747 39.032 50.0467 38.56 49.7107 37.968C49.3747 37.376 49.2067 36.584 49.2067 35.592C49.2067 32.616 50.9907 31.128 54.5587 31.128C55.7907 31.128 57.4627 31.288 59.5747 31.608L59.4067 33.168C57.1027 32.896 55.5267 32.76 54.6787 32.76C52.2787 32.76 51.0787 33.664 51.0787 35.472C51.0787 36.16 51.1907 36.688 51.4147 37.056C51.6547 37.408 52.0547 37.696 52.6147 37.92C53.1747 38.144 54.0627 38.392 55.2787 38.664C56.4627 38.936 57.3747 39.24 58.0147 39.576C58.6707 39.912 59.1507 40.36 59.4547 40.92C59.7587 41.464 59.9107 42.192 59.9107 43.104C59.9107 46.512 58.1427 48.216 54.6067 48.216ZM73.0559 48.24C71.0559 48.24 69.5999 47.808 68.6879 46.944C67.7919 46.08 67.3439 44.816 67.3439 43.152C67.3439 41.776 67.6399 40.728 68.2319 40.008C68.8239 39.272 69.7679 38.696 71.0639 38.28C70.5839 37.752 70.2319 37.232 70.0079 36.72C69.7999 36.208 69.6959 35.624 69.6959 34.968C69.6959 33.72 70.0559 32.776 70.7759 32.136C71.5119 31.496 72.5519 31.176 73.8959 31.176C75.2559 31.176 76.2799 31.488 76.9679 32.112C77.6719 32.736 78.0239 33.656 78.0239 34.872C78.0239 35.912 77.7439 36.768 77.1839 37.44C76.6239 38.112 75.6719 38.752 74.3279 39.36L77.9759 42.96C78.3279 41.952 78.5519 40.656 78.6479 39.072L80.3999 39.096C80.1759 41.144 79.8079 42.808 79.2959 44.088L82.3919 47.016L81.3119 48.216L78.4079 45.504C77.7679 46.528 77.0239 47.24 76.1759 47.64C75.3439 48.04 74.3039 48.24 73.0559 48.24ZM73.2719 38.28C74.3599 37.816 75.1199 37.352 75.5519 36.888C75.9999 36.408 76.2239 35.784 76.2239 35.016C76.2239 33.496 75.4399 32.736 73.8719 32.736C72.2879 32.736 71.4959 33.48 71.4959 34.968C71.4959 35.96 71.8559 36.84 72.5759 37.608L73.2719 38.28ZM73.0319 46.608C74.0559 46.608 74.9039 46.432 75.5759 46.08C76.2639 45.712 76.7919 45.168 77.1599 44.448L72.0959 39.408C71.0559 39.728 70.3039 40.16 69.8399 40.704C69.3919 41.232 69.1679 42 69.1679 43.008C69.1679 44.224 69.4879 45.128 70.1279 45.72C70.7679 46.312 71.7359 46.608 73.0319 46.608ZM95.8368 48.24C94.1408 48.24 92.8368 47.928 91.9248 47.304C91.0128 46.664 90.3888 45.736 90.0528 44.52C89.7168 43.304 89.5488 41.696 89.5488 39.696C89.5488 37.712 89.7168 36.112 90.0528 34.896C90.3888 33.664 90.9968 32.736 91.8768 32.112C92.7728 31.472 94.0528 31.152 95.7168 31.152C97.0128 31.152 98.5088 31.328 100.205 31.68L100.133 33.24C98.5168 32.952 97.1248 32.808 95.9568 32.808C94.7088 32.808 93.7648 33.032 93.1248 33.48C92.4848 33.928 92.0448 34.648 91.8048 35.64C91.5808 36.632 91.4688 38.072 91.4688 39.96C91.4688 41.592 91.5728 42.872 91.7808 43.8C92.0048 44.712 92.4528 45.408 93.1248 45.888C93.7968 46.352 94.8128 46.584 96.1728 46.584C97.2768 46.584 98.5968 46.44 100.133 46.152L100.205 47.736C98.5568 48.072 97.1008 48.24 95.8368 48.24ZM103.06 30.768H104.86V48H103.06V30.768ZM112.938 48.24C111.658 48.24 110.642 48.032 109.89 47.616C109.138 47.184 108.602 46.52 108.282 45.624C107.962 44.728 107.802 43.544 107.802 42.072C107.802 40.552 107.97 39.336 108.306 38.424C108.642 37.496 109.186 36.824 109.938 36.408C110.69 35.976 111.69 35.76 112.938 35.76C114.202 35.76 115.202 35.976 115.938 36.408C116.69 36.84 117.234 37.512 117.57 38.424C117.906 39.336 118.074 40.552 118.074 42.072C118.074 43.544 117.914 44.728 117.594 45.624C117.274 46.52 116.738 47.184 115.986 47.616C115.25 48.032 114.234 48.24 112.938 48.24ZM112.962 46.68C113.842 46.68 114.514 46.536 114.978 46.248C115.442 45.944 115.762 45.472 115.938 44.832C116.13 44.176 116.226 43.256 116.226 42.072C116.226 40.824 116.13 39.864 115.938 39.192C115.746 38.52 115.418 38.04 114.954 37.752C114.49 37.464 113.826 37.32 112.962 37.32C112.098 37.32 111.426 37.464 110.946 37.752C110.482 38.04 110.146 38.52 109.938 39.192C109.746 39.864 109.65 40.824 109.65 42.072C109.65 43.24 109.738 44.152 109.914 44.808C110.106 45.464 110.434 45.944 110.898 46.248C111.378 46.536 112.066 46.68 112.962 46.68ZM124.753 48.24C123.729 48.24 122.937 48.056 122.377 47.688C121.833 47.304 121.449 46.688 121.225 45.84C121.001 44.992 120.889 43.8 120.889 42.264V36H122.689V42.24C122.689 43.44 122.753 44.344 122.881 44.952C123.009 45.56 123.241 45.992 123.577 46.248C123.913 46.504 124.433 46.632 125.137 46.632C126.225 46.632 127.345 46.336 128.497 45.744V36H130.297V48H128.497V47.16C127.841 47.544 127.233 47.824 126.673 48C126.113 48.16 125.473 48.24 124.753 48.24ZM137.479 48.24C135.959 48.24 134.871 47.752 134.215 46.776C133.559 45.784 133.231 44.264 133.231 42.216C133.231 39.928 133.623 38.28 134.407 37.272C135.207 36.264 136.519 35.76 138.343 35.76C139.255 35.76 140.207 35.864 141.199 36.072V30.768H142.975V48H141.199V47.184C139.967 47.888 138.727 48.24 137.479 48.24ZM137.815 46.632C138.279 46.632 138.783 46.568 139.327 46.44C139.871 46.296 140.335 46.136 140.719 45.96L141.199 45.744V37.608C140.159 37.416 139.255 37.32 138.487 37.32C137.223 37.32 136.335 37.688 135.823 38.424C135.327 39.16 135.079 40.376 135.079 42.072C135.079 43.624 135.279 44.776 135.679 45.528C136.095 46.264 136.807 46.632 137.815 46.632Z" fill="black"/>
</svg>
