<svg viewBox="0 0 286 84" fill="none" xmlns="http://www.w3.org/2000/svg">
<rect x="0.5" y="0.5" width="285" height="83" fill="white" stroke="black"/>
<path d="M15.672 45.384L16.8 44.04C17.808 44.984 18.752 45.656 19.632 46.056C20.528 46.456 21.52 46.656 22.608 46.656C23.904 46.656 24.976 46.336 25.824 45.696C26.672 45.04 27.096 44.232 27.096 43.272C27.096 42.44 26.808 41.8 26.232 41.352C25.672 40.904 24.712 40.56 23.352 40.32L20.64 39.864C19.104 39.592 17.976 39.128 17.256 38.472C16.552 37.8 16.2 36.904 16.2 35.784C16.2 34.376 16.736 33.224 17.808 32.328C18.88 31.432 20.264 30.984 21.96 30.984C23.208 30.984 24.368 31.16 25.44 31.512C26.512 31.848 27.568 32.384 28.608 33.12L27.648 34.56C26.784 33.92 25.864 33.424 24.888 33.072C23.928 32.72 22.96 32.544 21.984 32.544C20.816 32.544 19.856 32.84 19.104 33.432C18.352 34.008 17.976 34.728 17.976 35.592C17.976 36.328 18.224 36.904 18.72 37.32C19.216 37.736 20.024 38.032 21.144 38.208L23.832 38.664C25.608 38.984 26.904 39.504 27.72 40.224C28.536 40.944 28.944 41.928 28.944 43.176C28.944 43.896 28.784 44.568 28.464 45.192C28.144 45.816 27.696 46.352 27.12 46.8C26.56 47.248 25.888 47.6 25.104 47.856C24.32 48.112 23.472 48.24 22.56 48.24C21.248 48.24 20.024 48.008 18.888 47.544C17.768 47.064 16.696 46.344 15.672 45.384ZM31.4595 42.144C31.4595 41.28 31.6035 40.48 31.8915 39.744C32.1795 39.008 32.5715 38.368 33.0675 37.824C33.5795 37.28 34.1875 36.856 34.8915 36.552C35.5955 36.248 36.3475 36.096 37.1475 36.096C37.9635 36.096 38.7155 36.248 39.4035 36.552C40.1075 36.856 40.7155 37.28 41.2275 37.824C41.7395 38.368 42.1395 39.008 42.4275 39.744C42.7155 40.48 42.8595 41.28 42.8595 42.144C42.8595 43.008 42.7075 43.816 42.4035 44.568C42.1155 45.32 41.7155 45.968 41.2035 46.512C40.7075 47.04 40.1075 47.464 39.4035 47.784C38.6995 48.088 37.9475 48.24 37.1475 48.24C36.3475 48.24 35.5955 48.088 34.8915 47.784C34.2035 47.464 33.6035 47.032 33.0915 46.488C32.5955 45.944 32.1955 45.304 31.8915 44.568C31.6035 43.816 31.4595 43.008 31.4595 42.144ZM37.1475 46.68C38.2835 46.68 39.2275 46.256 39.9795 45.408C40.7475 44.544 41.1315 43.464 41.1315 42.168C41.1315 40.872 40.7475 39.792 39.9795 38.928C39.2275 38.064 38.2835 37.632 37.1475 37.632C36.0115 37.632 35.0675 38.064 34.3155 38.928C33.5635 39.792 33.1875 40.872 33.1875 42.168C33.1875 43.464 33.5635 44.544 34.3155 45.408C35.0675 46.256 36.0115 46.68 37.1475 46.68ZM44.0548 36.288H46.6708V33.72C46.6708 32.568 46.9748 31.68 47.5828 31.056C48.1908 30.432 49.0548 30.12 50.1748 30.12C50.4948 30.12 50.7828 30.144 51.0388 30.192C51.3108 30.224 51.5508 30.272 51.7588 30.336V31.92C51.5028 31.856 51.2628 31.808 51.0388 31.776C50.8308 31.728 50.5988 31.704 50.3428 31.704C49.6708 31.704 49.1828 31.872 48.8788 32.208C48.5748 32.544 48.4228 33.056 48.4228 33.744V36.288H51.7588V37.728H48.4228V48H46.6708V37.728H44.0548V36.288ZM55.692 45.36V37.728H53.268V36.288H55.692V33.072L57.444 32.664V36.288H60.804V37.728H57.444V44.904C57.444 45.528 57.572 45.976 57.828 46.248C58.1 46.52 58.54 46.656 59.148 46.656C59.452 46.656 59.724 46.632 59.964 46.584C60.204 46.536 60.484 46.456 60.804 46.344V47.904C60.484 48.016 60.148 48.096 59.796 48.144C59.444 48.192 59.1 48.216 58.764 48.216C57.756 48.216 56.988 47.976 56.46 47.496C55.948 47 55.692 46.288 55.692 45.36ZM67.4207 48H65.6927L62.4767 36.288H64.1807L66.6287 45.648L69.4367 36.288H70.9967L73.8047 45.648L76.2287 36.288H77.8847L74.6927 48H72.9887L70.2047 38.544L67.4207 48ZM83.9396 48.216C82.6916 48.216 81.6676 47.888 80.8676 47.232C80.0836 46.56 79.6916 45.696 79.6916 44.64C79.6916 43.6 80.0916 42.76 80.8916 42.12C81.7076 41.48 82.7716 41.16 84.0836 41.16C84.7556 41.16 85.3876 41.24 85.9796 41.4C86.5876 41.544 87.1476 41.768 87.6596 42.072V40.464C87.6596 39.504 87.4036 38.784 86.8916 38.304C86.3796 37.808 85.6276 37.56 84.6356 37.56C84.0916 37.56 83.5316 37.64 82.9556 37.8C82.3956 37.96 81.7716 38.216 81.0836 38.568L80.4356 37.224C81.2356 36.84 81.9956 36.56 82.7156 36.384C83.4356 36.192 84.1476 36.096 84.8516 36.096C86.2916 36.096 87.4036 36.456 88.1876 37.176C88.9876 37.88 89.3876 38.896 89.3876 40.224V48H87.6596V46.632C87.1476 47.16 86.5796 47.56 85.9556 47.832C85.3316 48.088 84.6596 48.216 83.9396 48.216ZM81.3716 44.592C81.3716 45.28 81.6436 45.832 82.1876 46.248C82.7316 46.664 83.4356 46.872 84.2996 46.872C84.9556 46.872 85.5556 46.76 86.0996 46.536C86.6596 46.312 87.1796 45.976 87.6596 45.528V43.272C87.1636 42.984 86.6516 42.776 86.1236 42.648C85.5956 42.504 85.0036 42.432 84.3476 42.432C83.4516 42.432 82.7316 42.632 82.1876 43.032C81.6436 43.432 81.3716 43.952 81.3716 44.592ZM92.9484 48V36.288H94.7004V38.664C95.0044 37.848 95.4364 37.216 95.9964 36.768C96.5724 36.304 97.2284 36.072 97.9644 36.072C98.1724 36.072 98.3644 36.088 98.5404 36.12C98.7164 36.136 98.8924 36.176 99.0684 36.24V37.824C98.8764 37.76 98.6684 37.712 98.4444 37.68C98.2364 37.632 98.0364 37.608 97.8444 37.608C97.1244 37.608 96.4924 37.816 95.9484 38.232C95.4204 38.648 95.0044 39.232 94.7004 39.984V48H92.9484ZM110.308 46.656C109.636 47.184 108.94 47.576 108.22 47.832C107.5 48.088 106.732 48.216 105.916 48.216C105.1 48.216 104.332 48.064 103.612 47.76C102.908 47.44 102.292 47.008 101.764 46.464C101.252 45.92 100.844 45.28 100.54 44.544C100.252 43.792 100.108 42.992 100.108 42.144C100.108 41.296 100.244 40.504 100.516 39.768C100.804 39.016 101.196 38.376 101.692 37.848C102.188 37.304 102.772 36.88 103.444 36.576C104.116 36.256 104.844 36.096 105.628 36.096C106.396 36.096 107.108 36.248 107.764 36.552C108.42 36.856 108.988 37.272 109.468 37.8C109.948 38.312 110.324 38.936 110.596 39.672C110.868 40.392 111.004 41.168 111.004 42V42.528H101.812C101.892 43.712 102.332 44.704 103.132 45.504C103.932 46.288 104.884 46.68 105.988 46.68C106.596 46.68 107.18 46.576 107.74 46.368C108.316 46.144 108.804 45.848 109.204 45.48L110.308 46.656ZM105.604 37.608C104.644 37.608 103.82 37.952 103.132 38.64C102.444 39.328 102.02 40.208 101.86 41.28H109.276C109.148 40.224 108.74 39.352 108.052 38.664C107.38 37.96 106.564 37.608 105.604 37.608Z" fill="black"/>
<path d="M228.675 54.0333L216.6 41L228.675 27.9667L225 24L209.25 41L225 58L228.675 54.0333ZM242.325 54.0333L254.4 41L242.325 27.9667L246 24L261.75 41L246 58L242.325 54.0333Z" fill="black"/>
</svg>
