<svg viewBox="0 0 593 577" fill="none" xmlns="http://www.w3.org/2000/svg">
<rect width="593" height="577" fill="#1CACB6"/>
<path d="M13.584 10.984C14.832 10.984 16.176 11.112 17.616 11.368C19.088 11.592 19.952 11.72 20.208 11.752L20.112 15.352C17.296 14.84 15.12 14.584 13.584 14.584C11.408 14.584 9.84 15.032 8.88 15.928C7.92 16.824 7.44 18.312 7.44 20.392V34.12C7.44 36.2 7.904 37.688 8.832 38.584C9.792 39.448 11.376 39.88 13.584 39.88C15.12 39.88 17.296 39.624 20.112 39.112L20.208 42.808C19.952 42.84 19.088 42.968 17.616 43.192C16.176 43.448 14.832 43.576 13.584 43.576C9.904 43.576 7.28 42.792 5.712 41.224C4.144 39.656 3.36 37.208 3.36 33.88V20.68C3.36 17.352 4.144 14.904 5.712 13.336C7.28 11.768 9.904 10.984 13.584 10.984ZM36.1778 19C36.6258 19 36.9778 19.032 37.2338 19.096V23.704C36.7538 23.608 36.1298 23.56 35.3618 23.56C33.1218 23.56 31.3458 24.68 30.0338 26.92V43H25.9538V19.576H29.7938V23.08C30.6578 21.768 31.6178 20.76 32.6738 20.056C33.7618 19.352 34.9298 19 36.1778 19ZM59.5886 19.576L48.8366 51.88H44.7566L47.8286 43H46.2926L39.6206 19.576H44.0846L49.1246 40.072L55.3646 19.576H59.5886ZM73.5829 19C75.5989 19 77.1669 19.688 78.2869 21.064C79.4069 22.44 79.9669 24.424 79.9669 27.016V35.56C79.9669 38.056 79.3109 40.024 77.9989 41.464C76.7189 42.872 74.9749 43.576 72.7669 43.576C71.9349 43.576 71.0389 43.4 70.0789 43.048C69.1509 42.728 68.2869 42.344 67.4869 41.896V51.88H63.4069V19.576H67.2469V22.984C69.0069 20.328 71.1189 19 73.5829 19ZM72.7669 22.648C71.8389 22.648 70.8949 23 69.9349 23.704C69.0069 24.376 68.1909 25.304 67.4869 26.488V38.248C68.1589 38.792 68.8949 39.224 69.6949 39.544C70.5269 39.832 71.2789 39.976 71.9509 39.976C74.5749 39.976 75.8869 38.312 75.8869 34.984V27.592C75.8869 24.296 74.8469 22.648 72.7669 22.648ZM91.1288 19.576H97.3688V22.936H91.1288V36.664C91.1288 37.88 91.3688 38.76 91.8488 39.304C92.3608 39.816 93.1448 40.072 94.2008 40.072C95.5448 40.072 96.8568 39.912 98.1368 39.592L98.2328 43C96.8248 43.384 95.5448 43.576 94.3928 43.576C91.8328 43.576 89.9608 43.016 88.7768 41.896C87.6248 40.744 87.0488 38.888 87.0488 36.328V22.936H83.6888V19.576H87.0488L87.8168 13.336H91.1288V19.576ZM110.516 19C113.364 19 115.476 19.768 116.852 21.304C118.26 22.808 118.964 24.952 118.964 27.736V34.84C118.964 37.624 118.26 39.784 116.852 41.32C115.476 42.824 113.364 43.576 110.516 43.576C107.668 43.576 105.54 42.824 104.132 41.32C102.756 39.784 102.068 37.624 102.068 34.84V27.736C102.068 24.952 102.756 22.808 104.132 21.304C105.54 19.768 107.668 19 110.516 19ZM110.516 22.408C109.14 22.408 108.068 22.84 107.3 23.704C106.532 24.568 106.148 25.8 106.148 27.4V35.176C106.148 36.776 106.532 38.008 107.3 38.872C108.068 39.736 109.14 40.168 110.516 40.168C111.892 40.168 112.964 39.736 113.732 38.872C114.5 38.008 114.884 36.776 114.884 35.176V27.352C114.884 25.752 114.5 24.536 113.732 23.704C112.964 22.84 111.892 22.408 110.516 22.408ZM132.868 19C134.276 19 135.556 19.208 136.708 19.624L144.196 19.528V23.128L140.26 23.032C140.804 24.184 141.076 25.384 141.076 26.632V27.688C141.076 30.024 140.356 31.912 138.916 33.352C137.476 34.76 135.46 35.464 132.868 35.464C131.204 35.464 129.844 35.304 128.788 34.984C128.084 35.56 127.732 36.216 127.732 36.952V37.24C127.732 37.752 127.892 38.136 128.212 38.392C128.532 38.616 129.156 38.76 130.084 38.824L137.236 39.352C138.708 39.48 139.892 40.04 140.788 41.032C141.716 41.992 142.18 43.208 142.18 44.68V46.456C142.18 47.832 141.908 48.952 141.364 49.816C140.82 50.68 139.812 51.336 138.34 51.784C136.9 52.232 134.82 52.456 132.1 52.456C131.076 52.456 129.86 52.344 128.452 52.12C127.076 51.896 125.764 51.608 124.516 51.256L124.66 47.464C127.636 48.456 130.164 48.952 132.244 48.952C133.972 48.952 135.252 48.84 136.084 48.616C136.948 48.424 137.508 48.12 137.764 47.704C138.052 47.288 138.196 46.664 138.196 45.832V45.448C138.196 44.712 137.988 44.136 137.572 43.72C137.188 43.304 136.628 43.08 135.892 43.048L128.692 42.568C127.156 42.472 125.988 42.04 125.188 41.272C124.388 40.504 123.988 39.464 123.988 38.152V37.192C123.988 36.488 124.164 35.8 124.516 35.128C124.9 34.456 125.444 33.864 126.148 33.352C125.604 32.744 125.204 31.976 124.948 31.048C124.724 30.088 124.612 28.92 124.612 27.544V26.488C124.612 24.216 125.316 22.408 126.724 21.064C128.132 19.688 130.18 19 132.868 19ZM132.868 22.408C131.524 22.408 130.484 22.76 129.748 23.464C129.044 24.136 128.692 25.112 128.692 26.392V27.976C128.692 29.16 128.788 30.04 128.98 30.616C129.204 31.16 129.588 31.544 130.132 31.768C130.676 31.96 131.492 32.056 132.58 32.056C134.052 32.056 135.156 31.704 135.892 31C136.628 30.296 136.996 29.288 136.996 27.976V26.536C136.996 25.192 136.804 24.024 136.42 23.032C136.036 22.872 135.508 22.728 134.836 22.6C134.196 22.472 133.54 22.408 132.868 22.408ZM158.24 19C158.688 19 159.04 19.032 159.296 19.096V23.704C158.816 23.608 158.192 23.56 157.424 23.56C155.184 23.56 153.408 24.68 152.096 26.92V43H148.016V19.576H151.856V23.08C152.72 21.768 153.68 20.76 154.736 20.056C155.824 19.352 156.992 19 158.24 19ZM170.075 19C172.827 19 174.827 19.624 176.075 20.872C177.355 22.088 177.995 24.04 177.995 26.728V43H174.107V39.256C172.251 42.136 170.155 43.576 167.819 43.576C165.963 43.576 164.475 42.936 163.355 41.656C162.267 40.376 161.723 38.632 161.723 36.424V35.08C161.723 33.16 162.379 31.576 163.691 30.328C165.003 29.048 166.763 28.408 168.971 28.408C170.187 28.408 171.835 28.616 173.915 29.032V26.392C173.915 25.016 173.595 24.024 172.955 23.416C172.347 22.808 171.387 22.504 170.075 22.504C168.539 22.504 166.379 22.744 163.595 23.224V19.72C166.603 19.24 168.763 19 170.075 19ZM169.979 31.576C168.635 31.576 167.611 31.928 166.907 32.632C166.203 33.336 165.851 34.328 165.851 35.608V36.136C165.851 37.32 166.123 38.248 166.667 38.92C167.211 39.592 167.899 39.928 168.731 39.928C169.595 39.928 170.475 39.56 171.371 38.824C172.299 38.056 173.147 36.984 173.915 35.608V31.912C172.699 31.688 171.387 31.576 169.979 31.576ZM194.661 19C196.677 19 198.245 19.688 199.365 21.064C200.485 22.44 201.045 24.424 201.045 27.016V35.56C201.045 38.056 200.389 40.024 199.077 41.464C197.797 42.872 196.053 43.576 193.845 43.576C193.013 43.576 192.117 43.4 191.157 43.048C190.229 42.728 189.365 42.344 188.565 41.896V51.88H184.485V19.576H188.325V22.984C190.085 20.328 192.197 19 194.661 19ZM193.845 22.648C192.917 22.648 191.973 23 191.013 23.704C190.085 24.376 189.269 25.304 188.565 26.488V38.248C189.237 38.792 189.973 39.224 190.773 39.544C191.605 39.832 192.357 39.976 193.029 39.976C195.653 39.976 196.965 38.312 196.965 34.984V27.592C196.965 24.296 195.925 22.648 193.845 22.648ZM211.346 22.696C213.106 20.232 215.154 19 217.49 19C219.538 19 221.106 19.704 222.194 21.112C223.314 22.488 223.874 24.456 223.874 27.016V43H219.794V27.592C219.794 24.392 218.754 22.792 216.674 22.792C215.746 22.792 214.802 23.144 213.842 23.848C212.882 24.552 212.05 25.512 211.346 26.728V43H207.266V10.216H211.346V22.696ZM234.456 19.576V43H230.376V19.576H234.456ZM232.392 10.12C233.256 10.12 233.912 10.312 234.36 10.696C234.84 11.08 235.08 11.624 235.08 12.328V13.72C235.08 14.424 234.84 14.968 234.36 15.352C233.912 15.704 233.256 15.88 232.392 15.88C231.56 15.88 230.904 15.704 230.424 15.352C229.976 14.968 229.752 14.424 229.752 13.72V12.328C229.752 11.624 229.976 11.08 230.424 10.696C230.904 10.312 231.56 10.12 232.392 10.12ZM249.365 19C250.805 19 252.437 19.208 254.261 19.624L254.165 23.224C252.309 22.808 250.709 22.6 249.365 22.6C247.861 22.6 246.709 23.016 245.909 23.848C245.141 24.68 244.757 25.864 244.757 27.4V35.128C244.757 36.728 245.157 37.944 245.957 38.776C246.789 39.576 247.925 39.976 249.365 39.976C250.261 39.976 251.045 39.928 251.717 39.832C252.389 39.736 253.205 39.576 254.165 39.352L254.261 42.952C252.309 43.368 250.661 43.576 249.317 43.576C243.557 43.576 240.677 40.664 240.677 34.84V27.736C240.677 21.912 243.573 19 249.365 19ZM275.637 19C278.389 19 280.389 19.624 281.637 20.872C282.917 22.088 283.557 24.04 283.557 26.728V43H279.669V39.256C277.813 42.136 275.717 43.576 273.381 43.576C271.525 43.576 270.037 42.936 268.917 41.656C267.829 40.376 267.285 38.632 267.285 36.424V35.08C267.285 33.16 267.941 31.576 269.253 30.328C270.565 29.048 272.325 28.408 274.533 28.408C275.749 28.408 277.397 28.616 279.477 29.032V26.392C279.477 25.016 279.157 24.024 278.517 23.416C277.909 22.808 276.949 22.504 275.637 22.504C274.101 22.504 271.941 22.744 269.157 23.224V19.72C272.165 19.24 274.325 19 275.637 19ZM275.541 31.576C274.197 31.576 273.173 31.928 272.469 32.632C271.765 33.336 271.413 34.328 271.413 35.608V36.136C271.413 37.32 271.685 38.248 272.229 38.92C272.773 39.592 273.461 39.928 274.293 39.928C275.157 39.928 276.037 39.56 276.933 38.824C277.861 38.056 278.709 36.984 279.477 35.608V31.912C278.261 31.688 276.949 31.576 275.541 31.576ZM294.848 19.576H301.088V22.936H294.848V36.664C294.848 37.88 295.088 38.76 295.568 39.304C296.08 39.816 296.864 40.072 297.92 40.072C299.264 40.072 300.576 39.912 301.856 39.592L301.952 43C300.544 43.384 299.264 43.576 298.112 43.576C295.552 43.576 293.68 43.016 292.496 41.896C291.344 40.744 290.768 38.888 290.768 36.328V22.936H287.408V19.576H290.768L291.536 13.336H294.848V19.576ZM311.066 19.576H317.306V22.936H311.066V36.664C311.066 37.88 311.306 38.76 311.786 39.304C312.298 39.816 313.082 40.072 314.138 40.072C315.482 40.072 316.794 39.912 318.074 39.592L318.17 43C316.762 43.384 315.482 43.576 314.33 43.576C311.77 43.576 309.898 43.016 308.714 41.896C307.562 40.744 306.986 38.888 306.986 36.328V22.936H303.626V19.576H306.986L307.754 13.336H311.066V19.576ZM329.637 19C332.389 19 334.389 19.624 335.637 20.872C336.917 22.088 337.557 24.04 337.557 26.728V43H333.669V39.256C331.813 42.136 329.717 43.576 327.381 43.576C325.525 43.576 324.037 42.936 322.917 41.656C321.829 40.376 321.285 38.632 321.285 36.424V35.08C321.285 33.16 321.941 31.576 323.253 30.328C324.565 29.048 326.325 28.408 328.533 28.408C329.749 28.408 331.397 28.616 333.477 29.032V26.392C333.477 25.016 333.157 24.024 332.517 23.416C331.909 22.808 330.949 22.504 329.637 22.504C328.101 22.504 325.941 22.744 323.157 23.224V19.72C326.165 19.24 328.325 19 329.637 19ZM329.541 31.576C328.197 31.576 327.173 31.928 326.469 32.632C325.765 33.336 325.413 34.328 325.413 35.608V36.136C325.413 37.32 325.685 38.248 326.229 38.92C326.773 39.592 327.461 39.928 328.293 39.928C329.157 39.928 330.037 39.56 330.933 38.824C331.861 38.056 332.709 36.984 333.477 35.608V31.912C332.261 31.688 330.949 31.576 329.541 31.576ZM352.256 19C353.696 19 355.328 19.208 357.152 19.624L357.056 23.224C355.2 22.808 353.6 22.6 352.256 22.6C350.752 22.6 349.6 23.016 348.8 23.848C348.032 24.68 347.648 25.864 347.648 27.4V35.128C347.648 36.728 348.048 37.944 348.848 38.776C349.68 39.576 350.816 39.976 352.256 39.976C353.152 39.976 353.936 39.928 354.608 39.832C355.28 39.736 356.096 39.576 357.056 39.352L357.152 42.952C355.2 43.368 353.552 43.576 352.208 43.576C346.448 43.576 343.568 40.664 343.568 34.84V27.736C343.568 21.912 346.464 19 352.256 19ZM366.831 10.216V29.848L374.511 19.576H379.071L371.103 29.848L379.647 43H374.751L366.831 30.424V43H362.751V10.216H366.831ZM389.955 19C391.299 19 392.915 19.192 394.803 19.576L394.707 23.032C393.043 22.648 391.523 22.456 390.147 22.456C387.267 22.456 385.827 23.384 385.827 25.24V25.672C385.827 26.248 385.971 26.712 386.259 27.064C386.579 27.416 387.139 27.784 387.939 28.168L392.451 30.28C395.171 31.56 396.531 33.432 396.531 35.896V36.952C396.499 39.16 395.827 40.824 394.515 41.944C393.235 43.032 391.203 43.576 388.419 43.576C386.979 43.576 384.915 43.24 382.227 42.568L382.419 38.92C384.819 39.624 386.787 39.976 388.323 39.976C389.891 39.976 390.979 39.768 391.587 39.352C392.195 38.904 392.499 38.184 392.499 37.192V36.712C392.499 35.944 392.339 35.336 392.019 34.888C391.731 34.44 391.235 34.056 390.531 33.736L385.875 31.672C384.467 31.032 383.427 30.264 382.755 29.368C382.115 28.472 381.795 27.432 381.795 26.248V25.576C381.859 23.4 382.531 21.768 383.811 20.68C385.123 19.56 387.171 19 389.955 19ZM22.305 78.256V81.376H11.745V78.256H22.305ZM46.0793 61.984C49.4393 61.984 51.9993 62.672 53.7593 64.048C55.5193 65.424 56.3993 67.296 56.3993 69.664V70.72C56.3993 74.08 54.9273 76.4 51.9833 77.68C53.7753 78.064 55.1673 78.896 56.1593 80.176C57.1833 81.424 57.6953 82.976 57.6953 84.832V85.888C57.6953 88.544 56.7513 90.656 54.8633 92.224C53.0073 93.792 50.1913 94.576 46.4153 94.576C44.2713 94.576 41.3433 94.48 37.6313 94.288V62.176C40.5753 62.048 43.3913 61.984 46.0793 61.984ZM45.4553 65.488C44.3033 65.488 43.0553 65.536 41.7113 65.632V76.384H46.4153C48.3353 76.384 49.7913 75.92 50.7833 74.992C51.8073 74.064 52.3193 72.768 52.3193 71.104V70.288C52.3193 68.688 51.7753 67.488 50.6873 66.688C49.5993 65.888 47.8553 65.488 45.4553 65.488ZM41.7113 79.696V90.736C42.7673 90.832 43.6313 90.912 44.3033 90.976C45.0073 91.008 45.7113 91.024 46.4153 91.024C48.8793 91.024 50.6873 90.56 51.8393 89.632C53.0233 88.672 53.6153 87.344 53.6153 85.648V84.64C53.6153 81.344 51.3113 79.696 46.7032 79.696H41.7113ZM66.8306 70.576V94H62.7506V70.576H66.8306ZM64.7666 61.12C65.6306 61.12 66.2866 61.312 66.7346 61.696C67.2146 62.08 67.4546 62.624 67.4546 63.328V64.72C67.4546 65.424 67.2146 65.968 66.7346 66.352C66.2866 66.704 65.6306 66.88 64.7666 66.88C63.9346 66.88 63.2786 66.704 62.7986 66.352C62.3506 65.968 62.1266 65.424 62.1266 64.72V63.328C62.1266 62.624 62.3506 62.08 62.7986 61.696C63.2786 61.312 63.9346 61.12 64.7666 61.12ZM83.7559 70C84.2039 70 84.5559 70.032 84.8119 70.096V74.704C84.3319 74.608 83.7079 74.56 82.9399 74.56C80.6999 74.56 78.9239 75.68 77.6119 77.92V94H73.5319V70.576H77.3719V74.08C78.2359 72.768 79.1959 71.76 80.2519 71.056C81.3399 70.352 82.5079 70 83.7559 70ZM95.0663 70.576H101.306V73.936H95.0663V87.664C95.0663 88.88 95.3063 89.76 95.7863 90.304C96.2983 90.816 97.0823 91.072 98.1383 91.072C99.4823 91.072 100.794 90.912 102.074 90.592L102.17 94C100.762 94.384 99.4823 94.576 98.3303 94.576C95.7703 94.576 93.8983 94.016 92.7143 92.896C91.5623 91.744 90.9863 89.888 90.9863 87.328V73.936H87.6263V70.576H90.9863L91.7543 64.336H95.0663V70.576ZM110.565 73.696C112.325 71.232 114.373 70 116.709 70C118.757 70 120.325 70.704 121.413 72.112C122.533 73.488 123.093 75.456 123.093 78.016V94H119.013V78.592C119.013 75.392 117.973 73.792 115.893 73.792C114.965 73.792 114.021 74.144 113.061 74.848C112.101 75.552 111.269 76.512 110.565 77.728V94H106.485V61.216H110.565V73.696ZM145.722 94H141.834V90.208C139.914 93.12 137.722 94.576 135.258 94.576C133.274 94.576 131.754 93.904 130.698 92.56C129.642 91.184 129.114 89.184 129.114 86.56V78.016C129.114 75.488 129.69 73.52 130.842 72.112C132.026 70.704 133.706 70 135.882 70C136.81 70 137.786 70.24 138.81 70.72C139.834 71.168 140.778 71.728 141.642 72.4V61.216H145.722V94ZM136.794 73.648C135.642 73.648 134.746 74.064 134.106 74.896C133.498 75.696 133.194 76.928 133.194 78.592V86.032C133.194 89.296 134.202 90.928 136.218 90.928C137.178 90.928 138.122 90.56 139.05 89.824C140.01 89.056 140.874 87.984 141.642 86.608V76.048C140.97 75.344 140.17 74.768 139.242 74.32C138.346 73.872 137.53 73.648 136.794 73.648ZM159.575 70C162.327 70 164.327 70.624 165.575 71.872C166.855 73.088 167.495 75.04 167.495 77.728V94H163.607V90.256C161.751 93.136 159.655 94.576 157.319 94.576C155.463 94.576 153.975 93.936 152.855 92.656C151.767 91.376 151.223 89.632 151.223 87.424V86.08C151.223 84.16 151.879 82.576 153.191 81.328C154.503 80.048 156.263 79.408 158.471 79.408C159.687 79.408 161.335 79.616 163.415 80.032V77.392C163.415 76.016 163.095 75.024 162.455 74.416C161.847 73.808 160.887 73.504 159.575 73.504C158.039 73.504 155.879 73.744 153.095 74.224V70.72C156.103 70.24 158.263 70 159.575 70ZM159.479 82.576C158.135 82.576 157.111 82.928 156.407 83.632C155.703 84.336 155.351 85.328 155.351 86.608V87.136C155.351 88.32 155.623 89.248 156.167 89.92C156.711 90.592 157.399 90.928 158.231 90.928C159.095 90.928 159.975 90.56 160.871 89.824C161.799 89.056 162.647 87.984 163.415 86.608V82.912C162.199 82.688 160.887 82.576 159.479 82.576ZM191.073 70.576L180.321 102.88H176.241L179.313 94H177.777L171.105 70.576H175.569L180.609 91.072L186.849 70.576H191.073ZM22.305 129.256V132.376H11.745V129.256H22.305ZM57.9833 113.56L45.9353 128.776L59.2313 145H53.9993L41.7113 129.592V145H37.6313V113.56H41.7113V128.728L53.4233 113.56H57.9833ZM72.1309 121C74.1789 121 75.7469 121.704 76.8349 123.112C77.9549 124.488 78.5149 126.456 78.5149 129.016V145H74.4349V129.592C74.4349 126.392 73.3949 124.792 71.3149 124.792C70.3869 124.792 69.4429 125.144 68.4829 125.848C67.5229 126.552 66.6909 127.512 65.9869 128.728V145H61.9069V121.576H65.7469V125.08C66.6109 123.768 67.5709 122.76 68.6269 122.056C69.7149 121.352 70.8829 121 72.1309 121ZM93.2186 121C96.0666 121 98.1786 121.768 99.5546 123.304C100.963 124.808 101.667 126.952 101.667 129.736V136.84C101.667 139.624 100.963 141.784 99.5546 143.32C98.1786 144.824 96.0666 145.576 93.2186 145.576C90.3706 145.576 88.2426 144.824 86.8346 143.32C85.4586 141.784 84.7706 139.624 84.7706 136.84V129.736C84.7706 126.952 85.4586 124.808 86.8346 123.304C88.2426 121.768 90.3706 121 93.2186 121ZM93.2186 124.408C91.8426 124.408 90.7706 124.84 90.0026 125.704C89.2346 126.568 88.8506 127.8 88.8506 129.4V137.176C88.8506 138.776 89.2346 140.008 90.0026 140.872C90.7706 141.736 91.8426 142.168 93.2186 142.168C94.5946 142.168 95.6666 141.736 96.4346 140.872C97.2026 140.008 97.5866 138.776 97.5866 137.176V129.352C97.5866 127.752 97.2026 126.536 96.4346 125.704C95.6666 124.84 94.5946 124.408 93.2186 124.408ZM136.115 121.576L130.691 145H125.555L120.803 125.128L116.003 145H110.867L105.491 121.576H109.811L113.603 141.4L118.163 121.576H123.443L127.955 141.4L131.795 121.576H136.115ZM150.647 121C152.695 121 154.263 121.704 155.351 123.112C156.471 124.488 157.031 126.456 157.031 129.016V145H152.951V129.592C152.951 126.392 151.911 124.792 149.831 124.792C148.903 124.792 147.959 125.144 146.999 125.848C146.039 126.552 145.207 127.512 144.503 128.728V145H140.423V121.576H144.263V125.08C145.127 123.768 146.087 122.76 147.143 122.056C148.231 121.352 149.399 121 150.647 121ZM182.567 121C184.583 121 186.151 121.688 187.271 123.064C188.391 124.44 188.951 126.424 188.951 129.016V137.56C188.951 140.056 188.295 142.024 186.983 143.464C185.703 144.872 183.959 145.576 181.751 145.576C180.919 145.576 180.023 145.4 179.063 145.048C178.135 144.728 177.271 144.344 176.471 143.896V153.88H172.391V121.576H176.231V124.984C177.991 122.328 180.103 121 182.567 121ZM181.751 124.648C180.823 124.648 179.879 125 178.919 125.704C177.991 126.376 177.175 127.304 176.471 128.488V140.248C177.143 140.792 177.879 141.224 178.679 141.544C179.511 141.832 180.263 141.976 180.935 141.976C183.559 141.976 184.871 140.312 184.871 136.984V129.592C184.871 126.296 183.831 124.648 181.751 124.648ZM199.253 112.216V145H195.173V112.216H199.253ZM213.106 121C215.858 121 217.858 121.624 219.106 122.872C220.386 124.088 221.026 126.04 221.026 128.728V145H217.138V141.256C215.282 144.136 213.186 145.576 210.85 145.576C208.994 145.576 207.506 144.936 206.386 143.656C205.298 142.376 204.754 140.632 204.754 138.424V137.08C204.754 135.16 205.41 133.576 206.722 132.328C208.034 131.048 209.794 130.408 212.002 130.408C213.218 130.408 214.866 130.616 216.946 131.032V128.392C216.946 127.016 216.626 126.024 215.986 125.416C215.378 124.808 214.418 124.504 213.106 124.504C211.57 124.504 209.41 124.744 206.626 125.224V121.72C209.634 121.24 211.794 121 213.106 121ZM213.01 133.576C211.666 133.576 210.642 133.928 209.938 134.632C209.234 135.336 208.882 136.328 208.882 137.608V138.136C208.882 139.32 209.154 140.248 209.698 140.92C210.242 141.592 210.93 141.928 211.762 141.928C212.626 141.928 213.506 141.56 214.402 140.824C215.33 140.056 216.178 138.984 216.946 137.608V133.912C215.73 133.688 214.418 133.576 213.01 133.576ZM231.596 121.576V145H227.516V121.576H231.596ZM229.532 112.12C230.396 112.12 231.052 112.312 231.5 112.696C231.98 113.08 232.22 113.624 232.22 114.328V115.72C232.22 116.424 231.98 116.968 231.5 117.352C231.052 117.704 230.396 117.88 229.532 117.88C228.7 117.88 228.044 117.704 227.564 117.352C227.116 116.968 226.892 116.424 226.892 115.72V114.328C226.892 113.624 227.116 113.08 227.564 112.696C228.044 112.312 228.7 112.12 229.532 112.12ZM248.522 121C250.57 121 252.138 121.704 253.226 123.112C254.346 124.488 254.906 126.456 254.906 129.016V145H250.826V129.592C250.826 126.392 249.786 124.792 247.706 124.792C246.778 124.792 245.834 125.144 244.874 125.848C243.914 126.552 243.082 127.512 242.378 128.728V145H238.298V121.576H242.138V125.08C243.002 123.768 243.962 122.76 245.018 122.056C246.106 121.352 247.274 121 248.522 121ZM275.066 121.576H281.306V124.936H275.066V138.664C275.066 139.88 275.306 140.76 275.786 141.304C276.298 141.816 277.082 142.072 278.138 142.072C279.482 142.072 280.794 141.912 282.074 141.592L282.17 145C280.762 145.384 279.482 145.576 278.33 145.576C275.77 145.576 273.898 145.016 272.714 143.896C271.562 142.744 270.986 140.888 270.986 138.328V124.936H267.626V121.576H270.986L271.754 115.336H275.066V121.576ZM294.165 121C296.853 121 298.901 121.736 300.309 123.208C301.717 124.68 302.421 126.808 302.421 129.592V134.536H290.085V137.368C290.085 139 290.469 140.184 291.237 140.92C292.037 141.624 293.285 141.976 294.981 141.976C296.645 141.976 298.725 141.72 301.221 141.208L301.317 144.76C298.341 145.304 296.213 145.576 294.933 145.576C291.765 145.576 289.477 144.888 288.069 143.512C286.693 142.136 286.005 140.008 286.005 137.128V129.592C286.005 126.808 286.677 124.68 288.021 123.208C289.397 121.736 291.445 121 294.165 121ZM294.165 124.408C292.917 124.408 291.925 124.808 291.189 125.608C290.453 126.376 290.085 127.496 290.085 128.968V131.272H298.341V129.112C298.341 127.576 297.957 126.408 297.189 125.608C296.453 124.808 295.445 124.408 294.165 124.408ZM324.034 121.576L317.17 132.808L324.562 145H319.906L314.626 135.832L309.49 145H304.834L312.13 132.952L305.314 121.576H309.97L314.722 129.976L319.522 121.576H324.034ZM333.566 121.576H339.806V124.936H333.566V138.664C333.566 139.88 333.806 140.76 334.286 141.304C334.798 141.816 335.582 142.072 336.638 142.072C337.982 142.072 339.294 141.912 340.574 141.592L340.67 145C339.262 145.384 337.982 145.576 336.83 145.576C334.27 145.576 332.398 145.016 331.214 143.896C330.062 142.744 329.486 140.888 329.486 138.328V124.936H326.126V121.576H329.486L330.254 115.336H333.566V121.576ZM354.729 112.216L344.889 145H340.809L350.649 112.216H354.729ZM365.427 121C366.867 121 368.499 121.208 370.323 121.624L370.227 125.224C368.371 124.808 366.771 124.6 365.427 124.6C363.923 124.6 362.771 125.016 361.971 125.848C361.203 126.68 360.819 127.864 360.819 129.4V137.128C360.819 138.728 361.219 139.944 362.019 140.776C362.851 141.576 363.987 141.976 365.427 141.976C366.323 141.976 367.107 141.928 367.779 141.832C368.451 141.736 369.267 141.576 370.227 141.352L370.323 144.952C368.371 145.368 366.723 145.576 365.379 145.576C359.619 145.576 356.739 142.664 356.739 136.84V129.736C356.739 123.912 359.635 121 365.427 121ZM380.003 121.576V145H375.923V121.576H380.003ZM377.939 112.12C378.803 112.12 379.459 112.312 379.907 112.696C380.387 113.08 380.627 113.624 380.627 114.328V115.72C380.627 116.424 380.387 116.968 379.907 117.352C379.459 117.704 378.803 117.88 377.939 117.88C377.107 117.88 376.451 117.704 375.971 117.352C375.523 116.968 375.299 116.424 375.299 115.72V114.328C375.299 113.624 375.523 113.08 375.971 112.696C376.451 112.312 377.107 112.12 377.939 112.12ZM396.88 121C398.896 121 400.464 121.688 401.584 123.064C402.704 124.44 403.264 126.424 403.264 129.016V137.56C403.264 140.056 402.608 142.024 401.296 143.464C400.016 144.872 398.272 145.576 396.064 145.576C395.232 145.576 394.336 145.4 393.376 145.048C392.448 144.728 391.584 144.344 390.784 143.896V153.88H386.704V121.576H390.544V124.984C392.304 122.328 394.416 121 396.88 121ZM396.064 124.648C395.136 124.648 394.192 125 393.232 125.704C392.304 126.376 391.488 127.304 390.784 128.488V140.248C391.456 140.792 392.192 141.224 392.992 141.544C393.824 141.832 394.576 141.976 395.248 141.976C397.872 141.976 399.184 140.312 399.184 136.984V129.592C399.184 126.296 398.144 124.648 396.064 124.648ZM413.565 124.696C415.325 122.232 417.373 121 419.709 121C421.757 121 423.325 121.704 424.413 123.112C425.533 124.488 426.093 126.456 426.093 129.016V145H422.013V129.592C422.013 126.392 420.973 124.792 418.893 124.792C417.965 124.792 417.021 125.144 416.061 125.848C415.101 126.552 414.269 127.512 413.565 128.728V145H409.485V112.216H413.565V124.696ZM440.274 121C442.962 121 445.01 121.736 446.418 123.208C447.826 124.68 448.53 126.808 448.53 129.592V134.536H436.194V137.368C436.194 139 436.578 140.184 437.346 140.92C438.146 141.624 439.394 141.976 441.09 141.976C442.754 141.976 444.834 141.72 447.33 141.208L447.426 144.76C444.45 145.304 442.322 145.576 441.042 145.576C437.874 145.576 435.586 144.888 434.178 143.512C432.802 142.136 432.114 140.008 432.114 137.128V129.592C432.114 126.808 432.786 124.68 434.13 123.208C435.506 121.736 437.554 121 440.274 121ZM440.274 124.408C439.026 124.408 438.034 124.808 437.298 125.608C436.562 126.376 436.194 127.496 436.194 128.968V131.272H444.45V129.112C444.45 127.576 444.066 126.408 443.298 125.608C442.562 124.808 441.554 124.408 440.274 124.408ZM464.287 121C464.735 121 465.087 121.032 465.343 121.096V125.704C464.863 125.608 464.239 125.56 463.471 125.56C461.231 125.56 459.455 126.68 458.143 128.92V145H454.063V121.576H457.903V125.08C458.767 123.768 459.727 122.76 460.783 122.056C461.871 121.352 463.039 121 464.287 121ZM483.098 121.576H489.338V124.936H483.098V138.664C483.098 139.88 483.338 140.76 483.818 141.304C484.33 141.816 485.114 142.072 486.17 142.072C487.514 142.072 488.826 141.912 490.106 141.592L490.202 145C488.794 145.384 487.514 145.576 486.362 145.576C483.802 145.576 481.93 145.016 480.746 143.896C479.594 142.744 479.018 140.888 479.018 138.328V124.936H475.658V121.576H479.018L479.786 115.336H483.098V121.576ZM502.196 121C504.884 121 506.932 121.736 508.34 123.208C509.748 124.68 510.452 126.808 510.452 129.592V134.536H498.116V137.368C498.116 139 498.5 140.184 499.268 140.92C500.068 141.624 501.316 141.976 503.012 141.976C504.676 141.976 506.756 141.72 509.252 141.208L509.348 144.76C506.372 145.304 504.244 145.576 502.964 145.576C499.796 145.576 497.508 144.888 496.1 143.512C494.724 142.136 494.036 140.008 494.036 137.128V129.592C494.036 126.808 494.708 124.68 496.052 123.208C497.428 121.736 499.476 121 502.196 121ZM502.196 124.408C500.948 124.408 499.956 124.808 499.22 125.608C498.484 126.376 498.116 127.496 498.116 128.968V131.272H506.372V129.112C506.372 127.576 505.988 126.408 505.22 125.608C504.484 124.808 503.476 124.408 502.196 124.408ZM532.065 121.576L525.201 132.808L532.593 145H527.937L522.657 135.832L517.521 145H512.865L520.161 132.952L513.345 121.576H518.001L522.753 129.976L527.553 121.576H532.065ZM541.598 121.576H547.838V124.936H541.598V138.664C541.598 139.88 541.838 140.76 542.318 141.304C542.83 141.816 543.614 142.072 544.67 142.072C546.014 142.072 547.326 141.912 548.606 141.592L548.702 145C547.294 145.384 546.014 145.576 544.862 145.576C542.302 145.576 540.43 145.016 539.246 143.896C538.094 142.744 537.518 140.888 537.518 138.328V124.936H534.158V121.576H537.518L538.286 115.336H541.598V121.576ZM22.305 180.256V183.376H11.745V180.256H22.305ZM45.9833 163.984C49.7593 163.984 52.5433 164.72 54.3353 166.192C56.1273 167.664 57.0233 169.728 57.0233 172.384V173.584C57.0233 175.44 56.5113 177.088 55.4873 178.528C54.4633 179.936 52.9913 180.928 51.0713 181.504L59.2313 196H54.6713L47.0393 182.368C46.7833 182.4 46.2713 182.416 45.5033 182.416C44.2233 182.416 42.9593 182.368 41.7113 182.272V196H37.6313V164.176C41.2153 164.048 43.9993 163.984 45.9833 163.984ZM45.8873 167.44C44.8313 167.44 43.4393 167.472 41.7113 167.536V178.864C43.4393 179.024 44.8793 179.104 46.0312 179.104C50.6393 179.104 52.9433 177.232 52.9433 173.488V172.528C52.9433 170.8 52.3833 169.52 51.2633 168.688C50.1433 167.856 48.3513 167.44 45.8873 167.44ZM70.137 172C72.889 172 74.889 172.624 76.137 173.872C77.417 175.088 78.057 177.04 78.057 179.728V196H74.169V192.256C72.313 195.136 70.217 196.576 67.881 196.576C66.025 196.576 64.537 195.936 63.417 194.656C62.329 193.376 61.785 191.632 61.785 189.424V188.08C61.785 186.16 62.441 184.576 63.753 183.328C65.065 182.048 66.825 181.408 69.033 181.408C70.249 181.408 71.897 181.616 73.977 182.032V179.392C73.977 178.016 73.657 177.024 73.017 176.416C72.409 175.808 71.449 175.504 70.137 175.504C68.601 175.504 66.441 175.744 63.657 176.224V172.72C66.665 172.24 68.825 172 70.137 172ZM70.041 184.576C68.697 184.576 67.673 184.928 66.969 185.632C66.265 186.336 65.913 187.328 65.913 188.608V189.136C65.913 190.32 66.185 191.248 66.729 191.92C67.273 192.592 67.961 192.928 68.793 192.928C69.657 192.928 70.537 192.56 71.433 191.824C72.361 191.056 73.209 189.984 73.977 188.608V184.912C72.761 184.688 71.449 184.576 70.041 184.576ZM88.6275 172.576V196H84.5475V172.576H88.6275ZM86.5635 163.12C87.4275 163.12 88.0835 163.312 88.5315 163.696C89.0115 164.08 89.2515 164.624 89.2515 165.328V166.72C89.2515 167.424 89.0115 167.968 88.5315 168.352C88.0835 168.704 87.4275 168.88 86.5635 168.88C85.7315 168.88 85.0755 168.704 84.5955 168.352C84.1475 167.968 83.9235 167.424 83.9235 166.72V165.328C83.9235 164.624 84.1475 164.08 84.5955 163.696C85.0755 163.312 85.7315 163.12 86.5635 163.12ZM105.553 172C107.601 172 109.169 172.704 110.257 174.112C111.377 175.488 111.937 177.456 111.937 180.016V196H107.857V180.592C107.857 177.392 106.817 175.792 104.737 175.792C103.809 175.792 102.865 176.144 101.905 176.848C100.945 177.552 100.113 178.512 99.4088 179.728V196H95.3288V172.576H99.1688V176.08C100.033 174.768 100.993 173.76 102.049 173.056C103.137 172.352 104.305 172 105.553 172ZM122.513 175.696C123.345 174.512 124.305 173.6 125.393 172.96C126.481 172.32 127.617 172 128.801 172C130.785 172 132.321 172.704 133.409 174.112C134.497 175.488 135.041 177.504 135.041 180.16V187.744C135.041 190.656 134.353 192.864 132.977 194.368C131.601 195.84 129.473 196.576 126.593 196.576C123.777 196.576 121.713 195.856 120.401 194.416C119.089 192.976 118.433 190.784 118.433 187.84V163.216H122.513V175.696ZM127.841 175.648C126.913 175.648 125.969 176 125.009 176.704C124.049 177.408 123.217 178.368 122.513 179.584V188.32C122.513 189.888 122.865 191.088 123.569 191.92C124.305 192.752 125.313 193.168 126.593 193.168C129.505 193.168 130.961 191.52 130.961 188.224V180.736C130.961 177.344 129.921 175.648 127.841 175.648ZM149.234 172C152.082 172 154.194 172.768 155.57 174.304C156.978 175.808 157.682 177.952 157.682 180.736V187.84C157.682 190.624 156.978 192.784 155.57 194.32C154.194 195.824 152.082 196.576 149.234 196.576C146.386 196.576 144.258 195.824 142.85 194.32C141.474 192.784 140.786 190.624 140.786 187.84V180.736C140.786 177.952 141.474 175.808 142.85 174.304C144.258 172.768 146.386 172 149.234 172ZM149.234 175.408C147.858 175.408 146.786 175.84 146.018 176.704C145.25 177.568 144.866 178.8 144.866 180.4V188.176C144.866 189.776 145.25 191.008 146.018 191.872C146.786 192.736 147.858 193.168 149.234 193.168C150.61 193.168 151.682 192.736 152.45 191.872C153.218 191.008 153.602 189.776 153.602 188.176V180.352C153.602 178.752 153.218 177.536 152.45 176.704C151.682 175.84 150.61 175.408 149.234 175.408ZM192.131 172.576L186.707 196H181.571L176.819 176.128L172.019 196H166.883L161.507 172.576H165.827L169.619 192.4L174.179 172.576H179.459L183.971 192.4L187.811 172.576H192.131ZM209.863 172.576H216.103V175.936H209.863V189.664C209.863 190.88 210.103 191.76 210.583 192.304C211.095 192.816 211.879 193.072 212.935 193.072C214.279 193.072 215.591 192.912 216.871 192.592L216.967 196C215.559 196.384 214.279 196.576 213.127 196.576C210.567 196.576 208.695 196.016 207.511 194.896C206.359 193.744 205.783 191.888 205.783 189.328V175.936H202.423V172.576H205.783L206.551 166.336H209.863V172.576ZM228.434 172C231.186 172 233.186 172.624 234.434 173.872C235.714 175.088 236.354 177.04 236.354 179.728V196H232.466V192.256C230.61 195.136 228.514 196.576 226.178 196.576C224.322 196.576 222.834 195.936 221.714 194.656C220.626 193.376 220.082 191.632 220.082 189.424V188.08C220.082 186.16 220.738 184.576 222.05 183.328C223.362 182.048 225.122 181.408 227.33 181.408C228.546 181.408 230.194 181.616 232.274 182.032V179.392C232.274 178.016 231.954 177.024 231.314 176.416C230.706 175.808 229.746 175.504 228.434 175.504C226.898 175.504 224.738 175.744 221.954 176.224V172.72C224.962 172.24 227.122 172 228.434 172ZM228.338 184.576C226.994 184.576 225.97 184.928 225.266 185.632C224.562 186.336 224.21 187.328 224.21 188.608V189.136C224.21 190.32 224.482 191.248 225.026 191.92C225.57 192.592 226.258 192.928 227.09 192.928C227.954 192.928 228.834 192.56 229.73 191.824C230.658 191.056 231.506 189.984 232.274 188.608V184.912C231.058 184.688 229.746 184.576 228.338 184.576ZM246.684 175.696C247.516 174.512 248.476 173.6 249.564 172.96C250.652 172.32 251.788 172 252.972 172C254.956 172 256.492 172.704 257.58 174.112C258.668 175.488 259.212 177.504 259.212 180.16V187.744C259.212 190.656 258.524 192.864 257.148 194.368C255.772 195.84 253.644 196.576 250.764 196.576C247.948 196.576 245.884 195.856 244.572 194.416C243.26 192.976 242.604 190.784 242.604 187.84V163.216H246.684V175.696ZM252.012 175.648C251.084 175.648 250.14 176 249.18 176.704C248.22 177.408 247.388 178.368 246.684 179.584V188.32C246.684 189.888 247.036 191.088 247.74 191.92C248.476 192.752 249.484 193.168 250.764 193.168C253.676 193.168 255.132 191.52 255.132 188.224V180.736C255.132 177.344 254.092 175.648 252.012 175.648ZM269.518 163.216V196H265.438V163.216H269.518ZM283.899 172C286.587 172 288.635 172.736 290.043 174.208C291.451 175.68 292.155 177.808 292.155 180.592V185.536H279.819V188.368C279.819 190 280.203 191.184 280.971 191.92C281.771 192.624 283.019 192.976 284.715 192.976C286.379 192.976 288.459 192.72 290.955 192.208L291.051 195.76C288.075 196.304 285.947 196.576 284.667 196.576C281.499 196.576 279.211 195.888 277.803 194.512C276.427 193.136 275.739 191.008 275.739 188.128V180.592C275.739 177.808 276.411 175.68 277.755 174.208C279.131 172.736 281.179 172 283.899 172ZM283.899 175.408C282.651 175.408 281.659 175.808 280.923 176.608C280.187 177.376 279.819 178.496 279.819 179.968V182.272H288.075V180.112C288.075 178.576 287.691 177.408 286.923 176.608C286.187 175.808 285.179 175.408 283.899 175.408ZM304.408 172C305.752 172 307.368 172.192 309.256 172.576L309.16 176.032C307.496 175.648 305.976 175.456 304.6 175.456C301.72 175.456 300.28 176.384 300.28 178.24V178.672C300.28 179.248 300.424 179.712 300.712 180.064C301.032 180.416 301.592 180.784 302.392 181.168L306.904 183.28C309.624 184.56 310.984 186.432 310.984 188.896V189.952C310.952 192.16 310.28 193.824 308.968 194.944C307.688 196.032 305.656 196.576 302.872 196.576C301.432 196.576 299.368 196.24 296.68 195.568L296.872 191.92C299.272 192.624 301.24 192.976 302.776 192.976C304.344 192.976 305.432 192.768 306.04 192.352C306.648 191.904 306.952 191.184 306.952 190.192V189.712C306.952 188.944 306.792 188.336 306.472 187.888C306.184 187.44 305.688 187.056 304.984 186.736L300.328 184.672C298.92 184.032 297.88 183.264 297.208 182.368C296.568 181.472 296.248 180.432 296.248 179.248V178.576C296.312 176.4 296.984 174.768 298.264 173.68C299.576 172.56 301.624 172 304.408 172ZM22.305 231.256V234.376H11.745V231.256H22.305ZM46.4153 214.984C50.2233 214.984 53.1513 216.072 55.1993 218.248C57.2793 220.392 58.3193 223.496 58.3193 227.56V235.432C58.3193 239.336 57.2793 242.344 55.1993 244.456C53.1513 246.536 50.1433 247.576 46.1753 247.576C43.4553 247.576 40.6073 247.48 37.6313 247.288V215.176C40.5113 215.048 43.4393 214.984 46.4153 214.984ZM46.1753 218.44C45.1833 218.44 43.6953 218.472 41.7113 218.536V243.784C43.5993 243.976 45.0873 244.072 46.1753 244.072C48.6393 244.072 50.5913 243.368 52.0313 241.96C53.5033 240.52 54.2393 238.456 54.2393 235.768V227.272C54.2393 224.36 53.5353 222.168 52.1273 220.696C50.7193 219.192 48.7353 218.44 46.1753 218.44ZM68.8931 223.576V247H64.8131V223.576H68.8931ZM66.8291 214.12C67.6931 214.12 68.3491 214.312 68.7971 214.696C69.2771 215.08 69.5171 215.624 69.5171 216.328V217.72C69.5171 218.424 69.2771 218.968 68.7971 219.352C68.3491 219.704 67.6931 219.88 66.8291 219.88C65.9971 219.88 65.3411 219.704 64.8611 219.352C64.4131 218.968 64.1891 218.424 64.1891 217.72V216.328C64.1891 215.624 64.4131 215.08 64.8611 214.696C65.3411 214.312 65.9971 214.12 66.8291 214.12ZM83.8024 223C85.2424 223 86.8744 223.208 88.6984 223.624L88.6024 227.224C86.7464 226.808 85.1464 226.6 83.8024 226.6C82.2984 226.6 81.1464 227.016 80.3464 227.848C79.5784 228.68 79.1944 229.864 79.1944 231.4V239.128C79.1944 240.728 79.5944 241.944 80.3944 242.776C81.2264 243.576 82.3624 243.976 83.8024 243.976C84.6984 243.976 85.4824 243.928 86.1544 243.832C86.8264 243.736 87.6424 243.576 88.6024 243.352L88.6984 246.952C86.7464 247.368 85.0984 247.576 83.7544 247.576C77.9944 247.576 75.1144 244.664 75.1144 238.84V231.736C75.1144 225.912 78.0104 223 83.8024 223ZM99.5663 223.576H105.806V226.936H99.5663V240.664C99.5663 241.88 99.8063 242.76 100.286 243.304C100.798 243.816 101.582 244.072 102.638 244.072C103.982 244.072 105.294 243.912 106.574 243.592L106.67 247C105.262 247.384 103.982 247.576 102.83 247.576C100.27 247.576 98.3983 247.016 97.2143 245.896C96.0623 244.744 95.4863 242.888 95.4863 240.328V226.936H92.1263V223.576H95.4863L96.2543 217.336H99.5663V223.576ZM115.065 223.576V247H110.985V223.576H115.065ZM113.001 214.12C113.865 214.12 114.521 214.312 114.969 214.696C115.449 215.08 115.689 215.624 115.689 216.328V217.72C115.689 218.424 115.449 218.968 114.969 219.352C114.521 219.704 113.865 219.88 113.001 219.88C112.169 219.88 111.513 219.704 111.033 219.352C110.585 218.968 110.361 218.424 110.361 217.72V216.328C110.361 215.624 110.585 215.08 111.033 214.696C111.513 214.312 112.169 214.12 113.001 214.12ZM129.734 223C132.582 223 134.694 223.768 136.07 225.304C137.478 226.808 138.182 228.952 138.182 231.736V238.84C138.182 241.624 137.478 243.784 136.07 245.32C134.694 246.824 132.582 247.576 129.734 247.576C126.886 247.576 124.758 246.824 123.35 245.32C121.974 243.784 121.286 241.624 121.286 238.84V231.736C121.286 228.952 121.974 226.808 123.35 225.304C124.758 223.768 126.886 223 129.734 223ZM129.734 226.408C128.358 226.408 127.286 226.84 126.518 227.704C125.75 228.568 125.366 229.8 125.366 231.4V239.176C125.366 240.776 125.75 242.008 126.518 242.872C127.286 243.736 128.358 244.168 129.734 244.168C131.11 244.168 132.182 243.736 132.95 242.872C133.718 242.008 134.102 240.776 134.102 239.176V231.352C134.102 229.752 133.718 228.536 132.95 227.704C132.182 226.84 131.11 226.408 129.734 226.408ZM154.631 223C156.679 223 158.247 223.704 159.335 225.112C160.455 226.488 161.015 228.456 161.015 231.016V247H156.935V231.592C156.935 228.392 155.895 226.792 153.815 226.792C152.887 226.792 151.943 227.144 150.983 227.848C150.023 228.552 149.191 229.512 148.487 230.728V247H144.407V223.576H148.247V227.08C149.111 225.768 150.071 224.76 151.127 224.056C152.215 223.352 153.383 223 154.631 223ZM174.903 223C177.655 223 179.655 223.624 180.903 224.872C182.183 226.088 182.823 228.04 182.823 230.728V247H178.935V243.256C177.079 246.136 174.983 247.576 172.647 247.576C170.791 247.576 169.303 246.936 168.183 245.656C167.095 244.376 166.551 242.632 166.551 240.424V239.08C166.551 237.16 167.207 235.576 168.519 234.328C169.831 233.048 171.591 232.408 173.799 232.408C175.015 232.408 176.663 232.616 178.743 233.032V230.392C178.743 229.016 178.423 228.024 177.783 227.416C177.175 226.808 176.215 226.504 174.903 226.504C173.367 226.504 171.207 226.744 168.423 227.224V223.72C171.431 223.24 173.591 223 174.903 223ZM174.807 235.576C173.463 235.576 172.439 235.928 171.735 236.632C171.031 237.336 170.679 238.328 170.679 239.608V240.136C170.679 241.32 170.951 242.248 171.495 242.92C172.039 243.592 172.727 243.928 173.559 243.928C174.423 243.928 175.303 243.56 176.199 242.824C177.127 242.056 177.975 240.984 178.743 239.608V235.912C177.527 235.688 176.215 235.576 174.807 235.576ZM199.537 223C199.985 223 200.337 223.032 200.593 223.096V227.704C200.113 227.608 199.489 227.56 198.721 227.56C196.481 227.56 194.705 228.68 193.393 230.92V247H189.313V223.576H193.153V227.08C194.017 225.768 194.977 224.76 196.033 224.056C197.121 223.352 198.289 223 199.537 223ZM222.948 223.576L212.196 255.88H208.116L211.188 247H209.652L202.98 223.576H207.444L212.484 244.072L218.724 223.576H222.948ZM22.305 282.256V285.376H11.745V282.256H22.305ZM46.0793 265.984C49.4393 265.984 51.9993 266.672 53.7593 268.048C55.5193 269.424 56.3993 271.296 56.3993 273.664V274.72C56.3993 278.08 54.9273 280.4 51.9833 281.68C53.7753 282.064 55.1673 282.896 56.1593 284.176C57.1833 285.424 57.6953 286.976 57.6953 288.832V289.888C57.6953 292.544 56.7513 294.656 54.8633 296.224C53.0073 297.792 50.1913 298.576 46.4153 298.576C44.2713 298.576 41.3433 298.48 37.6313 298.288V266.176C40.5753 266.048 43.3913 265.984 46.0793 265.984ZM45.4553 269.488C44.3033 269.488 43.0553 269.536 41.7113 269.632V280.384H46.4153C48.3353 280.384 49.7913 279.92 50.7833 278.992C51.8073 278.064 52.3193 276.768 52.3193 275.104V274.288C52.3193 272.688 51.7753 271.488 50.6873 270.688C49.5993 269.888 47.8553 269.488 45.4553 269.488ZM41.7113 283.696V294.736C42.7673 294.832 43.6313 294.912 44.3033 294.976C45.0073 295.008 45.7113 295.024 46.4153 295.024C48.8793 295.024 50.6873 294.56 51.8393 293.632C53.0233 292.672 53.6153 291.344 53.6153 289.648V288.64C53.6153 285.344 51.3113 283.696 46.7032 283.696H41.7113ZM72.9746 274C73.4226 274 73.7746 274.032 74.0306 274.096V278.704C73.5506 278.608 72.9266 278.56 72.1586 278.56C69.9186 278.56 68.1426 279.68 66.8306 281.92V298H62.7506V274.576H66.5906V278.08C67.4546 276.768 68.4146 275.76 69.4706 275.056C70.5586 274.352 71.7266 274 72.9746 274ZM94.68 298H90.84V294.64C89.976 295.92 89.016 296.896 87.96 297.568C86.904 298.24 85.784 298.576 84.6 298.576C82.648 298.576 81.112 297.904 79.992 296.56C78.904 295.184 78.36 293.184 78.36 290.56V274.576H82.44V289.84C82.44 291.536 82.696 292.784 83.208 293.584C83.752 294.384 84.488 294.784 85.416 294.784C86.28 294.784 87.176 294.448 88.104 293.776C89.064 293.072 89.896 292.112 90.6 290.896V274.576H94.68V298ZM106.223 274.576H112.463V277.936H106.223V291.664C106.223 292.88 106.463 293.76 106.943 294.304C107.455 294.816 108.239 295.072 109.295 295.072C110.639 295.072 111.951 294.912 113.231 294.592L113.327 298C111.919 298.384 110.639 298.576 109.487 298.576C106.927 298.576 105.055 298.016 103.871 296.896C102.719 295.744 102.143 293.888 102.143 291.328V277.936H98.7825V274.576H102.143L102.911 268.336H106.223V274.576ZM125.321 274C128.009 274 130.057 274.736 131.465 276.208C132.873 277.68 133.577 279.808 133.577 282.592V287.536H121.241V290.368C121.241 292 121.625 293.184 122.393 293.92C123.193 294.624 124.441 294.976 126.137 294.976C127.801 294.976 129.881 294.72 132.377 294.208L132.473 297.76C129.497 298.304 127.369 298.576 126.089 298.576C122.921 298.576 120.633 297.888 119.225 296.512C117.849 295.136 117.161 293.008 117.161 290.128V282.592C117.161 279.808 117.833 277.68 119.177 276.208C120.553 274.736 122.601 274 125.321 274ZM125.321 277.408C124.073 277.408 123.081 277.808 122.345 278.608C121.609 279.376 121.241 280.496 121.241 281.968V284.272H129.497V282.112C129.497 280.576 129.113 279.408 128.345 278.608C127.609 277.808 126.601 277.408 125.321 277.408ZM156.375 264.64C157.431 264.64 158.439 264.752 159.399 264.976V268.24C158.439 268.08 157.447 268 156.423 268C155.431 268 154.647 268.32 154.071 268.96C153.527 269.6 153.255 270.576 153.255 271.888V274.576H158.055V277.936H153.255V298H149.175V277.936H145.815V274.576H149.175V272.128C149.207 269.632 149.831 267.76 151.047 266.512C152.263 265.264 154.039 264.64 156.375 264.64ZM169.766 274C172.614 274 174.726 274.768 176.102 276.304C177.51 277.808 178.214 279.952 178.214 282.736V289.84C178.214 292.624 177.51 294.784 176.102 296.32C174.726 297.824 172.614 298.576 169.766 298.576C166.918 298.576 164.79 297.824 163.382 296.32C162.006 294.784 161.318 292.624 161.318 289.84V282.736C161.318 279.952 162.006 277.808 163.382 276.304C164.79 274.768 166.918 274 169.766 274ZM169.766 277.408C168.39 277.408 167.318 277.84 166.55 278.704C165.782 279.568 165.398 280.8 165.398 282.4V290.176C165.398 291.776 165.782 293.008 166.55 293.872C167.318 294.736 168.39 295.168 169.766 295.168C171.142 295.168 172.214 294.736 172.982 293.872C173.75 293.008 174.134 291.776 174.134 290.176V282.352C174.134 280.752 173.75 279.536 172.982 278.704C172.214 277.84 171.142 277.408 169.766 277.408ZM194.662 274C195.11 274 195.462 274.032 195.718 274.096V278.704C195.238 278.608 194.614 278.56 193.846 278.56C191.606 278.56 189.83 279.68 188.518 281.92V298H184.438V274.576H188.278V278.08C189.142 276.768 190.102 275.76 191.158 275.056C192.246 274.352 193.414 274 194.662 274ZM207.927 274C209.367 274 210.999 274.208 212.823 274.624L212.727 278.224C210.871 277.808 209.271 277.6 207.927 277.6C206.423 277.6 205.271 278.016 204.471 278.848C203.703 279.68 203.319 280.864 203.319 282.4V290.128C203.319 291.728 203.719 292.944 204.519 293.776C205.351 294.576 206.487 294.976 207.927 294.976C208.823 294.976 209.607 294.928 210.279 294.832C210.951 294.736 211.767 294.576 212.727 294.352L212.823 297.952C210.871 298.368 209.223 298.576 207.879 298.576C202.119 298.576 199.239 295.664 199.239 289.84V282.736C199.239 276.912 202.135 274 207.927 274ZM226.103 274C228.791 274 230.839 274.736 232.247 276.208C233.655 277.68 234.359 279.808 234.359 282.592V287.536H222.023V290.368C222.023 292 222.407 293.184 223.175 293.92C223.975 294.624 225.223 294.976 226.919 294.976C228.583 294.976 230.663 294.72 233.159 294.208L233.255 297.76C230.279 298.304 228.151 298.576 226.871 298.576C223.703 298.576 221.415 297.888 220.007 296.512C218.631 295.136 217.943 293.008 217.943 290.128V282.592C217.943 279.808 218.615 277.68 219.959 276.208C221.335 274.736 223.383 274 226.103 274ZM226.103 277.408C224.855 277.408 223.863 277.808 223.127 278.608C222.391 279.376 222.023 280.496 222.023 281.968V284.272H230.279V282.112C230.279 280.576 229.895 279.408 229.127 278.608C228.391 277.808 227.383 277.408 226.103 277.408ZM22.305 333.256V336.376H11.745V333.256H22.305ZM47.8553 316.984C51.4393 316.984 54.0793 317.88 55.7753 319.672C57.4713 321.464 58.3193 324.008 58.3193 327.304V339.256C58.3193 342.552 57.4713 345.096 55.7753 346.888C54.0793 348.68 51.4393 349.576 47.8553 349.576C44.2713 349.576 41.6313 348.68 39.9353 346.888C38.2393 345.096 37.3913 342.552 37.3913 339.256V327.304C37.3913 324.008 38.2393 321.464 39.9353 319.672C41.6313 317.88 44.2713 316.984 47.8553 316.984ZM47.8553 320.584C45.7433 320.584 44.1433 321.112 43.0553 322.168C41.9993 323.224 41.4713 324.776 41.4713 326.824V339.688C41.4713 341.736 41.9993 343.304 43.0553 344.392C44.1433 345.448 45.7433 345.976 47.8553 345.976C49.9673 345.976 51.5513 345.448 52.6073 344.392C53.6953 343.304 54.2393 341.736 54.2393 339.688V326.872C54.2393 324.824 53.6953 323.272 52.6073 322.216C51.5513 321.128 49.9673 320.584 47.8553 320.584ZM75.2715 325C77.3195 325 78.8875 325.704 79.9755 327.112C81.0955 328.488 81.6555 330.456 81.6555 333.016V349H77.5755V333.592C77.5755 330.392 76.5355 328.792 74.4555 328.792C73.5275 328.792 72.5835 329.144 71.6235 329.848C70.6635 330.552 69.8315 331.512 69.1275 332.728V349H65.0475V325.576H68.8875V329.08C69.7515 327.768 70.7115 326.76 71.7675 326.056C72.8555 325.352 74.0235 325 75.2715 325ZM92.4713 316.216V349H88.3913V316.216H92.4713ZM103.253 325.576V349H99.1725V325.576H103.253ZM101.189 316.12C102.053 316.12 102.709 316.312 103.157 316.696C103.637 317.08 103.877 317.624 103.877 318.328V319.72C103.877 320.424 103.637 320.968 103.157 321.352C102.709 321.704 102.053 321.88 101.189 321.88C100.357 321.88 99.7005 321.704 99.2205 321.352C98.7725 320.968 98.5485 320.424 98.5485 319.72V318.328C98.5485 317.624 98.7725 317.08 99.2205 316.696C99.7005 316.312 100.357 316.12 101.189 316.12ZM120.178 325C122.226 325 123.794 325.704 124.882 327.112C126.002 328.488 126.562 330.456 126.562 333.016V349H122.482V333.592C122.482 330.392 121.442 328.792 119.362 328.792C118.434 328.792 117.49 329.144 116.53 329.848C115.57 330.552 114.738 331.512 114.034 332.728V349H109.954V325.576H113.794V329.08C114.658 327.768 115.618 326.76 116.674 326.056C117.762 325.352 118.93 325 120.178 325ZM140.978 325C143.666 325 145.714 325.736 147.122 327.208C148.53 328.68 149.234 330.808 149.234 333.592V338.536H136.898V341.368C136.898 343 137.282 344.184 138.05 344.92C138.85 345.624 140.098 345.976 141.794 345.976C143.458 345.976 145.538 345.72 148.034 345.208L148.13 348.76C145.154 349.304 143.026 349.576 141.746 349.576C138.578 349.576 136.29 348.888 134.882 347.512C133.506 346.136 132.818 344.008 132.818 341.128V333.592C132.818 330.808 133.49 328.68 134.834 327.208C136.21 325.736 138.258 325 140.978 325ZM140.978 328.408C139.73 328.408 138.738 328.808 138.002 329.608C137.266 330.376 136.898 331.496 136.898 332.968V335.272H145.154V333.112C145.154 331.576 144.77 330.408 144.002 329.608C143.266 328.808 142.258 328.408 140.978 328.408ZM180.287 325.576L173.039 349H167.711L160.511 325.576H164.831L170.399 346.024L175.967 325.576H180.287ZM190.83 325C192.174 325 193.79 325.192 195.678 325.576L195.582 329.032C193.918 328.648 192.398 328.456 191.022 328.456C188.142 328.456 186.702 329.384 186.702 331.24V331.672C186.702 332.248 186.846 332.712 187.134 333.064C187.454 333.416 188.014 333.784 188.814 334.168L193.326 336.28C196.046 337.56 197.406 339.432 197.406 341.896V342.952C197.374 345.16 196.702 346.824 195.39 347.944C194.11 349.032 192.078 349.576 189.294 349.576C187.854 349.576 185.79 349.24 183.102 348.568L183.294 344.92C185.694 345.624 187.662 345.976 189.198 345.976C190.766 345.976 191.854 345.768 192.462 345.352C193.07 344.904 193.374 344.184 193.374 343.192V342.712C193.374 341.944 193.214 341.336 192.894 340.888C192.606 340.44 192.11 340.056 191.406 339.736L186.75 337.672C185.342 337.032 184.302 336.264 183.63 335.368C182.99 334.472 182.67 333.432 182.67 332.248V331.576C182.734 329.4 183.406 327.768 184.686 326.68C185.998 325.56 188.046 325 190.83 325ZM204.406 343.72C206.23 343.72 207.142 344.472 207.142 345.976V347.368C207.142 348.072 206.902 348.616 206.422 349C205.974 349.384 205.302 349.576 204.406 349.576C203.542 349.576 202.87 349.384 202.39 349C201.942 348.616 201.718 348.072 201.718 347.368V345.976C201.718 345.24 201.942 344.68 202.39 344.296C202.87 343.912 203.542 343.72 204.406 343.72ZM229.719 325C232.567 325 234.679 325.768 236.055 327.304C237.463 328.808 238.167 330.952 238.167 333.736V340.84C238.167 343.624 237.463 345.784 236.055 347.32C234.679 348.824 232.567 349.576 229.719 349.576C226.871 349.576 224.743 348.824 223.335 347.32C221.959 345.784 221.271 343.624 221.271 340.84V333.736C221.271 330.952 221.959 328.808 223.335 327.304C224.743 325.768 226.871 325 229.719 325ZM229.719 328.408C228.343 328.408 227.271 328.84 226.503 329.704C225.735 330.568 225.351 331.8 225.351 333.4V341.176C225.351 342.776 225.735 344.008 226.503 344.872C227.271 345.736 228.343 346.168 229.719 346.168C231.095 346.168 232.167 345.736 232.935 344.872C233.703 344.008 234.087 342.776 234.087 341.176V333.352C234.087 331.752 233.703 330.536 232.935 329.704C232.167 328.84 231.095 328.408 229.719 328.408ZM253.031 315.64C254.087 315.64 255.095 315.752 256.055 315.976V319.24C255.095 319.08 254.103 319 253.079 319C252.087 319 251.303 319.32 250.727 319.96C250.183 320.6 249.911 321.576 249.911 322.888V325.576H254.711V328.936H249.911V349H245.831V328.936H242.471V325.576H245.831V323.128C245.863 320.632 246.487 318.76 247.703 317.512C248.919 316.264 250.695 315.64 253.031 315.64ZM268.043 315.64C268.683 315.64 269.515 315.72 270.539 315.88C271.563 316.008 272.427 316.152 273.131 316.312L276.635 316.024V349H272.555V319.672C270.699 319.224 269.179 319 267.995 319C266.779 319 265.883 319.304 265.307 319.912C264.731 320.488 264.443 321.4 264.443 322.648V325.576H268.763V328.936H264.443V349H260.363V328.936H257.003V325.576H260.363V323.368C260.395 320.68 261.019 318.728 262.235 317.512C263.451 316.264 265.387 315.64 268.043 315.64ZM287.424 325.576V349H283.344V325.576H287.424ZM285.36 316.12C286.224 316.12 286.88 316.312 287.328 316.696C287.808 317.08 288.048 317.624 288.048 318.328V319.72C288.048 320.424 287.808 320.968 287.328 321.352C286.88 321.704 286.224 321.88 285.36 321.88C284.528 321.88 283.872 321.704 283.392 321.352C282.944 320.968 282.72 320.424 282.72 319.72V318.328C282.72 317.624 282.944 317.08 283.392 316.696C283.872 316.312 284.528 316.12 285.36 316.12ZM304.35 325C306.398 325 307.966 325.704 309.054 327.112C310.174 328.488 310.734 330.456 310.734 333.016V349H306.654V333.592C306.654 330.392 305.614 328.792 303.534 328.792C302.606 328.792 301.662 329.144 300.702 329.848C299.742 330.552 298.91 331.512 298.206 332.728V349H294.126V325.576H297.966V329.08C298.83 327.768 299.79 326.76 300.846 326.056C301.934 325.352 303.102 325 304.35 325ZM325.149 325C327.837 325 329.885 325.736 331.293 327.208C332.701 328.68 333.405 330.808 333.405 333.592V338.536H321.069V341.368C321.069 343 321.453 344.184 322.221 344.92C323.021 345.624 324.269 345.976 325.965 345.976C327.629 345.976 329.709 345.72 332.205 345.208L332.301 348.76C329.325 349.304 327.197 349.576 325.917 349.576C322.749 349.576 320.461 348.888 319.053 347.512C317.677 346.136 316.989 344.008 316.989 341.128V333.592C316.989 330.808 317.661 328.68 319.005 327.208C320.381 325.736 322.429 325 325.149 325ZM325.149 328.408C323.901 328.408 322.909 328.808 322.173 329.608C321.437 330.376 321.069 331.496 321.069 332.968V335.272H329.325V333.112C329.325 331.576 328.941 330.408 328.173 329.608C327.437 328.808 326.429 328.408 325.149 328.408ZM22.305 384.256V387.376H11.745V384.256H22.305ZM47.6153 367.984C48.8633 367.984 50.2073 368.112 51.6473 368.368C53.1193 368.592 53.9833 368.72 54.2393 368.752L54.1433 372.352C51.3273 371.84 49.1513 371.584 47.6153 371.584C45.4393 371.584 43.8713 372.032 42.9113 372.928C41.9513 373.824 41.4713 375.312 41.4713 377.392V391.12C41.4713 393.2 41.9353 394.688 42.8633 395.584C43.8233 396.448 45.4073 396.88 47.6153 396.88C49.1513 396.88 51.3273 396.624 54.1433 396.112L54.2393 399.808C53.9833 399.84 53.1193 399.968 51.6473 400.192C50.2073 400.448 48.8633 400.576 47.6153 400.576C43.9353 400.576 41.3113 399.792 39.7433 398.224C38.1753 396.656 37.3913 394.208 37.3913 390.88V377.68C37.3913 374.352 38.1753 371.904 39.7433 370.336C41.3113 368.768 43.9353 367.984 47.6153 367.984ZM67.7186 376C70.5666 376 72.6786 376.768 74.0546 378.304C75.4626 379.808 76.1666 381.952 76.1666 384.736V391.84C76.1666 394.624 75.4626 396.784 74.0546 398.32C72.6786 399.824 70.5666 400.576 67.7186 400.576C64.8706 400.576 62.7426 399.824 61.3346 398.32C59.9586 396.784 59.2706 394.624 59.2706 391.84V384.736C59.2706 381.952 59.9586 379.808 61.3346 378.304C62.7426 376.768 64.8706 376 67.7186 376ZM67.7186 379.408C66.3426 379.408 65.2706 379.84 64.5026 380.704C63.7346 381.568 63.3506 382.8 63.3506 384.4V392.176C63.3506 393.776 63.7346 395.008 64.5026 395.872C65.2706 396.736 66.3426 397.168 67.7186 397.168C69.0946 397.168 70.1666 396.736 70.9346 395.872C71.7026 395.008 72.0866 393.776 72.0866 392.176V384.352C72.0866 382.752 71.7026 381.536 70.9346 380.704C70.1666 379.84 69.0946 379.408 67.7186 379.408ZM86.4713 367.216V400H82.3913V367.216H86.4713ZM97.2525 367.216V400H93.1725V367.216H97.2525ZM108.034 376.576V400H103.954V376.576H108.034ZM105.97 367.12C106.834 367.12 107.49 367.312 107.938 367.696C108.418 368.08 108.658 368.624 108.658 369.328V370.72C108.658 371.424 108.418 371.968 107.938 372.352C107.49 372.704 106.834 372.88 105.97 372.88C105.138 372.88 104.482 372.704 104.002 372.352C103.554 371.968 103.33 371.424 103.33 370.72V369.328C103.33 368.624 103.554 368.08 104.002 367.696C104.482 367.312 105.138 367.12 105.97 367.12ZM121.455 376C122.799 376 124.415 376.192 126.303 376.576L126.207 380.032C124.543 379.648 123.023 379.456 121.647 379.456C118.767 379.456 117.327 380.384 117.327 382.24V382.672C117.327 383.248 117.471 383.712 117.759 384.064C118.079 384.416 118.639 384.784 119.439 385.168L123.951 387.28C126.671 388.56 128.031 390.432 128.031 392.896V393.952C127.999 396.16 127.327 397.824 126.015 398.944C124.735 400.032 122.703 400.576 119.919 400.576C118.479 400.576 116.415 400.24 113.727 399.568L113.919 395.92C116.319 396.624 118.287 396.976 119.823 396.976C121.391 396.976 122.479 396.768 123.087 396.352C123.695 395.904 123.999 395.184 123.999 394.192V393.712C123.999 392.944 123.839 392.336 123.519 391.888C123.231 391.44 122.735 391.056 122.031 390.736L117.375 388.672C115.967 388.032 114.927 387.264 114.255 386.368C113.615 385.472 113.295 384.432 113.295 383.248V382.576C113.359 380.4 114.031 378.768 115.311 377.68C116.623 376.56 118.671 376 121.455 376ZM137.378 376.576V400H133.298V376.576H137.378ZM135.314 367.12C136.178 367.12 136.834 367.312 137.282 367.696C137.762 368.08 138.002 368.624 138.002 369.328V370.72C138.002 371.424 137.762 371.968 137.282 372.352C136.834 372.704 136.178 372.88 135.314 372.88C134.482 372.88 133.826 372.704 133.346 372.352C132.898 371.968 132.674 371.424 132.674 370.72V369.328C132.674 368.624 132.898 368.08 133.346 367.696C133.826 367.312 134.482 367.12 135.314 367.12ZM152.047 376C154.895 376 157.007 376.768 158.383 378.304C159.791 379.808 160.495 381.952 160.495 384.736V391.84C160.495 394.624 159.791 396.784 158.383 398.32C157.007 399.824 154.895 400.576 152.047 400.576C149.199 400.576 147.071 399.824 145.663 398.32C144.287 396.784 143.599 394.624 143.599 391.84V384.736C143.599 381.952 144.287 379.808 145.663 378.304C147.071 376.768 149.199 376 152.047 376ZM152.047 379.408C150.671 379.408 149.599 379.84 148.831 380.704C148.063 381.568 147.679 382.8 147.679 384.4V392.176C147.679 393.776 148.063 395.008 148.831 395.872C149.599 396.736 150.671 397.168 152.047 397.168C153.423 397.168 154.495 396.736 155.263 395.872C156.031 395.008 156.415 393.776 156.415 392.176V384.352C156.415 382.752 156.031 381.536 155.263 380.704C154.495 379.84 153.423 379.408 152.047 379.408ZM176.943 376C178.991 376 180.559 376.704 181.647 378.112C182.767 379.488 183.327 381.456 183.327 384.016V400H179.247V384.592C179.247 381.392 178.207 379.792 176.127 379.792C175.199 379.792 174.255 380.144 173.295 380.848C172.335 381.552 171.503 382.512 170.799 383.728V400H166.719V376.576H170.559V380.08C171.423 378.768 172.383 377.76 173.439 377.056C174.527 376.352 175.695 376 176.943 376ZM22.305 435.256V438.376H11.745V435.256H22.305ZM46.4153 418.984C50.2233 418.984 53.1513 420.072 55.1993 422.248C57.2793 424.392 58.3193 427.496 58.3193 431.56V439.432C58.3193 443.336 57.2793 446.344 55.1993 448.456C53.1513 450.536 50.1433 451.576 46.1753 451.576C43.4553 451.576 40.6073 451.48 37.6313 451.288V419.176C40.5113 419.048 43.4393 418.984 46.4153 418.984ZM46.1753 422.44C45.1833 422.44 43.6953 422.472 41.7113 422.536V447.784C43.5993 447.976 45.0873 448.072 46.1753 448.072C48.6393 448.072 50.5913 447.368 52.0313 445.96C53.5033 444.52 54.2393 442.456 54.2393 439.768V431.272C54.2393 428.36 53.5353 426.168 52.1273 424.696C50.7193 423.192 48.7353 422.44 46.1753 422.44ZM72.7811 427C75.6291 427 77.7411 427.768 79.1171 429.304C80.5251 430.808 81.2291 432.952 81.2291 435.736V442.84C81.2291 445.624 80.5251 447.784 79.1171 449.32C77.7411 450.824 75.6291 451.576 72.7811 451.576C69.9331 451.576 67.8051 450.824 66.3971 449.32C65.0211 447.784 64.3331 445.624 64.3331 442.84V435.736C64.3331 432.952 65.0211 430.808 66.3971 429.304C67.8051 427.768 69.9331 427 72.7811 427ZM72.7811 430.408C71.4051 430.408 70.3331 430.84 69.5651 431.704C68.7971 432.568 68.4131 433.8 68.4131 435.4V443.176C68.4131 444.776 68.7971 446.008 69.5651 446.872C70.3331 447.736 71.4051 448.168 72.7811 448.168C74.1571 448.168 75.2291 447.736 75.9971 446.872C76.7651 446.008 77.1491 444.776 77.1491 443.176V435.352C77.1491 433.752 76.7651 432.536 75.9971 431.704C75.2291 430.84 74.1571 430.408 72.7811 430.408ZM115.678 427.576L110.254 451H105.118L100.366 431.128L95.5658 451H90.4297L85.0538 427.576H89.3738L93.1658 447.4L97.7258 427.576H103.006L107.518 447.4L111.358 427.576H115.678ZM130.209 427C132.257 427 133.825 427.704 134.913 429.112C136.033 430.488 136.593 432.456 136.593 435.016V451H132.513V435.592C132.513 432.392 131.473 430.792 129.393 430.792C128.465 430.792 127.521 431.144 126.561 431.848C125.601 432.552 124.769 433.512 124.065 434.728V451H119.985V427.576H123.825V431.08C124.689 429.768 125.649 428.76 126.705 428.056C127.793 427.352 128.961 427 130.209 427ZM151.009 427C152.417 427 153.697 427.208 154.849 427.624L162.337 427.528V431.128L158.401 431.032C158.945 432.184 159.217 433.384 159.217 434.632V435.688C159.217 438.024 158.497 439.912 157.057 441.352C155.617 442.76 153.601 443.464 151.009 443.464C149.345 443.464 147.985 443.304 146.929 442.984C146.225 443.56 145.873 444.216 145.873 444.952V445.24C145.873 445.752 146.033 446.136 146.353 446.392C146.673 446.616 147.297 446.76 148.225 446.824L155.377 447.352C156.849 447.48 158.033 448.04 158.929 449.032C159.857 449.992 160.321 451.208 160.321 452.68V454.456C160.321 455.832 160.049 456.952 159.505 457.816C158.961 458.68 157.953 459.336 156.481 459.784C155.041 460.232 152.961 460.456 150.241 460.456C149.217 460.456 148.001 460.344 146.593 460.12C145.217 459.896 143.905 459.608 142.657 459.256L142.801 455.464C145.777 456.456 148.305 456.952 150.385 456.952C152.113 456.952 153.393 456.84 154.225 456.616C155.089 456.424 155.649 456.12 155.905 455.704C156.193 455.288 156.337 454.664 156.337 453.832V453.448C156.337 452.712 156.129 452.136 155.713 451.72C155.329 451.304 154.769 451.08 154.033 451.048L146.833 450.568C145.297 450.472 144.129 450.04 143.329 449.272C142.529 448.504 142.129 447.464 142.129 446.152V445.192C142.129 444.488 142.305 443.8 142.657 443.128C143.041 442.456 143.585 441.864 144.289 441.352C143.745 440.744 143.345 439.976 143.089 439.048C142.865 438.088 142.753 436.92 142.753 435.544V434.488C142.753 432.216 143.457 430.408 144.865 429.064C146.273 427.688 148.321 427 151.009 427ZM151.009 430.408C149.665 430.408 148.625 430.76 147.889 431.464C147.185 432.136 146.833 433.112 146.833 434.392V435.976C146.833 437.16 146.929 438.04 147.121 438.616C147.345 439.16 147.729 439.544 148.273 439.768C148.817 439.96 149.633 440.056 150.721 440.056C152.193 440.056 153.297 439.704 154.033 439C154.769 438.296 155.137 437.288 155.137 435.976V434.536C155.137 433.192 154.945 432.024 154.561 431.032C154.177 430.872 153.649 430.728 152.977 430.6C152.337 430.472 151.681 430.408 151.009 430.408ZM176.381 427C176.829 427 177.181 427.032 177.437 427.096V431.704C176.957 431.608 176.333 431.56 175.565 431.56C173.325 431.56 171.549 432.68 170.237 434.92V451H166.157V427.576H169.997V431.08C170.861 429.768 171.821 428.76 172.877 428.056C173.965 427.352 175.133 427 176.381 427ZM188.215 427C190.967 427 192.967 427.624 194.215 428.872C195.495 430.088 196.135 432.04 196.135 434.728V451H192.247V447.256C190.391 450.136 188.295 451.576 185.959 451.576C184.103 451.576 182.615 450.936 181.495 449.656C180.407 448.376 179.863 446.632 179.863 444.424V443.08C179.863 441.16 180.519 439.576 181.831 438.328C183.143 437.048 184.903 436.408 187.111 436.408C188.327 436.408 189.975 436.616 192.055 437.032V434.392C192.055 433.016 191.735 432.024 191.095 431.416C190.487 430.808 189.527 430.504 188.215 430.504C186.679 430.504 184.519 430.744 181.735 431.224V427.72C184.743 427.24 186.903 427 188.215 427ZM188.119 439.576C186.775 439.576 185.751 439.928 185.047 440.632C184.343 441.336 183.991 442.328 183.991 443.608V444.136C183.991 445.32 184.263 446.248 184.807 446.92C185.351 447.592 186.039 447.928 186.871 447.928C187.735 447.928 188.615 447.56 189.511 446.824C190.439 446.056 191.287 444.984 192.055 443.608V439.912C190.839 439.688 189.527 439.576 188.119 439.576ZM218.754 451H214.866V447.208C212.946 450.12 210.754 451.576 208.29 451.576C206.306 451.576 204.786 450.904 203.73 449.56C202.674 448.184 202.146 446.184 202.146 443.56V435.016C202.146 432.488 202.722 430.52 203.874 429.112C205.058 427.704 206.738 427 208.914 427C209.842 427 210.818 427.24 211.842 427.72C212.866 428.168 213.81 428.728 214.674 429.4V418.216H218.754V451ZM209.826 430.648C208.674 430.648 207.778 431.064 207.138 431.896C206.53 432.696 206.226 433.928 206.226 435.592V443.032C206.226 446.296 207.234 447.928 209.25 447.928C210.21 447.928 211.154 447.56 212.082 446.824C213.042 446.056 213.906 444.984 214.674 443.608V433.048C214.002 432.344 213.202 431.768 212.274 431.32C211.378 430.872 210.562 430.648 209.826 430.648ZM233.134 427C235.822 427 237.87 427.736 239.278 429.208C240.686 430.68 241.39 432.808 241.39 435.592V440.536H229.054V443.368C229.054 445 229.438 446.184 230.206 446.92C231.006 447.624 232.254 447.976 233.95 447.976C235.614 447.976 237.694 447.72 240.19 447.208L240.286 450.76C237.31 451.304 235.182 451.576 233.902 451.576C230.734 451.576 228.446 450.888 227.038 449.512C225.662 448.136 224.974 446.008 224.974 443.128V435.592C224.974 432.808 225.646 430.68 226.99 429.208C228.366 427.736 230.414 427 233.134 427ZM233.134 430.408C231.886 430.408 230.894 430.808 230.158 431.608C229.422 432.376 229.054 433.496 229.054 434.968V437.272H237.31V435.112C237.31 433.576 236.926 432.408 236.158 431.608C235.422 430.808 234.414 430.408 233.134 430.408ZM22.305 486.256V489.376H11.745V486.256H22.305ZM45.9833 469.984C49.7593 469.984 52.5433 470.72 54.3353 472.192C56.1273 473.664 57.0233 475.728 57.0233 478.384V479.584C57.0233 481.44 56.5113 483.088 55.4873 484.528C54.4633 485.936 52.9913 486.928 51.0713 487.504L59.2313 502H54.6713L47.0393 488.368C46.7833 488.4 46.2713 488.416 45.5033 488.416C44.2233 488.416 42.9593 488.368 41.7113 488.272V502H37.6313V470.176C41.2153 470.048 43.9993 469.984 45.9833 469.984ZM45.8873 473.44C44.8313 473.44 43.4393 473.472 41.7113 473.536V484.864C43.4393 485.024 44.8793 485.104 46.0312 485.104C50.6393 485.104 52.9433 483.232 52.9433 479.488V478.528C52.9433 476.8 52.3833 475.52 51.2633 474.688C50.1433 473.856 48.3513 473.44 45.8873 473.44ZM70.5244 478C73.2124 478 75.2604 478.736 76.6684 480.208C78.0764 481.68 78.7804 483.808 78.7804 486.592V491.536H66.4444V494.368C66.4444 496 66.8284 497.184 67.5964 497.92C68.3964 498.624 69.6444 498.976 71.3404 498.976C73.0044 498.976 75.0844 498.72 77.5804 498.208L77.6764 501.76C74.7004 502.304 72.5724 502.576 71.2924 502.576C68.1244 502.576 65.8364 501.888 64.4284 500.512C63.0524 499.136 62.3644 497.008 62.3644 494.128V486.592C62.3644 483.808 63.0364 481.68 64.3804 480.208C65.7564 478.736 67.8044 478 70.5244 478ZM70.5244 481.408C69.2764 481.408 68.2844 481.808 67.5484 482.608C66.8124 483.376 66.4444 484.496 66.4444 485.968V488.272H74.7004V486.112C74.7004 484.576 74.3164 483.408 73.5484 482.608C72.8124 481.808 71.8044 481.408 70.5244 481.408ZM94.4891 478C96.5051 478 98.0731 478.688 99.1931 480.064C100.313 481.44 100.873 483.424 100.873 486.016V494.56C100.873 497.056 100.217 499.024 98.9051 500.464C97.6251 501.872 95.8811 502.576 93.6731 502.576C92.8411 502.576 91.9451 502.4 90.9851 502.048C90.0571 501.728 89.1931 501.344 88.3931 500.896V510.88H84.3131V478.576H88.1531V481.984C89.9131 479.328 92.0251 478 94.4891 478ZM93.6731 481.648C92.7451 481.648 91.8011 482 90.8411 482.704C89.9131 483.376 89.0971 484.304 88.3931 485.488V497.248C89.0651 497.792 89.8011 498.224 90.6011 498.544C91.4331 498.832 92.1851 498.976 92.8571 498.976C95.4811 498.976 96.7931 497.312 96.7931 493.984V486.592C96.7931 483.296 95.7531 481.648 93.6731 481.648ZM111.174 469.216V502H107.094V469.216H111.174ZM125.028 478C127.78 478 129.78 478.624 131.028 479.872C132.308 481.088 132.948 483.04 132.948 485.728V502H129.06V498.256C127.204 501.136 125.108 502.576 122.772 502.576C120.916 502.576 119.428 501.936 118.308 500.656C117.22 499.376 116.676 497.632 116.676 495.424V494.08C116.676 492.16 117.332 490.576 118.644 489.328C119.956 488.048 121.716 487.408 123.924 487.408C125.14 487.408 126.788 487.616 128.868 488.032V485.392C128.868 484.016 128.548 483.024 127.908 482.416C127.3 481.808 126.34 481.504 125.028 481.504C123.492 481.504 121.332 481.744 118.548 482.224V478.72C121.556 478.24 123.716 478 125.028 478ZM124.932 490.576C123.588 490.576 122.564 490.928 121.86 491.632C121.156 492.336 120.804 493.328 120.804 494.608V495.136C120.804 496.32 121.076 497.248 121.62 497.92C122.164 498.592 122.852 498.928 123.684 498.928C124.548 498.928 125.428 498.56 126.324 497.824C127.252 497.056 128.1 495.984 128.868 494.608V490.912C127.652 490.688 126.34 490.576 124.932 490.576ZM156.526 478.576L145.774 510.88H141.694L144.766 502H143.23L136.558 478.576H141.022L146.062 499.072L152.302 478.576H156.526ZM22.305 537.256V540.376H11.745V537.256H22.305ZM73.5353 521.56L66.2873 553H60.8153L54.3833 526.216L47.9993 553H42.5273L35.2313 521.56H39.5513L45.4073 548.536L51.5993 521.56H57.1673L63.4073 548.536L69.2153 521.56H73.5353ZM84.54 529C87.228 529 89.276 529.736 90.684 531.208C92.092 532.68 92.796 534.808 92.796 537.592V542.536H80.46V545.368C80.46 547 80.844 548.184 81.612 548.92C82.412 549.624 83.66 549.976 85.356 549.976C87.02 549.976 89.1 549.72 91.596 549.208L91.692 552.76C88.716 553.304 86.588 553.576 85.308 553.576C82.14 553.576 79.852 552.888 78.444 551.512C77.068 550.136 76.38 548.008 76.38 545.128V537.592C76.38 534.808 77.052 532.68 78.396 531.208C79.772 529.736 81.82 529 84.54 529ZM84.54 532.408C83.292 532.408 82.3 532.808 81.564 533.608C80.828 534.376 80.46 535.496 80.46 536.968V539.272H88.716V537.112C88.716 535.576 88.332 534.408 87.564 533.608C86.828 532.808 85.82 532.408 84.54 532.408ZM105.481 529C108.233 529 110.233 529.624 111.481 530.872C112.761 532.088 113.401 534.04 113.401 536.728V553H109.513V549.256C107.657 552.136 105.561 553.576 103.225 553.576C101.369 553.576 99.8808 552.936 98.7608 551.656C97.6728 550.376 97.1288 548.632 97.1288 546.424V545.08C97.1288 543.16 97.7848 541.576 99.0968 540.328C100.409 539.048 102.169 538.408 104.377 538.408C105.593 538.408 107.241 538.616 109.321 539.032V536.392C109.321 535.016 109.001 534.024 108.361 533.416C107.753 532.808 106.793 532.504 105.481 532.504C103.945 532.504 101.785 532.744 99.0008 533.224V529.72C102.009 529.24 104.169 529 105.481 529ZM105.385 541.576C104.041 541.576 103.017 541.928 102.313 542.632C101.609 543.336 101.257 544.328 101.257 545.608V546.136C101.257 547.32 101.529 548.248 102.073 548.92C102.617 549.592 103.305 549.928 104.137 549.928C105.001 549.928 105.881 549.56 106.777 548.824C107.705 548.056 108.553 546.984 109.321 545.608V541.912C108.105 541.688 106.793 541.576 105.385 541.576ZM123.971 520.216V539.848L131.651 529.576H136.211L128.243 539.848L136.787 553H131.891L123.971 540.424V553H119.891V520.216H123.971ZM153.081 529.576V553H149.001V529.576H153.081ZM151.017 520.12C151.881 520.12 152.537 520.312 152.985 520.696C153.465 521.08 153.705 521.624 153.705 522.328V523.72C153.705 524.424 153.465 524.968 152.985 525.352C152.537 525.704 151.881 525.88 151.017 525.88C150.185 525.88 149.529 525.704 149.049 525.352C148.601 524.968 148.377 524.424 148.377 523.72V522.328C148.377 521.624 148.601 521.08 149.049 520.696C149.529 520.312 150.185 520.12 151.017 520.12ZM182.294 529C184.342 529 185.91 529.704 186.998 531.112C188.086 532.488 188.63 534.456 188.63 537.016V553H184.55V537.592C184.55 534.392 183.526 532.792 181.478 532.792C180.582 532.792 179.654 533.144 178.694 533.848C177.766 534.552 176.95 535.512 176.246 536.728V553H172.166V537.592C172.166 534.392 171.142 532.792 169.094 532.792C168.198 532.792 167.27 533.144 166.31 533.848C165.382 534.552 164.566 535.512 163.862 536.728V553H159.782V529.576H163.622V533.08C164.454 531.768 165.414 530.76 166.502 530.056C167.59 529.352 168.726 529 169.91 529C171.382 529 172.614 529.384 173.606 530.152C174.598 530.888 175.318 531.976 175.766 533.416C176.63 531.976 177.622 530.888 178.742 530.152C179.862 529.384 181.046 529 182.294 529ZM205.536 529C207.552 529 209.12 529.688 210.24 531.064C211.36 532.44 211.92 534.424 211.92 537.016V545.56C211.92 548.056 211.264 550.024 209.952 551.464C208.672 552.872 206.928 553.576 204.72 553.576C203.888 553.576 202.992 553.4 202.032 553.048C201.104 552.728 200.24 552.344 199.44 551.896V561.88H195.36V529.576H199.2V532.984C200.96 530.328 203.072 529 205.536 529ZM204.72 532.648C203.792 532.648 202.848 533 201.888 533.704C200.96 534.376 200.144 535.304 199.44 536.488V548.248C200.112 548.792 200.848 549.224 201.648 549.544C202.48 549.832 203.232 549.976 203.904 549.976C206.528 549.976 207.84 548.312 207.84 544.984V537.592C207.84 534.296 206.8 532.648 204.72 532.648ZM222.221 520.216V553H218.141V520.216H222.221ZM236.603 529C239.291 529 241.339 529.736 242.747 531.208C244.155 532.68 244.859 534.808 244.859 537.592V542.536H232.523V545.368C232.523 547 232.907 548.184 233.675 548.92C234.475 549.624 235.723 549.976 237.419 549.976C239.083 549.976 241.163 549.72 243.659 549.208L243.755 552.76C240.779 553.304 238.651 553.576 237.371 553.576C234.203 553.576 231.915 552.888 230.507 551.512C229.131 550.136 228.443 548.008 228.443 545.128V537.592C228.443 534.808 229.115 532.68 230.459 531.208C231.835 529.736 233.883 529 236.603 529ZM236.603 532.408C235.355 532.408 234.363 532.808 233.627 533.608C232.891 534.376 232.523 535.496 232.523 536.968V539.272H240.779V537.112C240.779 535.576 240.395 534.408 239.627 533.608C238.891 532.808 237.883 532.408 236.603 532.408ZM272.903 529C274.951 529 276.519 529.704 277.607 531.112C278.695 532.488 279.239 534.456 279.239 537.016V553H275.159V537.592C275.159 534.392 274.135 532.792 272.087 532.792C271.191 532.792 270.263 533.144 269.303 533.848C268.375 534.552 267.559 535.512 266.855 536.728V553H262.775V537.592C262.775 534.392 261.751 532.792 259.703 532.792C258.807 532.792 257.879 533.144 256.919 533.848C255.991 534.552 255.175 535.512 254.471 536.728V553H250.391V529.576H254.231V533.08C255.063 531.768 256.023 530.76 257.111 530.056C258.199 529.352 259.335 529 260.519 529C261.991 529 263.223 529.384 264.215 530.152C265.207 530.888 265.927 531.976 266.375 533.416C267.239 531.976 268.231 530.888 269.351 530.152C270.471 529.384 271.655 529 272.903 529ZM293.649 529C296.337 529 298.385 529.736 299.793 531.208C301.201 532.68 301.905 534.808 301.905 537.592V542.536H289.569V545.368C289.569 547 289.953 548.184 290.721 548.92C291.521 549.624 292.769 549.976 294.465 549.976C296.129 549.976 298.209 549.72 300.705 549.208L300.801 552.76C297.825 553.304 295.697 553.576 294.417 553.576C291.249 553.576 288.961 552.888 287.553 551.512C286.177 550.136 285.489 548.008 285.489 545.128V537.592C285.489 534.808 286.161 532.68 287.505 531.208C288.881 529.736 290.929 529 293.649 529ZM293.649 532.408C292.401 532.408 291.409 532.808 290.673 533.608C289.937 534.376 289.569 535.496 289.569 536.968V539.272H297.825V537.112C297.825 535.576 297.441 534.408 296.673 533.608C295.937 532.808 294.929 532.408 293.649 532.408ZM317.662 529C319.71 529 321.278 529.704 322.366 531.112C323.486 532.488 324.046 534.456 324.046 537.016V553H319.966V537.592C319.966 534.392 318.926 532.792 316.846 532.792C315.918 532.792 314.974 533.144 314.014 533.848C313.054 534.552 312.222 535.512 311.518 536.728V553H307.438V529.576H311.278V533.08C312.142 531.768 313.102 530.76 314.158 530.056C315.246 529.352 316.414 529 317.662 529ZM335.582 529.576H341.822V532.936H335.582V546.664C335.582 547.88 335.822 548.76 336.302 549.304C336.814 549.816 337.598 550.072 338.654 550.072C339.998 550.072 341.31 549.912 342.59 549.592L342.686 553C341.278 553.384 339.998 553.576 338.846 553.576C336.286 553.576 334.414 553.016 333.23 551.896C332.078 550.744 331.502 548.888 331.502 546.328V532.936H328.142V529.576H331.502L332.27 523.336H335.582V529.576ZM354.153 529C356.905 529 358.905 529.624 360.153 530.872C361.433 532.088 362.073 534.04 362.073 536.728V553H358.185V549.256C356.329 552.136 354.233 553.576 351.897 553.576C350.041 553.576 348.553 552.936 347.433 551.656C346.345 550.376 345.801 548.632 345.801 546.424V545.08C345.801 543.16 346.457 541.576 347.769 540.328C349.081 539.048 350.841 538.408 353.049 538.408C354.265 538.408 355.913 538.616 357.993 539.032V536.392C357.993 535.016 357.673 534.024 357.033 533.416C356.425 532.808 355.465 532.504 354.153 532.504C352.617 532.504 350.457 532.744 347.673 533.224V529.72C350.681 529.24 352.841 529 354.153 529ZM354.057 541.576C352.713 541.576 351.689 541.928 350.985 542.632C350.281 543.336 349.929 544.328 349.929 545.608V546.136C349.929 547.32 350.201 548.248 350.745 548.92C351.289 549.592 351.977 549.928 352.809 549.928C353.673 549.928 354.553 549.56 355.449 548.824C356.377 548.056 357.225 546.984 357.993 545.608V541.912C356.777 541.688 355.465 541.576 354.057 541.576ZM373.363 529.576H379.603V532.936H373.363V546.664C373.363 547.88 373.603 548.76 374.083 549.304C374.595 549.816 375.379 550.072 376.435 550.072C377.779 550.072 379.091 549.912 380.371 549.592L380.467 553C379.059 553.384 377.779 553.576 376.627 553.576C374.067 553.576 372.195 553.016 371.011 551.896C369.859 550.744 369.283 548.888 369.283 546.328V532.936H365.923V529.576H369.283L370.051 523.336H373.363V529.576ZM388.862 529.576V553H384.782V529.576H388.862ZM386.798 520.12C387.662 520.12 388.318 520.312 388.766 520.696C389.246 521.08 389.486 521.624 389.486 522.328V523.72C389.486 524.424 389.246 524.968 388.766 525.352C388.318 525.704 387.662 525.88 386.798 525.88C385.966 525.88 385.31 525.704 384.83 525.352C384.382 524.968 384.158 524.424 384.158 523.72V522.328C384.158 521.624 384.382 521.08 384.83 520.696C385.31 520.312 385.966 520.12 386.798 520.12ZM403.531 529C406.379 529 408.491 529.768 409.867 531.304C411.275 532.808 411.979 534.952 411.979 537.736V544.84C411.979 547.624 411.275 549.784 409.867 551.32C408.491 552.824 406.379 553.576 403.531 553.576C400.683 553.576 398.555 552.824 397.147 551.32C395.771 549.784 395.083 547.624 395.083 544.84V537.736C395.083 534.952 395.771 532.808 397.147 531.304C398.555 529.768 400.683 529 403.531 529ZM403.531 532.408C402.155 532.408 401.083 532.84 400.315 533.704C399.547 534.568 399.163 535.8 399.163 537.4V545.176C399.163 546.776 399.547 548.008 400.315 548.872C401.083 549.736 402.155 550.168 403.531 550.168C404.907 550.168 405.979 549.736 406.747 548.872C407.515 548.008 407.899 546.776 407.899 545.176V537.352C407.899 535.752 407.515 534.536 406.747 533.704C405.979 532.84 404.907 532.408 403.531 532.408ZM428.428 529C430.476 529 432.044 529.704 433.132 531.112C434.252 532.488 434.812 534.456 434.812 537.016V553H430.732V537.592C430.732 534.392 429.692 532.792 427.612 532.792C426.684 532.792 425.74 533.144 424.78 533.848C423.82 534.552 422.988 535.512 422.284 536.728V553H418.204V529.576H422.044V533.08C422.908 531.768 423.868 530.76 424.924 530.056C426.012 529.352 427.18 529 428.428 529ZM448.268 529C449.612 529 451.228 529.192 453.116 529.576L453.02 533.032C451.356 532.648 449.836 532.456 448.46 532.456C445.58 532.456 444.14 533.384 444.14 535.24V535.672C444.14 536.248 444.284 536.712 444.572 537.064C444.892 537.416 445.452 537.784 446.252 538.168L450.764 540.28C453.484 541.56 454.844 543.432 454.844 545.896V546.952C454.812 549.16 454.14 550.824 452.828 551.944C451.548 553.032 449.516 553.576 446.732 553.576C445.292 553.576 443.228 553.24 440.54 552.568L440.732 548.92C443.132 549.624 445.1 549.976 446.636 549.976C448.204 549.976 449.292 549.768 449.9 549.352C450.508 548.904 450.812 548.184 450.812 547.192V546.712C450.812 545.944 450.652 545.336 450.332 544.888C450.044 544.44 449.548 544.056 448.844 543.736L444.188 541.672C442.78 541.032 441.74 540.264 441.068 539.368C440.428 538.472 440.108 537.432 440.108 536.248V535.576C440.172 533.4 440.844 531.768 442.124 530.68C443.436 529.56 445.484 529 448.268 529Z" fill="black"/>
</svg>
