<svg width="391" height="626" viewBox="0 0 391 626" fill="none" xmlns="http://www.w3.org/2000/svg">
<rect width="391" height="626" fill="#E6BF5C"/>
<path d="M33.241 34.92C34.201 34.92 34.937 35.128 35.449 35.544C35.993 35.96 36.265 36.568 36.265 37.368V38.952C36.265 39.752 35.993 40.36 35.449 40.776C34.937 41.192 34.201 41.4 33.241 41.4C32.313 41.4 31.577 41.192 31.033 40.776C30.521 40.36 30.265 39.752 30.265 38.952V37.368C30.265 36.568 30.521 35.96 31.033 35.544C31.577 35.128 32.313 34.92 33.241 34.92ZM87.0509 19.56L79.8029 51H74.3309L67.8989 24.216L61.5149 51H56.0429L48.7469 19.56H53.0669L58.9229 46.536L65.1149 19.56H70.6829L76.9229 46.536L82.7309 19.56H87.0509ZM95.6744 27.576V51H91.5944V27.576H95.6744ZM93.6104 18.12C94.4744 18.12 95.1304 18.312 95.5784 18.696C96.0584 19.08 96.2984 19.624 96.2984 20.328V21.72C96.2984 22.424 96.0584 22.968 95.5784 23.352C95.1304 23.704 94.4744 23.88 93.6104 23.88C92.7784 23.88 92.1224 23.704 91.6424 23.352C91.1944 22.968 90.9704 22.424 90.9704 21.72V20.328C90.9704 19.624 91.1944 19.08 91.6424 18.696C92.1224 18.312 92.7784 18.12 93.6104 18.12ZM112.6 27C113.048 27 113.4 27.032 113.656 27.096V31.704C113.176 31.608 112.552 31.56 111.784 31.56C109.544 31.56 107.768 32.68 106.456 34.92V51H102.376V27.576H106.216V31.08C107.08 29.768 108.04 28.76 109.096 28.056C110.184 27.352 111.352 27 112.6 27ZM125.337 27C128.025 27 130.073 27.736 131.481 29.208C132.889 30.68 133.593 32.808 133.593 35.592V40.536H121.257V43.368C121.257 45 121.641 46.184 122.409 46.92C123.209 47.624 124.457 47.976 126.153 47.976C127.817 47.976 129.897 47.72 132.393 47.208L132.489 50.76C129.513 51.304 127.385 51.576 126.105 51.576C122.937 51.576 120.649 50.888 119.241 49.512C117.865 48.136 117.177 46.008 117.177 43.128V35.592C117.177 32.808 117.849 30.68 119.193 29.208C120.569 27.736 122.617 27 125.337 27ZM125.337 30.408C124.089 30.408 123.097 30.808 122.361 31.608C121.625 32.376 121.257 33.496 121.257 34.968V37.272H129.513V35.112C129.513 33.576 129.129 32.408 128.361 31.608C127.625 30.808 126.617 30.408 125.337 30.408ZM143.206 18.216V51H139.126V18.216H143.206ZM157.587 27C160.275 27 162.323 27.736 163.731 29.208C165.139 30.68 165.843 32.808 165.843 35.592V40.536H153.507V43.368C153.507 45 153.891 46.184 154.659 46.92C155.459 47.624 156.707 47.976 158.403 47.976C160.067 47.976 162.147 47.72 164.643 47.208L164.739 50.76C161.763 51.304 159.635 51.576 158.355 51.576C155.187 51.576 152.899 50.888 151.491 49.512C150.115 48.136 149.427 46.008 149.427 43.128V35.592C149.427 32.808 150.099 30.68 151.443 29.208C152.819 27.736 154.867 27 157.587 27ZM157.587 30.408C156.339 30.408 155.347 30.808 154.611 31.608C153.875 32.376 153.507 33.496 153.507 34.968V37.272H161.763V35.112C161.763 33.576 161.379 32.408 160.611 31.608C159.875 30.808 158.867 30.408 157.587 30.408ZM178.096 27C179.44 27 181.056 27.192 182.944 27.576L182.848 31.032C181.184 30.648 179.664 30.456 178.288 30.456C175.408 30.456 173.968 31.384 173.968 33.24V33.672C173.968 34.248 174.112 34.712 174.4 35.064C174.72 35.416 175.28 35.784 176.08 36.168L180.592 38.28C183.312 39.56 184.672 41.432 184.672 43.896V44.952C184.64 47.16 183.968 48.824 182.656 49.944C181.376 51.032 179.344 51.576 176.56 51.576C175.12 51.576 173.056 51.24 170.368 50.568L170.56 46.92C172.96 47.624 174.928 47.976 176.464 47.976C178.032 47.976 179.12 47.768 179.728 47.352C180.336 46.904 180.64 46.184 180.64 45.192V44.712C180.64 43.944 180.48 43.336 180.16 42.888C179.872 42.44 179.376 42.056 178.672 41.736L174.016 39.672C172.608 39.032 171.568 38.264 170.896 37.368C170.256 36.472 169.936 35.432 169.936 34.248V33.576C170 31.4 170.672 29.768 171.952 28.68C173.264 27.56 175.312 27 178.096 27ZM196.096 27C197.44 27 199.056 27.192 200.944 27.576L200.848 31.032C199.184 30.648 197.664 30.456 196.288 30.456C193.408 30.456 191.968 31.384 191.968 33.24V33.672C191.968 34.248 192.112 34.712 192.4 35.064C192.72 35.416 193.28 35.784 194.08 36.168L198.592 38.28C201.312 39.56 202.672 41.432 202.672 43.896V44.952C202.64 47.16 201.968 48.824 200.656 49.944C199.376 51.032 197.344 51.576 194.56 51.576C193.12 51.576 191.056 51.24 188.368 50.568L188.56 46.92C190.96 47.624 192.928 47.976 194.464 47.976C196.032 47.976 197.12 47.768 197.728 47.352C198.336 46.904 198.64 46.184 198.64 45.192V44.712C198.64 43.944 198.48 43.336 198.16 42.888C197.872 42.44 197.376 42.056 196.672 41.736L192.016 39.672C190.608 39.032 189.568 38.264 188.896 37.368C188.256 36.472 187.936 35.432 187.936 34.248V33.576C188 31.4 188.672 29.768 189.952 28.68C191.264 27.56 193.312 27 196.096 27ZM223.481 27C226.233 27 228.233 27.624 229.481 28.872C230.761 30.088 231.401 32.04 231.401 34.728V51H227.513V47.256C225.657 50.136 223.561 51.576 221.225 51.576C219.369 51.576 217.881 50.936 216.761 49.656C215.673 48.376 215.129 46.632 215.129 44.424V43.08C215.129 41.16 215.785 39.576 217.097 38.328C218.409 37.048 220.169 36.408 222.377 36.408C223.593 36.408 225.241 36.616 227.321 37.032V34.392C227.321 33.016 227.001 32.024 226.361 31.416C225.753 30.808 224.793 30.504 223.481 30.504C221.945 30.504 219.785 30.744 217.001 31.224V27.72C220.009 27.24 222.169 27 223.481 27ZM223.385 39.576C222.041 39.576 221.017 39.928 220.313 40.632C219.609 41.336 219.257 42.328 219.257 43.608V44.136C219.257 45.32 219.529 46.248 220.073 46.92C220.617 47.592 221.305 47.928 222.137 47.928C223.001 47.928 223.881 47.56 224.777 46.824C225.705 46.056 226.553 44.984 227.321 43.608V39.912C226.105 39.688 224.793 39.576 223.385 39.576ZM242.691 27.576H248.931V30.936H242.691V44.664C242.691 45.88 242.931 46.76 243.411 47.304C243.923 47.816 244.707 48.072 245.763 48.072C247.107 48.072 248.419 47.912 249.699 47.592L249.795 51C248.387 51.384 247.107 51.576 245.955 51.576C243.395 51.576 241.523 51.016 240.339 49.896C239.187 48.744 238.611 46.888 238.611 44.328V30.936H235.251V27.576H238.611L239.379 21.336H242.691V27.576ZM258.91 27.576H265.15V30.936H258.91V44.664C258.91 45.88 259.15 46.76 259.63 47.304C260.142 47.816 260.926 48.072 261.982 48.072C263.326 48.072 264.638 47.912 265.918 47.592L266.014 51C264.606 51.384 263.326 51.576 262.174 51.576C259.614 51.576 257.742 51.016 256.558 49.896C255.406 48.744 254.83 46.888 254.83 44.328V30.936H251.47V27.576H254.83L255.598 21.336H258.91V27.576ZM277.481 27C280.233 27 282.233 27.624 283.481 28.872C284.761 30.088 285.401 32.04 285.401 34.728V51H281.513V47.256C279.657 50.136 277.561 51.576 275.225 51.576C273.369 51.576 271.881 50.936 270.761 49.656C269.673 48.376 269.129 46.632 269.129 44.424V43.08C269.129 41.16 269.785 39.576 271.097 38.328C272.409 37.048 274.169 36.408 276.377 36.408C277.593 36.408 279.241 36.616 281.321 37.032V34.392C281.321 33.016 281.001 32.024 280.361 31.416C279.753 30.808 278.793 30.504 277.481 30.504C275.945 30.504 273.785 30.744 271.001 31.224V27.72C274.009 27.24 276.169 27 277.481 27ZM277.385 39.576C276.041 39.576 275.017 39.928 274.313 40.632C273.609 41.336 273.257 42.328 273.257 43.608V44.136C273.257 45.32 273.529 46.248 274.073 46.92C274.617 47.592 275.305 47.928 276.137 47.928C277.001 47.928 277.881 47.56 278.777 46.824C279.705 46.056 280.553 44.984 281.321 43.608V39.912C280.105 39.688 278.793 39.576 277.385 39.576ZM300.099 27C301.539 27 303.171 27.208 304.995 27.624L304.899 31.224C303.043 30.808 301.443 30.6 300.099 30.6C298.595 30.6 297.443 31.016 296.643 31.848C295.875 32.68 295.491 33.864 295.491 35.4V43.128C295.491 44.728 295.891 45.944 296.691 46.776C297.523 47.576 298.659 47.976 300.099 47.976C300.995 47.976 301.779 47.928 302.451 47.832C303.123 47.736 303.939 47.576 304.899 47.352L304.995 50.952C303.043 51.368 301.395 51.576 300.051 51.576C294.291 51.576 291.411 48.664 291.411 42.84V35.736C291.411 29.912 294.307 27 300.099 27ZM314.674 18.216V37.848L322.354 27.576H326.914L318.946 37.848L327.49 51H322.594L314.674 38.424V51H310.594V18.216H314.674ZM337.799 27C339.143 27 340.759 27.192 342.647 27.576L342.551 31.032C340.887 30.648 339.367 30.456 337.991 30.456C335.111 30.456 333.671 31.384 333.671 33.24V33.672C333.671 34.248 333.815 34.712 334.103 35.064C334.423 35.416 334.983 35.784 335.783 36.168L340.295 38.28C343.015 39.56 344.375 41.432 344.375 43.896V44.952C344.343 47.16 343.671 48.824 342.359 49.944C341.079 51.032 339.047 51.576 336.263 51.576C334.823 51.576 332.759 51.24 330.071 50.568L330.263 46.92C332.663 47.624 334.631 47.976 336.167 47.976C337.735 47.976 338.823 47.768 339.431 47.352C340.039 46.904 340.343 46.184 340.343 45.192V44.712C340.343 43.944 340.183 43.336 339.863 42.888C339.575 42.44 339.079 42.056 338.375 41.736L333.719 39.672C332.311 39.032 331.271 38.264 330.599 37.368C329.959 36.472 329.639 35.432 329.639 34.248V33.576C329.703 31.4 330.375 29.768 331.655 28.68C332.967 27.56 335.015 27 337.799 27ZM41.305 86.256V89.376H30.745V86.256H41.305ZM64.9833 69.984C68.7593 69.984 71.5433 70.72 73.3353 72.192C75.1273 73.664 76.0233 75.728 76.0233 78.384V79.584C76.0233 81.44 75.5113 83.088 74.4873 84.528C73.4633 85.936 71.9913 86.928 70.0713 87.504L78.2313 102H73.6713L66.0393 88.368C65.7833 88.4 65.2713 88.416 64.5033 88.416C63.2233 88.416 61.9593 88.368 60.7113 88.272V102H56.6313V70.176C60.2153 70.048 62.9993 69.984 64.9833 69.984ZM64.8873 73.44C63.8313 73.44 62.4393 73.472 60.7113 73.536V84.864C62.4393 85.024 63.8793 85.104 65.0312 85.104C69.6393 85.104 71.9433 83.232 71.9433 79.488V78.528C71.9433 76.8 71.3833 75.52 70.2633 74.688C69.1433 73.856 67.3513 73.44 64.8873 73.44ZM89.5244 78C92.2124 78 94.2604 78.736 95.6684 80.208C97.0764 81.68 97.7804 83.808 97.7804 86.592V91.536H85.4444V94.368C85.4444 96 85.8284 97.184 86.5964 97.92C87.3964 98.624 88.6444 98.976 90.3404 98.976C92.0044 98.976 94.0844 98.72 96.5804 98.208L96.6764 101.76C93.7004 102.304 91.5724 102.576 90.2924 102.576C87.1244 102.576 84.8364 101.888 83.4284 100.512C82.0524 99.136 81.3644 97.008 81.3644 94.128V86.592C81.3644 83.808 82.0364 81.68 83.3804 80.208C84.7564 78.736 86.8044 78 89.5244 78ZM89.5244 81.408C88.2764 81.408 87.2844 81.808 86.5484 82.608C85.8124 83.376 85.4444 84.496 85.4444 85.968V88.272H93.7004V86.112C93.7004 84.576 93.3164 83.408 92.5484 82.608C91.8124 81.808 90.8044 81.408 89.5244 81.408ZM113.489 78C115.505 78 117.073 78.688 118.193 80.064C119.313 81.44 119.873 83.424 119.873 86.016V94.56C119.873 97.056 119.217 99.024 117.905 100.464C116.625 101.872 114.881 102.576 112.673 102.576C111.841 102.576 110.945 102.4 109.985 102.048C109.057 101.728 108.193 101.344 107.393 100.896V110.88H103.313V78.576H107.153V81.984C108.913 79.328 111.025 78 113.489 78ZM112.673 81.648C111.745 81.648 110.801 82 109.841 82.704C108.913 83.376 108.097 84.304 107.393 85.488V97.248C108.065 97.792 108.801 98.224 109.601 98.544C110.433 98.832 111.185 98.976 111.857 98.976C114.481 98.976 115.793 97.312 115.793 93.984V86.592C115.793 83.296 114.753 81.648 112.673 81.648ZM130.174 69.216V102H126.094V69.216H130.174ZM144.028 78C146.78 78 148.78 78.624 150.028 79.872C151.308 81.088 151.948 83.04 151.948 85.728V102H148.06V98.256C146.204 101.136 144.108 102.576 141.772 102.576C139.916 102.576 138.428 101.936 137.308 100.656C136.22 99.376 135.676 97.632 135.676 95.424V94.08C135.676 92.16 136.332 90.576 137.644 89.328C138.956 88.048 140.716 87.408 142.924 87.408C144.14 87.408 145.788 87.616 147.868 88.032V85.392C147.868 84.016 147.548 83.024 146.908 82.416C146.3 81.808 145.34 81.504 144.028 81.504C142.492 81.504 140.332 81.744 137.548 82.224V78.72C140.556 78.24 142.716 78 144.028 78ZM143.932 90.576C142.588 90.576 141.564 90.928 140.86 91.632C140.156 92.336 139.804 93.328 139.804 94.608V95.136C139.804 96.32 140.076 97.248 140.62 97.92C141.164 98.592 141.852 98.928 142.684 98.928C143.548 98.928 144.428 98.56 145.324 97.824C146.252 97.056 147.1 95.984 147.868 94.608V90.912C146.652 90.688 145.34 90.576 143.932 90.576ZM175.526 78.576L164.774 110.88H160.694L163.766 102H162.23L155.558 78.576H160.022L165.062 99.072L171.302 78.576H175.526ZM41.305 137.256V140.376H30.745V137.256H41.305ZM60.7113 121.56V153H56.6313V121.56H60.7113ZM88.9521 121.56L79.4961 153H74.1201L64.9521 121.56H69.2721L76.8081 149.064L84.6321 121.56H88.9521ZM41.305 188.256V191.376H30.745V188.256H41.305ZM73.1913 172.56V176.256H60.7113V186.192H72.2313V189.84H60.7113V200.304H73.1913V204H56.6313V172.56H73.1913ZM96.5841 180.576L89.3361 204H84.0081L76.8081 180.576H81.1281L86.6961 201.024L92.2641 180.576H96.5841ZM104.487 180.576V204H100.407V180.576H104.487ZM102.423 171.12C103.287 171.12 103.943 171.312 104.391 171.696C104.871 172.08 105.111 172.624 105.111 173.328V174.72C105.111 175.424 104.871 175.968 104.391 176.352C103.943 176.704 103.287 176.88 102.423 176.88C101.591 176.88 100.935 176.704 100.455 176.352C100.007 175.968 99.7829 175.424 99.7829 174.72V173.328C99.7829 172.624 100.007 172.08 100.455 171.696C100.935 171.312 101.591 171.12 102.423 171.12ZM115.268 171.216V204H111.188V171.216H115.268ZM135.394 180.576H141.634V183.936H135.394V197.664C135.394 198.88 135.634 199.76 136.114 200.304C136.626 200.816 137.41 201.072 138.466 201.072C139.81 201.072 141.122 200.912 142.402 200.592L142.498 204C141.09 204.384 139.81 204.576 138.658 204.576C136.098 204.576 134.226 204.016 133.042 202.896C131.89 201.744 131.314 199.888 131.314 197.328V183.936H127.954V180.576H131.314L132.082 174.336H135.394V180.576ZM175.037 180.576L169.613 204H164.477L159.725 184.128L154.925 204H149.789L144.413 180.576H148.733L152.525 200.4L157.085 180.576H162.365L166.877 200.4L170.717 180.576H175.037ZM183.424 180.576V204H179.344V180.576H183.424ZM181.36 171.12C182.224 171.12 182.88 171.312 183.328 171.696C183.808 172.08 184.048 172.624 184.048 173.328V174.72C184.048 175.424 183.808 175.968 183.328 176.352C182.88 176.704 182.224 176.88 181.36 176.88C180.528 176.88 179.872 176.704 179.392 176.352C178.944 175.968 178.72 175.424 178.72 174.72V173.328C178.72 172.624 178.944 172.08 179.392 171.696C179.872 171.312 180.528 171.12 181.36 171.12ZM200.35 180C202.398 180 203.966 180.704 205.054 182.112C206.174 183.488 206.734 185.456 206.734 188.016V204H202.654V188.592C202.654 185.392 201.614 183.792 199.534 183.792C198.606 183.792 197.662 184.144 196.702 184.848C195.742 185.552 194.91 186.512 194.206 187.728V204H190.126V180.576H193.966V184.08C194.83 182.768 195.79 181.76 196.846 181.056C197.934 180.352 199.102 180 200.35 180ZM41.305 239.256V242.376H30.745V239.256H41.305ZM64.9833 222.984C68.7593 222.984 71.5433 223.72 73.3353 225.192C75.1273 226.664 76.0233 228.728 76.0233 231.384V232.584C76.0233 234.44 75.5113 236.088 74.4873 237.528C73.4633 238.936 71.9913 239.928 70.0713 240.504L78.2313 255H73.6713L66.0393 241.368C65.7833 241.4 65.2713 241.416 64.5033 241.416C63.2233 241.416 61.9593 241.368 60.7113 241.272V255H56.6313V223.176C60.2153 223.048 62.9993 222.984 64.9833 222.984ZM64.8873 226.44C63.8313 226.44 62.4393 226.472 60.7113 226.536V237.864C62.4393 238.024 63.8793 238.104 65.0312 238.104C69.6393 238.104 71.9433 236.232 71.9433 232.488V231.528C71.9433 229.8 71.3833 228.52 70.2633 227.688C69.1433 226.856 67.3513 226.44 64.8873 226.44ZM89.578 231C92.426 231 94.538 231.768 95.914 233.304C97.322 234.808 98.026 236.952 98.026 239.736V246.84C98.026 249.624 97.322 251.784 95.914 253.32C94.538 254.824 92.426 255.576 89.578 255.576C86.73 255.576 84.602 254.824 83.194 253.32C81.818 251.784 81.13 249.624 81.13 246.84V239.736C81.13 236.952 81.818 234.808 83.194 233.304C84.602 231.768 86.73 231 89.578 231ZM89.578 234.408C88.202 234.408 87.13 234.84 86.362 235.704C85.594 236.568 85.21 237.8 85.21 239.4V247.176C85.21 248.776 85.594 250.008 86.362 250.872C87.13 251.736 88.202 252.168 89.578 252.168C90.954 252.168 92.026 251.736 92.794 250.872C93.562 250.008 93.946 248.776 93.946 247.176V239.352C93.946 237.752 93.562 236.536 92.794 235.704C92.026 234.84 90.954 234.408 89.578 234.408ZM111.931 231C113.339 231 114.619 231.208 115.771 231.624L123.259 231.528V235.128L119.323 235.032C119.867 236.184 120.139 237.384 120.139 238.632V239.688C120.139 242.024 119.419 243.912 117.979 245.352C116.539 246.76 114.523 247.464 111.931 247.464C110.267 247.464 108.907 247.304 107.851 246.984C107.147 247.56 106.795 248.216 106.795 248.952V249.24C106.795 249.752 106.955 250.136 107.275 250.392C107.595 250.616 108.219 250.76 109.147 250.824L116.299 251.352C117.771 251.48 118.955 252.04 119.851 253.032C120.779 253.992 121.243 255.208 121.243 256.68V258.456C121.243 259.832 120.971 260.952 120.427 261.816C119.883 262.68 118.875 263.336 117.403 263.784C115.963 264.232 113.883 264.456 111.163 264.456C110.139 264.456 108.923 264.344 107.515 264.12C106.139 263.896 104.827 263.608 103.579 263.256L103.723 259.464C106.699 260.456 109.227 260.952 111.307 260.952C113.035 260.952 114.315 260.84 115.147 260.616C116.011 260.424 116.571 260.12 116.827 259.704C117.115 259.288 117.259 258.664 117.259 257.832V257.448C117.259 256.712 117.051 256.136 116.635 255.72C116.251 255.304 115.691 255.08 114.955 255.048L107.755 254.568C106.219 254.472 105.051 254.04 104.251 253.272C103.451 252.504 103.051 251.464 103.051 250.152V249.192C103.051 248.488 103.227 247.8 103.579 247.128C103.963 246.456 104.507 245.864 105.211 245.352C104.667 244.744 104.267 243.976 104.011 243.048C103.787 242.088 103.675 240.92 103.675 239.544V238.488C103.675 236.216 104.379 234.408 105.787 233.064C107.195 231.688 109.243 231 111.931 231ZM111.931 234.408C110.587 234.408 109.547 234.76 108.811 235.464C108.107 236.136 107.755 237.112 107.755 238.392V239.976C107.755 241.16 107.851 242.04 108.043 242.616C108.267 243.16 108.651 243.544 109.195 243.768C109.739 243.96 110.555 244.056 111.643 244.056C113.115 244.056 114.219 243.704 114.955 243C115.691 242.296 116.059 241.288 116.059 239.976V238.536C116.059 237.192 115.867 236.024 115.483 235.032C115.099 234.872 114.571 234.728 113.899 234.6C113.259 234.472 112.603 234.408 111.931 234.408ZM143.399 255H139.559V251.64C138.695 252.92 137.735 253.896 136.679 254.568C135.623 255.24 134.503 255.576 133.319 255.576C131.367 255.576 129.831 254.904 128.711 253.56C127.623 252.184 127.079 250.184 127.079 247.56V231.576H131.159V246.84C131.159 248.536 131.415 249.784 131.927 250.584C132.471 251.384 133.207 251.784 134.135 251.784C134.999 251.784 135.895 251.448 136.823 250.776C137.783 250.072 138.615 249.112 139.319 247.896V231.576H143.399V255ZM157.821 231C160.509 231 162.557 231.736 163.965 233.208C165.373 234.68 166.077 236.808 166.077 239.592V244.536H153.741V247.368C153.741 249 154.125 250.184 154.893 250.92C155.693 251.624 156.941 251.976 158.637 251.976C160.301 251.976 162.381 251.72 164.877 251.208L164.973 254.76C161.997 255.304 159.869 255.576 158.589 255.576C155.421 255.576 153.133 254.888 151.725 253.512C150.349 252.136 149.661 250.008 149.661 247.128V239.592C149.661 236.808 150.333 234.68 151.677 233.208C153.053 231.736 155.101 231 157.821 231ZM157.821 234.408C156.573 234.408 155.581 234.808 154.845 235.608C154.109 236.376 153.741 237.496 153.741 238.968V241.272H161.997V239.112C161.997 237.576 161.613 236.408 160.845 235.608C160.109 234.808 159.101 234.408 157.821 234.408ZM192.139 223.56L201.787 255H197.371L195.307 247.704H183.739L181.675 255H177.499L187.099 223.56H192.139ZM189.547 227.304L184.747 244.056H194.299L189.547 227.304ZM214.326 222.984C218.102 222.984 220.902 223.752 222.726 225.288C224.582 226.792 225.51 228.952 225.51 231.768V232.92C225.51 235.928 224.614 238.248 222.822 239.88C221.03 241.512 218.326 242.328 214.71 242.328C213.27 242.328 211.734 242.2 210.102 241.944V255H206.022V223.224C208.742 223.064 211.51 222.984 214.326 222.984ZM214.23 226.44C212.822 226.44 211.446 226.472 210.102 226.536V238.44C212.022 238.696 213.494 238.824 214.518 238.824C219.126 238.824 221.43 236.792 221.43 232.728V231.912C221.43 230.088 220.854 228.728 219.702 227.832C218.55 226.904 216.726 226.44 214.23 226.44ZM41.305 290.256V293.376H30.745V290.256H41.305ZM63.2073 299.328C63.2073 301.792 62.6153 303.616 61.4313 304.8C60.2793 305.984 58.4233 306.576 55.8633 306.576C55.3513 306.576 54.7593 306.528 54.0873 306.432C53.4473 306.368 53.0152 306.304 52.7912 306.24V302.832C53.6873 302.992 54.7753 303.072 56.0553 303.072C57.0793 303.072 57.8473 302.816 58.3593 302.304C58.8713 301.76 59.1273 300.88 59.1273 299.664V274.56H63.2073V299.328ZM77.1839 282C79.9359 282 81.9359 282.624 83.1839 283.872C84.4639 285.088 85.1039 287.04 85.1039 289.728V306H81.2159V302.256C79.3599 305.136 77.2639 306.576 74.9279 306.576C73.0719 306.576 71.5839 305.936 70.4639 304.656C69.3759 303.376 68.8319 301.632 68.8319 299.424V298.08C68.8319 296.16 69.4879 294.576 70.7999 293.328C72.1119 292.048 73.8719 291.408 76.0799 291.408C77.2959 291.408 78.9439 291.616 81.0239 292.032V289.392C81.0239 288.016 80.7039 287.024 80.0639 286.416C79.4559 285.808 78.4959 285.504 77.1839 285.504C75.6479 285.504 73.4879 285.744 70.7039 286.224V282.72C73.7119 282.24 75.8719 282 77.1839 282ZM77.0879 294.576C75.7439 294.576 74.7199 294.928 74.0159 295.632C73.3119 296.336 72.9599 297.328 72.9599 298.608V299.136C72.9599 300.32 73.2319 301.248 73.7759 301.92C74.3199 302.592 75.0079 302.928 75.8399 302.928C76.7039 302.928 77.5839 302.56 78.4799 301.824C79.4079 301.056 80.2559 299.984 81.0239 298.608V294.912C79.8079 294.688 78.4959 294.576 77.0879 294.576ZM114.106 282C116.154 282 117.722 282.704 118.81 284.112C119.898 285.488 120.442 287.456 120.442 290.016V306H116.362V290.592C116.362 287.392 115.338 285.792 113.29 285.792C112.394 285.792 111.466 286.144 110.506 286.848C109.578 287.552 108.762 288.512 108.058 289.728V306H103.978V290.592C103.978 287.392 102.954 285.792 100.906 285.792C100.01 285.792 99.0824 286.144 98.1224 286.848C97.1944 287.552 96.3784 288.512 95.6744 289.728V306H91.5944V282.576H95.4344V286.08C96.2664 284.768 97.2264 283.76 98.3144 283.056C99.4024 282.352 100.538 282 101.722 282C103.194 282 104.426 282.384 105.418 283.152C106.41 283.888 107.13 284.976 107.578 286.416C108.442 284.976 109.434 283.888 110.554 283.152C111.674 282.384 112.858 282 114.106 282ZM149.685 282C151.733 282 153.301 282.704 154.389 284.112C155.477 285.488 156.021 287.456 156.021 290.016V306H151.941V290.592C151.941 287.392 150.917 285.792 148.869 285.792C147.973 285.792 147.045 286.144 146.085 286.848C145.157 287.552 144.341 288.512 143.637 289.728V306H139.557V290.592C139.557 287.392 138.533 285.792 136.484 285.792C135.589 285.792 134.661 286.144 133.701 286.848C132.773 287.552 131.957 288.512 131.253 289.728V306H127.173V282.576H131.013V286.08C131.845 284.768 132.805 283.76 133.893 283.056C134.981 282.352 136.117 282 137.301 282C138.773 282 140.005 282.384 140.997 283.152C141.989 283.888 142.709 284.976 143.157 286.416C144.021 284.976 145.013 283.888 146.133 283.152C147.253 282.384 148.437 282 149.685 282ZM166.831 282.576V306H162.751V282.576H166.831ZM164.767 273.12C165.631 273.12 166.287 273.312 166.735 273.696C167.215 274.08 167.455 274.624 167.455 275.328V276.72C167.455 277.424 167.215 277.968 166.735 278.352C166.287 278.704 165.631 278.88 164.767 278.88C163.935 278.88 163.279 278.704 162.799 278.352C162.351 277.968 162.127 277.424 162.127 276.72V275.328C162.127 274.624 162.351 274.08 162.799 273.696C163.279 273.312 163.935 273.12 164.767 273.12ZM183.756 282C185.804 282 187.372 282.704 188.46 284.112C189.58 285.488 190.14 287.456 190.14 290.016V306H186.06V290.592C186.06 287.392 185.02 285.792 182.94 285.792C182.012 285.792 181.068 286.144 180.108 286.848C179.148 287.552 178.316 288.512 177.612 289.728V306H173.532V282.576H177.372V286.08C178.236 284.768 179.196 283.76 180.252 283.056C181.34 282.352 182.508 282 183.756 282ZM204.556 282C205.964 282 207.244 282.208 208.396 282.624L215.884 282.528V286.128L211.948 286.032C212.492 287.184 212.764 288.384 212.764 289.632V290.688C212.764 293.024 212.044 294.912 210.604 296.352C209.164 297.76 207.148 298.464 204.556 298.464C202.892 298.464 201.532 298.304 200.476 297.984C199.772 298.56 199.42 299.216 199.42 299.952V300.24C199.42 300.752 199.58 301.136 199.9 301.392C200.22 301.616 200.844 301.76 201.772 301.824L208.924 302.352C210.396 302.48 211.58 303.04 212.476 304.032C213.404 304.992 213.868 306.208 213.868 307.68V309.456C213.868 310.832 213.596 311.952 213.052 312.816C212.508 313.68 211.5 314.336 210.028 314.784C208.588 315.232 206.508 315.456 203.788 315.456C202.764 315.456 201.548 315.344 200.14 315.12C198.764 314.896 197.452 314.608 196.204 314.256L196.348 310.464C199.324 311.456 201.852 311.952 203.932 311.952C205.66 311.952 206.94 311.84 207.772 311.616C208.636 311.424 209.196 311.12 209.452 310.704C209.74 310.288 209.884 309.664 209.884 308.832V308.448C209.884 307.712 209.676 307.136 209.26 306.72C208.876 306.304 208.316 306.08 207.58 306.048L200.38 305.568C198.844 305.472 197.676 305.04 196.876 304.272C196.076 303.504 195.676 302.464 195.676 301.152V300.192C195.676 299.488 195.852 298.8 196.204 298.128C196.588 297.456 197.132 296.864 197.836 296.352C197.292 295.744 196.892 294.976 196.636 294.048C196.412 293.088 196.3 291.92 196.3 290.544V289.488C196.3 287.216 197.004 285.408 198.412 284.064C199.82 282.688 201.868 282 204.556 282ZM204.556 285.408C203.212 285.408 202.172 285.76 201.436 286.464C200.732 287.136 200.38 288.112 200.38 289.392V290.976C200.38 292.16 200.476 293.04 200.668 293.616C200.892 294.16 201.276 294.544 201.82 294.768C202.364 294.96 203.18 295.056 204.268 295.056C205.74 295.056 206.844 294.704 207.58 294C208.316 293.296 208.684 292.288 208.684 290.976V289.536C208.684 288.192 208.492 287.024 208.108 286.032C207.724 285.872 207.196 285.728 206.524 285.6C205.884 285.472 205.228 285.408 204.556 285.408ZM41.305 341.256V344.376H30.745V341.256H41.305ZM92.5353 325.56L85.2873 357H79.8153L73.3833 330.216L66.9993 357H61.5273L54.2313 325.56H58.5513L64.4073 352.536L70.5993 325.56H76.1673L82.4073 352.536L88.2153 325.56H92.5353ZM105.623 324.984C109.399 324.984 112.199 325.752 114.023 327.288C115.879 328.792 116.807 330.952 116.807 333.768V334.92C116.807 337.928 115.911 340.248 114.119 341.88C112.327 343.512 109.623 344.328 106.007 344.328C104.567 344.328 103.031 344.2 101.399 343.944V357H97.3188V325.224C100.039 325.064 102.807 324.984 105.623 324.984ZM105.527 328.44C104.119 328.44 102.743 328.472 101.399 328.536V340.44C103.319 340.696 104.791 340.824 105.815 340.824C110.423 340.824 112.727 338.792 112.727 334.728V333.912C112.727 332.088 112.151 330.728 110.999 329.832C109.847 328.904 108.023 328.44 105.527 328.44ZM129.847 324.984C131.575 324.984 133.831 325.24 136.615 325.752L136.519 329.352C133.895 328.84 131.671 328.584 129.847 328.584C127.991 328.584 126.647 328.952 125.815 329.688C125.015 330.424 124.615 331.544 124.615 333.048V334.296C124.615 335.096 124.711 335.736 124.903 336.216C125.127 336.664 125.511 337.064 126.055 337.416C126.599 337.736 127.415 338.072 128.503 338.424L132.967 339.912C135.111 340.648 136.615 341.624 137.479 342.84C138.375 344.056 138.823 345.832 138.823 348.168V349.08C138.823 351.928 137.991 354.056 136.327 355.464C134.695 356.872 132.007 357.576 128.263 357.576C126.439 357.576 124.103 357.256 121.255 356.616L121.351 352.92C124.007 353.56 126.279 353.88 128.167 353.88C130.567 353.88 132.263 353.528 133.255 352.824C134.247 352.088 134.743 350.952 134.743 349.416V347.832C134.743 346.712 134.487 345.864 133.975 345.288C133.495 344.68 132.631 344.168 131.383 343.752L126.439 342.12C124.231 341.384 122.695 340.44 121.831 339.288C120.967 338.104 120.535 336.328 120.535 333.96V333.432C120.535 330.648 121.271 328.552 122.743 327.144C124.247 325.704 126.615 324.984 129.847 324.984ZM41.305 392.256V395.376H30.745V392.256H41.305ZM65.0793 375.984C68.4393 375.984 70.9993 376.672 72.7593 378.048C74.5193 379.424 75.3993 381.296 75.3993 383.664V384.72C75.3993 388.08 73.9273 390.4 70.9833 391.68C72.7753 392.064 74.1673 392.896 75.1593 394.176C76.1833 395.424 76.6953 396.976 76.6953 398.832V399.888C76.6953 402.544 75.7513 404.656 73.8633 406.224C72.0073 407.792 69.1913 408.576 65.4153 408.576C63.2713 408.576 60.3433 408.48 56.6313 408.288V376.176C59.5753 376.048 62.3913 375.984 65.0793 375.984ZM64.4553 379.488C63.3033 379.488 62.0553 379.536 60.7113 379.632V390.384H65.4153C67.3353 390.384 68.7913 389.92 69.7833 388.992C70.8073 388.064 71.3193 386.768 71.3193 385.104V384.288C71.3193 382.688 70.7753 381.488 69.6873 380.688C68.5993 379.888 66.8553 379.488 64.4553 379.488ZM60.7113 393.696V404.736C61.7673 404.832 62.6313 404.912 63.3033 404.976C64.0073 405.008 64.7113 405.024 65.4153 405.024C67.8793 405.024 69.6873 404.56 70.8393 403.632C72.0233 402.672 72.6153 401.344 72.6153 399.648V398.64C72.6153 395.344 70.3113 393.696 65.7032 393.696H60.7113ZM85.8306 375.216V408H81.7506V375.216H85.8306ZM108.852 408H105.012V404.64C104.148 405.92 103.188 406.896 102.132 407.568C101.076 408.24 99.9559 408.576 98.7719 408.576C96.8199 408.576 95.2839 407.904 94.1639 406.56C93.0759 405.184 92.5319 403.184 92.5319 400.56V384.576H96.6119V399.84C96.6119 401.536 96.8679 402.784 97.3799 403.584C97.9239 404.384 98.6599 404.784 99.5879 404.784C100.452 404.784 101.348 404.448 102.276 403.776C103.236 403.072 104.068 402.112 104.772 400.896V384.576H108.852V408ZM123.274 384C125.962 384 128.01 384.736 129.418 386.208C130.826 387.68 131.53 389.808 131.53 392.592V397.536H119.194V400.368C119.194 402 119.578 403.184 120.346 403.92C121.146 404.624 122.394 404.976 124.09 404.976C125.754 404.976 127.834 404.72 130.33 404.208L130.426 407.76C127.45 408.304 125.322 408.576 124.042 408.576C120.874 408.576 118.586 407.888 117.178 406.512C115.802 405.136 115.114 403.008 115.114 400.128V392.592C115.114 389.808 115.786 387.68 117.13 386.208C118.506 384.736 120.554 384 123.274 384ZM123.274 387.408C122.026 387.408 121.034 387.808 120.298 388.608C119.562 389.376 119.194 390.496 119.194 391.968V394.272H127.45V392.112C127.45 390.576 127.066 389.408 126.298 388.608C125.562 387.808 124.554 387.408 123.274 387.408ZM139.079 375.12C139.943 375.12 140.599 375.312 141.047 375.696C141.527 376.08 141.767 376.624 141.767 377.328V378.72C141.767 379.424 141.527 379.968 141.047 380.352C140.599 380.704 139.943 380.88 139.079 380.88C138.247 380.88 137.591 380.704 137.111 380.352C136.663 379.968 136.439 379.424 136.439 378.72V377.328C136.439 376.624 136.663 376.08 137.111 375.696C137.591 375.312 138.247 375.12 139.079 375.12ZM141.143 410.208C141.143 412.64 140.551 414.448 139.367 415.632C138.215 416.848 136.359 417.456 133.799 417.456C133.319 417.456 132.807 417.424 132.263 417.36C131.687 417.296 131.239 417.232 130.919 417.168V413.76C132.327 413.888 133.351 413.952 133.991 413.952C135.047 413.952 135.815 413.68 136.295 413.136C136.807 412.592 137.063 411.728 137.063 410.544V384.576H141.143V410.208ZM154.996 384C157.748 384 159.748 384.624 160.996 385.872C162.276 387.088 162.916 389.04 162.916 391.728V408H159.028V404.256C157.172 407.136 155.076 408.576 152.74 408.576C150.884 408.576 149.396 407.936 148.276 406.656C147.188 405.376 146.644 403.632 146.644 401.424V400.08C146.644 398.16 147.3 396.576 148.612 395.328C149.924 394.048 151.684 393.408 153.892 393.408C155.108 393.408 156.756 393.616 158.836 394.032V391.392C158.836 390.016 158.516 389.024 157.876 388.416C157.268 387.808 156.308 387.504 154.996 387.504C153.46 387.504 151.3 387.744 148.516 388.224V384.72C151.524 384.24 153.684 384 154.996 384ZM154.9 396.576C153.556 396.576 152.532 396.928 151.828 397.632C151.124 398.336 150.772 399.328 150.772 400.608V401.136C150.772 402.32 151.044 403.248 151.588 403.92C152.132 404.592 152.82 404.928 153.652 404.928C154.516 404.928 155.396 404.56 156.292 403.824C157.22 403.056 158.068 401.984 158.836 400.608V396.912C157.62 396.688 156.308 396.576 154.9 396.576ZM177.615 384C179.055 384 180.687 384.208 182.511 384.624L182.415 388.224C180.559 387.808 178.959 387.6 177.615 387.6C176.111 387.6 174.959 388.016 174.159 388.848C173.391 389.68 173.007 390.864 173.007 392.4V400.128C173.007 401.728 173.407 402.944 174.207 403.776C175.039 404.576 176.175 404.976 177.615 404.976C178.511 404.976 179.295 404.928 179.967 404.832C180.639 404.736 181.455 404.576 182.415 404.352L182.511 407.952C180.559 408.368 178.911 408.576 177.567 408.576C171.807 408.576 168.927 405.664 168.927 399.84V392.736C168.927 386.912 171.823 384 177.615 384ZM192.19 375.216V394.848L199.87 384.576H204.43L196.462 394.848L205.006 408H200.11L192.19 395.424V408H188.11V375.216H192.19ZM212.674 384.576V408H208.594V384.576H212.674ZM210.61 375.12C211.474 375.12 212.13 375.312 212.578 375.696C213.058 376.08 213.298 376.624 213.298 377.328V378.72C213.298 379.424 213.058 379.968 212.578 380.352C212.13 380.704 211.474 380.88 210.61 380.88C209.778 380.88 209.122 380.704 208.642 380.352C208.194 379.968 207.97 379.424 207.97 378.72V377.328C207.97 376.624 208.194 376.08 208.642 375.696C209.122 375.312 209.778 375.12 210.61 375.12ZM229.6 384C231.648 384 233.216 384.704 234.304 386.112C235.424 387.488 235.984 389.456 235.984 392.016V408H231.904V392.592C231.904 389.392 230.864 387.792 228.784 387.792C227.856 387.792 226.912 388.144 225.952 388.848C224.992 389.552 224.16 390.512 223.456 391.728V408H219.376V384.576H223.216V388.08C224.08 386.768 225.04 385.76 226.096 385.056C227.184 384.352 228.352 384 229.6 384ZM250.399 384C251.807 384 253.087 384.208 254.239 384.624L261.727 384.528V388.128L257.791 388.032C258.335 389.184 258.607 390.384 258.607 391.632V392.688C258.607 395.024 257.887 396.912 256.447 398.352C255.007 399.76 252.991 400.464 250.399 400.464C248.735 400.464 247.375 400.304 246.319 399.984C245.615 400.56 245.263 401.216 245.263 401.952V402.24C245.263 402.752 245.423 403.136 245.743 403.392C246.063 403.616 246.687 403.76 247.615 403.824L254.767 404.352C256.239 404.48 257.423 405.04 258.319 406.032C259.247 406.992 259.711 408.208 259.711 409.68V411.456C259.711 412.832 259.439 413.952 258.895 414.816C258.351 415.68 257.343 416.336 255.871 416.784C254.431 417.232 252.351 417.456 249.631 417.456C248.607 417.456 247.391 417.344 245.983 417.12C244.607 416.896 243.295 416.608 242.047 416.256L242.191 412.464C245.167 413.456 247.695 413.952 249.775 413.952C251.503 413.952 252.783 413.84 253.615 413.616C254.479 413.424 255.039 413.12 255.295 412.704C255.583 412.288 255.727 411.664 255.727 410.832V410.448C255.727 409.712 255.519 409.136 255.103 408.72C254.719 408.304 254.159 408.08 253.423 408.048L246.223 407.568C244.687 407.472 243.519 407.04 242.719 406.272C241.919 405.504 241.519 404.464 241.519 403.152V402.192C241.519 401.488 241.695 400.8 242.047 400.128C242.431 399.456 242.975 398.864 243.679 398.352C243.135 397.744 242.735 396.976 242.479 396.048C242.255 395.088 242.143 393.92 242.143 392.544V391.488C242.143 389.216 242.847 387.408 244.255 386.064C245.663 384.688 247.711 384 250.399 384ZM250.399 387.408C249.055 387.408 248.015 387.76 247.279 388.464C246.575 389.136 246.223 390.112 246.223 391.392V392.976C246.223 394.16 246.319 395.04 246.511 395.616C246.735 396.16 247.119 396.544 247.663 396.768C248.207 396.96 249.023 397.056 250.111 397.056C251.583 397.056 252.687 396.704 253.423 396C254.159 395.296 254.527 394.288 254.527 392.976V391.536C254.527 390.192 254.335 389.024 253.951 388.032C253.567 387.872 253.039 387.728 252.367 387.6C251.727 387.472 251.071 387.408 250.399 387.408ZM41.305 443.256V446.376H30.745V443.256H41.305ZM65.0793 426.984C68.4393 426.984 70.9993 427.672 72.7593 429.048C74.5193 430.424 75.3993 432.296 75.3993 434.664V435.72C75.3993 439.08 73.9273 441.4 70.9833 442.68C72.7753 443.064 74.1673 443.896 75.1593 445.176C76.1833 446.424 76.6953 447.976 76.6953 449.832V450.888C76.6953 453.544 75.7513 455.656 73.8633 457.224C72.0073 458.792 69.1913 459.576 65.4153 459.576C63.2713 459.576 60.3433 459.48 56.6313 459.288V427.176C59.5753 427.048 62.3913 426.984 65.0793 426.984ZM64.4553 430.488C63.3033 430.488 62.0553 430.536 60.7113 430.632V441.384H65.4153C67.3353 441.384 68.7913 440.92 69.7833 439.992C70.8073 439.064 71.3193 437.768 71.3193 436.104V435.288C71.3193 433.688 70.7753 432.488 69.6873 431.688C68.5993 430.888 66.8553 430.488 64.4553 430.488ZM60.7113 444.696V455.736C61.7673 455.832 62.6313 455.912 63.3033 455.976C64.0073 456.008 64.7113 456.024 65.4153 456.024C67.8793 456.024 69.6873 455.56 70.8393 454.632C72.0233 453.672 72.6153 452.344 72.6153 450.648V449.64C72.6153 446.344 70.3113 444.696 65.7032 444.696H60.7113ZM85.8306 426.216V459H81.7506V426.216H85.8306ZM108.852 459H105.012V455.64C104.148 456.92 103.188 457.896 102.132 458.568C101.076 459.24 99.9559 459.576 98.7719 459.576C96.8199 459.576 95.2839 458.904 94.1639 457.56C93.0759 456.184 92.5319 454.184 92.5319 451.56V435.576H96.6119V450.84C96.6119 452.536 96.8679 453.784 97.3799 454.584C97.9239 455.384 98.6599 455.784 99.5879 455.784C100.452 455.784 101.348 455.448 102.276 454.776C103.236 454.072 104.068 453.112 104.772 451.896V435.576H108.852V459ZM123.274 435C125.962 435 128.01 435.736 129.418 437.208C130.826 438.68 131.53 440.808 131.53 443.592V448.536H119.194V451.368C119.194 453 119.578 454.184 120.346 454.92C121.146 455.624 122.394 455.976 124.09 455.976C125.754 455.976 127.834 455.72 130.33 455.208L130.426 458.76C127.45 459.304 125.322 459.576 124.042 459.576C120.874 459.576 118.586 458.888 117.178 457.512C115.802 456.136 115.114 454.008 115.114 451.128V443.592C115.114 440.808 115.786 438.68 117.13 437.208C118.506 435.736 120.554 435 123.274 435ZM123.274 438.408C122.026 438.408 121.034 438.808 120.298 439.608C119.562 440.376 119.194 441.496 119.194 442.968V445.272H127.45V443.112C127.45 441.576 127.066 440.408 126.298 439.608C125.562 438.808 124.554 438.408 123.274 438.408ZM143.783 435C145.127 435 146.743 435.192 148.631 435.576L148.535 439.032C146.871 438.648 145.351 438.456 143.975 438.456C141.095 438.456 139.655 439.384 139.655 441.24V441.672C139.655 442.248 139.799 442.712 140.087 443.064C140.407 443.416 140.967 443.784 141.767 444.168L146.279 446.28C148.999 447.56 150.359 449.432 150.359 451.896V452.952C150.327 455.16 149.655 456.824 148.343 457.944C147.063 459.032 145.031 459.576 142.247 459.576C140.807 459.576 138.743 459.24 136.055 458.568L136.247 454.92C138.647 455.624 140.615 455.976 142.151 455.976C143.719 455.976 144.807 455.768 145.415 455.352C146.023 454.904 146.327 454.184 146.327 453.192V452.712C146.327 451.944 146.167 451.336 145.847 450.888C145.559 450.44 145.063 450.056 144.359 449.736L139.703 447.672C138.295 447.032 137.255 446.264 136.583 445.368C135.943 444.472 135.623 443.432 135.623 442.248V441.576C135.687 439.4 136.359 437.768 137.639 436.68C138.951 435.56 140.999 435 143.783 435ZM165.615 435C167.663 435 169.231 435.704 170.319 437.112C171.439 438.488 171.999 440.456 171.999 443.016V459H167.919V443.592C167.919 440.392 166.879 438.792 164.799 438.792C163.871 438.792 162.927 439.144 161.967 439.848C161.007 440.552 160.175 441.512 159.471 442.728V459H155.391V435.576H159.231V439.08C160.095 437.768 161.055 436.76 162.111 436.056C163.199 435.352 164.367 435 165.615 435ZM185.887 435C188.639 435 190.639 435.624 191.887 436.872C193.167 438.088 193.807 440.04 193.807 442.728V459H189.919V455.256C188.063 458.136 185.967 459.576 183.631 459.576C181.775 459.576 180.287 458.936 179.167 457.656C178.079 456.376 177.535 454.632 177.535 452.424V451.08C177.535 449.16 178.191 447.576 179.503 446.328C180.815 445.048 182.575 444.408 184.783 444.408C185.999 444.408 187.647 444.616 189.727 445.032V442.392C189.727 441.016 189.407 440.024 188.767 439.416C188.159 438.808 187.199 438.504 185.887 438.504C184.351 438.504 182.191 438.744 179.407 439.224V435.72C182.415 435.24 184.575 435 185.887 435ZM185.791 447.576C184.447 447.576 183.423 447.928 182.719 448.632C182.015 449.336 181.663 450.328 181.663 451.608V452.136C181.663 453.32 181.935 454.248 182.479 454.92C183.023 455.592 183.711 455.928 184.543 455.928C185.407 455.928 186.287 455.56 187.183 454.824C188.111 454.056 188.959 452.984 189.727 451.608V447.912C188.511 447.688 187.199 447.576 185.791 447.576ZM210.522 435C210.97 435 211.322 435.032 211.578 435.096V439.704C211.098 439.608 210.474 439.56 209.706 439.56C207.466 439.56 205.69 440.68 204.378 442.92V459H200.298V435.576H204.138V439.08C205.002 437.768 205.962 436.76 207.018 436.056C208.106 435.352 209.274 435 210.522 435ZM226.246 425.64C227.59 425.64 229.142 425.816 230.902 426.168V429.72C229.174 429.24 227.606 429 226.198 429C224.982 429 224.086 429.304 223.51 429.912C222.934 430.488 222.646 431.4 222.646 432.648V435.576H234.598V459H230.518V438.936H222.646V459H218.566V438.936H215.206V435.576H218.566V433.368C218.598 430.712 219.206 428.76 220.39 427.512C221.606 426.264 223.558 425.64 226.246 425.64ZM251.537 435C253.585 435 255.153 435.704 256.241 437.112C257.361 438.488 257.921 440.456 257.921 443.016V459H253.841V443.592C253.841 440.392 252.801 438.792 250.721 438.792C249.793 438.792 248.849 439.144 247.889 439.848C246.929 440.552 246.097 441.512 245.393 442.728V459H241.313V435.576H245.153V439.08C246.017 437.768 246.977 436.76 248.033 436.056C249.121 435.352 250.289 435 251.537 435ZM272.337 435C273.745 435 275.025 435.208 276.177 435.624L283.665 435.528V439.128L279.729 439.032C280.273 440.184 280.545 441.384 280.545 442.632V443.688C280.545 446.024 279.825 447.912 278.385 449.352C276.945 450.76 274.929 451.464 272.337 451.464C270.673 451.464 269.313 451.304 268.257 450.984C267.553 451.56 267.201 452.216 267.201 452.952V453.24C267.201 453.752 267.361 454.136 267.681 454.392C268.001 454.616 268.625 454.76 269.553 454.824L276.705 455.352C278.177 455.48 279.361 456.04 280.257 457.032C281.185 457.992 281.649 459.208 281.649 460.68V462.456C281.649 463.832 281.377 464.952 280.833 465.816C280.289 466.68 279.281 467.336 277.809 467.784C276.369 468.232 274.289 468.456 271.569 468.456C270.545 468.456 269.329 468.344 267.921 468.12C266.545 467.896 265.233 467.608 263.985 467.256L264.129 463.464C267.105 464.456 269.633 464.952 271.713 464.952C273.441 464.952 274.721 464.84 275.553 464.616C276.417 464.424 276.977 464.12 277.233 463.704C277.521 463.288 277.665 462.664 277.665 461.832V461.448C277.665 460.712 277.457 460.136 277.041 459.72C276.657 459.304 276.097 459.08 275.361 459.048L268.161 458.568C266.625 458.472 265.457 458.04 264.657 457.272C263.857 456.504 263.457 455.464 263.457 454.152V453.192C263.457 452.488 263.633 451.8 263.985 451.128C264.369 450.456 264.913 449.864 265.617 449.352C265.073 448.744 264.673 447.976 264.417 447.048C264.193 446.088 264.081 444.92 264.081 443.544V442.488C264.081 440.216 264.785 438.408 266.193 437.064C267.601 435.688 269.649 435 272.337 435ZM272.337 438.408C270.993 438.408 269.953 438.76 269.217 439.464C268.513 440.136 268.161 441.112 268.161 442.392V443.976C268.161 445.16 268.257 446.04 268.449 446.616C268.673 447.16 269.057 447.544 269.601 447.768C270.145 447.96 270.961 448.056 272.049 448.056C273.521 448.056 274.625 447.704 275.361 447C276.097 446.296 276.465 445.288 276.465 443.976V442.536C276.465 441.192 276.273 440.024 275.889 439.032C275.505 438.872 274.977 438.728 274.305 438.6C273.665 438.472 273.009 438.408 272.337 438.408ZM41.305 494.256V497.376H30.745V494.256H41.305ZM64.9833 477.984C68.7593 477.984 71.5433 478.72 73.3353 480.192C75.1273 481.664 76.0233 483.728 76.0233 486.384V487.584C76.0233 489.44 75.5113 491.088 74.4873 492.528C73.4633 493.936 71.9913 494.928 70.0713 495.504L78.2313 510H73.6713L66.0393 496.368C65.7833 496.4 65.2713 496.416 64.5033 496.416C63.2233 496.416 61.9593 496.368 60.7113 496.272V510H56.6313V478.176C60.2153 478.048 62.9993 477.984 64.9833 477.984ZM64.8873 481.44C63.8313 481.44 62.4393 481.472 60.7113 481.536V492.864C62.4393 493.024 63.8793 493.104 65.0312 493.104C69.6393 493.104 71.9433 491.232 71.9433 487.488V486.528C71.9433 484.8 71.3833 483.52 70.2633 482.688C69.1433 481.856 67.3513 481.44 64.8873 481.44ZM99.1131 478.56V482.256H86.6331V492.192H96.0411V495.84H86.6331V510H82.5531V478.56H99.1131ZM108.711 478.56V510H104.631V478.56H108.711ZM124.712 477.984C128.52 477.984 131.448 479.072 133.496 481.248C135.576 483.392 136.616 486.496 136.616 490.56V498.432C136.616 502.336 135.576 505.344 133.496 507.456C131.448 509.536 128.44 510.576 124.472 510.576C121.752 510.576 118.904 510.48 115.928 510.288V478.176C118.808 478.048 121.736 477.984 124.712 477.984ZM124.472 481.44C123.48 481.44 121.992 481.472 120.008 481.536V506.784C121.896 506.976 123.384 507.072 124.472 507.072C126.936 507.072 128.888 506.368 130.328 504.96C131.8 503.52 132.536 501.456 132.536 498.768V490.272C132.536 487.36 131.832 485.168 130.424 483.696C129.016 482.192 127.032 481.44 124.472 481.44ZM41.305 545.256V548.376H30.745V545.256H41.305ZM71.0313 561L60.6633 534.456V561H56.6313V529.56H63.1593L73.3353 556.104V529.56H77.3673V561H71.0313ZM101.129 529.56V533.256H88.6488V543.192H98.0568V546.84H88.6488V561H84.5688V529.56H101.129ZM115.178 528.984C116.426 528.984 117.77 529.112 119.21 529.368C120.682 529.592 121.546 529.72 121.802 529.752L121.706 533.352C118.89 532.84 116.714 532.584 115.178 532.584C113.002 532.584 111.434 533.032 110.474 533.928C109.514 534.824 109.034 536.312 109.034 538.392V552.12C109.034 554.2 109.498 555.688 110.426 556.584C111.386 557.448 112.97 557.88 115.178 557.88C116.714 557.88 118.89 557.624 121.706 557.112L121.802 560.808C121.546 560.84 120.682 560.968 119.21 561.192C117.77 561.448 116.426 561.576 115.178 561.576C111.498 561.576 108.874 560.792 107.306 559.224C105.738 557.656 104.954 555.208 104.954 551.88V538.68C104.954 535.352 105.738 532.904 107.306 531.336C108.874 529.768 111.498 528.984 115.178 528.984ZM41.305 596.256V599.376H30.745V596.256H41.305ZM65.4153 579.984C69.2233 579.984 72.1513 581.072 74.1993 583.248C76.2793 585.392 77.3193 588.496 77.3193 592.56V600.432C77.3193 604.336 76.2793 607.344 74.1993 609.456C72.1513 611.536 69.1433 612.576 65.1753 612.576C62.4553 612.576 59.6073 612.48 56.6313 612.288V580.176C59.5113 580.048 62.4393 579.984 65.4153 579.984ZM65.1753 583.44C64.1833 583.44 62.6953 583.472 60.7113 583.536V608.784C62.5993 608.976 64.0873 609.072 65.1753 609.072C67.6393 609.072 69.5913 608.368 71.0313 606.96C72.5033 605.52 73.2393 603.456 73.2393 600.768V592.272C73.2393 589.36 72.5353 587.168 71.1273 585.696C69.7193 584.192 67.7353 583.44 65.1753 583.44ZM87.8931 588.576V612H83.8131V588.576H87.8931ZM85.8291 579.12C86.6931 579.12 87.3491 579.312 87.7971 579.696C88.2771 580.08 88.5171 580.624 88.5171 581.328V582.72C88.5171 583.424 88.2771 583.968 87.7971 584.352C87.3491 584.704 86.6931 584.88 85.8291 584.88C84.9971 584.88 84.3411 584.704 83.8611 584.352C83.4131 583.968 83.1891 583.424 83.1891 582.72V581.328C83.1891 580.624 83.4131 580.08 83.8611 579.696C84.3411 579.312 84.9971 579.12 85.8291 579.12ZM101.314 588C102.658 588 104.274 588.192 106.162 588.576L106.066 592.032C104.402 591.648 102.882 591.456 101.506 591.456C98.6264 591.456 97.1864 592.384 97.1864 594.24V594.672C97.1864 595.248 97.3304 595.712 97.6184 596.064C97.9384 596.416 98.4984 596.784 99.2984 597.168L103.81 599.28C106.53 600.56 107.89 602.432 107.89 604.896V605.952C107.858 608.16 107.186 609.824 105.874 610.944C104.594 612.032 102.562 612.576 99.7784 612.576C98.3384 612.576 96.2744 612.24 93.5864 611.568L93.7784 607.92C96.1784 608.624 98.1464 608.976 99.6824 608.976C101.25 608.976 102.338 608.768 102.946 608.352C103.554 607.904 103.858 607.184 103.858 606.192V605.712C103.858 604.944 103.698 604.336 103.378 603.888C103.09 603.44 102.594 603.056 101.89 602.736L97.2344 600.672C95.8264 600.032 94.7864 599.264 94.1144 598.368C93.4744 597.472 93.1544 596.432 93.1544 595.248V594.576C93.2184 592.4 93.8904 590.768 95.1704 589.68C96.4824 588.56 98.5304 588 101.314 588ZM119.84 588C122.592 588 124.592 588.624 125.84 589.872C127.12 591.088 127.76 593.04 127.76 595.728V612H123.872V608.256C122.016 611.136 119.92 612.576 117.584 612.576C115.728 612.576 114.24 611.936 113.12 610.656C112.032 609.376 111.488 607.632 111.488 605.424V604.08C111.488 602.16 112.144 600.576 113.456 599.328C114.768 598.048 116.528 597.408 118.736 597.408C119.952 597.408 121.6 597.616 123.68 598.032V595.392C123.68 594.016 123.36 593.024 122.72 592.416C122.112 591.808 121.152 591.504 119.84 591.504C118.304 591.504 116.144 591.744 113.36 592.224V588.72C116.368 588.24 118.528 588 119.84 588ZM119.744 600.576C118.4 600.576 117.376 600.928 116.672 601.632C115.968 602.336 115.616 603.328 115.616 604.608V605.136C115.616 606.32 115.888 607.248 116.432 607.92C116.976 608.592 117.664 608.928 118.496 608.928C119.36 608.928 120.24 608.56 121.136 607.824C122.064 607.056 122.912 605.984 123.68 604.608V600.912C122.464 600.688 121.152 600.576 119.744 600.576ZM140.971 588C142.315 588 143.931 588.192 145.819 588.576L145.723 592.032C144.059 591.648 142.539 591.456 141.163 591.456C138.283 591.456 136.843 592.384 136.843 594.24V594.672C136.843 595.248 136.987 595.712 137.275 596.064C137.595 596.416 138.155 596.784 138.955 597.168L143.467 599.28C146.187 600.56 147.547 602.432 147.547 604.896V605.952C147.515 608.16 146.843 609.824 145.531 610.944C144.251 612.032 142.219 612.576 139.435 612.576C137.995 612.576 135.931 612.24 133.243 611.568L133.435 607.92C135.835 608.624 137.803 608.976 139.339 608.976C140.907 608.976 141.995 608.768 142.603 608.352C143.211 607.904 143.515 607.184 143.515 606.192V605.712C143.515 604.944 143.355 604.336 143.035 603.888C142.747 603.44 142.251 603.056 141.547 602.736L136.891 600.672C135.483 600.032 134.443 599.264 133.771 598.368C133.131 597.472 132.811 596.432 132.811 595.248V594.576C132.875 592.4 133.547 590.768 134.827 589.68C136.139 588.56 138.187 588 140.971 588ZM158.971 588C160.315 588 161.931 588.192 163.819 588.576L163.723 592.032C162.059 591.648 160.539 591.456 159.163 591.456C156.283 591.456 154.843 592.384 154.843 594.24V594.672C154.843 595.248 154.987 595.712 155.275 596.064C155.595 596.416 156.155 596.784 156.955 597.168L161.467 599.28C164.187 600.56 165.547 602.432 165.547 604.896V605.952C165.515 608.16 164.843 609.824 163.531 610.944C162.251 612.032 160.219 612.576 157.435 612.576C155.995 612.576 153.931 612.24 151.243 611.568L151.435 607.92C153.835 608.624 155.803 608.976 157.339 608.976C158.907 608.976 159.995 608.768 160.603 608.352C161.211 607.904 161.515 607.184 161.515 606.192V605.712C161.515 604.944 161.355 604.336 161.035 603.888C160.747 603.44 160.251 603.056 159.547 602.736L154.891 600.672C153.483 600.032 152.443 599.264 151.771 598.368C151.131 597.472 150.811 596.432 150.811 595.248V594.576C150.875 592.4 151.547 590.768 152.827 589.68C154.139 588.56 156.187 588 158.971 588ZM178.547 588C181.395 588 183.507 588.768 184.883 590.304C186.291 591.808 186.995 593.952 186.995 596.736V603.84C186.995 606.624 186.291 608.784 184.883 610.32C183.507 611.824 181.395 612.576 178.547 612.576C175.699 612.576 173.571 611.824 172.163 610.32C170.787 608.784 170.099 606.624 170.099 603.84V596.736C170.099 593.952 170.787 591.808 172.163 590.304C173.571 588.768 175.699 588 178.547 588ZM178.547 591.408C177.171 591.408 176.099 591.84 175.331 592.704C174.563 593.568 174.179 594.8 174.179 596.4V604.176C174.179 605.776 174.563 607.008 175.331 607.872C176.099 608.736 177.171 609.168 178.547 609.168C179.923 609.168 180.995 608.736 181.763 607.872C182.531 607.008 182.915 605.776 182.915 604.176V596.352C182.915 594.752 182.531 593.536 181.763 592.704C180.995 591.84 179.923 591.408 178.547 591.408ZM201.427 588C202.867 588 204.499 588.208 206.323 588.624L206.227 592.224C204.371 591.808 202.771 591.6 201.427 591.6C199.923 591.6 198.771 592.016 197.971 592.848C197.203 593.68 196.819 594.864 196.819 596.4V604.128C196.819 605.728 197.219 606.944 198.019 607.776C198.851 608.576 199.987 608.976 201.427 608.976C202.323 608.976 203.107 608.928 203.779 608.832C204.451 608.736 205.267 608.576 206.227 608.352L206.323 611.952C204.371 612.368 202.723 612.576 201.379 612.576C195.619 612.576 192.739 609.664 192.739 603.84V596.736C192.739 590.912 195.635 588 201.427 588ZM216.003 588.576V612H211.923V588.576H216.003ZM213.939 579.12C214.803 579.12 215.459 579.312 215.907 579.696C216.387 580.08 216.627 580.624 216.627 581.328V582.72C216.627 583.424 216.387 583.968 215.907 584.352C215.459 584.704 214.803 584.88 213.939 584.88C213.107 584.88 212.451 584.704 211.971 584.352C211.523 583.968 211.299 583.424 211.299 582.72V581.328C211.299 580.624 211.523 580.08 211.971 579.696C212.451 579.312 213.107 579.12 213.939 579.12ZM229.856 588C232.608 588 234.608 588.624 235.856 589.872C237.136 591.088 237.776 593.04 237.776 595.728V612H233.888V608.256C232.032 611.136 229.936 612.576 227.6 612.576C225.744 612.576 224.256 611.936 223.136 610.656C222.048 609.376 221.504 607.632 221.504 605.424V604.08C221.504 602.16 222.16 600.576 223.472 599.328C224.784 598.048 226.544 597.408 228.752 597.408C229.968 597.408 231.616 597.616 233.696 598.032V595.392C233.696 594.016 233.376 593.024 232.736 592.416C232.128 591.808 231.168 591.504 229.856 591.504C228.32 591.504 226.16 591.744 223.376 592.224V588.72C226.384 588.24 228.544 588 229.856 588ZM229.76 600.576C228.416 600.576 227.392 600.928 226.688 601.632C225.984 602.336 225.632 603.328 225.632 604.608V605.136C225.632 606.32 225.904 607.248 226.448 607.92C226.992 608.592 227.68 608.928 228.512 608.928C229.376 608.928 230.256 608.56 231.152 607.824C232.08 607.056 232.928 605.984 233.696 604.608V600.912C232.48 600.688 231.168 600.576 229.76 600.576ZM249.066 588.576H255.306V591.936H249.066V605.664C249.066 606.88 249.306 607.76 249.786 608.304C250.298 608.816 251.082 609.072 252.138 609.072C253.482 609.072 254.794 608.912 256.074 608.592L256.17 612C254.762 612.384 253.482 612.576 252.33 612.576C249.77 612.576 247.898 612.016 246.714 610.896C245.562 609.744 244.986 607.888 244.986 605.328V591.936H241.626V588.576H244.986L245.754 582.336H249.066V588.576ZM264.565 588.576V612H260.485V588.576H264.565ZM262.501 579.12C263.365 579.12 264.021 579.312 264.469 579.696C264.949 580.08 265.189 580.624 265.189 581.328V582.72C265.189 583.424 264.949 583.968 264.469 584.352C264.021 584.704 263.365 584.88 262.501 584.88C261.669 584.88 261.013 584.704 260.533 584.352C260.085 583.968 259.861 583.424 259.861 582.72V581.328C259.861 580.624 260.085 580.08 260.533 579.696C261.013 579.312 261.669 579.12 262.501 579.12ZM279.234 588C282.082 588 284.194 588.768 285.57 590.304C286.978 591.808 287.682 593.952 287.682 596.736V603.84C287.682 606.624 286.978 608.784 285.57 610.32C284.194 611.824 282.082 612.576 279.234 612.576C276.386 612.576 274.258 611.824 272.85 610.32C271.474 608.784 270.786 606.624 270.786 603.84V596.736C270.786 593.952 271.474 591.808 272.85 590.304C274.258 588.768 276.386 588 279.234 588ZM279.234 591.408C277.858 591.408 276.786 591.84 276.018 592.704C275.25 593.568 274.866 594.8 274.866 596.4V604.176C274.866 605.776 275.25 607.008 276.018 607.872C276.786 608.736 277.858 609.168 279.234 609.168C280.61 609.168 281.682 608.736 282.45 607.872C283.218 607.008 283.602 605.776 283.602 604.176V596.352C283.602 594.752 283.218 593.536 282.45 592.704C281.682 591.84 280.61 591.408 279.234 591.408ZM304.131 588C306.179 588 307.747 588.704 308.835 590.112C309.955 591.488 310.515 593.456 310.515 596.016V612H306.435V596.592C306.435 593.392 305.395 591.792 303.315 591.792C302.387 591.792 301.443 592.144 300.483 592.848C299.523 593.552 298.691 594.512 297.987 595.728V612H293.907V588.576H297.747V592.08C298.611 590.768 299.571 589.76 300.627 589.056C301.715 588.352 302.883 588 304.131 588Z" fill="black"/>
</svg>
