<svg viewBox="0 0 280 105" fill="none" xmlns="http://www.w3.org/2000/svg">
<path d="M109.5 19.6667H67.8334L63.6667 7.16669H34.5C29.9167 7.16669 26.1667 10.9167 26.1667 15.5V78C26.1667 82.5834 29.9167 86.3334 34.5 86.3334H67.8334L72 98.8334H109.5C114.083 98.8334 117.833 95.0834 117.833 90.5V28C117.833 23.4167 114.083 19.6667 109.5 19.6667ZM51.1667 69.6667C39.6667 69.6667 30.3334 60.3334 30.3334 48.8334C30.3334 37.3334 39.6667 28 51.1667 28C56.7917 28 61.5 30.0834 65.125 33.4167L59.625 38.7084C58.0417 37.2084 55.2917 35.4584 51.1667 35.4584C43.9167 35.4584 38.0417 41.4584 38.0417 48.8334C38.0417 56.2084 43.9167 62.2084 51.1667 62.2084C59.5417 62.2084 63 56.2084 63.3334 52.1667H51.1667V45.0417H70.6667C70.9584 46.3334 71.1667 47.5834 71.1667 49.2917C71.1667 61.2083 63.2084 69.6667 51.1667 69.6667ZM76.875 47.0834H92.2917C90.5 52.2917 87.6667 57.2084 83.75 61.5417C82.4584 60.0834 81.25 58.5417 80.1667 56.9584L76.875 47.0834V47.0834ZM111.583 88.4167C111.583 90.7084 109.708 92.5834 107.417 92.5834H80.3334L88.6667 82.1667L84.3334 69.25L97.25 82.1667L101.083 78.3334L87.3334 64.7917L87.4167 64.7084C92.125 59.5 95.4584 53.5 97.4167 47.125H105.333V41.7084H86.4584V36.3334H81.0834V41.7084H75.0834L69.75 25.9167H107.417C109.708 25.9167 111.583 27.7917 111.583 30.0834V88.4167Z" fill="black"/>
<rect x="0.5" y="0.5" width="279" height="104" stroke="black"/>
<path d="M162.288 36.448H167.952V32.176H179.808V36.448H185.52V32.176H194.976V27.04H185.52V23.392H179.808V27.04H167.952V23.392H162.288V27.04H152.928V32.176H162.288V36.448ZM162.576 49.888V43.84H170.832V48.16C170.832 48.736 170.832 49.312 170.736 49.888H162.576ZM185.424 43.84V49.888H176.784C176.832 49.36 176.832 48.784 176.832 48.256V43.84H185.424ZM195.504 55.216V49.888H191.232V38.896H176.832V34.096H170.832V38.896H157.056V49.888H152.448V55.216H168.96C166.704 58.624 161.664 61.552 151.392 63.424C152.688 64.72 154.32 67.024 154.944 68.272C165.792 65.92 171.504 62.224 174.336 57.76C178.368 63.52 184.272 66.832 193.2 68.272C193.92 66.688 195.504 64.288 196.752 62.992C188.352 62.128 182.4 59.584 178.8 55.216H195.504ZM215.664 24.832H202.128V29.152H215.664V24.832ZM217.392 31.456H199.584V35.968H217.392V31.456ZM215.664 38.32H201.84V42.592H215.664V38.32ZM201.84 49.312H215.664V44.992H201.84V49.312ZM211.104 56.272V61.744H206.496V56.272H211.104ZM216 51.76H201.696V68.128H206.496V66.256H216V51.76ZM235.968 55.312V61.264H225.936V55.312H235.968ZM220.56 68.176H225.936V66.304H235.968V67.984H241.584V50.224H220.56V68.176ZM235.008 37.792V42.688H228.528C228.816 41.2 229.104 39.52 229.392 37.792H235.008ZM240.48 42.688V32.944H230.208L230.688 29.584H242.928V24.688H218.88V29.584H225.12C224.976 30.688 224.784 31.792 224.64 32.944H219.648V37.792H223.872C223.584 39.52 223.296 41.2 223.008 42.688H217.104V47.68H244.56V42.688H240.48Z" fill="black"/>
</svg>
