<svg width="237" height="100" viewBox="0 0 237 100" fill="none" xmlns="http://www.w3.org/2000/svg">
<path d="M142.216 43.336H146.464V40.132H155.356V43.336H159.64V40.132H166.732V36.28H159.64V33.544H155.356V36.28H146.464V33.544H142.216V36.28H135.196V40.132H142.216V43.336ZM142.432 53.416V48.88H148.624V52.12C148.624 52.552 148.624 52.984 148.552 53.416H142.432ZM159.568 48.88V53.416H153.088C153.124 53.02 153.124 52.588 153.124 52.192V48.88H159.568ZM167.128 57.412V53.416H163.924V45.172H153.124V41.572H148.624V45.172H138.292V53.416H134.836V57.412H147.22C145.528 59.968 141.748 62.164 134.044 63.568C135.016 64.54 136.24 66.268 136.708 67.204C144.844 65.44 149.128 62.668 151.252 59.32C154.276 63.64 158.704 66.124 165.4 67.204C165.94 66.016 167.128 64.216 168.064 63.244C161.764 62.596 157.3 60.688 154.6 57.412H167.128ZM182.248 34.624H172.096V37.864H182.248V34.624ZM183.544 39.592H170.188V42.976H183.544V39.592ZM182.248 44.74H171.88V47.944H182.248V44.74ZM171.88 52.984H182.248V49.744H171.88V52.984ZM178.828 58.204V62.308H175.372V58.204H178.828ZM182.5 54.82H171.772V67.096H175.372V65.692H182.5V54.82ZM197.476 57.484V61.948H189.952V57.484H197.476ZM185.92 67.132H189.952V65.728H197.476V66.988H201.688V53.668H185.92V67.132ZM196.756 44.344V48.016H191.896C192.112 46.9 192.328 45.64 192.544 44.344H196.756ZM200.86 48.016V40.708H193.156L193.516 38.188H202.696V34.516H184.66V38.188H189.34C189.232 39.016 189.088 39.844 188.98 40.708H185.236V44.344H188.404C188.188 45.64 187.972 46.9 187.756 48.016H183.328V51.76H203.92V48.016H200.86Z" fill="black"/>
<path d="M87.5 16.6667H45.8333L41.6667 4.16667H12.5C7.91667 4.16667 4.16667 7.91667 4.16667 12.5V75C4.16667 79.5833 7.91667 83.3333 12.5 83.3333H45.8333L50 95.8333H87.5C92.0833 95.8333 95.8333 92.0833 95.8333 87.5V25C95.8333 20.4167 92.0833 16.6667 87.5 16.6667ZM29.1667 66.6667C17.6667 66.6667 8.33334 57.3333 8.33334 45.8333C8.33334 34.3333 17.6667 25 29.1667 25C34.7917 25 39.5 27.0833 43.125 30.4167L37.625 35.7083C36.0417 34.2083 33.2917 32.4583 29.1667 32.4583C21.9167 32.4583 16.0417 38.4583 16.0417 45.8333C16.0417 53.2083 21.9167 59.2083 29.1667 59.2083C37.5417 59.2083 41 53.2083 41.3333 49.1667H29.1667V42.0417H48.6667C48.9583 43.3333 49.1667 44.5833 49.1667 46.2917C49.1667 58.2083 41.2083 66.6667 29.1667 66.6667ZM54.875 44.0833H70.2917C68.5 49.2917 65.6667 54.2083 61.75 58.5417C60.4583 57.0833 59.25 55.5417 58.1667 53.9583L54.875 44.0833V44.0833ZM89.5833 85.4167C89.5833 87.7083 87.7083 89.5833 85.4167 89.5833H58.3333L66.6667 79.1667L62.3333 66.25L75.25 79.1667L79.0833 75.3333L65.3333 61.7917L65.4167 61.7083C70.125 56.5 73.4583 50.5 75.4167 44.125H83.3333V38.7083H64.4583V33.3333H59.0833V38.7083H53.0833L47.75 22.9167H85.4167C87.7083 22.9167 89.5833 24.7917 89.5833 27.0833V85.4167Z" fill="black"/>
</svg>
