<svg width="271" height="100" viewBox="0 0 271 100" fill="none" xmlns="http://www.w3.org/2000/svg">
<path d="M117.536 35.476C117.608 36.484 117.608 37.96 117.608 38.968V56.572C117.608 58.3 117.5 61.432 117.5 61.612H122.468C122.468 61.504 122.468 60.676 122.432 59.668H139.784C139.784 60.712 139.748 61.54 139.748 61.612H144.716C144.716 61.468 144.644 58.012 144.644 56.608V38.968C144.644 37.888 144.644 36.556 144.716 35.476C143.42 35.548 142.052 35.548 141.152 35.548H121.352C120.38 35.548 119.012 35.512 117.536 35.476ZM122.432 40.12H139.82V55.06H122.432V40.12ZM177.044 31.516L174.2 32.668C175.1 33.964 176.108 35.872 176.828 37.312L176.576 37.168C175.784 37.42 174.56 37.6 173.444 37.6H166.244C166.28 37.528 166.316 37.492 166.352 37.42C166.748 36.628 167.684 35.008 168.548 33.748L163.256 32.02C162.932 33.244 162.176 34.9 161.636 35.764C159.872 38.86 156.704 43.54 150.404 47.356L154.436 50.38C158 47.968 161.132 44.8 163.544 41.668H173.66C173.084 44.332 170.996 48.688 168.548 51.46C165.38 55.06 161.384 58.192 154.04 60.388L158.288 64.204C165.056 61.504 169.376 58.228 172.796 54.016C176.072 50.02 178.124 45.232 179.096 42.028C179.384 41.128 179.888 40.12 180.284 39.436L177.224 37.564L179.888 36.448C179.24 35.116 177.944 32.812 177.044 31.516ZM181.292 29.896L178.448 31.048C179.456 32.416 180.608 34.504 181.364 36.016L184.208 34.792C183.56 33.532 182.228 31.228 181.292 29.896ZM187.232 46.996L189.5 51.532C193.928 50.236 198.5 48.292 202.208 46.348V57.868C202.208 59.452 202.1 61.72 201.956 62.584H207.644C207.392 61.684 207.32 59.452 207.32 57.868V43.324C210.812 41.02 214.268 38.212 217.004 35.512L213.116 31.804C210.776 34.648 206.672 38.248 202.964 40.552C198.968 43 193.676 45.34 187.232 46.996ZM229.676 33.64L226.292 37.24C228.92 39.076 233.42 43 235.292 45.016L238.964 41.272C236.876 39.076 232.196 35.332 229.676 33.64ZM225.176 57.616L228.2 62.368C233.276 61.504 237.92 59.488 241.556 57.292C247.352 53.8 252.14 48.832 254.876 43.972L252.068 38.896C249.8 43.756 245.12 49.264 238.964 52.9C235.472 54.988 230.792 56.824 225.176 57.616Z" fill="black"/>
<path d="M57.5117 25V87.5H12.3239V79.1667H20.5399V12.5H57.5117V16.6667H78.0516V79.1667H86.2676V87.5H69.8357V25H57.5117ZM41.0798 45.8333V54.1667H49.2958V45.8333H41.0798Z" fill="black"/>
</svg>
