<svg viewBox="0 0 280 105" fill="none" xmlns="http://www.w3.org/2000/svg">
<path d="M57.5117 30V92.5H12.3239V84.1667H20.5399V17.5H57.5117V21.6667H78.0516V84.1667H86.2676V92.5H69.8357V30H57.5117ZM41.0798 50.8333V59.1667H49.2958V50.8333H41.0798Z" fill="black"/>
<rect x="4.44366" y="0.5" width="275.056" height="104" stroke="black"/>
<path d="M91.4564 35.968C91.5524 37.312 91.5524 39.28 91.5524 40.624V64.096C91.5524 66.4 91.4084 70.576 91.4084 70.816H98.0324C98.0324 70.672 98.0324 69.568 97.9844 68.224H121.12C121.12 69.616 121.072 70.72 121.072 70.816H127.696C127.696 70.624 127.6 66.016 127.6 64.144V40.624C127.6 39.184 127.6 37.408 127.696 35.968C125.968 36.064 124.144 36.064 122.944 36.064H96.5444C95.2484 36.064 93.4244 36.016 91.4564 35.968ZM97.9844 42.16H121.168V62.08H97.9844V42.16ZM170.8 30.688L167.008 32.224C168.208 33.952 169.552 36.496 170.512 38.416L170.176 38.224C169.12 38.56 167.488 38.8 166 38.8H156.4C156.448 38.704 156.496 38.656 156.544 38.56C157.072 37.504 158.32 35.344 159.472 33.664L152.416 31.36C151.984 32.992 150.976 35.2 150.256 36.352C147.904 40.48 143.68 46.72 135.28 51.808L140.656 55.84C145.408 52.624 149.584 48.4 152.8 44.224H166.288C165.52 47.776 162.736 53.584 159.472 57.28C155.248 62.08 149.92 66.256 140.128 69.184L145.792 74.272C154.816 70.672 160.576 66.304 165.136 60.688C169.504 55.36 172.24 48.976 173.536 44.704C173.92 43.504 174.592 42.16 175.12 41.248L171.04 38.752L174.592 37.264C173.728 35.488 172 32.416 170.8 30.688ZM176.464 28.528L172.672 30.064C174.016 31.888 175.552 34.672 176.56 36.688L180.352 35.056C179.488 33.376 177.712 30.304 176.464 28.528ZM184.384 51.328L187.408 57.376C193.312 55.648 199.408 53.056 204.352 50.464V65.824C204.352 67.936 204.208 70.96 204.016 72.112H211.6C211.264 70.912 211.168 67.936 211.168 65.824V46.432C215.824 43.36 220.432 39.616 224.08 36.016L218.896 31.072C215.776 34.864 210.304 39.664 205.36 42.736C200.032 46 192.976 49.12 184.384 51.328ZM240.976 33.52L236.464 38.32C239.968 40.768 245.968 46 248.464 48.688L253.36 43.696C250.576 40.768 244.336 35.776 240.976 33.52ZM234.976 65.488L239.008 71.824C245.776 70.672 251.968 67.984 256.816 65.056C264.544 60.4 270.928 53.776 274.576 47.296L270.832 40.528C267.808 47.008 261.568 54.352 253.36 59.2C248.704 61.984 242.464 64.432 234.976 65.488Z" fill="black"/>
</svg>
