<svg width="264" height="100" viewBox="0 0 264 100" fill="none" xmlns="http://www.w3.org/2000/svg">
<path d="M141.928 31.088V29.9H144.592C146.5 29.9 147.76 29.936 148.552 30.008V25.22C147.58 25.4 146.5 25.472 144.592 25.472H141.928V21.692C141.928 20.252 142.072 19.064 142.18 18.344H137.032C137.14 19.064 137.248 20.252 137.248 21.692V25.472H128.716V21.908C128.716 20.504 128.824 19.352 128.932 18.668H123.82C123.928 19.748 124.036 20.864 124.036 21.908V25.472H120.976C119.176 25.472 117.7 25.256 117.088 25.148V30.044C117.88 29.972 119.176 29.9 120.976 29.9H124.036V34.796C124.036 36.416 123.928 37.856 123.82 38.576H128.86C128.824 37.856 128.716 36.38 128.716 34.796V29.9H137.248V31.268C137.248 40.124 134.188 43.22 127.24 45.632L131.092 49.268C139.768 45.452 141.928 40.016 141.928 31.088ZM153.232 32.996L155.5 37.532C159.928 36.236 164.5 34.292 168.208 32.348V43.868C168.208 45.452 168.1 47.72 167.956 48.584H173.644C173.392 47.684 173.32 45.452 173.32 43.868V29.324C176.812 27.02 180.268 24.212 183.004 21.512L179.116 17.804C176.776 20.648 172.672 24.248 168.964 26.552C164.968 29 159.676 31.34 153.232 32.996ZM198.304 43.544C198.304 44.984 198.16 47.144 197.944 48.584H203.56C203.416 47.108 203.236 44.588 203.236 43.544V33.356C207.124 34.688 212.524 36.776 216.232 38.72L218.284 33.752C214.972 32.132 208.06 29.576 203.236 28.172V22.844C203.236 21.368 203.416 19.784 203.56 18.524H197.944C198.196 19.784 198.304 21.584 198.304 22.844V43.544ZM239.128 21.836V26.444C243.664 26.876 250.18 26.84 254.608 26.444V21.8C250.72 22.268 243.556 22.448 239.128 21.836ZM242.008 37.208L237.868 36.812C237.472 38.648 237.256 40.088 237.256 41.492C237.256 45.2 240.244 47.396 246.436 47.396C250.504 47.396 253.384 47.144 255.724 46.712L255.652 41.852C252.484 42.5 249.82 42.788 246.616 42.788C242.944 42.788 241.576 41.816 241.576 40.232C241.576 39.26 241.72 38.396 242.008 37.208ZM233.584 19.424L228.544 18.992C228.508 20.144 228.292 21.512 228.184 22.52C227.788 25.292 226.672 31.376 226.672 36.776C226.672 41.672 227.356 46.064 228.076 48.548L232.252 48.26C232.216 47.756 232.18 47.18 232.18 46.784C232.18 46.424 232.252 45.632 232.36 45.092C232.756 43.184 233.944 39.26 234.952 36.272L232.72 34.508C232.216 35.696 231.64 36.956 231.1 38.18C230.992 37.46 230.956 36.524 230.956 35.84C230.956 32.24 232.216 25.04 232.684 22.628C232.828 21.98 233.296 20.18 233.584 19.424ZM135.489 69.272L137.541 74.312C141.285 72.692 149.817 69.092 155.109 69.092C159.429 69.092 161.769 71.684 161.769 75.068C161.769 81.332 154.137 84.14 144.381 84.392L146.469 89.18C159.141 88.532 166.917 83.312 166.917 75.14C166.917 68.48 161.805 64.736 155.289 64.736C150.033 64.736 142.689 67.328 139.917 68.192C138.621 68.552 136.821 69.056 135.489 69.272ZM178.905 63.26L173.361 63.188C173.577 64.304 173.649 65.852 173.649 66.86C173.649 69.056 173.685 73.268 174.045 76.58C175.053 86.228 178.473 89.792 182.433 89.792C185.313 89.792 187.581 87.596 189.957 81.332L186.357 76.94C185.673 79.82 184.233 84.032 182.541 84.032C180.273 84.032 179.193 80.468 178.689 75.284C178.473 72.692 178.437 69.992 178.473 67.652C178.473 66.644 178.653 64.556 178.905 63.26ZM196.905 64.088L192.333 65.564C196.257 70.028 198.165 78.776 198.741 84.572L203.457 82.736C203.061 77.228 200.325 68.228 196.905 64.088ZM207.011 64.232L207.479 69.164C211.655 68.264 218.999 67.472 222.383 67.112C219.971 68.948 217.055 73.052 217.055 78.236C217.055 86.012 224.183 90.08 231.707 90.584L233.399 85.652C227.315 85.328 221.771 83.168 221.771 77.264C221.771 72.98 225.011 68.3 229.367 67.148C231.275 66.716 234.371 66.716 236.315 66.68L236.279 62.072C233.759 62.144 229.799 62.396 226.091 62.684C219.503 63.26 213.563 63.8 210.575 64.052C209.855 64.124 208.451 64.196 207.011 64.232Z" fill="black"/>
<path d="M49.95 0C22.35 0 0 22.4 0 50C0 77.6 22.35 100 49.95 100C77.6 100 100 77.6 100 50C100 22.4 77.6 0 49.95 0ZM50 90C27.9 90 10 72.1 10 50C10 27.9 27.9 10 50 10C72.1 10 90 27.9 90 50C90 72.1 72.1 90 50 90ZM67.5 45C71.65 45 75 41.65 75 37.5C75 33.35 71.65 30 67.5 30C63.35 30 60 33.35 60 37.5C60 41.65 63.35 45 67.5 45ZM32.5 45C36.65 45 40 41.65 40 37.5C40 33.35 36.65 30 32.5 30C28.35 30 25 33.35 25 37.5C25 41.65 28.35 45 32.5 45ZM50 77.5C61.65 77.5 71.55 70.2 75.55 60H24.45C28.45 70.2 38.35 77.5 50 77.5Z" fill="black"/>
</svg>
