<svg viewBox="0 0 280 105" fill="none" xmlns="http://www.w3.org/2000/svg">
<path d="M59.95 3C32.35 3 10 25.4 10 53C10 80.6 32.35 103 59.95 103C87.6 103 110 80.6 110 53C110 25.4 87.6 3 59.95 3ZM60 93C37.9 93 20 75.1 20 53C20 30.9 37.9 13 60 13C82.1 13 100 30.9 100 53C100 75.1 82.1 93 60 93ZM77.5 48C81.65 48 85 44.65 85 40.5C85 36.35 81.65 33 77.5 33C73.35 33 70 36.35 70 40.5C70 44.65 73.35 48 77.5 48ZM42.5 48C46.65 48 50 44.65 50 40.5C50 36.35 46.65 33 42.5 33C38.35 33 35 36.35 35 40.5C35 44.65 38.35 48 42.5 48ZM60 80.5C71.65 80.5 81.55 73.2 85.55 63H34.45C38.45 73.2 48.35 80.5 60 80.5Z" fill="black"/>
<rect x="0.5" y="0.5" width="279" height="104" stroke="black"/>
<path d="M143.928 27.088V25.9H146.592C148.5 25.9 149.76 25.936 150.552 26.008V21.22C149.58 21.4 148.5 21.472 146.592 21.472H143.928V17.692C143.928 16.252 144.072 15.064 144.18 14.344H139.032C139.14 15.064 139.248 16.252 139.248 17.692V21.472H130.716V17.908C130.716 16.504 130.824 15.352 130.932 14.668H125.82C125.928 15.748 126.036 16.864 126.036 17.908V21.472H122.976C121.176 21.472 119.7 21.256 119.088 21.148V26.044C119.88 25.972 121.176 25.9 122.976 25.9H126.036V30.796C126.036 32.416 125.928 33.856 125.82 34.576H130.86C130.824 33.856 130.716 32.38 130.716 30.796V25.9H139.248V27.268C139.248 36.124 136.188 39.22 129.24 41.632L133.092 45.268C141.768 41.452 143.928 36.016 143.928 27.088ZM155.232 28.996L157.5 33.532C161.928 32.236 166.5 30.292 170.208 28.348V39.868C170.208 41.452 170.1 43.72 169.956 44.584H175.644C175.392 43.684 175.32 41.452 175.32 39.868V25.324C178.812 23.02 182.268 20.212 185.004 17.512L181.116 13.804C178.776 16.648 174.672 20.248 170.964 22.552C166.968 25 161.676 27.34 155.232 28.996ZM200.304 39.544C200.304 40.984 200.16 43.144 199.944 44.584H205.56C205.416 43.108 205.236 40.588 205.236 39.544V29.356C209.124 30.688 214.524 32.776 218.232 34.72L220.284 29.752C216.972 28.132 210.06 25.576 205.236 24.172V18.844C205.236 17.368 205.416 15.784 205.56 14.524H199.944C200.196 15.784 200.304 17.584 200.304 18.844V39.544ZM241.128 17.836V22.444C245.664 22.876 252.18 22.84 256.608 22.444V17.8C252.72 18.268 245.556 18.448 241.128 17.836ZM244.008 33.208L239.868 32.812C239.472 34.648 239.256 36.088 239.256 37.492C239.256 41.2 242.244 43.396 248.436 43.396C252.504 43.396 255.384 43.144 257.724 42.712L257.652 37.852C254.484 38.5 251.82 38.788 248.616 38.788C244.944 38.788 243.576 37.816 243.576 36.232C243.576 35.26 243.72 34.396 244.008 33.208ZM235.584 15.424L230.544 14.992C230.508 16.144 230.292 17.512 230.184 18.52C229.788 21.292 228.672 27.376 228.672 32.776C228.672 37.672 229.356 42.064 230.076 44.548L234.252 44.26C234.216 43.756 234.18 43.18 234.18 42.784C234.18 42.424 234.252 41.632 234.36 41.092C234.756 39.184 235.944 35.26 236.952 32.272L234.72 30.508C234.216 31.696 233.64 32.956 233.1 34.18C232.992 33.46 232.956 32.524 232.956 31.84C232.956 28.24 234.216 21.04 234.684 18.628C234.828 17.98 235.296 16.18 235.584 15.424ZM137.489 65.272L139.541 70.312C143.285 68.692 151.817 65.092 157.109 65.092C161.429 65.092 163.769 67.684 163.769 71.068C163.769 77.332 156.137 80.14 146.381 80.392L148.469 85.18C161.141 84.532 168.917 79.312 168.917 71.14C168.917 64.48 163.805 60.736 157.289 60.736C152.033 60.736 144.689 63.328 141.917 64.192C140.621 64.552 138.821 65.056 137.489 65.272ZM180.905 59.26L175.361 59.188C175.577 60.304 175.649 61.852 175.649 62.86C175.649 65.056 175.685 69.268 176.045 72.58C177.053 82.228 180.473 85.792 184.433 85.792C187.313 85.792 189.581 83.596 191.957 77.332L188.357 72.94C187.673 75.82 186.233 80.032 184.541 80.032C182.273 80.032 181.193 76.468 180.689 71.284C180.473 68.692 180.437 65.992 180.473 63.652C180.473 62.644 180.653 60.556 180.905 59.26ZM198.905 60.088L194.333 61.564C198.257 66.028 200.165 74.776 200.741 80.572L205.457 78.736C205.061 73.228 202.325 64.228 198.905 60.088ZM209.011 60.232L209.479 65.164C213.655 64.264 220.999 63.472 224.383 63.112C221.971 64.948 219.055 69.052 219.055 74.236C219.055 82.012 226.183 86.08 233.707 86.584L235.399 81.652C229.315 81.328 223.771 79.168 223.771 73.264C223.771 68.98 227.011 64.3 231.367 63.148C233.275 62.716 236.371 62.716 238.315 62.68L238.279 58.072C235.759 58.144 231.799 58.396 228.091 58.684C221.503 59.26 215.563 59.8 212.575 60.052C211.855 60.124 210.451 60.196 209.011 60.232Z" fill="black"/>
</svg>
