<svg width="150" height="150" viewBox="0 0 150 150" fill="none" xmlns="http://www.w3.org/2000/svg">
<rect x="0.5" y="0.5" width="149" height="149" fill="white" stroke="black"/>
<path d="M51.5 78.25L52.5417 87.5L59.2917 81.0833L70.8333 49.4167C68 48.7083 65.5 47.2917 63.4583 45.3333L51.5 78.25Z" fill="black"/>
<path d="M86.5417 45.3333C84.5001 47.2917 81.9584 48.7083 79.1667 49.4167L90.7084 81.0833L97.4584 87.5L98.5417 78.25L86.5417 45.3333Z" fill="black"/>
<path d="M87.5 33.3333C87.5 27.9167 84 23.3333 79.1667 21.5833V12.5H70.8333V21.5833C66 23.3333 62.5 27.9167 62.5 33.3333C62.5 40.25 68.0833 45.8333 75 45.8333C81.9167 45.8333 87.5 40.25 87.5 33.3333ZM75 37.5C72.7083 37.5 70.8333 35.625 70.8333 33.3333C70.8333 31.0417 72.7083 29.1667 75 29.1667C77.2917 29.1667 79.1667 31.0417 79.1667 33.3333C79.1667 35.625 77.2917 37.5 75 37.5Z" fill="black"/>
<path d="M31.872 104.456V106.448C32.496 106.4 33.288 106.376 34.08 106.376H42.36C43.056 106.376 43.896 106.4 44.592 106.448V104.456C43.896 104.552 43.056 104.6 42.36 104.6H34.056C33.288 104.6 32.568 104.528 31.872 104.456ZM29.04 110.48V112.472C29.688 112.424 30.384 112.424 31.104 112.424H38.304C38.232 114.704 37.968 116.72 36.912 118.376C35.976 119.888 34.248 121.28 32.376 122.048L34.152 123.368C36.192 122.312 38.016 120.584 38.88 119C39.84 117.2 40.224 115.016 40.296 112.424H46.824C47.4 112.424 48.168 112.448 48.696 112.472V110.48C48.12 110.576 47.328 110.6 46.824 110.6H31.104C30.36 110.6 29.688 110.552 29.04 110.48ZM45.84 102.512L44.568 103.04C45.216 103.952 46.032 105.392 46.512 106.376L47.808 105.8C47.328 104.816 46.44 103.352 45.84 102.512ZM48.48 101.552L47.208 102.08C47.904 102.992 48.672 104.336 49.2 105.392L50.496 104.816C50.04 103.928 49.104 102.416 48.48 101.552ZM68.28 110.984V110.12H70.92C71.976 110.12 72.864 110.168 73.128 110.192V108.176C72.792 108.224 71.976 108.296 70.92 108.296H68.28V105.296C68.28 104.36 68.376 103.568 68.4 103.328H66.24C66.288 103.568 66.36 104.36 66.36 105.296V108.296H59.52V105.224C59.52 104.384 59.616 103.712 59.64 103.472H57.504C57.576 104.024 57.6 104.72 57.6 105.224V108.296H55.008C54 108.296 52.824 108.176 52.608 108.128V110.216C52.896 110.192 53.976 110.12 55.008 110.12H57.6V114.008C57.6 114.92 57.528 115.952 57.504 116.192H59.616C59.592 115.952 59.52 114.896 59.52 114.008V110.12H66.36V111.128C66.36 117.848 64.176 119.912 59.808 121.592L61.416 123.104C66.912 120.656 68.28 117.368 68.28 110.984ZM77.064 113.336L78.024 115.208C81.36 114.176 84.648 112.736 87.168 111.296V120.176C87.168 121.088 87.096 122.288 87.024 122.744H89.376C89.28 122.264 89.232 121.088 89.232 120.176V110.048C91.68 108.416 93.888 106.592 95.712 104.696L94.104 103.208C92.448 105.2 90.048 107.288 87.552 108.848C84.888 110.528 81.216 112.208 77.064 113.336ZM104.448 104.408L103.08 105.872C104.856 107.072 107.856 109.64 109.056 110.888L110.568 109.376C109.224 108.032 106.152 105.536 104.448 104.408ZM102.384 120.488L103.656 122.456C107.664 121.712 110.688 120.248 113.088 118.736C116.712 116.456 119.52 113.192 121.152 110.192L120 108.152C118.608 111.104 115.68 114.656 111.984 116.984C109.704 118.4 106.584 119.864 102.384 120.488Z" fill="black"/>
</svg>
