<svg width="156" height="150" viewBox="0 0 156 150" fill="none" xmlns="http://www.w3.org/2000/svg">
<rect x="3.5" y="0.5" width="149" height="149" fill="white" stroke="black"/>
<path d="M107.167 12.5H48.8333C44.25 12.5 40.5 16.25 40.5 20.8333V79.1667C40.5 83.75 44.25 87.5 48.8333 87.5H107.167C111.75 87.5 115.5 83.75 115.5 79.1667V20.8333C115.5 16.25 111.75 12.5 107.167 12.5ZM65.5 70.8333H57.1667V50H65.5V70.8333ZM82.1667 70.8333H73.8333V58.3333H82.1667V70.8333ZM82.1667 50H73.8333V41.6667H82.1667V50ZM98.8333 70.8333H90.5V29.1667H98.8333V70.8333Z" fill="black"/>
<path d="M10.872 104.456V106.448C11.496 106.4 12.288 106.376 13.08 106.376H21.36C22.056 106.376 22.896 106.4 23.592 106.448V104.456C22.896 104.552 22.056 104.6 21.36 104.6H13.056C12.288 104.6 11.568 104.528 10.872 104.456ZM8.04 110.48V112.472C8.688 112.424 9.384 112.424 10.104 112.424H17.304C17.232 114.704 16.968 116.72 15.912 118.376C14.976 119.888 13.248 121.28 11.376 122.048L13.152 123.368C15.192 122.312 17.016 120.584 17.88 119C18.84 117.2 19.224 115.016 19.296 112.424H25.824C26.4 112.424 27.168 112.448 27.696 112.472V110.48C27.12 110.576 26.328 110.6 25.824 110.6H10.104C9.36 110.6 8.688 110.552 8.04 110.48ZM24.84 102.512L23.568 103.04C24.216 103.952 25.032 105.392 25.512 106.376L26.808 105.8C26.328 104.816 25.44 103.352 24.84 102.512ZM27.48 101.552L26.208 102.08C26.904 102.992 27.672 104.336 28.2 105.392L29.496 104.816C29.04 103.928 28.104 102.416 27.48 101.552ZM32.448 111.608V113.96C33.192 113.888 34.464 113.84 35.784 113.84H48.96C50.04 113.84 51.048 113.936 51.528 113.96V111.608C51 111.656 50.136 111.728 48.936 111.728H35.784C34.44 111.728 33.168 111.656 32.448 111.608ZM66.864 103.16L64.68 102.464C64.536 103.088 64.152 103.928 63.912 104.36C62.784 106.544 60.336 110.144 56.208 112.712L57.816 113.96C60.504 112.112 62.64 109.76 64.176 107.6H72.288C71.808 109.568 70.584 112.16 69.024 114.248C67.344 113.072 65.544 111.92 63.96 111.008L62.664 112.328C64.2 113.288 66.024 114.536 67.752 115.784C65.592 118.112 62.52 120.32 58.464 121.568L60.192 123.056C64.248 121.544 67.2 119.336 69.336 116.96C70.32 117.752 71.232 118.496 71.952 119.144L73.368 117.488C72.6 116.864 71.64 116.12 70.632 115.376C72.456 112.928 73.752 110.12 74.376 107.912C74.52 107.528 74.736 106.952 74.952 106.616L73.368 105.656C72.96 105.8 72.432 105.896 71.784 105.896H65.28C65.472 105.608 65.64 105.32 65.784 105.032C66.024 104.6 66.456 103.784 66.864 103.16ZM85.392 103.328L83.496 104.12C84.6 106.736 85.872 109.544 86.976 111.512C84.408 113.312 82.824 115.256 82.824 117.728C82.824 121.328 86.088 122.672 90.6 122.672C93.6 122.672 96.36 122.384 98.184 122.072V119.936C96.312 120.416 93.12 120.752 90.504 120.752C86.712 120.752 84.816 119.504 84.816 117.512C84.816 115.688 86.16 114.104 88.392 112.664C90.744 111.104 94.056 109.52 95.688 108.68C96.384 108.32 96.984 108.008 97.536 107.672L96.48 105.968C95.976 106.376 95.472 106.688 94.776 107.096C93.456 107.816 90.864 109.088 88.608 110.456C87.552 108.56 86.352 105.968 85.392 103.328ZM109.632 116.168V113.36H111.792V116.168H109.632ZM106.176 113.36H108.336V116.168H106.128C106.176 115.52 106.176 114.872 106.176 114.296V113.36ZM109.776 105.464C109.488 106.304 109.08 107.24 108.72 107.96H105.96C106.392 107.192 106.776 106.352 107.16 105.464H109.776ZM109.632 109.376H111.792V112.016H109.632V109.376ZM106.176 109.376H108.336V112.016H106.176V109.376ZM122.712 104.648C122.568 107.432 122.352 108.536 122.088 108.848C121.92 109.064 121.728 109.088 121.416 109.064C121.08 109.064 120.192 109.064 119.256 108.968C119.472 109.376 119.616 110 119.664 110.456C120.648 110.504 121.632 110.528 122.136 110.48C122.76 110.432 123.12 110.264 123.432 109.88C123.96 109.304 124.152 107.768 124.344 103.808C124.368 103.592 124.368 103.136 124.368 103.136H114V104.648H117.24C116.784 106.904 115.824 108.8 113.304 109.904V107.96H110.304C110.856 106.928 111.408 105.704 111.816 104.648L110.76 103.976L110.496 104.048H107.688C107.88 103.472 108.072 102.872 108.24 102.272L106.584 101.912C105.864 104.84 104.544 107.672 102.84 109.496C103.224 109.736 103.92 110.288 104.184 110.576C104.352 110.384 104.52 110.168 104.688 109.928V114.296C104.688 116.984 104.52 120.536 102.912 123.056C103.272 123.224 103.944 123.608 104.184 123.872C105.312 122.144 105.816 119.792 106.032 117.56H111.792V121.88C111.792 122.192 111.672 122.288 111.336 122.312C111.024 122.336 109.944 122.336 108.696 122.288C108.936 122.696 109.2 123.392 109.272 123.8C110.928 123.8 111.888 123.776 112.488 123.512C113.112 123.248 113.304 122.744 113.304 121.88V109.928C113.64 110.216 114.072 110.744 114.264 111.128C117.216 109.784 118.368 107.48 118.872 104.648H122.712ZM125.016 117.68H120.456V114.728H124.608V113.192H120.456V110.744H118.752V113.192H116.664C116.856 112.568 117.024 111.92 117.168 111.272L115.656 110.96C115.224 113 114.504 114.968 113.448 116.336C113.856 116.528 114.552 116.864 114.84 117.08C115.296 116.432 115.728 115.616 116.088 114.728H118.752V117.68H113.712V119.216H118.752V123.704H120.456V119.216H125.016V117.68ZM136.08 114.944C135.576 114.296 133.464 111.68 132.72 110.84V108.728H136.008V107.048H132.72V101.912H131.04V107.048H127.32V108.728H130.8C130.008 112.016 128.376 115.76 126.768 117.752C127.056 118.184 127.512 118.88 127.704 119.36C128.928 117.752 130.128 115.088 131.04 112.352V123.8H132.72V112.952C133.56 114.128 134.544 115.592 134.976 116.384L136.08 114.944ZM149.016 110.072H139.368V105.824C142.368 105.296 145.632 104.528 147.936 103.568L146.424 102.2C144.696 102.968 141.864 103.76 139.152 104.312L137.64 103.856V110.6C137.64 114.176 137.376 119 134.688 122.552C135.096 122.792 135.792 123.368 136.032 123.728C138.672 120.224 139.272 115.448 139.344 111.776H143.688V123.824H145.464V111.776H149.016V110.072Z" fill="black"/>
</svg>
