<svg width="150" height="150" viewBox="0 0 150 150" fill="none" xmlns="http://www.w3.org/2000/svg">
<rect x="0.5" y="0.5" width="149" height="149" fill="white" stroke="black"/>
<path d="M120.833 29.1667V83.3333H41.6667V75H112.5V29.1667H120.833ZM104.167 66.6666H29.1667V16.6667H104.167V66.6666ZM79.1667 41.6667C79.1667 34.75 73.5834 29.1667 66.6667 29.1667C59.75 29.1667 54.1667 34.75 54.1667 41.6667C54.1667 48.5833 59.75 54.1667 66.6667 54.1667C73.5834 54.1667 79.1667 48.5833 79.1667 41.6667Z" fill="black"/>
<path d="M20.664 104.04L19.2 103.104C18.744 103.224 18.288 103.224 17.928 103.224H5.88C5.088 103.224 4.152 103.152 3.48 103.08V105.192C4.104 105.168 4.92 105.12 5.88 105.12H18.144C17.808 107.424 16.704 110.76 15 112.944C12.984 115.512 10.296 117.552 5.64 118.728L7.272 120.528C11.688 119.136 14.544 116.904 16.728 114.096C18.624 111.624 19.8 107.76 20.304 105.24C20.4 104.784 20.496 104.376 20.664 104.04ZM26.4593 113.808L27.3713 115.584C30.0833 114.744 32.8673 113.496 34.8833 112.416V119.76C34.8833 120.504 34.8353 121.488 34.7873 121.872H36.9953C36.8993 121.488 36.8753 120.504 36.8753 119.76V111.216C39.0593 109.8 41.0993 108.048 42.2993 106.728L40.8113 105.288C39.5873 106.824 37.3793 108.792 35.0993 110.184C33.1553 111.384 29.6273 113.064 26.4593 113.808ZM52.9793 102.408L51.6113 103.872C53.3873 105.072 56.3873 107.64 57.5873 108.888L59.0993 107.376C57.7553 106.032 54.6833 103.536 52.9793 102.408ZM50.9153 118.488L52.1873 120.456C56.1953 119.712 59.2193 118.248 61.6193 116.736C65.2433 114.456 68.0513 111.192 69.6833 108.192L68.5313 106.152C67.1393 109.104 64.2113 112.656 60.5153 114.984C58.2353 116.4 55.1153 117.864 50.9153 118.488ZM76.6913 102.24V104.232C77.2913 104.184 78.0833 104.16 78.8753 104.16H88.5713C89.2673 104.16 90.1073 104.184 90.8033 104.232V102.24C90.1073 102.336 89.2433 102.384 88.5713 102.384H78.8513C78.0833 102.384 77.3633 102.312 76.6913 102.24ZM73.8113 108.264V110.256C74.4833 110.208 75.1793 110.208 75.8993 110.208H83.0993C83.0273 112.464 82.7633 114.48 81.7073 116.16C80.7713 117.672 79.0433 119.064 77.1713 119.832L78.9473 121.152C80.9873 120.096 82.8113 118.368 83.6753 116.76C84.6353 114.984 85.0193 112.8 85.0912 110.208H91.6193C92.1953 110.208 92.9633 110.232 93.4913 110.256V108.264C92.9153 108.36 92.1233 108.384 91.6193 108.384H75.8993C75.1553 108.384 74.4833 108.336 73.8113 108.264ZM107.123 106.176L105.371 106.776C105.875 107.856 106.979 110.904 107.243 111.984L109.019 111.36C108.707 110.304 107.531 107.136 107.123 106.176ZM115.811 107.52L113.747 106.872C113.387 109.944 112.139 112.992 110.435 115.08C108.467 117.552 105.419 119.376 102.635 120.192L104.219 121.8C106.907 120.768 109.835 118.92 112.043 116.088C113.771 113.928 114.803 111.36 115.451 108.72C115.547 108.408 115.643 108.024 115.811 107.52ZM101.555 107.376L99.7793 108.072C100.259 108.912 101.555 112.224 101.915 113.472L103.739 112.8C103.283 111.552 102.035 108.408 101.555 107.376ZM132.419 101.352L130.187 100.632C130.043 101.256 129.683 102.12 129.443 102.528C128.411 104.688 126.035 108.168 121.907 110.64L123.563 111.888C126.179 110.136 128.195 108 129.659 105.984H137.771C137.267 108.168 135.803 111.264 133.931 113.472C131.747 116.016 128.747 118.2 124.355 119.496L126.083 121.056C130.595 119.4 133.451 117.192 135.635 114.528C137.771 111.936 139.259 108.696 139.907 106.272C140.027 105.888 140.267 105.336 140.459 105L138.851 104.016C138.467 104.184 137.939 104.256 137.291 104.256H130.787C131.003 103.92 131.195 103.584 131.363 103.248C131.579 102.792 132.011 101.976 132.419 101.352Z" fill="black"/>
</svg>
