<svg width="150" height="150" viewBox="0 0 150 150" fill="none" xmlns="http://www.w3.org/2000/svg">
<rect x="0.5" y="0.5" width="149" height="149" fill="white" stroke="black"/>
<path d="M120.833 25H29.1666V75H120.833V25ZM70.8333 54.1667H58.3333V66.6667H50V54.1667H37.5V45.8333H50V33.3333H58.3333V45.8333H70.8333V54.1667ZM89.5833 62.5C86.125 62.5 83.3333 59.7083 83.3333 56.25C83.3333 52.7917 86.125 50 89.5833 50C93.0416 50 95.8333 52.7917 95.8333 56.25C95.8333 59.7083 93.0416 62.5 89.5833 62.5ZM106.25 50C102.792 50 100 47.2083 100 43.75C100 40.2917 102.792 37.5 106.25 37.5C109.708 37.5 112.5 40.2917 112.5 43.75C112.5 47.2083 109.708 50 106.25 50Z" fill="black"/>
<path d="M33.24 103.04L31.968 103.592C32.616 104.504 33.432 105.944 33.912 106.904L35.208 106.328C34.728 105.368 33.84 103.904 33.24 103.04ZM35.88 102.08L34.608 102.632C35.304 103.52 36.072 104.888 36.6 105.92L37.896 105.344C37.44 104.456 36.528 102.968 35.88 102.08ZM24.552 103.928L22.224 103.472C22.176 104.096 22.056 104.768 21.864 105.392C21.6 106.328 21.168 107.552 20.52 108.752C19.68 110.216 17.976 112.664 16.248 113.912L18.144 115.04C19.536 113.888 21.168 111.704 22.128 109.904H28.296C27.936 116 25.344 119.144 22.992 120.92C22.464 121.352 21.744 121.76 21.048 122.024L23.088 123.416C27.216 120.776 29.904 116.768 30.288 109.904H34.368C34.92 109.904 35.856 109.928 36.6 109.976V107.912C35.904 108.008 34.944 108.032 34.368 108.032H23.016C23.4 107.168 23.688 106.304 23.928 105.608C24.096 105.128 24.336 104.48 24.552 103.928ZM41.448 111.608V113.96C42.192 113.888 43.464 113.84 44.784 113.84H57.96C59.04 113.84 60.048 113.936 60.528 113.96V111.608C60 111.656 59.136 111.728 57.936 111.728H44.784C43.44 111.728 42.168 111.656 41.448 111.608ZM69.888 103.832L69.192 105.608C72.504 106.04 78.792 107.408 81.72 108.464L82.488 106.616C79.464 105.56 73.008 104.216 69.888 103.832ZM68.808 110.168L68.088 111.968C71.496 112.472 77.352 113.792 80.136 114.896L80.904 113.048C77.904 111.944 72.096 110.72 68.808 110.168ZM67.488 117.152L66.744 118.976C70.632 119.6 77.76 121.208 80.952 122.6L81.768 120.752C78.48 119.432 71.52 117.776 67.488 117.152ZM92.448 104.408L91.08 105.872C92.856 107.072 95.856 109.64 97.056 110.888L98.568 109.376C97.224 108.032 94.152 105.536 92.448 104.408ZM90.384 120.488L91.656 122.456C95.664 121.712 98.688 120.248 101.088 118.736C104.712 116.456 107.52 113.192 109.152 110.192L108 108.152C106.608 111.104 103.68 114.656 99.984 116.984C97.704 118.4 94.584 119.864 90.384 120.488ZM129.36 102.8L128.088 103.352C128.736 104.24 129.552 105.704 130.032 106.664L131.328 106.088C130.824 105.104 129.96 103.664 129.36 102.8ZM132 101.84L130.728 102.392C131.4 103.28 132.192 104.648 132.72 105.68L134.016 105.104C133.56 104.216 132.624 102.728 132 101.84ZM122.904 103.952L120.696 103.208C120.552 103.832 120.192 104.696 119.952 105.128C118.896 107.264 116.544 110.768 112.416 113.24L114.072 114.464C116.712 112.736 118.704 110.6 120.168 108.56H128.256C127.776 110.744 126.288 113.864 124.44 116.048C122.256 118.616 119.256 120.776 114.84 122.072L116.592 123.656C121.08 121.976 123.96 119.792 126.144 117.128C128.28 114.512 129.744 111.272 130.392 108.848C130.512 108.464 130.752 107.912 130.944 107.576L129.36 106.616C128.976 106.76 128.448 106.832 127.8 106.832H121.296C121.488 106.496 121.68 106.16 121.848 105.824C122.088 105.392 122.52 104.576 122.904 103.952Z" fill="black"/>
</svg>
