<svg width="150" height="150" viewBox="0 0 150 151" fill="none" xmlns="http://www.w3.org/2000/svg">
<rect x="0.5" y="0.5" width="149" height="149" fill="white" stroke="black"/>
<g clip-path="url(#clip0)">
<path d="M71.5 60.1667C80.7047 60.1667 88.1667 52.7047 88.1667 43.5C88.1667 34.2952 80.7047 26.8333 71.5 26.8333C62.2952 26.8333 54.8333 34.2952 54.8333 43.5C54.8333 52.7047 62.2952 60.1667 71.5 60.1667Z" fill="black"/>
<path d="M71.5 68.5C60.375 68.5 38.1667 74.0833 38.1667 85.1667V93.5H104.833V85.1667C104.833 74.0833 82.625 68.5 71.5 68.5ZM103.833 28.3333L96.8333 35.375C100.333 40.2917 100.333 46.6667 96.8333 51.5833L103.833 58.625C112.25 50.2083 112.25 37.5 103.833 28.3333ZM117.625 14.3333L110.833 21.125C122.375 33.7083 122.375 52.625 110.833 65.875L117.625 72.6667C133.875 56.4583 133.917 31.2083 117.625 14.3333Z" fill="black"/>
</g>
<path d="M57.596 102.504H44.06V105.384H57.596V102.504ZM54.716 131.496V139.512H46.796V131.496H54.716ZM57.836 128.568H43.676V144.6H46.796V142.44H57.836V128.568ZM43.772 124.872H57.692V122.04H43.772V124.872ZM57.692 115.512H43.772V118.344H57.692V115.512ZM41.516 111.816H59.276V108.888H41.516V111.816ZM79.868 139.032H65.756V129.432H79.868V139.032ZM85.628 118.152V114.744H74.396V106.584C77.9 106.008 81.212 105.336 83.9 104.52L81.308 101.64C76.508 103.128 67.964 104.328 60.764 105.048C61.148 105.864 61.676 107.16 61.772 108.024C64.652 107.784 67.724 107.496 70.796 107.112V114.744H59.612V118.152H70.796V126.168H62.396V144.648H65.756V142.248H79.868V144.36H83.42V126.168H74.396V118.152H85.628ZM117.596 102.984H113.228C113.276 103.368 113.468 104.76 113.516 106.008C113.564 106.68 113.612 107.832 113.612 109.176C106.46 109.272 97.436 109.56 92.108 109.656L92.204 113.352C98.204 112.92 106.364 112.584 113.66 112.536C113.708 114.216 113.708 115.944 113.708 117.384C112.748 117.048 111.692 116.856 110.492 116.856C105.932 116.856 102.044 120.456 102.044 125.208C102.044 130.44 105.884 133.224 109.916 133.224C111.548 133.224 112.94 132.792 114.092 131.928C112.172 136.296 107.756 138.984 101.372 140.424L104.588 143.592C115.772 140.232 118.94 133.032 118.94 126.552C118.94 124.152 118.412 122.04 117.404 120.408C117.356 118.2 117.308 115.224 117.308 112.488C117.548 112.488 117.74 112.488 117.98 112.488C124.988 112.488 129.356 112.584 132.044 112.728L132.092 109.176C129.788 109.176 123.884 109.128 118.028 109.128C117.788 109.128 117.548 109.128 117.308 109.128C117.308 107.832 117.356 106.728 117.356 106.008C117.404 105.384 117.5 103.512 117.596 102.984ZM105.644 125.16C105.644 122.04 107.996 120.072 110.492 120.072C112.364 120.072 113.996 120.984 114.764 123.096C115.196 127.656 113.372 129.912 110.54 129.912C107.852 129.912 105.644 128.136 105.644 125.16Z" fill="black"/>
<defs>
<clipPath id="clip0">
<rect width="100" height="100" fill="white" transform="translate(34 6)"/>
</clipPath>
</defs>
</svg>

