<svg width="150" height="150" viewBox="0 0 150 150" fill="none" xmlns="http://www.w3.org/2000/svg">
<rect x="0.5" y="0.5" width="149" height="149" fill="white" stroke="black"/>
<path d="M71.6818 9C50.9735 9 34.1818 25.7917 34.1818 46.5V75.6667C34.1818 82.5833 39.7652 88.1667 46.6818 88.1667H59.1818V54.8333H42.5152V46.5C42.5152 30.375 55.5568 17.3333 71.6818 17.3333C87.8068 17.3333 100.848 30.375 100.848 46.5V54.8333H84.1818V88.1667H96.6818C103.598 88.1667 109.182 82.5833 109.182 75.6667V46.5C109.182 25.7917 92.3902 9 71.6818 9Z" fill="black"/>
<path d="M53.932 98.576V102.32H43.42V98.576H53.932ZM43.42 108.848V104.816H53.932V108.848H43.42ZM57.292 111.488V95.888H39.916V137.696H43.42V111.488H57.292ZM64.54 119.696H54.22V116.816H64.54V119.696ZM54.22 127.232H64.54V130.208C60.988 130.448 57.436 130.64 54.22 130.832V127.232ZM64.54 124.976H54.22V121.952H64.54V124.976ZM71.356 116.816V114.176H47.5V116.816H51.052V130.976C49.516 131.072 48.124 131.12 46.876 131.168L47.116 134.048C51.772 133.76 58.108 133.328 64.54 132.848V136.544H67.756V116.816H71.356ZM64.924 108.896V104.816H75.82V108.896H64.924ZM75.82 98.576V102.32H64.924V98.576H75.82ZM79.324 95.888H61.516V111.536H75.82V133.04C75.82 133.808 75.58 134.048 74.86 134.048C74.14 134.096 71.692 134.096 69.052 134C69.58 134.96 70.06 136.64 70.156 137.552C73.756 137.6 76.06 137.504 77.452 136.928C78.892 136.304 79.324 135.152 79.324 133.04V95.888ZM117.292 98.576L113.74 95.408C113.164 96.32 111.964 97.664 111.004 98.624C107.74 101.936 100.444 107.696 96.844 110.72C92.524 114.368 91.948 116.432 96.508 120.224C100.972 123.92 108.268 130.16 111.628 133.616C112.828 134.768 113.932 135.968 114.94 137.12L118.348 133.952C113.26 128.864 104.764 122 100.396 118.448C97.324 115.856 97.372 115.088 100.252 112.64C103.804 109.664 110.716 104.192 113.98 101.312C114.796 100.64 116.284 99.392 117.292 98.576Z" fill="black"/>
</svg>

