<svg width="150" height="150" viewBox="0 0 150 151" fill="none" xmlns="http://www.w3.org/2000/svg">
<rect x="0.5" y="0.5" width="149" height="149" fill="white" stroke="black"/>
<path d="M100 67C96.8333 67 94 68.25 91.8333 70.2083L62.125 52.9167C62.3333 51.9583 62.5 51 62.5 50C62.5 49 62.3333 48.0417 62.125 47.0833L91.5 29.9583C93.75 32.0417 96.7083 33.3333 100 33.3333C106.917 33.3333 112.5 27.75 112.5 20.8333C112.5 13.9167 106.917 8.33333 100 8.33333C93.0833 8.33333 87.5 13.9167 87.5 20.8333C87.5 21.8333 87.6667 22.7917 87.875 23.75L58.5 40.875C56.25 38.7917 53.2917 37.5 50 37.5C43.0833 37.5 37.5 43.0833 37.5 50C37.5 56.9167 43.0833 62.5 50 62.5C53.2917 62.5 56.25 61.2083 58.5 59.125L88.1667 76.4583C87.9583 77.3333 87.8333 78.25 87.8333 79.1667C87.8333 85.875 93.2917 91.3333 100 91.3333C106.708 91.3333 112.167 85.875 112.167 79.1667C112.167 72.4583 106.708 67 100 67Z" fill="black"/>
<path d="M42.888 131.976C40.2 135.576 34.824 139.752 30.12 142.2C30.984 142.872 32.28 144.024 32.952 144.744C37.752 141.96 43.176 137.544 46.584 133.416L42.888 131.976ZM55.176 133.752C59.688 137.112 65.448 141.864 68.28 144.696L71.64 142.488C68.616 139.656 62.664 135.048 58.248 131.928L55.176 133.752ZM44.184 114.408H57.816V125.736H44.184V114.408ZM61.464 125.736V114.408H70.968V110.952H61.464V101.256H57.816V110.952H44.184V101.256H40.584V110.952H31.464V114.408H40.584V125.736H29.544V129.192H72.696V125.736H61.464ZM110.856 124.008H90.84V119.16H110.856V124.008ZM90.84 132.12V127.08H110.856V132.12H90.84ZM119.976 110.376V107.016H95.544C96.264 105.288 96.84 103.464 97.416 101.688L93.864 100.824C93.288 102.888 92.568 104.952 91.752 107.016H78.216V110.376H90.264C87.192 116.712 82.824 122.472 77.064 126.36C77.784 127.032 78.888 128.328 79.368 129.096C82.392 126.984 85.032 124.392 87.336 121.56V144.648H90.84V135.192H110.856V140.184C110.856 140.904 110.568 141.144 109.752 141.192C108.888 141.192 106.008 141.24 102.84 141.096C103.32 142.104 103.848 143.544 103.992 144.6C108.072 144.6 110.76 144.552 112.344 143.976C113.88 143.4 114.36 142.344 114.36 140.184V115.944H91.224C92.28 114.168 93.24 112.248 94.152 110.376H119.976Z" fill="black"/>
</svg>

