<svg width="150" height="150" viewBox="0 0 150 150" fill="none" xmlns="http://www.w3.org/2000/svg">
<rect x="0.5" y="0.5" width="149" height="149" fill="white" stroke="black"/>
<path d="M77.7084 41.6667C74.2917 31.9583 65.0417 25 54.1667 25C40.375 25 29.1667 36.2083 29.1667 50C29.1667 63.7917 40.375 75 54.1667 75C65.0417 75 74.2917 68.0417 77.7084 58.3333H95.8334V75H112.5V58.3333H120.833V41.6667H77.7084ZM54.1667 58.3333C49.5834 58.3333 45.8334 54.5833 45.8334 50C45.8334 45.4167 49.5834 41.6667 54.1667 41.6667C58.75 41.6667 62.5 45.4167 62.5 50C62.5 54.5833 58.75 58.3333 54.1667 58.3333Z" fill="black"/>
<path d="M12.844 120.904C12.844 123.28 13.66 124.432 18.124 124.432C21.124 124.432 23.524 124.264 25.66 123.952L25.756 121.888C23.356 122.344 21.052 122.584 18.268 122.584C15.412 122.584 14.788 122.056 14.788 120.4V113.248C19.036 112.384 23.452 111.496 23.86 111.424C23.14 112.864 21.388 115.504 19.588 117.136L21.268 118.144C23.188 116.152 25.084 113.152 26.188 111.16C26.356 110.848 26.596 110.44 26.764 110.2L25.348 109.096C25.06 109.264 24.604 109.408 24.076 109.528C23.068 109.744 18.868 110.608 14.788 111.4V107.656C14.788 106.96 14.836 106.144 14.956 105.448H12.676C12.796 106.144 12.844 106.936 12.844 107.656V111.76C10.3 112.24 8.02 112.648 6.94 112.792L7.3 114.784C8.284 114.568 10.42 114.136 12.844 113.632V120.904ZM38.908 107.032C38.98 107.32 39.148 108.256 39.412 109.552C37.156 109.912 35.068 110.224 34.132 110.32C33.364 110.416 32.74 110.464 32.14 110.488L32.548 112.648C33.268 112.48 33.82 112.36 34.492 112.24C35.404 112.072 37.492 111.736 39.772 111.376C40.06 112.864 40.396 114.568 40.732 116.2C37.996 116.632 35.38 117.04 34.18 117.208C33.556 117.304 32.62 117.4 32.068 117.424L32.5 119.512C33.004 119.368 33.676 119.248 34.612 119.08C35.788 118.864 38.356 118.432 41.068 117.976C41.524 120.352 41.908 122.296 42.004 122.824C42.172 123.544 42.244 124.264 42.364 125.08L44.548 124.672C44.332 124 44.14 123.184 43.972 122.488C43.852 121.936 43.468 120.016 42.988 117.664C45.34 117.304 47.572 116.944 48.892 116.728C49.78 116.584 50.548 116.464 51.052 116.416L50.668 114.4C50.14 114.544 49.468 114.688 48.532 114.856C47.332 115.072 45.052 115.48 42.628 115.864C42.316 114.256 41.98 112.552 41.668 111.064C43.972 110.704 46.156 110.344 47.26 110.176C47.884 110.08 48.628 109.984 48.988 109.936L48.58 107.92C48.172 108.04 47.572 108.208 46.876 108.328C45.868 108.52 43.66 108.88 41.332 109.264C41.044 107.92 40.876 106.936 40.828 106.672C40.756 106.144 40.636 105.472 40.612 105.016L38.452 105.4C38.62 105.88 38.788 106.408 38.908 107.032ZM71.188 112.576L69.724 111.88C69.508 111.976 68.908 112.048 68.524 112.048H61.228C60.628 112.048 59.908 111.976 59.332 111.904V113.92C59.932 113.896 60.556 113.848 61.252 113.848H68.884C68.812 115.216 68.116 119.896 67.756 121.912H59.068C58.348 121.912 57.652 121.864 57.076 121.816V123.808C57.772 123.76 58.324 123.736 59.068 123.736H72.22C72.724 123.736 73.612 123.76 74.044 123.784V121.84C73.54 121.888 72.676 121.912 72.148 121.912H69.796C70.132 119.704 70.828 114.952 71.02 113.32C71.044 113.128 71.116 112.816 71.188 112.576ZM96.124 105.784H93.868C93.94 106.384 93.988 107.056 93.988 107.872V111.664C93.988 116.2 93.7 118.144 91.996 120.136C90.508 121.816 88.468 122.776 86.26 123.328L87.82 124.984C89.572 124.384 91.972 123.352 93.532 121.48C95.26 119.416 96.052 117.52 96.052 111.76V107.872C96.052 107.056 96.076 106.384 96.124 105.784ZM84.988 105.976H82.804C82.852 106.432 82.9 107.272 82.9 107.704V115.696C82.9 116.416 82.828 117.184 82.78 117.544H84.988C84.94 117.112 84.892 116.32 84.892 115.72V107.704C84.892 107.128 84.94 106.432 84.988 105.976ZM106.66 106.24V108.232C107.26 108.184 108.052 108.16 108.844 108.16H118.54C119.236 108.16 120.076 108.184 120.772 108.232V106.24C120.076 106.336 119.212 106.384 118.54 106.384H108.82C108.052 106.384 107.332 106.312 106.66 106.24ZM103.78 112.264V114.256C104.452 114.208 105.148 114.208 105.868 114.208H113.068C112.996 116.464 112.732 118.48 111.676 120.16C110.74 121.672 109.012 123.064 107.14 123.832L108.916 125.152C110.956 124.096 112.78 122.368 113.644 120.76C114.604 118.984 114.988 116.8 115.06 114.208H121.588C122.164 114.208 122.932 114.232 123.46 114.256V112.264C122.884 112.36 122.092 112.384 121.588 112.384H105.868C105.124 112.384 104.452 112.336 103.78 112.264ZM127.564 115.336L128.524 117.208C131.86 116.176 135.148 114.736 137.668 113.296V122.176C137.668 123.088 137.596 124.288 137.524 124.744H139.876C139.78 124.264 139.732 123.088 139.732 122.176V112.048C142.18 110.416 144.388 108.592 146.212 106.696L144.604 105.208C142.948 107.2 140.548 109.288 138.052 110.848C135.388 112.528 131.716 114.208 127.564 115.336Z" fill="black"/>
</svg>
