<svg width="150" height="150" viewBox="0 0 150 150" fill="none" xmlns="http://www.w3.org/2000/svg">
<rect x="0.5" y="0.5" width="149" height="149" fill="white" stroke="black"/>
<path d="M87.5 37.5H62.5V62.5H87.5V37.5ZM79.1667 54.1667H70.8333V45.8333H79.1667V54.1667ZM112.5 45.8333V37.5H104.167V29.1667C104.167 24.5833 100.417 20.8333 95.8333 20.8333H87.5V12.5H79.1667V20.8333H70.8333V12.5H62.5V20.8333H54.1667C49.5833 20.8333 45.8333 24.5833 45.8333 29.1667V37.5H37.5V45.8333H45.8333V54.1667H37.5V62.5H45.8333V70.8333C45.8333 75.4167 49.5833 79.1667 54.1667 79.1667H62.5V87.5H70.8333V79.1667H79.1667V87.5H87.5V79.1667H95.8333C100.417 79.1667 104.167 75.4167 104.167 70.8333V62.5H112.5V54.1667H104.167V45.8333H112.5ZM95.8333 70.8333H54.1667V29.1667H95.8333V70.8333Z" fill="black"/>
<path d="M34.344 117.904C34.344 120.28 35.16 121.432 39.624 121.432C42.624 121.432 45.024 121.264 47.16 120.952L47.256 118.888C44.856 119.344 42.552 119.584 39.768 119.584C36.912 119.584 36.288 119.056 36.288 117.4V110.248C40.536 109.384 44.952 108.496 45.36 108.424C44.64 109.864 42.888 112.504 41.088 114.136L42.768 115.144C44.688 113.152 46.584 110.152 47.688 108.16C47.856 107.848 48.096 107.44 48.264 107.2L46.848 106.096C46.56 106.264 46.104 106.408 45.576 106.528C44.568 106.744 40.368 107.608 36.288 108.4V104.656C36.288 103.96 36.336 103.144 36.456 102.448H34.176C34.296 103.144 34.344 103.936 34.344 104.656V108.76C31.8 109.24 29.52 109.648 28.44 109.792L28.8 111.784C29.784 111.568 31.92 111.136 34.344 110.632V117.904ZM57.888 102.832L57.192 104.608C60.504 105.04 66.792 106.408 69.72 107.464L70.488 105.616C67.464 104.56 61.008 103.216 57.888 102.832ZM56.808 109.168L56.088 110.968C59.496 111.472 65.352 112.792 68.136 113.896L68.904 112.048C65.904 110.944 60.096 109.72 56.808 109.168ZM55.488 116.152L54.744 117.976C58.632 118.6 65.76 120.208 68.952 121.6L69.768 119.752C66.48 118.432 59.52 116.776 55.488 116.152ZM79.128 104.536V106.672C79.68 106.648 80.88 106.6 81.768 106.6H93.264V117.928H81.48C80.472 117.928 79.44 117.856 78.816 117.784V119.968C79.464 119.92 80.544 119.872 81.528 119.872H93.264C93.24 120.448 93.24 120.952 93.216 121.216H95.376C95.352 120.832 95.28 119.752 95.28 118.888V106.504C95.28 105.928 95.328 105.184 95.352 104.632C94.872 104.656 94.152 104.68 93.576 104.68H81.744C80.976 104.68 79.92 104.632 79.128 104.536ZM104.448 103.408L103.08 104.872C104.856 106.072 107.856 108.64 109.056 109.888L110.568 108.376C109.224 107.032 106.152 104.536 104.448 103.408ZM102.384 119.488L103.656 121.456C107.664 120.712 110.688 119.248 113.088 117.736C116.712 115.456 119.52 112.192 121.152 109.192L120 107.152C118.608 110.104 115.68 113.656 111.984 115.984C109.704 117.4 106.584 118.864 102.384 119.488Z" fill="black"/>
</svg>
