<svg width="150" height="150" viewBox="0 0 150 150" fill="none" xmlns="http://www.w3.org/2000/svg">
<rect x="0.5" y="0.5" width="149" height="149" fill="white" stroke="black"/>
<path d="M116.667 16.6667H33.3333V83.3333H116.667V16.6667ZM108.333 75H41.6666V50H108.333V75ZM108.333 33.3333H41.6666V25H108.333V33.3333Z" fill="black"/>
<path d="M56.376 111.76C55.152 114.136 53.304 115.984 51.024 117.4C48.864 115.912 47.184 114.04 46.032 111.76H56.376ZM57.72 109.936L57.384 110.008H51.864V106.312H61.008V104.584H51.864V100.936H50.04V104.584H40.944V106.312H50.04V110.008H42.024V111.76H45.816L44.376 112.264C45.6 114.712 47.256 116.728 49.344 118.36C46.608 119.728 43.416 120.616 40.032 121.144C40.368 121.528 40.848 122.368 40.992 122.824C44.592 122.176 48 121.12 50.952 119.488C53.664 121.168 56.976 122.296 60.864 122.896C61.104 122.392 61.584 121.6 61.992 121.216C58.392 120.736 55.248 119.8 52.68 118.408C55.416 116.512 57.6 114.016 58.944 110.68L57.72 109.936ZM73.416 111.232L69.72 112.144V107.464H73.224V105.808H69.72V100.912H68.016V105.808H64.2V107.464H68.016V112.552C66.432 112.936 64.992 113.272 63.864 113.512L64.296 115.264C65.4 114.976 66.672 114.64 68.016 114.304V120.64C68.016 121.048 67.872 121.144 67.512 121.168C67.152 121.192 65.904 121.216 64.608 121.168C64.848 121.624 65.064 122.392 65.16 122.848C66.984 122.848 68.112 122.8 68.784 122.536C69.48 122.248 69.72 121.744 69.72 120.64V113.848C70.992 113.512 72.312 113.176 73.584 112.84L73.416 111.232ZM86.184 122.128C85.488 119.464 83.496 115.264 81.528 112.024L80.016 112.624C81.192 114.592 82.344 116.968 83.208 119.104C80.4 119.44 77.568 119.752 75.096 120.04C76.632 114.952 78.336 107.68 79.416 101.92L77.496 101.584C76.584 107.368 74.808 115.144 73.248 120.232C72.36 120.352 71.544 120.424 70.824 120.496L71.208 122.344C74.496 121.936 79.296 121.312 83.832 120.688C84.12 121.456 84.336 122.2 84.504 122.824L86.184 122.128ZM92.352 104.248L90.024 104.2C90.168 104.776 90.192 105.784 90.192 106.336C90.192 107.728 90.24 110.656 90.456 112.744C91.104 118.96 93.288 121.216 95.568 121.216C97.176 121.216 98.64 119.824 100.08 115.744L98.568 114.04C97.944 116.44 96.816 118.936 95.592 118.936C93.888 118.936 92.712 116.272 92.328 112.264C92.16 110.272 92.136 108.088 92.16 106.576C92.16 105.952 92.256 104.824 92.352 104.248ZM104.856 104.92L102.984 105.568C105.288 108.376 106.728 113.296 107.16 117.64L109.08 116.848C108.72 112.792 106.992 107.704 104.856 104.92Z" fill="black"/>
</svg>
