<svg width="150" height="150" viewBox="0 0 150 150" fill="none" xmlns="http://www.w3.org/2000/svg">
<rect x="0.5" y="0.5" width="149" height="149" fill="white" stroke="black"/>
<path d="M115.875 54.0833L112.458 51.4583C112.458 51.0833 112.458 50.9167 112.458 50.5417L115.792 47.9167C116.458 47.4167 116.625 46.5 116.208 45.7917L112.667 39.625C112.375 39.0833 111.792 38.7917 111.208 38.7917C111 38.7917 110.792 38.8333 110.583 38.9167L106.625 40.5C106.292 40.2917 106.167 40.2083 105.833 40.0417L105.208 35.8333C105.083 34.9583 104.375 34.3333 103.542 34.3333H96.4167C95.5834 34.3333 94.875 34.9583 94.75 35.75L94.1667 39.9583C94.0417 40.0417 93.875 40.0833 93.75 40.1667C93.625 40.25 93.5 40.3333 93.375 40.4167L89.4167 38.8333C89.2084 38.75 89 38.7083 88.7917 38.7083C88.2084 38.7083 87.6667 39 87.3334 39.5417L83.7917 45.7083C83.375 46.4167 83.5417 47.3333 84.2084 47.8333L87.5417 50.4583C87.5417 50.8333 87.5417 51 87.5417 51.4167L84.2084 54.0417C83.5417 54.5417 83.375 55.4583 83.7917 56.1667L87.3334 62.3333C87.625 62.875 88.2084 63.1667 88.7917 63.1667C89 63.1667 89.2084 63.125 89.4167 63.0417L93.375 61.5C93.7084 61.7083 93.875 61.7917 94.2084 61.9583L94.8334 66.1667C94.9584 67 95.6667 67.5833 96.5 67.5833H103.625C104.458 67.5833 105.167 66.9583 105.292 66.1667L105.917 61.9583C106.042 61.875 106.208 61.8333 106.333 61.75C106.458 61.6667 106.583 61.5833 106.708 61.5L110.667 63.0833C110.875 63.1667 111.083 63.2083 111.292 63.2083C111.875 63.2083 112.417 62.9167 112.75 62.375L116.292 56.2083C116.708 55.5 116.542 54.5833 115.875 54.0833ZM100 57.25C96.5417 57.25 93.75 54.4583 93.75 51C93.75 47.5417 96.5417 44.75 100 44.75C103.458 44.75 106.25 47.5417 106.25 51C106.25 54.4583 103.458 57.25 100 57.25ZM45.8334 96.8333V5.16666H104.167V30.1667H95.8334V26H54.1667V76H95.8334V71.8333H104.167V96.8333H45.8334Z" fill="black"/>
<path d="M45.336 121.136L47.136 122.648C51.048 120.848 53.76 118.136 55.632 115.256C57.384 112.544 58.344 109.544 58.92 106.688C59.016 106.256 59.208 105.416 59.4 104.792L57 104.456C57.024 104.888 56.928 105.8 56.808 106.424C56.424 108.656 55.656 111.512 53.808 114.248C52.032 116.912 49.32 119.504 45.336 121.136ZM43.872 104.744L41.976 105.704C42.96 107.096 44.952 110.504 45.984 112.64L47.904 111.56C47.04 110 44.928 106.304 43.872 104.744ZM83.664 106.04L82.2 105.104C81.744 105.224 81.288 105.224 80.928 105.224H68.88C68.088 105.224 67.152 105.152 66.48 105.08V107.192C67.104 107.168 67.92 107.12 68.88 107.12H81.144C80.808 109.424 79.704 112.76 78 114.944C75.984 117.512 73.296 119.552 68.64 120.728L70.272 122.528C74.688 121.136 77.544 118.904 79.728 116.096C81.624 113.624 82.8 109.76 83.304 107.24C83.4 106.784 83.496 106.376 83.664 106.04ZM95.088 119.888C95.088 120.776 95.04 121.952 94.92 122.72H97.248C97.152 121.928 97.104 120.632 97.104 119.888C97.104 119.192 97.104 115.568 97.08 111.968C99.744 112.808 103.896 114.416 106.512 115.832L107.328 113.792C104.808 112.52 100.248 110.792 97.08 109.832C97.08 108.32 97.08 106.928 97.08 105.92C97.08 105.2 97.176 104.168 97.248 103.424H94.896C95.04 104.168 95.088 105.248 95.088 105.92V119.888Z" fill="black"/>
</svg>
