<svg width="150" height="150" viewBox="0 0 150 150" fill="none" xmlns="http://www.w3.org/2000/svg">
<rect x="0.5" y="0.5" width="149" height="149" fill="white" stroke="black"/>
<path d="M87.5 25H37.5V33.3333H87.5V25ZM87.5 41.6667H37.5V50H87.5V41.6667ZM37.5 66.6667H70.8333V58.3333H37.5V66.6667ZM95.8333 25V59.0833C94.5417 58.625 93.125 58.3333 91.6667 58.3333C84.75 58.3333 79.1667 63.9167 79.1667 70.8333C79.1667 77.75 84.75 83.3333 91.6667 83.3333C98.5833 83.3333 104.167 77.75 104.167 70.8333V33.3333H116.667V25H95.8333Z" fill="black"/>
<path d="M31.5633 108.944L30.3393 108.008C29.9553 108.128 29.3313 108.2 28.5393 108.2H19.2753C18.5553 108.2 17.1873 108.104 16.8513 108.056V110.24C17.1153 110.216 18.4353 110.12 19.2753 110.12H28.6353C28.0353 112.112 26.2833 114.944 24.6513 116.792C22.1793 119.552 18.6273 122.408 14.7633 123.92L16.2993 125.528C19.8513 123.92 23.0913 121.28 25.6593 118.52C28.1073 120.704 30.6513 123.536 32.2593 125.648L33.9393 124.208C32.3793 122.312 29.4513 119.192 26.9313 117.032C28.6353 114.872 30.1473 112.064 30.9633 110C31.1073 109.664 31.4193 109.136 31.5633 108.944ZM44.4513 122.888C44.4513 123.776 44.4033 124.952 44.2833 125.72H46.6113C46.5153 124.928 46.4673 123.632 46.4673 122.888C46.4673 122.192 46.4673 118.568 46.4433 114.968C49.1073 115.808 53.2593 117.416 55.8753 118.832L56.6913 116.792C54.1713 115.52 49.6113 113.792 46.4433 112.832C46.4433 111.32 46.4433 109.928 46.4433 108.92C46.4433 108.2 46.5393 107.168 46.6113 106.424H44.2593C44.4033 107.168 44.4513 108.248 44.4513 108.92V122.888ZM78.9873 106.784H76.7313C76.8033 107.384 76.8513 108.056 76.8513 108.872V112.664C76.8513 117.2 76.5633 119.144 74.8593 121.136C73.3713 122.816 71.3313 123.776 69.1233 124.328L70.6833 125.984C72.4353 125.384 74.8353 124.352 76.3953 122.48C78.1233 120.416 78.9153 118.52 78.9153 112.76V108.872C78.9153 108.056 78.9393 107.384 78.9873 106.784ZM67.8513 106.976H65.6673C65.7153 107.432 65.7633 108.272 65.7633 108.704V116.696C65.7633 117.416 65.6913 118.184 65.6433 118.544H67.8513C67.8033 118.112 67.7553 117.32 67.7553 116.72V108.704C67.7553 108.128 67.8033 107.432 67.8513 106.976ZM86.8113 114.608V116.96C87.5553 116.888 88.8273 116.84 90.1473 116.84H103.323C104.403 116.84 105.411 116.936 105.891 116.96V114.608C105.363 114.656 104.499 114.728 103.299 114.728H90.1473C88.8033 114.728 87.5313 114.656 86.8113 114.608ZM120.165 107.096L117.765 106.616C117.693 107.24 117.597 107.816 117.309 108.92C116.637 111.272 114.189 118.952 112.845 122.264C112.413 122.288 112.005 122.312 111.645 122.336C110.949 122.36 110.133 122.384 109.413 122.36L109.773 124.592C110.469 124.496 111.165 124.376 111.765 124.328C114.981 124.04 123.021 123.152 126.717 122.672C127.269 123.848 127.725 124.952 128.037 125.816L130.053 124.904C129.045 122.432 126.429 117.608 124.725 115.136L122.925 115.952C123.813 117.104 124.893 118.976 125.853 120.872C123.213 121.232 118.605 121.736 115.077 122.072C116.277 118.952 118.653 111.584 119.349 109.328C119.661 108.32 119.925 107.696 120.165 107.096Z" fill="black"/>
</svg>
