<svg viewBox="0 0 508 122" fill="none" xmlns="http://www.w3.org/2000/svg">
<rect x="0.5" y="0.5" width="507" height="121" fill="white" stroke="black"/>
<path d="M60.7084 50.6667C57.2917 40.9583 48.0418 34 37.1667 34C23.3751 34 12.1667 45.2083 12.1667 59C12.1667 72.7917 23.3751 84 37.1667 84C48.0418 84 57.2917 77.0417 60.7084 67.3333H78.8334V84H95.5001V67.3333H103.833V50.6667H60.7084ZM37.1667 67.3333C32.5834 67.3333 28.8334 63.5833 28.8334 59C28.8334 54.4167 32.5834 50.6667 37.1667 50.6667C41.7501 50.6667 45.5001 54.4167 45.5001 59C45.5001 63.5833 41.7501 67.3333 37.1667 67.3333Z" fill="black"/>
<path d="M191.982 19.984C193.23 19.984 194.574 20.112 196.014 20.368C197.486 20.592 198.35 20.72 198.606 20.752L198.51 24.352C195.694 23.84 193.518 23.584 191.982 23.584C189.806 23.584 188.238 24.032 187.278 24.928C186.318 25.824 185.838 27.312 185.838 29.392V43.12C185.838 45.2 186.302 46.688 187.23 47.584C188.19 48.448 189.774 48.88 191.982 48.88C193.518 48.88 195.694 48.624 198.51 48.112L198.606 51.808C198.35 51.84 197.486 51.968 196.014 52.192C194.574 52.448 193.23 52.576 191.982 52.576C188.302 52.576 185.678 51.792 184.11 50.224C182.542 48.656 181.758 46.208 181.758 42.88V29.68C181.758 26.352 182.542 23.904 184.11 22.336C185.678 20.768 188.302 19.984 191.982 19.984ZM210.801 28C213.553 28 215.553 28.624 216.801 29.872C218.081 31.088 218.721 33.04 218.721 35.728V52H214.833V48.256C212.977 51.136 210.881 52.576 208.545 52.576C206.689 52.576 205.201 51.936 204.081 50.656C202.993 49.376 202.449 47.632 202.449 45.424V44.08C202.449 42.16 203.105 40.576 204.417 39.328C205.729 38.048 207.489 37.408 209.697 37.408C210.913 37.408 212.561 37.616 214.641 38.032V35.392C214.641 34.016 214.321 33.024 213.681 32.416C213.073 31.808 212.113 31.504 210.801 31.504C209.265 31.504 207.105 31.744 204.321 32.224V28.72C207.329 28.24 209.489 28 210.801 28ZM210.705 40.576C209.361 40.576 208.337 40.928 207.633 41.632C206.929 42.336 206.577 43.328 206.577 44.608V45.136C206.577 46.32 206.849 47.248 207.393 47.92C207.937 48.592 208.625 48.928 209.457 48.928C210.321 48.928 211.201 48.56 212.097 47.824C213.025 47.056 213.873 45.984 214.641 44.608V40.912C213.425 40.688 212.113 40.576 210.705 40.576ZM235.436 28C237.484 28 239.052 28.704 240.14 30.112C241.26 31.488 241.82 33.456 241.82 36.016V52H237.74V36.592C237.74 33.392 236.7 31.792 234.62 31.792C233.692 31.792 232.748 32.144 231.788 32.848C230.828 33.552 229.996 34.512 229.292 35.728V52H225.212V28.576H229.052V32.08C229.916 30.768 230.876 29.76 231.932 29.056C233.02 28.352 234.188 28 235.436 28ZM261.5 20.56V52H257.42V20.56H261.5ZM305.326 28.576L299.902 52H294.766L290.014 32.128L285.214 52H280.078L274.702 28.576H279.022L282.814 48.4L287.374 28.576H292.654L297.166 48.4L301.006 28.576H305.326ZM317.601 28C320.449 28 322.561 28.768 323.937 30.304C325.345 31.808 326.049 33.952 326.049 36.736V43.84C326.049 46.624 325.345 48.784 323.937 50.32C322.561 51.824 320.449 52.576 317.601 52.576C314.753 52.576 312.625 51.824 311.217 50.32C309.841 48.784 309.153 46.624 309.153 43.84V36.736C309.153 33.952 309.841 31.808 311.217 30.304C312.625 28.768 314.753 28 317.601 28ZM317.601 31.408C316.225 31.408 315.153 31.84 314.385 32.704C313.617 33.568 313.233 34.8 313.233 36.4V44.176C313.233 45.776 313.617 47.008 314.385 47.872C315.153 48.736 316.225 49.168 317.601 49.168C318.977 49.168 320.049 48.736 320.817 47.872C321.585 47.008 321.969 45.776 321.969 44.176V36.352C321.969 34.752 321.585 33.536 320.817 32.704C320.049 31.84 318.977 31.408 317.601 31.408ZM342.498 28C342.946 28 343.298 28.032 343.554 28.096V32.704C343.074 32.608 342.45 32.56 341.682 32.56C339.442 32.56 337.666 33.68 336.354 35.92V52H332.274V28.576H336.114V32.08C336.978 30.768 337.938 29.76 338.994 29.056C340.082 28.352 341.25 28 342.498 28ZM351.963 19.216V38.848L359.643 28.576H364.203L356.235 38.848L364.779 52H359.883L351.963 39.424V52H347.883V19.216H351.963ZM384.145 28C386.897 28 388.897 28.624 390.145 29.872C391.425 31.088 392.065 33.04 392.065 35.728V52H388.177V48.256C386.321 51.136 384.225 52.576 381.889 52.576C380.033 52.576 378.545 51.936 377.425 50.656C376.337 49.376 375.793 47.632 375.793 45.424V44.08C375.793 42.16 376.449 40.576 377.761 39.328C379.073 38.048 380.833 37.408 383.041 37.408C384.257 37.408 385.905 37.616 387.985 38.032V35.392C387.985 34.016 387.665 33.024 387.025 32.416C386.417 31.808 385.457 31.504 384.145 31.504C382.609 31.504 380.449 31.744 377.665 32.224V28.72C380.673 28.24 382.833 28 384.145 28ZM384.049 40.576C382.705 40.576 381.681 40.928 380.977 41.632C380.273 42.336 379.921 43.328 379.921 44.608V45.136C379.921 46.32 380.193 47.248 380.737 47.92C381.281 48.592 381.969 48.928 382.801 48.928C383.665 48.928 384.545 48.56 385.441 47.824C386.369 47.056 387.217 45.984 387.985 44.608V40.912C386.769 40.688 385.457 40.576 384.049 40.576ZM403.355 28.576H409.595V31.936H403.355V45.664C403.355 46.88 403.595 47.76 404.075 48.304C404.587 48.816 405.371 49.072 406.427 49.072C407.771 49.072 409.083 48.912 410.363 48.592L410.459 52C409.051 52.384 407.771 52.576 406.619 52.576C404.059 52.576 402.187 52.016 401.003 50.896C399.851 49.744 399.275 47.888 399.275 45.328V31.936H395.915V28.576H399.275L400.043 22.336H403.355V28.576ZM430.551 28C433.303 28 435.303 28.624 436.551 29.872C437.831 31.088 438.471 33.04 438.471 35.728V52H434.583V48.256C432.727 51.136 430.631 52.576 428.295 52.576C426.439 52.576 424.951 51.936 423.831 50.656C422.743 49.376 422.199 47.632 422.199 45.424V44.08C422.199 42.16 422.855 40.576 424.167 39.328C425.479 38.048 427.239 37.408 429.447 37.408C430.663 37.408 432.311 37.616 434.391 38.032V35.392C434.391 34.016 434.071 33.024 433.431 32.416C432.823 31.808 431.863 31.504 430.551 31.504C429.015 31.504 426.855 31.744 424.071 32.224V28.72C427.079 28.24 429.239 28 430.551 28ZM430.455 40.576C429.111 40.576 428.087 40.928 427.383 41.632C426.679 42.336 426.327 43.328 426.327 44.608V45.136C426.327 46.32 426.599 47.248 427.143 47.92C427.687 48.592 428.375 48.928 429.207 48.928C430.071 48.928 430.951 48.56 431.847 47.824C432.775 47.056 433.623 45.984 434.391 44.608V40.912C433.175 40.688 431.863 40.576 430.455 40.576ZM142.998 70.984C144.246 70.984 145.59 71.112 147.03 71.368C148.502 71.592 149.366 71.72 149.622 71.752L149.526 75.352C146.71 74.84 144.534 74.584 142.998 74.584C140.822 74.584 139.254 75.032 138.294 75.928C137.334 76.824 136.854 78.312 136.854 80.392V94.12C136.854 96.2 137.318 97.688 138.246 98.584C139.206 99.448 140.79 99.88 142.998 99.88C144.534 99.88 146.71 99.624 149.526 99.112L149.622 102.808C149.366 102.84 148.502 102.968 147.03 103.192C145.59 103.448 144.246 103.576 142.998 103.576C139.318 103.576 136.694 102.792 135.126 101.224C133.558 99.656 132.774 97.208 132.774 93.88V80.68C132.774 77.352 133.558 74.904 135.126 73.336C136.694 71.768 139.318 70.984 142.998 70.984ZM172.69 79.576L161.938 111.88H157.858L160.93 103H159.394L152.722 79.576H157.186L162.226 100.072L168.466 79.576H172.69ZM180.348 82.696C181.18 81.512 182.14 80.6 183.228 79.96C184.316 79.32 185.452 79 186.636 79C188.62 79 190.156 79.704 191.244 81.112C192.332 82.488 192.876 84.504 192.876 87.16V94.744C192.876 97.656 192.188 99.864 190.812 101.368C189.436 102.84 187.308 103.576 184.428 103.576C181.612 103.576 179.548 102.856 178.236 101.416C176.924 99.976 176.268 97.784 176.268 94.84V70.216H180.348V82.696ZM185.676 82.648C184.748 82.648 183.804 83 182.844 83.704C181.884 84.408 181.052 85.368 180.348 86.584V95.32C180.348 96.888 180.7 98.088 181.404 98.92C182.14 99.752 183.148 100.168 184.428 100.168C187.34 100.168 188.796 98.52 188.796 95.224V87.736C188.796 84.344 187.756 82.648 185.676 82.648ZM206.782 79C209.47 79 211.518 79.736 212.926 81.208C214.334 82.68 215.038 84.808 215.038 87.592V92.536H202.702V95.368C202.702 97 203.086 98.184 203.854 98.92C204.654 99.624 205.902 99.976 207.598 99.976C209.262 99.976 211.342 99.72 213.838 99.208L213.934 102.76C210.958 103.304 208.83 103.576 207.55 103.576C204.382 103.576 202.094 102.888 200.686 101.512C199.31 100.136 198.622 98.008 198.622 95.128V87.592C198.622 84.808 199.294 82.68 200.638 81.208C202.014 79.736 204.062 79 206.782 79ZM206.782 82.408C205.534 82.408 204.542 82.808 203.806 83.608C203.07 84.376 202.702 85.496 202.702 86.968V89.272H210.958V87.112C210.958 85.576 210.574 84.408 209.806 83.608C209.07 82.808 208.062 82.408 206.782 82.408ZM230.795 79C231.243 79 231.595 79.032 231.851 79.096V83.704C231.371 83.608 230.747 83.56 229.979 83.56C227.739 83.56 225.963 84.68 224.651 86.92V103H220.571V79.576H224.411V83.08C225.275 81.768 226.235 80.76 227.291 80.056C228.379 79.352 229.547 79 230.795 79ZM243.51 79C244.854 79 246.47 79.192 248.358 79.576L248.262 83.032C246.598 82.648 245.078 82.456 243.702 82.456C240.822 82.456 239.382 83.384 239.382 85.24V85.672C239.382 86.248 239.526 86.712 239.814 87.064C240.134 87.416 240.694 87.784 241.494 88.168L246.006 90.28C248.726 91.56 250.086 93.432 250.086 95.896V96.952C250.054 99.16 249.382 100.824 248.07 101.944C246.79 103.032 244.758 103.576 241.974 103.576C240.534 103.576 238.47 103.24 235.782 102.568L235.974 98.92C238.374 99.624 240.342 99.976 241.878 99.976C243.446 99.976 244.534 99.768 245.142 99.352C245.75 98.904 246.054 98.184 246.054 97.192V96.712C246.054 95.944 245.894 95.336 245.574 94.888C245.286 94.44 244.79 94.056 244.086 93.736L239.43 91.672C238.022 91.032 236.982 90.264 236.31 89.368C235.67 88.472 235.35 87.432 235.35 86.248V85.576C235.414 83.4 236.086 81.768 237.366 80.68C238.678 79.56 240.726 79 243.51 79ZM262.798 79C265.486 79 267.534 79.736 268.942 81.208C270.35 82.68 271.054 84.808 271.054 87.592V92.536H258.718V95.368C258.718 97 259.102 98.184 259.87 98.92C260.67 99.624 261.918 99.976 263.614 99.976C265.278 99.976 267.358 99.72 269.854 99.208L269.95 102.76C266.974 103.304 264.846 103.576 263.566 103.576C260.398 103.576 258.11 102.888 256.702 101.512C255.326 100.136 254.638 98.008 254.638 95.128V87.592C254.638 84.808 255.31 82.68 256.654 81.208C258.03 79.736 260.078 79 262.798 79ZM262.798 82.408C261.55 82.408 260.558 82.808 259.822 83.608C259.086 84.376 258.718 85.496 258.718 86.968V89.272H266.974V87.112C266.974 85.576 266.59 84.408 265.822 83.608C265.086 82.808 264.078 82.408 262.798 82.408ZM284.795 79C286.235 79 287.867 79.208 289.691 79.624L289.595 83.224C287.739 82.808 286.139 82.6 284.795 82.6C283.291 82.6 282.139 83.016 281.339 83.848C280.571 84.68 280.187 85.864 280.187 87.4V95.128C280.187 96.728 280.587 97.944 281.387 98.776C282.219 99.576 283.355 99.976 284.795 99.976C285.691 99.976 286.475 99.928 287.147 99.832C287.819 99.736 288.635 99.576 289.595 99.352L289.691 102.952C287.739 103.368 286.091 103.576 284.747 103.576C278.987 103.576 276.107 100.664 276.107 94.84V87.736C276.107 81.912 279.003 79 284.795 79ZM311.61 103H307.77V99.64C306.906 100.92 305.946 101.896 304.89 102.568C303.834 103.24 302.714 103.576 301.53 103.576C299.578 103.576 298.042 102.904 296.922 101.56C295.834 100.184 295.29 98.184 295.29 95.56V79.576H299.37V94.84C299.37 96.536 299.626 97.784 300.138 98.584C300.682 99.384 301.418 99.784 302.346 99.784C303.21 99.784 304.106 99.448 305.034 98.776C305.994 98.072 306.826 97.112 307.53 95.896V79.576H311.61V103ZM328.576 79C329.024 79 329.376 79.032 329.632 79.096V83.704C329.152 83.608 328.528 83.56 327.76 83.56C325.52 83.56 323.744 84.68 322.432 86.92V103H318.352V79.576H322.192V83.08C323.056 81.768 324.016 80.76 325.072 80.056C326.16 79.352 327.328 79 328.576 79ZM338.042 79.576V103H333.962V79.576H338.042ZM335.978 70.12C336.842 70.12 337.498 70.312 337.946 70.696C338.426 71.08 338.666 71.624 338.666 72.328V73.72C338.666 74.424 338.426 74.968 337.946 75.352C337.498 75.704 336.842 75.88 335.978 75.88C335.146 75.88 334.49 75.704 334.01 75.352C333.562 74.968 333.338 74.424 333.338 73.72V72.328C333.338 71.624 333.562 71.08 334.01 70.696C334.49 70.312 335.146 70.12 335.978 70.12ZM349.543 79.576H355.783V82.936H349.543V96.664C349.543 97.88 349.783 98.76 350.263 99.304C350.775 99.816 351.559 100.072 352.615 100.072C353.959 100.072 355.271 99.912 356.551 99.592L356.647 103C355.239 103.384 353.959 103.576 352.807 103.576C350.247 103.576 348.375 103.016 347.191 101.896C346.039 100.744 345.463 98.888 345.463 96.328V82.936H342.103V79.576H345.463L346.231 73.336H349.543V79.576ZM378.518 79.576L367.766 111.88H363.686L366.758 103H365.222L358.55 79.576H363.014L368.054 100.072L374.294 79.576H378.518ZM407.762 71.56V75.256H395.282V85.192H404.69V88.84H395.282V103H391.202V71.56H407.762ZM417.12 79.576V103H413.04V79.576H417.12ZM415.056 70.12C415.92 70.12 416.576 70.312 417.024 70.696C417.504 71.08 417.744 71.624 417.744 72.328V73.72C417.744 74.424 417.504 74.968 417.024 75.352C416.576 75.704 415.92 75.88 415.056 75.88C414.224 75.88 413.568 75.704 413.088 75.352C412.64 74.968 412.416 74.424 412.416 73.72V72.328C412.416 71.624 412.64 71.08 413.088 70.696C413.568 70.312 414.224 70.12 415.056 70.12ZM434.045 79C434.493 79 434.845 79.032 435.101 79.096V83.704C434.621 83.608 433.997 83.56 433.229 83.56C430.989 83.56 429.213 84.68 427.901 86.92V103H423.821V79.576H427.661V83.08C428.525 81.768 429.485 80.76 430.541 80.056C431.629 79.352 432.797 79 434.045 79ZM461.942 79C463.99 79 465.558 79.704 466.646 81.112C467.734 82.488 468.278 84.456 468.278 87.016V103H464.198V87.592C464.198 84.392 463.174 82.792 461.126 82.792C460.23 82.792 459.302 83.144 458.342 83.848C457.414 84.552 456.598 85.512 455.894 86.728V103H451.814V87.592C451.814 84.392 450.79 82.792 448.742 82.792C447.846 82.792 446.918 83.144 445.958 83.848C445.03 84.552 444.214 85.512 443.51 86.728V103H439.43V79.576H443.27V83.08C444.102 81.768 445.062 80.76 446.15 80.056C447.238 79.352 448.374 79 449.558 79C451.03 79 452.262 79.384 453.254 80.152C454.246 80.888 454.966 81.976 455.414 83.416C456.278 81.976 457.27 80.888 458.39 80.152C459.51 79.384 460.694 79 461.942 79ZM479.136 69.64C482.24 69.64 484.48 70.2 485.856 71.32C487.264 72.44 487.968 74.088 487.968 76.264V77.464C487.968 78.904 487.648 80.28 487.008 81.592C486.368 82.872 485.296 84.296 483.792 85.864L482.208 87.592C481.696 88.136 481.344 88.648 481.152 89.128C480.992 89.576 480.912 90.28 480.912 91.24V93.4H477.024V91.864C477.024 90.296 477.136 89.176 477.36 88.504C477.584 87.832 478.112 87 478.944 86.008L481.728 82.744C482.592 81.688 483.168 80.808 483.456 80.104C483.744 79.4 483.888 78.488 483.888 77.368V76.312C483.888 75.128 483.52 74.264 482.784 73.72C482.08 73.176 480.784 72.904 478.896 72.904C477.392 72.904 475.376 73.192 472.848 73.768V70.408C475.344 69.896 477.44 69.64 479.136 69.64ZM479.04 97.816C479.904 97.816 480.56 98.008 481.008 98.392C481.488 98.776 481.728 99.32 481.728 100.024V101.416C481.728 102.12 481.488 102.648 481.008 103C480.56 103.384 479.904 103.576 479.04 103.576C478.208 103.576 477.552 103.384 477.072 103C476.624 102.648 476.4 102.12 476.4 101.416V100.024C476.4 99.32 476.624 98.776 477.072 98.392C477.552 98.008 478.208 97.816 479.04 97.816Z" fill="black"/>
</svg>
