<svg viewBox="0 0 330 330" fill="none" xmlns="http://www.w3.org/2000/svg">
<circle cx="165" cy="165" r="164.5" fill="#56C0ED" stroke="black"/>
<path d="M165 39.1666C144.292 39.1666 127.5 55.9583 127.5 76.6666V105.833C127.5 112.75 133.083 118.333 140 118.333H152.5V85H135.833V76.6666C135.833 60.5416 148.875 47.5 165 47.5C181.125 47.5 194.167 60.5416 194.167 76.6666V85H177.5V118.333H190C196.917 118.333 202.5 112.75 202.5 105.833V76.6666C202.5 55.9583 185.708 39.1666 165 39.1666Z" fill="black"/>
<path d="M105.746 146.088H114.854C117.566 146.088 119.57 146.748 120.866 148.068C122.162 149.364 122.81 151.38 122.81 154.116C122.81 159.78 120.158 162.612 114.854 162.612H108.518V171H105.746V146.088ZM114.818 160.164C118.25 160.164 119.966 158.148 119.966 154.116C119.966 152.172 119.558 150.756 118.742 149.868C117.926 148.98 116.618 148.536 114.818 148.536H108.518V160.164H114.818ZM126.617 153H129.281V155.448C131.345 154.032 133.541 153.084 135.869 152.604V155.34C134.933 155.532 133.913 155.832 132.809 156.24C131.729 156.624 130.865 156.984 130.217 157.32L129.317 157.788V171H126.617V153ZM145.443 171.36C142.707 171.36 140.763 170.652 139.611 169.236C138.483 167.796 137.919 165.54 137.919 162.468C137.919 159.132 138.531 156.66 139.755 155.052C140.979 153.444 142.899 152.64 145.515 152.64C147.915 152.64 149.703 153.336 150.879 154.728C152.079 156.096 152.679 158.208 152.679 161.064L152.535 163.116H140.655C140.655 164.604 140.811 165.768 141.123 166.608C141.459 167.448 142.011 168.06 142.779 168.444C143.571 168.804 144.663 168.984 146.055 168.984C146.751 168.984 147.555 168.972 148.467 168.948C149.379 168.9 150.207 168.84 150.951 168.768L151.995 168.66L152.067 170.784C149.403 171.168 147.195 171.36 145.443 171.36ZM149.979 160.956C149.979 158.772 149.631 157.224 148.935 156.312C148.239 155.376 147.099 154.908 145.515 154.908C143.859 154.908 142.635 155.4 141.843 156.384C141.051 157.344 140.643 158.868 140.619 160.956H149.979ZM162.539 171.36C161.099 171.36 159.335 171.192 157.247 170.856L156.167 170.676L156.311 168.336C159.119 168.744 161.183 168.948 162.503 168.948C163.943 168.948 165.011 168.72 165.707 168.264C166.427 167.784 166.787 167.028 166.787 165.996C166.787 165.252 166.607 164.688 166.247 164.304C165.911 163.92 165.467 163.644 164.915 163.476C164.387 163.308 163.631 163.152 162.647 163.008L161.747 162.864C160.307 162.624 159.179 162.336 158.363 162C157.547 161.664 156.935 161.196 156.527 160.596C156.119 159.972 155.915 159.12 155.915 158.04C155.915 156.096 156.503 154.716 157.679 153.9C158.855 153.084 160.523 152.676 162.683 152.676C164.387 152.676 166.127 152.832 167.903 153.144L168.911 153.324L168.839 155.628C166.247 155.244 164.219 155.052 162.755 155.052C161.363 155.052 160.319 155.268 159.623 155.7C158.951 156.132 158.615 156.804 158.615 157.716C158.615 158.364 158.783 158.868 159.119 159.228C159.455 159.564 159.887 159.816 160.415 159.984C160.967 160.128 161.735 160.284 162.719 160.452L163.619 160.632C165.107 160.896 166.259 161.208 167.075 161.568C167.891 161.904 168.491 162.396 168.875 163.044C169.283 163.692 169.487 164.592 169.487 165.744C169.487 167.688 168.911 169.116 167.759 170.028C166.631 170.916 164.891 171.36 162.539 171.36ZM179.273 171.36C177.833 171.36 176.069 171.192 173.981 170.856L172.901 170.676L173.045 168.336C175.853 168.744 177.917 168.948 179.237 168.948C180.677 168.948 181.745 168.72 182.441 168.264C183.161 167.784 183.521 167.028 183.521 165.996C183.521 165.252 183.341 164.688 182.981 164.304C182.645 163.92 182.201 163.644 181.649 163.476C181.121 163.308 180.365 163.152 179.381 163.008L178.481 162.864C177.041 162.624 175.913 162.336 175.097 162C174.281 161.664 173.669 161.196 173.261 160.596C172.853 159.972 172.649 159.12 172.649 158.04C172.649 156.096 173.237 154.716 174.413 153.9C175.589 153.084 177.257 152.676 179.417 152.676C181.121 152.676 182.861 152.832 184.637 153.144L185.645 153.324L185.573 155.628C182.981 155.244 180.953 155.052 179.489 155.052C178.097 155.052 177.053 155.268 176.357 155.7C175.685 156.132 175.349 156.804 175.349 157.716C175.349 158.364 175.517 158.868 175.853 159.228C176.189 159.564 176.621 159.816 177.149 159.984C177.701 160.128 178.469 160.284 179.453 160.452L180.353 160.632C181.841 160.896 182.993 161.208 183.809 161.568C184.625 161.904 185.225 162.396 185.609 163.044C186.017 163.692 186.221 164.592 186.221 165.744C186.221 167.688 185.645 169.116 184.493 170.028C183.365 170.916 181.625 171.36 179.273 171.36ZM203.99 171.396C202.766 171.396 201.806 171.204 201.11 170.82C200.438 170.412 199.946 169.74 199.634 168.804C199.346 167.844 199.202 166.512 199.202 164.808V155.34H196.646V153H199.202V147.492H201.866V153H207.59V155.34H201.866V163.944C201.866 165.288 201.914 166.296 202.01 166.968C202.106 167.616 202.334 168.12 202.694 168.48C203.078 168.816 203.666 168.984 204.458 168.984L207.662 168.768L207.842 171C206.138 171.264 204.854 171.396 203.99 171.396ZM217.799 171.36C215.879 171.36 214.355 171.048 213.227 170.424C212.099 169.776 211.295 168.78 210.815 167.436C210.335 166.092 210.095 164.316 210.095 162.108C210.095 159.828 210.347 158.004 210.851 156.636C211.355 155.244 212.171 154.236 213.299 153.612C214.427 152.964 215.927 152.64 217.799 152.64C219.695 152.64 221.195 152.964 222.299 153.612C223.427 154.26 224.243 155.268 224.747 156.636C225.251 158.004 225.503 159.828 225.503 162.108C225.503 164.316 225.263 166.092 224.783 167.436C224.303 168.78 223.499 169.776 222.371 170.424C221.267 171.048 219.743 171.36 217.799 171.36ZM217.835 169.02C219.155 169.02 220.163 168.804 220.859 168.372C221.555 167.916 222.035 167.208 222.299 166.248C222.587 165.264 222.731 163.884 222.731 162.108C222.731 160.236 222.587 158.796 222.299 157.788C222.011 156.78 221.519 156.06 220.823 155.628C220.127 155.196 219.131 154.98 217.835 154.98C216.539 154.98 215.531 155.196 214.811 155.628C214.115 156.06 213.611 156.78 213.299 157.788C213.011 158.796 212.867 160.236 212.867 162.108C212.867 163.86 212.999 165.228 213.263 166.212C213.551 167.196 214.043 167.916 214.739 168.372C215.459 168.804 216.491 169.02 217.835 169.02ZM116.034 218.516V221H102.318V196.088H105.09V218.516H116.034ZM119.076 203H121.74V221H119.076V203ZM119.076 195.8H121.74V198.932H119.076V195.8ZM132.568 221.36C131.128 221.36 129.364 221.192 127.276 220.856L126.196 220.676L126.34 218.336C129.148 218.744 131.212 218.948 132.532 218.948C133.972 218.948 135.04 218.72 135.736 218.264C136.456 217.784 136.816 217.028 136.816 215.996C136.816 215.252 136.636 214.688 136.276 214.304C135.94 213.92 135.496 213.644 134.944 213.476C134.416 213.308 133.66 213.152 132.676 213.008L131.776 212.864C130.336 212.624 129.208 212.336 128.392 212C127.576 211.664 126.964 211.196 126.556 210.596C126.148 209.972 125.944 209.12 125.944 208.04C125.944 206.096 126.532 204.716 127.708 203.9C128.884 203.084 130.552 202.676 132.712 202.676C134.416 202.676 136.156 202.832 137.932 203.144L138.94 203.324L138.868 205.628C136.276 205.244 134.248 205.052 132.784 205.052C131.392 205.052 130.348 205.268 129.652 205.7C128.98 206.132 128.644 206.804 128.644 207.716C128.644 208.364 128.812 208.868 129.148 209.228C129.484 209.564 129.916 209.816 130.444 209.984C130.996 210.128 131.764 210.284 132.748 210.452L133.648 210.632C135.136 210.896 136.288 211.208 137.104 211.568C137.92 211.904 138.52 212.396 138.904 213.044C139.312 213.692 139.516 214.592 139.516 215.744C139.516 217.688 138.94 219.116 137.788 220.028C136.66 220.916 134.92 221.36 132.568 221.36ZM149.375 221.396C148.151 221.396 147.191 221.204 146.495 220.82C145.823 220.412 145.331 219.74 145.019 218.804C144.731 217.844 144.587 216.512 144.587 214.808V205.34H142.031V203H144.587V197.492H147.251V203H152.975V205.34H147.251V213.944C147.251 215.288 147.299 216.296 147.395 216.968C147.491 217.616 147.719 218.12 148.079 218.48C148.463 218.816 149.051 218.984 149.843 218.984L153.047 218.768L153.227 221C151.523 221.264 150.239 221.396 149.375 221.396ZM163.004 221.36C160.268 221.36 158.324 220.652 157.172 219.236C156.044 217.796 155.48 215.54 155.48 212.468C155.48 209.132 156.092 206.66 157.316 205.052C158.54 203.444 160.46 202.64 163.076 202.64C165.476 202.64 167.264 203.336 168.44 204.728C169.64 206.096 170.24 208.208 170.24 211.064L170.096 213.116H158.216C158.216 214.604 158.372 215.768 158.684 216.608C159.02 217.448 159.572 218.06 160.34 218.444C161.132 218.804 162.224 218.984 163.616 218.984C164.312 218.984 165.116 218.972 166.028 218.948C166.94 218.9 167.768 218.84 168.512 218.768L169.556 218.66L169.628 220.784C166.964 221.168 164.756 221.36 163.004 221.36ZM167.54 210.956C167.54 208.772 167.192 207.224 166.496 206.312C165.8 205.376 164.66 204.908 163.076 204.908C161.42 204.908 160.196 205.4 159.404 206.384C158.612 207.344 158.204 208.868 158.18 210.956H167.54ZM174.447 203H177.111V204.26C178.191 203.66 179.175 203.24 180.063 203C180.975 202.76 181.923 202.64 182.907 202.64C184.443 202.64 185.631 202.928 186.471 203.504C187.311 204.08 187.899 205.004 188.235 206.276C188.595 207.524 188.775 209.264 188.775 211.496V221H186.111V211.568C186.111 209.864 186.003 208.556 185.787 207.644C185.595 206.732 185.235 206.072 184.707 205.664C184.179 205.256 183.411 205.052 182.403 205.052C181.587 205.052 180.747 205.16 179.883 205.376C179.043 205.568 178.359 205.796 177.831 206.06L177.147 206.384V221H174.447V203ZM207.418 221.396C206.194 221.396 205.234 221.204 204.538 220.82C203.866 220.412 203.374 219.74 203.062 218.804C202.774 217.844 202.63 216.512 202.63 214.808V205.34H200.074V203H202.63V197.492H205.294V203H211.018V205.34H205.294V213.944C205.294 215.288 205.342 216.296 205.438 216.968C205.534 217.616 205.762 218.12 206.122 218.48C206.506 218.816 207.094 218.984 207.886 218.984L211.09 218.768L211.27 221C209.566 221.264 208.282 221.396 207.418 221.396ZM221.227 221.36C219.307 221.36 217.783 221.048 216.655 220.424C215.527 219.776 214.723 218.78 214.243 217.436C213.763 216.092 213.523 214.316 213.523 212.108C213.523 209.828 213.775 208.004 214.279 206.636C214.783 205.244 215.599 204.236 216.727 203.612C217.855 202.964 219.355 202.64 221.227 202.64C223.123 202.64 224.623 202.964 225.727 203.612C226.855 204.26 227.671 205.268 228.175 206.636C228.679 208.004 228.931 209.828 228.931 212.108C228.931 214.316 228.691 216.092 228.211 217.436C227.731 218.78 226.927 219.776 225.799 220.424C224.695 221.048 223.171 221.36 221.227 221.36ZM221.263 219.02C222.583 219.02 223.591 218.804 224.287 218.372C224.983 217.916 225.463 217.208 225.727 216.248C226.015 215.264 226.159 213.884 226.159 212.108C226.159 210.236 226.015 208.796 225.727 207.788C225.439 206.78 224.947 206.06 224.251 205.628C223.555 205.196 222.559 204.98 221.263 204.98C219.967 204.98 218.959 205.196 218.239 205.628C217.543 206.06 217.039 206.78 216.727 207.788C216.439 208.796 216.295 210.236 216.295 212.108C216.295 213.86 216.427 215.228 216.691 216.212C216.979 217.196 217.471 217.916 218.167 218.372C218.887 218.804 219.919 219.02 221.263 219.02ZM148.832 246.088V271H146.06V249.04H145.556L138.32 270.1H135.224L127.988 249.04H127.484V271H124.712V246.088H129.716L136.772 267.184L143.828 246.088H148.832ZM161.035 271.36C158.299 271.36 156.355 270.652 155.203 269.236C154.075 267.796 153.511 265.54 153.511 262.468C153.511 259.132 154.123 256.66 155.347 255.052C156.571 253.444 158.491 252.64 161.107 252.64C163.507 252.64 165.295 253.336 166.471 254.728C167.671 256.096 168.271 258.208 168.271 261.064L168.127 263.116H156.247C156.247 264.604 156.403 265.768 156.715 266.608C157.051 267.448 157.603 268.06 158.371 268.444C159.163 268.804 160.255 268.984 161.647 268.984C162.343 268.984 163.147 268.972 164.059 268.948C164.971 268.9 165.799 268.84 166.543 268.768L167.587 268.66L167.659 270.784C164.995 271.168 162.787 271.36 161.035 271.36ZM165.571 260.956C165.571 258.772 165.223 257.224 164.527 256.312C163.831 255.376 162.691 254.908 161.107 254.908C159.451 254.908 158.227 255.4 157.435 256.384C156.643 257.344 156.235 258.868 156.211 260.956H165.571ZM172.479 253H175.143V254.26C176.223 253.66 177.207 253.24 178.095 253C179.007 252.76 179.955 252.64 180.939 252.64C182.475 252.64 183.663 252.928 184.503 253.504C185.343 254.08 185.931 255.004 186.267 256.276C186.627 257.524 186.807 259.264 186.807 261.496V271H184.143V261.568C184.143 259.864 184.035 258.556 183.819 257.644C183.627 256.732 183.267 256.072 182.739 255.664C182.211 255.256 181.443 255.052 180.435 255.052C179.619 255.052 178.779 255.16 177.915 255.376C177.075 255.568 176.391 255.796 175.863 256.06L175.179 256.384V271H172.479V253ZM197.431 271.36C195.895 271.36 194.707 271.084 193.867 270.532C193.051 269.956 192.475 269.032 192.139 267.76C191.803 266.488 191.635 264.7 191.635 262.396V253H194.335V262.36C194.335 264.16 194.431 265.516 194.623 266.428C194.815 267.34 195.163 267.988 195.667 268.372C196.171 268.756 196.951 268.948 198.007 268.948C199.639 268.948 201.319 268.504 203.047 267.616V253H205.747V271H203.047V269.74C202.063 270.316 201.151 270.736 200.311 271C199.471 271.24 198.511 271.36 197.431 271.36Z" fill="black"/>
</svg>
