<svg viewBox="0 0 280 105" fill="none" xmlns="http://www.w3.org/2000/svg">
<rect width="280" height="105" fill="#2FA4E7"/>
<path d="M61.95 3C34.35 3 12 25.4 12 53C12 80.6 34.35 103 61.95 103C89.6 103 112 80.6 112 53C112 25.4 89.6 3 61.95 3ZM62 93C39.9 93 22 75.1 22 53C22 30.9 39.9 13 62 13C84.1 13 102 30.9 102 53C102 75.1 84.1 93 62 93ZM79.5 48C83.65 48 87 44.65 87 40.5C87 36.35 83.65 33 79.5 33C75.35 33 72 36.35 72 40.5C72 44.65 75.35 48 79.5 48ZM44.5 48C48.65 48 52 44.65 52 40.5C52 36.35 48.65 33 44.5 33C40.35 33 37 36.35 37 40.5C37 44.65 40.35 48 44.5 48ZM62 80.5C73.65 80.5 83.55 73.2 87.55 63H36.45C40.45 73.2 50.35 80.5 62 80.5Z" fill="black"/>
<path d="M148.391 37.0938H134.094L130.883 46H126.242L139.273 11.875H143.211L156.266 46H151.648L148.391 37.0938ZM135.453 33.3906H147.055L141.242 17.4297L135.453 33.3906ZM181.648 33.6016C181.648 37.4766 180.758 40.5938 178.977 42.9531C177.195 45.2969 174.805 46.4688 171.805 46.4688C168.602 46.4688 166.125 45.3359 164.375 43.0703L164.164 46H160.18V10H164.516V23.4297C166.266 21.2578 168.68 20.1719 171.758 20.1719C174.836 20.1719 177.25 21.3359 179 23.6641C180.766 25.9922 181.648 29.1797 181.648 33.2266V33.6016ZM177.312 33.1094C177.312 30.1562 176.742 27.875 175.602 26.2656C174.461 24.6562 172.82 23.8516 170.68 23.8516C167.82 23.8516 165.766 25.1797 164.516 27.8359V38.8047C165.844 41.4609 167.914 42.7891 170.727 42.7891C172.805 42.7891 174.422 41.9844 175.578 40.375C176.734 38.7656 177.312 36.3438 177.312 33.1094ZM185.984 33.0859C185.984 30.6016 186.469 28.3672 187.438 26.3828C188.422 24.3984 189.781 22.8672 191.516 21.7891C193.266 20.7109 195.258 20.1719 197.492 20.1719C200.945 20.1719 203.734 21.3672 205.859 23.7578C208 26.1484 209.07 29.3281 209.07 33.2969V33.6016C209.07 36.0703 208.594 38.2891 207.641 40.2578C206.703 42.2109 205.352 43.7344 203.586 44.8281C201.836 45.9219 199.82 46.4688 197.539 46.4688C194.102 46.4688 191.312 45.2734 189.172 42.8828C187.047 40.4922 185.984 37.3281 185.984 33.3906V33.0859ZM190.344 33.6016C190.344 36.4141 190.992 38.6719 192.289 40.375C193.602 42.0781 195.352 42.9297 197.539 42.9297C199.742 42.9297 201.492 42.0703 202.789 40.3516C204.086 38.6172 204.734 36.1953 204.734 33.0859C204.734 30.3047 204.07 28.0547 202.742 26.3359C201.43 24.6016 199.68 23.7344 197.492 23.7344C195.352 23.7344 193.625 24.5859 192.312 26.2891C191 27.9922 190.344 30.4297 190.344 33.6016ZM230.164 43.4922C228.477 45.4766 226 46.4688 222.734 46.4688C220.031 46.4688 217.969 45.6875 216.547 44.125C215.141 42.5469 214.43 40.2188 214.414 37.1406V20.6406H218.75V37.0234C218.75 40.8672 220.312 42.7891 223.438 42.7891C226.75 42.7891 228.953 41.5547 230.047 39.0859V20.6406H234.383V46H230.258L230.164 43.4922ZM246.875 14.5V20.6406H251.609V23.9922H246.875V39.7188C246.875 40.7344 247.086 41.5 247.508 42.0156C247.93 42.5156 248.648 42.7656 249.664 42.7656C250.164 42.7656 250.852 42.6719 251.727 42.4844V46C250.586 46.3125 249.477 46.4688 248.398 46.4688C246.461 46.4688 245 45.8828 244.016 44.7109C243.031 43.5391 242.539 41.875 242.539 39.7188V23.9922H237.922V20.6406H242.539V14.5H246.875ZM189.547 67.875V91.0781C189.531 94.2969 188.516 96.9297 186.5 98.9766C184.5 101.023 181.781 102.172 178.344 102.422L177.148 102.469C173.414 102.469 170.438 101.461 168.219 99.4453C166 97.4297 164.875 94.6562 164.844 91.125V67.875H169.297V90.9844C169.297 93.4531 169.977 95.375 171.336 96.75C172.695 98.1094 174.633 98.7891 177.148 98.7891C179.695 98.7891 181.641 98.1094 182.984 96.75C184.344 95.3906 185.023 93.4766 185.023 91.0078V67.875H189.547ZM210.734 95.2734C210.734 94.1016 210.289 93.1953 209.398 92.5547C208.523 91.8984 206.984 91.3359 204.781 90.8672C202.594 90.3984 200.852 89.8359 199.555 89.1797C198.273 88.5234 197.32 87.7422 196.695 86.8359C196.086 85.9297 195.781 84.8516 195.781 83.6016C195.781 81.5234 196.656 79.7656 198.406 78.3281C200.172 76.8906 202.422 76.1719 205.156 76.1719C208.031 76.1719 210.359 76.9141 212.141 78.3984C213.938 79.8828 214.836 81.7812 214.836 84.0938H210.477C210.477 82.9062 209.969 81.8828 208.953 81.0234C207.953 80.1641 206.688 79.7344 205.156 79.7344C203.578 79.7344 202.344 80.0781 201.453 80.7656C200.562 81.4531 200.117 82.3516 200.117 83.4609C200.117 84.5078 200.531 85.2969 201.359 85.8281C202.188 86.3594 203.68 86.8672 205.836 87.3516C208.008 87.8359 209.766 88.4141 211.109 89.0859C212.453 89.7578 213.445 90.5703 214.086 91.5234C214.742 92.4609 215.07 93.6094 215.07 94.9688C215.07 97.2344 214.164 99.0547 212.352 100.43C210.539 101.789 208.188 102.469 205.297 102.469C203.266 102.469 201.469 102.109 199.906 101.391C198.344 100.672 197.117 99.6719 196.227 98.3906C195.352 97.0938 194.914 95.6953 194.914 94.1953H199.25C199.328 95.6484 199.906 96.8047 200.984 97.6641C202.078 98.5078 203.516 98.9297 205.297 98.9297C206.938 98.9297 208.25 98.6016 209.234 97.9453C210.234 97.2734 210.734 96.3828 210.734 95.2734Z" fill="white"/>
</svg>
