<svg viewBox="0 0 280 105" fill="none" xmlns="http://www.w3.org/2000/svg">
<rect width="280" height="105" fill="#2FA4E7"/>
<path d="M39.1667 70.1667L20 51L39.1667 31.8333L33.3333 26L8.33333 51L33.3333 76L39.1667 70.1667ZM60.8333 70.1667L80 51L60.8333 31.8333L66.6667 26L91.6667 51L66.6667 76L60.8333 70.1667V70.1667Z" fill="black"/>
<path d="M161.469 59.1719C161.047 62.7812 159.711 65.5703 157.461 67.5391C155.227 69.4922 152.25 70.4688 148.531 70.4688C144.5 70.4688 141.266 69.0234 138.828 66.1328C136.406 63.2422 135.195 59.375 135.195 54.5312V51.25C135.195 48.0781 135.758 45.2891 136.883 42.8828C138.023 40.4766 139.633 38.6328 141.711 37.3516C143.789 36.0547 146.195 35.4062 148.93 35.4062C152.555 35.4062 155.461 36.4219 157.648 38.4531C159.836 40.4688 161.109 43.2656 161.469 46.8438H156.945C156.555 44.125 155.703 42.1562 154.391 40.9375C153.094 39.7188 151.273 39.1094 148.93 39.1094C146.055 39.1094 143.797 40.1719 142.156 42.2969C140.531 44.4219 139.719 47.4453 139.719 51.3672V54.6719C139.719 58.375 140.492 61.3203 142.039 63.5078C143.586 65.6953 145.75 66.7891 148.531 66.7891C151.031 66.7891 152.945 66.2266 154.273 65.1016C155.617 63.9609 156.508 61.9844 156.945 59.1719H161.469ZM165.805 57.0859C165.805 54.6016 166.289 52.3672 167.258 50.3828C168.242 48.3984 169.602 46.8672 171.336 45.7891C173.086 44.7109 175.078 44.1719 177.312 44.1719C180.766 44.1719 183.555 45.3672 185.68 47.7578C187.82 50.1484 188.891 53.3281 188.891 57.2969V57.6016C188.891 60.0703 188.414 62.2891 187.461 64.2578C186.523 66.2109 185.172 67.7344 183.406 68.8281C181.656 69.9219 179.641 70.4688 177.359 70.4688C173.922 70.4688 171.133 69.2734 168.992 66.8828C166.867 64.4922 165.805 61.3281 165.805 57.3906V57.0859ZM170.164 57.6016C170.164 60.4141 170.812 62.6719 172.109 64.375C173.422 66.0781 175.172 66.9297 177.359 66.9297C179.562 66.9297 181.312 66.0703 182.609 64.3516C183.906 62.6172 184.555 60.1953 184.555 57.0859C184.555 54.3047 183.891 52.0547 182.562 50.3359C181.25 48.6016 179.5 47.7344 177.312 47.7344C175.172 47.7344 173.445 48.5859 172.133 50.2891C170.82 51.9922 170.164 54.4297 170.164 57.6016ZM193.273 57.1094C193.273 53.2188 194.195 50.0938 196.039 47.7344C197.883 45.3594 200.297 44.1719 203.281 44.1719C206.25 44.1719 208.602 45.1875 210.336 47.2188V34H214.672V70H210.688L210.477 67.2812C208.742 69.4062 206.328 70.4688 203.234 70.4688C200.297 70.4688 197.898 69.2656 196.039 66.8594C194.195 64.4531 193.273 61.3125 193.273 57.4375V57.1094ZM197.609 57.6016C197.609 60.4766 198.203 62.7266 199.391 64.3516C200.578 65.9766 202.219 66.7891 204.312 66.7891C207.062 66.7891 209.07 65.5547 210.336 63.0859V51.4375C209.039 49.0469 207.047 47.8516 204.359 47.8516C202.234 47.8516 200.578 48.6719 199.391 50.3125C198.203 51.9531 197.609 54.3828 197.609 57.6016ZM231.945 70.4688C228.508 70.4688 225.711 69.3438 223.555 67.0938C221.398 64.8281 220.32 61.8047 220.32 58.0234V57.2266C220.32 54.7109 220.797 52.4688 221.75 50.5C222.719 48.5156 224.062 46.9688 225.781 45.8594C227.516 44.7344 229.391 44.1719 231.406 44.1719C234.703 44.1719 237.266 45.2578 239.094 47.4297C240.922 49.6016 241.836 52.7109 241.836 56.7578V58.5625H224.656C224.719 61.0625 225.445 63.0859 226.836 64.6328C228.242 66.1641 230.023 66.9297 232.18 66.9297C233.711 66.9297 235.008 66.6172 236.07 65.9922C237.133 65.3672 238.062 64.5391 238.859 63.5078L241.508 65.5703C239.383 68.8359 236.195 70.4688 231.945 70.4688ZM231.406 47.7344C229.656 47.7344 228.188 48.375 227 49.6562C225.812 50.9219 225.078 52.7031 224.797 55H237.5V54.6719C237.375 52.4688 236.781 50.7656 235.719 49.5625C234.656 48.3438 233.219 47.7344 231.406 47.7344Z" fill="white"/>
</svg>
