<svg viewBox="0 0 280 105" fill="none" xmlns="http://www.w3.org/2000/svg">
<rect width="280" height="105" fill="#2FA4E7"/>
<path d="M116.328 66.3203H132.5V70H111.805V35.875H116.328V66.3203ZM135.805 57.0859C135.805 54.6016 136.289 52.3672 137.258 50.3828C138.242 48.3984 139.602 46.8672 141.336 45.7891C143.086 44.7109 145.078 44.1719 147.312 44.1719C150.766 44.1719 153.555 45.3672 155.68 47.7578C157.82 50.1484 158.891 53.3281 158.891 57.2969V57.6016C158.891 60.0703 158.414 62.2891 157.461 64.2578C156.523 66.2109 155.172 67.7344 153.406 68.8281C151.656 69.9219 149.641 70.4688 147.359 70.4688C143.922 70.4688 141.133 69.2734 138.992 66.8828C136.867 64.4922 135.805 61.3281 135.805 57.3906V57.0859ZM140.164 57.6016C140.164 60.4141 140.812 62.6719 142.109 64.375C143.422 66.0781 145.172 66.9297 147.359 66.9297C149.562 66.9297 151.312 66.0703 152.609 64.3516C153.906 62.6172 154.555 60.1953 154.555 57.0859C154.555 54.3047 153.891 52.0547 152.562 50.3359C151.25 48.6016 149.5 47.7344 147.312 47.7344C145.172 47.7344 143.445 48.5859 142.133 50.2891C140.82 51.9922 140.164 54.4297 140.164 57.6016ZM163.297 57.1094C163.297 53.1562 164.211 50.0156 166.039 47.6875C167.867 45.3438 170.289 44.1719 173.305 44.1719C176.398 44.1719 178.812 45.2656 180.547 47.4531L180.758 44.6406H184.719V69.3906C184.719 72.6719 183.742 75.2578 181.789 77.1484C179.852 79.0391 177.242 79.9844 173.961 79.9844C172.133 79.9844 170.344 79.5938 168.594 78.8125C166.844 78.0312 165.508 76.9609 164.586 75.6016L166.836 73C168.695 75.2969 170.969 76.4453 173.656 76.4453C175.766 76.4453 177.406 75.8516 178.578 74.6641C179.766 73.4766 180.359 71.8047 180.359 69.6484V67.4688C178.625 69.4688 176.258 70.4688 173.258 70.4688C170.289 70.4688 167.883 69.2734 166.039 66.8828C164.211 64.4922 163.297 61.2344 163.297 57.1094ZM167.656 57.6016C167.656 60.4609 168.242 62.7109 169.414 64.3516C170.586 65.9766 172.227 66.7891 174.336 66.7891C177.07 66.7891 179.078 65.5469 180.359 63.0625V51.4844C179.031 49.0625 177.039 47.8516 174.383 47.8516C172.273 47.8516 170.625 48.6719 169.438 50.3125C168.25 51.9531 167.656 54.3828 167.656 57.6016ZM195.992 70H191.656V44.6406H195.992V70ZM191.305 37.9141C191.305 37.2109 191.516 36.6172 191.938 36.1328C192.375 35.6484 193.016 35.4062 193.859 35.4062C194.703 35.4062 195.344 35.6484 195.781 36.1328C196.219 36.6172 196.438 37.2109 196.438 37.9141C196.438 38.6172 196.219 39.2031 195.781 39.6719C195.344 40.1406 194.703 40.375 193.859 40.375C193.016 40.375 192.375 40.1406 191.938 39.6719C191.516 39.2031 191.305 38.6172 191.305 37.9141ZM207.055 44.6406L207.195 47.8281C209.133 45.3906 211.664 44.1719 214.789 44.1719C220.148 44.1719 222.852 47.1953 222.898 53.2422V70H218.562V53.2188C218.547 51.3906 218.125 50.0391 217.297 49.1641C216.484 48.2891 215.211 47.8516 213.477 47.8516C212.07 47.8516 210.836 48.2266 209.773 48.9766C208.711 49.7266 207.883 50.7109 207.289 51.9297V70H202.953V44.6406H207.055Z" fill="white"/>
<path d="M66.3333 28V90.5H20.5V82.1667H28.8333V15.5H66.3333V19.6667H87.1667V82.1667H95.5V90.5H78.8333V28H66.3333ZM49.6667 48.8333V57.1667H58V48.8333H49.6667Z" fill="black"/>
</svg>
