<svg viewBox="0 0 215 84" fill="none" xmlns="http://www.w3.org/2000/svg">
<rect width="215" height="83" fill="#FFF4F4"/>
<g clip-path="url(#clip0)">
<path d="M67.5 14H13.5C9.7875 14 6.78375 17.15 6.78375 21L6.75 63C6.75 66.85 9.7875 70 13.5 70H67.5C71.2125 70 74.25 66.85 74.25 63V21C74.25 17.15 71.2125 14 67.5 14ZM67.5 28L40.5 45.5L13.5 28V21L40.5 38.5L67.5 21V28Z" fill="black"/>
</g>
<path d="M85.1641 43.5918C82.2695 42.7598 80.1602 41.7402 78.8359 40.5332C77.5234 39.3145 76.8672 37.8145 76.8672 36.0332C76.8672 34.0176 77.6699 32.3535 79.2754 31.041C80.8926 29.7168 82.9902 29.0547 85.5684 29.0547C87.3262 29.0547 88.8906 29.3945 90.2617 30.0742C91.6445 30.7539 92.7109 31.6914 93.4609 32.8867C94.2227 34.082 94.6035 35.3887 94.6035 36.8066H91.2109C91.2109 35.2598 90.7188 34.0469 89.7344 33.168C88.75 32.2773 87.3613 31.832 85.5684 31.832C83.9043 31.832 82.6035 32.2012 81.666 32.9395C80.7402 33.666 80.2773 34.6797 80.2773 35.9805C80.2773 37.0234 80.7168 37.9082 81.5957 38.6348C82.4863 39.3496 83.9922 40.0059 86.1133 40.6035C88.2461 41.2012 89.9102 41.8633 91.1055 42.5898C92.3125 43.3047 93.2031 44.1426 93.7773 45.1035C94.3633 46.0645 94.6562 47.1953 94.6562 48.4961C94.6562 50.5703 93.8477 52.2344 92.2305 53.4883C90.6133 54.7305 88.4512 55.3516 85.7441 55.3516C83.9863 55.3516 82.3457 55.0176 80.8223 54.3496C79.2988 53.6699 78.1211 52.7441 77.2891 51.5723C76.4688 50.4004 76.0586 49.0703 76.0586 47.582H79.4512C79.4512 49.1289 80.0195 50.3535 81.1562 51.2559C82.3047 52.1465 83.834 52.5918 85.7441 52.5918C87.5254 52.5918 88.8906 52.2285 89.8398 51.502C90.7891 50.7754 91.2637 49.7852 91.2637 48.5312C91.2637 47.2773 90.8242 46.3105 89.9453 45.6309C89.0664 44.9395 87.4727 44.2598 85.1641 43.5918ZM102.021 55H98.7695V35.9805H102.021V55ZM98.5059 30.9355C98.5059 30.4082 98.6641 29.9629 98.9805 29.5996C99.3086 29.2363 99.7891 29.0547 100.422 29.0547C101.055 29.0547 101.535 29.2363 101.863 29.5996C102.191 29.9629 102.355 30.4082 102.355 30.9355C102.355 31.4629 102.191 31.9023 101.863 32.2539C101.535 32.6055 101.055 32.7812 100.422 32.7812C99.7891 32.7812 99.3086 32.6055 98.9805 32.2539C98.6641 31.9023 98.5059 31.4629 98.5059 30.9355ZM106.469 45.332C106.469 42.3672 107.154 40.0117 108.525 38.2656C109.896 36.5078 111.713 35.6289 113.975 35.6289C116.295 35.6289 118.105 36.4492 119.406 38.0898L119.564 35.9805H122.535V54.543C122.535 57.0039 121.803 58.9434 120.338 60.3613C118.885 61.7793 116.928 62.4883 114.467 62.4883C113.096 62.4883 111.754 62.1953 110.441 61.6094C109.129 61.0234 108.127 60.2207 107.436 59.2012L109.123 57.25C110.518 58.9727 112.223 59.834 114.238 59.834C115.82 59.834 117.051 59.3887 117.93 58.498C118.82 57.6074 119.266 56.3535 119.266 54.7363V53.1016C117.965 54.6016 116.189 55.3516 113.939 55.3516C111.713 55.3516 109.908 54.4551 108.525 52.6621C107.154 50.8691 106.469 48.4258 106.469 45.332ZM109.738 45.7012C109.738 47.8457 110.178 49.5332 111.057 50.7637C111.936 51.9824 113.166 52.5918 114.748 52.5918C116.799 52.5918 118.305 51.6602 119.266 49.7969V41.1133C118.27 39.2969 116.775 38.3887 114.783 38.3887C113.201 38.3887 111.965 39.0039 111.074 40.2344C110.184 41.4648 109.738 43.2871 109.738 45.7012ZM130.533 35.9805L130.639 38.3711C132.092 36.543 133.99 35.6289 136.334 35.6289C140.354 35.6289 142.381 37.8965 142.416 42.4316V55H139.164V42.4141C139.152 41.043 138.836 40.0293 138.215 39.373C137.605 38.7168 136.65 38.3887 135.35 38.3887C134.295 38.3887 133.369 38.6699 132.572 39.2324C131.775 39.7949 131.154 40.5332 130.709 41.4473V55H127.457V35.9805H130.533ZM174.777 29.4062V46.8086C174.766 49.2227 174.004 51.1973 172.492 52.7324C170.992 54.2676 168.953 55.1289 166.375 55.3164L165.479 55.3516C162.678 55.3516 160.445 54.5957 158.781 53.084C157.117 51.5723 156.273 49.4922 156.25 46.8438V29.4062H159.59V46.7383C159.59 48.5898 160.1 50.0312 161.119 51.0625C162.139 52.082 163.592 52.5918 165.479 52.5918C167.389 52.5918 168.848 52.082 169.855 51.0625C170.875 50.043 171.385 48.6074 171.385 46.7559V29.4062H174.777ZM195.66 45.7012C195.66 48.5957 194.998 50.9277 193.674 52.6973C192.35 54.4668 190.557 55.3516 188.295 55.3516C185.986 55.3516 184.17 54.6191 182.846 53.1543V62.3125H179.594V35.9805H182.564L182.723 38.0898C184.047 36.4492 185.887 35.6289 188.242 35.6289C190.527 35.6289 192.332 36.4902 193.656 38.2129C194.992 39.9355 195.66 42.332 195.66 45.4023V45.7012ZM192.408 45.332C192.408 43.1875 191.951 41.4941 191.037 40.252C190.123 39.0098 188.869 38.3887 187.275 38.3887C185.307 38.3887 183.83 39.2617 182.846 41.0078V50.0957C183.818 51.8301 185.307 52.6973 187.311 52.6973C188.869 52.6973 190.105 52.082 191.02 50.8516C191.945 49.6094 192.408 47.7695 192.408 45.332Z" fill="black"/>
<defs>
<clipPath id="clip0">
<rect width="81" height="84" fill="white"/>
</clipPath>
</defs>
</svg>
