<svg viewBox="0 0 215 84" fill="none" xmlns="http://www.w3.org/2000/svg">
<rect y="2.93023" width="215" height="81.0698" fill="#FFF4F4"/>
<path d="M43.5 6.83721C24.87 6.83721 9.75 22.1526 9.75 41.0233C9.75 59.894 24.87 75.2093 43.5 75.2093C62.13 75.2093 77.25 59.894 77.25 41.0233C77.25 22.1526 62.13 6.83721 43.5 6.83721ZM48.2588 61.8426V68.3721H39.2475V61.7742C33.4763 60.5435 28.5825 56.783 28.2113 50.1509H34.8263C35.1638 53.7405 37.5938 56.5437 43.77 56.5437C50.385 56.5437 51.87 53.1935 51.87 51.1081C51.87 48.2707 50.385 45.6042 42.8588 43.7923C34.4888 41.7412 28.7513 38.2542 28.7513 31.246C28.7513 25.366 33.4425 21.5372 39.2475 20.2723V13.6744H48.2588V20.3407C54.5363 21.8791 57.675 26.6993 57.8775 31.9298H51.2625C51.0938 28.1351 49.1025 25.537 43.77 25.537C38.7075 25.537 35.67 27.8616 35.67 31.1435C35.67 34.0151 37.8638 35.8954 44.6813 37.673C51.4988 39.4507 58.7888 42.4249 58.7888 51.0398C58.755 57.2958 54.1313 60.7144 48.2588 61.8426Z" fill="black"/>
<path d="M113.121 39.5874C113.121 42.0952 112.699 44.2867 111.855 46.1617C111.012 48.0249 109.816 49.4488 108.27 50.4331C106.723 51.4175 104.918 51.9097 102.855 51.9097C100.84 51.9097 99.0527 51.4175 97.4941 50.4331C95.9355 49.437 94.7227 48.0249 93.8555 46.1968C93 44.357 92.5605 42.23 92.5371 39.8159V37.9702C92.5371 35.5093 92.9648 33.3355 93.8203 31.4488C94.6758 29.562 95.8828 28.1206 97.4414 27.1245C99.0117 26.1167 100.805 25.6128 102.82 25.6128C104.871 25.6128 106.676 26.1109 108.234 27.107C109.805 28.0913 111.012 29.5269 111.855 31.4136C112.699 33.2886 113.121 35.4742 113.121 37.9702V39.5874ZM109.764 37.9351C109.764 34.8999 109.154 32.5738 107.936 30.9566C106.717 29.3277 105.012 28.5132 102.82 28.5132C100.688 28.5132 99.0059 29.3277 97.7754 30.9566C96.5566 32.5738 95.9297 34.8238 95.8945 37.7066V39.5874C95.8945 42.5288 96.5098 44.8433 97.7402 46.5308C98.9824 48.2066 100.688 49.0445 102.855 49.0445C105.035 49.0445 106.723 48.2534 107.918 46.6714C109.113 45.0777 109.729 42.7984 109.764 39.8335V37.9351ZM120.75 32.5386L120.855 34.9292C122.309 33.1011 124.207 32.187 126.551 32.187C130.57 32.187 132.598 34.4546 132.633 38.9898V51.5581H129.381V38.9722C129.369 37.6011 129.053 36.5874 128.432 35.9312C127.822 35.2749 126.867 34.9468 125.566 34.9468C124.512 34.9468 123.586 35.2281 122.789 35.7906C121.992 36.3531 121.371 37.0913 120.926 38.0054V51.5581H117.674V32.5386H120.75ZM141.07 51.5581H137.818V24.5581H141.07V51.5581ZM149.824 51.5581H146.572V32.5386H149.824V51.5581ZM146.309 27.4937C146.309 26.9663 146.467 26.521 146.783 26.1577C147.111 25.7945 147.592 25.6128 148.225 25.6128C148.857 25.6128 149.338 25.7945 149.666 26.1577C149.994 26.521 150.158 26.9663 150.158 27.4937C150.158 28.021 149.994 28.4605 149.666 28.812C149.338 29.1636 148.857 29.3394 148.225 29.3394C147.592 29.3394 147.111 29.1636 146.783 28.812C146.467 28.4605 146.309 28.021 146.309 27.4937ZM158.121 32.5386L158.227 34.9292C159.68 33.1011 161.578 32.187 163.922 32.187C167.941 32.187 169.969 34.4546 170.004 38.9898V51.5581H166.752V38.9722C166.74 37.6011 166.424 36.5874 165.803 35.9312C165.193 35.2749 164.238 34.9468 162.938 34.9468C161.883 34.9468 160.957 35.2281 160.16 35.7906C159.363 36.3531 158.742 37.0913 158.297 38.0054V51.5581H155.045V32.5386H158.121ZM182.801 51.9097C180.223 51.9097 178.125 51.0659 176.508 49.3784C174.891 47.6792 174.082 45.4117 174.082 42.5757V41.9781C174.082 40.0913 174.439 38.4097 175.154 36.9331C175.881 35.4449 176.889 34.2847 178.178 33.4527C179.479 32.6089 180.885 32.187 182.396 32.187C184.869 32.187 186.791 33.0015 188.162 34.6304C189.533 36.2593 190.219 38.5913 190.219 41.6265V42.98H177.334C177.381 44.855 177.926 46.3726 178.969 47.5327C180.023 48.6812 181.359 49.2554 182.977 49.2554C184.125 49.2554 185.098 49.021 185.895 48.5523C186.691 48.0835 187.389 47.4624 187.986 46.689L189.973 48.2359C188.379 50.6851 185.988 51.9097 182.801 51.9097ZM182.396 34.8589C181.084 34.8589 179.982 35.3394 179.092 36.3003C178.201 37.2495 177.65 38.5855 177.439 40.3081H186.967V40.062C186.873 38.4097 186.428 37.1324 185.631 36.23C184.834 35.3159 183.756 34.8589 182.396 34.8589Z" fill="black"/>
</svg>
