<svg viewBox="0 0 215 84" fill="none" xmlns="http://www.w3.org/2000/svg">
<rect width="215" height="83" fill="#FFF4F4"/>
<path d="M31.725 58.1L16.2 42L31.725 25.9L27 21L6.75 42L27 63L31.725 58.1ZM49.275 58.1L64.8 42L49.275 25.9L54 21L74.25 42L54 63L49.275 58.1V58.1Z" fill="black"/>
<path d="M116.102 44.8789C115.785 47.5859 114.783 49.6777 113.096 51.1543C111.42 52.6191 109.188 53.3516 106.398 53.3516C103.375 53.3516 100.949 52.2676 99.1211 50.0996C97.3047 47.9316 96.3965 45.0312 96.3965 41.3984V38.9375C96.3965 36.5586 96.8184 34.4668 97.6621 32.6621C98.5176 30.8574 99.7246 29.4746 101.283 28.5137C102.842 27.541 104.646 27.0547 106.697 27.0547C109.416 27.0547 111.596 27.8164 113.236 29.3398C114.877 30.8516 115.832 32.9492 116.102 35.6328H112.709C112.416 33.5938 111.777 32.1172 110.793 31.2031C109.82 30.2891 108.455 29.832 106.697 29.832C104.541 29.832 102.848 30.6289 101.617 32.2227C100.398 33.8164 99.7891 36.084 99.7891 39.0254V41.5039C99.7891 44.2812 100.369 46.4902 101.529 48.1309C102.689 49.7715 104.312 50.5918 106.398 50.5918C108.273 50.5918 109.709 50.1699 110.705 49.3262C111.713 48.4707 112.381 46.9883 112.709 44.8789H116.102ZM119.354 43.3145C119.354 41.4512 119.717 39.7754 120.443 38.2871C121.182 36.7988 122.201 35.6504 123.502 34.8418C124.814 34.0332 126.309 33.6289 127.984 33.6289C130.574 33.6289 132.666 34.5254 134.26 36.3184C135.865 38.1113 136.668 40.4961 136.668 43.4727V43.7012C136.668 45.5527 136.311 47.2168 135.596 48.6934C134.893 50.1582 133.879 51.3008 132.555 52.1211C131.242 52.9414 129.73 53.3516 128.02 53.3516C125.441 53.3516 123.35 52.4551 121.744 50.6621C120.15 48.8691 119.354 46.4961 119.354 43.543V43.3145ZM122.623 43.7012C122.623 45.8105 123.109 47.5039 124.082 48.7812C125.066 50.0586 126.379 50.6973 128.02 50.6973C129.672 50.6973 130.984 50.0527 131.957 48.7637C132.93 47.4629 133.416 45.6465 133.416 43.3145C133.416 41.2285 132.918 39.541 131.922 38.252C130.938 36.9512 129.625 36.3008 127.984 36.3008C126.379 36.3008 125.084 36.9395 124.1 38.2168C123.115 39.4941 122.623 41.3223 122.623 43.7012ZM139.955 43.332C139.955 40.4141 140.646 38.0703 142.029 36.3008C143.412 34.5195 145.223 33.6289 147.461 33.6289C149.688 33.6289 151.451 34.3906 152.752 35.9141V26H156.004V53H153.016L152.857 50.9609C151.557 52.5547 149.746 53.3516 147.426 53.3516C145.223 53.3516 143.424 52.4492 142.029 50.6445C140.646 48.8398 139.955 46.4844 139.955 43.5781V43.332ZM143.207 43.7012C143.207 45.8574 143.652 47.5449 144.543 48.7637C145.434 49.9824 146.664 50.5918 148.234 50.5918C150.297 50.5918 151.803 49.666 152.752 47.8145V39.0781C151.779 37.2852 150.285 36.3887 148.27 36.3887C146.676 36.3887 145.434 37.0039 144.543 38.2344C143.652 39.4648 143.207 41.2871 143.207 43.7012ZM168.959 53.3516C166.381 53.3516 164.283 52.5078 162.666 50.8203C161.049 49.1211 160.24 46.8535 160.24 44.0176V43.4199C160.24 41.5332 160.598 39.8516 161.312 38.375C162.039 36.8867 163.047 35.7266 164.336 34.8945C165.637 34.0508 167.043 33.6289 168.555 33.6289C171.027 33.6289 172.949 34.4434 174.32 36.0723C175.691 37.7012 176.377 40.0332 176.377 43.0684V44.4219H163.492C163.539 46.2969 164.084 47.8145 165.127 48.9746C166.182 50.123 167.518 50.6973 169.135 50.6973C170.283 50.6973 171.256 50.4629 172.053 49.9941C172.85 49.5254 173.547 48.9043 174.145 48.1309L176.131 49.6777C174.537 52.127 172.146 53.3516 168.959 53.3516ZM168.555 36.3008C167.242 36.3008 166.141 36.7812 165.25 37.7422C164.359 38.6914 163.809 40.0273 163.598 41.75H173.125V41.5039C173.031 39.8516 172.586 38.5742 171.789 37.6719C170.992 36.7578 169.914 36.3008 168.555 36.3008Z" fill="black"/>
</svg>
