<svg viewBox="0 0 215 84" fill="none" xmlns="http://www.w3.org/2000/svg">
<rect width="215" height="84" fill="#FFF4F4"/>
<path d="M97.18 53.372V43.328H115.036V53.372H97.18ZM115.036 30.98V40.7H97.18V30.98H115.036ZM94.48 28.352V58.34H97.18V56H115.036V58.196H117.844V28.352H94.48ZM157.624 36.092V33.428H143.368V25.904H140.596V33.428H126.448V36.092H138.94C135.916 42.248 130.696 48.08 125.224 50.924C125.836 51.428 126.736 52.436 127.132 53.084C132.424 50.024 137.284 44.588 140.596 38.36V49.376H133.576V52.04H140.596V58.736H143.368V52.04H150.208V49.376H143.368V38.36C146.608 44.588 151.432 50.06 156.868 53.048C157.264 52.292 158.2 51.248 158.848 50.708C153.196 47.972 148.012 42.248 145.024 36.092H157.624ZM173.248 27.128H163.42V29.288H173.248V27.128ZM171.088 48.872V54.884H165.472V48.872H171.088ZM173.428 46.676H163.132V58.7H165.472V57.08H173.428V46.676ZM163.204 43.904H173.284V41.78H163.204V43.904ZM173.284 36.884H163.204V39.008H173.284V36.884ZM161.512 34.112H174.508V31.916H161.512V34.112ZM189.772 48.296V54.668H179.764V48.296H189.772ZM177.244 58.736H179.764V57.08H189.772V58.592H192.364V45.92H177.244V58.736ZM188.836 35.552V40.772H181.924C182.248 39.26 182.572 37.46 182.896 35.552H188.836ZM191.392 40.772V33.248H183.292C183.508 31.988 183.724 30.728 183.904 29.54H193.408V27.2H175.732V29.54H181.276C181.096 30.728 180.916 31.988 180.7 33.248H176.272V35.552H180.34C180.016 37.424 179.656 39.26 179.332 40.772H174.652V43.148H194.56V40.772H191.392Z" fill="black"/>
<path d="M47.6367 5C26.8405 5 10 22.2656 10 43.5393C10 64.813 26.8405 82.0787 47.6367 82.0787C68.4707 82.0787 85.3488 64.813 85.3488 43.5393C85.3488 22.2656 68.4707 5 47.6367 5ZM73.7451 28.1236H62.6312C61.4256 23.3062 59.6926 18.6815 57.4321 14.4036C64.3642 16.8316 70.1284 21.7646 73.7451 28.1236ZM47.6744 12.862C50.8014 17.4867 53.2502 22.6125 54.8702 28.1236H40.4786C42.0986 22.6125 44.5474 17.4867 47.6744 12.862ZM18.5144 51.2472C17.9116 48.7807 17.5349 46.1985 17.5349 43.5393C17.5349 40.8801 17.9116 38.298 18.5144 35.8315H31.2484C30.947 38.3751 30.7209 40.9187 30.7209 43.5393C30.7209 46.16 30.947 48.7036 31.2484 51.2472H18.5144ZM21.6037 58.9551H32.7177C33.9233 63.7725 35.6563 68.3972 37.9167 72.6751C30.9847 70.2471 25.2205 65.3526 21.6037 58.9551V58.9551ZM32.7177 28.1236H21.6037C25.2205 21.7261 30.9847 16.8316 37.9167 14.4036C35.6563 18.6815 33.9233 23.3062 32.7177 28.1236V28.1236ZM47.6744 74.2166C44.5474 69.5919 42.0986 64.4662 40.4786 58.9551H54.8702C53.2502 64.4662 50.8014 69.5919 47.6744 74.2166ZM56.4902 51.2472H38.8586C38.5195 48.7036 38.2558 46.16 38.2558 43.5393C38.2558 40.9187 38.5195 38.3365 38.8586 35.8315H56.4902C56.8293 38.3365 57.093 40.9187 57.093 43.5393C57.093 46.16 56.8293 48.7036 56.4902 51.2472ZM57.4321 72.6751C59.6926 68.3972 61.4256 63.7725 62.6312 58.9551H73.7451C70.1284 65.314 64.3642 70.2471 57.4321 72.6751V72.6751ZM64.1005 51.2472C64.4019 48.7036 64.6279 46.16 64.6279 43.5393C64.6279 40.9187 64.4019 38.3751 64.1005 35.8315H76.8344C77.4372 38.298 77.814 40.8801 77.814 43.5393C77.814 46.1985 77.4372 48.7807 76.8344 51.2472H64.1005Z" fill="black"/>
</svg>

