<svg viewBox="0 0 218 84" fill="none" xmlns="http://www.w3.org/2000/svg">
<rect x="3" width="215" height="83" fill="#FFF4F4"/>
<path d="M40.5 3.5C23.7263 3.5 10.125 17.605 10.125 35V59.5C10.125 65.31 14.6475 70 20.25 70H30.375V42H16.875V35C16.875 21.455 27.4388 10.5 40.5 10.5C53.5612 10.5 64.125 21.455 64.125 35V42H50.625V70H64.125V73.5H40.5V80.5H60.75C66.3525 80.5 70.875 75.81 70.875 70V35C70.875 17.605 57.2737 3.5 40.5 3.5Z" fill="black"/>
<path d="M100.65 37.5918C97.7559 36.7598 95.6465 35.7402 94.3223 34.5332C93.0098 33.3145 92.3535 31.8145 92.3535 30.0332C92.3535 28.0176 93.1562 26.3535 94.7617 25.041C96.3789 23.7168 98.4766 23.0547 101.055 23.0547C102.812 23.0547 104.377 23.3945 105.748 24.0742C107.131 24.7539 108.197 25.6914 108.947 26.8867C109.709 28.082 110.09 29.3887 110.09 30.8066H106.697C106.697 29.2598 106.205 28.0469 105.221 27.168C104.236 26.2773 102.848 25.832 101.055 25.832C99.3906 25.832 98.0898 26.2012 97.1523 26.9395C96.2266 27.666 95.7637 28.6797 95.7637 29.9805C95.7637 31.0234 96.2031 31.9082 97.082 32.6348C97.9727 33.3496 99.4785 34.0059 101.6 34.6035C103.732 35.2012 105.396 35.8633 106.592 36.5898C107.799 37.3047 108.689 38.1426 109.264 39.1035C109.85 40.0645 110.143 41.1953 110.143 42.4961C110.143 44.5703 109.334 46.2344 107.717 47.4883C106.1 48.7305 103.938 49.3516 101.23 49.3516C99.4727 49.3516 97.832 49.0176 96.3086 48.3496C94.7852 47.6699 93.6074 46.7441 92.7754 45.5723C91.9551 44.4004 91.5449 43.0703 91.5449 41.582H94.9375C94.9375 43.1289 95.5059 44.3535 96.6426 45.2559C97.791 46.1465 99.3203 46.5918 101.23 46.5918C103.012 46.5918 104.377 46.2285 105.326 45.502C106.275 44.7754 106.75 43.7852 106.75 42.5312C106.75 41.2773 106.311 40.3105 105.432 39.6309C104.553 38.9395 102.959 38.2598 100.65 37.5918ZM117.227 32.2832C118.668 30.5137 120.543 29.6289 122.852 29.6289C126.871 29.6289 128.898 31.8965 128.934 36.4316V49H125.682V36.4141C125.67 35.043 125.354 34.0293 124.732 33.373C124.123 32.7168 123.168 32.3887 121.867 32.3887C120.812 32.3887 119.887 32.6699 119.09 33.2324C118.293 33.7949 117.672 34.5332 117.227 35.4473V49H113.975V22H117.227V32.2832ZM145.545 49C145.357 48.625 145.205 47.957 145.088 46.9961C143.576 48.5664 141.771 49.3516 139.674 49.3516C137.799 49.3516 136.258 48.8242 135.051 47.7695C133.855 46.7031 133.258 45.3555 133.258 43.7266C133.258 41.7461 134.008 40.2109 135.508 39.1211C137.02 38.0195 139.141 37.4688 141.871 37.4688H145.035V35.9746C145.035 34.8379 144.695 33.9355 144.016 33.2676C143.336 32.5879 142.334 32.248 141.01 32.248C139.85 32.248 138.877 32.541 138.092 33.127C137.307 33.7129 136.914 34.4219 136.914 35.2539H133.645C133.645 34.3047 133.979 33.3906 134.646 32.5117C135.326 31.6211 136.24 30.918 137.389 30.4023C138.549 29.8867 139.82 29.6289 141.203 29.6289C143.395 29.6289 145.111 30.1797 146.354 31.2812C147.596 32.3711 148.24 33.877 148.287 35.7988V44.5527C148.287 46.2988 148.51 47.6875 148.955 48.7188V49H145.545ZM140.148 46.5215C141.168 46.5215 142.135 46.2578 143.049 45.7305C143.963 45.2031 144.625 44.5176 145.035 43.6738V39.7715H142.486C138.502 39.7715 136.51 40.9375 136.51 43.2695C136.51 44.2891 136.85 45.0859 137.529 45.6602C138.209 46.2344 139.082 46.5215 140.148 46.5215ZM162.578 32.8984C162.086 32.8164 161.553 32.7754 160.979 32.7754C158.846 32.7754 157.398 33.6836 156.637 35.5V49H153.385V29.9805H156.549L156.602 32.1777C157.668 30.4785 159.18 29.6289 161.137 29.6289C161.77 29.6289 162.25 29.7109 162.578 29.875V32.8984ZM173.125 49.3516C170.547 49.3516 168.449 48.5078 166.832 46.8203C165.215 45.1211 164.406 42.8535 164.406 40.0176V39.4199C164.406 37.5332 164.764 35.8516 165.479 34.375C166.205 32.8867 167.213 31.7266 168.502 30.8945C169.803 30.0508 171.209 29.6289 172.721 29.6289C175.193 29.6289 177.115 30.4434 178.486 32.0723C179.857 33.7012 180.543 36.0332 180.543 39.0684V40.4219H167.658C167.705 42.2969 168.25 43.8145 169.293 44.9746C170.348 46.123 171.684 46.6973 173.301 46.6973C174.449 46.6973 175.422 46.4629 176.219 45.9941C177.016 45.5254 177.713 44.9043 178.311 44.1309L180.297 45.6777C178.703 48.127 176.312 49.3516 173.125 49.3516ZM172.721 32.3008C171.408 32.3008 170.307 32.7812 169.416 33.7422C168.525 34.6914 167.975 36.0273 167.764 37.75H177.291V37.5039C177.197 35.8516 176.752 34.5742 175.955 33.6719C175.158 32.7578 174.08 32.3008 172.721 32.3008Z" fill="black"/>
</svg>
