<svg viewBox="0 0 280 105" fill="none" xmlns="http://www.w3.org/2000/svg">
<rect width="280" height="105" fill="#2FA4E7"/>
<path d="M108.57 47.7891C104.711 46.6797 101.898 45.3203 100.133 43.7109C98.3828 42.0859 97.5078 40.0859 97.5078 37.7109C97.5078 35.0234 98.5781 32.8047 100.719 31.0547C102.875 29.2891 105.672 28.4062 109.109 28.4062C111.453 28.4062 113.539 28.8594 115.367 29.7656C117.211 30.6719 118.633 31.9219 119.633 33.5156C120.648 35.1094 121.156 36.8516 121.156 38.7422H116.633C116.633 36.6797 115.977 35.0625 114.664 33.8906C113.352 32.7031 111.5 32.1094 109.109 32.1094C106.891 32.1094 105.156 32.6016 103.906 33.5859C102.672 34.5547 102.055 35.9062 102.055 37.6406C102.055 39.0312 102.641 40.2109 103.812 41.1797C105 42.1328 107.008 43.0078 109.836 43.8047C112.68 44.6016 114.898 45.4844 116.492 46.4531C118.102 47.4062 119.289 48.5234 120.055 49.8047C120.836 51.0859 121.227 52.5938 121.227 54.3281C121.227 57.0938 120.148 59.3125 117.992 60.9844C115.836 62.6406 112.953 63.4688 109.344 63.4688C107 63.4688 104.812 63.0234 102.781 62.1328C100.75 61.2266 99.1797 59.9922 98.0703 58.4297C96.9766 56.8672 96.4297 55.0938 96.4297 53.1094H100.953C100.953 55.1719 101.711 56.8047 103.227 58.0078C104.758 59.1953 106.797 59.7891 109.344 59.7891C111.719 59.7891 113.539 59.3047 114.805 58.3359C116.07 57.3672 116.703 56.0469 116.703 54.375C116.703 52.7031 116.117 51.4141 114.945 50.5078C113.773 49.5859 111.648 48.6797 108.57 47.7891ZM136.859 63.4688C133.422 63.4688 130.625 62.3438 128.469 60.0938C126.312 57.8281 125.234 54.8047 125.234 51.0234V50.2266C125.234 47.7109 125.711 45.4688 126.664 43.5C127.633 41.5156 128.977 39.9688 130.695 38.8594C132.43 37.7344 134.305 37.1719 136.32 37.1719C139.617 37.1719 142.18 38.2578 144.008 40.4297C145.836 42.6016 146.75 45.7109 146.75 49.7578V51.5625H129.57C129.633 54.0625 130.359 56.0859 131.75 57.6328C133.156 59.1641 134.938 59.9297 137.094 59.9297C138.625 59.9297 139.922 59.6172 140.984 58.9922C142.047 58.3672 142.977 57.5391 143.773 56.5078L146.422 58.5703C144.297 61.8359 141.109 63.4688 136.859 63.4688ZM136.32 40.7344C134.57 40.7344 133.102 41.375 131.914 42.6562C130.727 43.9219 129.992 45.7031 129.711 48H142.414V47.6719C142.289 45.4688 141.695 43.7656 140.633 42.5625C139.57 41.3438 138.133 40.7344 136.32 40.7344ZM164.047 41.5312C163.391 41.4219 162.68 41.3672 161.914 41.3672C159.07 41.3672 157.141 42.5781 156.125 45V63H151.789V37.6406H156.008L156.078 40.5703C157.5 38.3047 159.516 37.1719 162.125 37.1719C162.969 37.1719 163.609 37.2812 164.047 37.5V41.5312ZM176.844 57.1172L183.125 37.6406H187.555L178.461 63H175.156L165.969 37.6406H170.398L176.844 57.1172ZM196.438 63H192.102V37.6406H196.438V63ZM191.75 30.9141C191.75 30.2109 191.961 29.6172 192.383 29.1328C192.82 28.6484 193.461 28.4062 194.305 28.4062C195.148 28.4062 195.789 28.6484 196.227 29.1328C196.664 29.6172 196.883 30.2109 196.883 30.9141C196.883 31.6172 196.664 32.2031 196.227 32.6719C195.789 33.1406 195.148 33.375 194.305 33.375C193.461 33.375 192.82 33.1406 192.383 32.6719C191.961 32.2031 191.75 31.6172 191.75 30.9141ZM213.57 59.9297C215.117 59.9297 216.469 59.4609 217.625 58.5234C218.781 57.5859 219.422 56.4141 219.547 55.0078H223.648C223.57 56.4609 223.07 57.8438 222.148 59.1562C221.227 60.4688 219.992 61.5156 218.445 62.2969C216.914 63.0781 215.289 63.4688 213.57 63.4688C210.117 63.4688 207.367 62.3203 205.32 60.0234C203.289 57.7109 202.273 54.5547 202.273 50.5547V49.8281C202.273 47.3594 202.727 45.1641 203.633 43.2422C204.539 41.3203 205.836 39.8281 207.523 38.7656C209.227 37.7031 211.234 37.1719 213.547 37.1719C216.391 37.1719 218.75 38.0234 220.625 39.7266C222.516 41.4297 223.523 43.6406 223.648 46.3594H219.547C219.422 44.7188 218.797 43.375 217.672 42.3281C216.562 41.2656 215.188 40.7344 213.547 40.7344C211.344 40.7344 209.633 41.5312 208.414 43.125C207.211 44.7031 206.609 46.9922 206.609 49.9922V50.8125C206.609 53.7344 207.211 55.9844 208.414 57.5625C209.617 59.1406 211.336 59.9297 213.57 59.9297ZM239.047 63.4688C235.609 63.4688 232.812 62.3438 230.656 60.0938C228.5 57.8281 227.422 54.8047 227.422 51.0234V50.2266C227.422 47.7109 227.898 45.4688 228.852 43.5C229.82 41.5156 231.164 39.9688 232.883 38.8594C234.617 37.7344 236.492 37.1719 238.508 37.1719C241.805 37.1719 244.367 38.2578 246.195 40.4297C248.023 42.6016 248.938 45.7109 248.938 49.7578V51.5625H231.758C231.82 54.0625 232.547 56.0859 233.938 57.6328C235.344 59.1641 237.125 59.9297 239.281 59.9297C240.812 59.9297 242.109 59.6172 243.172 58.9922C244.234 58.3672 245.164 57.5391 245.961 56.5078L248.609 58.5703C246.484 61.8359 243.297 63.4688 239.047 63.4688ZM238.508 40.7344C236.758 40.7344 235.289 41.375 234.102 42.6562C232.914 43.9219 232.18 45.7031 231.898 48H244.602V47.6719C244.477 45.4688 243.883 43.7656 242.82 42.5625C241.758 41.3438 240.32 40.7344 238.508 40.7344ZM268.742 56.2734C268.742 55.1016 268.297 54.1953 267.406 53.5547C266.531 52.8984 264.992 52.3359 262.789 51.8672C260.602 51.3984 258.859 50.8359 257.562 50.1797C256.281 49.5234 255.328 48.7422 254.703 47.8359C254.094 46.9297 253.789 45.8516 253.789 44.6016C253.789 42.5234 254.664 40.7656 256.414 39.3281C258.18 37.8906 260.43 37.1719 263.164 37.1719C266.039 37.1719 268.367 37.9141 270.148 39.3984C271.945 40.8828 272.844 42.7812 272.844 45.0938H268.484C268.484 43.9062 267.977 42.8828 266.961 42.0234C265.961 41.1641 264.695 40.7344 263.164 40.7344C261.586 40.7344 260.352 41.0781 259.461 41.7656C258.57 42.4531 258.125 43.3516 258.125 44.4609C258.125 45.5078 258.539 46.2969 259.367 46.8281C260.195 47.3594 261.688 47.8672 263.844 48.3516C266.016 48.8359 267.773 49.4141 269.117 50.0859C270.461 50.7578 271.453 51.5703 272.094 52.5234C272.75 53.4609 273.078 54.6094 273.078 55.9688C273.078 58.2344 272.172 60.0547 270.359 61.4297C268.547 62.7891 266.195 63.4688 263.305 63.4688C261.273 63.4688 259.477 63.1094 257.914 62.3906C256.352 61.6719 255.125 60.6719 254.234 59.3906C253.359 58.0938 252.922 56.6953 252.922 55.1953H257.258C257.336 56.6484 257.914 57.8047 258.992 58.6641C260.086 59.5078 261.523 59.9297 263.305 59.9297C264.945 59.9297 266.258 59.6016 267.242 58.9453C268.242 58.2734 268.742 57.3828 268.742 56.2734Z" fill="white"/>
<path d="M67.6667 47.9583L74.2083 41.4167L58.5833 25.7917L52.0417 32.3333L34.7917 15.125C31.5417 11.875 26.25 11.875 23 15.125L15.0833 23.0417C11.8333 26.2917 11.8333 31.5833 15.0833 34.8333L32.2917 52.0417L12.5 71.875V87.5H28.125L47.9583 67.6667L65.1667 84.875C69.125 88.8333 74.4583 87.375 76.9583 84.875L84.875 76.9583C88.125 73.7083 88.125 68.4167 84.875 65.1667L67.6667 47.9583ZM38.25 46.125L21 28.9167L28.875 21L34.1667 26.2917L29.25 31.25L35.125 37.125L40.0833 32.1667L46.125 38.2083L38.25 46.125ZM71.0833 79L53.875 61.7917L61.7917 53.875L67.8333 59.9167L62.875 64.875L68.75 70.75L73.7083 65.7917L79 71.0833L71.0833 79Z" fill="black"/>
<path d="M86.2917 29.3334C87.9167 27.7084 87.9167 25.0834 86.2917 23.4584L76.5417 13.7084C74.5834 11.75 71.875 12.5 70.6667 13.7084L63.0417 21.3334L78.6667 36.9584L86.2917 29.3334Z" fill="black"/>
</svg>
