<svg viewBox="0 0 280 105" fill="none" xmlns="http://www.w3.org/2000/svg">
<rect width="280" height="105" fill="#2FA4E7"/>
<path d="M140.867 52.7891C137.008 51.6797 134.195 50.3203 132.43 48.7109C130.68 47.0859 129.805 45.0859 129.805 42.7109C129.805 40.0234 130.875 37.8047 133.016 36.0547C135.172 34.2891 137.969 33.4062 141.406 33.4062C143.75 33.4062 145.836 33.8594 147.664 34.7656C149.508 35.6719 150.93 36.9219 151.93 38.5156C152.945 40.1094 153.453 41.8516 153.453 43.7422H148.93C148.93 41.6797 148.273 40.0625 146.961 38.8906C145.648 37.7031 143.797 37.1094 141.406 37.1094C139.188 37.1094 137.453 37.6016 136.203 38.5859C134.969 39.5547 134.352 40.9062 134.352 42.6406C134.352 44.0312 134.938 45.2109 136.109 46.1797C137.297 47.1328 139.305 48.0078 142.133 48.8047C144.977 49.6016 147.195 50.4844 148.789 51.4531C150.398 52.4062 151.586 53.5234 152.352 54.8047C153.133 56.0859 153.523 57.5938 153.523 59.3281C153.523 62.0938 152.445 64.3125 150.289 65.9844C148.133 67.6406 145.25 68.4688 141.641 68.4688C139.297 68.4688 137.109 68.0234 135.078 67.1328C133.047 66.2266 131.477 64.9922 130.367 63.4297C129.273 61.8672 128.727 60.0938 128.727 58.1094H133.25C133.25 60.1719 134.008 61.8047 135.523 63.0078C137.055 64.1953 139.094 64.7891 141.641 64.7891C144.016 64.7891 145.836 64.3047 147.102 63.3359C148.367 62.3672 149 61.0469 149 59.375C149 57.7031 148.414 56.4141 147.242 55.5078C146.07 54.5859 143.945 53.6797 140.867 52.7891ZM162.969 45.7109C164.891 43.3516 167.391 42.1719 170.469 42.1719C175.828 42.1719 178.531 45.1953 178.578 51.2422V68H174.242V51.2188C174.227 49.3906 173.805 48.0391 172.977 47.1641C172.164 46.2891 170.891 45.8516 169.156 45.8516C167.75 45.8516 166.516 46.2266 165.453 46.9766C164.391 47.7266 163.562 48.7109 162.969 49.9297V68H158.633V32H162.969V45.7109ZM200.727 68C200.477 67.5 200.273 66.6094 200.117 65.3281C198.102 67.4219 195.695 68.4688 192.898 68.4688C190.398 68.4688 188.344 67.7656 186.734 66.3594C185.141 64.9375 184.344 63.1406 184.344 60.9688C184.344 58.3281 185.344 56.2812 187.344 54.8281C189.359 53.3594 192.188 52.625 195.828 52.625H200.047V50.6328C200.047 49.1172 199.594 47.9141 198.688 47.0234C197.781 46.1172 196.445 45.6641 194.68 45.6641C193.133 45.6641 191.836 46.0547 190.789 46.8359C189.742 47.6172 189.219 48.5625 189.219 49.6719H184.859C184.859 48.4062 185.305 47.1875 186.195 46.0156C187.102 44.8281 188.32 43.8906 189.852 43.2031C191.398 42.5156 193.094 42.1719 194.938 42.1719C197.859 42.1719 200.148 42.9062 201.805 44.375C203.461 45.8281 204.32 47.8359 204.383 50.3984V62.0703C204.383 64.3984 204.68 66.25 205.273 67.625V68H200.727ZM193.531 64.6953C194.891 64.6953 196.18 64.3438 197.398 63.6406C198.617 62.9375 199.5 62.0234 200.047 60.8984V55.6953H196.648C191.336 55.6953 188.68 57.25 188.68 60.3594C188.68 61.7188 189.133 62.7812 190.039 63.5469C190.945 64.3125 192.109 64.6953 193.531 64.6953ZM223.438 46.5312C222.781 46.4219 222.07 46.3672 221.305 46.3672C218.461 46.3672 216.531 47.5781 215.516 50V68H211.18V42.6406H215.398L215.469 45.5703C216.891 43.3047 218.906 42.1719 221.516 42.1719C222.359 42.1719 223 42.2812 223.438 42.5V46.5312ZM237.5 68.4688C234.062 68.4688 231.266 67.3438 229.109 65.0938C226.953 62.8281 225.875 59.8047 225.875 56.0234V55.2266C225.875 52.7109 226.352 50.4688 227.305 48.5C228.273 46.5156 229.617 44.9688 231.336 43.8594C233.07 42.7344 234.945 42.1719 236.961 42.1719C240.258 42.1719 242.82 43.2578 244.648 45.4297C246.477 47.6016 247.391 50.7109 247.391 54.7578V56.5625H230.211C230.273 59.0625 231 61.0859 232.391 62.6328C233.797 64.1641 235.578 64.9297 237.734 64.9297C239.266 64.9297 240.562 64.6172 241.625 63.9922C242.688 63.3672 243.617 62.5391 244.414 61.5078L247.062 63.5703C244.938 66.8359 241.75 68.4688 237.5 68.4688ZM236.961 45.7344C235.211 45.7344 233.742 46.375 232.555 47.6562C231.367 48.9219 230.633 50.7031 230.352 53H243.055V52.6719C242.93 50.4688 242.336 48.7656 241.273 47.5625C240.211 46.3438 238.773 45.7344 236.961 45.7344Z" fill="white"/>
<path d="M50 9.16666C29.2917 9.16666 12.5 25.9583 12.5 46.6667V75.8333C12.5 82.75 18.0833 88.3333 25 88.3333H37.5V55H20.8333V46.6667C20.8333 30.5417 33.875 17.5 50 17.5C66.125 17.5 79.1667 30.5417 79.1667 46.6667V55H62.5V88.3333H79.1667V92.5H50V100.833H75C81.9167 100.833 87.5 95.25 87.5 88.3333V46.6667C87.5 25.9583 70.7083 9.16666 50 9.16666Z" fill="black"/>
</svg>
