<svg viewBox="0 0 280 105" fill="none" xmlns="http://www.w3.org/2000/svg">
<rect width="280" height="105" fill="#2FA4E7"/>
<path d="M114.219 56.7891C110.359 55.6797 107.547 54.3203 105.781 52.7109C104.031 51.0859 103.156 49.0859 103.156 46.7109C103.156 44.0234 104.227 41.8047 106.367 40.0547C108.523 38.2891 111.32 37.4062 114.758 37.4062C117.102 37.4062 119.188 37.8594 121.016 38.7656C122.859 39.6719 124.281 40.9219 125.281 42.5156C126.297 44.1094 126.805 45.8516 126.805 47.7422H122.281C122.281 45.6797 121.625 44.0625 120.312 42.8906C119 41.7031 117.148 41.1094 114.758 41.1094C112.539 41.1094 110.805 41.6016 109.555 42.5859C108.32 43.5547 107.703 44.9062 107.703 46.6406C107.703 48.0312 108.289 49.2109 109.461 50.1797C110.648 51.1328 112.656 52.0078 115.484 52.8047C118.328 53.6016 120.547 54.4844 122.141 55.4531C123.75 56.4062 124.938 57.5234 125.703 58.8047C126.484 60.0859 126.875 61.5938 126.875 63.3281C126.875 66.0938 125.797 68.3125 123.641 69.9844C121.484 71.6406 118.602 72.4688 114.992 72.4688C112.648 72.4688 110.461 72.0234 108.43 71.1328C106.398 70.2266 104.828 68.9922 103.719 67.4297C102.625 65.8672 102.078 64.0938 102.078 62.1094H106.602C106.602 64.1719 107.359 65.8047 108.875 67.0078C110.406 68.1953 112.445 68.7891 114.992 68.7891C117.367 68.7891 119.188 68.3047 120.453 67.3359C121.719 66.3672 122.352 65.0469 122.352 63.375C122.352 61.7031 121.766 60.4141 120.594 59.5078C119.422 58.5859 117.297 57.6797 114.219 56.7891ZM136.695 72H132.359V46.6406H136.695V72ZM132.008 39.9141C132.008 39.2109 132.219 38.6172 132.641 38.1328C133.078 37.6484 133.719 37.4062 134.562 37.4062C135.406 37.4062 136.047 37.6484 136.484 38.1328C136.922 38.6172 137.141 39.2109 137.141 39.9141C137.141 40.6172 136.922 41.2031 136.484 41.6719C136.047 42.1406 135.406 42.375 134.562 42.375C133.719 42.375 133.078 42.1406 132.641 41.6719C132.219 41.2031 132.008 40.6172 132.008 39.9141ZM142.625 59.1094C142.625 55.1562 143.539 52.0156 145.367 49.6875C147.195 47.3438 149.617 46.1719 152.633 46.1719C155.727 46.1719 158.141 47.2656 159.875 49.4531L160.086 46.6406H164.047V71.3906C164.047 74.6719 163.07 77.2578 161.117 79.1484C159.18 81.0391 156.57 81.9844 153.289 81.9844C151.461 81.9844 149.672 81.5938 147.922 80.8125C146.172 80.0312 144.836 78.9609 143.914 77.6016L146.164 75C148.023 77.2969 150.297 78.4453 152.984 78.4453C155.094 78.4453 156.734 77.8516 157.906 76.6641C159.094 75.4766 159.688 73.8047 159.688 71.6484V69.4688C157.953 71.4688 155.586 72.4688 152.586 72.4688C149.617 72.4688 147.211 71.2734 145.367 68.8828C143.539 66.4922 142.625 63.2344 142.625 59.1094ZM146.984 59.6016C146.984 62.4609 147.57 64.7109 148.742 66.3516C149.914 67.9766 151.555 68.7891 153.664 68.7891C156.398 68.7891 158.406 67.5469 159.688 65.0625V53.4844C158.359 51.0625 156.367 49.8516 153.711 49.8516C151.602 49.8516 149.953 50.6719 148.766 52.3125C147.578 53.9531 146.984 56.3828 146.984 59.6016ZM174.711 46.6406L174.852 49.8281C176.789 47.3906 179.32 46.1719 182.445 46.1719C187.805 46.1719 190.508 49.1953 190.555 55.2422V72H186.219V55.2188C186.203 53.3906 185.781 52.0391 184.953 51.1641C184.141 50.2891 182.867 49.8516 181.133 49.8516C179.727 49.8516 178.492 50.2266 177.43 50.9766C176.367 51.7266 175.539 52.7109 174.945 53.9297V72H170.609V46.6406H174.711ZM233.703 37.875V61.0781C233.688 64.2969 232.672 66.9297 230.656 68.9766C228.656 71.0234 225.938 72.1719 222.5 72.4219L221.305 72.4688C217.57 72.4688 214.594 71.4609 212.375 69.4453C210.156 67.4297 209.031 64.6562 209 61.125V37.875H213.453V60.9844C213.453 63.4531 214.133 65.375 215.492 66.75C216.852 68.1094 218.789 68.7891 221.305 68.7891C223.852 68.7891 225.797 68.1094 227.141 66.75C228.5 65.3906 229.18 63.4766 229.18 61.0078V37.875H233.703ZM261.547 59.6016C261.547 63.4609 260.664 66.5703 258.898 68.9297C257.133 71.2891 254.742 72.4688 251.727 72.4688C248.648 72.4688 246.227 71.4922 244.461 69.5391V81.75H240.125V46.6406H244.086L244.297 49.4531C246.062 47.2656 248.516 46.1719 251.656 46.1719C254.703 46.1719 257.109 47.3203 258.875 49.6172C260.656 51.9141 261.547 55.1094 261.547 59.2031V59.6016ZM257.211 59.1094C257.211 56.25 256.602 53.9922 255.383 52.3359C254.164 50.6797 252.492 49.8516 250.367 49.8516C247.742 49.8516 245.773 51.0156 244.461 53.3438V65.4609C245.758 67.7734 247.742 68.9297 250.414 68.9297C252.492 68.9297 254.141 68.1094 255.359 66.4688C256.594 64.8125 257.211 62.3594 257.211 59.1094Z" fill="white"/>
<path d="M83.3333 30H50L41.6667 21.6667H16.6667C12.0833 21.6667 8.37499 25.4167 8.37499 30L8.33333 80C8.33333 84.5833 12.0833 88.3333 16.6667 88.3333H83.3333C87.9167 88.3333 91.6667 84.5833 91.6667 80V38.3333C91.6667 33.75 87.9167 30 83.3333 30ZM62.5 42.5C67.0833 42.5 70.8333 46.25 70.8333 50.8333C70.8333 55.4167 67.0833 59.1667 62.5 59.1667C57.9167 59.1667 54.1667 55.4167 54.1667 50.8333C54.1667 46.25 57.9167 42.5 62.5 42.5ZM79.1667 75.8333H45.8333V71.6667C45.8333 66.125 56.9583 63.3333 62.5 63.3333C68.0417 63.3333 79.1667 66.125 79.1667 71.6667V75.8333Z" fill="black"/>
</svg>
