<svg width="73" viewBox="0 0 146 138" fill="none" xmlns="http://www.w3.org/2000/svg">
<path d="M73 5C48.16 5 28 25.16 28 50C28 74.84 48.16 95 73 95C97.84 95 118 74.84 118 50C118 25.16 97.84 5 73 5ZM77.5 72.5H68.5V45.5H77.5V72.5ZM77.5 36.5H68.5V27.5H77.5V36.5Z" fill="white"/>
<path d="M44.92 108.476V107.18H48.88C50.464 107.18 51.796 107.252 52.192 107.288V104.264C51.688 104.336 50.464 104.444 48.88 104.444H44.92V99.944C44.92 98.54 45.064 97.352 45.1 96.992H41.86C41.932 97.352 42.04 98.54 42.04 99.944V104.444H31.78V99.836C31.78 98.576 31.924 97.568 31.96 97.208H28.756C28.864 98.036 28.9 99.08 28.9 99.836V104.444H25.012C23.5 104.444 21.736 104.264 21.412 104.192V107.324C21.844 107.288 23.464 107.18 25.012 107.18H28.9V113.012C28.9 114.38 28.792 115.928 28.756 116.288H31.924C31.888 115.928 31.78 114.344 31.78 113.012V107.18H42.04V108.692C42.04 118.772 38.764 121.868 32.212 124.388L34.624 126.656C42.868 122.984 44.92 118.052 44.92 108.476ZM58.096 112.004L59.536 114.812C64.54 113.264 69.472 111.104 73.252 108.944V122.264C73.252 123.632 73.144 125.432 73.036 126.116H76.564C76.42 125.396 76.348 123.632 76.348 122.264V107.072C80.02 104.624 83.332 101.888 86.068 99.044L83.656 96.812C81.172 99.8 77.572 102.932 73.828 105.272C69.832 107.792 64.324 110.312 58.096 112.004ZM103.132 121.832C103.132 123.164 103.06 124.928 102.88 126.08H106.372C106.228 124.892 106.156 122.948 106.156 121.832C106.156 120.788 106.156 115.352 106.12 109.952C110.116 111.212 116.344 113.624 120.268 115.748L121.492 112.688C117.712 110.78 110.872 108.188 106.12 106.748C106.12 104.48 106.12 102.392 106.12 100.88C106.12 99.8 106.264 98.252 106.372 97.136H102.844C103.06 98.252 103.132 99.872 103.132 100.88V121.832Z" fill="white"/>
</svg>
