<svg viewBox="0 0 138 146" fill="none" xmlns="http://www.w3.org/2000/svg">
<path d="M35.7769 111.776H32.3929C32.5369 112.316 32.6449 113.576 32.6449 114.332V118.04H22.6369C21.4849 118.04 20.5849 117.968 19.5769 117.824V120.884C20.5489 120.776 21.5569 120.74 22.6729 120.74H32.6449V136.976C32.6449 137.948 32.2129 138.344 31.2409 138.344C30.3049 138.344 28.6849 138.236 27.1009 137.948L27.3529 140.792C28.8289 140.972 30.9529 141.044 32.4649 141.044C34.6609 141.044 35.5609 140.072 35.5609 138.2V120.74H45.1009C45.9649 120.74 47.0449 120.776 48.0169 120.848V117.86C47.1169 117.968 45.9289 118.04 45.0649 118.04H35.5609V114.332C35.5609 113.576 35.7049 112.28 35.7769 111.776ZM27.8569 126.32L25.3369 125.096C23.9329 128.012 20.8729 132.296 18.4609 134.492L20.9449 136.184C22.9969 133.988 26.3449 129.38 27.8569 126.32ZM42.9049 125.096L40.4569 126.428C42.3649 128.696 45.0649 133.16 46.4689 136.004L49.1329 134.528C47.6929 131.936 44.8489 127.4 42.9049 125.096ZM55.2169 124.412V127.94C56.3329 127.832 58.2409 127.76 60.2209 127.76H79.9849C81.6049 127.76 83.1169 127.904 83.8369 127.94V124.412C83.0449 124.484 81.7489 124.592 79.9489 124.592H60.2209C58.2049 124.592 56.2969 124.484 55.2169 124.412ZM105.247 113.144L101.647 112.424C101.539 113.36 101.395 114.224 100.963 115.88C99.9551 119.408 96.2831 130.928 94.2671 135.896C93.6191 135.932 93.0071 135.968 92.4671 136.004C91.4231 136.04 90.1991 136.076 89.1191 136.04L89.6591 139.388C90.7031 139.244 91.7471 139.064 92.6471 138.992C97.4711 138.56 109.531 137.228 115.075 136.508C115.903 138.272 116.587 139.928 117.055 141.224L120.079 139.856C118.567 136.148 114.643 128.912 112.087 125.204L109.387 126.428C110.719 128.156 112.339 130.964 113.779 133.808C109.819 134.348 102.907 135.104 97.6151 135.608C99.4151 130.928 102.979 119.876 104.023 116.492C104.491 114.98 104.887 114.044 105.247 113.144Z" fill="black"/>
<path d="M62.6668 83.3333V58.3333H79.3335V83.3333H100.167V50H112.667L71.0002 12.5L29.3335 50H41.8335V83.3333H62.6668Z" fill="black"/>
</svg>
