<svg width="73" viewBox="0 0 146 138" fill="none" xmlns="http://www.w3.org/2000/svg">
<path d="M76.5424 59.351L66.2385 49.4657L66.3602 49.3476C73.4188 41.7072 78.449 32.9246 81.4104 23.6301H93.2963V15.7534H64.8999V7.87671H56.7866V15.7534H28.3901V23.5907H73.7027C70.9848 31.1918 66.6848 38.399 60.8432 44.7004C57.0706 40.6438 53.9469 36.1935 51.4724 31.5068H43.3591C46.3204 37.9264 50.3771 43.9915 55.4479 49.4657L34.7996 69.2363L40.56 74.8288L60.8432 55.1369L73.4594 67.3853L76.5424 59.351ZM99.3813 39.3836H91.268L73.0131 86.6439H81.1264L85.6699 74.8288H104.939L109.523 86.6439H117.636L99.3813 39.3836ZM88.7529 66.952L95.3246 49.899L101.896 66.952H88.7529Z" fill="white"/>
<path d="M25.5817 129.845V120.351H44.4729V129.845H25.5817ZM44.4729 108.68V117.867H25.5817V108.68H44.4729ZM22.7252 106.196V134.541H25.5817V132.329H44.4729V134.404H47.4437V106.196H22.7252ZM89.5297 113.512V110.994H74.4473V103.882H71.5146V110.994H56.5464V113.512H69.7626C66.5633 119.33 61.0407 124.843 55.2515 127.531C55.899 128.007 56.8511 128.96 57.2701 129.573C62.8689 126.68 68.0106 121.542 71.5146 115.655V126.068H64.0877V128.586H71.5146V134.915H74.4473V128.586H81.6838V126.068H74.4473V115.655C77.8751 121.542 82.9788 126.714 88.7299 129.539C89.1489 128.824 90.1391 127.837 90.8247 127.327C84.845 124.741 79.3605 119.33 76.1993 113.512H89.5297ZM106.059 105.039H95.6617V107.08H106.059V105.039ZM103.774 125.591V131.274H97.8327V125.591H103.774ZM106.25 123.516H95.3571V134.881H97.8327V133.35H106.25V123.516ZM95.4332 120.896H106.098V118.888H95.4332V120.896ZM106.098 114.26H95.4332V116.268H106.098V114.26ZM93.6431 111.64H107.393V109.564H93.6431V111.64ZM123.541 125.047V131.07H112.953V125.047H123.541ZM110.287 134.915H112.953V133.35H123.541V134.779H126.284V122.801H110.287V134.915ZM122.551 113.001V117.935H115.238C115.581 116.506 115.924 114.805 116.267 113.001H122.551ZM125.255 117.935V110.823H116.686C116.914 109.632 117.143 108.442 117.333 107.319H127.388V105.107H108.687V107.319H114.553C114.362 108.442 114.172 109.632 113.943 110.823H109.259V113.001H113.563C113.22 114.771 112.839 116.506 112.496 117.935H107.545V120.181H128.607V117.935H125.255Z" fill="white"/>
</svg>
