<svg viewBox="0 0 138 146" fill="none" xmlns="http://www.w3.org/2000/svg">
<path d="M72.3483 62.7917L62.609 52.3333L62.724 52.2083C69.3958 44.125 74.1504 34.8333 76.9495 25H88.1842V16.6667H61.3437V8.33334H53.675V16.6667H26.8345V24.9583H69.6642C67.0952 33 63.0308 40.625 57.5093 47.2917C53.9434 43 50.9909 38.2917 48.652 33.3333H40.9832C43.7823 40.125 47.6167 46.5417 52.4096 52.3333L32.8928 73.25L38.3375 79.1667L57.5093 58.3333L69.4342 71.2917L72.3483 62.7917ZM93.9357 41.6667H86.267L69.0124 91.6667H76.6811L80.9756 79.1667H99.1888L103.522 91.6667H111.19L93.9357 41.6667ZM83.8897 70.8333L90.1013 52.7917L96.313 70.8333H83.8897Z" fill="black"/>
<path d="M24.18 137.372V127.328H42.036V137.372H24.18ZM42.036 114.98V124.7H24.18V114.98H42.036ZM21.48 112.352V142.34H24.18V140H42.036V142.196H44.844V112.352H21.48ZM84.624 120.092V117.428H70.368V109.904H67.596V117.428H53.448V120.092H65.94C62.916 126.248 57.696 132.08 52.224 134.924C52.836 135.428 53.736 136.436 54.132 137.084C59.424 134.024 64.284 128.588 67.596 122.36V133.376H60.576V136.04H67.596V142.736H70.368V136.04H77.208V133.376H70.368V122.36C73.608 128.588 78.432 134.06 83.868 137.048C84.264 136.292 85.2 135.248 85.848 134.708C80.196 131.972 75.012 126.248 72.024 120.092H84.624ZM100.248 111.128H90.42V113.288H100.248V111.128ZM98.088 132.872V138.884H92.472V132.872H98.088ZM100.428 130.676H90.132V142.7H92.472V141.08H100.428V130.676ZM90.204 127.904H100.284V125.78H90.204V127.904ZM100.284 120.884H90.204V123.008H100.284V120.884ZM88.512 118.112H101.508V115.916H88.512V118.112ZM116.772 132.296V138.668H106.764V132.296H116.772ZM104.244 142.736H106.764V141.08H116.772V142.592H119.364V129.92H104.244V142.736ZM115.836 119.552V124.772H108.924C109.248 123.26 109.572 121.46 109.896 119.552H115.836ZM118.392 124.772V117.248H110.292C110.508 115.988 110.724 114.728 110.904 113.54H120.408V111.2H102.732V113.54H108.276C108.096 114.728 107.916 115.988 107.7 117.248H103.272V119.552H107.34C107.016 121.424 106.656 123.26 106.332 124.772H101.652V127.148H121.56V124.772H118.392Z" fill="black"/>
</svg>
