<svg width="73" viewBox="0 0 146 138" fill="none" xmlns="http://www.w3.org/2000/svg">
<path d="M73 4.16669C51.0912 4.16669 33.3261 20.9583 33.3261 41.6667V70.8333C33.3261 77.75 39.2331 83.3333 46.5507 83.3333H59.7754V50H42.1425V41.6667C42.1425 25.5417 55.9402 12.5 73 12.5C90.0598 12.5 103.858 25.5417 103.858 41.6667V50H86.2246V83.3333H99.4493C106.767 83.3333 112.674 77.75 112.674 70.8333V41.6667C112.674 20.9583 94.9088 4.16669 73 4.16669Z" fill="white"/>
<path d="M42.117 122.516V125H27.6059V100.088H30.5385V122.516H42.117ZM45.336 107H48.1544V125H45.336V107ZM45.336 99.8H48.1544V102.932H45.336V99.8ZM59.6099 125.36C58.0864 125.36 56.2202 125.192 54.0111 124.856L52.8685 124.676L53.0209 122.336C55.9916 122.744 58.1753 122.948 59.5718 122.948C61.0953 122.948 62.2252 122.72 62.9615 122.264C63.7233 121.784 64.1042 121.028 64.1042 119.996C64.1042 119.252 63.9137 118.688 63.5329 118.304C63.1774 117.92 62.7076 117.644 62.1236 117.476C61.565 117.308 60.7652 117.152 59.7242 117.008L58.772 116.864C57.2485 116.624 56.0551 116.336 55.1918 116C54.3285 115.664 53.681 115.196 53.2494 114.596C52.8177 113.972 52.6019 113.12 52.6019 112.04C52.6019 110.096 53.224 108.716 54.4682 107.9C55.7123 107.084 57.477 106.676 59.7622 106.676C61.565 106.676 63.4059 106.832 65.2849 107.144L66.3513 107.324L66.2751 109.628C63.5329 109.244 61.3873 109.052 59.8384 109.052C58.3657 109.052 57.2612 109.268 56.5249 109.7C55.8139 110.132 55.4584 110.804 55.4584 111.716C55.4584 112.364 55.6362 112.868 55.9916 113.228C56.3471 113.564 56.8042 113.816 57.3628 113.984C57.9468 114.128 58.7593 114.284 59.8003 114.452L60.7525 114.632C62.3268 114.896 63.5455 115.208 64.4089 115.568C65.2722 115.904 65.9069 116.396 66.3132 117.044C66.7449 117.692 66.9607 118.592 66.9607 119.744C66.9607 121.688 66.3513 123.116 65.1325 124.028C63.9391 124.916 62.0982 125.36 59.6099 125.36ZM77.3906 125.396C76.0956 125.396 75.08 125.204 74.3436 124.82C73.6327 124.412 73.1121 123.74 72.7821 122.804C72.4774 121.844 72.325 120.512 72.325 118.808V109.34H69.6208V107H72.325V101.492H75.1435V107H81.1993V109.34H75.1435V117.944C75.1435 119.288 75.1942 120.296 75.2958 120.968C75.3974 121.616 75.6386 122.12 76.0194 122.48C76.4257 122.816 77.0478 122.984 77.8857 122.984L81.2754 122.768L81.4659 125C79.6631 125.264 78.3047 125.396 77.3906 125.396ZM91.8098 125.36C88.9152 125.36 86.8585 124.652 85.6397 123.236C84.4463 121.796 83.8496 119.54 83.8496 116.468C83.8496 113.132 84.4971 110.66 85.792 109.052C87.087 107.444 89.1183 106.64 91.8859 106.64C94.4251 106.64 96.3167 107.336 97.5609 108.728C98.8305 110.096 99.4652 112.208 99.4652 115.064L99.3129 117.116H86.7442C86.7442 118.604 86.9092 119.768 87.2393 120.608C87.5948 121.448 88.1788 122.06 88.9913 122.444C89.8292 122.804 90.9845 122.984 92.4572 122.984C93.1936 122.984 94.0442 122.972 95.0091 122.948C95.9739 122.9 96.8499 122.84 97.6371 122.768L98.7416 122.66L98.8178 124.784C95.9993 125.168 93.6633 125.36 91.8098 125.36ZM96.6087 114.956C96.6087 112.772 96.2406 111.224 95.5042 110.312C94.7679 109.376 93.5618 108.908 91.8859 108.908C90.1339 108.908 88.839 109.4 88.0011 110.384C87.1632 111.344 86.7315 112.868 86.7061 114.956H96.6087ZM103.917 107H106.736V108.26C107.878 107.66 108.919 107.24 109.859 107C110.824 106.76 111.826 106.64 112.868 106.64C114.493 106.64 115.749 106.928 116.638 107.504C117.527 108.08 118.149 109.004 118.504 110.276C118.885 111.524 119.076 113.264 119.076 115.496V125H116.257V115.568C116.257 113.864 116.143 112.556 115.914 111.644C115.711 110.732 115.33 110.072 114.772 109.664C114.213 109.256 113.401 109.052 112.334 109.052C111.471 109.052 110.582 109.16 109.668 109.376C108.78 109.568 108.056 109.796 107.497 110.06L106.774 110.384V125H103.917V107Z" fill="white"/>
</svg>
