<svg width="73" viewBox="0 0 146 138" fill="none" xmlns="http://www.w3.org/2000/svg">
<path d="M37.8509 105.651H34.2707C34.4231 106.162 34.5374 107.353 34.5374 108.067V111.572H23.9492C22.7304 111.572 21.7782 111.504 20.7118 111.368V114.26C21.7401 114.158 22.8066 114.124 23.9873 114.124H34.5374V129.47C34.5374 130.389 34.0803 130.764 33.052 130.764C32.0617 130.764 30.3478 130.661 28.672 130.389L28.9386 133.077C30.5001 133.248 32.7473 133.316 34.3469 133.316C36.6702 133.316 37.6224 132.397 37.6224 130.627V114.124H47.7154C48.6295 114.124 49.7721 114.158 50.8005 114.226V111.402C49.8483 111.504 48.5914 111.572 47.6774 111.572H37.6224V108.067C37.6224 107.353 37.7748 106.128 37.8509 105.651ZM29.4718 119.398L26.8057 118.241C25.3203 120.998 22.0829 125.047 19.5311 127.123L22.1591 128.722C24.3301 126.646 27.8721 122.291 29.4718 119.398ZM45.3921 118.241L42.8022 119.5C44.8208 121.644 47.6774 125.864 49.1627 128.552L51.9812 127.157C50.4577 124.707 47.4488 120.419 45.3921 118.241ZM58.4179 117.595V120.93C59.5986 120.828 61.6172 120.759 63.712 120.759H84.6217C86.3356 120.759 87.9353 120.896 88.697 120.93V117.595C87.8591 117.663 86.488 117.765 84.5836 117.765H63.712C61.5791 117.765 59.5605 117.663 58.4179 117.595ZM111.348 106.944L107.54 106.264C107.425 107.149 107.273 107.965 106.816 109.53C105.75 112.865 101.865 123.754 99.7319 128.45C99.0463 128.484 98.3988 128.518 97.8275 128.552C96.723 128.586 95.428 128.62 94.2854 128.586L94.8567 131.75C95.9613 131.614 97.0658 131.444 98.0179 131.376C103.122 130.968 115.881 129.709 121.746 129.028C122.622 130.695 123.346 132.261 123.841 133.486L127.04 132.193C125.44 128.688 121.289 121.848 118.585 118.344L115.728 119.5C117.137 121.134 118.851 123.788 120.375 126.476C116.185 126.986 108.873 127.701 103.274 128.177C105.178 123.754 108.949 113.307 110.053 110.109C110.548 108.68 110.967 107.795 111.348 106.944Z" fill="white"/>
<path d="M66.2997 78.7671V55.1369H83.9325V78.7671H105.974V47.2603H119.198L75.1162 11.8151L31.034 47.2603H44.2586V78.7671H66.2997Z" fill="white"/>
</svg>
