<svg width="73" viewBox="0 0 146 138" fill="none" xmlns="http://www.w3.org/2000/svg">
<path d="M59.9518 83.3333V58.3333H77.5847V83.3333H99.6257V50H112.851L68.7683 12.5L24.6862 50H37.9108V83.3333H59.9518Z" fill="white"/>
<path d="M47.1187 100.088V125H44.2241V113.732H30.8175V125H27.8848V100.088H30.8175V111.248H44.2241V100.088H47.1187ZM60.2177 125.36C58.1864 125.36 56.574 125.048 55.3807 124.424C54.1873 123.776 53.3367 122.78 52.8288 121.436C52.321 120.092 52.0671 118.316 52.0671 116.108C52.0671 113.828 52.3337 112.004 52.8669 110.636C53.4001 109.244 54.2634 108.236 55.4568 107.612C56.6502 106.964 58.2372 106.64 60.2177 106.64C62.2236 106.64 63.8106 106.964 64.9786 107.612C66.172 108.26 67.0353 109.268 67.5685 110.636C68.1017 112.004 68.3683 113.828 68.3683 116.108C68.3683 118.316 68.1144 120.092 67.6066 121.436C67.0987 122.78 66.2481 123.776 65.0547 124.424C63.8867 125.048 62.2744 125.36 60.2177 125.36ZM60.2558 123.02C61.6523 123.02 62.7187 122.804 63.4551 122.372C64.1914 121.916 64.6993 121.208 64.9786 120.248C65.2833 119.264 65.4356 117.884 65.4356 116.108C65.4356 114.236 65.2833 112.796 64.9786 111.788C64.6739 110.78 64.1534 110.06 63.417 109.628C62.6807 109.196 61.6269 108.98 60.2558 108.98C58.8847 108.98 57.8182 109.196 57.0565 109.628C56.3201 110.06 55.7869 110.78 55.4568 111.788C55.1521 112.796 54.9998 114.236 54.9998 116.108C54.9998 117.86 55.1394 119.228 55.4187 120.212C55.7234 121.196 56.244 121.916 56.9803 122.372C57.742 122.804 58.8339 123.02 60.2558 123.02ZM73.0271 107H75.8455V108.26C77.7499 107.18 79.6542 106.64 81.5586 106.64C82.5996 106.64 83.5391 106.796 84.377 107.108C85.2149 107.396 85.8751 107.852 86.3575 108.476C87.297 107.948 88.4015 107.516 89.6711 107.18C90.9407 106.82 92.2356 106.64 93.556 106.64C95.1048 106.64 96.3109 106.94 97.1742 107.54C98.0375 108.116 98.6469 109.04 99.0024 110.312C99.3833 111.584 99.5737 113.312 99.5737 115.496V125H96.7172V115.568C96.7172 113.864 96.6156 112.556 96.4125 111.644C96.2094 110.732 95.8285 110.072 95.2699 109.664C94.7367 109.256 93.9368 109.052 92.8704 109.052C92.0071 109.052 91.1311 109.16 90.2424 109.376C89.3537 109.568 88.63 109.796 88.0714 110.06L87.3478 110.384C87.6779 111.152 87.8429 112.904 87.8429 115.64V125H84.9864V115.712C84.9864 113.936 84.8848 112.592 84.6817 111.68C84.4786 110.744 84.1104 110.072 83.5772 109.664C83.044 109.256 82.2441 109.052 81.1777 109.052C80.3398 109.052 79.4892 109.16 78.6259 109.376C77.7626 109.568 77.0643 109.796 76.5311 110.06L75.8836 110.384V125H73.0271V107ZM111.987 125.36C109.093 125.36 107.036 124.652 105.817 123.236C104.624 121.796 104.027 119.54 104.027 116.468C104.027 113.132 104.675 110.66 105.97 109.052C107.265 107.444 109.296 106.64 112.063 106.64C114.603 106.64 116.494 107.336 117.738 108.728C119.008 110.096 119.643 112.208 119.643 115.064L119.49 117.116H106.922C106.922 118.604 107.087 119.768 107.417 120.608C107.772 121.448 108.356 122.06 109.169 122.444C110.007 122.804 111.162 122.984 112.635 122.984C113.371 122.984 114.222 122.972 115.187 122.948C116.151 122.9 117.027 122.84 117.815 122.768L118.919 122.66L118.995 124.784C116.177 125.168 113.841 125.36 111.987 125.36ZM116.786 114.956C116.786 112.772 116.418 111.224 115.682 110.312C114.945 109.376 113.739 108.908 112.063 108.908C110.311 108.908 109.017 109.4 108.179 110.384C107.341 111.344 106.909 112.868 106.884 114.956H116.786Z" fill="white"/>
</svg>
