<svg viewBox="0 0 138 146" fill="none" xmlns="http://www.w3.org/2000/svg">
<path d="M68.7082 41.6667C65.2915 31.9583 56.0415 25 45.1665 25C31.3748 25 20.1665 36.2083 20.1665 50C20.1665 63.7917 31.3748 75 45.1665 75C56.0415 75 65.2915 68.0417 68.7082 58.3333H86.8332V75H103.5V58.3333H111.833V41.6667H68.7082ZM45.1665 58.3333C40.5832 58.3333 36.8332 54.5833 36.8332 50C36.8332 45.4167 40.5832 41.6667 45.1665 41.6667C49.7498 41.6667 53.4998 45.4167 53.4998 50C53.4998 54.5833 49.7498 58.3333 45.1665 58.3333Z" fill="black"/>
<path d="M56.4 134.24C55.752 135.788 54.708 137.948 53.808 139.316L54.96 139.64H46.284L47.94 139.136C47.544 137.768 46.644 135.788 45.672 134.24H56.4ZM43.692 127.292H58.236V132.008H43.692V127.292ZM57.264 134.24H60.9V125.06H41.136V134.24H45.204L43.188 134.78C44.052 136.256 44.916 138.236 45.276 139.64H35.484V141.908H66.588V139.64H56.328C57.192 138.308 58.164 136.472 59.028 134.708L57.264 134.24ZM64.536 114.404C63.348 115.7 61.368 117.392 59.604 118.688C58.74 117.86 57.912 116.96 57.156 116.024C58.884 114.8 60.936 113.18 62.592 111.632L60.576 110.192C59.388 111.452 57.552 113.108 55.932 114.404C54.924 113 54.096 111.488 53.412 109.976L51.144 110.696C52.656 114.08 54.744 117.176 57.228 119.84H45.024C47.112 117.608 48.876 114.98 50.028 112.028L48.336 111.128L47.832 111.236H37.608V113.504H46.536C45.6 115.268 44.34 116.96 42.9 118.472C41.784 117.248 39.804 115.808 38.112 114.8L36.636 116.276C38.292 117.32 40.2 118.832 41.316 119.984C39.084 122 36.528 123.656 34.08 124.664C34.62 125.132 35.34 126.068 35.7 126.608C38.688 125.24 41.748 123.152 44.376 120.524V122.144H57.624V120.236C60.072 122.756 62.916 124.808 65.976 126.176C66.372 125.492 67.128 124.52 67.74 123.98C65.436 123.08 63.204 121.712 61.188 120.092C62.952 118.868 64.968 117.284 66.552 115.808L64.536 114.404ZM90.888 133.268C88.44 134.924 85.956 136.616 84.12 137.732L84.012 136.616L79.044 137.624V127.184H84.192V124.844H79.044V121.028H83.184V118.724H73.608C75.588 116.564 77.064 114.296 78.144 112.352C80.052 114.152 82.14 116.708 83.22 118.328L84.984 116.348C83.76 114.512 81.132 111.812 79.008 109.904H76.596C75.408 112.748 73.104 116.384 69.864 119.12C70.332 119.444 71.124 120.272 71.52 120.812C72.024 120.344 72.528 119.876 72.996 119.408V121.028H76.704V124.844H71.088V127.184H76.704V138.092C74.472 138.524 72.42 138.92 70.764 139.172L71.304 141.656C74.832 140.864 79.512 139.892 84.048 138.884L84.84 140.288C86.964 138.848 89.412 137.048 91.68 135.284L90.888 133.268ZM71.916 129.56C72.6 131.72 73.14 134.492 73.212 136.364L75.192 135.86C75.084 134.024 74.508 131.252 73.752 129.092L71.916 129.56ZM82.104 135.716C82.644 134.06 83.328 131.504 83.904 129.308L81.816 128.768C81.528 130.676 80.844 133.52 80.34 135.248L82.104 135.716ZM90.888 130.928C90.132 129.56 88.44 127.58 86.892 126.176L85.092 127.328C86.604 128.768 88.224 130.856 88.944 132.224L90.888 130.928ZM94.884 124.304H103.452V121.964H100.5V111.308H86.208V113.576H98.052V116.672H86.928V118.832H98.052V121.964H84.336V124.304H92.364V139.892C92.364 140.324 92.256 140.432 91.86 140.432C91.464 140.432 90.24 140.468 88.872 140.396C89.196 141.08 89.52 142.088 89.628 142.736C91.572 142.736 92.94 142.736 93.768 142.34C94.632 141.944 94.884 141.224 94.884 139.964V131.324C96.396 134.78 98.736 138.38 102.336 140.576C102.732 139.928 103.56 138.848 104.1 138.416C98.736 135.608 96.036 129.812 94.884 125.132V124.304ZM98.556 131.828C99.996 130.532 101.76 128.624 103.164 126.86L101.076 125.564C100.068 127.112 98.232 129.308 96.9 130.64L98.556 131.828Z" fill="black"/>
</svg>
