<svg width="138" height="138" viewBox="0 0 138 138" fill="none" xmlns="http://www.w3.org/2000/svg">
<path d="M56.6668 83.3333V58.3333H73.3335V83.3333H94.1668V50H106.667L65.0002 12.5L23.3335 50H35.8335V83.3333H56.6668Z" fill="black"/>
<path d="M44.5369 100.088V125H41.8009V113.732H29.1289V125H26.3569V100.088H29.1289V111.248H41.8009V100.088H44.5369ZM56.9181 125.36C54.9981 125.36 53.4741 125.048 52.3461 124.424C51.2181 123.776 50.4141 122.78 49.9341 121.436C49.4541 120.092 49.2141 118.316 49.2141 116.108C49.2141 113.828 49.4661 112.004 49.9701 110.636C50.4741 109.244 51.2901 108.236 52.4181 107.612C53.5461 106.964 55.0461 106.64 56.9181 106.64C58.8141 106.64 60.3141 106.964 61.4181 107.612C62.5461 108.26 63.3621 109.268 63.8661 110.636C64.3701 112.004 64.6221 113.828 64.6221 116.108C64.6221 118.316 64.3821 120.092 63.9021 121.436C63.4221 122.78 62.6181 123.776 61.4901 124.424C60.3861 125.048 58.8621 125.36 56.9181 125.36ZM56.9541 123.02C58.2741 123.02 59.2821 122.804 59.9781 122.372C60.6741 121.916 61.1541 121.208 61.4181 120.248C61.7061 119.264 61.8501 117.884 61.8501 116.108C61.8501 114.236 61.7061 112.796 61.4181 111.788C61.1301 110.78 60.6381 110.06 59.9421 109.628C59.2461 109.196 58.2501 108.98 56.9541 108.98C55.6581 108.98 54.6501 109.196 53.9301 109.628C53.2341 110.06 52.7301 110.78 52.4181 111.788C52.1301 112.796 51.9861 114.236 51.9861 116.108C51.9861 117.86 52.1181 119.228 52.3821 120.212C52.6701 121.196 53.1621 121.916 53.8581 122.372C54.5781 122.804 55.6101 123.02 56.9541 123.02ZM69.0256 107H71.6896V108.26C73.4896 107.18 75.2896 106.64 77.0896 106.64C78.0736 106.64 78.9616 106.796 79.7536 107.108C80.5456 107.396 81.1696 107.852 81.6256 108.476C82.5136 107.948 83.5576 107.516 84.7576 107.18C85.9576 106.82 87.1816 106.64 88.4296 106.64C89.8936 106.64 91.0336 106.94 91.8496 107.54C92.6656 108.116 93.2416 109.04 93.5776 110.312C93.9376 111.584 94.1176 113.312 94.1176 115.496V125H91.4176V115.568C91.4176 113.864 91.3216 112.556 91.1296 111.644C90.9376 110.732 90.5776 110.072 90.0496 109.664C89.5456 109.256 88.7896 109.052 87.7816 109.052C86.9656 109.052 86.1376 109.16 85.2976 109.376C84.4576 109.568 83.7736 109.796 83.2456 110.06L82.5616 110.384C82.8736 111.152 83.0296 112.904 83.0296 115.64V125H80.3296V115.712C80.3296 113.936 80.2336 112.592 80.0416 111.68C79.8496 110.744 79.5016 110.072 78.9976 109.664C78.4936 109.256 77.7376 109.052 76.7296 109.052C75.9376 109.052 75.1336 109.16 74.3176 109.376C73.5016 109.568 72.8416 109.796 72.3376 110.06L71.7256 110.384V125H69.0256V107ZM105.851 125.36C103.115 125.36 101.171 124.652 100.019 123.236C98.8913 121.796 98.3273 119.54 98.3273 116.468C98.3273 113.132 98.9393 110.66 100.163 109.052C101.387 107.444 103.307 106.64 105.923 106.64C108.323 106.64 110.111 107.336 111.287 108.728C112.487 110.096 113.087 112.208 113.087 115.064L112.943 117.116H101.063C101.063 118.604 101.219 119.768 101.531 120.608C101.867 121.448 102.419 122.06 103.187 122.444C103.979 122.804 105.071 122.984 106.463 122.984C107.159 122.984 107.963 122.972 108.875 122.948C109.787 122.9 110.615 122.84 111.359 122.768L112.403 122.66L112.475 124.784C109.811 125.168 107.603 125.36 105.851 125.36ZM110.387 114.956C110.387 112.772 110.039 111.224 109.343 110.312C108.647 109.376 107.507 108.908 105.923 108.908C104.267 108.908 103.043 109.4 102.251 110.384C101.459 111.344 101.051 112.868 101.027 114.956H110.387Z" fill="black"/>
</svg>
