<svg width="138" height="138" viewBox="0 0 138 138" fill="none" xmlns="http://www.w3.org/2000/svg">
<path d="M69 4.16666C48.2917 4.16666 31.5 20.9583 31.5 41.6667V70.8333C31.5 77.75 37.0833 83.3333 44 83.3333H56.5V50H39.8333V41.6667C39.8333 25.5417 52.875 12.5 69 12.5C85.125 12.5 98.1667 25.5417 98.1667 41.6667V50H81.5V83.3333H94C100.917 83.3333 106.5 77.75 106.5 70.8333V41.6667C106.5 20.9583 89.7083 4.16666 69 4.16666Z" fill="black"/>
<path d="M39.8092 122.516V125H26.0932V100.088H28.8652V122.516H39.8092ZM42.8518 107H45.5158V125H42.8518V107ZM42.8518 99.8H45.5158V102.932H42.8518V99.8ZM56.3436 125.36C54.9036 125.36 53.1396 125.192 51.0516 124.856L49.9716 124.676L50.1156 122.336C52.9236 122.744 54.9876 122.948 56.3076 122.948C57.7476 122.948 58.8156 122.72 59.5116 122.264C60.2316 121.784 60.5916 121.028 60.5916 119.996C60.5916 119.252 60.4116 118.688 60.0516 118.304C59.7156 117.92 59.2716 117.644 58.7196 117.476C58.1916 117.308 57.4356 117.152 56.4516 117.008L55.5516 116.864C54.1116 116.624 52.9836 116.336 52.1676 116C51.3516 115.664 50.7396 115.196 50.3316 114.596C49.9236 113.972 49.7196 113.12 49.7196 112.04C49.7196 110.096 50.3076 108.716 51.4836 107.9C52.6596 107.084 54.3276 106.676 56.4876 106.676C58.1916 106.676 59.9316 106.832 61.7076 107.144L62.7156 107.324L62.6436 109.628C60.0516 109.244 58.0236 109.052 56.5596 109.052C55.1676 109.052 54.1236 109.268 53.4276 109.7C52.7556 110.132 52.4196 110.804 52.4196 111.716C52.4196 112.364 52.5876 112.868 52.9236 113.228C53.2596 113.564 53.6916 113.816 54.2196 113.984C54.7716 114.128 55.5396 114.284 56.5236 114.452L57.4236 114.632C58.9116 114.896 60.0636 115.208 60.8796 115.568C61.6956 115.904 62.2956 116.396 62.6796 117.044C63.0876 117.692 63.2916 118.592 63.2916 119.744C63.2916 121.688 62.7156 123.116 61.5636 124.028C60.4356 124.916 58.6956 125.36 56.3436 125.36ZM73.15 125.396C71.926 125.396 70.966 125.204 70.27 124.82C69.598 124.412 69.106 123.74 68.794 122.804C68.506 121.844 68.362 120.512 68.362 118.808V109.34H65.806V107H68.362V101.492H71.026V107H76.75V109.34H71.026V117.944C71.026 119.288 71.074 120.296 71.17 120.968C71.266 121.616 71.494 122.12 71.854 122.48C72.238 122.816 72.826 122.984 73.618 122.984L76.822 122.768L77.002 125C75.298 125.264 74.014 125.396 73.15 125.396ZM86.7791 125.36C84.0431 125.36 82.0991 124.652 80.9471 123.236C79.8191 121.796 79.2551 119.54 79.2551 116.468C79.2551 113.132 79.8671 110.66 81.0911 109.052C82.3151 107.444 84.2351 106.64 86.8511 106.64C89.2511 106.64 91.0391 107.336 92.2151 108.728C93.4151 110.096 94.0151 112.208 94.0151 115.064L93.8711 117.116H81.9911C81.9911 118.604 82.1471 119.768 82.4591 120.608C82.7951 121.448 83.3471 122.06 84.1151 122.444C84.9071 122.804 85.9991 122.984 87.3911 122.984C88.0871 122.984 88.8911 122.972 89.8031 122.948C90.7151 122.9 91.5431 122.84 92.2871 122.768L93.3311 122.66L93.4031 124.784C90.7391 125.168 88.5311 125.36 86.7791 125.36ZM91.3151 114.956C91.3151 112.772 90.9671 111.224 90.2711 110.312C89.5751 109.376 88.4351 108.908 86.8511 108.908C85.1951 108.908 83.9711 109.4 83.1791 110.384C82.3871 111.344 81.9791 112.868 81.9551 114.956H91.3151ZM98.2229 107H100.887V108.26C101.967 107.66 102.951 107.24 103.839 107C104.751 106.76 105.699 106.64 106.683 106.64C108.219 106.64 109.407 106.928 110.247 107.504C111.087 108.08 111.675 109.004 112.011 110.276C112.371 111.524 112.551 113.264 112.551 115.496V125H109.887V115.568C109.887 113.864 109.779 112.556 109.563 111.644C109.371 110.732 109.011 110.072 108.483 109.664C107.955 109.256 107.187 109.052 106.179 109.052C105.363 109.052 104.523 109.16 103.659 109.376C102.819 109.568 102.135 109.796 101.607 110.06L100.923 110.384V125H98.2229V107Z" fill="black"/>
</svg>
