<svg width="138" height="138" viewBox="0 0 138 138" fill="none" xmlns="http://www.w3.org/2000/svg">
<path d="M67.7082 41.6667C64.2915 31.9583 55.0415 25 44.1665 25C30.3748 25 19.1665 36.2083 19.1665 50C19.1665 63.7917 30.3748 75 44.1665 75C55.0415 75 64.2915 68.0417 67.7082 58.3333H85.8332V75H102.5V58.3333H110.833V41.6667H67.7082ZM44.1665 58.3333C39.5832 58.3333 35.8332 54.5833 35.8332 50C35.8332 45.4167 39.5832 41.6667 44.1665 41.6667C48.7498 41.6667 52.4998 45.4167 52.4998 50C52.4998 54.5833 48.7498 58.3333 44.1665 58.3333Z" fill="black"/>
<path d="M28.3436 125.324C26.6636 125.324 24.4676 125.12 21.7556 124.712L20.4596 124.532L20.7476 122.228C24.0356 122.66 26.5196 122.876 28.1996 122.876C31.7516 122.876 33.5276 121.208 33.5276 117.872C33.5276 116.96 33.3596 116.24 33.0236 115.712C32.7116 115.184 32.1596 114.752 31.3676 114.416C30.5996 114.08 29.4716 113.768 27.9836 113.48C26.0156 113.072 24.4796 112.604 23.3756 112.076C22.2956 111.548 21.5036 110.84 20.9996 109.952C20.4956 109.064 20.2436 107.876 20.2436 106.388C20.2436 101.924 22.9196 99.692 28.2716 99.692C30.1196 99.692 32.6276 99.932 35.7956 100.412L35.5436 102.752C32.0876 102.344 29.7236 102.14 28.4516 102.14C24.8516 102.14 23.0516 103.496 23.0516 106.208C23.0516 107.24 23.2196 108.032 23.5556 108.584C23.9156 109.112 24.5156 109.544 25.3556 109.88C26.1956 110.216 27.5276 110.588 29.3516 110.996C31.1276 111.404 32.4956 111.86 33.4556 112.364C34.4396 112.868 35.1596 113.54 35.6156 114.38C36.0716 115.196 36.2996 116.288 36.2996 117.656C36.2996 122.768 33.6476 125.324 28.3436 125.324ZM40.6193 107H43.2833V125H40.6193V107ZM40.6193 99.8H43.2833V102.932H40.6193V99.8ZM54.7308 133.46C52.0428 133.46 50.1348 133.052 49.0068 132.236C47.9028 131.444 47.3508 130.112 47.3508 128.24C47.3508 127.472 47.4348 126.836 47.6028 126.332C47.7948 125.852 48.0828 125.42 48.4668 125.036C48.8508 124.652 49.4268 124.16 50.1948 123.56C49.8588 123.344 49.6068 123.02 49.4388 122.588C49.2708 122.156 49.1868 121.7 49.1868 121.22C49.1868 120.908 49.2588 120.572 49.4028 120.212C49.5468 119.828 49.8828 119.168 50.4108 118.232C48.5148 117.392 47.5668 115.592 47.5668 112.832C47.5668 110.744 48.1308 109.196 49.2588 108.188C50.3868 107.156 52.0908 106.64 54.3708 106.64C55.4748 106.64 56.6988 106.796 58.0428 107.108L63.3708 106.964V109.268L59.9508 109.196C60.3588 109.604 60.6588 110.108 60.8508 110.708C61.0428 111.284 61.1388 112.028 61.1388 112.94C61.1388 115.076 60.5868 116.6 59.4828 117.512C58.3788 118.424 56.6388 118.88 54.2628 118.88C53.5188 118.88 52.9068 118.832 52.4268 118.736C52.2348 119.216 52.0788 119.636 51.9588 119.996C51.8388 120.356 51.7788 120.668 51.7788 120.932C51.7788 121.556 52.0188 121.964 52.4988 122.156C53.0028 122.348 53.7708 122.444 54.8028 122.444H56.2068C57.7908 122.444 59.0628 122.564 60.0228 122.804C61.0068 123.044 61.7628 123.536 62.2908 124.28C62.8188 125 63.0828 126.056 63.0828 127.448C63.0828 129.536 62.4348 131.06 61.1388 132.02C59.8428 132.98 57.7068 133.46 54.7308 133.46ZM54.3708 116.72C55.8348 116.72 56.8788 116.42 57.5028 115.82C58.1268 115.22 58.4388 114.2 58.4388 112.76C58.4388 111.344 58.1268 110.336 57.5028 109.736C56.8788 109.136 55.8468 108.836 54.4068 108.836C52.9188 108.836 51.8508 109.148 51.2028 109.772C50.5788 110.372 50.2668 111.38 50.2668 112.796C50.2668 114.212 50.5788 115.22 51.2028 115.82C51.8508 116.42 52.9068 116.72 54.3708 116.72ZM54.9828 131.192C56.9748 131.192 58.3668 130.916 59.1588 130.364C59.9508 129.836 60.3468 128.912 60.3468 127.592C60.3468 126.824 60.2148 126.236 59.9508 125.828C59.6868 125.444 59.2428 125.18 58.6188 125.036C57.9948 124.892 57.0948 124.82 55.9188 124.82L52.0308 124.64C51.2388 125.216 50.6988 125.72 50.4108 126.152C50.1468 126.584 50.0148 127.16 50.0148 127.88C50.0148 129.128 50.3748 129.992 51.0948 130.472C51.8388 130.952 53.1348 131.192 54.9828 131.192ZM66.635 107H69.299V108.26C70.379 107.66 71.363 107.24 72.251 107C73.163 106.76 74.111 106.64 75.095 106.64C76.631 106.64 77.819 106.928 78.659 107.504C79.499 108.08 80.087 109.004 80.423 110.276C80.783 111.524 80.963 113.264 80.963 115.496V125H78.299V115.568C78.299 113.864 78.191 112.556 77.975 111.644C77.783 110.732 77.423 110.072 76.895 109.664C76.367 109.256 75.599 109.052 74.591 109.052C73.775 109.052 72.935 109.16 72.071 109.376C71.231 109.568 70.547 109.796 70.019 110.06L69.335 110.384V125H66.635V107ZM94.3491 100.088H97.1211V125H94.3491V100.088ZM102.74 107H105.404V108.26C106.484 107.66 107.468 107.24 108.356 107C109.268 106.76 110.216 106.64 111.2 106.64C112.736 106.64 113.924 106.928 114.764 107.504C115.604 108.08 116.192 109.004 116.528 110.276C116.888 111.524 117.068 113.264 117.068 115.496V125H114.404V115.568C114.404 113.864 114.296 112.556 114.08 111.644C113.888 110.732 113.528 110.072 113 109.664C112.472 109.256 111.704 109.052 110.696 109.052C109.88 109.052 109.04 109.16 108.176 109.376C107.336 109.568 106.652 109.796 106.124 110.06L105.44 110.384V125H102.74V107Z" fill="black"/>
</svg>
