<svg viewBox="0 0 260 100" fill="none" xmlns="http://www.w3.org/2000/svg">
<rect width="260" height="100" fill="#4A9986" fill-opacity="0.86"/>
<path d="M54.54 12.956L52.632 13.748C53.604 15.116 54.828 17.276 55.548 18.752L57.492 17.888C56.772 16.412 55.44 14.216 54.54 12.956ZM58.5 11.516L56.592 12.308C57.636 13.676 58.788 15.692 59.58 17.276L61.524 16.412C60.84 15.08 59.472 12.812 58.5 11.516ZM34.848 30.164C33.588 33.188 31.572 36.968 29.304 39.956L32.364 41.252C34.38 38.372 36.324 34.664 37.656 31.352C39.168 27.68 40.428 22.352 40.932 20.084C41.076 19.328 41.364 18.284 41.58 17.492L38.376 16.808C37.908 20.984 36.396 26.456 34.848 30.164ZM52.56 28.796C54.072 32.648 55.728 37.508 56.628 41.18L59.832 40.136C58.896 36.896 56.988 31.388 55.512 27.824C54 24.008 51.696 19.04 50.256 16.448L47.34 17.42C48.924 20.084 51.12 25.088 52.56 28.796ZM66.096 28.004L67.536 30.812C72.54 29.264 77.472 27.104 81.252 24.944V38.264C81.252 39.632 81.144 41.432 81.036 42.116H84.564C84.42 41.396 84.348 39.632 84.348 38.264V23.072C88.02 20.624 91.332 17.888 94.068 15.044L91.656 12.812C89.172 15.8 85.572 18.932 81.828 21.272C77.832 23.792 72.324 26.312 66.096 28.004ZM126.936 13.676H123.552C123.66 14.576 123.732 15.584 123.732 16.808V22.496C123.732 29.3 123.3 32.216 120.744 35.204C118.512 37.724 115.452 39.164 112.14 39.992L114.48 42.476C117.108 41.576 120.708 40.028 123.048 37.22C125.64 34.124 126.828 31.28 126.828 22.64V16.808C126.828 15.584 126.864 14.576 126.936 13.676ZM110.232 13.964H106.956C107.028 14.648 107.1 15.908 107.1 16.556V28.544C107.1 29.624 106.992 30.776 106.92 31.316H110.232C110.16 30.668 110.088 29.48 110.088 28.58V16.556C110.088 15.692 110.16 14.648 110.232 13.964ZM143.172 14.612L141.12 16.808C143.784 18.608 148.284 22.46 150.084 24.332L152.352 22.064C150.336 20.048 145.728 16.304 143.172 14.612ZM140.076 38.732L141.984 41.684C147.996 40.568 152.532 38.372 156.132 36.104C161.568 32.684 165.78 27.788 168.228 23.288L166.5 20.228C164.412 24.656 160.02 29.984 154.476 33.476C151.056 35.6 146.376 37.796 140.076 38.732ZM198.108 12.776L196.2 13.604C197.172 14.972 198.396 17.132 199.116 18.572L201.06 17.708C200.304 16.268 199.008 14.072 198.108 12.776ZM202.068 11.336L200.16 12.164C201.168 13.496 202.356 15.548 203.148 17.096L205.056 16.232C204.408 14.9 203.004 12.668 202.068 11.336ZM188.568 13.1H185.184C185.328 13.928 185.436 15.26 185.436 16.088C185.436 17.348 185.364 18.572 185.292 19.724H178.956C177.588 19.724 176.112 19.652 174.852 19.544V22.568C176.112 22.424 177.588 22.424 178.992 22.424H185.04C184.068 29.84 181.476 34.34 177.912 37.58C176.832 38.624 175.356 39.632 174.204 40.244L176.832 42.368C182.844 38.228 186.588 32.792 187.884 22.424H197.964C197.964 26.276 197.496 35.132 196.128 37.904C195.732 38.768 195.084 39.056 194.04 39.056C192.528 39.056 190.62 38.912 188.676 38.66L189.036 41.648C190.908 41.792 192.996 41.9 194.832 41.9C196.812 41.9 197.964 41.252 198.684 39.704C200.304 36.248 200.736 25.772 200.88 22.316C200.88 21.848 200.952 21.164 201.06 20.552L199.044 19.544C198.432 19.652 197.712 19.724 196.74 19.724H188.172C188.244 18.536 188.316 17.312 188.352 16.016C188.388 15.152 188.46 13.892 188.568 13.1ZM225.864 40.244L227.772 41.828C228.024 41.612 228.42 41.324 228.996 41C233.172 38.948 238.176 35.24 241.272 31.028L239.58 28.58C236.808 32.648 232.38 35.924 229.068 37.436V16.664C229.068 15.296 229.176 14.252 229.212 14H225.9C225.936 14.252 226.116 15.296 226.116 16.664V38.228C226.116 38.948 226.008 39.668 225.864 40.244ZM209.376 40.064L212.076 41.9C215.1 39.38 217.404 35.852 218.484 32C219.456 28.4 219.6 20.696 219.6 16.7C219.6 15.62 219.744 14.54 219.78 14.108H216.468C216.612 14.864 216.72 15.656 216.72 16.736C216.72 20.732 216.684 27.932 215.64 31.208C214.56 34.7 212.4 37.904 209.376 40.064ZM109.764 50.976C107.568 56.592 103.86 62.1 99.972 65.628C100.512 66.24 101.34 67.572 101.592 68.22C103.068 66.852 104.472 65.196 105.804 63.396V83.7H108.432V59.472C109.908 57.024 111.24 54.396 112.32 51.768L109.764 50.976ZM133.596 64.836V62.244H123.3V51.444H120.6V62.244H110.376V64.836H120.6V79.704H111.24V82.296H132.984V79.704H123.3V64.836H133.596ZM162.864 76.248H154.224V73.548H162.864V76.248ZM154.224 68.904H162.864V71.424H154.224V68.904ZM143.82 62.532V59.94H151.56V62.532H143.82ZM162.288 59.94V62.532H154.224V59.94H162.288ZM169.236 71.424H165.528V66.924H154.224V64.404H164.952V58.068H154.224V55.98H168.552V53.784H154.224V50.904H151.56V53.784H137.52V55.98H151.56V58.068H141.264V64.404H151.56V66.924H140.256V68.904H151.56V71.424H136.836V73.548H151.56V76.248H139.932V78.3H151.56V80.784C151.56 81.396 151.344 81.612 150.66 81.648C150.048 81.648 147.888 81.684 145.728 81.612C146.088 82.224 146.52 83.196 146.664 83.88C149.652 83.88 151.524 83.844 152.64 83.448C153.72 83.052 154.224 82.44 154.224 80.784V78.3H162.864V79.92H165.528V73.548H169.236V71.424Z" fill="white"/>
</svg>
