<svg viewBox="0 0 260 100" fill="none" xmlns="http://www.w3.org/2000/svg">
<rect width="260" height="100" fill="#E0D807"/>
<path d="M36.112 15.548C36.22 15.98 36.472 17.384 36.868 19.328C33.484 19.868 30.352 20.336 28.948 20.48C27.796 20.624 26.86 20.696 25.96 20.732L26.572 23.972C27.652 23.72 28.48 23.54 29.488 23.36C30.856 23.108 33.988 22.604 37.408 22.064C37.84 24.296 38.344 26.852 38.848 29.3C34.744 29.948 30.82 30.56 29.02 30.812C28.084 30.956 26.68 31.1 25.852 31.136L26.5 34.268C27.256 34.052 28.264 33.872 29.668 33.62C31.432 33.296 35.284 32.648 39.352 31.964C40.036 35.528 40.612 38.444 40.756 39.236C41.008 40.316 41.116 41.396 41.296 42.62L44.572 42.008C44.248 41 43.96 39.776 43.708 38.732C43.528 37.904 42.952 35.024 42.232 31.496C45.76 30.956 49.108 30.416 51.088 30.092C52.42 29.876 53.572 29.696 54.328 29.624L53.752 26.6C52.96 26.816 51.952 27.032 50.548 27.284C48.748 27.608 45.328 28.22 41.692 28.796C41.224 26.384 40.72 23.828 40.252 21.596C43.708 21.056 46.984 20.516 48.64 20.264C49.576 20.12 50.692 19.976 51.232 19.904L50.62 16.88C50.008 17.06 49.108 17.312 48.064 17.492C46.552 17.78 43.24 18.32 39.748 18.896C39.316 16.88 39.064 15.404 38.992 15.008C38.884 14.216 38.704 13.208 38.668 12.524L35.428 13.1C35.68 13.82 35.932 14.612 36.112 15.548ZM71.86 18.968L68.764 19.724C69.088 20.264 69.376 20.984 69.628 21.884C69.844 22.568 70.276 24.116 70.816 26.024C68.62 26.42 66.928 26.744 66.424 26.816C65.344 26.996 64.444 27.14 63.436 27.212L64.156 29.948C65.128 29.732 68.08 29.156 71.464 28.472C72.868 33.62 74.596 39.992 75.064 41.612C75.316 42.512 75.496 43.448 75.604 44.24L78.664 43.448C78.448 42.8 78.088 41.684 77.872 41C77.404 39.416 75.64 33.08 74.2 27.896C79.204 26.888 84.28 25.88 85.108 25.736C83.884 27.896 81.184 31.208 78.916 33.152L81.472 34.412C83.92 32 87.628 26.96 89.14 23.9L87.34 22.64C86.98 22.82 86.404 22.964 85.972 23.072C84.748 23.36 78.628 24.548 73.552 25.52C73.012 23.612 72.58 22.064 72.364 21.272C72.148 20.372 71.968 19.58 71.86 18.968ZM121.936 13.676H118.552C118.66 14.576 118.732 15.584 118.732 16.808V22.496C118.732 29.3 118.3 32.216 115.744 35.204C113.512 37.724 110.452 39.164 107.14 39.992L109.48 42.476C112.108 41.576 115.708 40.028 118.048 37.22C120.64 34.124 121.828 31.28 121.828 22.64V16.808C121.828 15.584 121.864 14.576 121.936 13.676ZM105.232 13.964H101.956C102.028 14.648 102.1 15.908 102.1 16.556V28.544C102.1 29.624 101.992 30.776 101.92 31.316H105.232C105.16 30.668 105.088 29.48 105.088 28.58V16.556C105.088 15.692 105.16 14.648 105.232 13.964ZM163.516 16.664L161.752 14.972C161.212 15.08 159.916 15.188 159.232 15.188H138.568C137.236 15.188 135.724 15.044 134.464 14.864V18.14C135.868 17.996 137.236 17.924 138.568 17.924H159.088C157.9 20.156 154.516 24.08 151.204 25.988L153.58 27.896C157.684 25.052 161.104 20.408 162.544 17.96C162.796 17.564 163.264 17.024 163.516 16.664ZM149.152 21.416H145.912C146.02 22.352 146.056 23.144 146.056 24.008C146.056 30.02 145.264 35.132 139.684 38.552C138.676 39.272 137.452 39.848 136.444 40.172L139.108 42.332C148.288 37.76 149.152 31.172 149.152 21.416ZM182.56 12.524L179.608 12.272C179.536 13.604 179.212 15.224 178.708 16.772C177.916 16.808 177.088 16.808 176.332 16.808C174.676 16.808 172.156 16.664 170.248 16.412V19.112C172.228 19.256 174.604 19.328 176.152 19.328C176.656 19.328 177.196 19.328 177.736 19.328C176.368 22.244 173.956 25.952 169.42 30.344L171.868 32.144C173.092 30.704 174.1 29.372 175.144 28.4C176.764 26.888 179.068 25.772 181.336 25.772C182.956 25.772 184.252 26.456 184.612 28.004C180.4 30.2 176.116 32.864 176.116 37.112C176.116 41.504 180.256 42.62 185.404 42.62C188.536 42.62 192.532 42.332 195.268 41.972L195.34 39.092C192.172 39.632 188.32 39.956 185.512 39.956C181.804 39.956 178.996 39.524 178.996 36.716C178.996 34.34 181.336 32.432 184.684 30.668C184.684 32.576 184.648 34.916 184.576 36.284H187.348C187.312 34.52 187.276 31.46 187.24 29.372C189.976 28.076 192.532 27.032 194.548 26.276C195.52 25.88 196.816 25.376 197.752 25.124L196.564 22.424C195.556 22.964 194.692 23.36 193.612 23.828C191.74 24.692 189.544 25.556 187.096 26.744C186.52 24.656 184.612 23.504 182.272 23.504C180.724 23.504 178.636 23.972 177.268 24.836C178.492 23.216 179.68 21.164 180.508 19.256C184.432 19.112 188.896 18.824 192.46 18.248L192.496 15.584C189.112 16.196 185.188 16.52 181.516 16.7C182.056 15.008 182.344 13.604 182.56 12.524ZM215.932 17.096C215.932 20.12 215.5 24.152 210.28 27.212C210.892 27.608 211.828 28.436 212.224 29.012C217.876 25.592 218.452 20.804 218.452 17.132V16.916H223.42V24.8C223.42 25.196 223.312 25.304 222.844 25.34C222.376 25.34 220.828 25.34 219.028 25.304C219.352 25.988 219.676 26.96 219.784 27.644C222.16 27.644 223.816 27.644 224.788 27.284C225.796 26.852 226.012 26.168 226.012 24.836V16.916H235.732V14.468H221.332V10.904H218.632V14.468H204.412V16.916H215.932V17.096ZM227.884 19.868C230.188 22.028 232.924 25.016 234.112 26.996L236.344 25.592C235.048 23.612 232.276 20.696 229.936 18.644L227.884 19.868ZM209.812 18.788C208.696 21.056 206.248 23.612 203.764 25.088C204.304 25.484 205.132 26.204 205.6 26.672C208.228 24.98 210.82 22.208 212.332 19.508L209.812 18.788ZM214.744 31.964H226.552C224.968 33.98 222.772 35.636 220.216 37.004C217.84 35.672 215.932 34.052 214.528 32.18L214.744 31.964ZM228.784 29.624L228.28 29.732H217.12C217.804 29.012 218.416 28.292 218.992 27.536L216.112 27.032C214.096 29.84 210.208 32.972 204.7 35.096C205.24 35.528 206.032 36.392 206.392 37.04C208.768 36.032 210.82 34.844 212.656 33.584C213.988 35.348 215.644 36.896 217.552 38.228C213.52 39.884 208.732 40.892 203.8 41.504C204.304 42.008 204.916 43.196 205.096 43.844C210.424 43.088 215.644 41.828 220.108 39.74C224.176 41.864 229.18 43.196 234.94 43.808C235.228 43.088 235.912 41.936 236.488 41.36C231.304 40.928 226.696 39.884 222.88 38.3C226.084 36.392 228.748 33.944 230.548 30.812L228.784 29.624ZM105.777 52.596L105.309 55.224C109.701 56.016 116.001 56.844 119.601 57.168L119.997 54.504C116.577 54.288 109.701 53.46 105.777 52.596ZM120.717 62.892L118.989 60.948C118.665 61.092 117.873 61.272 117.261 61.344C114.561 61.668 106.173 62.244 104.121 62.28C102.969 62.316 101.889 62.28 101.061 62.208L101.313 65.376C102.105 65.232 103.041 65.124 104.229 65.016C106.425 64.836 112.473 64.332 115.317 64.152C111.753 67.716 101.961 77.508 100.521 78.984C99.8009 79.668 99.1529 80.208 98.7209 80.604L101.457 82.512C103.473 79.92 107.397 75.78 108.765 74.484C109.593 73.692 110.421 73.188 111.429 73.188C112.401 73.188 113.193 73.836 113.625 75.096C113.949 76.14 114.489 78.264 114.849 79.344C115.605 81.72 117.405 82.404 120.285 82.404C122.229 82.404 125.541 82.116 127.053 81.864L127.233 78.84C125.541 79.272 122.805 79.56 120.429 79.56C118.593 79.56 117.729 78.984 117.297 77.616C116.937 76.428 116.433 74.628 116.109 73.584C115.605 72.108 114.777 71.136 113.373 70.992C112.977 70.92 112.329 70.884 111.969 70.92C113.301 69.552 117.369 65.772 118.737 64.512C119.169 64.116 120.033 63.36 120.717 62.892ZM142.631 77.22C142.631 75.96 143.891 74.916 145.511 74.916C148.247 74.916 150.047 76.968 150.335 79.812C149.435 79.956 148.463 80.028 147.419 80.028C144.611 80.028 142.631 78.948 142.631 77.22ZM138.023 54.468L138.131 57.456C138.887 57.348 139.715 57.276 140.507 57.24C142.415 57.132 149.615 56.808 151.523 56.736C149.687 58.356 145.187 62.136 143.171 63.792C141.083 65.556 136.475 69.408 133.487 71.856L135.539 73.98C140.111 69.336 143.315 66.78 149.327 66.78C154.007 66.78 157.391 69.444 157.391 72.972C157.391 75.924 155.771 78.012 152.891 79.128C152.459 75.708 150.047 72.756 145.547 72.756C142.199 72.756 140.003 74.952 140.003 77.436C140.003 80.424 142.991 82.548 147.887 82.548C155.519 82.548 160.271 78.804 160.271 73.008C160.271 68.148 155.987 64.548 150.011 64.548C148.391 64.548 146.663 64.728 145.007 65.304C147.815 62.964 152.711 58.788 154.511 57.42C155.159 56.88 155.879 56.412 156.527 55.944L154.871 53.856C154.511 53.964 154.007 54.072 152.927 54.144C151.019 54.324 142.451 54.612 140.579 54.612C139.859 54.612 138.851 54.576 138.023 54.468Z" fill="black"/>
</svg>
