<svg viewBox="0 0 260 100" fill="none" xmlns="http://www.w3.org/2000/svg">
<rect width="260" height="100" fill="#1DA2BF"/>
<path d="M32.192 18.304V21.508C33.02 21.472 34.82 21.4 36.152 21.4H53.396V38.392H35.72C34.208 38.392 32.66 38.284 31.724 38.176V41.452C32.696 41.38 34.316 41.308 35.792 41.308H53.396C53.36 42.172 53.36 42.928 53.324 43.324H56.564C56.528 42.748 56.42 41.128 56.42 39.832V21.256C56.42 20.392 56.492 19.276 56.528 18.448C55.808 18.484 54.728 18.52 53.864 18.52H36.116C34.964 18.52 33.38 18.448 32.192 18.304ZM67.256 18.34C67.328 19.204 67.328 20.32 67.328 21.148V38.86C67.328 40.12 67.256 42.784 67.22 43.252H70.316C70.28 42.964 70.28 42.1 70.244 41.164H89.9C89.9 42.136 89.864 43 89.864 43.252H92.96C92.924 42.856 92.888 40.048 92.888 38.896V21.148C92.888 20.248 92.888 19.24 92.96 18.34C91.88 18.412 90.584 18.412 89.792 18.412H70.46C69.632 18.412 68.66 18.376 67.256 18.34ZM70.244 21.256H89.936V38.356H70.244V21.256ZM115.46 18.7V23.56H104.84C103.58 23.56 102.248 23.452 101.492 23.38V26.476C102.248 26.404 103.58 26.368 104.912 26.368H115.46C115.46 33.748 112.508 39.076 105.704 42.28L108.512 44.368C115.784 40.12 118.448 34.288 118.484 26.368H128.024C129.14 26.368 130.616 26.404 131.192 26.476V23.416C130.616 23.488 129.248 23.56 128.06 23.56H118.484V18.736C118.484 17.656 118.592 15.856 118.7 15.136H115.136C115.316 15.856 115.46 17.62 115.46 18.7ZM161.54 14.956L159.632 15.748C160.604 17.116 161.828 19.276 162.548 20.752L164.492 19.888C163.772 18.412 162.44 16.216 161.54 14.956ZM165.5 13.516L163.592 14.308C164.636 15.676 165.788 17.692 166.58 19.276L168.524 18.412C167.84 17.08 166.472 14.812 165.5 13.516ZM141.848 32.164C140.588 35.188 138.572 38.968 136.304 41.956L139.364 43.252C141.38 40.372 143.324 36.664 144.656 33.352C146.168 29.68 147.428 24.352 147.932 22.084C148.076 21.328 148.364 20.284 148.58 19.492L145.376 18.808C144.908 22.984 143.396 28.456 141.848 32.164ZM159.56 30.796C161.072 34.648 162.728 39.508 163.628 43.18L166.832 42.136C165.896 38.896 163.988 33.388 162.512 29.824C161 26.008 158.696 21.04 157.256 18.448L154.34 19.42C155.924 22.084 158.12 27.088 159.56 30.796ZM173.096 30.004L174.536 32.812C179.54 31.264 184.472 29.104 188.252 26.944V40.264C188.252 41.632 188.144 43.432 188.036 44.116H191.564C191.42 43.396 191.348 41.632 191.348 40.264V25.072C195.02 22.624 198.332 19.888 201.068 17.044L198.656 14.812C196.172 17.8 192.572 20.932 188.828 23.272C184.832 25.792 179.324 28.312 173.096 30.004ZM224.864 42.244L226.772 43.828C227.024 43.612 227.42 43.324 227.996 43C232.172 40.948 237.176 37.24 240.272 33.028L238.58 30.58C235.808 34.648 231.38 37.924 228.068 39.436V18.664C228.068 17.296 228.176 16.252 228.212 16H224.9C224.936 16.252 225.116 17.296 225.116 18.664V40.228C225.116 40.948 225.008 41.668 224.864 42.244ZM208.376 42.064L211.076 43.9C214.1 41.38 216.404 37.852 217.484 34C218.456 30.4 218.6 22.696 218.6 18.7C218.6 17.62 218.744 16.54 218.78 16.108H215.468C215.612 16.864 215.72 17.656 215.72 18.736C215.72 22.732 215.684 29.932 214.64 33.208C213.56 36.7 211.4 39.904 208.376 42.064ZM90.8 58.916L88.964 57.512C88.388 57.692 87.452 57.8 86.264 57.8H72.368C71.288 57.8 69.236 57.656 68.732 57.584V60.86C69.128 60.824 71.108 60.68 72.368 60.68H86.408C85.508 63.668 82.88 67.916 80.432 70.688C76.724 74.828 71.396 79.112 65.6 81.38L67.904 83.792C73.232 81.38 78.092 77.42 81.944 73.28C85.616 76.556 89.432 80.804 91.844 83.972L94.364 81.812C92.024 78.968 87.632 74.288 83.852 71.048C86.408 67.808 88.676 63.596 89.9 60.5C90.116 59.996 90.584 59.204 90.8 58.916ZM130.688 70.4C130.688 63.092 125.324 57.152 116.9 57.152C108.116 57.152 101.168 63.992 101.168 71.804C101.168 77.744 104.372 81.416 107.576 81.416C110.924 81.416 113.768 77.636 115.964 70.22C116.972 66.872 117.656 63.2 118.124 59.852C124.244 60.356 127.736 64.856 127.736 70.292C127.736 76.52 123.2 79.94 118.592 80.984C117.764 81.164 116.648 81.344 115.496 81.452L117.188 84.116C125.72 83 130.688 77.96 130.688 70.4ZM103.976 71.552C103.976 66.656 108.224 60.752 115.136 59.888C114.74 63.2 114.02 66.62 113.12 69.608C111.284 75.692 109.376 78.104 107.684 78.104C106.064 78.104 103.976 76.088 103.976 71.552ZM147.932 59.096C147.932 62.12 147.5 66.152 142.28 69.212C142.892 69.608 143.828 70.436 144.224 71.012C149.876 67.592 150.452 62.804 150.452 59.132V58.916H155.42V66.8C155.42 67.196 155.312 67.304 154.844 67.34C154.376 67.34 152.828 67.34 151.028 67.304C151.352 67.988 151.676 68.96 151.784 69.644C154.16 69.644 155.816 69.644 156.788 69.284C157.796 68.852 158.012 68.168 158.012 66.836V58.916H167.732V56.468H153.332V52.904H150.632V56.468H136.412V58.916H147.932V59.096ZM159.884 61.868C162.188 64.028 164.924 67.016 166.112 68.996L168.344 67.592C167.048 65.612 164.276 62.696 161.936 60.644L159.884 61.868ZM141.812 60.788C140.696 63.056 138.248 65.612 135.764 67.088C136.304 67.484 137.132 68.204 137.6 68.672C140.228 66.98 142.82 64.208 144.332 61.508L141.812 60.788ZM146.744 73.964H158.552C156.968 75.98 154.772 77.636 152.216 79.004C149.84 77.672 147.932 76.052 146.528 74.18L146.744 73.964ZM160.784 71.624L160.28 71.732H149.12C149.804 71.012 150.416 70.292 150.992 69.536L148.112 69.032C146.096 71.84 142.208 74.972 136.7 77.096C137.24 77.528 138.032 78.392 138.392 79.04C140.768 78.032 142.82 76.844 144.656 75.584C145.988 77.348 147.644 78.896 149.552 80.228C145.52 81.884 140.732 82.892 135.8 83.504C136.304 84.008 136.916 85.196 137.096 85.844C142.424 85.088 147.644 83.828 152.108 81.74C156.176 83.864 161.18 85.196 166.94 85.808C167.228 85.088 167.912 83.936 168.488 83.36C163.304 82.928 158.696 81.884 154.88 80.3C158.084 78.392 160.748 75.944 162.548 72.812L160.784 71.624ZM178.28 71.84V68.204H186.848V69.644C186.848 70.364 186.848 71.12 186.776 71.84H178.28ZM178.28 62.48H186.848V66.08H178.28V62.48ZM198.656 62.48V66.08H189.584V62.48H198.656ZM198.656 71.84H189.512C189.548 71.156 189.584 70.4 189.584 69.68V68.204H198.656V71.84ZM201.284 74.072V60.248H189.584V57.224H203.552V54.812H172.448V57.224H186.848V60.248H175.724V74.072H186.416C185.984 75.8 185.156 77.42 183.5 78.824C181.808 77.708 180.368 76.232 179.144 74.36L176.912 75.26C178.136 77.348 179.612 79.004 181.34 80.336C179.144 81.596 176.084 82.604 171.8 83.432C172.376 84.044 173.096 85.16 173.384 85.772C178.064 84.8 181.412 83.468 183.824 81.884C188.72 84.476 195.272 85.268 203.588 85.628C203.732 84.764 204.236 83.648 204.704 83C196.712 82.784 190.52 82.244 185.984 80.192C187.784 78.356 188.756 76.304 189.188 74.072H201.284Z" fill="white"/>
</svg>
