<svg viewBox="0 0 260 100" fill="none" xmlns="http://www.w3.org/2000/svg">
<rect width="260" height="100" fill="#442B0E"/>
<path d="M69.304 35.116C68.116 37.492 66.424 39.544 64.408 41.272C62.428 39.544 60.844 37.456 59.764 35.116H69.304ZM71.14 32.632L70.636 32.74H55.012V35.116H58.72L57.28 35.584C58.54 38.356 60.268 40.768 62.392 42.784C59.944 44.44 57.136 45.664 54.22 46.492C54.76 47.032 55.408 48.004 55.768 48.688C58.864 47.68 61.852 46.312 64.444 44.476C66.964 46.348 69.952 47.716 73.264 48.616C73.66 47.932 74.38 46.96 74.92 46.384C71.752 45.7 68.908 44.512 66.496 42.892C69.304 40.444 71.536 37.348 72.94 33.424L71.14 32.632ZM43.384 51.28C42.988 54.448 42.232 57.652 41.044 59.848C41.62 60.028 42.7 60.532 43.132 60.856C44.32 58.552 45.184 55.096 45.688 51.712L43.384 51.28ZM52.456 48.652C52.744 49.408 52.96 50.128 53.104 50.74L55.12 49.84C54.652 47.896 53.212 44.8 51.736 42.496L49.864 43.252C50.476 44.224 51.052 45.376 51.556 46.492L46.228 46.708C48.604 43.612 51.34 39.4 53.392 35.98L51.124 34.972C50.188 36.88 48.892 39.184 47.488 41.416C46.912 40.696 46.192 39.868 45.4 39.076C46.732 37.06 48.244 34.216 49.468 31.84L47.128 30.904C46.372 32.884 45.112 35.584 43.888 37.6C43.528 37.276 43.204 36.952 42.844 36.664L41.476 38.428C43.132 39.904 45.004 41.92 46.12 43.504C45.328 44.692 44.5 45.844 43.744 46.816L41.368 46.924L41.584 49.3C43.24 49.192 45.184 49.084 47.236 48.976V63.808H49.612V48.832L52.456 48.652ZM50.8 51.676C51.736 53.764 52.636 56.464 52.996 58.264L55.048 57.58C54.688 55.816 53.716 53.08 52.744 51.028L50.8 51.676ZM65.848 54.412H72.94V52H65.848V46.816H63.22V52H56.38V54.412H63.22V60.28H54.076V62.692H74.524V60.28H65.848V54.412ZM83.524 38.464H88.708C88.672 39.148 88.528 39.796 88.24 40.408H82.84L83.524 38.464ZM91.228 34.648H96.772V36.7H91.228V34.648ZM104.872 34.648V36.7H99.292V34.648H104.872ZM96.772 40.408H90.904C91.048 39.796 91.156 39.148 91.192 38.464H96.772V40.408ZM106.888 42.172C106.744 43.108 106.6 43.612 106.42 43.828C106.204 43.972 105.988 44.008 105.556 44.008C105.196 44.008 104.188 43.972 103.072 43.9C103.216 44.188 103.36 44.584 103.468 44.944H87.484C88.78 44.116 89.644 43.18 90.184 42.172H96.772V44.872H99.292V42.172H106.888ZM103.216 48.904H85.216V46.672H103.216V48.904ZM103.216 52.756H85.216V50.56H103.216V52.756ZM103.216 56.68H85.216V54.448H103.216V56.68ZM82.624 58.408H105.88V45.736H106.744C107.464 45.7 108.04 45.52 108.472 45.088C109.048 44.512 109.264 43.468 109.516 41.272C109.552 40.948 109.588 40.408 109.588 40.408H99.292V38.464H107.284V32.884H99.292V30.904H96.772V32.884H91.228V30.904H88.78V32.884H79.996V34.648H88.78V36.7H81.616C81.004 38.608 80.248 40.876 79.492 42.496L81.976 42.64L82.156 42.172H87.052C85.576 43.648 82.912 44.836 78.16 45.736C78.628 46.204 79.168 47.212 79.42 47.788C80.608 47.536 81.652 47.284 82.624 47.032V58.408ZM88.672 58.768C86.08 60.028 81.76 61.18 78.052 61.864C78.664 62.332 79.564 63.34 79.996 63.844C83.596 62.98 88.132 61.468 91.084 59.848L88.672 58.768ZM96.88 60.172C100.912 61.36 104.836 62.728 107.14 63.772L109.984 62.368C107.32 61.324 103 59.848 99.04 58.768L96.88 60.172ZM144.688 48.4C144.688 41.092 139.324 35.152 130.9 35.152C122.116 35.152 115.168 41.992 115.168 49.804C115.168 55.744 118.372 59.416 121.576 59.416C124.924 59.416 127.768 55.636 129.964 48.22C130.972 44.872 131.656 41.2 132.124 37.852C138.244 38.356 141.736 42.856 141.736 48.292C141.736 54.52 137.2 57.94 132.592 58.984C131.764 59.164 130.648 59.344 129.496 59.452L131.188 62.116C139.72 61 144.688 55.96 144.688 48.4ZM117.976 49.552C117.976 44.656 122.224 38.752 129.136 37.888C128.74 41.2 128.02 44.62 127.12 47.608C125.284 53.692 123.376 56.104 121.684 56.104C120.064 56.104 117.976 54.088 117.976 49.552ZM180.076 44.044L179.536 44.26H172.12L172.732 43.324C171.724 42.784 170.32 42.1 168.844 41.452C172.084 39.4 175.648 36.7 178.204 34.144L176.26 32.668L175.648 32.812H153.436V35.296H173.056C171.112 37.06 168.484 38.932 166.216 40.228C164.02 39.256 161.68 38.284 159.7 37.492L158.332 39.472C161.536 40.84 165.64 42.712 168.7 44.26H150.052V46.816H164.884V60.352C164.884 60.892 164.668 61.036 164.02 61.072C163.3 61.108 160.888 61.144 158.404 61.036C158.764 61.792 159.232 62.872 159.412 63.628C162.544 63.628 164.632 63.592 165.892 63.196C167.152 62.8 167.584 62.044 167.584 60.388V46.816H177.808C176.512 48.904 174.928 50.992 173.596 52.432L175.756 53.8C177.952 51.604 180.292 48.184 182.2 45.052L180.076 44.044ZM197.896 55.456C197.932 55.204 197.932 54.952 197.932 54.7V52.324H207.076V55.456H197.896ZM193.108 48.4H211.468V50.56H193.108V48.4ZM193.108 44.62H211.468V46.672H193.108V44.62ZM193.108 40.804H211.468V42.892H193.108V40.804ZM207.832 35.764C208.804 36.808 209.74 38.104 210.244 39.004H202.18C203.116 38.14 204.088 36.988 204.952 35.764H207.832ZM218.02 55.456H209.776V52.324H214.204V39.004H210.64L212.548 38.14C212.188 37.456 211.576 36.556 210.856 35.764H217.696V33.568H206.248C206.644 32.848 206.968 32.092 207.256 31.336L204.7 30.76C203.728 33.46 201.892 36.088 199.696 37.816C200.308 38.068 201.244 38.572 201.856 39.004H194.8L196.744 38.248C196.492 37.564 195.952 36.628 195.376 35.764H201.532V33.568H192.1C192.46 32.848 192.82 32.128 193.144 31.408L190.696 30.76C189.58 33.532 187.6 36.34 185.404 38.176C186.052 38.464 187.096 39.22 187.6 39.616C188.68 38.572 189.76 37.24 190.768 35.764H192.604C193.324 36.808 194.008 38.14 194.368 39.004H190.48V52.324H195.304V54.664C195.304 54.916 195.304 55.168 195.268 55.456H186.16V57.688H194.404C193.396 59.164 191.2 60.676 186.736 61.792C187.312 62.296 188.032 63.196 188.392 63.808C194.152 62.116 196.492 59.92 197.392 57.688H207.076V63.7H209.776V57.688H218.02V55.456Z" fill="white"/>
</svg>
