<svg viewBox="0 0 260 100" fill="none" xmlns="http://www.w3.org/2000/svg">
<rect width="260" height="100" fill="#4A9986" fill-opacity="0.86"/>
<path d="M50.364 19.544C49.86 20.768 49.14 22.244 48.528 23.288L48.888 23.396H40.428L41.58 23.144C41.292 22.172 40.536 20.66 39.78 19.544H50.364ZM60.696 35.204V32.936H46.26V30.272H57.528V28.22H46.26V25.592H59.292V23.396H51.12C51.84 22.316 52.632 20.912 53.352 19.544H60.552V17.24H54.972C55.98 15.872 57.132 13.892 58.14 12.056L55.404 11.336C54.756 12.956 53.604 15.296 52.668 16.808L54 17.24H49.644V10.868H47.124V17.24H42.84V10.868H40.356V17.24H35.928L37.764 16.556C37.224 15.116 35.928 12.884 34.704 11.264L32.436 12.02C33.516 13.64 34.776 15.8 35.28 17.24H29.556V19.544H38.34L37.08 19.796C37.8 20.876 38.52 22.316 38.844 23.396H30.996V25.592H43.632V28.22H32.796V30.272H43.632V32.936H29.412V35.204H41.184C37.944 37.724 32.94 39.884 28.476 40.892C29.052 41.468 29.844 42.476 30.204 43.16C34.92 41.792 40.176 39.2 43.632 36.068V43.736H46.26V35.888C49.716 39.2 54.972 41.9 59.796 43.268C60.156 42.512 60.984 41.468 61.596 40.892C56.988 39.92 52.02 37.796 48.744 35.204H60.696ZM74.268 33.332C74.268 36.032 73.62 39.524 67.356 41.828C67.932 42.368 68.796 43.304 69.192 43.988C76.14 41.18 76.968 36.86 76.968 33.44V31.244H74.268V33.332ZM71.388 20.264H79.632V24.152H71.388V20.264ZM71.388 14.324H79.632V18.14H71.388V14.324ZM90.576 18.14H82.26V14.324H90.576V18.14ZM90.576 24.152H82.26V20.264H90.576V24.152ZM93.312 26.42V12.056H68.76V26.42H75.924C73.188 29.228 68.868 31.64 64.728 32.828C65.34 33.368 66.096 34.34 66.528 35.024C71.244 33.368 76.212 30.2 79.164 26.42H83.124C84.492 28.22 86.328 29.84 88.308 31.244H85.644V43.7H88.38V31.28C90.648 32.828 93.168 34.088 95.724 34.88C96.084 34.196 96.876 33.152 97.488 32.612C93.204 31.496 88.956 29.192 86.256 26.42H93.312ZM102.096 28.004L103.536 30.812C108.54 29.264 113.472 27.104 117.252 24.944V38.264C117.252 39.632 117.144 41.432 117.036 42.116H120.564C120.42 41.396 120.348 39.632 120.348 38.264V23.072C124.02 20.624 127.332 17.888 130.068 15.044L127.656 12.812C125.172 15.8 121.572 18.932 117.828 21.272C113.832 23.792 108.324 26.312 102.096 28.004ZM159.876 16.592L157.824 17.456C159.012 19.112 160.272 21.344 161.172 23.252L163.296 22.28C162.432 20.588 160.776 17.888 159.876 16.592ZM164.484 14.756L162.468 15.692C163.692 17.312 164.988 19.472 165.924 21.38L168.012 20.372C167.148 18.68 165.456 16.016 164.484 14.756ZM136.908 31.532L139.608 34.268C140.148 33.512 140.94 32.396 141.66 31.496C143.316 29.48 146.304 25.556 148.032 23.432C149.256 21.956 149.94 21.812 151.344 23.18C152.856 24.656 156.204 28.22 158.292 30.596C160.596 33.224 163.764 36.896 166.32 39.992L168.804 37.364C166.032 34.412 162.432 30.488 160.02 27.932C157.896 25.664 154.836 22.46 152.64 20.372C150.192 18.068 148.5 18.464 146.556 20.732C144.288 23.396 141.156 27.392 139.464 29.12C138.492 30.092 137.844 30.74 136.908 31.532ZM179.172 14.612L177.12 16.808C179.784 18.608 184.284 22.46 186.084 24.332L188.352 22.064C186.336 20.048 181.728 16.304 179.172 14.612ZM176.076 38.732L177.984 41.684C183.996 40.568 188.532 38.372 192.132 36.104C197.568 32.684 201.78 27.788 204.228 23.288L202.5 20.228C200.412 24.656 196.02 29.984 190.476 33.476C187.056 35.6 182.376 37.796 176.076 38.732ZM219.132 37.832C219.132 39.164 219.06 40.928 218.88 42.08H222.372C222.228 40.892 222.156 38.948 222.156 37.832C222.156 36.788 222.156 31.352 222.12 25.952C226.116 27.212 232.344 29.624 236.268 31.748L237.492 28.688C233.712 26.78 226.872 24.188 222.12 22.748C222.12 20.48 222.12 18.392 222.12 16.88C222.12 15.8 222.264 14.252 222.372 13.136H218.844C219.06 14.252 219.132 15.872 219.132 16.88V37.832ZM97.56 52.524L94.608 52.272C94.536 53.604 94.212 55.224 93.708 56.772C92.916 56.808 92.088 56.808 91.332 56.808C89.676 56.808 87.156 56.664 85.248 56.412V59.112C87.228 59.256 89.604 59.328 91.152 59.328C91.656 59.328 92.196 59.328 92.736 59.328C91.368 62.244 88.956 65.952 84.42 70.344L86.868 72.144C88.092 70.704 89.1 69.372 90.144 68.4C91.764 66.888 94.068 65.772 96.336 65.772C97.956 65.772 99.252 66.456 99.612 68.004C95.4 70.2 91.116 72.864 91.116 77.112C91.116 81.504 95.256 82.62 100.404 82.62C103.536 82.62 107.532 82.332 110.268 81.972L110.34 79.092C107.172 79.632 103.32 79.956 100.512 79.956C96.804 79.956 93.996 79.524 93.996 76.716C93.996 74.34 96.336 72.432 99.684 70.668C99.684 72.576 99.648 74.916 99.576 76.284H102.348C102.312 74.52 102.276 71.46 102.24 69.372C104.976 68.076 107.532 67.032 109.548 66.276C110.52 65.88 111.816 65.376 112.752 65.124L111.564 62.424C110.556 62.964 109.692 63.36 108.612 63.828C106.74 64.692 104.544 65.556 102.096 66.744C101.52 64.656 99.612 63.504 97.272 63.504C95.724 63.504 93.636 63.972 92.268 64.836C93.492 63.216 94.68 61.164 95.508 59.256C99.432 59.112 103.896 58.824 107.46 58.248L107.496 55.584C104.112 56.196 100.188 56.52 96.516 56.7C97.056 55.008 97.344 53.604 97.56 52.524ZM133.992 71.964V67.068H139.392V70.092C139.392 70.704 139.356 71.352 139.32 71.964H133.992ZM147.42 67.068V71.964H141.732C141.768 71.352 141.804 70.776 141.804 70.164V67.068H147.42ZM134.748 59.328C137.196 57.492 139.32 55.332 140.688 53.316C142.164 55.368 144.468 57.564 146.88 59.328H134.748ZM149.868 74.16V64.908H141.804V61.596H147.564V59.796C148.608 60.516 149.652 61.164 150.66 61.704C151.02 60.948 151.596 60.012 152.1 59.364C148.32 57.708 144.324 54.504 141.768 50.94H139.356C137.592 54 134.136 57.204 130.428 59.184V58.572H126.54V50.868H124.02V58.572H118.98V61.056H123.804C122.724 65.952 120.456 71.604 118.224 74.628C118.656 75.24 119.304 76.284 119.628 76.968C121.248 74.664 122.832 70.956 124.02 67.068V83.7H126.54V66.852C127.62 68.616 128.88 70.884 129.384 72.036L130.86 69.912C130.284 68.976 127.548 65.052 126.54 63.756V61.056H130.428V60.84C130.608 61.164 130.788 61.488 130.896 61.776C131.94 61.236 132.948 60.624 133.92 59.94V61.596H139.392V64.908H131.616V74.16H138.852C137.916 77.148 135.432 79.92 129.168 81.9C129.636 82.332 130.392 83.34 130.608 83.916C136.764 81.864 139.608 78.912 140.904 75.672C143.028 80.172 146.016 82.26 150.3 83.916C150.588 83.16 151.236 82.224 151.848 81.648C147.708 80.244 144.828 78.48 142.776 74.16H149.868ZM163.476 75.96C161.352 78.084 157.896 80.136 154.728 81.504C155.376 81.936 156.348 82.872 156.816 83.34C159.912 81.792 163.584 79.38 166.032 76.896L163.476 75.96ZM182.448 74.556C183.276 75.24 184.032 75.888 184.572 76.464L186.48 74.844C184.464 72.936 180.54 70.164 177.336 68.328L175.608 69.732C176.94 70.56 178.416 71.532 179.784 72.54C175.716 72.612 171.576 72.684 167.76 72.72C171.36 70.452 175.32 67.644 178.416 65.124L175.968 63.828C173.988 65.628 171.18 67.788 168.336 69.768C167.436 69.048 166.212 68.256 164.988 67.5C166.86 66.168 168.948 64.368 170.748 62.712L169.632 62.172H183.744V66.564H186.372V59.868H172.224V56.412H186.048V54.036H172.224V50.868H169.596V54.036H155.88V56.412H169.596V59.868H155.772V66.564H158.292V62.172H167.688C166.392 63.54 164.592 65.16 163.008 66.384C162.396 66.06 161.748 65.736 161.172 65.448L159.408 66.96C161.712 68.112 164.412 69.804 166.176 71.208C165.348 71.748 164.52 72.288 163.692 72.756C160.596 72.792 157.788 72.792 155.484 72.792L155.628 75.276C159.372 75.204 164.304 75.096 169.632 74.952V83.808H172.224V74.88L182.448 74.556ZM175.68 77.4C178.848 79.02 182.7 81.54 184.536 83.268L186.768 81.648C184.716 79.884 180.792 77.508 177.732 76.032L175.68 77.4Z" fill="white"/>
</svg>
