<svg viewBox="0 0 260 100" fill="none" xmlns="http://www.w3.org/2000/svg">
<rect width="260" height="100" fill="#4A6599"/>
<path d="M43.312 51.316H52.78C51.808 53.944 50.26 57.22 48.892 59.704C46.948 59.776 45.148 59.812 43.6 59.848L43.96 62.476C50.116 62.26 59.44 61.864 68.26 61.432C68.944 62.296 69.484 63.124 69.916 63.844L72.328 62.368C70.672 59.704 67.18 55.816 63.868 52.972L61.6 54.196C63.184 55.6 64.876 57.364 66.352 59.056C61.312 59.272 56.236 59.452 51.772 59.596C53.212 57.076 54.76 53.98 56.02 51.316H72.904V48.832H43.312V51.316ZM49.432 41.992V44.44H66.46V41.992H49.432ZM56.344 30.94C53.572 35.512 47.596 40.696 41.44 43.648C42.016 44.188 42.7 45.16 42.988 45.772C49.108 42.748 54.94 37.816 57.856 33.496C61.204 38.14 67.504 42.928 73.048 45.628C73.516 44.836 74.164 43.9 74.776 43.252C69.124 40.912 62.86 36.232 59.08 30.94H56.344ZM92.596 51.244C91.696 50.452 88.528 47.68 86.836 46.348C88.744 43.936 90.4 41.272 91.516 38.5L90.004 37.492L89.536 37.6H86.404V30.904H83.776V37.6H78.124V40.048H88.132C85.648 44.836 81.148 49.372 76.864 51.856C77.296 52.36 77.98 53.584 78.268 54.268C80.104 53.08 81.976 51.568 83.776 49.768V63.736H86.404V48.832C88.024 50.344 90.004 52.36 90.94 53.404L92.596 51.244ZM102.388 60.1V45.16H110.056V42.568H102.388V31.156H99.724V42.568H92.02V45.16H99.724V60.1H90.616V62.728H110.776V60.1H102.388ZM128.56 32.524L125.608 32.272C125.536 33.604 125.212 35.224 124.708 36.772C123.916 36.808 123.088 36.808 122.332 36.808C120.676 36.808 118.156 36.664 116.248 36.412V39.112C118.228 39.256 120.604 39.328 122.152 39.328C122.656 39.328 123.196 39.328 123.736 39.328C122.368 42.244 119.956 45.952 115.42 50.344L117.868 52.144C119.092 50.704 120.1 49.372 121.144 48.4C122.764 46.888 125.068 45.772 127.336 45.772C128.956 45.772 130.252 46.456 130.612 48.004C126.4 50.2 122.116 52.864 122.116 57.112C122.116 61.504 126.256 62.62 131.404 62.62C134.536 62.62 138.532 62.332 141.268 61.972L141.34 59.092C138.172 59.632 134.32 59.956 131.512 59.956C127.804 59.956 124.996 59.524 124.996 56.716C124.996 54.34 127.336 52.432 130.684 50.668C130.684 52.576 130.648 54.916 130.576 56.284H133.348C133.312 54.52 133.276 51.46 133.24 49.372C135.976 48.076 138.532 47.032 140.548 46.276C141.52 45.88 142.816 45.376 143.752 45.124L142.564 42.424C141.556 42.964 140.692 43.36 139.612 43.828C137.74 44.692 135.544 45.556 133.096 46.744C132.52 44.656 130.612 43.504 128.272 43.504C126.724 43.504 124.636 43.972 123.268 44.836C124.492 43.216 125.68 41.164 126.508 39.256C130.432 39.112 134.896 38.824 138.46 38.248L138.496 35.584C135.112 36.196 131.188 36.52 127.516 36.7C128.056 35.008 128.344 33.604 128.56 32.524ZM164.992 51.964V47.068H170.392V50.092C170.392 50.704 170.356 51.352 170.32 51.964H164.992ZM178.42 47.068V51.964H172.732C172.768 51.352 172.804 50.776 172.804 50.164V47.068H178.42ZM165.748 39.328C168.196 37.492 170.32 35.332 171.688 33.316C173.164 35.368 175.468 37.564 177.88 39.328H165.748ZM180.868 54.16V44.908H172.804V41.596H178.564V39.796C179.608 40.516 180.652 41.164 181.66 41.704C182.02 40.948 182.596 40.012 183.1 39.364C179.32 37.708 175.324 34.504 172.768 30.94H170.356C168.592 34 165.136 37.204 161.428 39.184V38.572H157.54V30.868H155.02V38.572H149.98V41.056H154.804C153.724 45.952 151.456 51.604 149.224 54.628C149.656 55.24 150.304 56.284 150.628 56.968C152.248 54.664 153.832 50.956 155.02 47.068V63.7H157.54V46.852C158.62 48.616 159.88 50.884 160.384 52.036L161.86 49.912C161.284 48.976 158.548 45.052 157.54 43.756V41.056H161.428V40.84C161.608 41.164 161.788 41.488 161.896 41.776C162.94 41.236 163.948 40.624 164.92 39.94V41.596H170.392V44.908H162.616V54.16H169.852C168.916 57.148 166.432 59.92 160.168 61.9C160.636 62.332 161.392 63.34 161.608 63.916C167.764 61.864 170.608 58.912 171.904 55.672C174.028 60.172 177.016 62.26 181.3 63.916C181.588 63.16 182.236 62.224 182.848 61.648C178.708 60.244 175.828 58.48 173.776 54.16H180.868ZM194.476 55.96C192.352 58.084 188.896 60.136 185.728 61.504C186.376 61.936 187.348 62.872 187.816 63.34C190.912 61.792 194.584 59.38 197.032 56.896L194.476 55.96ZM213.448 54.556C214.276 55.24 215.032 55.888 215.572 56.464L217.48 54.844C215.464 52.936 211.54 50.164 208.336 48.328L206.608 49.732C207.94 50.56 209.416 51.532 210.784 52.54C206.716 52.612 202.576 52.684 198.76 52.72C202.36 50.452 206.32 47.644 209.416 45.124L206.968 43.828C204.988 45.628 202.18 47.788 199.336 49.768C198.436 49.048 197.212 48.256 195.988 47.5C197.86 46.168 199.948 44.368 201.748 42.712L200.632 42.172H214.744V46.564H217.372V39.868H203.224V36.412H217.048V34.036H203.224V30.868H200.596V34.036H186.88V36.412H200.596V39.868H186.772V46.564H189.292V42.172H198.688C197.392 43.54 195.592 45.16 194.008 46.384C193.396 46.06 192.748 45.736 192.172 45.448L190.408 46.96C192.712 48.112 195.412 49.804 197.176 51.208C196.348 51.748 195.52 52.288 194.692 52.756C191.596 52.792 188.788 52.792 186.484 52.792L186.628 55.276C190.372 55.204 195.304 55.096 200.632 54.952V63.808H203.224V54.88L213.448 54.556ZM206.68 57.4C209.848 59.02 213.7 61.54 215.536 63.268L217.768 61.648C215.716 59.884 211.792 57.508 208.732 56.032L206.68 57.4Z" fill="white"/>
</svg>
