<svg viewBox="0 0 260 100" fill="none" xmlns="http://www.w3.org/2000/svg">
<rect width="260" height="100" fill="#BF1D92"/>
<path d="M45.8 16.916L43.964 15.512C43.388 15.692 42.452 15.8 41.264 15.8H27.368C26.288 15.8 24.236 15.656 23.732 15.584V18.86C24.128 18.824 26.108 18.68 27.368 18.68H41.408C40.508 21.668 37.88 25.916 35.432 28.688C31.724 32.828 26.396 37.112 20.6 39.38L22.904 41.792C28.232 39.38 33.092 35.42 36.944 31.28C40.616 34.556 44.432 38.804 46.844 41.972L49.364 39.812C47.024 36.968 42.632 32.288 38.852 29.048C41.408 25.808 43.676 21.596 44.9 18.5C45.116 17.996 45.584 17.204 45.8 16.916ZM67.112 15.548C67.22 15.98 67.472 17.384 67.868 19.328C64.484 19.868 61.352 20.336 59.948 20.48C58.796 20.624 57.86 20.696 56.96 20.732L57.572 23.972C58.652 23.72 59.48 23.54 60.488 23.36C61.856 23.108 64.988 22.604 68.408 22.064C68.84 24.296 69.344 26.852 69.848 29.3C65.744 29.948 61.82 30.56 60.02 30.812C59.084 30.956 57.68 31.1 56.852 31.136L57.5 34.268C58.256 34.052 59.264 33.872 60.668 33.62C62.432 33.296 66.284 32.648 70.352 31.964C71.036 35.528 71.612 38.444 71.756 39.236C72.008 40.316 72.116 41.396 72.296 42.62L75.572 42.008C75.248 41 74.96 39.776 74.708 38.732C74.528 37.904 73.952 35.024 73.232 31.496C76.76 30.956 80.108 30.416 82.088 30.092C83.42 29.876 84.572 29.696 85.328 29.624L84.752 26.6C83.96 26.816 82.952 27.032 81.548 27.284C79.748 27.608 76.328 28.22 72.692 28.796C72.224 26.384 71.72 23.828 71.252 21.596C74.708 21.056 77.984 20.516 79.64 20.264C80.576 20.12 81.692 19.976 82.232 19.904L81.62 16.88C81.008 17.06 80.108 17.312 79.064 17.492C77.552 17.78 74.24 18.32 70.748 18.896C70.316 16.88 70.064 15.404 69.992 15.008C69.884 14.216 69.704 13.208 69.668 12.524L66.428 13.1C66.68 13.82 66.932 14.612 67.112 15.548ZM107.864 40.244L109.772 41.828C110.024 41.612 110.42 41.324 110.996 41C115.172 38.948 120.176 35.24 123.272 31.028L121.58 28.58C118.808 32.648 114.38 35.924 111.068 37.436V16.664C111.068 15.296 111.176 14.252 111.212 14H107.9C107.936 14.252 108.116 15.296 108.116 16.664V38.228C108.116 38.948 108.008 39.668 107.864 40.244ZM91.376 40.064L94.076 41.9C97.1 39.38 99.404 35.852 100.484 32C101.456 28.4 101.6 20.696 101.6 16.7C101.6 15.62 101.744 14.54 101.78 14.108H98.468C98.612 14.864 98.72 15.656 98.72 16.736C98.72 20.732 98.684 27.932 97.64 31.208C96.56 34.7 94.4 37.904 91.376 40.064ZM141.56 12.524L138.608 12.272C138.536 13.604 138.212 15.224 137.708 16.772C136.916 16.808 136.088 16.808 135.332 16.808C133.676 16.808 131.156 16.664 129.248 16.412V19.112C131.228 19.256 133.604 19.328 135.152 19.328C135.656 19.328 136.196 19.328 136.736 19.328C135.368 22.244 132.956 25.952 128.42 30.344L130.868 32.144C132.092 30.704 133.1 29.372 134.144 28.4C135.764 26.888 138.068 25.772 140.336 25.772C141.956 25.772 143.252 26.456 143.612 28.004C139.4 30.2 135.116 32.864 135.116 37.112C135.116 41.504 139.256 42.62 144.404 42.62C147.536 42.62 151.532 42.332 154.268 41.972L154.34 39.092C151.172 39.632 147.32 39.956 144.512 39.956C140.804 39.956 137.996 39.524 137.996 36.716C137.996 34.34 140.336 32.432 143.684 30.668C143.684 32.576 143.648 34.916 143.576 36.284H146.348C146.312 34.52 146.276 31.46 146.24 29.372C148.976 28.076 151.532 27.032 153.548 26.276C154.52 25.88 155.816 25.376 156.752 25.124L155.564 22.424C154.556 22.964 153.692 23.36 152.612 23.828C150.74 24.692 148.544 25.556 146.096 26.744C145.52 24.656 143.612 23.504 141.272 23.504C139.724 23.504 137.636 23.972 136.268 24.836C137.492 23.216 138.68 21.164 139.508 19.256C143.432 19.112 147.896 18.824 151.46 18.248L151.496 15.584C148.112 16.196 144.188 16.52 140.516 16.7C141.056 15.008 141.344 13.604 141.56 12.524ZM171.332 27.5H186.128V29.3C185.696 29.696 185.264 30.056 184.832 30.416C180.188 30.74 175.508 31.028 171.332 31.28V27.5ZM186.128 16.808V20.12H171.332V16.808H186.128ZM186.128 25.484H171.332V22.172H186.128V25.484ZM192.212 22.352C191.204 23.864 190.088 25.304 188.828 26.672V14.432H178.964C179.576 13.46 180.188 12.344 180.692 11.3L177.488 10.796C177.164 11.84 176.624 13.208 176.012 14.432H168.668V31.424C166.58 31.532 164.708 31.64 163.088 31.712L163.484 34.376C168.236 34.052 174.716 33.548 181.304 33.008C175.94 36.572 169.604 39.236 162.764 41.036C163.304 41.576 164.168 42.836 164.528 43.448C172.556 41.072 180.008 37.616 186.128 32.828V39.992C186.128 40.748 185.876 41 185.12 41C184.328 41.036 181.628 41.072 178.784 40.928C179.216 41.72 179.648 42.98 179.792 43.736C183.428 43.772 185.768 43.736 187.1 43.304C188.432 42.8 188.828 41.9 188.828 40.028V30.524C191.06 28.472 193.04 26.204 194.768 23.684L192.212 22.352ZM213.416 16.7V19.58C217.376 20.012 224.36 20.012 228.212 19.58V16.664C224.612 17.204 217.34 17.348 213.416 16.7ZM214.82 31.352L212.228 31.1C211.832 32.864 211.616 34.124 211.616 35.348C211.616 38.732 214.316 40.748 220.364 40.748C224.072 40.748 227.096 40.424 229.364 39.992L229.292 36.968C226.376 37.616 223.604 37.904 220.364 37.904C215.468 37.904 214.28 36.32 214.28 34.664C214.28 33.692 214.46 32.684 214.82 31.352ZM206.54 13.928L203.336 13.64C203.336 14.432 203.228 15.368 203.084 16.196C202.652 19.184 201.464 25.34 201.464 30.632C201.464 35.492 202.076 39.632 202.796 42.188L205.388 42.008C205.352 41.648 205.316 41.144 205.28 40.748C205.244 40.352 205.352 39.668 205.46 39.128C205.784 37.436 207.08 33.62 208.016 31.064L206.504 29.912C205.892 31.388 205.028 33.548 204.416 35.168C204.2 33.404 204.092 31.892 204.092 30.128C204.092 26.096 205.208 19.652 205.892 16.34C206.036 15.692 206.36 14.54 206.54 13.928ZM98.432 70.38V72.54H83.384V70.38H98.432ZM83.384 80.316V78.084H98.432V80.316H83.384ZM98.432 76.392H83.384V74.232H98.432V76.392ZM104.48 66.168V63.972H90.332V61.488H101.312V59.4H90.332V56.916H102.932V54.756H96.02C96.812 53.856 97.676 52.74 98.504 51.624L95.696 50.796C95.156 51.876 94.04 53.532 93.248 54.612L93.644 54.756H84.14L84.572 54.576C84.104 53.46 83.024 51.948 81.944 50.868L79.64 51.696C80.432 52.632 81.224 53.784 81.764 54.756H75.176V56.916H87.632V59.4H76.76V61.488H87.632V63.972H73.484V66.168H81.008C79.136 70.776 76.076 74.772 72.332 77.328C72.908 77.796 73.952 78.768 74.348 79.308C76.724 77.508 78.92 75.096 80.756 72.288V83.664H83.384V82.368H98.432V83.592H101.168V68.328H82.988C83.312 67.608 83.636 66.888 83.924 66.168H104.48ZM134.396 52.92H131.048C131.156 53.496 131.3 54.252 131.372 55.08C131.444 55.98 131.552 58.392 131.588 60.66C130.076 60.732 128.528 60.768 127.052 60.768C125.108 60.768 122.804 60.624 121.256 60.372V63.252C122.804 63.36 125.36 63.468 127.088 63.468C128.564 63.468 130.112 63.432 131.66 63.36C131.66 63.792 131.66 64.152 131.66 64.476C131.66 71.388 131.444 75.456 127.592 78.84C126.728 79.704 125.252 80.604 124.1 81.072L126.728 83.124C134.36 78.624 134.36 72.756 134.36 64.476C134.36 64.152 134.36 63.72 134.36 63.216C136.52 63.072 138.536 62.856 140.192 62.604V59.652C138.5 60.048 136.448 60.3 134.324 60.48C134.288 58.248 134.252 55.836 134.288 55.044C134.288 54.252 134.324 53.532 134.396 52.92ZM116.18 53.46L112.832 53.136C112.832 53.784 112.796 54.72 112.652 55.548C112.22 58.536 111.284 64.08 111.284 69.912C111.284 74.448 112.472 79.128 113.192 81.324L115.64 81.036C115.604 80.676 115.568 80.172 115.532 79.812C115.496 79.416 115.568 78.732 115.712 78.192C116.108 76.428 117.188 72.756 118.052 70.236L116.504 69.3C115.82 71.1 115.064 73.296 114.56 74.808C113.192 68.904 114.416 61.02 115.568 55.8C115.748 55.116 116 54.144 116.18 53.46ZM156.176 77.22C156.176 75.96 157.436 74.916 159.056 74.916C161.792 74.916 163.592 76.968 163.88 79.812C162.98 79.956 162.008 80.028 160.964 80.028C158.156 80.028 156.176 78.948 156.176 77.22ZM151.568 54.468L151.676 57.456C152.432 57.348 153.26 57.276 154.052 57.24C155.96 57.132 163.16 56.808 165.068 56.736C163.232 58.356 158.732 62.136 156.716 63.792C154.628 65.556 150.02 69.408 147.032 71.856L149.084 73.98C153.656 69.336 156.86 66.78 162.872 66.78C167.552 66.78 170.936 69.444 170.936 72.972C170.936 75.924 169.316 78.012 166.436 79.128C166.004 75.708 163.592 72.756 159.092 72.756C155.744 72.756 153.548 74.952 153.548 77.436C153.548 80.424 156.536 82.548 161.432 82.548C169.064 82.548 173.816 78.804 173.816 73.008C173.816 68.148 169.532 64.548 163.556 64.548C161.936 64.548 160.208 64.728 158.552 65.304C161.36 62.964 166.256 58.788 168.056 57.42C168.704 56.88 169.424 56.412 170.072 55.944L168.416 53.856C168.056 53.964 167.552 54.072 166.472 54.144C164.564 54.324 155.996 54.612 154.124 54.612C153.404 54.612 152.396 54.576 151.568 54.468Z" fill="white"/>
</svg>
