<svg viewBox="0 0 260 100" fill="none" xmlns="http://www.w3.org/2000/svg">
<rect width="260" height="100" fill="#E0D807"/>
<path d="M32.764 10.976C30.568 16.592 26.86 22.1 22.972 25.628C23.512 26.24 24.34 27.572 24.592 28.22C26.068 26.852 27.472 25.196 28.804 23.396V43.7H31.432V19.472C32.908 17.024 34.24 14.396 35.32 11.768L32.764 10.976ZM56.596 24.836V22.244H46.3V11.444H43.6V22.244H33.376V24.836H43.6V39.704H34.24V42.296H55.984V39.704H46.3V24.836H56.596ZM85.864 36.248H77.224V33.548H85.864V36.248ZM77.224 28.904H85.864V31.424H77.224V28.904ZM66.82 22.532V19.94H74.56V22.532H66.82ZM85.288 19.94V22.532H77.224V19.94H85.288ZM92.236 31.424H88.528V26.924H77.224V24.404H87.952V18.068H77.224V15.98H91.552V13.784H77.224V10.904H74.56V13.784H60.52V15.98H74.56V18.068H64.264V24.404H74.56V26.924H63.256V28.904H74.56V31.424H59.836V33.548H74.56V36.248H62.932V38.3H74.56V40.784C74.56 41.396 74.344 41.612 73.66 41.648C73.048 41.648 70.888 41.684 68.728 41.612C69.088 42.224 69.52 43.196 69.664 43.88C72.652 43.88 74.524 43.844 75.64 43.448C76.72 43.052 77.224 42.44 77.224 40.784V38.3H85.864V39.92H88.528V33.548H92.236V31.424ZM110.416 16.7V19.58C114.376 20.012 121.36 20.012 125.212 19.58V16.664C121.612 17.204 114.34 17.348 110.416 16.7ZM111.82 31.352L109.228 31.1C108.832 32.864 108.616 34.124 108.616 35.348C108.616 38.732 111.316 40.748 117.364 40.748C121.072 40.748 124.096 40.424 126.364 39.992L126.292 36.968C123.376 37.616 120.604 37.904 117.364 37.904C112.468 37.904 111.28 36.32 111.28 34.664C111.28 33.692 111.46 32.684 111.82 31.352ZM103.54 13.928L100.336 13.64C100.336 14.432 100.228 15.368 100.084 16.196C99.652 19.184 98.464 25.34 98.464 30.632C98.464 35.492 99.076 39.632 99.796 42.188L102.388 42.008C102.352 41.648 102.316 41.144 102.28 40.748C102.244 40.352 102.352 39.668 102.46 39.128C102.784 37.436 104.08 33.62 105.016 31.064L103.504 29.912C102.892 31.388 102.028 33.548 101.416 35.168C101.2 33.404 101.092 31.892 101.092 30.128C101.092 26.096 102.208 19.652 102.892 16.34C103.036 15.692 103.36 14.54 103.54 13.928ZM133.384 31.28C132.988 34.448 132.232 37.652 131.044 39.848C131.62 40.028 132.7 40.532 133.132 40.856C134.32 38.552 135.184 35.096 135.688 31.712L133.384 31.28ZM140.8 31.676C141.736 33.764 142.636 36.464 142.996 38.264L145.048 37.58C144.688 35.816 143.716 33.08 142.744 31.028L140.8 31.676ZM139.864 23.252C140.476 24.224 141.052 25.376 141.556 26.492L136.228 26.708C138.604 23.612 141.34 19.4 143.392 15.98L141.124 14.972C140.188 16.88 138.892 19.184 137.488 21.416C136.912 20.696 136.192 19.868 135.4 19.076C136.732 17.06 138.244 14.216 139.468 11.84L137.128 10.904C136.372 12.884 135.112 15.584 133.888 17.6C133.528 17.276 133.204 16.952 132.844 16.664L131.476 18.428C133.132 19.904 135.004 21.92 136.12 23.504C135.328 24.692 134.5 25.844 133.744 26.816L131.368 26.924L131.584 29.3C133.24 29.192 135.184 29.084 137.236 28.976V43.808H139.612V28.832L142.456 28.652C142.744 29.408 142.96 30.128 143.104 30.74L145.12 29.84C144.652 27.896 143.212 24.8 141.736 22.496L139.864 23.252ZM160.312 31.352V39.488H149.476V31.352H160.312ZM147.028 43.736H149.476V41.864H160.312V43.592H162.904V28.976H147.028V43.736ZM145.66 12.74V15.188H151.492C150.844 19.58 149.296 23.216 144.328 25.268C144.904 25.736 145.624 26.636 145.912 27.248C151.528 24.764 153.364 20.516 154.12 15.188H161.032C160.78 20.876 160.456 23.072 159.952 23.684C159.664 23.972 159.376 24.008 158.8 24.008C158.188 24.008 156.64 24.008 155.02 23.864C155.452 24.548 155.74 25.592 155.812 26.348C157.468 26.384 159.052 26.42 159.88 26.312C160.888 26.24 161.536 26.024 162.112 25.34C162.976 24.296 163.264 21.488 163.552 13.856C163.588 13.46 163.588 12.74 163.588 12.74H145.66ZM183.856 13.568C187.06 18.644 193.216 23.936 198.94 26.96C199.372 26.168 200.02 25.268 200.704 24.584C194.98 21.992 188.752 16.736 185.08 10.868H182.308C179.608 15.944 173.776 21.776 167.44 25.052C168.052 25.628 168.808 26.564 169.096 27.212C175.252 23.828 181.048 18.392 183.856 13.568ZM188.896 23.468V43.7H191.668V23.468H188.896ZM176.152 23.612V28.58C176.152 32.972 175.54 38.084 168.808 41.864C169.492 42.296 170.5 43.196 170.932 43.772C178.096 39.56 178.888 33.692 178.888 28.616V23.612H176.152ZM220.864 15.476C221.116 16.304 221.476 17.384 221.908 18.716C217.984 19.004 212.98 18.932 207.688 18.284L207.76 21.164C213.412 21.596 218.596 21.632 222.88 21.236C224.104 24.224 225.832 27.392 227.236 29.444C225.94 29.3 223.276 29.084 221.26 28.904L221.044 31.316C223.636 31.496 227.992 31.892 229.72 32.288L231.196 30.272C230.656 29.66 230.116 29.048 229.612 28.364C228.28 26.492 226.696 23.72 225.58 20.948C227.992 20.624 230.836 20.12 233.032 19.472L232.708 16.664C230.26 17.492 227.272 18.068 224.68 18.428C223.96 16.34 223.312 13.964 223.024 12.272L219.964 12.668C220.288 13.604 220.612 14.72 220.864 15.476ZM213.232 29.768L210.424 29.12C209.416 31.244 208.696 33.116 208.696 35.096C208.696 39.992 213.016 42.476 219.856 42.512C223.852 42.512 226.912 42.116 229.144 41.72L229.288 38.84C226.768 39.416 223.672 39.776 220 39.74C214.672 39.704 211.54 38.192 211.54 34.772C211.54 33.044 212.152 31.496 213.232 29.768ZM104.548 55.08C104.548 55.476 104.476 56.808 104.368 58.5C102.496 58.824 100.372 59.04 99.184 59.112C98.32 59.148 97.636 59.184 96.844 59.148L97.132 62.1C99.4 61.776 102.568 61.344 104.188 61.128C104.116 62.28 104.008 63.504 103.936 64.692C102.136 67.5 97.96 73.116 95.944 75.636L97.78 78.12C99.508 75.672 101.884 72.252 103.648 69.588C103.648 70.164 103.612 70.668 103.612 71.028C103.54 74.952 103.54 76.788 103.504 80.244C103.504 80.82 103.468 81.72 103.396 82.368H106.528C106.456 81.72 106.384 80.82 106.348 80.172C106.168 76.968 106.204 74.772 106.204 71.496C106.204 70.2 106.24 68.76 106.312 67.248C109.624 63.72 113.98 60.336 116.896 60.336C118.732 60.336 119.812 61.2 119.812 63.288C119.812 66.816 118.444 72.72 118.444 76.716C118.444 79.704 120.064 81.252 122.44 81.252C124.888 81.252 127.156 80.172 129.064 78.264L128.596 75.168C126.76 77.112 124.888 78.156 123.16 78.156C121.864 78.156 121.288 77.148 121.288 75.96C121.288 72.288 122.62 66.096 122.62 62.496C122.62 59.58 120.964 57.672 117.616 57.672C113.98 57.672 109.336 61.164 106.528 63.756C106.6 63.036 106.636 62.352 106.708 61.668C107.248 60.768 107.86 59.796 108.328 59.148L107.284 57.888C107.212 57.924 107.14 57.924 107.068 57.96C107.32 55.44 107.608 53.424 107.788 52.524L104.404 52.416C104.548 53.316 104.548 54.288 104.548 55.08ZM143.176 77.22C143.176 75.96 144.436 74.916 146.056 74.916C148.792 74.916 150.592 76.968 150.88 79.812C149.98 79.956 149.008 80.028 147.964 80.028C145.156 80.028 143.176 78.948 143.176 77.22ZM138.568 54.468L138.676 57.456C139.432 57.348 140.26 57.276 141.052 57.24C142.96 57.132 150.16 56.808 152.068 56.736C150.232 58.356 145.732 62.136 143.716 63.792C141.628 65.556 137.02 69.408 134.032 71.856L136.084 73.98C140.656 69.336 143.86 66.78 149.872 66.78C154.552 66.78 157.936 69.444 157.936 72.972C157.936 75.924 156.316 78.012 153.436 79.128C153.004 75.708 150.592 72.756 146.092 72.756C142.744 72.756 140.548 74.952 140.548 77.436C140.548 80.424 143.536 82.548 148.432 82.548C156.064 82.548 160.816 78.804 160.816 73.008C160.816 68.148 156.532 64.548 150.556 64.548C148.936 64.548 147.208 64.728 145.552 65.304C148.36 62.964 153.256 58.788 155.056 57.42C155.704 56.88 156.424 56.412 157.072 55.944L155.416 53.856C155.056 53.964 154.552 54.072 153.472 54.144C151.564 54.324 142.996 54.612 141.124 54.612C140.404 54.612 139.396 54.576 138.568 54.468Z" fill="black"/>
</svg>
