<svg viewBox="0 0 260 100" fill="none" xmlns="http://www.w3.org/2000/svg">
<rect width="260" height="100" fill="#68785B"/>
<path d="M50.264 12.976C48.068 18.592 44.36 24.1 40.472 27.628C41.012 28.24 41.84 29.572 42.092 30.22C43.568 28.852 44.972 27.196 46.304 25.396V45.7H48.932V21.472C50.408 19.024 51.74 16.396 52.82 13.768L50.264 12.976ZM74.096 26.836V24.244H63.8V13.444H61.1V24.244H50.876V26.836H61.1V41.704H51.74V44.296H73.484V41.704H63.8V26.836H74.096ZM103.364 38.248H94.724V35.548H103.364V38.248ZM94.724 30.904H103.364V33.424H94.724V30.904ZM84.32 24.532V21.94H92.06V24.532H84.32ZM102.788 21.94V24.532H94.724V21.94H102.788ZM109.736 33.424H106.028V28.924H94.724V26.404H105.452V20.068H94.724V17.98H109.052V15.784H94.724V12.904H92.06V15.784H78.02V17.98H92.06V20.068H81.764V26.404H92.06V28.924H80.756V30.904H92.06V33.424H77.336V35.548H92.06V38.248H80.432V40.3H92.06V42.784C92.06 43.396 91.844 43.612 91.16 43.648C90.548 43.648 88.388 43.684 86.228 43.612C86.588 44.224 87.02 45.196 87.164 45.88C90.152 45.88 92.024 45.844 93.14 45.448C94.22 45.052 94.724 44.44 94.724 42.784V40.3H103.364V41.92H106.028V35.548H109.736V33.424ZM143.9 19.024H130.868V12.868H128.204V19.024H115.172V45.808H117.8V21.652H128.168C127.952 26.368 126.656 32.308 118.736 36.52C119.348 36.988 120.248 37.96 120.644 38.536C125.468 35.692 128.06 32.344 129.392 28.888C132.704 31.984 136.304 35.656 138.14 38.068L140.336 36.34C138.14 33.676 133.748 29.464 130.184 26.332C130.58 24.712 130.76 23.128 130.832 21.652H141.272V42.172C141.272 42.82 141.056 43.036 140.408 43.072C139.652 43.108 137.204 43.108 134.684 43C135.08 43.72 135.476 44.98 135.584 45.7C138.788 45.7 141.02 45.7 142.28 45.232C143.504 44.8 143.9 43.936 143.9 42.208V19.024ZM153.188 18.628H177.704V22.66H180.44V16.18H166.76V12.868H164.06V16.18H150.596V22.66H153.188V18.628ZM168.596 21.868C171.908 23.884 175.94 26.944 177.884 28.996L179.828 27.196C177.812 25.144 173.672 22.228 170.432 20.284L168.596 21.868ZM159.488 20.32C157.472 22.948 154.088 25.468 150.848 27.088C151.46 27.592 152.36 28.636 152.756 29.176C156.032 27.268 159.668 24.28 162.044 21.148L159.488 20.32ZM158.012 33.748C161.144 31.48 163.844 28.996 165.536 26.764C167.48 29.104 170.432 31.588 173.6 33.748H158.012ZM158.228 42.136V36.16H172.736V42.136H158.228ZM164.06 24.28C161.216 28.348 155.312 33.136 149.264 35.872C149.804 36.484 150.488 37.456 150.776 38.104C152.432 37.276 154.088 36.34 155.672 35.332V45.772H158.228V44.548H172.736V45.628H175.4V34.936C177.128 36.016 178.856 36.988 180.476 37.78C180.908 37.024 181.556 36.052 182.168 35.368C176.66 33.136 170.54 28.888 166.724 24.28H164.06ZM200.06 14.524L197.108 14.272C197.036 15.604 196.712 17.224 196.208 18.772C195.416 18.808 194.588 18.808 193.832 18.808C192.176 18.808 189.656 18.664 187.748 18.412V21.112C189.728 21.256 192.104 21.328 193.652 21.328C194.156 21.328 194.696 21.328 195.236 21.328C193.868 24.244 191.456 27.952 186.92 32.344L189.368 34.144C190.592 32.704 191.6 31.372 192.644 30.4C194.264 28.888 196.568 27.772 198.836 27.772C200.456 27.772 201.752 28.456 202.112 30.004C197.9 32.2 193.616 34.864 193.616 39.112C193.616 43.504 197.756 44.62 202.904 44.62C206.036 44.62 210.032 44.332 212.768 43.972L212.84 41.092C209.672 41.632 205.82 41.956 203.012 41.956C199.304 41.956 196.496 41.524 196.496 38.716C196.496 36.34 198.836 34.432 202.184 32.668C202.184 34.576 202.148 36.916 202.076 38.284H204.848C204.812 36.52 204.776 33.46 204.74 31.372C207.476 30.076 210.032 29.032 212.048 28.276C213.02 27.88 214.316 27.376 215.252 27.124L214.064 24.424C213.056 24.964 212.192 25.36 211.112 25.828C209.24 26.692 207.044 27.556 204.596 28.744C204.02 26.656 202.112 25.504 199.772 25.504C198.224 25.504 196.136 25.972 194.768 26.836C195.992 25.216 197.18 23.164 198.008 21.256C201.932 21.112 206.396 20.824 209.96 20.248L209.996 17.584C206.612 18.196 202.688 18.52 199.016 18.7C199.556 17.008 199.844 15.604 200.06 14.524ZM120.5 76.556V78.752H102.788V76.556H120.5ZM102.788 82.784V80.48H120.5V82.784H102.788ZM100.196 85.844H102.788V84.656H120.5V85.772H123.164V74.72H100.196V85.844ZM112.688 61.184H120.356V63.308H112.688V61.184ZM112.688 57.152H120.356V59.168H112.688V57.152ZM112.688 71.048V68.924H124.964V67.088H112.688V65.108H122.984V61.184H127.376V59.168H122.984V55.352H112.688V52.832H110.06V55.352H99.44V57.152H110.06V59.168H95.66V61.184H110.06V63.308H99.044V65.108H110.06V67.088H98.036V68.924H110.06V71.048H95.588V73.028H127.412V71.048H112.688ZM154.844 56.432L152.18 54.056C151.748 54.74 150.848 55.748 150.128 56.468C147.68 58.952 142.208 63.272 139.508 65.54C136.268 68.276 135.836 69.824 139.256 72.668C142.604 75.44 148.076 80.12 150.596 82.712C151.496 83.576 152.324 84.476 153.08 85.34L155.636 82.964C151.82 79.148 145.448 74 142.172 71.336C139.868 69.392 139.904 68.816 142.064 66.98C144.728 64.748 149.912 60.644 152.36 58.484C152.972 57.98 154.088 57.044 154.844 56.432Z" fill="white"/>
</svg>
