<svg viewBox="0 0 260 100" fill="none" xmlns="http://www.w3.org/2000/svg">
<rect width="260" height="100" fill="#BF1D92"/>
<path d="M46.34 14.468V17.528H24.416V14.468H46.34ZM24.416 19.688H48.968V12.308H21.788V22.856C21.788 28.616 21.5 36.68 18.224 42.332C18.908 42.548 20.096 43.196 20.6 43.664C23.948 37.724 24.416 28.904 24.416 22.856V19.688ZM30.032 20.12C28.808 21.884 26.864 23.576 24.884 24.764C25.352 25.16 26.18 26.024 26.504 26.456C28.52 25.088 30.752 22.928 32.156 20.804L30.032 20.12ZM37.88 36.356H45.836C44.828 37.472 43.46 38.444 41.84 39.236C40.148 38.48 38.744 37.544 37.7 36.5L37.88 36.356ZM36.98 29.912H46.376V31.676H36.98V29.912ZM36.98 26.816H46.376V28.508H36.98V26.816ZM47.78 34.592L47.384 34.664H39.572C40.004 34.16 40.4 33.692 40.76 33.152L40.652 33.116H48.716V25.376H35.756C36.152 24.872 36.548 24.368 36.908 23.792H50.012V21.956H37.988C38.276 21.452 38.528 20.984 38.744 20.48L36.62 19.796C35.648 22.064 33.956 24.224 32.192 25.736L30.68 25.196C29.132 27.788 26.576 30.236 24.02 31.892C24.452 32.396 25.1 33.584 25.316 34.016C26.036 33.548 26.756 32.936 27.476 32.36V43.736H29.852V29.948C30.788 28.904 31.688 27.716 32.408 26.564C32.768 27.068 33.128 27.644 33.308 27.932C33.812 27.536 34.28 27.068 34.748 26.528V33.116H38.204C36.476 35.204 33.848 37.112 31.184 38.408C31.688 38.768 32.516 39.524 32.876 39.884C33.992 39.272 35.18 38.516 36.26 37.688C37.196 38.624 38.312 39.452 39.608 40.208C37.304 41 34.784 41.576 32.264 41.9C32.624 42.368 33.164 43.196 33.344 43.772C36.332 43.268 39.32 42.548 41.912 41.36C44.36 42.44 47.168 43.16 50.048 43.592C50.336 42.98 50.948 42.116 51.416 41.648C48.932 41.36 46.448 40.856 44.252 40.172C46.376 38.912 48.104 37.256 49.256 35.24L47.78 34.592ZM80.54 30.812V23.756C81.872 26.24 83.744 28.436 85.76 29.696C86.12 29.12 86.804 28.292 87.344 27.86C84.968 26.672 82.772 24.188 81.44 21.56H86.3V19.436H80.54V15.944H78.236V19.436H73.448V21.56H77.3C75.932 24.152 73.736 26.708 71.684 27.968C72.152 28.4 72.872 29.156 73.232 29.66C74.996 28.292 76.868 25.952 78.236 23.468V30.812H80.54ZM68.3 30.812V24.62C69.308 25.556 70.46 26.672 71 27.284L72.368 25.52C71.756 24.98 69.308 23.072 68.3 22.388V21.56H72.44V19.436H68.3V15.944H66.032V19.436H61.28V21.56H65.42C64.124 24.26 62.036 26.96 60.056 28.328C60.56 28.724 61.244 29.48 61.64 29.984C63.188 28.688 64.772 26.564 66.032 24.224V30.812H68.3ZM60.02 15.044H86.876V12.596H57.536V23.18C57.536 28.832 57.248 36.716 54.332 42.368C55.016 42.62 56.096 43.268 56.564 43.664C59.588 37.76 60.02 29.12 60.02 23.18V15.044ZM74.78 36.212H83.6V33.836H74.78V30.2H72.188V40.46H66.716V32.828H64.232V40.46H59.552V42.872H87.02V40.46H74.78V36.212ZM116 34.556V36.752H98.288V34.556H116ZM98.288 40.784V38.48H116V40.784H98.288ZM95.696 43.844H98.288V42.656H116V43.772H118.664V32.72H95.696V43.844ZM108.188 19.184H115.856V21.308H108.188V19.184ZM108.188 15.152H115.856V17.168H108.188V15.152ZM108.188 29.048V26.924H120.464V25.088H108.188V23.108H118.484V19.184H122.876V17.168H118.484V13.352H108.188V10.832H105.56V13.352H94.94V15.152H105.56V17.168H91.16V19.184H105.56V21.308H94.544V23.108H105.56V25.088H93.536V26.924H105.56V29.048H91.088V31.028H122.912V29.048H108.188ZM141.56 12.524L138.608 12.272C138.536 13.604 138.212 15.224 137.708 16.772C136.916 16.808 136.088 16.808 135.332 16.808C133.676 16.808 131.156 16.664 129.248 16.412V19.112C131.228 19.256 133.604 19.328 135.152 19.328C135.656 19.328 136.196 19.328 136.736 19.328C135.368 22.244 132.956 25.952 128.42 30.344L130.868 32.144C132.092 30.704 133.1 29.372 134.144 28.4C135.764 26.888 138.068 25.772 140.336 25.772C141.956 25.772 143.252 26.456 143.612 28.004C139.4 30.2 135.116 32.864 135.116 37.112C135.116 41.504 139.256 42.62 144.404 42.62C147.536 42.62 151.532 42.332 154.268 41.972L154.34 39.092C151.172 39.632 147.32 39.956 144.512 39.956C140.804 39.956 137.996 39.524 137.996 36.716C137.996 34.34 140.336 32.432 143.684 30.668C143.684 32.576 143.648 34.916 143.576 36.284H146.348C146.312 34.52 146.276 31.46 146.24 29.372C148.976 28.076 151.532 27.032 153.548 26.276C154.52 25.88 155.816 25.376 156.752 25.124L155.564 22.424C154.556 22.964 153.692 23.36 152.612 23.828C150.74 24.692 148.544 25.556 146.096 26.744C145.52 24.656 143.612 23.504 141.272 23.504C139.724 23.504 137.636 23.972 136.268 24.836C137.492 23.216 138.68 21.164 139.508 19.256C143.432 19.112 147.896 18.824 151.46 18.248L151.496 15.584C148.112 16.196 144.188 16.52 140.516 16.7C141.056 15.008 141.344 13.604 141.56 12.524ZM188 34.556V36.752H170.288V34.556H188ZM170.288 40.784V38.48H188V40.784H170.288ZM167.696 43.844H170.288V42.656H188V43.772H190.664V32.72H167.696V43.844ZM180.188 19.184H187.856V21.308H180.188V19.184ZM180.188 15.152H187.856V17.168H180.188V15.152ZM180.188 29.048V26.924H192.464V25.088H180.188V23.108H190.484V19.184H194.876V17.168H190.484V13.352H180.188V10.832H177.56V13.352H166.94V15.152H177.56V17.168H163.16V19.184H177.56V21.308H166.544V23.108H177.56V25.088H165.536V26.924H177.56V29.048H163.088V31.028H194.912V29.048H180.188ZM215.072 15.872C215.144 16.16 215.216 16.484 215.324 16.772C211.868 16.952 207.764 16.844 203.444 16.34L203.624 18.968C208.124 19.364 212.516 19.436 216.008 19.22C216.296 20.084 216.62 21.02 216.98 22.028C217.196 22.64 217.448 23.252 217.7 23.9C213.632 24.26 208.16 24.296 202.76 23.72L202.904 26.42C208.448 26.816 214.352 26.744 218.744 26.348C219.536 28.112 220.472 29.876 221.552 31.532C220.4 31.388 218.06 31.136 216.152 30.92L215.9 33.116C218.384 33.404 221.768 33.728 223.784 34.268L225.26 32.072C224.756 31.568 224.324 31.1 223.928 30.524C222.992 29.156 222.164 27.608 221.408 26.06C223.928 25.7 226.196 25.232 227.924 24.764L227.492 22.064C225.8 22.604 223.28 23.252 220.292 23.612C220.004 22.892 219.716 22.136 219.464 21.452C219.212 20.696 218.924 19.868 218.672 18.968C221.156 18.644 223.712 18.104 225.764 17.528L225.368 14.936C223.064 15.692 220.544 16.232 217.988 16.556C217.592 15.116 217.268 13.64 217.124 12.272L214.064 12.668C214.424 13.676 214.784 14.792 215.072 15.872ZM207.98 31.46L205.172 30.884C204.38 32.468 203.732 33.98 203.768 36.032C203.804 40.64 207.764 42.728 214.82 42.728C217.88 42.728 220.724 42.512 223.244 42.116L223.352 39.236C220.76 39.776 218.132 39.992 214.784 39.992C209.132 39.992 206.468 38.516 206.468 35.528C206.468 33.944 207.116 32.72 207.98 31.46ZM116.108 64.512H102.392V61.632H116.108V64.512ZM116.108 69.372H102.392V66.456H116.108V69.372ZM116.108 74.34H102.392V71.316H116.108V74.34ZM99.836 59.58V76.32H118.736V59.58H108.008C108.152 58.68 108.332 57.708 108.476 56.664H122.768V54.18H108.836C108.98 53.1 109.124 52.02 109.232 50.976L106.172 50.76C106.136 51.768 106.064 52.956 105.956 54.18H91.376V56.664H105.704C105.596 57.708 105.452 58.68 105.308 59.58H99.836ZM123.092 79.416H95.84V60.588H93.248V83.772H95.84V81.864H123.092V79.416ZM147.572 52.488H144.296C144.332 52.776 144.476 53.82 144.512 54.756C144.548 55.26 144.584 56.124 144.584 57.132C139.22 57.204 132.452 57.42 128.456 57.492L128.528 60.264C133.028 59.94 139.148 59.688 144.62 59.652C144.656 60.912 144.656 62.208 144.656 63.288C143.936 63.036 143.144 62.892 142.244 62.892C138.824 62.892 135.908 65.592 135.908 69.156C135.908 73.08 138.788 75.168 141.812 75.168C143.036 75.168 144.08 74.844 144.944 74.196C143.504 77.472 140.192 79.488 135.404 80.568L137.816 82.944C146.204 80.424 148.58 75.024 148.58 70.164C148.58 68.364 148.184 66.78 147.428 65.556C147.392 63.9 147.356 61.668 147.356 59.616C147.536 59.616 147.68 59.616 147.86 59.616C153.116 59.616 156.392 59.688 158.408 59.796L158.444 57.132C156.716 57.132 152.288 57.096 147.896 57.096C147.716 57.096 147.536 57.096 147.356 57.096C147.356 56.124 147.392 55.296 147.392 54.756C147.428 54.288 147.5 52.884 147.572 52.488ZM138.608 69.12C138.608 66.78 140.372 65.304 142.244 65.304C143.648 65.304 144.872 65.988 145.448 67.572C145.772 70.992 144.404 72.684 142.28 72.684C140.264 72.684 138.608 71.352 138.608 69.12Z" fill="white"/>
</svg>
