<svg viewBox="0 0 260 100" fill="none" xmlns="http://www.w3.org/2000/svg">
<rect width="260" height="100" fill="#68785B"/>
<path d="M53.864 58.248H45.224V55.548H53.864V58.248ZM45.224 50.904H53.864V53.424H45.224V50.904ZM34.82 44.532V41.94H42.56V44.532H34.82ZM53.288 41.94V44.532H45.224V41.94H53.288ZM60.236 53.424H56.528V48.924H45.224V46.404H55.952V40.068H45.224V37.98H59.552V35.784H45.224V32.904H42.56V35.784H28.52V37.98H42.56V40.068H32.264V46.404H42.56V48.924H31.256V50.904H42.56V53.424H27.836V55.548H42.56V58.248H30.932V60.3H42.56V62.784C42.56 63.396 42.344 63.612 41.66 63.648C41.048 63.648 38.888 63.684 36.728 63.612C37.088 64.224 37.52 65.196 37.664 65.88C40.652 65.88 42.524 65.844 43.64 65.448C44.72 65.052 45.224 64.44 45.224 62.784V60.3H53.864V61.92H56.528V55.548H60.236V53.424ZM85.364 41.544C84.86 42.768 84.14 44.244 83.528 45.288L83.888 45.396H75.428L76.58 45.144C76.292 44.172 75.536 42.66 74.78 41.544H85.364ZM95.696 57.204V54.936H81.26V52.272H92.528V50.22H81.26V47.592H94.292V45.396H86.12C86.84 44.316 87.632 42.912 88.352 41.544H95.552V39.24H89.972C90.98 37.872 92.132 35.892 93.14 34.056L90.404 33.336C89.756 34.956 88.604 37.296 87.668 38.808L89 39.24H84.644V32.868H82.124V39.24H77.84V32.868H75.356V39.24H70.928L72.764 38.556C72.224 37.116 70.928 34.884 69.704 33.264L67.436 34.02C68.516 35.64 69.776 37.8 70.28 39.24H64.556V41.544H73.34L72.08 41.796C72.8 42.876 73.52 44.316 73.844 45.396H65.996V47.592H78.632V50.22H67.796V52.272H78.632V54.936H64.412V57.204H76.184C72.944 59.724 67.94 61.884 63.476 62.892C64.052 63.468 64.844 64.476 65.204 65.16C69.92 63.792 75.176 61.2 78.632 58.068V65.736H81.26V57.888C84.716 61.2 89.972 63.9 94.796 65.268C95.156 64.512 95.984 63.468 96.596 62.892C91.988 61.92 87.02 59.796 83.744 57.204H95.696ZM114.56 34.524L111.608 34.272C111.536 35.604 111.212 37.224 110.708 38.772C109.916 38.808 109.088 38.808 108.332 38.808C106.676 38.808 104.156 38.664 102.248 38.412V41.112C104.228 41.256 106.604 41.328 108.152 41.328C108.656 41.328 109.196 41.328 109.736 41.328C108.368 44.244 105.956 47.952 101.42 52.344L103.868 54.144C105.092 52.704 106.1 51.372 107.144 50.4C108.764 48.888 111.068 47.772 113.336 47.772C114.956 47.772 116.252 48.456 116.612 50.004C112.4 52.2 108.116 54.864 108.116 59.112C108.116 63.504 112.256 64.62 117.404 64.62C120.536 64.62 124.532 64.332 127.268 63.972L127.34 61.092C124.172 61.632 120.32 61.956 117.512 61.956C113.804 61.956 110.996 61.524 110.996 58.716C110.996 56.34 113.336 54.432 116.684 52.668C116.684 54.576 116.648 56.916 116.576 58.284H119.348C119.312 56.52 119.276 53.46 119.24 51.372C121.976 50.076 124.532 49.032 126.548 48.276C127.52 47.88 128.816 47.376 129.752 47.124L128.564 44.424C127.556 44.964 126.692 45.36 125.612 45.828C123.74 46.692 121.544 47.556 119.096 48.744C118.52 46.656 116.612 45.504 114.272 45.504C112.724 45.504 110.636 45.972 109.268 46.836C110.492 45.216 111.68 43.164 112.508 41.256C116.432 41.112 120.896 40.824 124.46 40.248L124.496 37.584C121.112 38.196 117.188 38.52 113.516 38.7C114.056 37.008 114.344 35.604 114.56 34.524ZM149.48 47.88C153.728 47.628 159.74 47.16 165.572 46.728C166.04 47.664 166.4 48.528 166.652 49.284L168.956 47.988C168.02 45.36 165.536 41.4 163.16 38.412L161.036 39.492C162.188 40.968 163.34 42.696 164.312 44.388C160.964 44.604 157.616 44.82 154.664 45C156.176 41.652 157.832 37.152 159.092 33.48L156.176 32.868C155.24 36.576 153.548 41.652 152.036 45.144L149.192 45.288L149.48 47.88ZM146.276 42.768C145.808 47.448 144.872 51.408 143.54 54.612C142.172 53.64 140.696 52.74 139.328 51.948C140.048 49.14 140.84 45.972 141.596 42.768H146.276ZM147.392 40.212L146.924 40.284H142.136C142.712 37.8 143.252 35.352 143.684 33.156L141.128 32.868C140.696 35.1 140.192 37.656 139.616 40.284H135.692V42.768H139.076C138.032 47.232 136.952 51.66 136.052 54.72L138.284 55.908L138.716 54.36C139.94 55.116 141.236 56.016 142.424 56.916C140.732 60.048 138.536 62.316 135.908 63.684C136.484 64.224 137.168 65.196 137.564 65.844C140.372 64.152 142.676 61.776 144.512 58.572C146.024 59.832 147.32 61.092 148.22 62.208L149.84 60.084C148.868 58.896 147.392 57.528 145.664 56.196C147.428 52.2 148.544 47.052 149.012 40.536L147.392 40.212ZM164.24 53.712V61.74H154.196V53.712H164.24ZM151.64 65.772H154.196V64.152H164.24V65.628H166.904V51.264H151.64V65.772ZM179.216 59.22C179.216 57.564 181.088 56.232 184.508 56.232C185.696 56.232 186.884 56.34 188 56.592C188 57.528 188.036 58.392 188.036 59.004C188.036 61.488 186.272 62.136 184.22 62.136C180.656 62.136 179.216 60.876 179.216 59.22ZM190.628 34.416H187.568C187.64 34.92 187.712 35.964 187.712 36.576C187.712 37.332 187.712 38.196 187.712 39.132C187.136 39.132 186.596 39.132 186.056 39.132C183.644 39.132 179.18 38.772 176.84 38.34L176.876 41.004C179.144 41.256 183.572 41.616 186.092 41.616C186.632 41.616 187.172 41.616 187.676 41.616C187.676 43.092 187.676 44.676 187.676 46.116C187.676 46.296 187.676 46.476 187.676 46.656C187.028 46.656 186.38 46.656 185.732 46.656C183.356 46.656 179.252 46.404 176.66 45.972L176.696 48.672C179.288 48.96 183.248 49.176 185.696 49.176C186.38 49.176 187.064 49.176 187.748 49.176C187.784 50.724 187.856 52.452 187.892 54.072C186.92 53.928 185.912 53.856 184.868 53.856C179.684 53.856 176.552 56.088 176.552 59.364C176.552 62.82 179.36 64.656 184.544 64.656C189.224 64.656 190.88 62.1 190.88 59.616C190.88 59.04 190.844 58.284 190.808 57.384C194.408 58.68 197.396 60.876 199.52 62.82L201.176 60.264C199.124 58.572 195.452 55.944 190.664 54.648C190.592 52.92 190.484 50.976 190.412 49.104C193.832 48.996 197 48.708 200.384 48.276L200.42 45.576C197.144 46.08 193.868 46.404 190.376 46.548C190.376 46.404 190.376 46.26 190.376 46.116C190.376 44.784 190.376 43.092 190.376 41.508C193.832 41.328 197.252 41.004 200.096 40.68L200.132 38.052C196.892 38.556 193.616 38.88 190.376 39.024C190.376 38.088 190.412 37.296 190.412 36.828C190.448 35.784 190.52 35.064 190.628 34.416ZM219.176 59.22C219.176 57.96 220.436 56.916 222.056 56.916C224.792 56.916 226.592 58.968 226.88 61.812C225.98 61.956 225.008 62.028 223.964 62.028C221.156 62.028 219.176 60.948 219.176 59.22ZM214.568 36.468L214.676 39.456C215.432 39.348 216.26 39.276 217.052 39.24C218.96 39.132 226.16 38.808 228.068 38.736C226.232 40.356 221.732 44.136 219.716 45.792C217.628 47.556 213.02 51.408 210.032 53.856L212.084 55.98C216.656 51.336 219.86 48.78 225.872 48.78C230.552 48.78 233.936 51.444 233.936 54.972C233.936 57.924 232.316 60.012 229.436 61.128C229.004 57.708 226.592 54.756 222.092 54.756C218.744 54.756 216.548 56.952 216.548 59.436C216.548 62.424 219.536 64.548 224.432 64.548C232.064 64.548 236.816 60.804 236.816 55.008C236.816 50.148 232.532 46.548 226.556 46.548C224.936 46.548 223.208 46.728 221.552 47.304C224.36 44.964 229.256 40.788 231.056 39.42C231.704 38.88 232.424 38.412 233.072 37.944L231.416 35.856C231.056 35.964 230.552 36.072 229.472 36.144C227.564 36.324 218.996 36.612 217.124 36.612C216.404 36.612 215.396 36.576 214.568 36.468Z" fill="white"/>
</svg>
