<svg viewBox="0 0 260 100" fill="none" xmlns="http://www.w3.org/2000/svg">
<rect width="260" height="100" fill="#442B0E"/>
<path d="M31.18 38.372V28.328H49.036V38.372H31.18ZM49.036 15.98V25.7H31.18V15.98H49.036ZM28.48 13.352V43.34H31.18V41H49.036V43.196H51.844V13.352H28.48ZM91.624 21.092V18.428H77.368V10.904H74.596V18.428H60.448V21.092H72.94C69.916 27.248 64.696 33.08 59.224 35.924C59.836 36.428 60.736 37.436 61.132 38.084C66.424 35.024 71.284 29.588 74.596 23.36V34.376H67.576V37.04H74.596V43.736H77.368V37.04H84.208V34.376H77.368V23.36C80.608 29.588 85.432 35.06 90.868 38.048C91.264 37.292 92.2 36.248 92.848 35.708C87.196 32.972 82.012 27.248 79.024 21.092H91.624ZM107.248 12.128H97.42V14.288H107.248V12.128ZM105.088 33.872V39.884H99.472V33.872H105.088ZM107.428 31.676H97.132V43.7H99.472V42.08H107.428V31.676ZM97.204 28.904H107.284V26.78H97.204V28.904ZM107.284 21.884H97.204V24.008H107.284V21.884ZM95.512 19.112H108.508V16.916H95.512V19.112ZM123.772 33.296V39.668H113.764V33.296H123.772ZM111.244 43.736H113.764V42.08H123.772V43.592H126.364V30.92H111.244V43.736ZM122.836 20.552V25.772H115.924C116.248 24.26 116.572 22.46 116.896 20.552H122.836ZM125.392 25.772V18.248H117.292C117.508 16.988 117.724 15.728 117.904 14.54H127.408V12.2H109.732V14.54H115.276C115.096 15.728 114.916 16.988 114.7 18.248H110.272V20.552H114.34C114.016 22.424 113.656 24.26 113.332 25.772H108.652V28.148H128.56V25.772H125.392ZM146.56 12.524L143.608 12.272C143.536 13.604 143.212 15.224 142.708 16.772C141.916 16.808 141.088 16.808 140.332 16.808C138.676 16.808 136.156 16.664 134.248 16.412V19.112C136.228 19.256 138.604 19.328 140.152 19.328C140.656 19.328 141.196 19.328 141.736 19.328C140.368 22.244 137.956 25.952 133.42 30.344L135.868 32.144C137.092 30.704 138.1 29.372 139.144 28.4C140.764 26.888 143.068 25.772 145.336 25.772C146.956 25.772 148.252 26.456 148.612 28.004C144.4 30.2 140.116 32.864 140.116 37.112C140.116 41.504 144.256 42.62 149.404 42.62C152.536 42.62 156.532 42.332 159.268 41.972L159.34 39.092C156.172 39.632 152.32 39.956 149.512 39.956C145.804 39.956 142.996 39.524 142.996 36.716C142.996 34.34 145.336 32.432 148.684 30.668C148.684 32.576 148.648 34.916 148.576 36.284H151.348C151.312 34.52 151.276 31.46 151.24 29.372C153.976 28.076 156.532 27.032 158.548 26.276C159.52 25.88 160.816 25.376 161.752 25.124L160.564 22.424C159.556 22.964 158.692 23.36 157.612 23.828C155.74 24.692 153.544 25.556 151.096 26.744C150.52 24.656 148.612 23.504 146.272 23.504C144.724 23.504 142.636 23.972 141.268 24.836C142.492 23.216 143.68 21.164 144.508 19.256C148.432 19.112 152.896 18.824 156.46 18.248L156.496 15.584C153.112 16.196 149.188 16.52 145.516 16.7C146.056 15.008 146.344 13.604 146.56 12.524ZM171.976 21.92H176.152V28.076H171.976V21.92ZM179.104 15.872C178.528 17.168 177.736 18.536 176.944 19.688H171.472C172.48 18.464 173.38 17.168 174.136 15.872H179.104ZM182.74 28.076H178.456V21.92H182.74V28.076ZM184.54 40.928C181.408 40.928 180.868 40.64 180.868 39.308V30.344H185.224V20.768H189.508C189.076 27.968 187.744 33.404 183.244 36.752C183.82 37.112 184.684 38.012 184.972 38.588C190.012 34.808 191.524 28.76 192.028 20.768H196.96C196.636 30.488 196.24 34.016 195.52 34.844C195.232 35.276 194.944 35.348 194.404 35.348C193.828 35.348 192.568 35.312 191.164 35.204C191.56 35.888 191.812 36.932 191.884 37.724C193.288 37.796 194.728 37.796 195.556 37.688C196.492 37.58 197.14 37.292 197.716 36.536C198.76 35.204 199.084 31.172 199.516 19.436V18.248H192.136C192.208 16.052 192.244 13.676 192.28 11.228H189.76C189.724 13.712 189.724 16.052 189.652 18.248H185.224V19.688H179.572C180.58 18.104 181.588 16.196 182.236 14.576L180.652 13.604L180.256 13.712H175.324C175.72 12.884 176.08 12.056 176.404 11.264L173.956 10.868C172.804 13.928 170.608 17.816 167.188 20.696C167.764 21.02 168.592 21.776 168.988 22.244L169.564 21.704V30.344H173.272C172.84 35.132 171.652 39.596 167.188 41.9C167.728 42.368 168.52 43.34 168.88 43.916C173.812 41.108 175.144 36.068 175.684 30.344H178.384V39.344C178.384 42.44 179.644 43.196 184.576 43.196H195.376C199.228 43.196 200.092 42.152 200.524 37.976C199.84 37.832 198.796 37.436 198.22 37.04C197.968 40.352 197.608 40.928 195.268 40.928H184.54ZM206.608 27.788C206.752 26.24 206.932 24.62 207.04 23.036H214.276V12.74H204.232V15.152H211.72V20.624H204.88C204.664 24.008 204.16 28.58 203.728 31.352L206.104 31.748C206.176 31.244 206.248 30.704 206.32 30.128H211.756C211.396 37.292 210.928 40.1 210.28 40.82C209.992 41.144 209.632 41.216 209.02 41.216C208.372 41.216 206.68 41.216 204.88 41.036C205.312 41.756 205.6 42.836 205.672 43.628C207.436 43.736 209.128 43.736 210.1 43.628C211.144 43.556 211.792 43.34 212.404 42.584C213.448 41.396 213.808 38.048 214.276 28.976C214.312 28.58 214.312 27.788 214.312 27.788H206.608ZM219.028 31.676V26.564H224.392V31.676H219.028ZM232.348 26.564V31.676H226.948V26.564H232.348ZM237.064 42.944C236.164 40.64 233.824 37.292 231.664 34.808L229.504 35.852C230.368 36.896 231.304 38.084 232.096 39.272L226.948 39.668V33.944H234.904V24.296H226.948V20.372C228.928 20.264 230.98 20.12 232.996 19.976C233.572 20.768 234.04 21.524 234.364 22.172L236.704 20.912C235.588 18.86 233.104 15.836 230.872 13.676L228.676 14.756C229.576 15.656 230.476 16.7 231.34 17.744C227.884 17.96 224.428 18.14 221.368 18.284C222.664 16.232 224.104 13.712 225.256 11.516L222.448 10.76C221.512 13.064 219.964 16.16 218.56 18.392L215.5 18.536L215.86 21.092C218.272 20.948 221.224 20.768 224.392 20.552V24.296H216.58V33.944H224.392V39.848C220.792 40.1 217.516 40.316 214.996 40.46L215.356 43.088C220.072 42.692 226.984 42.152 233.572 41.576C234.076 42.476 234.508 43.34 234.796 44.06L237.064 42.944ZM116.572 52.488H113.296C113.332 52.776 113.476 53.82 113.512 54.756C113.548 55.26 113.584 56.124 113.584 57.132C108.22 57.204 101.452 57.42 97.456 57.492L97.528 60.264C102.028 59.94 108.148 59.688 113.62 59.652C113.656 60.912 113.656 62.208 113.656 63.288C112.936 63.036 112.144 62.892 111.244 62.892C107.824 62.892 104.908 65.592 104.908 69.156C104.908 73.08 107.788 75.168 110.812 75.168C112.036 75.168 113.08 74.844 113.944 74.196C112.504 77.472 109.192 79.488 104.404 80.568L106.816 82.944C115.204 80.424 117.58 75.024 117.58 70.164C117.58 68.364 117.184 66.78 116.428 65.556C116.392 63.9 116.356 61.668 116.356 59.616C116.536 59.616 116.68 59.616 116.86 59.616C122.116 59.616 125.392 59.688 127.408 59.796L127.444 57.132C125.716 57.132 121.288 57.096 116.896 57.096C116.716 57.096 116.536 57.096 116.356 57.096C116.356 56.124 116.392 55.296 116.392 54.756C116.428 54.288 116.5 52.884 116.572 52.488ZM107.608 69.12C107.608 66.78 109.372 65.304 111.244 65.304C112.648 65.304 113.872 65.988 114.448 67.572C114.772 70.992 113.404 72.684 111.28 72.684C109.264 72.684 107.608 71.352 107.608 69.12ZM143.176 77.22C143.176 75.96 144.436 74.916 146.056 74.916C148.792 74.916 150.592 76.968 150.88 79.812C149.98 79.956 149.008 80.028 147.964 80.028C145.156 80.028 143.176 78.948 143.176 77.22ZM138.568 54.468L138.676 57.456C139.432 57.348 140.26 57.276 141.052 57.24C142.96 57.132 150.16 56.808 152.068 56.736C150.232 58.356 145.732 62.136 143.716 63.792C141.628 65.556 137.02 69.408 134.032 71.856L136.084 73.98C140.656 69.336 143.86 66.78 149.872 66.78C154.552 66.78 157.936 69.444 157.936 72.972C157.936 75.924 156.316 78.012 153.436 79.128C153.004 75.708 150.592 72.756 146.092 72.756C142.744 72.756 140.548 74.952 140.548 77.436C140.548 80.424 143.536 82.548 148.432 82.548C156.064 82.548 160.816 78.804 160.816 73.008C160.816 68.148 156.532 64.548 150.556 64.548C148.936 64.548 147.208 64.728 145.552 65.304C148.36 62.964 153.256 58.788 155.056 57.42C155.704 56.88 156.424 56.412 157.072 55.944L155.416 53.856C155.056 53.964 154.552 54.072 153.472 54.144C151.564 54.324 142.996 54.612 141.124 54.612C140.404 54.612 139.396 54.576 138.568 54.468Z" fill="white"/>
</svg>
