<svg viewBox="0 0 260 100" fill="none" xmlns="http://www.w3.org/2000/svg">
<rect width="260" height="100" fill="#7314AE"/>
<path d="M25.096 28.004L26.536 30.812C31.54 29.264 36.472 27.104 40.252 24.944V38.264C40.252 39.632 40.144 41.432 40.036 42.116H43.564C43.42 41.396 43.348 39.632 43.348 38.264V23.072C47.02 20.624 50.332 17.888 53.068 15.044L50.656 12.812C48.172 15.8 44.572 18.932 40.828 21.272C36.832 23.792 31.324 26.312 25.096 28.004ZM82.876 16.592L80.824 17.456C82.012 19.112 83.272 21.344 84.172 23.252L86.296 22.28C85.432 20.588 83.776 17.888 82.876 16.592ZM87.484 14.756L85.468 15.692C86.692 17.312 87.988 19.472 88.924 21.38L91.012 20.372C90.148 18.68 88.456 16.016 87.484 14.756ZM59.908 31.532L62.608 34.268C63.148 33.512 63.94 32.396 64.66 31.496C66.316 29.48 69.304 25.556 71.032 23.432C72.256 21.956 72.94 21.812 74.344 23.18C75.856 24.656 79.204 28.22 81.292 30.596C83.596 33.224 86.764 36.896 89.32 39.992L91.804 37.364C89.032 34.412 85.432 30.488 83.02 27.932C80.896 25.664 77.836 22.46 75.64 20.372C73.192 18.068 71.5 18.464 69.556 20.732C67.288 23.396 64.156 27.392 62.464 29.12C61.492 30.092 60.844 30.74 59.908 31.532ZM102.172 14.612L100.12 16.808C102.784 18.608 107.284 22.46 109.084 24.332L111.352 22.064C109.336 20.048 104.728 16.304 102.172 14.612ZM99.076 38.732L100.984 41.684C106.996 40.568 111.532 38.372 115.132 36.104C120.568 32.684 124.78 27.788 127.228 23.288L125.5 20.228C123.412 24.656 119.02 29.984 113.476 33.476C110.056 35.6 105.376 37.796 99.076 38.732ZM142.132 37.832C142.132 39.164 142.06 40.928 141.88 42.08H145.372C145.228 40.892 145.156 38.948 145.156 37.832C145.156 36.788 145.156 31.352 145.12 25.952C149.116 27.212 155.344 29.624 159.268 31.748L160.492 28.688C156.712 26.78 149.872 24.188 145.12 22.748C145.12 20.48 145.12 18.392 145.12 16.88C145.12 15.8 145.264 14.252 145.372 13.136H141.844C142.06 14.252 142.132 15.872 142.132 16.88V37.832ZM182.56 12.524L179.608 12.272C179.536 13.604 179.212 15.224 178.708 16.772C177.916 16.808 177.088 16.808 176.332 16.808C174.676 16.808 172.156 16.664 170.248 16.412V19.112C172.228 19.256 174.604 19.328 176.152 19.328C176.656 19.328 177.196 19.328 177.736 19.328C176.368 22.244 173.956 25.952 169.42 30.344L171.868 32.144C173.092 30.704 174.1 29.372 175.144 28.4C176.764 26.888 179.068 25.772 181.336 25.772C182.956 25.772 184.252 26.456 184.612 28.004C180.4 30.2 176.116 32.864 176.116 37.112C176.116 41.504 180.256 42.62 185.404 42.62C188.536 42.62 192.532 42.332 195.268 41.972L195.34 39.092C192.172 39.632 188.32 39.956 185.512 39.956C181.804 39.956 178.996 39.524 178.996 36.716C178.996 34.34 181.336 32.432 184.684 30.668C184.684 32.576 184.648 34.916 184.576 36.284H187.348C187.312 34.52 187.276 31.46 187.24 29.372C189.976 28.076 192.532 27.032 194.548 26.276C195.52 25.88 196.816 25.376 197.752 25.124L196.564 22.424C195.556 22.964 194.692 23.36 193.612 23.828C191.74 24.692 189.544 25.556 187.096 26.744C186.52 24.656 184.612 23.504 182.272 23.504C180.724 23.504 178.636 23.972 177.268 24.836C178.492 23.216 179.68 21.164 180.508 19.256C184.432 19.112 188.896 18.824 192.46 18.248L192.496 15.584C189.112 16.196 185.188 16.52 181.516 16.7C182.056 15.008 182.344 13.604 182.56 12.524ZM215.824 14.468V17.384H207.94V14.468H215.824ZM207.94 22.388V19.292H215.824V22.388H207.94ZM218.344 24.44V12.416H205.312V43.772H207.94V24.44H218.344ZM217.336 32.792V28.904H222.376V32.792H217.336ZM229.648 35.06V32.792H224.752V28.904H228.856V26.708H211.108V28.904H214.996V32.792H210.424V35.06H214.924C214.708 37.148 213.7 40.136 210.676 41.972C211.252 42.332 212.044 43.088 212.44 43.556C215.896 41.216 217.048 37.472 217.264 35.06H222.376V43.088H224.752V35.06H229.648ZM224.068 22.424V19.292H232.24V22.424H224.068ZM232.24 14.468V17.384H224.068V14.468H232.24ZM234.868 12.416H221.512V24.476H232.24V40.244C232.24 40.82 232.06 41.036 231.484 41.036C230.944 41.072 229 41.072 227.02 41C227.416 41.72 227.812 42.98 227.884 43.664C230.584 43.7 232.384 43.628 233.464 43.196C234.508 42.728 234.868 41.864 234.868 40.28V12.416ZM91.12 52.416H88.6V57.312H82.228V51.192H79.636V57.312H73.66V52.416H71.212V59.616H91.12V52.416ZM67.612 51.012C65.56 56.484 62.248 61.848 58.72 65.304C59.224 65.88 59.944 67.284 60.232 67.896C61.492 66.6 62.716 65.124 63.868 63.468V83.664H66.388V59.544C67.828 57.06 69.088 54.432 70.096 51.768L67.612 51.012ZM74.596 76.644H80.86V79.884H74.596V76.644ZM80.86 69.372H74.596V66.276H80.86V69.372ZM80.86 74.592H74.596V71.424H80.86V74.592ZM92.236 79.884H83.416V76.644H90.724V74.592H83.416V71.424H90.724V69.372H83.416V66.276H91.876V64.116H83.488C84.028 63.036 84.64 61.776 85.216 60.624L82.408 59.94C82.12 61.128 81.544 62.748 80.932 64.116H74.632C75.316 62.928 75.964 61.704 76.504 60.48L73.912 59.76C72.4 63.396 69.808 66.96 67.036 69.228C67.648 69.66 68.62 70.596 69.052 71.064C70.06 70.164 71.032 69.084 72.004 67.896V83.628H74.596V82.044H92.236V79.884ZM112 63.504C109.876 63.504 108.184 65.196 108.184 67.32C108.184 69.444 109.876 71.136 112 71.136C114.124 71.136 115.816 69.444 115.816 67.32C115.816 65.196 114.124 63.504 112 63.504ZM159.304 68.904V78.876H149.188V66.6H160.6V54.288H157.828V64.008H149.188V51.084H146.452V64.008H138.208V54.288H135.544V66.6H146.452V78.876H136.84V68.904H134.176V83.736H136.84V81.504H159.304V83.664H162.04V68.904H159.304ZM191.416 66.924H182.128V63.252H191.416V66.924ZM193.972 57.816H191.416V60.984H182.128V57.816H179.608V60.984H174.208V63.252H179.608V69.12H185.548V71.964H176.116V82.548H178.744V74.304H185.548V83.808H188.176V74.304H195.304V79.524C195.304 79.92 195.16 80.028 194.656 80.028C194.152 80.064 192.532 80.064 190.588 79.992C190.912 80.712 191.272 81.612 191.38 82.332C193.936 82.332 195.592 82.332 196.636 81.936C197.644 81.576 197.896 80.856 197.896 79.56V71.964H188.176V69.12H193.972V63.252H199.84V60.984H193.972V57.816ZM186.412 54.504V50.904H183.676V54.504H170.464V64.8C170.464 69.984 170.212 77.256 167.26 82.368C167.872 82.656 168.988 83.376 169.456 83.88C172.552 78.444 172.984 70.344 172.984 64.8V56.916H200.164V54.504H186.412Z" fill="white"/>
</svg>
