<svg viewBox="0 0 260 100" fill="none" xmlns="http://www.w3.org/2000/svg">
<rect width="260" height="100" fill="#1DA2BF"/>
<path d="M34.424 40.48V34.576H53.252V40.48H34.424ZM53.252 26.116V32.02H34.424V26.116H53.252ZM53.252 17.728V23.56H34.424V17.728H53.252ZM31.796 15.136V45.556H34.424V43.108H53.252V45.556H56.024V15.136H31.796ZM75.248 28.564H67.688V21.04H75.248V28.564ZM67.688 39.58V30.94H75.248V39.58H67.688ZM70.712 12.796C70.46 14.488 69.812 16.9 69.272 18.628H65.24V44.836H67.688V41.992H77.696V18.628H71.72C72.332 17.08 72.98 15.1 73.592 13.336L70.712 12.796ZM95.3 18.52H84.536C85.148 16.828 85.652 15.1 86.084 13.336L83.528 12.724C82.376 17.656 80.432 22.624 78.02 25.792C78.596 26.152 79.748 26.872 80.216 27.304C81.476 25.612 82.592 23.416 83.6 21.004H92.744C92.276 35.332 91.736 40.804 90.548 42.064C90.188 42.532 89.792 42.604 89.072 42.604C88.244 42.604 86.084 42.604 83.744 42.388C84.248 43.144 84.572 44.224 84.644 45.016C86.66 45.124 88.712 45.196 89.972 45.052C91.196 44.944 92.024 44.62 92.816 43.612C94.256 41.848 94.724 36.304 95.3 19.888V18.52ZM89.612 34.72C88.46 32.596 85.976 29.14 83.96 26.584L81.872 27.808C83.852 30.4 86.264 33.964 87.344 36.124L89.612 34.72ZM114.056 38.68C114.056 36.916 115.964 35.764 118.664 35.764C119.96 35.764 121.184 35.98 122.336 36.34C122.372 36.808 122.372 37.24 122.372 37.6C122.372 39.976 121.472 41.524 118.448 41.524C115.856 41.524 114.056 40.516 114.056 38.68ZM124.964 15.28H121.724C121.796 15.892 121.868 16.864 121.868 17.476V21.94C120.752 21.976 119.6 22.012 118.484 22.012C116.324 22.012 114.416 21.904 112.364 21.724V24.424C114.488 24.568 116.36 24.676 118.412 24.676C119.564 24.676 120.716 24.64 121.868 24.604C121.904 27.556 122.12 31.084 122.228 33.856C121.184 33.64 120.068 33.532 118.88 33.532C114.164 33.532 111.464 35.944 111.464 38.968C111.464 42.208 114.128 44.116 118.952 44.116C123.812 44.116 125.18 41.272 125.18 38.32C125.18 38.068 125.18 37.816 125.18 37.564C127.016 38.608 128.816 40.048 130.616 41.74L132.2 39.328C130.328 37.636 127.988 35.836 125.072 34.684C124.928 31.66 124.676 28.06 124.64 24.424C126.8 24.28 128.888 24.064 130.868 23.74V20.968C128.96 21.328 126.836 21.616 124.64 21.796C124.676 20.104 124.712 18.412 124.748 17.44C124.784 16.72 124.856 16 124.964 15.28ZM107.18 15.496L104.012 15.244C104.012 16 103.904 16.972 103.796 17.8C103.328 20.788 102.14 27.664 102.14 32.956C102.14 37.816 102.788 41.776 103.508 44.332L106.028 44.152C105.992 43.756 105.956 43.252 105.956 42.892C105.92 42.46 105.992 41.776 106.1 41.272C106.46 39.508 107.792 35.836 108.656 33.316L107.18 32.164C106.568 33.64 105.704 35.836 105.128 37.456C104.876 35.692 104.768 34.18 104.768 32.452C104.768 28.42 105.848 21.292 106.568 17.944C106.676 17.296 106.964 16.108 107.18 15.496ZM143.684 12.904C141.848 18.268 138.788 23.596 135.512 27.088C135.944 27.664 136.736 29.068 136.988 29.68C138.14 28.42 139.292 26.98 140.336 25.324V45.7H142.964V20.932C144.188 18.592 145.268 16.108 146.168 13.696L143.684 12.904ZM156.032 26.368V33.964H149.84V26.368H156.032ZM158.516 36.34V23.992H147.284V38.824H149.84V36.34H158.516ZM168.524 16.36H146.24V18.952H163.268V42.064C163.268 42.784 163.016 42.964 162.26 43C161.468 43.036 158.84 43.072 155.96 42.964C156.356 43.72 156.824 44.944 156.932 45.7C160.424 45.7 162.8 45.628 164.132 45.196C165.392 44.764 165.896 43.972 165.896 42.064V18.952H168.524V16.36ZM172.844 19.312L173.168 22.444C177.056 21.616 186.236 20.752 190.088 20.32C186.776 22.3 183.356 26.872 183.356 32.488C183.356 40.516 190.952 44.08 197.612 44.332L198.656 41.344C192.788 41.128 186.236 38.896 186.236 31.876C186.236 27.592 189.368 22.12 194.48 20.464C196.316 19.924 199.484 19.888 201.536 19.888V17.008C199.124 17.116 195.74 17.332 191.816 17.656C185.192 18.196 178.388 18.88 176.048 19.132C175.364 19.204 174.212 19.276 172.844 19.312ZM196.352 24.316L194.516 25.108C195.596 26.584 196.64 28.456 197.468 30.184L199.304 29.32C198.548 27.736 197.18 25.504 196.352 24.316ZM200.276 22.804L198.512 23.632C199.628 25.144 200.672 26.908 201.536 28.672L203.408 27.772C202.58 26.188 201.14 23.992 200.276 22.804ZM228.572 14.488H225.296C225.332 14.776 225.476 15.82 225.512 16.756C225.548 17.26 225.584 18.124 225.584 19.132C220.22 19.204 213.452 19.42 209.456 19.492L209.528 22.264C214.028 21.94 220.148 21.688 225.62 21.652C225.656 22.912 225.656 24.208 225.656 25.288C224.936 25.036 224.144 24.892 223.244 24.892C219.824 24.892 216.908 27.592 216.908 31.156C216.908 35.08 219.788 37.168 222.812 37.168C224.036 37.168 225.08 36.844 225.944 36.196C224.504 39.472 221.192 41.488 216.404 42.568L218.816 44.944C227.204 42.424 229.58 37.024 229.58 32.164C229.58 30.364 229.184 28.78 228.428 27.556C228.392 25.9 228.356 23.668 228.356 21.616C228.536 21.616 228.68 21.616 228.86 21.616C234.116 21.616 237.392 21.688 239.408 21.796L239.444 19.132C237.716 19.132 233.288 19.096 228.896 19.096C228.716 19.096 228.536 19.096 228.356 19.096C228.356 18.124 228.392 17.296 228.392 16.756C228.428 16.288 228.5 14.884 228.572 14.488ZM219.608 31.12C219.608 28.78 221.372 27.304 223.244 27.304C224.648 27.304 225.872 27.988 226.448 29.572C226.772 32.992 225.404 34.684 223.28 34.684C221.264 34.684 219.608 33.352 219.608 31.12ZM131.768 54.92L128.42 54.56C128.42 57.008 128.06 59.816 127.484 62.408C125.324 62.588 123.2 62.768 122.012 62.804C120.86 62.84 119.924 62.876 118.808 62.804L119.096 65.936C120.032 65.792 121.508 65.612 122.336 65.504C123.272 65.396 125 65.18 126.908 65C125.684 69.824 122.984 78.032 119.312 82.964L122.264 84.116C126.044 78.032 128.492 69.896 129.824 64.712C131.408 64.568 132.848 64.46 133.712 64.46C135.98 64.46 137.528 65.072 137.528 68.384C137.528 72.272 136.952 76.952 135.8 79.4C135.08 80.948 134 81.236 132.668 81.236C131.66 81.236 129.752 80.984 128.24 80.516L128.708 83.504C129.86 83.792 131.588 84.044 132.956 84.044C135.296 84.044 137.06 83.432 138.212 81.02C139.724 78.032 140.3 72.308 140.3 68.024C140.3 63.164 137.672 61.94 134.468 61.94C133.604 61.94 132.092 62.048 130.4 62.192C130.796 60.212 131.12 58.088 131.336 57.044C131.48 56.36 131.624 55.568 131.768 54.92ZM144.152 58.736L141.524 59.924C144.08 62.912 146.888 69.248 147.932 72.956L150.74 71.624C149.516 68.276 146.384 61.652 144.152 58.736Z" fill="white"/>
</svg>
