<svg viewBox="0 0 260 100" fill="none" xmlns="http://www.w3.org/2000/svg">
<rect width="260" height="100" fill="#7314AE"/>
<path d="M74.164 37.78V35.332H57.172C57.712 34.072 58.18 32.776 58.612 31.444L55.948 30.868C54.724 35.08 52.6 39.256 50.008 41.92C50.656 42.244 51.808 43 52.312 43.432C53.644 41.92 54.904 39.976 56.02 37.78H74.164ZM50.8 35.152C49.54 33.856 46.912 32.272 44.788 31.264L43.276 33.172C45.4 34.252 47.992 35.98 49.216 37.24L50.8 35.152ZM49.144 44.368C47.848 43.18 45.184 41.704 43.024 40.768L41.548 42.712C43.708 43.72 46.336 45.304 47.56 46.528L49.144 44.368ZM44.752 63.304C46.516 59.92 48.532 55.456 50.044 51.64L47.992 50.128C46.3 54.232 43.996 58.948 42.376 61.756L44.752 63.304ZM62.86 56.32C63.076 54.736 63.328 52.864 63.544 50.848H69.088C68.944 53.08 68.8 54.88 68.62 56.32H62.86ZM61.24 50.848C61.024 52.828 60.772 54.736 60.556 56.32H55.336C55.588 54.628 55.876 52.756 56.128 50.848H61.24ZM61.924 43.36C61.816 44.944 61.672 46.672 61.492 48.4H56.452C56.704 46.672 56.92 44.98 57.1 43.36H61.924ZM63.796 48.4C63.94 46.672 64.12 44.944 64.228 43.36H69.448C69.376 45.232 69.304 46.888 69.232 48.4H63.796ZM74.812 50.848V48.4H71.716C71.788 46.564 71.896 44.548 72.004 42.244C72.004 41.956 72.04 41.02 72.04 41.02H54.904C54.688 43.252 54.364 45.808 54.004 48.4H50.332V50.848H53.644C53.14 54.304 52.6 57.652 52.096 60.064L54.652 60.316L54.94 58.66H68.296C68.044 59.92 67.756 60.64 67.468 61C67.144 61.432 66.748 61.504 66.1 61.504C65.416 61.504 63.796 61.504 61.924 61.36C62.356 61.936 62.572 62.908 62.608 63.592C64.372 63.7 66.136 63.736 67.18 63.628C68.26 63.52 68.98 63.268 69.628 62.368C70.132 61.792 70.528 60.676 70.816 58.66H74.596V56.32H71.14C71.284 54.844 71.428 53.044 71.572 50.848H74.812ZM92.74 38.86C92.056 42.496 91.048 45.736 89.788 48.58C88.06 47.032 85.396 45.232 83.056 43.864C84.028 42.352 84.892 40.66 85.72 38.86H92.74ZM103 30.904H100.264V44.62C98.824 42.928 97.564 41.164 96.592 39.364L95.188 39.904C95.368 38.932 95.584 37.924 95.728 36.88L94 36.232L93.496 36.376H86.728C87.34 34.792 87.88 33.1 88.348 31.408L85.72 30.868C84.064 37.312 81.076 43.252 77.116 46.924C77.728 47.32 78.88 48.184 79.312 48.652C80.14 47.824 80.932 46.888 81.688 45.88C84.172 47.392 86.908 49.408 88.564 50.992C85.864 55.852 82.192 59.344 77.908 61.576C78.556 61.972 79.564 62.944 80.032 63.556C86.872 59.74 92.272 52.576 94.9 41.236C96.34 43.684 98.212 46.096 100.264 48.292V63.664H103V50.92C105.052 52.72 107.248 54.268 109.408 55.384C109.876 54.664 110.704 53.62 111.316 53.116C108.472 51.82 105.556 49.84 103 47.428V30.904ZM128.416 36.7V39.58C132.376 40.012 139.36 40.012 143.212 39.58V36.664C139.612 37.204 132.34 37.348 128.416 36.7ZM129.82 51.352L127.228 51.1C126.832 52.864 126.616 54.124 126.616 55.348C126.616 58.732 129.316 60.748 135.364 60.748C139.072 60.748 142.096 60.424 144.364 59.992L144.292 56.968C141.376 57.616 138.604 57.904 135.364 57.904C130.468 57.904 129.28 56.32 129.28 54.664C129.28 53.692 129.46 52.684 129.82 51.352ZM121.54 33.928L118.336 33.64C118.336 34.432 118.228 35.368 118.084 36.196C117.652 39.184 116.464 45.34 116.464 50.632C116.464 55.492 117.076 59.632 117.796 62.188L120.388 62.008C120.352 61.648 120.316 61.144 120.28 60.748C120.244 60.352 120.352 59.668 120.46 59.128C120.784 57.436 122.08 53.62 123.016 51.064L121.504 49.912C120.892 51.388 120.028 53.548 119.416 55.168C119.2 53.404 119.092 51.892 119.092 50.128C119.092 46.096 120.208 39.652 120.892 36.34C121.036 35.692 121.36 34.54 121.54 33.928ZM174.172 42.568C174.172 47.68 173.848 53.836 171.112 59.02C169.348 59.2 167.584 59.38 165.892 59.524V56.716H171.508V54.628H165.892V52.324H171.4V41.848H165.928V39.58H171.508V41.56H174.172V42.568ZM160.204 47.896H163.768V50.524H160.204V47.896ZM160.204 43.648H163.768V46.204H160.204V43.648ZM165.712 46.204V43.648H169.456V46.204H165.712ZM165.712 50.524V47.896H169.456V50.524H165.712ZM176.512 39.184V31.048H174.172V39.184H171.652V37.492H165.928V35.008C167.98 34.756 169.924 34.432 171.508 34.036L170.068 32.092C167.044 32.848 161.896 33.46 157.648 33.82C157.9 33.136 158.116 32.416 158.332 31.732L155.956 31.084C154.408 36.556 151.816 41.956 148.9 45.52C149.296 46.168 150.016 47.572 150.232 48.22C151.348 46.816 152.392 45.196 153.4 43.432V63.772H155.812V38.572C156.496 37.024 157.108 35.44 157.648 33.82C157.936 34.36 158.188 35.152 158.296 35.728C159.988 35.62 161.788 35.476 163.588 35.296V37.492H157.864V39.58H163.588V41.848H158.332V52.324H163.588V54.628H158.224V56.716H163.588V59.74L157.324 60.316L157.756 62.584C161.104 62.188 165.46 61.72 169.816 61.18C169.492 61.648 169.132 62.08 168.772 62.512C169.42 62.836 170.356 63.484 170.752 63.916C175.828 57.904 176.512 49.48 176.512 42.568V41.56H179.752C179.464 54.988 179.14 59.668 178.456 60.676C178.168 61.18 177.844 61.252 177.376 61.252C176.764 61.252 175.54 61.216 174.136 61.108C174.532 61.756 174.748 62.8 174.784 63.448C176.116 63.556 177.484 63.556 178.384 63.448C179.32 63.34 179.932 63.088 180.508 62.188C181.516 60.748 181.768 55.852 182.092 40.444C182.092 40.12 182.128 39.184 182.128 39.184H176.512ZM209.344 34.432L206.68 32.056C206.248 32.74 205.348 33.748 204.628 34.468C202.18 36.952 196.708 41.272 194.008 43.54C190.768 46.276 190.336 47.824 193.756 50.668C197.104 53.44 202.576 58.12 205.096 60.712C205.996 61.576 206.824 62.476 207.58 63.34L210.136 60.964C206.32 57.148 199.948 52 196.672 49.336C194.368 47.392 194.404 46.816 196.564 44.98C199.228 42.748 204.412 38.644 206.86 36.484C207.472 35.98 208.588 35.044 209.344 34.432Z" fill="white"/>
</svg>
