<svg viewBox="0 0 260 100" fill="none" xmlns="http://www.w3.org/2000/svg">
<rect width="260" height="100" fill="#BF1D1D"/>
<path d="M44.18 58.372V48.328H62.036V58.372H44.18ZM62.036 35.98V45.7H44.18V35.98H62.036ZM41.48 33.352V63.34H44.18V61H62.036V63.196H64.844V33.352H41.48ZM104.624 41.092V38.428H90.368V30.904H87.596V38.428H73.448V41.092H85.94C82.916 47.248 77.696 53.08 72.224 55.924C72.836 56.428 73.736 57.436 74.132 58.084C79.424 55.024 84.284 49.588 87.596 43.36V54.376H80.576V57.04H87.596V63.736H90.368V57.04H97.208V54.376H90.368V43.36C93.608 49.588 98.432 55.06 103.868 58.048C104.264 57.292 105.2 56.248 105.848 55.708C100.196 52.972 95.012 47.248 92.024 41.092H104.624ZM123.416 36.7V39.58C127.376 40.012 134.36 40.012 138.212 39.58V36.664C134.612 37.204 127.34 37.348 123.416 36.7ZM124.82 51.352L122.228 51.1C121.832 52.864 121.616 54.124 121.616 55.348C121.616 58.732 124.316 60.748 130.364 60.748C134.072 60.748 137.096 60.424 139.364 59.992L139.292 56.968C136.376 57.616 133.604 57.904 130.364 57.904C125.468 57.904 124.28 56.32 124.28 54.664C124.28 53.692 124.46 52.684 124.82 51.352ZM116.54 33.928L113.336 33.64C113.336 34.432 113.228 35.368 113.084 36.196C112.652 39.184 111.464 45.34 111.464 50.632C111.464 55.492 112.076 59.632 112.796 62.188L115.388 62.008C115.352 61.648 115.316 61.144 115.28 60.748C115.244 60.352 115.352 59.668 115.46 59.128C115.784 57.436 117.08 53.62 118.016 51.064L116.504 49.912C115.892 51.388 115.028 53.548 114.416 55.168C114.2 53.404 114.092 51.892 114.092 50.128C114.092 46.096 115.208 39.652 115.892 36.34C116.036 35.692 116.36 34.54 116.54 33.928ZM169.172 42.568C169.172 47.68 168.848 53.836 166.112 59.02C164.348 59.2 162.584 59.38 160.892 59.524V56.716H166.508V54.628H160.892V52.324H166.4V41.848H160.928V39.58H166.508V41.56H169.172V42.568ZM155.204 47.896H158.768V50.524H155.204V47.896ZM155.204 43.648H158.768V46.204H155.204V43.648ZM160.712 46.204V43.648H164.456V46.204H160.712ZM160.712 50.524V47.896H164.456V50.524H160.712ZM171.512 39.184V31.048H169.172V39.184H166.652V37.492H160.928V35.008C162.98 34.756 164.924 34.432 166.508 34.036L165.068 32.092C162.044 32.848 156.896 33.46 152.648 33.82C152.9 33.136 153.116 32.416 153.332 31.732L150.956 31.084C149.408 36.556 146.816 41.956 143.9 45.52C144.296 46.168 145.016 47.572 145.232 48.22C146.348 46.816 147.392 45.196 148.4 43.432V63.772H150.812V38.572C151.496 37.024 152.108 35.44 152.648 33.82C152.936 34.36 153.188 35.152 153.296 35.728C154.988 35.62 156.788 35.476 158.588 35.296V37.492H152.864V39.58H158.588V41.848H153.332V52.324H158.588V54.628H153.224V56.716H158.588V59.74L152.324 60.316L152.756 62.584C156.104 62.188 160.46 61.72 164.816 61.18C164.492 61.648 164.132 62.08 163.772 62.512C164.42 62.836 165.356 63.484 165.752 63.916C170.828 57.904 171.512 49.48 171.512 42.568V41.56H174.752C174.464 54.988 174.14 59.668 173.456 60.676C173.168 61.18 172.844 61.252 172.376 61.252C171.764 61.252 170.54 61.216 169.136 61.108C169.532 61.756 169.748 62.8 169.784 63.448C171.116 63.556 172.484 63.556 173.384 63.448C174.32 63.34 174.932 63.088 175.508 62.188C176.516 60.748 176.768 55.852 177.092 40.444C177.092 40.12 177.128 39.184 177.128 39.184H171.512ZM204.344 34.432L201.68 32.056C201.248 32.74 200.348 33.748 199.628 34.468C197.18 36.952 191.708 41.272 189.008 43.54C185.768 46.276 185.336 47.824 188.756 50.668C192.104 53.44 197.576 58.12 200.096 60.712C200.996 61.576 201.824 62.476 202.58 63.34L205.136 60.964C201.32 57.148 194.948 52 191.672 49.336C189.368 47.392 189.404 46.816 191.564 44.98C194.228 42.748 199.412 38.644 201.86 36.484C202.472 35.98 203.588 35.044 204.344 34.432Z" fill="white"/>
</svg>
