<svg width="308" height="127" viewBox="0 0 309 130" fill="none" xmlns="http://www.w3.org/2000/svg">
<rect x="0.5" y="2.4697" width="308" height="127.03" fill="white" stroke="black"/>
<g clip-path="url(#clip0)">
<path d="M176.673 26.9345L191.764 19.0786L176.673 10.9982V0L202.52 14.5895V23.5677L176.673 38.1572V26.9345Z" fill="#A100FF"/>
<path d="M33.9534 96.5152C28.4951 96.5152 24 92.6994 24 84.1702V83.7213C24 73.3964 30.4216 69.8051 38.288 69.8051H41.9804V67.7851C41.9804 63.5204 40.6961 61.0514 37.4853 61.0514C34.5956 61.0514 33.1507 63.296 32.9902 66.4383H24.9632C25.6054 57.0113 30.9032 52.5222 37.9669 52.5222C45.1912 52.5222 50.489 56.7868 50.489 67.3362V95.6173H42.3015V90.6794C40.6961 93.8217 37.9669 96.5152 33.9534 96.5152ZM41.9804 81.7012V77.661H38.6091C34.4351 77.661 32.348 79.2322 32.348 83.0479V83.4968C32.348 86.4147 33.6324 88.4348 36.5221 88.4348C39.4118 88.2104 41.9804 85.9658 41.9804 81.7012ZM69.5931 96.5152C61.2451 96.5152 55.1446 89.3326 55.1446 74.9676V74.2942C55.1446 59.9292 61.5662 52.2977 69.5931 52.2977C76.4963 52.2977 82.1152 57.2357 82.7574 68.234H74.7304C74.2488 64.1938 72.6434 61.5004 69.7537 61.5004C66.2218 61.5004 63.6532 65.5405 63.6532 73.8453V75.192C63.6532 83.7213 65.9007 87.537 69.7537 87.537C72.6434 87.537 74.7304 84.6191 75.212 79.9056H82.9179C82.4363 89.7815 77.7806 96.5152 69.5931 96.5152ZM101.059 96.5152C92.7108 96.5152 86.6103 89.3326 86.6103 74.9676V74.2942C86.6103 59.9292 93.0319 52.2977 101.059 52.2977C107.962 52.2977 113.581 57.2357 114.223 68.234H106.196C105.714 64.1938 104.109 61.5004 101.219 61.5004C97.6875 61.5004 95.1189 65.5405 95.1189 73.8453V75.192C95.1189 83.7213 97.3664 87.537 101.219 87.537C104.109 87.537 106.196 84.6191 106.678 79.9056H114.384C113.902 89.7815 109.246 96.5152 101.059 96.5152ZM132.685 96.5152C124.016 96.5152 118.076 89.3326 118.076 75.192V74.2942C118.076 60.1536 124.337 52.2977 132.525 52.2977C140.07 52.2977 146.331 58.1335 146.331 72.2741V77.4366H126.585C126.906 85.068 129.314 87.9859 132.846 87.9859C136.056 87.9859 137.822 85.5169 138.464 82.599H146.331C145.368 90.4549 140.551 96.5152 132.685 96.5152ZM126.745 69.5807H137.983C137.822 63.296 135.735 60.6025 132.364 60.6025C129.795 60.827 127.387 62.8471 126.745 69.5807ZM151.468 53.42H159.977V59.7047C161.422 55.6646 164.472 52.5222 169.127 52.5222C174.586 52.5222 178.278 57.2357 178.278 67.3362V95.6173H169.77V69.1318C169.77 64.1938 168.325 61.9493 165.275 61.9493C162.385 61.9493 159.977 64.4183 159.977 69.8051V95.6173H151.468V53.42ZM193.85 40.6261V53.42H199.63V62.1737H193.85V82.1501C193.85 85.2925 194.814 86.8636 196.901 86.8636C198.185 86.8636 198.988 86.6392 199.79 86.1903V95.3929C198.827 95.8418 197.061 96.2907 194.974 96.2907C188.392 96.2907 185.342 92.0261 185.342 83.4968V62.1737H181.81V53.42H185.342V45.5641L193.85 40.6261ZM231.417 95.6173H223.069V89.3326C221.624 93.3728 218.734 96.5152 214.239 96.5152C208.781 96.5152 204.767 91.8016 204.767 81.9257V53.42H213.276V80.3545C213.276 85.2925 214.721 87.537 217.61 87.537C220.5 87.537 222.908 84.8436 222.908 79.6811V53.42H231.417V95.6173ZM237.678 53.42H246.186V61.2759C247.952 55.6645 250.842 52.9711 255.337 52.9711V64.6427C249.558 64.6427 246.186 67.1117 246.186 74.0698V95.8418H237.678V53.42ZM272.515 96.5152C263.846 96.5152 257.906 89.3326 257.906 75.192V74.2942C257.906 60.1536 264.167 52.2977 272.354 52.2977C279.9 52.2977 286.161 58.1335 286.161 72.2741V77.4366H266.575C266.896 85.068 269.304 87.9859 272.836 87.9859C276.047 87.9859 277.813 85.5169 278.455 82.599H286.321C285.037 90.4549 280.381 96.5152 272.515 96.5152ZM266.414 69.5807H277.813C277.652 63.296 275.565 60.6025 272.194 60.6025C269.625 60.827 267.217 62.8471 266.414 69.5807Z" fill="black"/>
</g>
<defs>
<clipPath id="clip0">
<rect width="262" height="96.5152" fill="white" transform="translate(24)"/>
</clipPath>
</defs>
</svg>
