<svg width="308" height="127" viewBox="0 0 309 130" fill="none" xmlns="http://www.w3.org/2000/svg">
<rect x="0.5" y="0.5" width="308" height="129" fill="white" stroke="black"/>
<g clip-path="url(#clip0)">
<path fill-rule="evenodd" clip-rule="evenodd" d="M147.903 99.618L147.876 107.025L148.314 107.118C149.687 107.436 151.074 107.656 152.467 107.78C153.686 107.919 154.913 107.949 156.136 107.867C157.306 107.764 158.462 107.492 159.581 107.063C160.894 106.603 162.113 105.799 163.154 104.705C164.091 103.715 164.808 102.443 165.235 101.012C165.98 98.6167 165.965 95.9608 165.193 93.5781C164.787 92.3417 164.147 91.2439 163.328 90.3768C162.535 89.4929 161.604 88.8215 160.592 88.4048L156.078 86.3313C155.539 86.0477 155.101 85.5314 154.846 84.8785C154.748 84.6104 154.701 84.3178 154.71 84.0236C154.718 83.7295 154.782 83.4418 154.896 83.1833C154.977 82.9998 155.078 82.8313 155.197 82.683C155.39 82.4387 155.616 82.2369 155.864 82.0864C156.368 81.7769 156.912 81.5826 157.472 81.507C158.427 81.3364 159.398 81.3492 160.35 81.5448C161.475 81.6961 162.59 81.9419 163.686 82.2841L163.919 82.3477V75.5152L163.489 75.4C162.37 75.0686 161.237 74.8189 160.094 74.6521C158.614 74.4073 157.114 74.3993 155.632 74.628C153.754 74.8409 151.968 75.7303 150.494 77.1864C149.495 78.1571 148.735 79.4541 148.3 80.931C147.645 83.1809 147.643 85.6431 148.296 87.8941C148.632 89.0117 149.171 90.0209 149.874 90.841C150.481 91.5666 151.168 92.1821 151.915 92.6721C152.899 93.3254 153.94 93.8326 155.019 94.1816C155.376 94.314 155.731 94.4533 156.083 94.5994L156.618 94.8418L156.771 94.9192C157.299 95.153 157.779 95.521 158.185 95.9989C158.465 96.3256 158.682 96.7262 158.817 97.1732C158.9 97.5807 158.901 98.0071 158.821 98.4163C158.652 99.0752 158.281 99.6258 157.787 99.9499C157.25 100.296 156.668 100.521 156.067 100.615C155.185 100.789 154.291 100.844 153.4 100.782C152.231 100.674 151.069 100.482 149.918 100.208C149.317 100.053 148.718 99.8811 148.125 99.6868L147.903 99.618ZM123.369 106.757V98.1566L123.233 98.2306C121.668 99.1691 119.964 99.7043 118.226 99.8037C116.42 99.979 114.625 99.324 113.185 97.9641C112.156 96.9811 111.391 95.6363 110.99 94.106C110.548 92.4385 110.497 90.65 110.843 88.9481C111.164 87.2074 111.952 85.6525 113.078 84.5364C114.076 83.5027 115.296 82.8515 116.589 82.6623C118.873 82.3487 121.182 82.8844 123.219 84.2011L123.369 84.2974V75.6493L123.053 75.5444C121.013 74.7333 118.871 74.3861 116.731 74.5197C114.781 74.5817 112.862 75.1253 111.085 76.1187C109.291 77.1356 107.709 78.6484 106.461 80.5407C104.565 83.5112 103.512 87.1726 103.467 90.9582C103.421 94.7438 104.385 98.4425 106.208 101.482C108.054 104.404 110.645 106.466 113.558 107.333C116.629 108.258 119.847 108.117 122.86 106.93L123.369 106.757ZM132.425 107.324H138.994V75.0682H132.425V107.324ZM90 49.1463C90.0468 49.9028 90.2648 50.6277 90.6291 51.2378C90.9934 51.848 91.4893 52.3186 92.0598 52.5959C92.6303 52.8732 93.2524 52.9459 93.8547 52.8056C94.457 52.6653 95.0152 52.3177 95.4653 51.8026C96.0681 51.1098 96.4375 50.1607 96.4986 49.1463V40.206C96.481 39.1536 96.131 38.1517 95.5235 37.4151C94.9161 36.6785 94.0996 36.266 93.2493 36.266C92.399 36.266 91.5825 36.6785 90.9751 37.4151C90.3676 38.1517 90.0176 39.1536 90 40.206V49.1463ZM107.986 49.1463C108.048 50.1609 108.418 51.1089 109.02 51.8009C109.623 52.493 110.414 52.8779 111.236 52.8789C112.058 52.8787 112.85 52.494 113.452 51.8017C114.055 51.1095 114.423 50.161 114.485 49.1463V29.1045C114.455 28.0626 114.099 27.0759 113.493 26.352C112.887 25.6282 112.078 25.2237 111.235 25.2237C110.393 25.2237 109.584 25.6282 108.978 26.352C108.372 27.0759 108.016 28.0626 107.986 29.1045V49.148V49.1463ZM125.878 57.2184C125.937 58.2352 126.304 59.1866 126.907 59.8812C127.51 60.5758 128.303 60.962 129.126 60.962C129.95 60.962 130.743 60.5758 131.346 59.8812C131.948 59.1866 132.316 58.2352 132.375 57.2184V13.8663C132.333 12.835 131.972 11.8632 131.368 11.1517C130.763 10.4402 129.961 10.0435 129.126 10.0435C128.292 10.0435 127.49 10.4402 126.885 11.1517C126.281 11.8632 125.92 12.835 125.878 13.8663V57.2184ZM143.861 49.1463C143.92 50.1636 144.288 51.1154 144.891 51.8103C145.494 52.5052 146.287 52.8915 147.111 52.8915C147.935 52.8915 148.728 52.5052 149.331 51.8103C149.934 51.1154 150.302 50.1636 150.361 49.1463V29.1045C150.327 28.0654 149.97 27.0828 149.364 26.3622C148.758 25.6416 147.951 25.2387 147.111 25.2378C146.27 25.2374 145.462 25.6401 144.856 26.3614C144.251 27.0826 143.894 28.0664 143.861 29.1062V49.1463ZM161.765 49.1463C161.812 49.9032 162.03 50.6284 162.394 51.2388C162.759 51.8493 163.255 52.3202 163.825 52.5975C164.396 52.8749 165.019 52.9474 165.621 52.8068C166.224 52.6662 166.782 52.3182 167.232 51.8026C167.835 51.1098 168.204 50.1607 168.264 49.1463V40.206C168.238 39.4314 168.032 38.6825 167.671 38.0492C167.31 37.4158 166.809 36.925 166.228 36.6354C165.647 36.3459 165.011 36.2701 164.396 36.417C163.781 36.5639 163.213 36.9273 162.761 37.4637C162.156 38.1841 161.799 39.1658 161.765 40.206V49.1463ZM179.736 49.1463C179.802 50.1575 180.172 51.101 180.774 51.7891C181.377 52.4771 182.166 52.8592 182.985 52.8592C183.805 52.8592 184.594 52.4771 185.196 51.7891C185.799 51.101 186.169 50.1575 186.235 49.1463V29.1045C186.196 28.0699 185.837 27.0935 185.232 26.3782C184.627 25.663 183.822 25.2639 182.985 25.2639C182.149 25.2639 181.344 25.663 180.739 26.3782C180.134 27.0935 179.775 28.0699 179.736 29.1045V49.148V49.1463ZM197.633 57.2184C197.692 58.2352 198.06 59.1866 198.663 59.8812C199.266 60.5758 200.058 60.962 200.882 60.962C201.705 60.962 202.498 60.5758 203.101 59.8812C203.704 59.1866 204.072 58.2352 204.131 57.2184V13.8663C204.106 13.0913 203.9 12.3416 203.539 11.7076C203.178 11.0735 202.677 10.582 202.096 10.2922C201.515 10.0023 200.878 9.9265 200.263 10.0738C199.648 10.221 199.08 10.5852 198.628 11.1223C198.022 11.8435 197.666 12.8269 197.633 13.8663V57.2184ZM215.589 49.1463C215.65 50.1613 216.019 51.1101 216.622 51.8026C217.224 52.495 218.016 52.8798 218.838 52.8798C219.66 52.8798 220.452 52.495 221.055 51.8026C221.657 51.1101 222.026 50.1613 222.087 49.1463V29.1045C222.054 28.0652 221.697 27.0824 221.091 26.3617C220.485 25.641 219.678 25.2383 218.837 25.2378C217.997 25.2383 217.19 25.6413 216.584 26.3625C215.979 27.0836 215.622 28.0668 215.589 29.1062V49.1463ZM233.501 49.1463C233.56 50.1636 233.928 51.1154 234.531 51.8103C235.134 52.5052 235.928 52.8915 236.751 52.8915C237.575 52.8915 238.368 52.5052 238.971 51.8103C239.575 51.1154 239.942 50.1636 240.001 49.1463V40.206C239.968 39.1667 239.611 38.1839 239.005 37.4632C238.399 36.7425 237.592 36.3398 236.751 36.3393C235.911 36.3389 235.103 36.7416 234.497 37.4629C233.891 38.1841 233.534 39.1679 233.501 40.2077V49.1463ZM192.019 106.757V98.1566L191.883 98.2306C190.317 99.1693 188.613 99.7045 186.875 99.8037C185.069 99.9785 183.275 99.3236 181.835 97.9641C180.806 96.981 180.041 95.6363 179.64 94.106C179.198 92.4387 179.146 90.6502 179.492 88.9481C179.813 87.2072 180.601 85.6522 181.728 84.5364C182.726 83.5029 183.945 82.8517 185.237 82.6623C187.523 82.3486 189.831 82.8842 191.869 84.2011L192.019 84.2974V75.6493L191.701 75.5444C189.662 74.7335 187.52 74.3863 185.381 74.5197C183.431 74.581 181.511 75.124 179.733 76.117C177.94 77.1345 176.359 78.6472 175.111 80.539C173.215 83.5096 172.162 87.1714 172.116 90.9573C172.071 94.7433 173.034 98.4423 174.858 101.482C176.704 104.404 179.295 106.467 182.208 107.333C185.278 108.258 188.497 108.117 191.508 106.93L192.019 106.757ZM208.479 84.5931C209.181 83.8851 209.99 83.3565 210.858 83.0376C211.726 82.7188 212.637 82.6161 213.537 82.7355C214.437 82.8549 215.31 83.194 216.104 83.7333C216.897 84.2725 217.597 85.0012 218.162 85.8771C218.727 86.7531 219.146 87.759 219.395 88.8368C219.645 89.9145 219.719 91.0426 219.613 92.156C219.508 93.2694 219.226 94.3459 218.782 95.3233C218.339 96.3008 217.744 97.1597 217.031 97.8506C215.607 99.2121 213.809 99.8264 212.023 99.561C210.237 99.2956 208.608 98.1717 207.485 96.432C206.363 94.6922 205.838 92.476 206.024 90.2614C206.21 88.0469 207.092 86.0117 208.479 84.5948V84.5931ZM198.942 91.2107C198.973 93.7283 199.456 96.2058 200.357 98.4635C201.258 100.721 202.553 102.702 204.149 104.264C205.745 105.825 207.601 106.927 209.584 107.49C211.566 108.053 213.625 108.062 215.611 107.518C218.279 106.897 220.73 105.285 222.64 102.897C224.55 100.51 225.828 97.4592 226.303 94.1512C226.779 90.8431 226.431 87.4342 225.304 84.3772C224.177 81.3202 222.326 78.76 219.996 77.0368C217.926 75.4512 215.555 74.5715 213.122 74.4869C210.689 74.4023 208.281 75.1159 206.143 76.5552C204.005 77.9945 202.213 80.1084 200.948 82.6823C199.683 85.2562 198.99 88.1985 198.94 91.2107" fill="#1BA0D7"/>
</g>
<defs>
<clipPath id="clip0">
<rect width="150" height="98" fill="white" transform="translate(90 10)"/>
</clipPath>
</defs>
</svg>
