<svg viewBox="0 0 309 130" fill="none" xmlns="http://www.w3.org/2000/svg">
<rect x="0.5" y="0.5" width="308" height="129" fill="white" stroke="black"/>
<path d="M121.105 15.8576C126.652 10.0891 134.377 6.44239 142.895 6.44239C154.253 6.44239 164.091 12.8076 169.374 22.2228C173.93 20.1674 179.014 19.0402 184.363 19.0402C204.832 19.0402 221.34 35.8152 221.34 56.5022C221.34 77.1891 204.766 93.9641 184.363 93.9641C181.853 93.9641 179.41 93.6989 177.099 93.2348C172.477 101.523 163.629 107.159 153.46 107.159C149.234 107.159 145.206 106.164 141.641 104.44C136.953 115.513 125.992 123.337 113.248 123.337C99.9756 123.337 88.6183 114.916 84.2603 103.048C82.3454 103.446 80.3645 103.645 78.3836 103.645C62.5362 103.645 49.7263 90.6489 49.7263 74.5369C49.7263 63.7956 55.471 54.3804 64.0549 49.3413C62.2721 45.2967 61.2817 40.788 61.2817 36.0141C61.2156 17.6478 76.2046 2.66304 94.5611 2.66304C105.39 2.66304 115.031 7.83478 121.105 15.8576Z" fill="#00A1E0"/>
<path d="M74.5538 65.2544L75.2802 63.3315C75.4122 63 75.6103 63.1326 75.7424 63.1989C75.9405 63.3315 76.0725 63.3978 76.3366 63.5967C78.3836 64.9228 80.2985 64.9228 80.8928 64.9228C82.4115 64.9228 83.4019 64.1272 83.4019 63V62.9337C83.4019 61.7402 81.9492 61.2761 80.2324 60.7457L79.8363 60.6131C77.5252 59.95 75.016 58.9554 75.016 56.038V55.9717C75.016 53.187 77.2611 51.1978 80.4966 51.1978H80.8267C82.7416 51.1978 84.5244 51.7283 85.845 52.5902C85.9771 52.6565 86.1092 52.7891 86.0431 52.9881C85.9771 53.187 85.3828 54.712 85.3168 54.9109C85.1847 55.2424 84.8546 55.0435 84.8546 55.0435C83.666 54.3804 81.8832 53.9163 80.3645 53.9163C78.9779 53.9163 78.1195 54.6457 78.1195 55.6402V55.7065C78.1195 56.8337 79.6382 57.3641 81.355 57.8946L81.6851 57.9609C83.9962 58.6902 86.4393 59.6848 86.4393 62.5359V62.6022C86.4393 65.6522 84.2603 67.5087 80.7607 67.5087C79.0439 67.5087 77.3931 67.2435 75.6103 66.3152C75.2802 66.1163 74.95 65.9837 74.6199 65.7185C74.5538 65.5859 74.4218 65.5196 74.5538 65.2544ZM126.058 65.2544L126.784 63.3315C126.916 63 127.18 63.1326 127.246 63.1989C127.444 63.3315 127.576 63.3978 127.84 63.5967C129.887 64.9228 131.802 64.9228 132.397 64.9228C133.915 64.9228 134.906 64.1272 134.906 63V62.9337C134.906 61.7402 133.453 61.2761 131.736 60.7457L131.34 60.6131C129.029 59.95 126.52 58.9554 126.52 56.038V55.9717C126.52 53.187 128.765 51.1978 132 51.1978H132.331C134.245 51.1978 136.028 51.7283 137.349 52.5902C137.481 52.6565 137.613 52.7891 137.547 52.9881C137.481 53.187 136.887 54.712 136.821 54.9109C136.689 55.2424 136.358 55.0435 136.358 55.0435C135.17 54.3804 133.387 53.9163 131.868 53.9163C130.482 53.9163 129.623 54.6457 129.623 55.6402V55.7065C129.623 56.8337 131.142 57.3641 132.859 57.8946L133.189 57.9609C135.5 58.6902 137.943 59.6848 137.943 62.5359V62.6022C137.943 65.6522 135.764 67.5087 132.265 67.5087C130.548 67.5087 128.897 67.2435 127.114 66.3152C126.784 66.1163 126.454 65.9837 126.124 65.7185C126.124 65.5859 125.992 65.5196 126.058 65.2544ZM164.223 56.1707C164.487 57.1652 164.686 58.2261 164.686 59.3533C164.686 60.4804 164.553 61.5413 164.223 62.5359C163.959 63.5304 163.497 64.3924 162.903 65.1217C162.308 65.8511 161.516 66.4478 160.658 66.8457C159.733 67.2435 158.677 67.4424 157.488 67.4424C156.3 67.4424 155.243 67.2435 154.319 66.8457C153.394 66.4478 152.668 65.8511 152.074 65.1217C151.479 64.3924 151.017 63.5304 150.753 62.5359C150.489 61.5413 150.291 60.4804 150.291 59.3533C150.291 58.2261 150.423 57.1652 150.753 56.1707C151.017 55.1761 151.479 54.3141 152.074 53.5848C152.668 52.8554 153.46 52.2587 154.319 51.8609C155.243 51.463 156.3 51.1978 157.488 51.1978C158.677 51.1978 159.733 51.3967 160.658 51.8609C161.582 52.2587 162.308 52.8554 162.903 53.5848C163.497 54.3141 163.959 55.1761 164.223 56.1707ZM161.252 59.287C161.252 57.5631 160.922 56.237 160.327 55.3087C159.733 54.3804 158.743 53.9163 157.488 53.9163C156.168 53.9163 155.243 54.3804 154.649 55.3087C154.055 56.237 153.724 57.5631 153.724 59.287C153.724 61.0109 154.055 62.337 154.649 63.3315C155.243 64.2598 156.168 64.7239 157.488 64.7239C158.809 64.7239 159.733 64.2598 160.327 63.3315C160.988 62.4033 161.252 61.0109 161.252 59.287ZM188.39 64.2598L189.117 66.2489C189.183 66.5141 188.985 66.5804 188.985 66.5804C187.862 67.0446 186.344 67.3098 184.825 67.3098C182.25 67.3098 180.335 66.5804 179.014 65.1217C177.694 63.663 177.033 61.6739 177.033 59.2207C177.033 58.0935 177.165 57.0326 177.495 56.038C177.826 55.0435 178.288 54.1815 178.948 53.4522C179.608 52.7228 180.401 52.1261 181.325 51.7283C182.25 51.3304 183.372 51.0652 184.627 51.0652C185.485 51.0652 186.211 51.1315 186.806 51.1978C187.466 51.3304 188.39 51.5294 188.787 51.7283C188.853 51.7283 189.051 51.8609 188.985 52.0598C188.721 52.8554 188.523 53.3859 188.258 54.0489C188.126 54.3804 187.928 54.2478 187.928 54.2478C186.938 53.9163 186.013 53.7837 184.825 53.7837C183.372 53.7837 182.25 54.2478 181.589 55.2424C180.863 56.1707 180.467 57.4304 180.467 59.1544C180.467 61.0109 180.929 62.337 181.721 63.1989C182.514 64.0609 183.636 64.4587 185.089 64.4587C185.683 64.4587 186.211 64.3924 186.674 64.3261C187.136 64.2598 187.598 64.1272 188.06 63.9283C187.994 64.0609 188.258 63.9946 188.39 64.2598ZM203.379 55.5739C204.04 57.8283 203.71 59.7511 203.644 59.8837C203.644 60.1489 203.379 60.1489 203.379 60.1489H193.409C193.475 61.6739 193.805 62.7348 194.597 63.4641C195.324 64.1935 196.446 64.6576 198.031 64.6576C200.408 64.6576 201.398 64.1935 202.125 63.9283C202.125 63.9283 202.389 63.862 202.521 64.1272L203.181 65.9837C203.313 66.3152 203.181 66.3815 203.115 66.4478C202.521 66.7794 201.002 67.4424 198.097 67.4424C196.71 67.4424 195.456 67.2435 194.465 66.8457C193.475 66.4478 192.616 65.9174 191.956 65.1881C191.296 64.4587 190.834 63.5967 190.503 62.6685C190.173 61.6739 190.041 60.613 190.041 59.4859C190.041 58.3587 190.173 57.2978 190.503 56.3033C190.768 55.3087 191.23 54.4467 191.824 53.7174C192.418 52.9881 193.211 52.3913 194.135 51.9935C195.06 51.5294 196.182 51.3304 197.437 51.3304C198.493 51.3304 199.484 51.5294 200.276 51.9272C200.87 52.1924 201.531 52.6565 202.191 53.3859C202.521 53.6511 203.115 54.6457 203.379 55.5739ZM193.475 57.6957H200.54C200.474 56.7674 200.276 55.9717 199.88 55.3087C199.286 54.3804 198.427 53.85 197.107 53.85C195.786 53.85 194.861 54.3804 194.267 55.3087C193.871 55.9054 193.673 56.7011 193.475 57.6957ZM123.681 55.5739C124.341 57.8283 124.011 59.7511 124.011 59.8837C124.011 60.1489 123.747 60.1489 123.747 60.1489H113.776C113.842 61.6739 114.172 62.7348 114.965 63.4641C115.691 64.1935 116.813 64.6576 118.398 64.6576C120.775 64.6576 121.766 64.1935 122.492 63.9283C122.492 63.9283 122.756 63.862 122.888 64.1272L123.548 65.9837C123.681 66.3152 123.548 66.3815 123.482 66.4478C122.888 66.7794 121.369 67.4424 118.464 67.4424C117.077 67.4424 115.823 67.2435 114.832 66.8457C113.842 66.4478 112.984 65.9174 112.323 65.1881C111.663 64.4587 111.201 63.5967 110.871 62.6685C110.54 61.6739 110.408 60.613 110.408 59.4859C110.408 58.3587 110.54 57.2978 110.871 56.3033C111.135 55.3087 111.597 54.4467 112.191 53.7174C112.786 52.9881 113.578 52.3913 114.502 51.9935C115.427 51.5294 116.549 51.3304 117.804 51.3304C118.86 51.3304 119.851 51.5294 120.643 51.9272C121.237 52.1924 121.898 52.6565 122.558 53.3859C122.822 53.6511 123.482 54.6457 123.681 55.5739ZM113.776 57.6957H120.907C120.841 56.7674 120.643 55.9717 120.247 55.3087C119.653 54.3804 118.794 53.85 117.474 53.85C116.153 53.85 115.229 54.3804 114.634 55.3087C114.172 55.9054 113.974 56.7011 113.776 57.6957ZM96.2779 57.1652C96.2779 57.1652 97.0702 57.2315 97.9286 57.3641V56.9663C97.9286 55.6402 97.6645 54.9772 97.1363 54.5794C96.608 54.1815 95.7496 53.9163 94.6931 53.9163C94.6931 53.9163 92.25 53.9163 90.3351 54.9109C90.2691 54.9772 90.2031 54.9772 90.2031 54.9772C90.2031 54.9772 89.9389 55.0435 89.8729 54.8446L89.1466 52.9217C89.0145 52.6565 89.2126 52.5239 89.2126 52.5239C90.137 51.7946 92.25 51.3967 92.25 51.3967C92.9763 51.2641 94.1649 51.1315 94.8912 51.1315C96.8721 51.1315 98.3908 51.5957 99.4473 52.5239C100.504 53.4522 101.032 54.9109 101.032 56.9663V66.1163C101.032 66.1163 101.032 66.3815 100.834 66.4478C100.834 66.4478 100.438 66.5804 100.108 66.6467C99.7775 66.713 98.5889 66.9783 97.5985 67.1109C96.608 67.3098 95.6176 67.3761 94.5611 67.3761C93.5706 67.3761 92.7122 67.3098 91.9199 67.1109C91.1275 66.912 90.4672 66.6467 89.8729 66.2489C89.3447 65.8511 88.8824 65.3207 88.5523 64.6576C88.2221 64.0609 88.0901 63.2652 88.0901 62.4033C88.0901 61.5413 88.2882 60.7457 88.6183 60.0826C88.9485 59.4196 89.4767 58.8891 90.071 58.425C90.6653 57.9609 91.3916 57.6957 92.1179 57.4304C92.9103 57.2315 93.7027 57.0989 94.5611 57.0989C95.3534 57.1652 95.8817 57.1652 96.2779 57.1652ZM92.316 64.1935C92.316 64.1935 93.2405 64.9228 95.2214 64.7902C96.6741 64.7239 97.9286 64.4587 97.9286 64.4587V59.8837C97.9286 59.8837 96.6741 59.6848 95.2214 59.6848C93.1744 59.6848 92.316 60.4141 92.316 60.4141C91.7218 60.812 91.4576 61.475 91.4576 62.337C91.4576 62.8674 91.5897 63.3315 91.7878 63.663C91.8538 63.7957 91.9199 63.9283 92.316 64.1935ZM176.505 52.0598C176.439 52.325 175.911 53.7174 175.779 54.1815C175.713 54.3804 175.581 54.4467 175.382 54.4467C175.382 54.4467 174.788 54.3141 174.26 54.3141C173.93 54.3141 173.402 54.3804 172.939 54.513C172.477 54.6457 172.081 54.9109 171.685 55.2424C171.289 55.5739 171.024 56.1044 170.826 56.7011C170.628 57.2978 170.496 58.2924 170.496 59.3533V66.7794C170.496 66.9783 170.364 67.1109 170.166 67.1109H167.525C167.327 67.1109 167.195 66.9783 167.195 66.7794V51.8609C167.195 51.662 167.327 51.5294 167.459 51.5294H170.034C170.232 51.5294 170.298 51.662 170.298 51.8609V53.0544C170.694 52.5239 171.355 52.0598 171.949 51.7946C172.543 51.5294 173.269 51.3304 174.524 51.3967C175.184 51.4631 176.043 51.5957 176.175 51.662C176.439 51.7283 176.571 51.7946 176.505 52.0598ZM152.008 45.1641C152.074 45.1641 152.272 45.2967 152.206 45.4957L151.413 47.6174C151.347 47.75 151.281 47.8826 150.951 47.75C150.885 47.75 150.753 47.6837 150.423 47.6174C150.225 47.5511 149.895 47.5511 149.631 47.5511C149.234 47.5511 148.904 47.6174 148.574 47.6837C148.244 47.75 147.98 47.9489 147.716 48.2141C147.452 48.4794 147.187 48.8109 146.989 49.275C146.593 50.3359 146.461 51.463 146.461 51.5294H149.631C149.895 51.5294 149.961 51.662 149.961 51.8609L149.565 53.9163C149.498 54.2478 149.234 54.1815 149.234 54.1815H145.933L143.82 66.9783C143.556 68.3044 143.292 69.4315 142.961 70.3598C142.631 71.288 142.235 71.9511 141.641 72.6141C141.113 73.2109 140.518 73.675 139.792 73.8739C139.132 74.1391 138.273 74.2717 137.349 74.2717C136.887 74.2717 136.424 74.2717 135.896 74.1391C135.5 74.0728 135.302 74.0065 134.972 73.8739C134.84 73.8076 134.774 73.675 134.84 73.4761C134.906 73.2772 135.5 71.6859 135.566 71.4207C135.698 71.1554 135.896 71.288 135.896 71.288C136.094 71.3544 136.226 71.4207 136.424 71.487C136.689 71.5533 136.953 71.5533 137.217 71.5533C137.679 71.5533 138.075 71.487 138.405 71.3544C138.802 71.2217 139.066 70.9565 139.33 70.625C139.594 70.2935 139.792 69.8294 140.056 69.2326C140.254 68.6359 140.452 67.7739 140.65 66.7794L142.895 54.2478H140.716C140.452 54.2478 140.386 54.1152 140.386 53.9163L140.782 51.8609C140.848 51.5294 141.113 51.5957 141.113 51.5957H143.358L143.49 50.9326C143.82 48.9435 144.48 47.4185 145.471 46.4239C146.461 45.4294 147.914 44.8989 149.697 44.8989C150.225 44.8989 150.687 44.9652 151.083 45.0315C151.347 44.9652 151.677 45.0315 152.008 45.1641ZM107.503 66.713C107.503 66.912 107.371 67.0446 107.239 67.0446H104.598C104.4 67.0446 104.334 66.912 104.334 66.713V45.4294C104.334 45.2967 104.466 45.0978 104.598 45.0978H107.239C107.437 45.0978 107.503 45.2304 107.503 45.4294V66.713Z" fill="white"/>
</svg>
