<svg viewBox="0 0 309 130" fill="none" xmlns="http://www.w3.org/2000/svg">
<rect x="0.5" y="0.5" width="308" height="129" fill="white" stroke="black"/>
<path fill-rule="evenodd" clip-rule="evenodd" d="M86.2917 45.6415C83.4067 45.6415 80.9772 47.0943 79.0033 49.1698V46.0566H72.3223V81.5472H79.307V58.9245C80.218 57.0566 82.6475 54.566 85.6843 54.566C86.7472 54.566 87.6582 54.7736 88.4175 55.1887V46.0566C87.6582 45.8491 86.899 45.6415 86.2917 45.6415Z" fill="#293E40"/>
<path fill-rule="evenodd" clip-rule="evenodd" d="M25.707 70.7547C27.5291 73.0377 30.2622 74.283 32.8435 74.283C34.6656 74.283 36.184 73.0377 36.184 71.3773C36.184 65.9811 23.5812 67.849 23.5812 56.4339C23.5812 49.5849 28.4401 45.4339 33.4509 45.4339C36.7914 45.4339 40.4356 47.0943 42.2577 48.9622L39.069 55.8113C37.7024 54.566 36.0322 53.3207 34.0582 53.3207C32.0843 53.3207 30.5659 54.3585 30.5659 56.2264C30.5659 60.7924 43.1687 58.9245 43.1687 71.3773C43.1687 78.2264 38.3098 82.3773 32.8435 82.3773C29.1993 82.3773 25.4033 80.717 22.3665 77.6038L25.707 70.7547Z" fill="#293E40"/>
<path fill-rule="evenodd" clip-rule="evenodd" d="M69.2855 63.4906C69.2855 53.5283 64.2748 45.2264 56.9864 45.2264C49.2425 45.2264 44.3835 53.9434 44.3835 63.6981C44.3835 74.9057 50.1535 82.1698 57.8974 82.1698C61.8453 82.1698 65.945 79.8868 68.5263 75.7358L64.5784 70.3396C63.3637 72.2075 60.9342 74.4906 58.0493 74.4906C54.4051 74.4906 51.3682 70.9623 51.0646 65.9811H68.9818C69.2855 65.3585 69.2855 64.5283 69.2855 63.4906ZM51.5201 59.3396C51.8238 56.0189 54.2532 53.1132 57.1382 53.1132C60.0232 53.1132 61.9971 56.2264 62.3008 59.3396H51.5201Z" fill="#293E40"/>
<path fill-rule="evenodd" clip-rule="evenodd" d="M104.816 67.849L111.953 46.0566H119.241L107.246 81.5472H102.387L90.5432 46.0566H97.6798L104.816 67.849Z" fill="#293E40"/>
<path fill-rule="evenodd" clip-rule="evenodd" d="M125.011 29.4528C127.593 29.4528 129.567 32.1509 129.567 35.4717C129.567 39 127.593 41.4906 125.011 41.4906C122.43 41.4906 120.456 38.7924 120.456 35.4717C120.456 31.9434 122.43 29.4528 125.011 29.4528Z" fill="#293E40"/>
<path d="M128.504 46.0566H121.519V81.5472H128.504V46.0566Z" fill="#293E40"/>
<path fill-rule="evenodd" clip-rule="evenodd" d="M157.201 74.283C154.165 79.8868 150.369 82.1698 145.51 82.1698C137.462 82.1698 131.692 73.8679 131.692 63.6981C131.692 53.3207 137.766 45.2264 145.662 45.2264C150.217 45.2264 154.165 48.1321 156.594 52.283L151.735 58.3019C150.369 55.8113 148.243 54.1509 145.813 54.1509C141.866 54.1509 138.829 58.5094 138.829 63.9057C138.829 69.5094 141.714 73.6604 145.965 73.6604C148.85 73.6604 150.976 71.3774 152.191 68.8868L157.201 74.283Z" fill="#293E40"/>
<path fill-rule="evenodd" clip-rule="evenodd" d="M182.407 75.9434C179.826 80.0943 175.726 82.3773 171.778 82.3773C164.034 82.3773 158.264 75.1132 158.264 63.9056C158.264 53.9434 163.123 45.4339 170.867 45.4339C178.004 45.4339 183.166 53.7358 183.166 63.6981C183.166 64.7358 183.166 65.566 183.015 66.3962H164.945C165.249 71.3773 168.286 74.9056 171.93 74.9056C174.815 74.9056 177.245 72.6226 178.459 70.7547L182.407 75.9434ZM175.878 59.3396C175.726 56.2264 173.6 53.1132 170.715 53.1132C167.83 53.1132 165.553 56.0189 165.097 59.3396H175.878Z" fill="#293E40"/>
<path fill-rule="evenodd" clip-rule="evenodd" d="M185.748 81.5471V46.0566H192.429V48.9622C194.403 46.6792 196.832 45.4339 199.717 45.4339C203.361 45.4339 206.55 47.717 208.676 51.2453C210.346 53.9434 211.409 57.6792 211.409 63.6981V81.7547H204.424V62.8679C204.424 59.3396 203.817 57.4717 202.906 56.2264C201.995 54.9811 200.628 54.1509 198.958 54.1509C196.073 54.1509 193.644 56.6415 192.581 58.5094V81.5471H185.748Z" fill="#293E40"/>
<path fill-rule="evenodd" clip-rule="evenodd" d="M229.326 45.4339C220.975 45.4339 214.142 54.566 214.142 65.9811C214.142 72 215.964 77.3962 218.849 81.3396C219.912 82.7924 221.582 82.7924 222.797 81.5472C224.467 79.6792 226.745 78.6415 229.326 78.6415C231.908 78.6415 234.033 79.6792 235.855 81.5472C237.07 82.7924 238.74 82.5849 239.803 81.1321C242.688 77.3962 244.51 72 244.51 65.9811C244.359 54.7736 237.677 45.4339 229.326 45.4339ZM229.174 76.566C224.619 76.566 221.582 72 221.582 66.1887C221.582 60.3773 224.619 55.8113 229.174 55.8113C233.73 55.8113 236.766 60.5849 236.766 66.1887C236.766 71.7924 233.73 76.566 229.174 76.566Z" fill="#81B5A1"/>
<path fill-rule="evenodd" clip-rule="evenodd" d="M258.176 81.5472H253.013L242.688 46.0566H249.521L255.139 66.3962L260.757 46.0566H266.527L271.994 66.3962L277.764 46.0566H284.748L274.423 81.5472H269.26L263.642 61.4151L258.176 81.5472Z" fill="#293E40"/>
<path d="M284.748 77.6038H284.141V79.0566H283.685V74.9057H284.9C285.507 74.9057 285.811 75.5283 285.811 76.1509C285.811 76.7736 285.507 77.1887 285.204 77.3962L285.963 79.0566H285.356L284.748 77.6038ZM284.141 76.9811H284.9C285.204 76.9811 285.356 76.7736 285.356 76.3585C285.356 75.9434 285.204 75.7358 284.9 75.7358H284.141V76.9811Z" fill="#293E40"/>
<path d="M284.748 73.2453C286.267 73.2453 287.481 74.9057 287.481 76.9811C287.481 79.0566 286.267 80.717 284.748 80.717C283.23 80.717 282.015 79.0566 282.015 76.9811C281.863 75.1132 283.23 73.2453 284.748 73.2453ZM284.748 72.6226C282.926 72.6226 281.56 74.6981 281.56 76.9811C281.56 79.4717 283.078 81.3396 284.748 81.3396C286.57 81.3396 287.937 79.2641 287.937 76.9811C287.937 74.6981 286.418 72.6226 284.748 72.6226Z" fill="#293E40"/>
</svg>
